<svg width="21" height="30" viewBox="0 0 21 30" fill="none" xmlns="http://www.w3.org/2000/svg">
<path d="M10.4001 0.699951C4.73012 0.699951 0.140137 5.34994 0.140137 11.0899C0.140137 13.3099 0.830122 15.3599 2.00012 17.0499L10.4101 29.17L18.8201 17.0499C19.9901 15.3599 20.6801 13.3099 20.6801 11.0899C20.6701 5.34994 16.0701 0.699951 10.4001 0.699951Z" fill="#00B4DE"/>
<path d="M5.07999 17.35C5.07999 15.86 5.68001 14.51 6.64001 13.53C7.60001 12.55 8.92999 11.95 10.4 11.95C11.87 11.95 13.2 12.55 14.16 13.53C15.12 14.51 15.72 15.86 15.72 17.35C15.72 17.51 15.85 17.64 16.01 17.64C16.17 17.64 16.3 17.51 16.3 17.35C16.29 14.05 13.66 11.37 10.4 11.37C7.13999 11.37 4.51 14.05 4.5 17.35C4.5 17.51 4.63001 17.64 4.79001 17.64C4.95001 17.64 5.07999 17.51 5.07999 17.35ZM13.69 8.33997H13.4C13.4 10.02 12.06 11.38 10.4 11.38C8.74999 11.38 7.39999 10.02 7.39999 8.33997C7.39999 6.65997 8.73999 5.29996 10.4 5.29996C12.05 5.29996 13.4 6.65997 13.4 8.33997H13.69H13.98C13.98 6.33997 12.38 4.71997 10.4 4.71997C8.41999 4.71997 6.83001 6.33997 6.82001 8.33997C6.82001 10.34 8.41999 11.96 10.4 11.96C12.38 11.96 13.97 10.34 13.98 8.33997H13.69Z" fill="white"/>
</svg>
