<?xml version="1.0" encoding="UTF-8"?>
<svg xmlns="http://www.w3.org/2000/svg" xmlns:xlink="http://www.w3.org/1999/xlink" width="px" height="px" viewBox="0 0 11 15" version="1.1">
<g id="surface1">
<path style=" stroke:none;fill-rule:nonzero;fill:rgb(0%,70.588235%,87.058824%);fill-opacity:1;" d="M 5.449219 0.351562 C 2.476562 0.351562 0.0742188 2.675781 0.0742188 5.546875 C 0.0742188 6.65625 0.433594 7.679688 1.046875 8.523438 L 5.453125 14.585938 L 9.859375 8.523438 C 10.472656 7.679688 10.832031 6.65625 10.832031 5.546875 C 10.828125 2.675781 8.417969 0.351562 5.449219 0.351562 Z M 5.449219 0.351562 "/>
<path style=" stroke:none;fill-rule:nonzero;fill:rgb(100%,100%,100%);fill-opacity:1;" d="M 2.660156 8.675781 C 2.660156 7.929688 2.976562 7.253906 3.476562 6.765625 C 3.980469 6.273438 4.675781 5.976562 5.449219 5.976562 C 6.21875 5.976562 6.914062 6.273438 7.417969 6.765625 C 7.921875 7.253906 8.234375 7.929688 8.234375 8.675781 C 8.234375 8.753906 8.300781 8.820312 8.386719 8.820312 C 8.46875 8.820312 8.539062 8.753906 8.539062 8.675781 C 8.53125 7.023438 7.15625 5.683594 5.449219 5.683594 C 3.738281 5.683594 2.363281 7.023438 2.355469 8.675781 C 2.355469 8.753906 2.425781 8.820312 2.507812 8.820312 C 2.59375 8.820312 2.660156 8.753906 2.660156 8.675781 Z M 7.171875 4.171875 L 7.019531 4.171875 C 7.019531 5.011719 6.316406 5.691406 5.449219 5.691406 C 4.582031 5.691406 3.875 5.011719 3.875 4.171875 C 3.875 3.328125 4.578125 2.648438 5.449219 2.648438 C 6.3125 2.648438 7.019531 3.328125 7.019531 4.171875 L 7.324219 4.171875 C 7.324219 3.171875 6.484375 2.359375 5.449219 2.359375 C 4.410156 2.359375 3.578125 3.171875 3.574219 4.171875 C 3.574219 5.171875 4.410156 5.980469 5.449219 5.980469 C 6.484375 5.980469 7.316406 5.171875 7.324219 4.171875 Z M 7.171875 4.171875 "/>
</g>
</svg>
