<?xml version="1.0" encoding="UTF-8"?>
<svg xmlns="http://www.w3.org/2000/svg" xmlns:xlink="http://www.w3.org/1999/xlink" width="px" height="px" viewBox="0 0 88 78" version="1.1">
<g id="surface1">
<path style=" stroke:none;fill-rule:nonzero;fill:rgb(0%,70.588235%,87.058824%);fill-opacity:1;" d="M 82.476562 0.25 C 79.640625 0.25 77.34375 2.589844 77.34375 5.480469 C 77.34375 6.597656 77.691406 7.628906 78.273438 8.480469 L 82.480469 14.578125 L 86.683594 8.480469 C 87.269531 7.628906 87.613281 6.597656 87.613281 5.480469 C 87.609375 2.589844 85.308594 0.25 82.476562 0.25 Z M 82.476562 0.25 "/>
<path style=" stroke:none;fill-rule:nonzero;fill:rgb(100%,100%,100%);fill-opacity:1;" d="M 79.816406 8.628906 C 79.816406 7.878906 80.113281 7.199219 80.59375 6.707031 C 81.074219 6.214844 81.738281 5.914062 82.476562 5.914062 C 83.210938 5.914062 83.875 6.214844 84.355469 6.707031 C 84.835938 7.199219 85.136719 7.875 85.136719 8.628906 C 85.136719 8.710938 85.199219 8.777344 85.28125 8.777344 C 85.359375 8.777344 85.425781 8.710938 85.425781 8.628906 C 85.421875 6.96875 84.105469 5.625 82.476562 5.625 C 80.84375 5.625 79.53125 6.976562 79.523438 8.628906 C 79.523438 8.710938 79.589844 8.777344 79.671875 8.777344 C 79.75 8.777344 79.816406 8.710938 79.816406 8.628906 Z M 84.121094 4.097656 L 83.976562 4.097656 C 83.976562 4.941406 83.300781 5.625 82.476562 5.625 C 81.648438 5.625 80.976562 4.941406 80.976562 4.097656 C 80.976562 3.25 81.648438 2.566406 82.476562 2.566406 C 83.300781 2.566406 83.976562 3.25 83.976562 4.097656 L 84.265625 4.097656 C 84.265625 3.089844 83.464844 2.273438 82.476562 2.273438 C 81.484375 2.273438 80.691406 3.089844 80.683594 4.097656 C 80.683594 5.101562 81.484375 5.917969 82.476562 5.917969 C 83.464844 5.917969 84.261719 5.101562 84.265625 4.097656 Z M 84.121094 4.097656 "/>
<path style=" stroke:none;fill-rule:nonzero;fill:rgb(0%,70.588235%,87.058824%);fill-opacity:1;" d="M 82.335938 14.230469 L 82.335938 19.710938 L 82.585938 19.710938 L 82.585938 14.230469 "/>
<path style=" stroke:none;fill-rule:nonzero;fill:rgb(100%,100%,100%);fill-opacity:1;" d="M 83.574219 20.515625 C 83.574219 21.136719 83.074219 21.636719 82.460938 21.636719 C 81.84375 21.636719 81.34375 21.136719 81.34375 20.515625 C 81.34375 19.898438 81.84375 19.394531 82.460938 19.394531 C 83.074219 19.394531 83.574219 19.898438 83.574219 20.515625 Z M 83.574219 20.515625 "/>
<path style=" stroke:none;fill-rule:nonzero;fill:rgb(0%,70.588235%,87.058824%);fill-opacity:1;" d="M 83.574219 20.515625 L 83.386719 20.515625 C 83.386719 21.03125 82.976562 21.441406 82.464844 21.441406 C 81.953125 21.441406 81.546875 21.03125 81.546875 20.515625 C 81.546875 20.003906 81.960938 19.589844 82.464844 19.589844 C 82.976562 19.589844 83.386719 20.003906 83.386719 20.515625 L 83.765625 20.515625 C 83.765625 19.792969 83.179688 19.203125 82.460938 19.203125 C 81.738281 19.203125 81.15625 19.792969 81.15625 20.515625 C 81.15625 21.242188 81.738281 21.828125 82.460938 21.828125 C 83.179688 21.828125 83.765625 21.242188 83.765625 20.515625 Z M 83.574219 20.515625 "/>
<path style=" stroke:none;fill-rule:nonzero;fill:rgb(44.705882%,44.313725%,44.313725%);fill-opacity:1;" d="M 5.625 76.789062 L 79.609375 21.863281 L 79.308594 21.460938 L 5.324219 76.378906 "/>
<path style=" stroke:none;fill-rule:nonzero;fill:rgb(44.705882%,44.313725%,44.313725%);fill-opacity:1;" d="M 80.109375 21.089844 L 77.816406 21.667969 L 79.074219 23.234375 Z M 80.109375 21.089844 "/>
<path style=" stroke:none;fill-rule:nonzero;fill:rgb(44.705882%,44.313725%,44.313725%);fill-opacity:1;" d="M 5.324219 56.398438 C 2.488281 56.398438 0.195312 58.738281 0.195312 61.625 C 0.195312 62.742188 0.539062 63.773438 1.125 64.625 L 5.328125 70.722656 L 9.535156 64.625 C 10.121094 63.773438 10.464844 62.742188 10.464844 61.625 C 10.460938 58.738281 8.160156 56.398438 5.324219 56.398438 Z M 5.324219 56.398438 "/>
<path style=" stroke:none;fill-rule:nonzero;fill:rgb(100%,100%,100%);fill-opacity:1;" d="M 2.664062 64.78125 C 2.664062 64.03125 2.964844 63.351562 3.445312 62.859375 C 3.925781 62.363281 4.589844 62.0625 5.324219 62.0625 C 6.058594 62.0625 6.726562 62.363281 7.203125 62.859375 C 7.683594 63.351562 7.984375 64.027344 7.984375 64.78125 C 7.984375 64.859375 8.050781 64.925781 8.128906 64.925781 C 8.210938 64.925781 8.273438 64.859375 8.273438 64.78125 C 8.269531 63.121094 6.953125 61.777344 5.324219 61.769531 C 3.695312 61.769531 2.378906 63.121094 2.375 64.78125 C 2.375 64.859375 2.441406 64.925781 2.519531 64.925781 C 2.601562 64.925781 2.664062 64.859375 2.664062 64.78125 Z M 6.96875 60.242188 L 6.824219 60.242188 C 6.824219 61.085938 6.148438 61.769531 5.324219 61.769531 C 4.5 61.769531 3.824219 61.085938 3.824219 60.242188 C 3.824219 59.394531 4.496094 58.710938 5.324219 58.710938 C 6.148438 58.710938 6.824219 59.394531 6.824219 60.242188 L 7.113281 60.242188 C 7.113281 59.234375 6.316406 58.417969 5.324219 58.417969 C 4.335938 58.417969 3.539062 59.234375 3.535156 60.242188 C 3.535156 61.246094 4.335938 62.0625 5.324219 62.0625 C 6.316406 62.0625 7.109375 61.246094 7.113281 60.242188 Z M 6.96875 60.242188 "/>
<path style=" stroke:none;fill-rule:nonzero;fill:rgb(44.705882%,44.313725%,44.313725%);fill-opacity:1;" d="M 5.183594 70.375 L 5.183594 75.855469 L 5.433594 75.855469 L 5.433594 70.375 "/>
<path style=" stroke:none;fill-rule:nonzero;fill:rgb(100%,100%,100%);fill-opacity:1;" d="M 6.425781 76.660156 C 6.425781 77.28125 5.925781 77.785156 5.308594 77.785156 C 4.695312 77.785156 4.195312 77.28125 4.195312 76.660156 C 4.195312 76.042969 4.695312 75.539062 5.308594 75.539062 C 5.929688 75.539062 6.425781 76.042969 6.425781 76.660156 Z M 6.425781 76.660156 "/>
<path style=" stroke:none;fill-rule:nonzero;fill:rgb(44.705882%,44.313725%,44.313725%);fill-opacity:1;" d="M 6.425781 76.660156 L 6.234375 76.660156 C 6.234375 77.175781 5.820312 77.585938 5.316406 77.585938 C 4.804688 77.585938 4.394531 77.167969 4.394531 76.660156 C 4.394531 76.148438 4.808594 75.734375 5.316406 75.734375 C 5.824219 75.734375 6.234375 76.152344 6.234375 76.660156 L 6.613281 76.660156 C 6.613281 75.9375 6.03125 75.347656 5.308594 75.347656 C 4.589844 75.347656 4.003906 75.9375 4.003906 76.660156 C 4.003906 77.386719 4.589844 77.976562 5.308594 77.976562 C 6.03125 77.976562 6.613281 77.386719 6.613281 76.660156 Z M 6.425781 76.660156 "/>
</g>
</svg>
