<?xml version="1.0" encoding="UTF-8"?>
<svg xmlns="http://www.w3.org/2000/svg" xmlns:xlink="http://www.w3.org/1999/xlink" width="px" height="px" viewBox="0 0 100 8" version="1.1">
<defs>
<linearGradient id="linear0" gradientUnits="userSpaceOnUse" x1="0.26001" y1="4.00993" x2="199.26" y2="4.00993" gradientTransform="matrix(0.497512,0,0,0.5,0,0)">
<stop offset="0.098111" style="stop-color:rgb(91.764706%,60.392157%,65.098039%);stop-opacity:1;"/>
<stop offset="0.246243" style="stop-color:rgb(97.254902%,74.117647%,51.372549%);stop-opacity:1;"/>
<stop offset="0.374922" style="stop-color:rgb(75.294118%,86.666667%,59.607843%);stop-opacity:1;"/>
<stop offset="0.505099" style="stop-color:rgb(75.294118%,86.666667%,59.607843%);stop-opacity:1;"/>
<stop offset="0.626297" style="stop-color:rgb(75.294118%,86.666667%,59.607843%);stop-opacity:1;"/>
<stop offset="0.764236" style="stop-color:rgb(97.254902%,74.117647%,51.372549%);stop-opacity:1;"/>
<stop offset="0.894444" style="stop-color:rgb(91.764706%,60.392157%,65.098039%);stop-opacity:1;"/>
</linearGradient>
</defs>
<g id="surface1">
<path style=" stroke:none;fill-rule:nonzero;fill:rgb(44.705882%,44.313725%,44.313725%);fill-opacity:1;" d="M 2.140625 6.703125 L 2.140625 6.957031 L 0.535156 6.957031 L 0.535156 4.628906 L 0.800781 4.628906 L 0.800781 6.703125 Z M 3.195312 5.351562 C 3.667969 5.351562 4.019531 5.703125 4.019531 6.167969 C 4.019531 6.636719 3.667969 6.988281 3.195312 6.988281 C 2.722656 6.988281 2.371094 6.636719 2.371094 6.167969 C 2.371094 5.703125 2.722656 5.351562 3.195312 5.351562 Z M 3.195312 5.582031 C 2.871094 5.582031 2.621094 5.828125 2.621094 6.167969 C 2.621094 6.507812 2.871094 6.753906 3.195312 6.753906 C 3.519531 6.753906 3.769531 6.507812 3.769531 6.167969 C 3.769531 5.828125 3.519531 5.582031 3.195312 5.582031 Z M 5.730469 5.382812 L 6.199219 6.699219 L 6.671875 5.382812 L 6.925781 5.382812 L 6.347656 6.957031 L 6.054688 6.957031 L 5.585938 5.648438 L 5.121094 6.957031 L 4.832031 6.957031 L 4.253906 5.382812 L 4.515625 5.382812 L 4.984375 6.699219 L 5.449219 5.382812 Z M 5.730469 5.382812 "/>
<path style=" stroke:none;fill-rule:nonzero;fill:rgb(44.705882%,44.313725%,44.313725%);fill-opacity:1;" d="M 92.980469 4.628906 L 92.980469 5.660156 L 94.382812 5.660156 L 94.382812 4.628906 L 94.648438 4.628906 L 94.648438 6.957031 L 94.382812 6.957031 L 94.382812 5.910156 L 92.980469 5.910156 L 92.980469 6.957031 L 92.714844 6.957031 L 92.714844 4.628906 Z M 95.519531 5.382812 L 95.519531 6.957031 L 95.269531 6.957031 L 95.269531 5.382812 Z M 95.394531 4.648438 C 95.492188 4.648438 95.570312 4.722656 95.570312 4.824219 C 95.570312 4.921875 95.492188 5 95.394531 5 C 95.296875 5 95.222656 4.921875 95.222656 4.824219 C 95.222656 4.722656 95.296875 4.648438 95.394531 4.648438 Z M 96.753906 5.351562 C 97.007812 5.351562 97.195312 5.457031 97.3125 5.617188 L 97.3125 5.382812 L 97.5625 5.382812 L 97.5625 6.847656 C 97.5625 7.363281 97.21875 7.648438 96.734375 7.648438 C 96.484375 7.648438 96.230469 7.570312 96.074219 7.4375 L 96.183594 7.234375 C 96.332031 7.347656 96.523438 7.421875 96.734375 7.421875 C 97.074219 7.421875 97.3125 7.226562 97.3125 6.859375 L 97.3125 6.699219 C 97.195312 6.863281 97.007812 6.964844 96.753906 6.964844 C 96.316406 6.964844 95.980469 6.632812 95.980469 6.15625 C 95.980469 5.679688 96.316406 5.351562 96.753906 5.351562 Z M 96.785156 5.582031 C 96.449219 5.582031 96.230469 5.839844 96.230469 6.15625 C 96.230469 6.476562 96.449219 6.734375 96.785156 6.734375 C 97.105469 6.734375 97.335938 6.484375 97.335938 6.15625 C 97.335938 5.832031 97.105469 5.582031 96.785156 5.582031 Z M 98.390625 4.5625 L 98.390625 5.601562 C 98.519531 5.417969 98.722656 5.351562 98.914062 5.351562 C 99.300781 5.351562 99.566406 5.601562 99.566406 5.980469 L 99.566406 6.957031 L 99.320312 6.957031 L 99.320312 6.0625 C 99.320312 5.761719 99.15625 5.585938 98.867188 5.585938 C 98.605469 5.585938 98.390625 5.769531 98.390625 6.070312 L 98.390625 6.957031 L 98.140625 6.957031 L 98.140625 4.5625 Z M 98.390625 4.5625 "/>
<path style=" stroke:none;fill-rule:evenodd;fill:url(#linear0);" d="M 0 0.304688 L 0 3.246094 L 32.679688 3.246094 L 32.679688 0.304688 Z M 33.308594 0.304688 L 33.308594 3.246094 L 65.988281 3.246094 L 65.988281 0.304688 Z M 66.613281 3.246094 L 66.613281 0.304688 L 99.292969 0.304688 L 99.292969 3.246094 Z M 66.613281 3.246094 "/>
</g>
</svg>
