<svg width="176" height="155" viewBox="0 0 176 155" fill="none" xmlns="http://www.w3.org/2000/svg">
<path d="M164.95 0.5C159.28 0.5 154.69 5.15001 154.69 10.89C154.69 13.11 155.38 15.16 156.55 16.85L164.96 28.97L173.37 16.85C174.54 15.16 175.23 13.11 175.23 10.89C175.22 5.15001 170.62 0.5 164.95 0.5Z" fill="#00B4DE"/>
<path d="M159.63 17.15C159.63 15.66 160.23 14.31 161.19 13.33C162.15 12.35 163.48 11.75 164.95 11.75C166.42 11.75 167.75 12.35 168.71 13.33C169.67 14.31 170.27 15.65 170.27 17.15C170.27 17.31 170.4 17.44 170.56 17.44C170.72 17.44 170.85 17.31 170.85 17.15C170.84 13.85 168.21 11.18 164.95 11.18C161.69 11.18 159.06 13.86 159.05 17.15C159.05 17.31 159.18 17.44 159.34 17.44C159.5 17.44 159.63 17.31 159.63 17.15ZM168.24 8.14001H167.95C167.95 9.82001 166.6 11.18 164.95 11.18C163.3 11.18 161.95 9.82001 161.95 8.14001C161.95 6.46001 163.3 5.09998 164.95 5.09998C166.6 5.09998 167.95 6.46001 167.95 8.14001H168.24H168.53C168.53 6.14001 166.93 4.52002 164.95 4.52002C162.97 4.52002 161.38 6.14001 161.37 8.14001C161.37 10.14 162.97 11.76 164.95 11.76C166.93 11.76 168.52 10.14 168.53 8.14001H168.24Z" fill="white"/>
<path d="M164.67 28.2798V39.1697H165.17V28.2798" fill="#00B4DE"/>
<path d="M167.15 40.7698C167.15 41.9998 166.15 42.9998 164.92 42.9998C163.69 42.9998 162.69 41.9998 162.69 40.7698C162.69 39.5398 163.69 38.5398 164.92 38.5398C166.15 38.5398 167.15 39.5398 167.15 40.7698Z" fill="white"/>
<path d="M167.15 40.77H166.77C166.77 41.79 165.95 42.6099 164.93 42.6099C163.91 42.6099 163.09 41.79 163.09 40.77C163.09 39.75 163.92 38.9299 164.93 38.9299C165.95 38.9299 166.77 39.75 166.77 40.77H167.15H167.53C167.53 39.33 166.36 38.1599 164.92 38.1599C163.48 38.1599 162.31 39.33 162.31 40.77C162.31 42.21 163.48 43.3799 164.92 43.3799C166.36 43.3799 167.53 42.21 167.53 40.77H167.15Z" fill="#00B4DE"/>
<path d="M11.2499 152.59L159.22 43.4499L158.62 42.6499L10.6499 151.78" fill="#727171"/>
<path d="M160.22 41.9099L155.63 43.0599L158.15 46.1699L160.22 41.9099Z" fill="#727171"/>
<path d="M10.6499 112.07C4.97989 112.07 0.389893 116.72 0.389893 122.46C0.389893 124.68 1.07989 126.73 2.24989 128.42L10.6599 140.54L19.0699 128.42C20.2399 126.73 20.9299 124.68 20.9299 122.46C20.9199 116.72 16.3199 112.07 10.6499 112.07Z" fill="#727171"/>
<path d="M5.33 128.73C5.33 127.24 5.93 125.89 6.89 124.91C7.85 123.93 9.17999 123.33 10.65 123.33C12.12 123.33 13.45 123.93 14.41 124.91C15.37 125.89 15.97 127.23 15.97 128.73C15.97 128.89 16.1 129.02 16.26 129.02C16.42 129.02 16.55 128.89 16.55 128.73C16.54 125.43 13.91 122.76 10.65 122.75C7.38999 122.75 4.76 125.43 4.75 128.73C4.75 128.89 4.87999 129.02 5.03999 129.02C5.19999 129.02 5.33 128.89 5.33 128.73ZM13.94 119.71H13.65C13.65 121.39 12.3 122.75 10.65 122.75C8.99999 122.75 7.64999 121.39 7.64999 119.71C7.64999 118.03 8.98999 116.67 10.65 116.67C12.3 116.67 13.65 118.03 13.65 119.71H13.94H14.23C14.23 117.71 12.63 116.09 10.65 116.09C8.66999 116.09 7.08001 117.71 7.07001 119.71C7.07001 121.71 8.66999 123.33 10.65 123.33C12.63 123.33 14.22 121.71 14.23 119.71H13.94Z" fill="white"/>
<path d="M10.3701 139.85V150.74H10.8701V139.85" fill="#727171"/>
<path d="M12.8499 152.34C12.8499 153.57 11.8499 154.57 10.6199 154.57C9.38989 154.57 8.38989 153.57 8.38989 152.34C8.38989 151.11 9.38989 150.11 10.6199 150.11C11.8599 150.11 12.8499 151.11 12.8499 152.34Z" fill="white"/>
<path d="M12.85 152.34H12.47C12.47 153.36 11.64 154.18 10.63 154.18C9.61002 154.18 8.79001 153.35 8.79001 152.34C8.79001 151.32 9.62002 150.5 10.63 150.5C11.65 150.5 12.47 151.33 12.47 152.34H12.85H13.23C13.23 150.9 12.06 149.73 10.62 149.73C9.18001 149.73 8.01001 150.9 8.01001 152.34C8.01001 153.78 9.18001 154.95 10.62 154.95C12.06 154.95 13.23 153.78 13.23 152.34H12.85Z" fill="#727171"/>
</svg>
