<svg width="201" height="16" viewBox="0 0 201 16" fill="none" xmlns="http://www.w3.org/2000/svg">
<path d="M4.30412 13.4083V13.9138H1.07492V9.25791H1.61035V13.4083H4.30412ZM6.42251 10.7012C7.37032 10.7012 8.08201 11.4063 8.08201 12.3375C8.08201 13.272 7.37032 13.977 6.42251 13.977C5.4747 13.977 4.76634 13.272 4.76634 12.3375C4.76634 11.4063 5.4747 10.7012 6.42251 10.7012ZM6.42251 11.1668C5.76736 11.1668 5.27184 11.659 5.27184 12.3375C5.27184 13.0192 5.76736 13.5114 6.42251 13.5114C7.07434 13.5114 7.57319 13.0192 7.57319 12.3375C7.57319 11.659 7.07434 11.1668 6.42251 11.1668ZM11.5151 10.7644L12.4596 13.3983L13.4074 10.7644H13.9229L12.7589 13.9138H12.1703L11.2291 11.2965L10.2913 13.9138H9.71262L8.54864 10.7644H9.07742L10.0186 13.395L10.9564 10.7644H11.5151Z" fill="#727171"/>
<path d="M186.892 9.25791V11.3165H189.708V9.25791H190.244V13.9138H189.708V11.822H186.892V13.9138H186.356V9.25791H186.892ZM191.994 10.7644V13.9138H191.495V10.7644H191.994ZM191.745 9.29449C191.941 9.29449 192.097 9.44747 192.097 9.64701C192.097 9.84655 191.941 9.9962 191.745 9.9962C191.545 9.9962 191.395 9.84655 191.395 9.64701C191.395 9.44747 191.545 9.29449 191.745 9.29449ZM194.478 10.7012C194.987 10.7012 195.363 10.9108 195.602 11.2367V10.7644H196.101V13.6977C196.101 14.7253 195.409 15.294 194.435 15.294C193.933 15.294 193.427 15.1377 193.108 14.8716L193.328 14.4725C193.627 14.6987 194.009 14.8417 194.435 14.8417C195.117 14.8417 195.602 14.4526 195.602 13.7176V13.395C195.363 13.7243 194.987 13.9304 194.478 13.9304C193.594 13.9304 192.918 13.2686 192.918 12.3142C192.918 11.363 193.594 10.7012 194.478 10.7012ZM194.535 11.1668C193.866 11.1668 193.424 11.679 193.424 12.3142C193.424 12.9527 193.866 13.4649 194.535 13.4649C195.183 13.4649 195.646 12.9693 195.646 12.3142C195.646 11.6657 195.183 11.1668 194.535 11.1668ZM197.762 9.12488V11.2034C198.021 10.8376 198.434 10.7012 198.816 10.7012C199.594 10.7012 200.13 11.2001 200.13 11.9617V13.9138H199.634V12.1246C199.634 11.526 199.302 11.1735 198.726 11.1735C198.198 11.1735 197.762 11.5393 197.762 12.1379V13.9138H197.263V9.12488H197.762Z" fill="#727171"/>
<path fill-rule="evenodd" clip-rule="evenodd" d="M0 0.609985V6.48999H65.69V0.609985H0ZM66.95 0.609985V6.48999H132.64V0.609985H66.95ZM133.89 6.48999V0.609985H199.58V6.48999H133.89Z" fill="url(#paint0_linear_1172_16)"/>
<defs>
<linearGradient id="paint0_linear_1172_16" x1="0.26001" y1="4.00993" x2="199.26" y2="4.00993" gradientUnits="userSpaceOnUse">
<stop offset="0.098111" stop-color="#EA9AA6"/>
<stop offset="0.246243" stop-color="#F8BD83"/>
<stop offset="0.374922" stop-color="#C0DD98"/>
<stop offset="0.505099" stop-color="#C0DD98"/>
<stop offset="0.626297" stop-color="#C0DD98"/>
<stop offset="0.764236" stop-color="#F8BD83"/>
<stop offset="0.894444" stop-color="#EA9AA6"/>
</linearGradient>
</defs>
</svg>
