<svg width="409" height="137" viewBox="0 0 409 137" fill="none" xmlns="http://www.w3.org/2000/svg">
<mask id="mask0_1343_393" style="mask-type:luminance" maskUnits="userSpaceOnUse" x="28" y="0" width="35" height="124">
<path d="M45.0512 3.85945V0.0237252L45.0591 3.83573V3.85945H45.0512ZM51.0935 18.9256C45.8975 16.64 45.067 0.0237262 45.0591 0C45.0591 0.0237262 44.2208 16.64 39.0248 18.9256C33.8287 21.2112 28 26.4152 28 37.432C28 48.4489 40.6856 53.6528 40.6856 62.392C40.6856 71.1311 44.7744 123.74 44.7744 123.74V123.542L45.1224 123.526L45.1382 122.981V123.74C45.1382 123.74 49.4248 71.1232 49.4248 62.392C49.4248 53.6607 62.1104 48.4568 62.1104 37.432C62.1104 26.4073 56.2895 21.2112 51.0856 18.9256" fill="white"/>
</mask>
<g mask="url(#mask0_1343_393)">
<path d="M62.1183 0H28.0159V123.74H62.1183V0Z" fill="url(#paint0_linear_1343_393)"/>
</g>
<mask id="mask1_1343_393" style="mask-type:luminance" maskUnits="userSpaceOnUse" x="84" y="10" width="30" height="116">
<path d="M107.032 27.1957C100.215 21.0294 98.7603 10 98.7603 10H98.7127C98.7127 10 97.2506 21.0373 90.4406 27.1957C83.6227 33.362 80.3807 39.8461 90.1148 62.8903C90.1148 62.8903 98.514 74.0865 98.514 125.03H98.9987V122.535C99.2768 73.721 107.366 62.8982 107.366 62.8982C117.1 39.862 113.85 33.3699 107.04 27.2036" fill="white"/>
</mask>
<g mask="url(#mask1_1343_393)">
<path d="M117.092 9.99207H80.3728V125.022H117.092V9.99207Z" fill="url(#paint1_linear_1343_393)"/>
</g>
<mask id="mask2_1343_393" style="mask-type:luminance" maskUnits="userSpaceOnUse" x="137" y="15" width="30" height="119">
<path d="M159.697 32.4309C153.411 26.0856 152.331 19.0353 152.166 16.2377L152.144 15.0001H152.009L151.994 16.0277C151.866 18.6603 150.906 25.9206 144.448 32.4309C137.136 39.8112 137.511 53.0942 138.598 56.8144C139.918 61.3221 149.736 72.8651 150.689 91.5783C151.641 110.299 151.949 133.46 151.949 133.46H152.279V132.86C152.324 129.357 152.601 108.657 153.471 91.5783C154.424 72.8576 164.197 61.1496 165.562 56.8144C166.724 53.1167 167.017 39.8187 159.712 32.4309" fill="white"/>
</mask>
<g mask="url(#mask2_1343_393)">
<path d="M167.01 15.0001H137.136V133.46H167.01V15.0001Z" fill="url(#paint2_linear_1343_393)"/>
</g>
<mask id="mask3_1343_393" style="mask-type:luminance" maskUnits="userSpaceOnUse" x="188" y="21" width="36" height="114">
<path d="M205.779 25.806V28.0466V27.9573V25.7978V25.806ZM223.566 65.033C223.566 61.2499 222.34 52.1251 213.662 46.4505C207.297 42.2859 206.022 28.6879 205.787 21.7225V21C205.787 21.138 205.787 21.276 205.779 21.4221C205.779 21.276 205.779 21.138 205.771 21V21.7225C205.543 28.6879 204.269 42.294 197.904 46.4505C189.226 52.1251 188 61.2499 188 65.033C188 68.8161 191.905 76.9748 196.622 81.862C200.526 85.913 204.602 102.774 205.478 120.975L205.527 134.07H206.039L206.071 121.219C206.932 102.921 211.023 85.9292 214.944 81.862C219.661 76.9748 223.566 68.8161 223.566 65.033Z" fill="white"/>
</mask>
<g mask="url(#mask3_1343_393)">
<path d="M231.81 20.99H188V160.27H231.81V20.99Z" fill="url(#paint3_linear_1343_393)"/>
</g>
<mask id="mask4_1343_393" style="mask-type:luminance" maskUnits="userSpaceOnUse" x="235" y="26" width="48" height="109">
<path d="M281.925 67.8673C280.765 59.1961 265.275 45.2889 261.595 41.4582C259.425 39.1993 258.735 32.4539 258.535 27.3012V26C258.535 26.2394 258.525 26.4684 258.515 26.7183C258.515 26.4788 258.505 26.2394 258.495 26V27.3012C258.295 32.4539 257.605 39.2097 255.435 41.4582C251.755 45.2889 236.265 59.1961 235.105 67.8673C233.945 76.5385 242.655 81.3685 249.625 92.4547C256.035 102.646 258.185 129.846 258.495 134.176V134.78C258.495 134.78 258.495 134.665 258.515 134.468C258.525 134.665 258.535 134.78 258.535 134.78V134.176C258.845 129.835 260.995 102.635 267.405 92.4547C274.375 81.3685 283.085 76.5281 281.925 67.8673Z" fill="white"/>
</mask>
<g mask="url(#mask4_1343_393)">
<path d="M285.093 26H233.945V134.78H285.093V26Z" fill="url(#paint4_linear_1343_393)"/>
</g>
<mask id="mask5_1343_393" style="mask-type:luminance" maskUnits="userSpaceOnUse" x="289" y="31" width="49" height="106">
<path d="M337.03 72.548H337.078C337.078 72.548 337.078 63.6312 324.962 53.742C314.383 45.1072 313.352 34.8679 313.274 32.4272V31.9119C313.274 31.9119 313.274 32.0091 313.274 32.0772V31.9605V32.2425C313.197 34.3234 312.302 44.8641 301.44 53.742C289.324 63.6312 289.324 72.548 289.324 72.548H289.344C289.344 72.548 289.344 72.5674 289.344 72.5771H289.324C289.324 72.5771 289.324 72.7133 289.344 72.9855C289.354 73.5495 289.431 74.1816 289.655 74.8525H289.665C290.452 78.1198 293.02 84.5181 301.44 91.3831C312.312 100.251 313.206 134.402 313.274 136.473V136.755C313.274 136.755 313.274 136.687 313.274 136.638C313.274 136.716 313.274 136.774 313.274 136.803V136.288C313.372 133.838 314.393 100.008 324.972 91.3734C337.088 81.4842 337.088 72.5674 337.088 72.5674H337.04V72.5382" fill="white"/>
</mask>
<g mask="url(#mask5_1343_393)">
<path d="M341.681 27.0001H288.98V142.71H341.681V27.0001Z" fill="url(#paint5_linear_1343_393)"/>
</g>
<mask id="mask6_1343_393" style="mask-type:luminance" maskUnits="userSpaceOnUse" x="343" y="32" width="47" height="104">
<path d="M376.303 50.9902C371.198 45.4573 367.337 34.6443 366.637 32.5828V32.2328C366.637 32.2328 366.618 32.3008 366.579 32.4078C366.54 32.3008 366.52 32.2328 366.52 32.2328V32.5828C365.811 34.6443 361.96 45.4573 356.855 50.9902C351.196 57.1162 344 62.7852 344 71.984C344 81.1828 360.628 90.8581 362.164 102.41C363.7 113.972 366.53 135.199 366.53 135.199H366.666C366.666 135.199 369.476 113.972 371.003 102.41C372.539 90.8483 389.167 81.1828 389.167 71.984C389.167 62.7852 381.972 57.1259 376.312 50.9902" fill="white"/>
</mask>
<g mask="url(#mask6_1343_393)">
<path d="M389.158 32.2426H343.99V135.199H389.158V32.2426Z" fill="url(#paint6_linear_1343_393)"/>
</g>
<path d="M45.4787 40.7703C48.0653 40.7703 50.1559 38.67 50.1559 36.0737C50.1559 33.4774 48.0555 31.3771 45.4787 31.3771C42.9019 31.3771 40.8015 33.4774 40.8015 36.0737C40.8015 38.67 42.9019 40.7703 45.4787 40.7703Z" fill="#95569E"/>
<path d="M45.4787 40.7703C48.0653 40.7703 50.1559 38.67 50.1559 36.0737C50.1559 33.4774 48.0555 31.3771 45.4787 31.3771C42.9019 31.3771 40.8015 33.4774 40.8015 36.0737C40.8015 38.67 42.9019 40.7703 45.4787 40.7703Z" stroke="white" stroke-width="0.74"/>
<path d="M99.0768 49.2788C101.663 49.2788 103.754 47.1784 103.754 44.5821C103.754 41.9859 101.654 39.8855 99.0768 39.8855C96.5 39.8855 94.3997 41.9859 94.3997 44.5821C94.3997 47.1784 96.5 49.2788 99.0768 49.2788Z" fill="#95569E"/>
<path d="M99.0768 49.2788C101.663 49.2788 103.754 47.1784 103.754 44.5821C103.754 41.9859 101.654 39.8855 99.0768 39.8855C96.5 39.8855 94.3997 41.9859 94.3997 44.5821C94.3997 47.1784 96.5 49.2788 99.0768 49.2788Z" stroke="white" stroke-width="0.74"/>
<path d="M152.587 54.3255C155.174 54.3255 157.265 52.2252 157.265 49.6289C157.265 47.0326 155.164 44.9323 152.587 44.9323C150.011 44.9323 147.91 47.0326 147.91 49.6289C147.91 52.2252 150.011 54.3255 152.587 54.3255Z" fill="#95569E"/>
<path d="M152.587 54.3255C155.174 54.3255 157.265 52.2252 157.265 49.6289C157.265 47.0326 155.164 44.9323 152.587 44.9323C150.011 44.9323 147.91 47.0326 147.91 49.6289C147.91 52.2252 150.011 54.3255 152.587 54.3255Z" stroke="white" stroke-width="0.74"/>
<path d="M206.01 61.9489C208.597 61.9489 210.687 59.8486 210.687 57.2523C210.687 54.656 208.587 52.5557 206.01 52.5557C203.433 52.5557 201.333 54.656 201.333 57.2523C201.333 59.8486 203.433 61.9489 206.01 61.9489Z" fill="#95569E"/>
<path d="M206.01 61.9489C208.597 61.9489 210.687 59.8486 210.687 57.2523C210.687 54.656 208.587 52.5557 206.01 52.5557C203.433 52.5557 201.333 54.656 201.333 57.2523C201.333 59.8486 203.433 61.9489 206.01 61.9489Z" stroke="white" stroke-width="0.74"/>
<path d="M259.171 69.0375C261.757 69.0375 263.848 66.9372 263.848 64.3409C263.848 61.7446 261.748 59.6443 259.171 59.6443C256.594 59.6443 254.494 61.7446 254.494 64.3409C254.494 66.9372 256.594 69.0375 259.171 69.0375Z" fill="#95569E"/>
<path d="M259.171 69.0375C261.757 69.0375 263.848 66.9372 263.848 64.3409C263.848 61.7446 261.748 59.6443 259.171 59.6443C256.594 59.6443 254.494 61.7446 254.494 64.3409C254.494 66.9372 256.594 69.0375 259.171 69.0375Z" stroke="white" stroke-width="0.74"/>
<path d="M313.197 74.0941C315.783 74.0941 317.874 71.9937 317.874 69.3974C317.874 66.8012 315.773 64.7008 313.197 64.7008C310.62 64.7008 308.519 66.8012 308.519 69.3974C308.519 71.9937 310.62 74.0941 313.197 74.0941Z" fill="#95569E"/>
<path d="M313.197 74.0941C315.783 74.0941 317.874 71.9937 317.874 69.3974C317.874 66.8012 315.773 64.7008 313.197 64.7008C310.62 64.7008 308.519 66.8012 308.519 69.3974C308.519 71.9937 310.62 74.0941 313.197 74.0941Z" stroke="white" stroke-width="0.74"/>
<path d="M366.523 74.0941C369.109 74.0941 371.2 71.9937 371.2 69.3974C371.2 66.8012 369.099 64.7008 366.523 64.7008C363.946 64.7008 361.845 66.8012 361.845 69.3974C361.845 71.9937 363.946 74.0941 366.523 74.0941Z" fill="#95569E"/>
<path d="M366.523 74.0941C369.109 74.0941 371.2 71.9937 371.2 69.3974C371.2 66.8012 369.099 64.7008 366.523 64.7008C363.946 64.7008 361.845 66.8012 361.845 69.3974C361.845 71.9937 363.946 74.0941 366.523 74.0941Z" stroke="white" stroke-width="0.74"/>
<path d="M0 36H66.5614C68.7757 36 70.9124 36.8163 72.5626 38.2928L76.9374 42.2072C78.5876 43.6837 80.7243 44.5 82.9386 44.5H119.063C120.011 44.5 120.949 44.6926 121.821 45.066L133.179 49.934C134.051 50.3074 134.989 50.5 135.937 50.5H173.009C174.31 50.5 175.586 50.863 176.693 51.5481L183.807 55.9519C184.914 56.637 186.19 57 187.491 57H225.293C226.73 57 228.131 57.4418 229.308 58.2654L235.692 62.7346C236.869 63.5582 238.27 64 239.707 64H280.53C281.818 64 283.082 64.3554 284.181 65.027L289.819 68.473C290.918 69.1446 292.182 69.5 293.47 69.5H408.5" stroke="#95569E" stroke-width="0.8" stroke-dasharray="4 4"/>
<defs>
<linearGradient id="paint0_linear_1343_393" x1="70.2975" y1="19.1683" x2="70.2975" y2="80.943" gradientUnits="userSpaceOnUse">
<stop stop-color="#C3DB9B"/>
<stop offset="0.15" stop-color="#CAD698"/>
<stop offset="0.37" stop-color="#DDCB91"/>
<stop offset="0.6" stop-color="#F9BC88"/>
<stop offset="0.8" stop-color="#F0A89B"/>
<stop offset="1" stop-color="#EA9AA9"/>
</linearGradient>
<linearGradient id="paint1_linear_1343_393" x1="98.6514" y1="18.9475" x2="98.6514" y2="67.817" gradientUnits="userSpaceOnUse">
<stop stop-color="#C3DB9B"/>
<stop offset="0.15" stop-color="#CAD698"/>
<stop offset="0.37" stop-color="#DDCB91"/>
<stop offset="0.6" stop-color="#F9BC88"/>
<stop offset="0.8" stop-color="#F0A89B"/>
<stop offset="1" stop-color="#EA9AA9"/>
</linearGradient>
<linearGradient id="paint2_linear_1343_393" x1="151.098" y1="32.1084" x2="151.098" y2="79.7354" gradientUnits="userSpaceOnUse">
<stop stop-color="#C3DB9B"/>
<stop offset="0.15" stop-color="#CAD698"/>
<stop offset="0.37" stop-color="#DDCB91"/>
<stop offset="0.6" stop-color="#F9BC88"/>
<stop offset="0.8" stop-color="#F0A89B"/>
<stop offset="1" stop-color="#EA9AA9"/>
</linearGradient>
<linearGradient id="paint3_linear_1343_393" x1="202" y1="33.5" x2="202" y2="101" gradientUnits="userSpaceOnUse">
<stop stop-color="#C3DB9B"/>
<stop offset="0.15" stop-color="#CAD698"/>
<stop offset="0.37" stop-color="#DDCB91"/>
<stop offset="0.6" stop-color="#F9BC88"/>
<stop offset="0.8" stop-color="#F0A89B"/>
<stop offset="1" stop-color="#EA9AA9"/>
</linearGradient>
<linearGradient id="paint4_linear_1343_393" x1="260.024" y1="55.1753" x2="260.024" y2="112.943" gradientUnits="userSpaceOnUse">
<stop stop-color="#C3DB9B"/>
<stop offset="0.15" stop-color="#CAD698"/>
<stop offset="0.37" stop-color="#DDCB91"/>
<stop offset="0.6" stop-color="#F9BC88"/>
<stop offset="0.8" stop-color="#F0A89B"/>
<stop offset="1" stop-color="#EA9AA9"/>
</linearGradient>
<linearGradient id="paint5_linear_1343_393" x1="340.49" y1="45.579" x2="340.49" y2="107.794" gradientUnits="userSpaceOnUse">
<stop stop-color="#C3DB9B"/>
<stop offset="0.15" stop-color="#CAD698"/>
<stop offset="0.37" stop-color="#DDCB91"/>
<stop offset="0.6" stop-color="#F9BC88"/>
<stop offset="0.8" stop-color="#F0A89B"/>
<stop offset="1" stop-color="#EA9AA9"/>
</linearGradient>
<linearGradient id="paint6_linear_1343_393" x1="363.057" y1="27" x2="363.057" y2="86.5" gradientUnits="userSpaceOnUse">
<stop stop-color="#C3DB9B"/>
<stop offset="0.15" stop-color="#CAD698"/>
<stop offset="0.37" stop-color="#DDCB91"/>
<stop offset="0.6" stop-color="#F9BC88"/>
<stop offset="0.8" stop-color="#F0A89B"/>
<stop offset="1" stop-color="#EA9AA9"/>
</linearGradient>
</defs>
</svg>
