<svg xmlns="http://www.w3.org/2000/svg" width="56" height="56" viewBox="0 0 56 56">
    <defs>
        <clipPath id="4hodzdtioa">
            <path data-name="사각형 26763" style="fill:none" d="M0 0h46.166v41.317H0z"/>
        </clipPath>
    </defs>
    <g data-name="그룹 128956">
        <g data-name="그룹 128955" style="clip-path:url(#4hodzdtioa)" transform="translate(5 8)">
            <path data-name="패스 71948" d="M24.231 18.412A13.064 13.064 0 0 1 28.07 20.3a11.631 11.631 0 0 0 5.445 2.271 9.455 9.455 0 0 0 3.9-.409c1.02-.331 1.326-.306 2.015.128 1.326.842 1.836 3.341 1.186 5.828-.268 1.02-.651 1.8-.906 1.875a40.473 40.473 0 0 1-5.535.982c-.739.076-1.772.191-2.3.255a102.546 102.546 0 0 1-15.176.153c-.663-.077-1.786-.2-2.487-.268-1.99-.217-4.26-.536-5.42-.765-1.467-.293-2.143-.434-2.615-.51s-.51-.1-.548-.587a7.669 7.669 0 0 1 1.607-4.527 6.141 6.141 0 0 1 2.193-1.709 17.979 17.979 0 0 1 5.293-1.224c2.181-.243 2.257-.281 3.7-1.735a10.474 10.474 0 0 1 1.722-1.479c.242-.1.587-.255.765-.345a8.56 8.56 0 0 1 3.316.179" style="fill:#93e5c2"/>
            <path data-name="패스 71949" d="M40.427.329c-1.071.561-1.275.816-3.953 5.025-2.321 3.634-3.048 4.769-3.9 6.121-.51.8-1.007 1.556-1.109 1.671a1.863 1.863 0 0 1-.868.306 6.847 6.847 0 0 0-1.619.535 6.709 6.709 0 0 0-2.717 2.691c-.293.536-.433.663-.6.6a9.382 9.382 0 0 0-5.241-.5 5.877 5.877 0 0 0-2.857 1.888c-1.326 1.352-1.518 1.479-2.257 1.479a26.117 26.117 0 0 0-5.676 1.046 8.435 8.435 0 0 0-3.634 2.448c-.472.6-.536.638-2.041 1.11a10.3 10.3 0 0 0-3.086 1.53A2.274 2.274 0 0 0 0 28.258a5.915 5.915 0 0 0 .115 1.25 16.07 16.07 0 0 0 .931 2.716 10.434 10.434 0 0 0 1.02 1.658 31.462 31.462 0 0 0 2.346 2.347 25.82 25.82 0 0 0 10.381 4.387c.243.038.766.14 1.148.2a52.454 52.454 0 0 0 14.411 0 35.39 35.39 0 0 0 5.586-1.429c.153-.063.408-.165.574-.229a30.218 30.218 0 0 0 4.706-2.474 5.835 5.835 0 0 1 .612-.472 15.891 15.891 0 0 0 2.37-2.355 9.527 9.527 0 0 0 1.966-5.557 2.18 2.18 0 0 0-.306-1.479 6.284 6.284 0 0 0-2.908-1.862.734.734 0 0 1-.561-.689 7.456 7.456 0 0 0-1.339-2.742 6.058 6.058 0 0 0-1.071-.816 3.415 3.415 0 0 0-2.933-.089 6.265 6.265 0 0 1-2.7.319c-.115-.077-.064-.281.191-.791a6 6 0 0 0 .459-3.494l-.166-1.008.6-.778c.319-.433.931-1.211 1.364-1.747s.919-1.16 1.1-1.4.842-1.071 1.441-1.836S40.567 8.3 40.733 8.1s.638-.816 1.059-1.339c1.734-2.193 2.1-2.958 2.117-4.272A2.229 2.229 0 0 0 42.837.342a2.323 2.323 0 0 0-2.41-.013m1.862 1.517a1.27 1.27 0 0 1 .111.954c-.1.714-.638 1.62-1.888 3.188-.433.536-.943 1.173-1.122 1.416s-.816 1.045-1.4 1.8-1.49 1.888-1.99 2.552-1.365 1.734-1.888 2.41c-.9 1.173-1.1 1.568-.841 1.836a4.852 4.852 0 0 1 .4 1.747 5.87 5.87 0 0 1-.714 2.283c-.447.816-.536.816-2.206.09a36.6 36.6 0 0 1-3.367-2.143c-.166-.14.433-1.135 1.084-1.785a4.481 4.481 0 0 1 2.869-1.378c.944-.064.842.039 2.3-2.257l1.862-2.933c.485-.765 1.3-2.041 1.785-2.806 2.516-3.953 2.916-4.527 3.5-4.91.714-.472 1.224-.5 1.505-.064M24.231 18.425a13.052 13.052 0 0 1 3.838 1.888 11.649 11.649 0 0 0 5.446 2.27 9.465 9.465 0 0 0 3.9-.408c1.021-.332 1.327-.306 2.015.127 1.327.842 1.837 3.342 1.186 5.828-.267 1.021-.65 1.8-.9 1.875a40.321 40.321 0 0 1-5.535.982c-.74.077-1.773.191-2.3.255a102.424 102.424 0 0 1-15.177.153c-.663-.076-1.785-.2-2.486-.268-1.99-.216-4.26-.535-5.42-.765-1.467-.293-2.143-.433-2.615-.51s-.51-.1-.548-.587a7.669 7.669 0 0 1 1.607-4.527 6.143 6.143 0 0 1 2.193-1.709 17.971 17.971 0 0 1 5.293-1.224c2.18-.242 2.257-.281 3.7-1.734a10.361 10.361 0 0 1 1.722-1.48c.242-.1.586-.255.765-.344a8.576 8.576 0 0 1 3.316.178M4.3 27.123c-.1.485-.23 1.135-.281 1.467a1.453 1.453 0 0 1-.191.675 4.644 4.644 0 0 1-1.9-.9c-.485-.408-.5-.638-.039-1.02a6.477 6.477 0 0 1 2.564-1.123 3.857 3.857 0 0 1-.153.906m39.228-.332c1.186.6 1.416 1.161.7 1.684a7.206 7.206 0 0 1-1.951.931c-.319.076-.344.064-.268-.217.051-.166.141-.51.2-.752s.179-.778.256-1.187c.165-.828.255-.867 1.058-.459m-41 3.635c.625.268.893.383 1.428.561l.7.255a4.767 4.767 0 0 0 .637.191c.217.039.638.141.957.2s.829.178 1.148.229.918.179 1.339.255a52.939 52.939 0 0 0 5.739.778c.637.064 2.41.179 3.953.242s3.265.153 3.826.2c1.033.064 7.716-.229 9.82-.446a63.629 63.629 0 0 0 6.861-1.02c.332-.064.842-.179 1.148-.242a21.248 21.248 0 0 0 3.073-1 4.951 4.951 0 0 1 1.2-.357c.038.038 0 .217-.1.421a9.628 9.628 0 0 1-2.7 3.787c-.421.345-.829.714-.931.8a24.092 24.092 0 0 1-3 1.76 30.892 30.892 0 0 1-9.883 2.627 70.891 70.891 0 0 1-9.31 0 35.048 35.048 0 0 1-7.907-1.8 8.772 8.772 0 0 0-.574-.23A16.976 16.976 0 0 1 4.272 34 8.53 8.53 0 0 1 2.3 31.37a1.917 1.917 0 0 0-.191-.459c-.191-.383-.242-.689-.115-.689a3.224 3.224 0 0 1 .536.2"/>
        </g>
    </g>
</svg>
