<svg xmlns="http://www.w3.org/2000/svg" width="56" height="56" viewBox="0 0 56 56">
    <defs>
        <clipPath id="ss77ftdfra">
            <path data-name="사각형 26782" style="fill:none" d="M0 0h42.409v41.557H0z"/>
        </clipPath>
    </defs>
    <g data-name="그룹 128995">
        <g data-name="그룹 128994" style="clip-path:url(#ss77ftdfra)" transform="translate(7 6.999)">
            <path data-name="패스 72040" d="M31.293 1.7a17.075 17.075 0 0 1 3.953.689 13.245 13.245 0 0 1 4.923 2.27c.548.5.625.637.625 1.071s-.051.523-.548.816a2.365 2.365 0 0 1-.791.319 6.876 6.876 0 0 0-1.008.242c-1.951.625-4.45.816-9.9.74-5.42-.077-7.116-.23-8.863-.778-.345-.115-.842-.268-1.084-.344-.931-.306-1.25-.919-.8-1.594.536-.829 3.24-2.219 5.459-2.793a21.152 21.152 0 0 1 3.762-.638 14.982 14.982 0 0 1 4.272 0" style="fill:#93e5c2"/>
            <path data-name="패스 72041" d="M17.583 10.823c.242.051.765.179 1.148.255a6.335 6.335 0 0 1 3.3 1.467 2.411 2.411 0 0 1 .4.548c0 .561-2.563 1.773-4.655 2.219-.344.064-.867.179-1.147.242-1.607.357-4.081.766-6.313 1.021a46.013 46.013 0 0 1-7.269.1c-1.1-.243-1.4-.447-1.4-.868a2.5 2.5 0 0 1 .892-1.39 27.7 27.7 0 0 1 2.61-1.707 20.878 20.878 0 0 1 7.141-2.015 31.863 31.863 0 0 1 5.293.128" style="fill:#93e5c2"/>
            <path data-name="패스 72042" d="M26.446.11c-.28.051-.969.166-1.53.255a13.751 13.751 0 0 0-1.4.255c-.2.064-.638.179-.957.255s-.688.2-.829.255-.6.23-1.02.4c-2.04.765-3.966 2.091-4.489 3.1a2.575 2.575 0 0 0 .077 2.27 6.215 6.215 0 0 0 2.831 1.747A5.2 5.2 0 0 1 20.9 9.815c0 .153-.026.141-1.34-.178a20.8 20.8 0 0 0-3.774-.612 18.434 18.434 0 0 0-5.153.28 24.738 24.738 0 0 0-4.017 1.033c-.178.077-.433.179-.574.23a24.2 24.2 0 0 0-3.469 1.823c-2.537 1.684-3.3 3.8-1.823 5.038a6.287 6.287 0 0 0 2.5.956 3.637 3.637 0 0 1 2.283 1.3c1.76 1.76 2.359 3.992 2.742 10.266.23 3.724.523 4.91 1.671 6.645a7.633 7.633 0 0 0 3.928 2.958 19.62 19.62 0 0 0 4.731.077 7.26 7.26 0 0 0 2.079-.906l.37-.267.765.854a7.024 7.024 0 0 0 3.061 1.99 7.9 7.9 0 0 0 2.69.255 13.95 13.95 0 0 0 2.372-.141c2.36-.752 3.7-1.7 4.388-3.111a12.394 12.394 0 0 0 .867-2.36 24.28 24.28 0 0 0 .625-3.66 54.026 54.026 0 0 0-.128-7.945c-.434-5.739-.459-9.029-.064-10.649a7.37 7.37 0 0 1 1-2.793c.5-.918 2.117-2.244 2.742-2.244a7.747 7.747 0 0 0 2.423-1.314 2.463 2.463 0 0 0 .128-3.124 9.93 9.93 0 0 0-3.865-2.576 22.22 22.22 0 0 0-2.614-.88 33.01 33.01 0 0 0-3.463-.65 34.885 34.885 0 0 0-5.535 0m4.846 1.59a17.139 17.139 0 0 1 3.954.689 13.239 13.239 0 0 1 4.922 2.27c.549.5.625.638.625 1.071s-.051.523-.548.817a2.371 2.371 0 0 1-.791.318 6.756 6.756 0 0 0-1.007.243c-1.951.625-4.451.816-9.9.739-5.42-.076-7.116-.229-8.863-.778-.344-.114-.842-.267-1.084-.344-.931-.306-1.25-.918-.8-1.594.535-.829 3.239-2.219 5.458-2.793A21.152 21.152 0 0 1 27.02 1.7a14.982 14.982 0 0 1 4.272 0m-6.861 7.682a4.487 4.487 0 0 1 1.428.217 5.709 5.709 0 0 1 .651 2.244c0 .536.051.663.319.842a.769.769 0 0 0 1.045-.192 2.943 2.943 0 0 0-.025-1.976c-.306-1.008-.37-.97 1.288-.97h1.479l-.089.855c-.051.485-.089.893-.1.931a2.009 2.009 0 0 0 .485 1.352c.612.395 1.3-.2 1.1-.944a3.7 3.7 0 0 1 .358-2.04c.14-.256.242-.281 1.135-.281a15.722 15.722 0 0 0 1.67-.089l.689-.077-.357.625a8.929 8.929 0 0 0-1.416 3.686c-.382 1.823-.357 5.012.077 10.776.459 5.994.242 9.271-.791 12.307a3.549 3.549 0 0 1-1.16 1.938 6.732 6.732 0 0 1-4.317 1.505c-2.155.128-3.584-.306-4.706-1.467a6.37 6.37 0 0 1-1.671-3.851 20 20 0 0 1 .778-6.606c.192-.7 1.658-6.772 1.786-7.333a21.446 21.446 0 0 0 .2-7.588c-.128-.459-.268-1.02-.332-1.237a9.2 9.2 0 0 0-1.1-2.194c-.319-.472-.294-.727.063-.586a9.62 9.62 0 0 0 1.5.153m-6.848 1.441c.242.051.765.178 1.148.255a6.336 6.336 0 0 1 3.3 1.466 2.466 2.466 0 0 1 .4.549c0 .561-2.563 1.773-4.655 2.219-.344.064-.867.178-1.148.242-1.607.357-4.081.765-6.312 1.02a45.784 45.784 0 0 1-7.27.1c-1.1-.242-1.4-.446-1.4-.867a2.506 2.506 0 0 1 .893-1.39 27.566 27.566 0 0 1 2.623-1.707 20.878 20.878 0 0 1 7.141-2.015 31.755 31.755 0 0 1 5.293.128m5.394 5.8a21.883 21.883 0 0 1-.688 5.038c-.077.319-.192.829-.255 1.148s-.179.778-.243 1.02-.242.956-.382 1.594c-.306 1.3-.5 1.849-.638 1.849-.051 0-.166-.242-.255-.548a4.527 4.527 0 0 0-.255-.663 4.035 4.035 0 0 1-.242-.7c-.09-.319-.217-.714-.268-.892a10.256 10.256 0 0 1-.357-3.584 7.052 7.052 0 0 1 .829-3.635 5.213 5.213 0 0 1 1.76-1.709.778.778 0 0 0 .382-.255.608.608 0 0 1 .434-.229c.178.038.2.28.178 1.568m-4.374.281c0 .051-.115.408-.242.791a9.632 9.632 0 0 0-.523 3.647 12.259 12.259 0 0 0 .791 4.719 15.107 15.107 0 0 0 1.122 2.652 7.025 7.025 0 0 1 .574 1.5 15.067 15.067 0 0 0-.255 1.7 12.483 12.483 0 0 0 .216 4.579c.153.5.141.523-.267.854a5.585 5.585 0 0 1-3.584.893 5.537 5.537 0 0 1-2.347-.319 4.669 4.669 0 0 1-2.129-1.3 6.075 6.075 0 0 1-1.378-2.168 12.857 12.857 0 0 1-.781-4.565 35.912 35.912 0 0 0-.79-6.632 11.917 11.917 0 0 0-1.77-4.017c-.65-.791-.459-.931 1.224-.867l1.021.038.344.638a2.846 2.846 0 0 1 .357 1.033c0 .8.752 1.313 1.314.892.306-.242.293-1.339-.039-2.015a2.806 2.806 0 0 1-.255-.688 4.48 4.48 0 0 1 1.977-.46l.51-.038.064 1.1c.089 1.62.638 2.206 1.39 1.5a.553.553 0 0 0 .191-.663 5.048 5.048 0 0 1 .051-2.156 5.233 5.233 0 0 1 1.786-.471 2.421 2.421 0 0 0 .625-.179c.1-.115.8-.115.8 0"/>
        </g>
    </g>
</svg>
