<svg xmlns="http://www.w3.org/2000/svg" width="56" height="56" viewBox="0 0 56 56">
    <defs>
        <clipPath id="2d8625awla">
            <path data-name="사각형 26781" style="fill:none" d="M0 0h38.497v40.017H0z"/>
        </clipPath>
    </defs>
    <g data-name="그룹 128993">
        <g data-name="그룹 128992" style="clip-path:url(#2d8625awla)" transform="translate(9 8)">
            <path data-name="패스 72035" d="M17.454 1.694c.74.1 1.543.242 1.785.306a13.835 13.835 0 0 1 4.336 2.028A18.138 18.138 0 0 1 28.6 9.945c.166.37.421.931.561 1.25a22 22 0 0 1 .931 3.061 3.031 3.031 0 0 1-.382 2.232 2.728 2.728 0 0 1-1.811 1.2c-.918.2-23.071.192-23.989 0a2.822 2.822 0 0 1-2.257-2.168 2.385 2.385 0 0 1 .115-1.594c.153-.548.331-1.135.4-1.3a1.645 1.645 0 0 0 .115-.471 3.977 3.977 0 0 1 .319-.893c.178-.383.459-1.02.637-1.416a17.576 17.576 0 0 1 4.752-5.665 13.12 13.12 0 0 1 6.275-2.487 7.886 7.886 0 0 1 3.188 0" style="fill:#93e5c2"/>
            <path data-name="패스 72036" d="M31.737 21.334a6.6 6.6 0 0 1 3 1.785 7.376 7.376 0 0 1 2.232 5.65c0 1.824-.281 2.321-1.327 2.321a2.492 2.492 0 0 1-.739-.115c-.166-.076-.8-.306-1.441-.523s-1.263-.446-1.4-.51-.536-.191-.893-.293-1.3-.434-2.1-.727-1.786-.638-2.168-.765c-3.29-1.11-3.711-1.339-3.9-2.117-.114-.459.6-1.582 1.684-2.666a7.186 7.186 0 0 1 7.065-2.04" style="fill:#93e5c2"/>
            <path data-name="패스 72037" d="M13.819.087c-.038.076-.242.14-.446.14a13.354 13.354 0 0 0-3.826 1.161 18.951 18.951 0 0 0-6.3 5.331A18.354 18.354 0 0 0 .008 14.88 2.408 2.408 0 0 0 .1 15.952a.645.645 0 0 1 .14.4 1.169 1.169 0 0 0 .255.587 1.206 1.206 0 0 1 .255.459 5.04 5.04 0 0 0 1.671 1.492c1 .446 1.326.472 4.974.472a30.265 30.265 0 0 1 3.749.115 3.7 3.7 0 0 1-.051.994c-.077.472-.191 1.531-.268 2.334s-.191 1.951-.255 2.551-.178 1.709-.255 2.487c-.2 2.1-.357 3.57-.523 4.884a6.1 6.1 0 0 0 1.582 5.254 6.168 6.168 0 0 0 3.009 1.786 5.416 5.416 0 0 0 3.648-.153 6.616 6.616 0 0 0 3.328-2.921 4.675 4.675 0 0 0 .625-2.04c.089-.829.026-1.62-.523-6.912-.064-.613-.051-.855.064-.855a.157.157 0 0 1 .14.166c0 .28.778 1.109 1.276 1.364a8.576 8.576 0 0 0 1.109.447c.332.115.727.255.867.306s.447.178.676.268.408.191.408.229-.395.88-.88 1.862-1.058 2.194-1.288 2.691-.459.995-.523 1.11a3.673 3.673 0 0 0 .141 2.219 3.636 3.636 0 0 0 1.949 2.01 3.308 3.308 0 0 0 1.658.459 3.574 3.574 0 0 0 2.614-1.072 3.483 3.483 0 0 0 1.028-2.053c.089-.421.217-.9.268-1.084s.166-.663.255-1.084.2-.943.255-1.148.166-.714.255-1.122.23-.727.293-.727.817.23 1.671.523A4.559 4.559 0 0 0 36 32.7a2.846 2.846 0 0 0 2.231-1.543 5.008 5.008 0 0 0 .268-2.4 14.268 14.268 0 0 0-.115-2.206c-.063-.2-.191-.625-.28-.944a11.961 11.961 0 0 0-1.148-2.411 8.86 8.86 0 0 0-3.239-2.805 8.064 8.064 0 0 0-6.122-.574 12.133 12.133 0 0 0-3.06 1.5 10.674 10.674 0 0 0-2.946 3.571 2.1 2.1 0 0 1-.319.586 4.111 4.111 0 0 1-.17-1.054c-.051-.574-.14-1.531-.2-2.13s-.153-1.505-.2-2.015l-.089-.918h3.685c4.056 0 4.426-.051 5.561-.778a4.411 4.411 0 0 0 1.9-2.9 3.445 3.445 0 0 0-.128-1.951 18 18 0 0 0-1.53-4.349 17.422 17.422 0 0 0-7.614-7.869A13.617 13.617 0 0 0 18.538.2a21.662 21.662 0 0 0-4.719-.113m3.635 1.607c.739.1 1.543.242 1.785.306a13.813 13.813 0 0 1 4.336 2.028A18.138 18.138 0 0 1 28.6 9.945c.166.37.421.931.561 1.25a22.149 22.149 0 0 1 .931 3.061 3.025 3.025 0 0 1-.383 2.231 2.724 2.724 0 0 1-1.811 1.2c-.918.2-23.07.191-23.988 0a2.822 2.822 0 0 1-2.257-2.168 2.383 2.383 0 0 1 .114-1.594c.154-.548.332-1.135.4-1.3a1.658 1.658 0 0 0 .115-.472 4.025 4.025 0 0 1 .318-.892c.179-.383.46-1.021.638-1.416a17.563 17.563 0 0 1 4.753-5.664 13.117 13.117 0 0 1 6.274-2.487 7.891 7.891 0 0 1 3.189 0m1.581 17.816c.064.229.332 2.614.714 6.542.153 1.582.306 2.959.523 4.91.089.74.153 1.964.153 2.742a3.426 3.426 0 0 1-.344 2.079 4.569 4.569 0 0 1-5.012 2.589 4.708 4.708 0 0 1-3.762-5.484c.076-.536.2-1.658.28-2.5s.192-1.964.255-2.487.179-1.645.255-2.486.192-1.913.256-2.385a10.5 10.5 0 0 0 .127-1.3 14.1 14.1 0 0 1 .14-1.416l.141-.956h3.124c2.372 0 3.112.038 3.15.153m12.7 1.824a6.59 6.59 0 0 1 3 1.785 7.373 7.373 0 0 1 2.232 5.65c0 1.823-.281 2.321-1.326 2.321a2.494 2.494 0 0 1-.74-.115c-.166-.077-.8-.306-1.441-.523s-1.263-.446-1.4-.51-.536-.191-.893-.293-1.3-.434-2.1-.727-1.785-.638-2.168-.766c-3.29-1.109-3.711-1.339-3.9-2.117-.115-.459.6-1.581 1.683-2.665a7.182 7.182 0 0 1 7.065-2.04M29.059 30.6c1.275.446 1.39.536 1.314.905a154.358 154.358 0 0 1-1.212 5.306 2.069 2.069 0 0 1-3.278 1.262 1.978 1.978 0 0 1-.854-2.856c.179-.345.8-1.646 1.416-2.9.918-1.9 1.135-2.27 1.313-2.194.115.051.7.268 1.3.472"/>
            <path data-name="패스 72038" d="M8.654 5.737a12.358 12.358 0 0 0-3.749 3.7c-.8 1.454-.855 2-.179 2.347.344.178.408.178.689 0a2.446 2.446 0 0 0 .574-.816 9.682 9.682 0 0 1 2.066-2.731 18.247 18.247 0 0 1 1.606-1.123c.957-.612 1.033-.688 1.033-1.1 0-.472-.369-.944-.739-.944a5.374 5.374 0 0 0-1.3.663"/>
            <path data-name="패스 72039" d="M28.473 21.907a6.07 6.07 0 0 0-2.308 1.11.831.831 0 0 0-.141 1.364c.4.281.549.255 1.365-.2a4.167 4.167 0 0 1 2.627-.739c1.135 0 1.275-.052 1.441-.511.179-.5-.064-.854-.714-1.083a3.322 3.322 0 0 0-2.27.063"/>
        </g>
    </g>
</svg>
