<svg xmlns="http://www.w3.org/2000/svg" width="56.317" height="56" viewBox="0 0 56.317 56">
    <defs>
        <clipPath id="4mgy8id83a">
            <path data-name="사각형 26797" style="fill:none" d="M0 0h55.317v44.381H0z"/>
        </clipPath>
    </defs>
    <g data-name="그룹 129025">
        <g data-name="그룹 129024" style="clip-path:url(#4mgy8id83a)" transform="translate(1 6)">
            <path data-name="패스 72127" d="M31.469 18.543a12.744 12.744 0 0 1 3.316 1.518c1.326.727 1.989.9 2.6.727a12.292 12.292 0 0 0 2.436-1.148 10.664 10.664 0 0 1 2.36-1.059 6.892 6.892 0 0 1 2.55-.268 8.208 8.208 0 0 1 2.831.345 7.58 7.58 0 0 1 5.675 5.56 14.852 14.852 0 0 1 .511 3.839c.165 3.979-.778 7.6-2.6 9.985-1.734 2.258-5 3.89-8.838 4.413-.6.089-1.467.2-1.938.281a52.067 52.067 0 0 1-7.053-.013 27.65 27.65 0 0 1-5.1-1.008 16.1 16.1 0 0 1-3.188-1.556c-3.4-2.333-4.91-5.8-4.91-11.337 0-3.3.4-5.127 1.505-6.887A6.011 6.011 0 0 1 23.409 20a9.869 9.869 0 0 1 4.3-1.645 13.241 13.241 0 0 1 3.762.191" style="fill:#93e5c2"/>
            <path data-name="패스 72128" d="M32.158 26.96a1.78 1.78 0 0 1 1.007 1.352c.471 3.048.471 3.838.025 4.336-.815.893-2 .37-2.8-1.25a3.1 3.1 0 0 1-.331-1.824c0-1.39.331-2.219 1.045-2.563.536-.268.536-.268 1.059-.051" style="fill:#fff"/>
            <path data-name="패스 72129" d="M42.628 26.96c1.53.638 1.645 4 .191 5.42a3.1 3.1 0 0 1-.943.625.79.79 0 0 1-.88-.064c-.574-.344-.715-.867-.587-2.206.293-2.946.5-3.545 1.288-3.788.23-.076.434-.14.459-.153a2.2 2.2 0 0 1 .472.166" style="fill:#fff"/>
            <path data-name="패스 72130" d="M28.689 4.056A10.947 10.947 0 0 1 33 8a12.283 12.283 0 0 1 1.887 6.925l-.038.956-.549-.041a41.3 41.3 0 0 0-6.083.637c-1.071.217-1.773.383-2.1.485-.179.051-.548.166-.829.242a9.07 9.07 0 0 0-5.7 4.949 9.432 9.432 0 0 0-.752 2.27 35.779 35.779 0 0 0-.5 4.234v.676h-1.4a28 28 0 0 1-5.8-.7c-5.471-1.441-8.315-4.425-9.233-9.692-.077-.421-.191-1.48-.268-2.36-.344-4.489.893-8.123 3.66-10.712a10.137 10.137 0 0 1 3.27-2.043c.484-.153.523-.153.816.205.74.9.74.854.242 1.81a20.823 20.823 0 0 0-1.364 3.941c-.294 1.288.089 1.479 2.818 1.4a17.323 17.323 0 0 0 2.474-.191c.281-.077.714-.192.957-.255a12.528 12.528 0 0 0 2.92-1.467l.816-.548.918.612a10.645 10.645 0 0 0 6.568 1.887c2.207 0 2.551-.115 2.551-.892a13.067 13.067 0 0 0-1.339-4.337 6.811 6.811 0 0 1-.442-1.042 4.123 4.123 0 0 1 1.187-1.365 5.48 5.48 0 0 1 1.007.472" style="fill:#93e5c2"/>
            <path data-name="패스 72131" d="M9.087.166c-.65.2-.867.586-.778 1.4.064.586.051.625-.28.739a13.629 13.629 0 0 0-3.01 1.646 13.21 13.21 0 0 0-4.655 7.46c-.064.347-.191.96-.264 1.342A32.382 32.382 0 0 0 .148 18.3a21.443 21.443 0 0 0 1.033 4.081 7.164 7.164 0 0 1 .306.752 11.3 11.3 0 0 0 1.976 2.959 10.88 10.88 0 0 0 3.393 2.576 16.969 16.969 0 0 0 4.31 1.556 30.391 30.391 0 0 0 5.1.65c.536 0 1.263.051 1.607.089l.638.09.166.956a14.47 14.47 0 0 0 2.525 6.7A13.183 13.183 0 0 0 24 41.435a18.16 18.16 0 0 0 6.9 2.55c.5.077 1.275.192 1.735.268a62.342 62.342 0 0 0 8.978-.076 21.805 21.805 0 0 0 4.591-.995 12.28 12.28 0 0 0 8.723-9.96 17.54 17.54 0 0 0 .4-4.515 14.656 14.656 0 0 0-.727-5.5 9 9 0 0 0-4.68-5.4 11.029 11.029 0 0 0-2.436-.854 16.248 16.248 0 0 0-2.359-.511c-.523-.089-1.276-.216-1.658-.293s-2.1-.14-3.826-.14L36.506 16l-.025-1.4a13.038 13.038 0 0 0-3.762-9.526 12.92 12.92 0 0 0-3.444-2.525c-.969-.549-.994-.574-.994-1.046 0-1.3-.536-1.5-3.928-1.5a17.157 17.157 0 0 0-4.744.485 4.611 4.611 0 0 1-2.423.038 17.878 17.878 0 0 0-4.847-.475 16.969 16.969 0 0 0-3.252.115m6.2 1.556a15.312 15.312 0 0 1 2.513.548 1.32 1.32 0 0 0 .829 0 13.331 13.331 0 0 1 2.64-.548 23 23 0 0 1 5.292-.064c.128.2-.293.931-1.058 1.849-1.2 1.416-1.135 1.25-.664 2.015a10.857 10.857 0 0 1 1.658 3.9c0 .255-.063.267-.994.267a10.041 10.041 0 0 1-4.617-1.173 9.175 9.175 0 0 1-1.9-1.352 3.823 3.823 0 0 0-.791-.535 3.167 3.167 0 0 0-.791.625 9.625 9.625 0 0 1-6.338 2.435 2.941 2.941 0 0 1-1.071-.114 10.507 10.507 0 0 1 .765-2.538 13.208 13.208 0 0 1 .714-1.2 3.014 3.014 0 0 0 .485-.995 2.812 2.812 0 0 0-.714-1.058c-.842-.931-1.378-1.8-1.276-2.066s3.648-.268 5.318 0m13.4 2.334A10.935 10.935 0 0 1 33 8a12.278 12.278 0 0 1 1.888 6.925l-.038.957-.549-.039a41.443 41.443 0 0 0-6.083.638c-1.071.217-1.773.383-2.1.485-.179.051-.549.165-.829.242a9.066 9.066 0 0 0-5.7 4.948 9.432 9.432 0 0 0-.752 2.27 36.011 36.011 0 0 0-.5 4.234v.676h-1.4a28.047 28.047 0 0 1-5.8-.7c-5.48-1.446-8.324-4.436-9.242-9.698-.077-.421-.192-1.479-.268-2.359-.344-4.489.893-8.124 3.66-10.713a10.115 10.115 0 0 1 3.278-2.04c.484-.153.522-.153.816.2.739.9.739.854.242 1.811a20.841 20.841 0 0 0-1.365 3.945c-.293 1.288.09 1.479 2.819 1.4a17.035 17.035 0 0 0 2.474-.191c.281-.076.714-.191.956-.255a12.467 12.467 0 0 0 2.921-1.466l.816-.549.918.612a10.646 10.646 0 0 0 6.568 1.888c2.206 0 2.551-.115 2.551-.893a13.056 13.056 0 0 0-1.339-4.336 6.653 6.653 0 0 1-.442-1.044 4.128 4.128 0 0 1 1.186-1.364 5.373 5.373 0 0 1 1.008.472m7.919 13.7a.9.9 0 0 0 .638 0 5.4 5.4 0 0 1 2.257-.14c0 .4-1.759 1.518-2.372 1.518a3.645 3.645 0 0 1-.88-.166 8.074 8.074 0 0 1-2.359-1.377 7.913 7.913 0 0 1 2.716.165m-5.139.791a12.744 12.744 0 0 1 3.316 1.518c1.326.727 1.989.9 2.6.727a12.292 12.292 0 0 0 2.436-1.148 10.664 10.664 0 0 1 2.36-1.059 6.892 6.892 0 0 1 2.55-.268 8.208 8.208 0 0 1 2.831.345 7.58 7.58 0 0 1 5.675 5.56 14.852 14.852 0 0 1 .511 3.839c.165 3.979-.778 7.6-2.6 9.985-1.734 2.258-5 3.89-8.838 4.413-.6.089-1.467.2-1.938.281a52.067 52.067 0 0 1-7.053-.013 27.65 27.65 0 0 1-5.1-1.008 16.1 16.1 0 0 1-3.188-1.556c-3.4-2.333-4.91-5.8-4.91-11.337 0-3.3.4-5.127 1.505-6.887A6.011 6.011 0 0 1 23.409 20a9.869 9.869 0 0 1 4.3-1.645 13.241 13.241 0 0 1 3.762.191"/>
            <path data-name="패스 72132" d="M16.777 3.749a1.059 1.059 0 0 0-.077 1.2 3.754 3.754 0 0 0 1.531.153c1.3 0 1.377-.013 1.568-.306a.8.8 0 0 0-.191-1.1 6.806 6.806 0 0 0-2.831.051" style="fill:#555"/>
            <path data-name="패스 72133" d="M30.475 25.532a3.784 3.784 0 0 0-1.709 2 5.068 5.068 0 0 0-.281 2.181 3.752 3.752 0 0 0 .434 2.359 5.584 5.584 0 0 0 2.232 2.41 3.045 3.045 0 0 0 2.294-.063c1.569-.74 2.028-2.245 1.519-4.961-.116-.6-.243-1.314-.3-1.595a3.2 3.2 0 0 0-1.7-2.372 3.156 3.156 0 0 0-2.5.039m1.683 1.428a1.78 1.78 0 0 1 1.007 1.352c.471 3.048.471 3.838.025 4.336-.815.893-2 .37-2.8-1.25a3.1 3.1 0 0 1-.331-1.824c0-1.39.331-2.219 1.045-2.563.536-.268.536-.268 1.059-.051"/>
            <path data-name="패스 72134" d="M40.843 25.506c-1.378.676-1.811 1.875-2.066 5.7-.1 1.683.306 2.563 1.492 3.163 1.479.752 3.035.165 4.234-1.569a4.781 4.781 0 0 0 .867-3.15 4.374 4.374 0 0 0-1.365-3.66 2.984 2.984 0 0 0-3.162-.485m1.785 1.454c1.53.638 1.645 4 .191 5.42a3.1 3.1 0 0 1-.943.625.79.79 0 0 1-.88-.064c-.574-.344-.715-.867-.587-2.206.293-2.946.5-3.545 1.288-3.788.23-.076.434-.14.459-.153a2.2 2.2 0 0 1 .472.166"/>
        </g>
    </g>
</svg>
