<svg xmlns="http://www.w3.org/2000/svg" width="56.389" height="56" viewBox="0 0 56.389 56">
    <defs>
        <clipPath id="ytpa2grb9a">
            <path data-name="사각형 26791" style="fill:none" d="M0 0h56.389v49.726H0z"/>
        </clipPath>
    </defs>
    <g data-name="그룹 129013">
        <g data-name="그룹 129012" style="clip-path:url(#ytpa2grb9a)" transform="translate(0 3)">
            <path data-name="패스 72099" d="M7.7 34.917c.268.051.446.23.7.714a9.883 9.883 0 0 0 3.2 3.086c.46.23 1 .472 1.212.549a13.093 13.093 0 0 0 2.806.51 11.677 11.677 0 0 0 2.92-.574 8.291 8.291 0 0 0 4.247-3.584l.395-.752 1.824-.038a9.006 9.006 0 0 1 1.938.089c.281.281-.51 2.512-1.415 4a12.24 12.24 0 0 1-5.9 4.949 9.331 9.331 0 0 1-3.686.523 6.805 6.805 0 0 1-3.048-.409 9.9 9.9 0 0 1-3.532-1.88 12.277 12.277 0 0 1-3.737-5.063c-.166-.421-.344-.893-.408-1.058a2.409 2.409 0 0 1-.115-.727V34.8l1.123.013a10.652 10.652 0 0 1 1.479.1" style="fill:#93e5c2"/>
            <path data-name="패스 72100" d="M11.58 35.108a7.666 7.666 0 0 0 4.043.892 8.231 8.231 0 0 0 4.17-.893c.689-.344 1.377-.408 1.377-.115 0 .357-.982 1.365-1.989 2.041a5.943 5.943 0 0 1-3.609.956 6.067 6.067 0 0 1-4.172-1.376c-.663-.523-1.5-1.594-1.364-1.735.178-.178.969-.063 1.543.23" style="fill:#93e5c2"/>
            <path data-name="패스 72101" d="M37.137 7.013c.37.077.995.191 1.377.268a25.159 25.159 0 0 1 3.635 1.007 20.17 20.17 0 0 1 5.012 2.882 29.284 29.284 0 0 1 3.864 3.992 21.771 21.771 0 0 1 1.775 2.882c0 .026.166.408.37.868a20.368 20.368 0 0 1 1.171 3.388 17.252 17.252 0 0 1 .459 4.3 17.373 17.373 0 0 1-.459 5.267 22.3 22.3 0 0 1-2.768 6.312 20.046 20.046 0 0 1-13.951 8.851 20.5 20.5 0 0 1-8.035-.472 11.079 11.079 0 0 1-2.6-.918c-.077-.077.14-.395.637-.918a15.49 15.49 0 0 0 3.316-5.446 13.9 13.9 0 0 0 .752-3.328c.256-1.811.243-2.245-.063-2.551-.243-.242-.421-.255-5.93-.255H20.01l-.625.319a8.726 8.726 0 0 1-3.189.931c-.357-.051-.675-.867-1.109-2.78a16.628 16.628 0 0 1-.548-4.528 19.844 19.844 0 0 1 2.18-9.093 21 21 0 0 1 7.69-8.3c.472-.28.88-.523.906-.523s.472-.2.995-.446a24.948 24.948 0 0 1 5.892-1.7 24.526 24.526 0 0 1 4.935-.013" style="fill:#93e5c2"/>
            <path data-name="패스 72102" d="M30.391.165a1.745 1.745 0 0 0-.5.242.447.447 0 0 1-.265.093 2.685 2.685 0 0 0-.753.383c-.484.344-.561.459-.561.829a.645.645 0 0 0 .319.65c.357.23.523.179 1.339-.331a3.1 3.1 0 0 1 3.239-.051l.714.357v3.005h-.472a20.287 20.287 0 0 0-3.609.536A21.635 21.635 0 0 0 16.6 15a7.092 7.092 0 0 0-.536.868 3.012 3.012 0 0 1-.383.637 4.609 4.609 0 0 0-.382.625c0 .038-.153.4-.332.8a18.511 18.511 0 0 0-.918 2.27 32.4 32.4 0 0 0-.9 3.838 34.37 34.37 0 0 0 0 6.071c.076.51.293 1.505.459 2.206.51 2.028.51 2.015.153 1.913a6.354 6.354 0 0 1-1.518-.574c-.791-.5-.9-.51-6.351-.51-4.616 0-5.369.026-5.611.2S0 33.641 0 34.8a3.778 3.778 0 0 0 .128 1.339c.076.038.127.268.127.51a13.164 13.164 0 0 0 1.237 4.094 18.249 18.249 0 0 0 5.127 6.109 15.584 15.584 0 0 0 6.032 2.678 28.878 28.878 0 0 0 6.2.051 13.624 13.624 0 0 0 2-.5c.141-.051.6-.229 1.021-.4a10.227 10.227 0 0 0 1.186-.523c.982-.548 1.326-.752 1.785-1.058.523-.345.574-.345 1.62.127a23.006 23.006 0 0 0 6.708 1.594A21.01 21.01 0 0 0 41 47.95a21.83 21.83 0 0 0 15.19-17.229 36.972 36.972 0 0 0 .051-7.116c-.255-1.263-.65-2.882-.765-3.15-.064-.141-.2-.536-.319-.88a19.029 19.029 0 0 0-.931-2.245 25.972 25.972 0 0 0-2.168-3.443 24.249 24.249 0 0 0-5.688-5.216c-.255-.153-.676-.395-.931-.548A20.2 20.2 0 0 0 41.7 6.465a20.494 20.494 0 0 0-5.42-1.11l-.766-.076-.038-.995-.035-.984h.867a4.34 4.34 0 0 0 3.2-1.314c.587-.574.676-.943.306-1.275s-.778-.255-1.479.268a5.5 5.5 0 0 1-1.071.663 2.446 2.446 0 0 1-2.156-.37A12.966 12.966 0 0 0 33.8.547c-.383-.191-.8-.395-.918-.446a6.1 6.1 0 0 0-2.487.064m6.746 6.848c.37.077.995.191 1.377.268a25.159 25.159 0 0 1 3.635 1.007 20.153 20.153 0 0 1 5.012 2.883 29.219 29.219 0 0 1 3.864 3.991 21.661 21.661 0 0 1 1.771 2.882c0 .026.166.409.37.868a20.368 20.368 0 0 1 1.171 3.388 17.252 17.252 0 0 1 .459 4.3 17.373 17.373 0 0 1-.459 5.267 22.328 22.328 0 0 1-2.767 6.312 20.05 20.05 0 0 1-13.952 8.851 20.5 20.5 0 0 1-8.035-.472 11.1 11.1 0 0 1-2.6-.918c-.077-.076.14-.395.637-.918a15.49 15.49 0 0 0 3.316-5.446 13.944 13.944 0 0 0 .753-3.328c.255-1.811.242-2.245-.064-2.551-.243-.242-.421-.255-5.93-.255H20.01l-.625.319a8.727 8.727 0 0 1-3.188.931c-.357-.051-.676-.867-1.11-2.78a16.628 16.628 0 0 1-.548-4.528 19.844 19.844 0 0 1 2.18-9.093 21 21 0 0 1 7.691-8.3c.471-.28.88-.523.905-.523s.472-.2.995-.446a24.948 24.948 0 0 1 5.892-1.7 24.526 24.526 0 0 1 4.935-.013M3.291 34.84a1.9 1.9 0 0 1 .216.727 6.409 6.409 0 0 0 .447 1.594c.063.141.2.51.319.829a14.852 14.852 0 0 0 5.5 6.389 11.652 11.652 0 0 0 5.063 1.646 11.325 11.325 0 0 0 5.178-.6 13.279 13.279 0 0 0 6.032-4.4 16.537 16.537 0 0 0 1.645-2.716c.077-.217.191-.5.255-.638a10.543 10.543 0 0 0 .625-2.244c0-.485.306-.753.88-.753.676 0 .752.153.638 1.212a14.027 14.027 0 0 1-6.364 10.088 14.1 14.1 0 0 1-5.038 2.091 22.658 22.658 0 0 1-5.8-.051c-3.686-.88-5.93-2.359-8.685-5.688a14.132 14.132 0 0 1-1.352-2.3c-.791-1.735-1.492-4.795-1.186-5.165a1.925 1.925 0 0 1 1.633-.026m4.412.077c.268.051.446.229.7.714a9.893 9.893 0 0 0 3.2 3.086c.46.23 1 .472 1.212.549a13.093 13.093 0 0 0 2.806.51 11.677 11.677 0 0 0 2.92-.574 8.287 8.287 0 0 0 4.247-3.584l.395-.752 1.824-.039a9.044 9.044 0 0 1 1.938.09c.281.28-.51 2.512-1.415 4a12.243 12.243 0 0 1-5.9 4.948 9.329 9.329 0 0 1-3.685.523 6.8 6.8 0 0 1-3.048-.408A9.9 9.9 0 0 1 9.361 42.1a12.283 12.283 0 0 1-3.737-5.063c-.165-.421-.344-.893-.408-1.059a2.4 2.4 0 0 1-.115-.727V34.8l1.123.013a10.494 10.494 0 0 1 1.479.1m3.877.191a7.666 7.666 0 0 0 4.043.896 8.231 8.231 0 0 0 4.17-.893c.689-.344 1.377-.408 1.377-.115 0 .357-.982 1.365-1.989 2.041a5.943 5.943 0 0 1-3.609.956 6.067 6.067 0 0 1-4.172-1.376c-.663-.523-1.5-1.594-1.364-1.735.178-.178.969-.063 1.543.23"/>
        </g>
    </g>
</svg>
