<svg xmlns="http://www.w3.org/2000/svg" width="56" height="56" viewBox="0 0 56 56">
    <defs>
        <clipPath id="2bmfivumsa">
            <path data-name="사각형 26802" style="fill:none" d="M0 0h39.826v37.639H0z"/>
        </clipPath>
    </defs>
    <g data-name="그룹 129035">
        <g data-name="그룹 129034" style="clip-path:url(#2bmfivumsa)" transform="translate(8 9)">
            <path data-name="합치기 24" d="M-942.769 790.346a10.753 10.753 0 0 0-.255-1.437h-1.8c-3.5 0-7.762-1.531-8.181-8.824v-1.4a.683.683 0 0 1 .682-.682h2.736c7.7 0 8.855 4.271 8.863 6.816a5.1 5.1 0 0 1-1.093 3.364 11.649 11.649 0 0 1 .4 2.016.682.682 0 0 1-.6.753.687.687 0 0 1-.076 0 .681.681 0 0 1-.676-.606zm-8.868-10.3c.29 5.033 2.52 7.5 6.817 7.5h1.323a6.813 6.813 0 0 0-3.645-3.468.682.682 0 0 1-.346-.9.681.681 0 0 1 .9-.346 8.207 8.207 0 0 1 4.154 3.784 3.93 3.93 0 0 0 .349-1.8c-.01-3.618-2.533-5.454-7.5-5.454h-2.055z" transform="translate(953 -778)" style="stroke:transparent;stroke-miterlimit:10"/>
            <path data-name="패스 72173" d="M32.8 18.663h2.29c3.052 0 3.958.437 3.884 2.61-.121 3.6-1.744 7.776-8.233 8.923" style="fill:#93e5c2"/>
            <path data-name="패스 72174" d="M30.735 31.048a.852.852 0 0 1-.147-1.691c4.845-.857 7.378-3.586 7.529-8.113a1.836 1.836 0 0 0-.249-1.272c-.392-.405-1.693-.457-2.782-.457H32.8a.852.852 0 1 1 0-1.7h2.29c1.94 0 3.217.159 4.007.977a3.32 3.32 0 0 1 .728 2.513c-.125 3.742-1.777 8.469-8.937 9.734a.841.841 0 0 1-.149.013"/>
            <path data-name="패스 72175" d="M31.872 21.816H33.2c1.768 0 2.293.181 2.25 1.08-.07 1.488-1.01 3.218-4.77 3.692" style="fill:#fff"/>
            <path data-name="패스 72176" d="M30.679 27.44a.852.852 0 0 1-.106-1.7c2.6-.328 3.95-1.3 4.024-2.887a.8.8 0 0 0 0-.083 5.293 5.293 0 0 0-1.4-.105h-1.324a.852.852 0 0 1 0-1.7H33.2c1.337 0 2.16.1 2.671.639a1.705 1.705 0 0 1 .429 1.333c-.066 1.428-.871 3.912-5.514 4.5a.973.973 0 0 1-.107.006m3.985-4.643z"/>
            <path data-name="패스 72177" d="M12.524 35.328c-5.559-4.275-6.378-10.339-6.5-16.665-.051-2.734.742-3.3 4.38-3.3H28c3.638 0 4.432.562 4.379 3.3-.122 6.326-.939 12.39-6.5 16.665-1.582 1.216-2.917 1.458-5.166 1.458h-3.024c-2.247 0-3.582-.24-5.165-1.458" style="fill:#93e5c2"/>
            <path data-name="패스 72178" d="M20.717 37.638h-3.028c-2.361 0-3.889-.252-5.689-1.638-6.087-4.681-6.718-11.4-6.832-17.325a4.155 4.155 0 0 1 .854-3.115c.861-.877 2.257-1.048 4.377-1.048H28c2.121 0 3.517.171 4.378 1.049a4.154 4.154 0 0 1 .853 3.115C33.12 24.607 32.488 31.324 26.4 36c-1.8 1.382-3.324 1.634-5.684 1.634M10.4 16.22c-1.845 0-2.79.161-3.16.538-.273.278-.386.86-.367 1.889.107 5.531.679 11.785 6.167 16.006 1.426 1.1 2.585 1.281 4.646 1.281h3.028c2.06 0 3.22-.185 4.646-1.281 5.487-4.219 6.06-10.475 6.167-16.006.019-1.028-.093-1.611-.366-1.889-.37-.377-1.316-.538-3.161-.538z"/>
            <path data-name="패스 72179" d="M25.846 15.368zm-2.465 12.846.481-3.051a2.039 2.039 0 0 1 3.963 0l.481 3.051c.26 1.643-5.152 1.443-4.925 0" style="fill:#fff"/>
            <path data-name="패스 72180" d="M25.957 30.225A5.171 5.171 0 0 1 23.3 29.6a1.511 1.511 0 0 1-.764-1.52l.481-3.051a2.71 2.71 0 0 1 1.973-2.159v-7.5a.853.853 0 0 1 1.7 0v7.51a2.741 2.741 0 0 1 1.968 2.153l.481 3.051a1.562 1.562 0 0 1-.764 1.587 4.7 4.7 0 0 1-2.426.557m-1.709-2.04a3.761 3.761 0 0 0 1.731.335H26a3.04 3.04 0 0 0 1.447-.275l-.465-2.95a1.195 1.195 0 0 0-2.28 0z"/>
        </g>
    </g>
</svg>
