<svg xmlns="http://www.w3.org/2000/svg" width="56" height="56" viewBox="0 0 56 56">
    <defs>
        <clipPath id="58f00nhtta">
            <path data-name="사각형 26773" style="fill:none" d="M0 0h48.448v49.221H0z"/>
        </clipPath>
    </defs>
    <g data-name="그룹 128977">
        <g data-name="그룹 128976" style="clip-path:url(#58f00nhtta)" transform="translate(4 3)">
            <path data-name="패스 71997" d="M24.728 2.767c.536 1.5.765 1.722 1.428 1.4.243-.115.472-.166.523-.115a5.377 5.377 0 0 1-.293 1.939 15.19 15.19 0 0 1-.523 1.645L25.48 8.7l.243.345a1.115 1.115 0 0 0 .5.369 4.271 4.271 0 0 0 1.39-.8c1.135-.842 1.365-.88 1.11-.217a32.591 32.591 0 0 0-.778 3.418 14.686 14.686 0 0 0-.141 2.079c0 1.441.1 1.67.74 1.67.421 0 .612-.191 1.033-1.02a8.269 8.269 0 0 1 1.48-2.1c.076 0 .191.191.267.421.345 1.1.868 1.173 1.684.28.612-.676 1.76-1.492 1.9-1.352a4.392 4.392 0 0 1-.485 1.888c-.357.7-.319 1.288.077 1.505.178.1.306.217.293.268a12.993 12.993 0 0 1-.931 1.033c-2.117 2.219-2.232 2.41-1.76 2.933a.858.858 0 0 0 1.158-.02 5.709 5.709 0 0 1 2.385-.778 1.174 1.174 0 0 1 .573.077c0 .114-.5.51-1.3 1.033-1.046.688-1.123 1.173-.281 1.747l.446.306-.28.2a1.164 1.164 0 0 1-.5.2.589.589 0 0 0-.319.1 6.429 6.429 0 0 1-1.594.536A24.65 24.65 0 0 0 26 25.582a6.72 6.72 0 0 1-.931.561A25.169 25.169 0 0 1 25 23.452c0-2.423-.026-2.716-.217-2.869a.719.719 0 0 0-.956.038c-.2.179-.23.447-.23 2.64a16.926 16.926 0 0 1-.115 2.615c-.1.153-.178.14-.484-.064a25.83 25.83 0 0 0-5.14-2.462 34.685 34.685 0 0 1-4.017-1.39c-.242-.14-.23-.165.229-.548.74-.612.664-.982-.331-1.632a8.224 8.224 0 0 1-1.122-.855l-.306-.331.841.051a3.837 3.837 0 0 1 1.76.522 5.306 5.306 0 0 0 1.122.472c.255 0 .8-.484.8-.714a32.431 32.431 0 0 0-2.87-3.277c-.229-.217-.229-.243-.038-.358.344-.191.612-.5.612-.688a3.528 3.528 0 0 0-.319-.867 4.766 4.766 0 0 1-.51-1.977c.128-.14.766.306 1.646 1.148a4.387 4.387 0 0 0 1.109.867c.319 0 .625-.293.791-.778a1.22 1.22 0 0 1 .28-.5c.179-.064.97.994 1.556 2.1.447.829.523.893.944.931a.583.583 0 0 0 .689-.306c.191-.294.216-.51.14-1.378a26.531 26.531 0 0 0-.957-5.5 2.64 2.64 0 0 1-.089-.549 2.512 2.512 0 0 1 .6.4c1.505 1.135 1.76 1.275 2.156 1.109.535-.216.561-.6.115-1.8a11.064 11.064 0 0 1-.7-2.959c-.089-.663-.076-.688.459-.408.6.306.931.077 1.276-.931.471-1.415.637-1.479 1.007-.446" style="fill:#93e5c2"/>
            <path data-name="패스 71998" d="M13.1 28.835a10.032 10.032 0 0 1 3.316 2.984c.65 1.033 1.122 1.11 1.721.255a2 2 0 0 1 .511-.574 8.324 8.324 0 0 1 1.428 2.64 11.383 11.383 0 0 1 .587 3.52 3.439 3.439 0 0 1-.409 1.977 7.6 7.6 0 0 1-3.468 3.928c-.919.446-.97.421-.97-.434 0-.625-.051-.791-.318-1.046l-.307-.293-1.084.536c-2.014.982-5.687 1.9-5.687 1.428a12.049 12.049 0 0 1 2.767-2.334 18.545 18.545 0 0 1 2.3-1.135c1.453-.586 1.734-.854 1.479-1.428-.153-.332-.561-.472-2.143-.714a86.11 86.11 0 0 0-1.606-.281 2.705 2.705 0 0 0-1.6.115c-.484.14-1.326.332-1.874.421a8.841 8.841 0 0 1-3.3-.115c-.09-.089.038-.319.421-.727 1.339-1.428 1.4-1.8.408-2.41-1.561-.948-1.842-1.135-1.74-1.237a5.444 5.444 0 0 1 1.314-.179c1.543-.1 1.785-.217 1.785-.816a4.749 4.749 0 0 0-.242-1.161 2.745 2.745 0 0 1-.191-.79c.165-.281 3.048 1.25 4.31 2.295.51.408.74.485 2.563.855 2 .408 2.271.408 2.538 0 .294-.447.166-.753-.51-1.263a7.232 7.232 0 0 1-1.989-2.525c-.574-1.135-.753-1.581-.651-1.683s.1-.115.638.191" style="fill:#93e5c2"/>
            <path data-name="패스 71999" d="M35.67 30a7.7 7.7 0 0 1-2.155 2.844c-.651.548-.8 1.046-.434 1.416a2.059 2.059 0 0 0 1.556.063c.2-.063.714-.178 1.135-.268a6.2 6.2 0 0 0 3.137-1.355 20.617 20.617 0 0 1 2.028-1.225c.319-.14.74-.331.944-.433a.93.93 0 0 1 .459-.115 1.9 1.9 0 0 1-.14.931c-.46 1.594-.345 1.734 1.479 1.862a6.365 6.365 0 0 1 1.377.191c.1.1-.79.753-1.645 1.2-.574.293-.854.676-.765 1.007a4.368 4.368 0 0 0 .8 1.11 4.516 4.516 0 0 1 .74.956c0 .523-3.137.383-5.356-.242a2.626 2.626 0 0 0-1.531-.064c-.42.077-1.045.192-1.4.255-1.99.358-2.117.4-2.232.715-.2.51.038.892.727 1.135a16.252 16.252 0 0 1 4.438 2.41 5.4 5.4 0 0 1 1.339 1.377c0 .153-.459.115-1.531-.089a13.487 13.487 0 0 1-4.132-1.365c-.879-.446-1.045-.484-1.3-.357-.357.192-.459.574-.357 1.327.1.727-.039.752-1.1.191a8.564 8.564 0 0 1-3.392-3.813c-.345-.651-.37-.791-.358-2.1a9.077 9.077 0 0 1 .587-3.508 12.54 12.54 0 0 1 1.224-2.461c.179-.2.217-.178.625.421.345.523.5.638.8.638s.459-.128.892-.766a12.231 12.231 0 0 1 1.148-1.39c1.02-1.02 2.615-2.027 2.857-1.8A3.367 3.367 0 0 1 35.67 30" style="fill:#93e5c2"/>
            <path data-name="패스 72000" d="M23.567.484a6.926 6.926 0 0 0-.8 1.212c-.37.778-.459.816-.957.536s-.956-.243-1.2.127a4.285 4.285 0 0 0-.09 2.359c.064.243.153.753.2 1.135.09.829.09.829-1.313-.229-1.033-.791-1.4-.918-1.684-.587-.242.294-.191.651.243 1.977a20.488 20.488 0 0 1 .778 2.678c.089.383.2.867.268 1.071.14.46.153.97.025.957a5.323 5.323 0 0 1-.842-.893c-.535-.637-.816-.88-1.045-.88-.358 0-.664.4-.778.982s-.243.625-.791.2a6.1 6.1 0 0 0-1.926-1.007c-1.352-.408-1.607-.128-1.428 1.556.076.625.166 1.326.217 1.543.076.421.076.421-.447.421-.484 0-1.045.331-1.033.6.013.242.383.714 1.327 1.709l1.009 1.074-.752.077a5.015 5.015 0 0 0-2.054.561c-.535.37-.382.765.727 1.887a6.425 6.425 0 0 1 1.021 1.2c0 .077-.1.179-.243.23-.4.114-.778.522-.778.8 0 .65 2.232 1.773 5.1 2.576.522.14 1.556.5 2.231.765 1.658.651 4.643 2.423 4.91 2.921.153.293.179 12.128.039 12.128a3.643 3.643 0 0 1-.7-.574l-.612-.548v-1.006a13.419 13.419 0 0 0-2.7-7.932c-.51-.638-.688-.778-1.007-.778-.281 0-.434.089-.625.408-.472.816-.459.816-1.4-.153a12.06 12.06 0 0 0-3.188-2.257 5.813 5.813 0 0 0-2.27-.625.858.858 0 0 0-.408 1.058 17.073 17.073 0 0 0 1.67 4.017c.37.511.319.7-.165.638a1.408 1.408 0 0 1-.676-.28 19.26 19.26 0 0 0-4.4-2.513c-1.824-.676-2.4-.714-2.6-.14-.114.344-.1.446.4 2 .255.8.127.906-1.225.906a11.569 11.569 0 0 0-3.429.409.69.69 0 0 0-.166.473c0 .357.446.688 2.958 2.18 1.3.765 1.288.638.051 1.977-.969 1.033-1.122 1.377-.739 1.747.739.74 5.152.931 7.333.306.816-.229 1.7-.268 1.811-.089.063.115-.944.9-1.148.9a3.291 3.291 0 0 0-.65.4c-1.646 1.122-3.648 3.558-3.367 4.068.178.332.229.357 1.1.5a14.5 14.5 0 0 0 5.408-.778 3.621 3.621 0 0 0 .574-.242 2.251 2.251 0 0 1 .548-.178l.421-.09-.089.625c-.128 1.046.267 1.237 1.734.842a13.59 13.59 0 0 0 1.2-.472 7.9 7.9 0 0 0 3.889-3.7 2.726 2.726 0 0 1 .549-.842 6.665 6.665 0 0 1 1.747 2.04 12.523 12.523 0 0 1 .255 3.38 29.084 29.084 0 0 0 .179 3.214c.127.2.88.217 1.084.013A11.252 11.252 0 0 0 25 46.038c0-2.78.012-2.907.306-3.52.4-.8 1.454-2.091 1.734-2.091.064 0 .217.191.332.408A15.376 15.376 0 0 0 29 43.22a10.137 10.137 0 0 0 2.946 1.913c.421.166.893.344 1.059.408a1.589 1.589 0 0 0 1.275-.041 1.674 1.674 0 0 0 .153-.842c0-.765-.051-.752 1.212-.281a13.756 13.756 0 0 0 5.649.88 3.138 3.138 0 0 0 .893-.267c.268-.23.166-.727-.268-1.365a11.71 11.71 0 0 0-3.724-3.418 3.552 3.552 0 0 1-.982-.739c.038-.179 1.377-.141 2 .051a16.026 16.026 0 0 0 5.867.14c.217-.064.535-.153.727-.191a.825.825 0 0 0 .739-.715 5.2 5.2 0 0 0-.956-1.326 6.634 6.634 0 0 1-.957-1.237c0-.089.281-.319.613-.51 1.237-.727 1.759-1.033 2.257-1.377a4.947 4.947 0 0 1 .74-.421c.178-.064.229-.2.191-.625-.038-.5-.077-.549-.485-.638a21.008 21.008 0 0 0-2.257-.191 10.611 10.611 0 0 1-1.964-.179c-.115-.063-.128-.178-.026-.459.077-.191.2-.612.294-.931s.2-.688.255-.829a.749.749 0 0 0-.574-.956 8.65 8.65 0 0 0-2.232.586 20.444 20.444 0 0 0-4.272 2.475c-.268.229-.995.42-1.135.293-.038-.038.051-.242.191-.434a19.257 19.257 0 0 0 1.505-3.29c.485-1.505.293-2.181-.587-1.977a10.023 10.023 0 0 0-4.961 2.857 3.333 3.333 0 0 1-.969.8 2.667 2.667 0 0 1-.433-.561c-.281-.446-.37-.51-.727-.472-.332.026-.523.192-1.059.906a12.58 12.58 0 0 0-2.474 7.32v1.352l-.727.676a8.205 8.205 0 0 1-.765.688c-.026 0-.038-2.729-.038-6.057v-6.065l.472-.408a18.763 18.763 0 0 1 6.478-3.29c3.329-1.046 5.025-1.837 5.318-2.474.166-.383-.025-.753-.535-.982s-.472-.472.14-.931a4.29 4.29 0 0 0 1.517-1.926.689.689 0 0 0-.306-.51 5.585 5.585 0 0 0-2.142-.561c-.268 0-.485-.051-.485-.1a11.126 11.126 0 0 1 1.02-1.2c.868-.931 1.021-1.16 1.021-1.543 0-.51-.141-.6-.906-.6h-.51l.077-.485c.051-.255.14-.676.2-.918a2.943 2.943 0 0 0-.115-2.079c-.485-.434-1.505-.153-2.984.829a7.744 7.744 0 0 1-.778.485 1.84 1.84 0 0 1-.217-.549c-.383-1.2-.855-1.288-1.7-.319-.319.37-.7.817-.842.995l-.28.319.089-.638a28.124 28.124 0 0 1 1.148-4.374c.522-1.569.51-1.773-.1-1.989-.281-.1-.472 0-1.442.739a8.221 8.221 0 0 1-1.249.842c-.064 0-.09-.179-.039-.421.357-1.977.37-3.494.051-3.877-.178-.217-.727-.2-1.122.026a1.838 1.838 0 0 1-.459.191 2.238 2.238 0 0 1-.548-.8C25.251.612 24.7 0 24.307 0a1.249 1.249 0 0 0-.74.484m1.161 2.283c.536 1.5.765 1.722 1.428 1.4.243-.115.472-.166.523-.115a5.373 5.373 0 0 1-.293 1.939 15.121 15.121 0 0 1-.523 1.645L25.48 8.7l.243.345a1.121 1.121 0 0 0 .5.37 4.3 4.3 0 0 0 1.39-.8c1.135-.842 1.365-.88 1.11-.217a32.591 32.591 0 0 0-.778 3.418 14.686 14.686 0 0 0-.141 2.079c0 1.441.1 1.671.74 1.671.421 0 .612-.192 1.033-1.021a8.3 8.3 0 0 1 1.479-2.1c.077 0 .192.191.268.421.345 1.1.867 1.173 1.684.28.612-.675 1.76-1.492 1.9-1.351a4.391 4.391 0 0 1-.485 1.887c-.357.7-.319 1.288.077 1.505.178.1.306.217.293.268a13.023 13.023 0 0 1-.931 1.033c-2.117 2.219-2.232 2.41-1.76 2.933a.858.858 0 0 0 1.158-.021 5.709 5.709 0 0 1 2.385-.778 1.188 1.188 0 0 1 .573.077c0 .115-.5.51-1.3 1.033-1.046.688-1.123 1.173-.281 1.747l.446.306-.28.2a1.167 1.167 0 0 1-.5.2.589.589 0 0 0-.318.1 6.378 6.378 0 0 1-1.6.536A24.657 24.657 0 0 0 26 25.582a6.666 6.666 0 0 1-.931.562A25.185 25.185 0 0 1 25 23.453c0-2.423-.026-2.717-.217-2.87a.721.721 0 0 0-.957.039c-.2.178-.229.446-.229 2.639a16.926 16.926 0 0 1-.115 2.615c-.1.153-.178.14-.485-.064a25.737 25.737 0 0 0-5.139-2.461 34.685 34.685 0 0 1-4.017-1.39c-.243-.141-.23-.166.229-.549.74-.612.663-.982-.331-1.632a8.246 8.246 0 0 1-1.123-.855l-.306-.331.842.051a3.827 3.827 0 0 1 1.76.523 5.284 5.284 0 0 0 1.122.472c.255 0 .8-.485.8-.715a32.559 32.559 0 0 0-2.87-3.277c-.229-.217-.229-.242-.038-.357.344-.192.612-.5.612-.689a3.543 3.543 0 0 0-.319-.867 4.749 4.749 0 0 1-.51-1.977c.128-.14.765.306 1.645 1.148a4.4 4.4 0 0 0 1.11.867c.319 0 .625-.293.791-.778a1.209 1.209 0 0 1 .28-.5c.179-.064.969.995 1.556 2.1.446.829.523.893.944.931a.58.58 0 0 0 .688-.306c.192-.293.217-.51.141-1.377a26.528 26.528 0 0 0-.957-5.5 2.561 2.561 0 0 1-.089-.548 2.511 2.511 0 0 1 .6.395c1.505 1.135 1.76 1.275 2.156 1.11.535-.217.561-.6.114-1.8a11.1 11.1 0 0 1-.7-2.958c-.089-.663-.077-.689.459-.408.6.306.931.076 1.275-.931.472-1.416.638-1.48 1.008-.447M13.1 28.834a10.034 10.034 0 0 1 3.316 2.985c.65 1.033 1.122 1.109 1.722.255a1.984 1.984 0 0 1 .51-.574 8.311 8.311 0 0 1 1.428 2.64 11.373 11.373 0 0 1 .587 3.52 3.444 3.444 0 0 1-.408 1.976 7.6 7.6 0 0 1-3.469 3.928c-.918.447-.969.421-.969-.433 0-.625-.052-.791-.319-1.046l-.306-.293-1.084.535c-2.015.982-5.688 1.9-5.688 1.429a12.024 12.024 0 0 1 2.767-2.334 18.268 18.268 0 0 1 2.3-1.135c1.454-.587 1.734-.855 1.479-1.429-.153-.331-.561-.471-2.142-.714a87.093 87.093 0 0 0-1.607-.28 2.709 2.709 0 0 0-1.594.114 19.077 19.077 0 0 1-1.875.421 8.821 8.821 0 0 1-3.3-.115c-.089-.089.038-.318.421-.726 1.339-1.429 1.4-1.8.408-2.411-1.566-.947-1.847-1.135-1.745-1.237a5.468 5.468 0 0 1 1.314-.178c1.543-.1 1.785-.217 1.785-.817a4.7 4.7 0 0 0-.242-1.16 2.756 2.756 0 0 1-.191-.791c.165-.28 3.048 1.25 4.31 2.3.51.408.74.484 2.564.854 2 .408 2.27.408 2.537 0 .294-.446.166-.752-.51-1.262a7.241 7.241 0 0 1-1.989-2.525c-.574-1.135-.753-1.582-.651-1.684s.1-.115.638.191M35.67 30a7.7 7.7 0 0 1-2.155 2.844c-.651.548-.8 1.046-.434 1.416a2.059 2.059 0 0 0 1.556.063c.2-.063.714-.178 1.135-.268a6.2 6.2 0 0 0 3.137-1.355 20.617 20.617 0 0 1 2.028-1.225c.319-.14.74-.331.944-.433a.93.93 0 0 1 .459-.115 1.9 1.9 0 0 1-.14.931c-.46 1.594-.345 1.734 1.479 1.862a6.365 6.365 0 0 1 1.377.191c.1.1-.79.753-1.645 1.2-.574.293-.854.676-.765 1.007a4.368 4.368 0 0 0 .8 1.11 4.516 4.516 0 0 1 .74.956c0 .523-3.137.383-5.356-.242a2.626 2.626 0 0 0-1.531-.064c-.42.077-1.045.192-1.4.255-1.99.358-2.117.4-2.232.715-.2.51.038.892.727 1.135a16.252 16.252 0 0 1 4.438 2.41 5.4 5.4 0 0 1 1.339 1.377c0 .153-.459.115-1.531-.089a13.487 13.487 0 0 1-4.132-1.365c-.879-.446-1.045-.484-1.3-.357-.357.192-.459.574-.357 1.327.1.727-.039.752-1.1.191a8.564 8.564 0 0 1-3.392-3.813c-.345-.651-.37-.791-.358-2.1a9.077 9.077 0 0 1 .587-3.508 12.54 12.54 0 0 1 1.224-2.461c.179-.2.217-.178.625.421.345.523.5.638.8.638s.459-.128.892-.766a12.231 12.231 0 0 1 1.148-1.39c1.02-1.02 2.615-2.027 2.857-1.8A3.367 3.367 0 0 1 35.67 30"/>
        </g>
    </g>
</svg>
