<svg xmlns="http://www.w3.org/2000/svg" width="56" height="56" viewBox="0 0 56 56">
    <defs>
        <clipPath id="e7g0w9rpma">
            <path data-name="사각형 26774" style="fill:none" d="M0 0h46.865v45.309H0z"/>
        </clipPath>
    </defs>
    <g data-name="그룹 128979">
        <g data-name="그룹 128978" style="clip-path:url(#e7g0w9rpma)" transform="translate(5 5.001)">
            <path data-name="패스 72001" d="M40.861 10.837a5.7 5.7 0 0 1 3.966 4 13.021 13.021 0 0 1 .383 1.85 16.874 16.874 0 0 1-1.964 9.284 30.841 30.841 0 0 1-20.1 16.655c-.765.2-3.15.638-4.655.855a56.5 56.5 0 0 1-9.055-.064 24.692 24.692 0 0 1-6.006-1.53c-.587-.255-.383-.306 1.67-.383a35.74 35.74 0 0 0 10.075-1.926 29.484 29.484 0 0 0 10.56-6.81c2.755-3.009 3.877-5.445 5.764-12.383 1.416-5.216 1.913-6.313 3.571-7.881a8.685 8.685 0 0 1 3-1.62 6.476 6.476 0 0 1 2.793-.051" style="fill:#93e5c2"/>
            <path data-name="패스 72002" d="M45.274.073c0 .051-.179.179-.409.281a12.282 12.282 0 0 0-2.639 2.5 7.631 7.631 0 0 0-.931 2.168c-.039.216-.179.267-.868.331a6.424 6.424 0 0 0-3.6 1.416 3.7 3.7 0 0 0-1.365 2.882c.039.523-.063.791-.293.791a12.127 12.127 0 0 0-1.824 1.466 11.794 11.794 0 0 0-1.555 2.474 15.7 15.7 0 0 0-1.2 3.291c-.064.229-.166.612-.23.829s-.242.88-.4 1.441-.319 1.186-.383 1.4c-.153.523-.357 1.25-.5 1.748-.179.663-.778 2.423-.969 2.844-.09.2-.268.637-.4.956a15.683 15.683 0 0 1-1.808 3.19 4.766 4.766 0 0 0-.408.51 26.451 26.451 0 0 1-2.921 2.934c-.319.242-.6.472-.638.51a30.738 30.738 0 0 1-6.633 3.826c-.242.076-.561.2-.7.255a20.164 20.164 0 0 1-3 .9 37.636 37.636 0 0 1-8.928 1.008c-2.091 0-2.257.012-2.461.255a1.3 1.3 0 0 0-.217.7c0 .995 1.977 2.245 4.719 3 .319.089.714.2.893.255s.663.166 1.084.255.994.2 1.275.255a47.486 47.486 0 0 0 6.5.561 49.431 49.431 0 0 0 6.568-.573c.994-.192 2.933-.625 3.379-.766a20.236 20.236 0 0 0 2.959-1.045.4.4 0 0 1 .268-.09 32.717 32.717 0 0 0 4.425-2.206 32.675 32.675 0 0 0 9.141-8.325c.766-1.007 1.8-2.537 2.156-3.162.14-.255.369-.664.51-.906a22.161 22.161 0 0 0 1.594-3.316 21.941 21.941 0 0 0 .893-2.678c.765-2.818.65-6.708-.243-8.481a2.017 2.017 0 0 1-.2-.561 1.22 1.22 0 0 0-.255-.459 1.05 1.05 0 0 1-.127-1.16 7.3 7.3 0 0 0-.039-2.921 4.836 4.836 0 0 0-2.27-2.7c-1.1-.485.255-2.857 2.411-4.26.841-.536.994-.816.752-1.326-.115-.243-.268-.332-.638-.357-.255-.026-.471 0-.471.063M41.83 7.037a3.363 3.363 0 0 1 2.36 2.793c.089.586-.09.7-.574.357A8.029 8.029 0 0 0 37.4 9.37c-.485.09-.5.026-.23-.637.536-1.276 3.15-2.232 4.655-1.7m-.969 3.8a5.7 5.7 0 0 1 3.966 4 13.021 13.021 0 0 1 .383 1.85 16.874 16.874 0 0 1-1.964 9.284 30.841 30.841 0 0 1-20.1 16.655c-.765.2-3.15.638-4.655.855a56.5 56.5 0 0 1-9.055-.064 24.692 24.692 0 0 1-6.006-1.53c-.587-.255-.383-.306 1.67-.383a35.74 35.74 0 0 0 10.075-1.926 29.484 29.484 0 0 0 10.56-6.81c2.755-3.009 3.877-5.445 5.764-12.383 1.416-5.216 1.913-6.313 3.571-7.881a8.685 8.685 0 0 1 3-1.62 6.476 6.476 0 0 1 2.793-.051"/>
            <path data-name="패스 72003" d="M42.06 16.015c-.332.089-.383.37-.434 2.079a13.856 13.856 0 0 1-1.2 5.433 22.946 22.946 0 0 1-1.286 2.563 32.964 32.964 0 0 1-8.8 9.743A26.719 26.719 0 0 1 23.3 39.4c-1.556.5-1.874.791-1.619 1.467.216.574.586.612 1.849.2a29.877 29.877 0 0 0 9.182-4.923 48.9 48.9 0 0 0 4.464-4.374l1.02-1.3c3.15-3.953 5.165-8.825 5.165-12.434 0-1.263-.166-1.837-.6-2a.84.84 0 0 0-.7-.025"/>
        </g>
    </g>
</svg>
