<svg xmlns="http://www.w3.org/2000/svg" width="56" height="56" viewBox="0 0 56 56">
    <defs>
        <clipPath id="gmsqpt1mwa">
            <path data-name="사각형 26759" style="fill:none" d="M0 0h52.032v39.775H0z"/>
        </clipPath>
    </defs>
    <g data-name="그룹 128948">
        <g data-name="그룹 128947" style="clip-path:url(#gmsqpt1mwa)" transform="translate(2 8)">
            <path data-name="패스 71906" d="M36.295 34.623A2.43 2.43 0 0 1 38 36.651c0 1.326-1.951 2.053-3.443 1.288a2.539 2.539 0 0 1-1.4-1.824c0-1.3 1.683-2.1 3.137-1.492" style="fill:#93e5c2"/>
            <path data-name="패스 71907" d="M46.949 26.765a2.988 2.988 0 0 1 1.671 1.569 2.288 2.288 0 0 1 .038.739l-.038.421-.931.038a3.847 3.847 0 0 0-1.747.421c-.944.447-.944.447-1.174.153-1.071-1.313-1.211-2.155-.51-2.869a2.323 2.323 0 0 1 2.691-.472" style="fill:#93e5c2"/>
            <path data-name="패스 71908" d="M48.824 31.241c2.015.612 1.938 2.844-.128 3.545a2.508 2.508 0 0 1-3.137-1.186.991.991 0 0 1-.025-.994 2.845 2.845 0 0 1 3.29-1.365" style="fill:#93e5c2"/>
            <path data-name="패스 71909" d="M18.734 1.952c.179.051.548.166.829.242 1.224.332 8.749 2.462 9.5 2.678 1.416.409 2.959.842 4.081 1.161.319.089.714.2.893.255s.548.166.829.242c2.639.727 4.221 1.2 4.3 1.263a4.246 4.246 0 0 1-1.211.867c-1.237.74-6.058 3.647-9.769 5.9A12.87 12.87 0 0 1 26.3 15.6a24.467 24.467 0 0 1-2.972-.893c-.6-.191-1.862-.6-2.806-.893s-2.04-.637-2.423-.765-1.479-.472-2.423-.765-2.206-.7-2.805-.893-1.862-.6-2.806-.892C6.874 9.5 5.917 9.2 4.82 8.826a9.224 9.224 0 0 0-1.313-.37c-.293 0-.255-.191.089-.357.446-.217 2.538-1.173 2.576-1.173s.549-.23 1.174-.51 1.237-.574 1.377-.638.765-.344 1.377-.638 1.148-.51 1.173-.51.549-.229 1.174-.523 1.3-.586 1.505-.688.676-.294 1.02-.447c3.022-1.364 2.844-1.326 3.762-1.02" style="fill:#93e5c2"/>
            <path data-name="패스 71910" d="M40.542 16.287v7.065l-1.428.816c-1.212.7-3.495 2.015-5.012 2.908-.2.128-1.276.74-2.36 1.365s-2.486 1.441-3.1 1.811a7.923 7.923 0 0 1-1.288.65c-.216 0-.127-13.633.09-13.863.089-.076 1.479-.943 3.086-1.913 3.481-2.1 8.315-5.037 9.118-5.534a2.882 2.882 0 0 1 .74-.357c.115-.013.153 1.479.153 7.052" style="fill:#93e5c2"/>
            <path data-name="패스 71911" d="M3.431 10.14c.663.217 1.7.548 2.3.74s1.861.6 2.8.892 2.041.638 2.423.766 1.48.471 2.423.765 2.207.7 2.806.892 1.862.6 2.806.893 2.206.7 2.805.88 1.709.549 2.462.791l1.377.433-.076 7.142c-.051 3.928-.115 7.167-.141 7.193s-.153-.038-.268-.14c-.28-.23-.471-.306-5.9-2.27l-1.977-.727c-.277-.102-.65-.243-.829-.294s-.982-.344-1.785-.637-1.926-.689-2.487-.893l-2.1-.765c-.6-.217-1.339-.485-1.658-.587s-.689-.242-.829-.306c-.434-.179-1.607-.6-4.655-1.683a6.7 6.7 0 0 1-1.237-.51c-.128-.1-.166-1.569-.166-6.543 0-3.52.038-6.44.089-6.478a.434.434 0 0 1 .345-.013c.153.038.816.255 1.479.459" style="fill:#93e5c2"/>
            <path data-name="패스 71912" d="M20.238 4.341a5.738 5.738 0 0 1 2.7 4.566c0 .714-.153.778-.421.191-.345-.74-.8-1.8-.982-2.257-.319-.817-.51-1.021-.944-1.021-1.084 0-.969.88.459 3.686a7.852 7.852 0 0 1 .561 1.263c-.127.114-1.033-.447-1.568-.982a3.742 3.742 0 0 1-1.212-3.048 12 12 0 0 1 .153-1.913c.191-.919.306-.97 1.25-.485" style="fill:#fff"/>
            <path data-name="패스 71913" d="M28.272 8.434a1.449 1.449 0 0 1-.408 1.1c-.37.5-1.186 1.084-1.326.943-.026-.025.063-.216.216-.42a1.428 1.428 0 0 0 .268-.638 1.251 1.251 0 0 0-.79-.791 3.022 3.022 0 0 0-.732.572c-.536.51-.906.714-.906.51a2.86 2.86 0 0 1 .714-1.237 2.753 2.753 0 0 1 2.097-.573l.829.026z" style="fill:#fff"/>
            <path data-name="패스 71914" d="M16.961.253c-.242.128-.79.383-1.211.574a93.11 93.11 0 0 0-2.653 1.186c-.625.294-1.148.523-1.173.523s-.549.23-1.174.51-1.237.574-1.377.638-.765.344-1.373.638-1.148.51-1.173.51-.549.229-1.174.523-1.288.586-1.505.688-.727.319-1.147.51S2 7 1.721 7.127s-.778.345-1.109.51L0 7.918v15.737l.382.23a4.581 4.581 0 0 0 .74.331c.191.051.829.294 1.428.511s1.225.446 1.4.51.8.28 1.4.51 1.339.484 1.658.586.689.243.829.306.51.2.829.307 1.058.369 1.658.586 1.224.447 1.4.51.8.281 1.4.51c1.671.613 2.436.893 3.061 1.1.319.1.689.242.829.306s.51.2.829.306 1.058.37 1.658.587 1.224.446 1.4.51.8.293 1.4.51 1.224.447 1.4.51.8.294 1.4.51 1.148.409 1.212.421a4.8 4.8 0 0 0 .956-.484c.778-.447 1.008-.587 2.079-1.2.217-.128.727-.421 1.109-.651s.893-.522 1.123-.65c.586-.344 1.045-.612 2.831-1.645s2.244-1.3 2.844-1.645c.217-.128.727-.421 1.109-.651.676-.4 1.3-.765 1.85-1.071 1.351-.765 1.747-1.033 1.849-1.224.089-.166.191-14 .127-16.8 0-.255-.535-.676-.841-.676a1.91 1.91 0 0 1-.587-.115 13.376 13.376 0 0 0-.867-.267c-.638-.179-1.3-.37-1.786-.511l-.892-.255c-.319-.089-.715-.2-.893-.255s-.574-.165-.893-.255-.714-.2-.893-.255-.548-.166-.829-.242-1.339-.37-2.359-.65l-2.359-.651c-.281-.076-.651-.191-.829-.242s-.574-.166-.893-.255-.714-.2-.893-.255c-.446-.128-1.122-.319-1.785-.51-.319-.09-.714-.2-.893-.256l-.892-.255c-.319-.089-.715-.2-.893-.255s-.574-.165-.893-.255-.714-.2-.893-.255-.573-.166-.892-.255A4.174 4.174 0 0 1 18.466.1a1.844 1.844 0 0 0-1.5.153M18.747 1.9c.178.051.548.165.829.242 1.224.331 8.748 2.461 9.5 2.678 1.415.408 2.958.842 4.081 1.161.318.089.714.2.892.255s.549.165.829.242c2.64.727 4.222 1.2 4.3 1.262a4.234 4.234 0 0 1-1.212.868c-1.237.739-6.057 3.647-9.768 5.9a12.855 12.855 0 0 1-1.888 1.033 24.574 24.574 0 0 1-2.971-.892c-.6-.192-1.862-.6-2.806-.893s-2.04-.638-2.423-.765-1.479-.472-2.423-.765-2.206-.7-2.806-.893-1.862-.6-2.805-.893c-3.189-.995-4.145-1.3-5.242-1.671A9.2 9.2 0 0 0 3.52 8.4c-.294 0-.256-.192.089-.357.446-.217 2.538-1.174 2.576-1.174s.548-.229 1.173-.51 1.242-.571 1.378-.635.765-.344 1.377-.637 1.148-.51 1.173-.51.548-.23 1.173-.523 1.3-.587 1.505-.689.676-.293 1.021-.446c3.022-1.365 2.843-1.327 3.762-1.02m21.807 14.334V23.3l-1.428.816c-1.212.7-3.494 2.015-5.012 2.908-.2.128-1.275.74-2.359 1.365s-2.487 1.441-3.1 1.811a8.01 8.01 0 0 1-1.288.65c-.217 0-.128-13.633.089-13.863.089-.076 1.479-.943 3.086-1.913 3.482-2.1 8.315-5.037 9.119-5.534a2.865 2.865 0 0 1 .739-.357c.115-.013.153 1.479.153 7.052m-37.11-6.149c.663.217 1.7.548 2.3.74s1.861.6 2.8.892 2.041.638 2.423.766 1.48.471 2.423.765 2.207.7 2.806.892 1.862.6 2.806.893 2.206.7 2.8.88 1.709.549 2.462.791l1.377.433-.07 7.142c-.051 3.928-.115 7.167-.141 7.193s-.153-.038-.268-.14c-.28-.23-.471-.306-5.9-2.27l-1.977-.727c-.277-.102-.65-.243-.829-.294s-.982-.344-1.785-.637-1.926-.689-2.487-.893l-2.1-.765c-.6-.217-1.339-.485-1.658-.587s-.689-.242-.829-.306c-.434-.179-1.607-.6-4.655-1.683a6.7 6.7 0 0 1-1.237-.51c-.128-.1-.166-1.569-.166-6.543 0-3.52.038-6.44.089-6.478a.434.434 0 0 1 .345-.013c.153.038.816.255 1.479.459"/>
            <path data-name="패스 71915" d="M17.752 2.435a3.649 3.649 0 0 0-.191 1.058 25.784 25.784 0 0 1-.23 1.85 6.755 6.755 0 0 0 .4 3.9 6.124 6.124 0 0 0 5.382 3.494 12.789 12.789 0 0 0 4.438-.829 6.034 6.034 0 0 0 2.1-2.18c.42-.995.255-3.227-.255-3.406a18.555 18.555 0 0 0-1.913.039 4.837 4.837 0 0 0-2.449.421c-.752.382-.8.395-.8.2a9.022 9.022 0 0 0-1.34-2.436 5.917 5.917 0 0 0-2.869-1.964c-.995-.332-2.066-.408-2.27-.153m2.5 1.938a5.738 5.738 0 0 1 2.7 4.566c0 .714-.153.778-.421.191-.344-.74-.8-1.8-.982-2.257-.318-.816-.51-1.02-.943-1.02-1.084 0-.97.88.459 3.685a8.069 8.069 0 0 1 .561 1.263c-.128.115-1.033-.447-1.569-.982a3.745 3.745 0 0 1-1.211-3.048A12.015 12.015 0 0 1 19 4.858c.191-.918.306-.969 1.25-.485m8.034 4.094a1.449 1.449 0 0 1-.408 1.1c-.37.5-1.186 1.084-1.326.943-.026-.025.063-.216.216-.42a1.428 1.428 0 0 0 .268-.638 1.251 1.251 0 0 0-.79-.791 3.022 3.022 0 0 0-.727.574c-.536.51-.906.714-.906.51a2.86 2.86 0 0 1 .714-1.237 2.753 2.753 0 0 1 2.092-.574l.829.026z"/>
            <path data-name="패스 71916" d="M44.763 25.135a5.534 5.534 0 0 0-1.364.7 3.43 3.43 0 0 0-.765.905 2.354 2.354 0 0 0-.358 1.556c0 1.071.179 1.454 1.3 2.844.536.663.574.752.447 1.058a3.031 3.031 0 0 0 .114 2.156 4.154 4.154 0 0 0 1.952 1.8 5.024 5.024 0 0 0 3.558 0 4.048 4.048 0 0 0 1.953-1.722c.115-.255.255-.561.319-.676a2.871 2.871 0 0 0 0-1.607 8.505 8.505 0 0 1-.281-.586 4.749 4.749 0 0 0-.778-.995l-.612-.625v-1.02a3.1 3.1 0 0 0-1.237-2.767 4.635 4.635 0 0 0-3.1-1.156 3.976 3.976 0 0 0-1.148.14m2.219 1.633a2.987 2.987 0 0 1 1.671 1.568 2.269 2.269 0 0 1 .038.74l-.038.421-.931.038a3.85 3.85 0 0 0-1.747.421c-.944.446-.944.446-1.173.153-1.072-1.314-1.212-2.155-.511-2.869a2.324 2.324 0 0 1 2.691-.472m1.875 4.476c2.015.612 1.938 2.844-.128 3.545a2.508 2.508 0 0 1-3.137-1.194.991.991 0 0 1-.025-.994 2.845 2.845 0 0 1 3.29-1.365"/>
            <path data-name="패스 71917" d="M45.694 27.851a.824.824 0 0 0 .026 1.314c.6.28 1.058.191 1.275-.23a1.813 1.813 0 0 0 .191-.536c-.013-.561-.982-.905-1.492-.548"/>
            <path data-name="패스 71918" d="M34.5 32.876a3.42 3.42 0 0 0-2.5 1.658 2.122 2.122 0 0 0-.37 1.492 2.7 2.7 0 0 0 .281 1.454 4.171 4.171 0 0 0 1.951 1.913 3.505 3.505 0 0 0 2.028.382 3.358 3.358 0 0 0 2.844-1.007 2.641 2.641 0 0 0 .8-2.13 3.367 3.367 0 0 0-1.645-2.971 4.736 4.736 0 0 0-3.392-.791m1.8 1.747A2.43 2.43 0 0 1 38 36.651c0 1.326-1.951 2.053-3.443 1.288a2.539 2.539 0 0 1-1.4-1.824c0-1.3 1.683-2.1 3.137-1.492"/>
            <path data-name="패스 71919" d="M35.02 35.707a.73.73 0 0 0 .038 1.25c.485.344.791.331 1.135-.026a.729.729 0 0 0-.127-1.237c-.523-.319-.625-.319-1.046.013"/>
        </g>
    </g>
</svg>
