<svg xmlns="http://www.w3.org/2000/svg" width="56" height="56" viewBox="0 0 56 56">
    <defs>
        <clipPath id="1tbbqwi35a">
            <path data-name="사각형 26778" style="fill:none" d="M0 0h46.996v46.93H0z"/>
        </clipPath>
    </defs>
    <g data-name="그룹 128987">
        <g data-name="그룹 128986" style="clip-path:url(#1tbbqwi35a)" transform="translate(5 5)">
            <path data-name="패스 72022" d="M24.368 10.98a17.856 17.856 0 0 1 6.211 3.851 20.059 20.059 0 0 1 3.52 4.158c2.614 3.979 2.78 5.917.688 8.06a52.168 52.168 0 0 1-6.606 4.68 37.888 37.888 0 0 1-3.788 2.321c-.051 0-.178-.191-.28-.421a13.054 13.054 0 0 0-2.589-3.354c-1.709-1.658-2.219-1.862-2.716-1.122-.319.5-.153.8.867 1.632a12.561 12.561 0 0 1 2.818 3.315 4.322 4.322 0 0 1 .332.816c0 .064-.242.268-.536.447s-1.262.714-2.117 1.211-1.594.919-1.619.919a8.08 8.08 0 0 0-.791.433C15.989 38.96 8.35 42.85 6.118 43.857c-.522.243-1.237.561-1.594.727-1.454.651-2.754.982-2.907.714a10.566 10.566 0 0 1 .854-2.627c.179-.4.332-.752.332-.778 0-.1.752-1.721 1.555-3.354a57.779 57.779 0 0 1 3.724-6.325c.306-.2 1.314.421 2.564 1.607a5.783 5.783 0 0 0 1.428 1.122c.268 0 .931-.574.931-.8a7.373 7.373 0 0 0-1.76-2.079A14.627 14.627 0 0 0 9.8 31.041a5.525 5.525 0 0 1-.752-.523c0-.141 6.9-11.784 7.154-12.077.153-.166 1.212.331 2.538 1.186a17.092 17.092 0 0 1 2.525 2.142c1.479 1.492 1.734 1.632 2.245 1.25.357-.268.306-.855-.115-1.365a16.9 16.9 0 0 0-5.5-4.4 2.415 2.415 0 0 1-.688-.383c0-.038.293-.548.637-1.135 2.079-3.443 3.7-5.025 5.178-5.025a5.256 5.256 0 0 1 1.339.268" style="fill:#93e5c2"/>
            <path data-name="패스 72023" d="M35.667.28a5.457 5.457 0 0 0-.344 1.378C34.966 4 34.2 6.835 33.792 7.307c-.089.115-.242-.229-.522-1.186a16.645 16.645 0 0 0-2.717-5.012.768.768 0 0 0-1.224.587 4.207 4.207 0 0 0 .638 1.16 18.627 18.627 0 0 1 1.772 3.52c.077.242.23.727.332 1.059a8.1 8.1 0 0 1 .37 2.691 18.666 18.666 0 0 1-1.518 2.308c-.229.293-.14.331-1.8-.816A19.836 19.836 0 0 0 24.7 9.437a4.435 4.435 0 0 0-1.85-.23 4.7 4.7 0 0 0-3.405 1.7 22.513 22.513 0 0 0-2.754 3.622 7.2 7.2 0 0 1-.408.689c-.115.179-.319.523-.46.752s-1.913 3.2-3.953 6.594-3.711 6.2-3.711 6.223a1.406 1.406 0 0 1-.242.4c-.128.191-.358.561-.511.816s-.395.7-.535.956-.383.638-.51.829a1.394 1.394 0 0 0-.243.4c0 .025-.561.994-1.249 2.142a51.582 51.582 0 0 0-4.451 9.349c-.1.344-.243.765-.306.931A2.226 2.226 0 0 0 .2 46.242c.625.931 2.449.918 4.642-.051 1.786-.778 8.914-4.285 10.968-5.394 2.41-1.288 3.673-1.977 4.4-2.411.217-.127.638-.37.957-.535 1.122-.625 1.594-.893 1.722-1 .076-.051.344-.217.612-.37 1.938-1.084 3.226-1.9 7.792-4.91 4.31-2.844 5.037-3.469 5.956-5.229a3.242 3.242 0 0 0 .535-2.168 5.365 5.365 0 0 0-.306-2.053 21.606 21.606 0 0 0-2.423-4.6 14.808 14.808 0 0 1-.88-1.377 7.854 7.854 0 0 1 1.505-.077 13.093 13.093 0 0 1 4.9.88 5.61 5.61 0 0 0 .855.268c.229 0 .65-.548.65-.841s-.587-.817-.918-.817a.623.623 0 0 1-.306-.1 2.526 2.526 0 0 0-.689-.267 42.7 42.7 0 0 0-.893-.268 13.542 13.542 0 0 0-4.042-.37c-1.837.051-1.939.038-1.722-.166a25.666 25.666 0 0 1 4.719-2.614c.51-.217.752-.255.994-.166a1.979 1.979 0 0 0 .651.127 6.928 6.928 0 0 1 2.946 1.633 9.692 9.692 0 0 0 3.045 1.784.633.633 0 0 0 .739-.115c.345-.28.434-.879.166-1.1a6.54 6.54 0 0 0-.867-.408 7.817 7.817 0 0 1-1.492-.88c-.434-.332-1.161-.88-1.62-1.237-.535-.4-.791-.676-.714-.753a10.734 10.734 0 0 1 3.124-.433 8.3 8.3 0 0 0 1.544-.192 1 1 0 0 0 .178-1.045l-.128-.341-1.633.077a53.88 53.88 0 0 0-2.346.153 3.027 3.027 0 0 1-.74.025c0-.025.153-.37.332-.752a7.245 7.245 0 0 0 .51-1.582 14.445 14.445 0 0 0 .051-4.106.789.789 0 0 0-1.084-.523l-.319.14v1.939a7.585 7.585 0 0 1-.271 2.754 6.2 6.2 0 0 1-3.877 3.686 25.891 25.891 0 0 0-4.2 2.245 2.35 2.35 0 0 1-.778.408 5.913 5.913 0 0 1 .715-1.237 27.353 27.353 0 0 0 2.41-4.859c.089-.243.2-.561.255-.7a4.945 4.945 0 0 0 .191-.574c.039-.178.153-.612.243-.956s.242-1.007.318-1.467.217-1.109.281-1.441C37.121.548 36.93 0 36.241 0a.6.6 0 0 0-.574.28m-11.3 10.7a17.856 17.856 0 0 1 6.211 3.851 20.059 20.059 0 0 1 3.52 4.158c2.614 3.979 2.78 5.917.688 8.06a52.168 52.168 0 0 1-6.606 4.68 37.888 37.888 0 0 1-3.788 2.321c-.051 0-.178-.191-.28-.421a13.054 13.054 0 0 0-2.589-3.354c-1.709-1.658-2.219-1.862-2.716-1.122-.319.5-.153.8.867 1.632a12.561 12.561 0 0 1 2.819 3.315 4.322 4.322 0 0 1 .332.816c0 .064-.242.268-.536.447s-1.262.714-2.117 1.211-1.594.919-1.619.919a8.08 8.08 0 0 0-.791.433C15.989 38.96 8.35 42.85 6.118 43.857c-.522.243-1.237.561-1.594.727-1.454.651-2.754.982-2.907.714a10.566 10.566 0 0 1 .854-2.627c.179-.4.332-.752.332-.778 0-.1.752-1.721 1.555-3.354a57.779 57.779 0 0 1 3.724-6.325c.306-.2 1.314.421 2.564 1.607a5.783 5.783 0 0 0 1.428 1.122c.268 0 .931-.574.931-.8a7.373 7.373 0 0 0-1.76-2.079A14.627 14.627 0 0 0 9.8 31.041a5.525 5.525 0 0 1-.752-.523c0-.141 6.9-11.784 7.154-12.077.153-.166 1.212.331 2.538 1.186a17.092 17.092 0 0 1 2.525 2.142c1.479 1.492 1.734 1.632 2.245 1.25.357-.268.306-.855-.115-1.365a16.9 16.9 0 0 0-5.5-4.4 2.415 2.415 0 0 1-.688-.383c0-.038.293-.548.637-1.135 2.079-3.443 3.7-5.025 5.178-5.025a5.256 5.256 0 0 1 1.339.268"/>
        </g>
    </g>
</svg>
