<svg xmlns="http://www.w3.org/2000/svg" width="56" height="56" viewBox="0 0 56 56">
    <defs>
        <clipPath id="5aukxc8jea">
            <path data-name="사각형 26776" style="fill:none" d="M0 0h39.012v46.831H0z"/>
        </clipPath>
    </defs>
    <g data-name="그룹 128983">
        <g data-name="그룹 128982" style="clip-path:url(#5aukxc8jea)" transform="translate(8 5)">
            <path data-name="패스 72007" d="M14.411 4.681a2.273 2.273 0 0 1-.791.459 25.085 25.085 0 0 0-7.384 5.752c-2.078 2.283-3.532 5.93-3.048 7.664a1.439 1.439 0 0 1 .09.651c-.141.127-.715-.332-1.046-.829a4.549 4.549 0 0 1-.625-1.964 4.354 4.354 0 0 0 .178-.8C2.206 13 5.28 9.247 9.131 6.645a13.8 13.8 0 0 1 3.112-1.556.513.513 0 0 0 .306-.089c.255-.255 1.862-.523 1.862-.319" style="fill:#93e5c2"/>
            <path data-name="패스 72008" d="M19.448 6.122A3.517 3.517 0 0 1 21.386 9.5a6 6 0 0 1-.675 2.282c-1.607 3.4-6.76 7.741-10.381 8.736-.319.089-.7.2-.868.268a5.5 5.5 0 0 1-2.244 0 1.013 1.013 0 0 0-.447-.179A3.147 3.147 0 0 1 5.1 19.028a2.441 2.441 0 0 1-.217-1.492 5.545 5.545 0 0 1 .676-2.563c1.339-2.857 5.5-6.8 8.723-8.277a7.011 7.011 0 0 1 3.418-.829 3.4 3.4 0 0 1 1.747.255" style="fill:#93e5c2"/>
            <path data-name="패스 72009" d="M23.593.141c-.243.059-.676.178-.957.259a10.738 10.738 0 0 0-1.811.625 4.034 4.034 0 0 1-.612.242 15.7 15.7 0 0 0-2.359 1.2L16.77 3.1l-1.76-.039a10.138 10.138 0 0 0-2.1.09c-.192.063-.6.2-.919.293C8.264 4.5 2.907 9.106 1.033 12.83A8.126 8.126 0 0 0 0 16.618a5.272 5.272 0 0 0 .114 1.326c.064.115.243.5.408.829A5.486 5.486 0 0 0 2.7 20.865a6.624 6.624 0 0 0 1.352.4 3.864 3.864 0 0 1 1.148.37 6.078 6.078 0 0 0 1.339.663 12.076 12.076 0 0 0 3.584.013 18.07 18.07 0 0 0 3.239-1.288 22.99 22.99 0 0 0 5.994-4.643 17.467 17.467 0 0 0 2.576-3.3c0-.038.166-.42.37-.867a5.6 5.6 0 0 0 .612-2.92 3.349 3.349 0 0 0-.314-2.176 6.04 6.04 0 0 0-.765-1.25 1.476 1.476 0 0 1-.408-.574c0-.14.574-.536 1.147-.791 1.709-.765 2.271-.548 2.4.893a20.854 20.854 0 0 1-.982 5.5c-.064.2-.319 1.007-.574 1.785a55.483 55.483 0 0 0-1.721 6.058c-.141.6-.319 1.479-.4 1.976s-.191 1.1-.255 1.34a18.373 18.373 0 0 0-.255 1.849c-.076.765-.2 1.823-.268 2.334a56.633 56.633 0 0 0 .013 7.358 26.042 26.042 0 0 0 .918 4.591c1.5 5.318 5.127 8.583 9.6 8.647a19.543 19.543 0 0 0 6.122-1.046c.14-.064.6-.242 1.02-.421.752-.293.765-.319.8-.842.039-.484.013-.548-.318-.675a1.584 1.584 0 0 0-.74-.064c-.2.038-1.212.127-2.219.2-2.972.229-5.675-.166-6.746-.982-.727-.549-1.033-1.556-1.314-4.374a79.371 79.371 0 0 1 .893-15.6c.267-1.454.395-2.079.51-2.577.6-2.678.931-4.387 1.415-7.524.613-3.966.357-7.856-.663-10.011A5.016 5.016 0 0 0 25.047 0a7.4 7.4 0 0 0-1.454.14m3.124 1.7a4.564 4.564 0 0 1 2.143 2.866c.064.243.2 1.186.319 2.092a12.76 12.76 0 0 1-.013 3.89 56.2 56.2 0 0 1-1.11 7.154c-.076.319-.191.854-.255 1.212s-.178.892-.255 1.211c-.127.561-.242 1.186-.523 2.64a80.687 80.687 0 0 0-.969 11.133c-.127 4.579.281 7.9 1.122 9.272a4.048 4.048 0 0 0 1.48 1.313.156.156 0 0 1 .165.141c0 .089-.089.1-.216.051s-.345-.128-.485-.166a2.219 2.219 0 0 1-.6-.306 1.31 1.31 0 0 0-.447-.23 9.244 9.244 0 0 1-2.155-2.078c-1.454-1.926-2.257-4.336-2.857-8.468a56.006 56.006 0 0 1-.012-7.308c.076-.523.191-1.505.267-2.168s.192-1.5.255-1.849.179-1.008.256-1.467.191-1.033.255-1.275.242-.969.382-1.594.319-1.288.383-1.467.229-.752.382-1.275.447-1.441.638-2.041A36.578 36.578 0 0 0 26.4 7.117a5.338 5.338 0 0 0-.32-3.367c-.766-1.683-2.717-1.62-5.42.153l-.829.536-.689-.153a1.847 1.847 0 0 1-.74-.281A12.848 12.848 0 0 1 21.17 2.5c2.117-.931 4.4-1.2 5.547-.663M14.411 4.681a2.285 2.285 0 0 1-.791.459 25.059 25.059 0 0 0-7.384 5.752c-2.079 2.282-3.533 5.93-3.048 7.664a1.447 1.447 0 0 1 .089.651c-.14.127-.714-.332-1.046-.829a4.563 4.563 0 0 1-.625-1.964 4.321 4.321 0 0 0 .179-.8C2.206 13 5.279 9.246 9.131 6.645a13.781 13.781 0 0 1 3.112-1.556.515.515 0 0 0 .306-.089c.255-.255 1.862-.523 1.862-.319m5.037 1.441A3.517 3.517 0 0 1 21.386 9.5a6 6 0 0 1-.675 2.282c-1.607 3.4-6.76 7.741-10.381 8.736-.319.089-.7.2-.868.268a5.5 5.5 0 0 1-2.244 0 1.013 1.013 0 0 0-.447-.179A3.147 3.147 0 0 1 5.1 19.028a2.441 2.441 0 0 1-.217-1.492 5.545 5.545 0 0 1 .676-2.563c1.339-2.857 5.5-6.8 8.723-8.277a7.011 7.011 0 0 1 3.418-.829 3.4 3.4 0 0 1 1.747.255"/>
        </g>
    </g>
</svg>
