<svg xmlns="http://www.w3.org/2000/svg" width="56" height="56" viewBox="0 0 56 56">
    <defs>
        <clipPath id="i9w00pp9ia">
            <path data-name="사각형 26780" style="fill:none" d="M0 0h40.038v34.686H0z"/>
        </clipPath>
    </defs>
    <g data-name="그룹 128991">
        <g data-name="그룹 128990" style="clip-path:url(#i9w00pp9ia)" transform="translate(8 11)">
            <path data-name="패스 72027" d="M20.941 2a9.061 9.061 0 0 1 .191 1.887A15.025 15.025 0 0 0 21.3 5.9a1.893 1.893 0 0 1-.089.829 11.2 11.2 0 0 0-.548 2.959 1.509 1.509 0 0 1-.268 1.059c-.141.178-.305.331-.357.331-.166 0-.4-.625-.4-1.058a10.8 10.8 0 0 0-.88-3.189l-.28-.624.511-.472a1.75 1.75 0 0 0 .522-.664 23.1 23.1 0 0 0-.421-2.384 2.412 2.412 0 0 1-.1-.868A4.7 4.7 0 0 1 20.941 2" style="fill:#93e5c2"/>
            <path data-name="패스 72028" d="M15.444 6.114a2.742 2.742 0 0 1 1.288.6 5.874 5.874 0 0 1 .944 2.168l.089.421-.434-.178A6.992 6.992 0 0 0 14.7 8.7a7.686 7.686 0 0 0-2.372.816 1.352 1.352 0 0 1-.637.242 2.492 2.492 0 0 1-.447-.931 8.839 8.839 0 0 0-.8-1.632c-.281-.421-.459-.8-.4-.867.523-.523 3.775-.651 5.4-.217" style="fill:#93e5c2"/>
            <path data-name="패스 72029" d="M28.822 5.961c.242.064.6.153.8.191.46.1.434.255-.1.727a4.881 4.881 0 0 0-1.21 2.321.559.559 0 0 1-.115.4 2.093 2.093 0 0 1-.854-.294 4.858 4.858 0 0 0-3.38-.484c-.523.1-1.071.229-1.224.28-.255.077-.294.051-.294-.229a8.876 8.876 0 0 1 .485-2.015c.14-.357.523-.549 1.684-.816a16.688 16.688 0 0 1 4.208-.077" style="fill:#93e5c2"/>
            <path data-name="패스 72030" d="M8.889 7.912a5.854 5.854 0 0 1 1.122 2.525l.2.791-.5 1.16A23.069 23.069 0 0 0 8.2 21.915a37.711 37.711 0 0 0 .74 6.823c.077.421.153.969.166 1.211.013.383-.026.447-.421.561a4.461 4.461 0 0 1-2.423-.433c-1.569-.816-3.01-2.9-3.826-5.51a17.7 17.7 0 0 1-.714-7.243 15.334 15.334 0 0 1 .765-4.017c1.071-3.176 2.946-5.37 4.846-5.688.982-.166 1.148-.128 1.556.293" style="fill:#93e5c2"/>
            <path data-name="패스 72031" d="M33.732 7.963c1.467.689 3.035 2.882 3.864 5.369a18.868 18.868 0 0 1-.025 11.478 9.8 9.8 0 0 1-3.66 5.229 4.675 4.675 0 0 1-2.564.471c-.484-.14-.5-.293-.242-1.645a33.321 33.321 0 0 0 .74-6.886c.114-4.362-.4-7.435-1.633-9.922a3.615 3.615 0 0 1 .459-3.957 1.974 1.974 0 0 1 .629-.4 3.34 3.34 0 0 1 2.436.268" style="fill:#93e5c2"/>
            <path data-name="패스 72032" d="M16.86 10.743a7.228 7.228 0 0 1 2.3 1.989 10.375 10.375 0 0 1 .611 2.934 73.885 73.885 0 0 1 .14 9.054c-.281 3.673-.56 5.777-.841 6.2a6.71 6.71 0 0 1-2.16 1.86 2.587 2.587 0 0 1-1.784.332 3.584 3.584 0 0 1-1.671-.357 7.057 7.057 0 0 1-2.512-2.487c-.039-.217-.153-.816-.268-1.339s-.255-1.39-.332-1.913-.217-1.326-.293-1.786a50.29 50.29 0 0 1 .013-7.843c.089-.421.216-1.084.293-1.466a20.8 20.8 0 0 1 1.058-3.321 5.931 5.931 0 0 1 2.143-1.849 4.414 4.414 0 0 1 3.3-.013" style="fill:#93e5c2"/>
            <path data-name="패스 72033" d="M26.233 10.59c1.773.778 2.7 2.04 3.329 4.566a19.348 19.348 0 0 1 .6 3.838 18.223 18.223 0 0 1-.013 4.336c-.1 1.288-.242 2.691-.306 3.112a45.488 45.488 0 0 1-.51 2.869 13.78 13.78 0 0 0-.2.982 6.637 6.637 0 0 1-2.64 2.513 4.2 4.2 0 0 1-4.859-1.148c-.74-.74-.74-.752-.65-1.326a58.232 58.232 0 0 0 .242-16.171c-.1-.651-.23-1.275-.255-1.365-.1-.255 1.428-1.683 2.181-2.04a3.281 3.281 0 0 1 1.67-.306 5.191 5.191 0 0 1 1.416.14" style="fill:#93e5c2"/>
            <path data-name="패스 72034" d="M17.268.286c-.217.344-.217.395.076 1.8.051.28.166.829.242 1.211s.166.829.217.982c.051.2-.013.332-.268.5-.318.2-.382.216-.994.012a8.988 8.988 0 0 0-2.7-.523c-2.41-.14-4.527.319-5.624 1.238a3.235 3.235 0 0 1-1.071.471C4.119 6.7 1.977 9.276.65 13.817c-.063.2-.178.777-.267 1.275s-.2 1.1-.268 1.352a29.95 29.95 0 0 0 0 5.241 8.408 8.408 0 0 1 .268 1.25 14.607 14.607 0 0 0 .4 1.671 4.487 4.487 0 0 1 .242.867A21.869 21.869 0 0 0 2.9 29.158a7.1 7.1 0 0 0 3.43 2.691 3.618 3.618 0 0 0 1.85.23 13.656 13.656 0 0 0 1.466-.153c.345-.077.434-.026.842.472a8.347 8.347 0 0 0 2.665 1.964 6.85 6.85 0 0 0 4.081.025 7.792 7.792 0 0 0 2.423-1.67l.345-.4.8.74a7.381 7.381 0 0 0 1.747 1.173 3.869 3.869 0 0 0 2.321.434 3.8 3.8 0 0 0 2.372-.459 5.964 5.964 0 0 0 1.913-1.416c.855-.854 1.008-.944 1.3-.867a8.57 8.57 0 0 0 2.895.064 7.9 7.9 0 0 0 4.017-3.112 17.323 17.323 0 0 0 2.3-5.752c.089-.5.2-1.173.268-1.5a30.3 30.3 0 0 0-.013-5.267 21.64 21.64 0 0 0-.778-3.43 11.447 11.447 0 0 0-4.068-6.045 4.942 4.942 0 0 0-2.176-.907 2.789 2.789 0 0 1-.957-.382 5.369 5.369 0 0 0-1.466-.816 9.628 9.628 0 0 0-3.568-.475 13.124 13.124 0 0 0-2.742.2c-1.543.357-1.39.51-1.479-1.48C22.56.477 22.573.49 20.277.222c-2.64-.306-2.754-.306-3.009.064m3.672 1.708a8.965 8.965 0 0 1 .192 1.888A14.79 14.79 0 0 0 21.3 5.9a1.884 1.884 0 0 1-.09.829 11.243 11.243 0 0 0-.548 2.959 1.508 1.508 0 0 1-.268 1.058c-.14.179-.306.332-.357.332-.166 0-.4-.625-.4-1.059a10.822 10.822 0 0 0-.88-3.188l-.278-.631.51-.472a1.742 1.742 0 0 0 .523-.663 23.393 23.393 0 0 0-.421-2.385 2.42 2.42 0 0 1-.1-.867 4.678 4.678 0 0 1 1.951.178m-5.5 4.12a2.732 2.732 0 0 1 1.288.6 5.891 5.891 0 0 1 .944 2.168l.089.421-.434-.179A6.99 6.99 0 0 0 14.7 8.7a7.686 7.686 0 0 0-2.372.816 1.352 1.352 0 0 1-.637.242 2.492 2.492 0 0 1-.447-.931 8.808 8.808 0 0 0-.8-1.632c-.281-.421-.459-.8-.4-.868.523-.522 3.775-.65 5.4-.216m13.378-.153c.242.063.6.153.8.191.459.1.434.255-.1.727a4.876 4.876 0 0 0-1.21 2.324.556.556 0 0 1-.115.4 2.067 2.067 0 0 1-.854-.293 4.853 4.853 0 0 0-3.38-.485c-.523.1-1.071.23-1.224.281-.255.076-.294.051-.294-.23a8.888 8.888 0 0 1 .485-2.015c.14-.357.523-.548 1.683-.816a16.74 16.74 0 0 1 4.209-.076M8.889 7.912a5.866 5.866 0 0 1 1.122 2.525l.2.791-.5 1.16A23.053 23.053 0 0 0 8.2 21.915a37.631 37.631 0 0 0 .74 6.823c.076.42.153.969.166 1.211.012.383-.026.446-.421.561a4.459 4.459 0 0 1-2.423-.433c-1.569-.817-3.01-2.9-3.826-5.51a17.7 17.7 0 0 1-.714-7.243 15.352 15.352 0 0 1 .765-4.018c1.071-3.175 2.946-5.369 4.846-5.687.982-.166 1.148-.128 1.556.293m24.843.051c1.466.689 3.035 2.882 3.864 5.369a18.861 18.861 0 0 1-.026 11.478c-.739 2.282-2.231 4.425-3.66 5.228a4.663 4.663 0 0 1-2.563.472c-.485-.14-.5-.293-.242-1.645a33.257 33.257 0 0 0 .739-6.887c.115-4.361-.4-7.435-1.632-9.921a3.615 3.615 0 0 1 .459-3.957 1.974 1.974 0 0 1 .629-.4 3.341 3.341 0 0 1 2.436.268M16.86 10.743a7.2 7.2 0 0 1 2.3 1.99 10.2 10.2 0 0 1 .612 2.933 73.884 73.884 0 0 1 .14 9.054c-.28 3.673-.561 5.778-.841 6.2a6.7 6.7 0 0 1-2.155 1.862 2.592 2.592 0 0 1-1.786.332 3.584 3.584 0 0 1-1.671-.357 7.074 7.074 0 0 1-2.512-2.487c-.038-.217-.153-.816-.268-1.339s-.255-1.39-.331-1.913-.217-1.326-.294-1.785a50.3 50.3 0 0 1 .013-7.844c.089-.42.217-1.084.293-1.466a20.694 20.694 0 0 1 1.054-3.323 5.935 5.935 0 0 1 2.142-1.849 4.417 4.417 0 0 1 3.3-.013m9.373-.153c1.773.778 2.7 2.04 3.329 4.566a19.348 19.348 0 0 1 .6 3.838 18.223 18.223 0 0 1-.013 4.336c-.1 1.288-.242 2.691-.306 3.112a45.488 45.488 0 0 1-.51 2.869 13.78 13.78 0 0 0-.2.982 6.637 6.637 0 0 1-2.64 2.513 4.2 4.2 0 0 1-4.859-1.148c-.74-.74-.74-.752-.65-1.326a58.232 58.232 0 0 0 .242-16.171c-.1-.651-.23-1.275-.255-1.365-.1-.255 1.428-1.683 2.181-2.04a3.281 3.281 0 0 1 1.67-.306 5.191 5.191 0 0 1 1.416.14"/>
        </g>
    </g>
</svg>
