<svg xmlns="http://www.w3.org/2000/svg" width="56" height="56" viewBox="0 0 56 56">
    <defs>
        <clipPath id="qo38060r5a">
            <path data-name="사각형 26801" style="fill:none" d="M0 0h38.425v38.511H0z"/>
        </clipPath>
    </defs>
    <g data-name="그룹 129033">
        <g data-name="그룹 129032" style="clip-path:url(#qo38060r5a)" transform="translate(9 9)">
            <path data-name="패스 72168" d="M14.118 10.681a11.042 11.042 0 0 0 3.456 1.62 8.382 8.382 0 0 0 3.341.408 7.908 7.908 0 0 0 4.834-1.9 1.456 1.456 0 0 1 1.466-.409 8.6 8.6 0 0 1 5.255 2.36 13.176 13.176 0 0 1 4.285 7.715 12.879 12.879 0 0 1-1.569 8.175A17.569 17.569 0 0 1 25.1 36.162a19.286 19.286 0 0 1-5.165.778 20.621 20.621 0 0 1-7.333-.97 18.786 18.786 0 0 1-3.481-1.594 16.851 16.851 0 0 1-6.185-6.211A12.594 12.594 0 0 1 3 16.471 12 12 0 0 1 8.711 11a9.672 9.672 0 0 1 3.06-.612c.8-.09 1.518-.166 1.582-.179a3.261 3.261 0 0 1 .765.472" style="fill:#93e5c2"/>
            <path data-name="패스 72169" d="M18.02.262c-1.135.638-1.708 1.772-1.836 3.685-.14 2-.23 2.679-.357 2.679a4.246 4.246 0 0 1-.842-.485c-.395-.268-1.007-.65-1.364-.855s-.8-.471-1.021-.6a13.682 13.682 0 0 0-3.724-1.491c-.7-.14-.981-.1-1.339.217-.484.421-.191.956.957 1.709 1.326.88 3.6 3.29 3.328 3.532a4.1 4.1 0 0 1-1.071.243 9.782 9.782 0 0 0-6.517 3.328A14.406 14.406 0 0 0 .8 17.4a12.239 12.239 0 0 0-.8 4.976 12.071 12.071 0 0 0 1.543 6.555 18.154 18.154 0 0 0 5.829 6.223c4.45 2.984 10.1 4.005 16.387 2.959a12.373 12.373 0 0 0 2.168-.549c4.783-1.5 9.157-5.012 11.019-8.812a11.6 11.6 0 0 0 1.071-2.806 11.685 11.685 0 0 0 .408-3.57 12.666 12.666 0 0 0-1.632-6.658 14.6 14.6 0 0 0-6.02-6.006 12.453 12.453 0 0 0-1.555-.549 4.049 4.049 0 0 1-1-.357 26.562 26.562 0 0 1 2.971-2.168c.294-.166.676-.395.855-.51s.688-.408 1.148-.637c1.109-.574 1.147-.613 1.147-1.1a.664.664 0 0 0-.306-.625c-.28-.179-.408-.179-1.186-.013-.472.089-1.084.242-1.339.306s-.676.191-.893.255a26.522 26.522 0 0 0-2.614.918c-.268.1-.408.166-1.211.485-.166.064-.549.23-.868.37a1.831 1.831 0 0 1-.663.2 3.369 3.369 0 0 1 .523-1.059c.625-1.007 1.1-1.849 1.849-3.226.37-.7.383-.752.2-1.084-.255-.459-.714-.51-1.326-.179-.255.153-.676.4-.931.536a17.43 17.43 0 0 0-4.719 3.979c-.357.485-.484.574-.625.459a.664.664 0 0 1-.178-.472 4.073 4.073 0 0 0-.115-.778 18.344 18.344 0 0 1-.268-2.181 12.7 12.7 0 0 0-.284-2.007c-.166-.358-.74-.37-1.365-.013m.192 3.138a22.96 22.96 0 0 0 .663 3.482c.178.663.344 1.339.382 1.492.1.408.345.574.829.523.37-.039.46-.128.842-.868a15.028 15.028 0 0 1 .982-1.594c.753-1.071 2.742-2.907 2.933-2.716a8.258 8.258 0 0 1-.714 1.313c-1.875 3.087-2.117 3.788-1.454 4.222.4.255.625.178 1.518-.51a11.619 11.619 0 0 1 3.379-1.607c.179.012.166.038-.038.191-.14.1-.4.319-.574.472a25.63 25.63 0 0 1-3.647 2.7 6.848 6.848 0 0 1-3.864.587 9.871 9.871 0 0 1-1.148-.268 1.788 1.788 0 0 0-.523-.114 1.71 1.71 0 0 1-.6-.179c-.2-.1-.638-.293-.957-.446a9.3 9.3 0 0 1-1.364-.842c-1.161-.867-2.819-2.87-2.385-2.87.038 0 .74.447 1.568.995 1.96 1.329 2.26 1.469 2.769 1.38s.7-.485.7-1.518c0-.842.243-4.132.319-4.4.128-.37.306-.1.383.574m-4.094 7.282a11.042 11.042 0 0 0 3.456 1.62 8.382 8.382 0 0 0 3.341.408 7.908 7.908 0 0 0 4.834-1.9 1.456 1.456 0 0 1 1.466-.409 8.6 8.6 0 0 1 5.255 2.36 13.176 13.176 0 0 1 4.285 7.715 12.879 12.879 0 0 1-1.569 8.175A17.569 17.569 0 0 1 25.1 36.162a19.286 19.286 0 0 1-5.165.778 20.621 20.621 0 0 1-7.333-.97 18.786 18.786 0 0 1-3.481-1.594 16.851 16.851 0 0 1-6.185-6.211A12.594 12.594 0 0 1 3 16.471 12 12 0 0 1 8.711 11a9.672 9.672 0 0 1 3.06-.612c.8-.09 1.518-.166 1.582-.179a3.261 3.261 0 0 1 .765.472"/>
            <path data-name="패스 72170" d="M32.839 16.649c-.37.255-.357.7.051 1.722a8.1 8.1 0 0 1 .727 4c0 3.188-.918 5.28-3.38 7.754a5.72 5.72 0 0 0-1.122 1.352 1.1 1.1 0 0 0 .842.905 1.918 1.918 0 0 0 .918-.548 12.529 12.529 0 0 0 4.489-9.514 11.441 11.441 0 0 0-1.046-4.859c-.459-1.02-.867-1.25-1.479-.816"/>
        </g>
    </g>
</svg>
