<svg xmlns="http://www.w3.org/2000/svg" width="56" height="56" viewBox="0 0 56 56">
    <defs>
        <clipPath id="pkw8vet4va">
            <path data-name="사각형 26800" style="fill:none" d="M0 0h39.623v39.725H0z"/>
        </clipPath>
    </defs>
    <g data-name="그룹 129031">
        <g data-name="그룹 129030" style="clip-path:url(#pkw8vet4va)" transform="translate(8 9)">
            <path data-name="패스 72155" d="M30.269 10.158a12.022 12.022 0 0 1 2.9 4.884 8.752 8.752 0 0 1 .574 2.7c-.064.128-10.164.14-10.279.026s.076-.447 1.492-2.385l3.252-4.477a7.8 7.8 0 0 1 1.224-1.479 3.736 3.736 0 0 1 .842.727" style="fill:#93e5c2"/>
            <path data-name="패스 72156" d="M21.967 5.733c1.926.485 2.933.854 2.933 1.1a9.171 9.171 0 0 1-.765 1.454c-.421.7-.765 1.3-.765 1.326 0 .089-2.449 4.349-2.959 5.139a2.346 2.346 0 0 1-.676.8 10.67 10.67 0 0 1-1.377-2.678 286.354 286.354 0 0 0-1.569-3.546c-.166-.369-.306-.7-.306-.727s-.229-.522-.51-1.1a9.08 9.08 0 0 1-.51-1.161c0-.255 1.454-.612 3-.74a14.192 14.192 0 0 1 3.507.128" style="fill:#93e5c2"/>
            <path data-name="패스 72157" d="M11.637 9.775c.306.548.969 1.683 1.467 2.525 2.244 3.762 3 5.114 3 5.407 0 .2-.1.2-5.229-.357-.663-.076-1.492-.165-1.849-.2a16.307 16.307 0 0 1-3.192-.45 14.24 14.24 0 0 1 1.1-3.239 14.883 14.883 0 0 1 1.951-2.87 12.847 12.847 0 0 1 2.105-1.8 4.8 4.8 0 0 1 .65.982" style="fill:#93e5c2"/>
            <path data-name="패스 72158" d="M16.05 21.967a13.2 13.2 0 0 1-2.015 3.112c-2.206 3-2.64 3.6-3.137 4.336a6.279 6.279 0 0 1-.676.88c-.179.1-1.084-.778-1.964-1.926a13.3 13.3 0 0 1-2.347-5.331c-.28-1.186-.459-1.1 2.258-1.148 3.519-.063 7.779-.025 7.881.077" style="fill:#93e5c2"/>
            <path data-name="패스 72159" d="M20.271 24.888c.217.446.51 1.059.65 1.377s.37.829.511 1.148.433 1.008.663 1.53c.65 1.5.88 2.028 1.428 3.176a4.774 4.774 0 0 1 .459 1.263c-.038.191-.535.344-2.091.637a13.284 13.284 0 0 1-4.26-.051 11.088 11.088 0 0 1-3.022-1.007 5.454 5.454 0 0 1 .637-1.276c.37-.637.906-1.555 1.174-2.04a38.987 38.987 0 0 1 3.354-5.545 2.542 2.542 0 0 1 .5.791" style="fill:#93e5c2"/>
            <path data-name="패스 72160" d="M27.068 22.171c.6.064 1.632.191 2.3.268s1.81.191 2.55.255c1.722.14 1.824.178 1.722.689a13.942 13.942 0 0 1-2.066 4.552 18.255 18.255 0 0 1-2.674 2.742c-.165.115-.357.166-.42.115a5.266 5.266 0 0 1-.664-.995c-.293-.51-1.1-1.862-1.772-3.022-1.939-3.265-2.678-4.617-2.589-4.757a13.955 13.955 0 0 1 3.609.153" style="fill:#93e5c2"/>
            <path data-name="패스 72161" d="M17.376.122a1.3 1.3 0 0 1-.561.127 4.14 4.14 0 0 0-.829.115c-.255.064-.778.179-1.161.268a21.182 21.182 0 0 0-5.866 2.589 19.946 19.946 0 0 0-7.652 9.335 23.77 23.77 0 0 0-1.173 4.272 34.229 34.229 0 0 0 0 6.058 23.777 23.777 0 0 0 .892 3.456 23.881 23.881 0 0 0 1.021 2.474 24.369 24.369 0 0 0 1.543 2.551 3.791 3.791 0 0 1 .395.51A20.913 20.913 0 0 0 9.392 36.8a20.784 20.784 0 0 0 11.72 2.856 20.754 20.754 0 0 0 5.765-1.275 23.255 23.255 0 0 0 2.933-1.39 14.693 14.693 0 0 0 1.722-1.161 6.277 6.277 0 0 1 .51-.382 28.111 28.111 0 0 0 3.265-3.248c.2-.281.4-.536.433-.574a15.957 15.957 0 0 0 1.86-3.192c.332-.664.638-1.314.7-1.429a1.289 1.289 0 0 0 .114-.472.41.41 0 0 1 .115-.318.824.824 0 0 0 .179-.421c.038-.2.191-.816.331-1.378a16.718 16.718 0 0 0 .4-2.486c.076-.8.153-1.569.178-1.684a41.394 41.394 0 0 0-.37-4.183c-.051-.178-.14-.574-.216-.893a19.613 19.613 0 0 0-5.051-9.131 24.5 24.5 0 0 0-3.647-2.984 3.4 3.4 0 0 1-.625-.357 8.184 8.184 0 0 0-.982-.561 55.63 55.63 0 0 0-1.186-.536 4.643 4.643 0 0 0-.918-.331.318.318 0 0 1-.243-.115.713.713 0 0 0-.357-.179c-.165-.038-.612-.153-.994-.255s-1.1-.255-1.594-.344a10.279 10.279 0 0 1-1.186-.268 25.865 25.865 0 0 0-4.872.013m4.9 1.543a22.34 22.34 0 0 1 2.372.5c.179.051.574.179.893.268a17.323 17.323 0 0 1 2.423.982 4.742 4.742 0 0 1 .765.421c.179.115.536.332.816.485a21.477 21.477 0 0 1 4.375 3.9 18.287 18.287 0 0 1 3.66 16.005 18.869 18.869 0 0 1-11.72 12.983 20.283 20.283 0 0 1-9.756.65 29.217 29.217 0 0 1-3.533-1.071c-.23-.1-.638-.293-.893-.408a22.563 22.563 0 0 1-3.3-2.155 20.1 20.1 0 0 1-4.119-4.6c-.421-.651-.778-1.212-.778-1.25a6.942 6.942 0 0 0-.37-.867A18.528 18.528 0 0 1 2.48 13.64a16.882 16.882 0 0 1 4.375-6.708 17.469 17.469 0 0 1 8.99-5.025 22.218 22.218 0 0 1 6.428-.242"/>
            <path data-name="패스 72162" d="M18.269 4.011c-2.857.37-3.89.74-4.273 1.556-.255.523-.165 1.084.357 2.206.74 1.62.957 2.117 1.365 3.061.23.523.523 1.212.663 1.531s.344.778.447 1.02c1.339 3.035 2.027 3.953 2.945 3.953.37 0 .562-.127 1.25-.829a4.945 4.945 0 0 0 .816-.969 1.159 1.159 0 0 1 .243-.472c.127-.191.357-.561.51-.829s.4-.688.536-.956.42-.727.6-1.046l.74-1.314c.23-.409.433-.752.433-.777s.281-.511.638-1.1a16.988 16.988 0 0 0 .905-1.76c.268-.638.268-.714.077-1.11a2.623 2.623 0 0 0-.621-.736 13.661 13.661 0 0 0-4.7-1.416c-.383-.038-.906-.1-1.148-.127a12.28 12.28 0 0 0-1.785.114m3.7 1.722c1.926.485 2.933.854 2.933 1.1a9.171 9.171 0 0 1-.765 1.454c-.421.7-.765 1.3-.765 1.326 0 .089-2.449 4.349-2.959 5.139a2.346 2.346 0 0 1-.676.8 10.67 10.67 0 0 1-1.377-2.678 286.354 286.354 0 0 0-1.569-3.546c-.166-.369-.306-.7-.306-.727s-.229-.522-.51-1.1a9.08 9.08 0 0 1-.51-1.161c0-.255 1.454-.612 3-.74a14.192 14.192 0 0 1 3.507.128"/>
            <path data-name="패스 72163" d="M10.234 7.39a15.005 15.005 0 0 0-4.208 4.4 13.354 13.354 0 0 0-.826 1.658 13.086 13.086 0 0 0-.587 1.53 9.413 9.413 0 0 1-.255.8 2.944 2.944 0 0 0 .089 1.887c.408.6.7.676 4.426 1.071 2.78.294 3.762.408 4.578.523a8.773 8.773 0 0 0 3.328-.076 1.685 1.685 0 0 0 .982-1.174A12.452 12.452 0 0 0 15.96 14a1.261 1.261 0 0 1-.242-.421 1.261 1.261 0 0 0-.242-.42 20.5 20.5 0 0 1-1.046-1.786c-.153-.255-.319-.535-.37-.6s-.217-.345-.37-.612c-.7-1.237-.829-1.454-1.071-1.811a6.993 6.993 0 0 0-.65-.8 1.3 1.3 0 0 0-1.735-.153m1.4 2.385c.306.548.969 1.683 1.467 2.525 2.244 3.762 3 5.114 3 5.407 0 .2-.1.2-5.229-.357-.663-.076-1.492-.165-1.849-.2a16.307 16.307 0 0 1-3.189-.457 14.24 14.24 0 0 1 1.1-3.239 14.883 14.883 0 0 1 1.951-2.87 12.847 12.847 0 0 1 2.105-1.8 4.8 4.8 0 0 1 .65.982"/>
            <path data-name="패스 72164" d="M28.649 7.888a5.524 5.524 0 0 0-1.02 1.1c-.344.472-.969 1.326-1.377 1.9-1.416 1.938-2.155 2.946-2.5 3.392a25.829 25.829 0 0 0-1.76 2.717 2.63 2.63 0 0 0-.153.905c0 .625.268.982.995 1.314.421.2 1 .216 5.93.191 5.981-.038 6.007-.038 6.4-.791.319-.625.191-1.8-.446-4.017-.855-2.959-3.928-6.95-5.344-6.95a1.743 1.743 0 0 0-.727.242m1.62 2.27a12.022 12.022 0 0 1 2.9 4.884 8.752 8.752 0 0 1 .574 2.7c-.064.128-10.164.14-10.279.026s.076-.447 1.492-2.385l3.252-4.477A7.8 7.8 0 0 1 29.43 9.43a3.736 3.736 0 0 1 .842.727"/>
            <path data-name="패스 72165" d="M7.875 20.271c-2.8.076-3.048.127-3.43.689a4.627 4.627 0 0 0-.064 2.55c.076.281.191.753.268 1.033a13.539 13.539 0 0 0 .956 2.576 20.156 20.156 0 0 0 1.735 2.7 8.731 8.731 0 0 0 2.423 2.142c.8.243 1.224-.025 2.3-1.479 2.245-3.048 3.405-4.629 4.209-5.752 1.428-1.989 1.8-3.073 1.237-3.672-.842-.893-2.181-1.008-9.629-.791m8.175 1.7a13.2 13.2 0 0 1-2.015 3.112c-2.206 3-2.64 3.6-3.137 4.336a6.279 6.279 0 0 1-.676.88c-.179.1-1.084-.778-1.964-1.926a13.3 13.3 0 0 1-2.347-5.331c-.28-1.186-.459-1.1 2.258-1.148 3.519-.063 7.779-.025 7.881.077"/>
            <path data-name="패스 72166" d="M22.5 20.577c-1.045.612-.892 1.722.587 4.31.153.268.383.676.523.893s.752 1.3 1.4 2.372 1.16 1.964 1.16 1.99.2.382.447.79c.854 1.4 1.517 1.875 2.27 1.569 1.53-.612 4.132-3.431 5.114-5.535a12.712 12.712 0 0 0 .854-2.04c.051-.2.191-.766.319-1.225.255-1.007.178-1.428-.332-1.9-.42-.4-.7-.472-2.423-.637a167.742 167.742 0 0 1-4.718-.523 22.193 22.193 0 0 0-5.2-.064m4.566 1.594c.6.064 1.632.191 2.3.268s1.81.191 2.55.255c1.722.14 1.824.178 1.722.689a13.942 13.942 0 0 1-2.066 4.552 18.255 18.255 0 0 1-2.673 2.742c-.165.115-.357.166-.42.115a5.266 5.266 0 0 1-.664-.995c-.293-.51-1.1-1.862-1.772-3.022-1.939-3.265-2.678-4.617-2.589-4.757a13.955 13.955 0 0 1 3.609.153"/>
            <path data-name="패스 72167" d="M18.766 22.911a8.02 8.02 0 0 0-1.505 1.99c-.14.255-.4.688-.535.943s-.421.74-.6 1.059-.625 1.109-.994 1.76-.689 1.211-.689 1.237-.23.421-.523.893a5.994 5.994 0 0 0-1.008 2.321 2.065 2.065 0 0 0 .995 1.364 17.332 17.332 0 0 0 2.385.816c.281.077.765.205 1.084.281a21.263 21.263 0 0 0 5.012 0c1.951-.446 2.487-.638 2.92-1.058.6-.6.523-1.237-.408-3.214-.191-.421-.484-1.059-.637-1.4l-.587-1.314c-.166-.37-.306-.7-.306-.727 0-.063-.408-.969-1.1-2.461-.242-.523-.433-.969-.433-1a7.39 7.39 0 0 0-1.225-1.7 1.356 1.356 0 0 0-1.849.2m1.5 1.977c.217.446.51 1.059.65 1.377s.37.829.511 1.148.433 1.008.663 1.53c.65 1.5.88 2.028 1.428 3.176a4.774 4.774 0 0 1 .459 1.263c-.038.191-.535.344-2.091.637a13.284 13.284 0 0 1-4.26-.051 11.088 11.088 0 0 1-3.022-1.007 5.454 5.454 0 0 1 .637-1.276c.37-.637.906-1.555 1.174-2.04a38.987 38.987 0 0 1 3.362-5.535 2.542 2.542 0 0 1 .5.791"/>
        </g>
    </g>
</svg>
