<svg xmlns="http://www.w3.org/2000/svg" width="56" height="56" viewBox="0 0 56 56">
    <defs>
        <clipPath id="yjdq76jfwa">
            <path data-name="사각형 26769" style="fill:none" d="M0 0h44.381v46.412H0z"/>
        </clipPath>
    </defs>
    <g data-name="그룹 128969">
        <g data-name="그룹 128968" style="clip-path:url(#yjdq76jfwa)" transform="translate(6 5)">
            <path data-name="패스 71987" d="M29.383 1.712A5.771 5.771 0 0 1 33.4 4.926c.587 1.173.906 1.479 1.888 1.785a3.767 3.767 0 0 1 2.193 1.964A6.965 6.965 0 0 1 38 9.683c0 .216.676.637 1.135.7a2.9 2.9 0 0 1 1.7.8 3.3 3.3 0 0 1 .612 3.978 4.176 4.176 0 0 0-.382.982 2.3 2.3 0 0 0 .7.842 2.568 2.568 0 0 1 1.084 2c0 .638-.153.957-1.313 2.755-1.072 1.658-1.582 2.092-2.525 2.092-.562 0-1.008.306-1.008.7a3.5 3.5 0 0 1-1 2.1c-.8.651-1.173.778-3.685 1.224-.281.052-.676.727-.676 1.148a4.668 4.668 0 0 1-1.161 2.015 4.058 4.058 0 0 1-2.5 1.352 7.533 7.533 0 0 1-2.564-.791 2.237 2.237 0 0 0-.523-.229 3.753 3.753 0 0 0-.816.637 5.816 5.816 0 0 1-2.474 1.352c-.765.141-1.683-.625-2.461-2.053-.37-.7-.714-.956-1.263-.956a16.55 16.55 0 0 1-3.392-.651c-.485-.14-1.02-.293-1.186-.331a.713.713 0 0 1-.357-.179.36.36 0 0 0-.281-.115 22.86 22.86 0 0 1-3.163-1.53 32.258 32.258 0 0 1-3.277-2.372c-.23-.2-.74-.651-1.148-1a16 16 0 0 1-2.512-2.844 4.355 4.355 0 0 0-.74-.829 5.261 5.261 0 0 1-.969-1.186c-.281-.6-.408-1.4-.23-1.517a4.065 4.065 0 0 1 1.263.676 24.859 24.859 0 0 0 8.328 3.621 17.864 17.864 0 0 0 5.343.638 17.476 17.476 0 0 0 5.114-.561 12.19 12.19 0 0 1 1.4-.242 3.846 3.846 0 0 1 1.951.727 9.379 9.379 0 0 1 2.13 2.461 1.729 1.729 0 0 0 .51.637.837.837 0 0 0 1.186-.879 9.428 9.428 0 0 0-2.5-3.3 3.845 3.845 0 0 1-.6-.6c0-.025.651-.37 1.441-.778a31.365 31.365 0 0 0 6.785-4.68c1.377-1.212 1.568-1.505 1.275-1.951a.8.8 0 0 0-1.02-.4 28.6 28.6 0 0 0-2.359 2.015 34.7 34.7 0 0 1-3.252 2.309 24.376 24.376 0 0 1-5.663 2.652 3.249 3.249 0 0 0-.765.2 20.727 20.727 0 0 1-4.208.74 2.147 2.147 0 0 1 .344-.651c.995-1.555 2.142-4.705 2.04-5.585a.7.7 0 0 0-.368-.552.557.557 0 0 0-.7 0 1.4 1.4 0 0 0-.5.637c-.077.243-.332 1.021-.561 1.722a9.941 9.941 0 0 1-1.913 3.673l-.587.65-.88-.025A19.413 19.413 0 0 1 9.322 19.8 26.246 26.246 0 0 1 3.1 16.633c-.625-.434-.663-.561-.255-.829 1.122-.727 1.887-.714 3.89.077 2.563 1.007 3.277 1.2 4.5 1.2a7.028 7.028 0 0 0 1.531-.14 6.475 6.475 0 0 0 4.208-4.259 24.9 24.9 0 0 0 .23-3.826l.076-3.316.574.038a5.752 5.752 0 0 1 2.423.816c1.9.88 2.092.829 2.615-.625a5.694 5.694 0 0 1 4.438-4.057 3.307 3.307 0 0 1 2.053 0" style="fill:#93e5c2"/>
            <path data-name="패스 71988" d="M26.909.119a1.018 1.018 0 0 1-.434.127 9.245 9.245 0 0 0-2.92 1.53 8.359 8.359 0 0 0-1.875 2.64 3.872 3.872 0 0 1-.344.676c-.013 0-.4-.166-.829-.357a6.778 6.778 0 0 0-2.321-.765c-1.327-.2-2.219.281-2.487 1.314a29.7 29.7 0 0 0-.141 3.616c0 3.112-.012 3.2-.548 4.324a4.963 4.963 0 0 1-1.887 1.849c-1.633.727-2.436.65-5.408-.549-1.9-.765-2.129-.816-3.252-.816a3.924 3.924 0 0 0-3.086 1.25 4.156 4.156 0 0 0-1.122 1.918.32.32 0 0 1-.128.268 4.722 4.722 0 0 0-.013 2.079c.064.114.217.471.345.79a4.626 4.626 0 0 0 .676 1.059l.421.472-.5.676A4.611 4.611 0 0 0 0 25.063a2.027 2.027 0 0 0 .114.868.991.991 0 0 1 .179.433 5.219 5.219 0 0 0 .663 1.225l.587.854-.485.548A4.559 4.559 0 0 0 0 31.912 3.822 3.822 0 0 0 .114 33c.064.115.217.446.345.727a18.369 18.369 0 0 0 3.43 3.634 28.415 28.415 0 0 0 6.479 4.005c.255.115.676.293.918.4a21.926 21.926 0 0 0 3 .957c.383.089.829.2.995.268a1.938 1.938 0 0 0 .587.114 2.173 2.173 0 0 1 1.555.855c1.314 1.734 2.589 2.461 4.336 2.461a4.586 4.586 0 0 0 3.023-.995l.612-.42.689.191a6.6 6.6 0 0 0 6.3-1.811 6.342 6.342 0 0 0 1.275-1.709 4.413 4.413 0 0 1 .548-.957 3.68 3.68 0 0 1 .868-.306 5.5 5.5 0 0 0 3.838-2.869c.4-.791.434-.816.893-.816a5.506 5.506 0 0 0 3.584-1.365 3.555 3.555 0 0 0 .994-2.729 3.462 3.462 0 0 0-.969-2.64 2.324 2.324 0 0 1-.434-.625 3.984 3.984 0 0 1 .383-.676 4.536 4.536 0 0 0 1.02-2.933 3.518 3.518 0 0 0-.969-2.665l-.446-.523.433-.727c.893-1.492.982-1.747.982-2.831a3.593 3.593 0 0 0-.918-2.653c-.421-.433-.421-.382-.064-1.926a4.794 4.794 0 0 0-3.481-5.5c-.4-.077-.51-.191-1.02-1.033a6.634 6.634 0 0 0-2.156-2.321 19.01 19.01 0 0 0-.905-.357c-.523-.192-.625-.294-1.148-1.276A7.5 7.5 0 0 0 29.829.131a8.634 8.634 0 0 0-2.92-.012m2.474 1.594A5.77 5.77 0 0 1 33.4 4.926c.587 1.174.9 1.48 1.887 1.786a3.762 3.762 0 0 1 2.194 1.964A6.924 6.924 0 0 1 38 9.683c0 .217.676.638 1.135.7a2.9 2.9 0 0 1 1.7.8 3.3 3.3 0 0 1 .612 3.979 4.176 4.176 0 0 0-.382.982 2.293 2.293 0 0 0 .7.842 2.566 2.566 0 0 1 1.084 2c0 .638-.153.957-1.314 2.755-1.071 1.658-1.581 2.091-2.525 2.091-.561 0-1.007.306-1.007.7a3.5 3.5 0 0 1-1 2.1c-.8.65-1.173.778-3.686 1.224-.28.051-.675.727-.675 1.148a4.673 4.673 0 0 1-1.161 2.015 4.058 4.058 0 0 1-2.5 1.352 7.535 7.535 0 0 1-2.563-.791 2.276 2.276 0 0 0-.523-.23 3.749 3.749 0 0 0-.816.638 5.816 5.816 0 0 1-2.474 1.352c-.765.14-1.684-.625-2.461-2.053-.37-.7-.715-.957-1.263-.957a16.527 16.527 0 0 1-3.392-.65 44.054 44.054 0 0 0-1.186-.332.713.713 0 0 1-.357-.178.362.362 0 0 0-.281-.115 22.86 22.86 0 0 1-3.163-1.53 32.413 32.413 0 0 1-3.277-2.372c-.23-.2-.74-.651-1.148-1a16 16 0 0 1-2.512-2.844 4.322 4.322 0 0 0-.74-.829 5.255 5.255 0 0 1-.969-1.186c-.281-.6-.408-1.4-.23-1.518a4.09 4.09 0 0 1 1.263.676 24.836 24.836 0 0 0 8.327 3.622 17.907 17.907 0 0 0 5.344.638 17.544 17.544 0 0 0 5.114-.561 12.229 12.229 0 0 1 1.4-.243 3.849 3.849 0 0 1 1.951.727 9.386 9.386 0 0 1 2.13 2.462 1.729 1.729 0 0 0 .51.637.837.837 0 0 0 1.186-.88 9.44 9.44 0 0 0-2.5-3.3 3.865 3.865 0 0 1-.6-.6c0-.026.65-.37 1.441-.778a31.36 31.36 0 0 0 6.785-4.681c1.377-1.211 1.568-1.5 1.275-1.951a.8.8 0 0 0-1.02-.4 28.6 28.6 0 0 0-2.36 2.015 34.274 34.274 0 0 1-3.252 2.308 24.369 24.369 0 0 1-5.662 2.653 3.249 3.249 0 0 0-.765.2 20.794 20.794 0 0 1-4.209.74 2.192 2.192 0 0 1 .345-.651c.994-1.556 2.142-4.706 2.04-5.586a.7.7 0 0 0-.369-.549.56.56 0 0 0-.7 0 1.4 1.4 0 0 0-.5.638c-.077.242-.332 1.02-.561 1.722a9.957 9.957 0 0 1-1.913 3.673l-.587.65-.88-.025A19.42 19.42 0 0 1 9.322 19.8 26.242 26.242 0 0 1 3.1 16.634c-.625-.434-.663-.561-.255-.829 1.122-.727 1.887-.714 3.889.076 2.564 1.008 3.278 1.2 4.5 1.2a7.093 7.093 0 0 0 1.531-.14 6.474 6.474 0 0 0 4.208-4.26 25.017 25.017 0 0 0 .23-3.826l.076-3.315.574.038a5.737 5.737 0 0 1 2.423.816c1.9.88 2.092.829 2.614-.625a5.694 5.694 0 0 1 4.44-4.056 3.307 3.307 0 0 1 2.053 0M4.221 24.515a27.687 27.687 0 0 0 5.866 4.6 24.973 24.973 0 0 0 4.579 2.015c.242.064.65.166.892.242a24.553 24.553 0 0 0 2.487.485c.574.064.651.127.893.574a6.515 6.515 0 0 0 2.168 2.232c1.135.535 2.716.229 4.247-.829l.8-.562.944.319a4.773 4.773 0 0 0 5.42-1.339 7.433 7.433 0 0 0 1.135-1.479c.153-.344.344-.727.408-.842a1.156 1.156 0 0 0 .115-.421c0-.1.115-.191.255-.191a8.253 8.253 0 0 0 3.724-1.518 4.3 4.3 0 0 0 1.186-1.913.651.651 0 0 1 .484-.522 5.969 5.969 0 0 0 1.824-.982c.4-.37.6-.319.944.242a2.735 2.735 0 0 1-.153 2.64 14.4 14.4 0 0 1-2.028 2.869 2.809 2.809 0 0 1-1.607.587.91.91 0 0 0-.8.893 3.059 3.059 0 0 1-.268.956c-.51 1.084-1.492 1.645-3.431 1.964l-1.211.2-.255.765a5.458 5.458 0 0 1-2.168 3.125c-1.122.778-2.168.765-3.826-.026a5.153 5.153 0 0 0-.918-.357 3.7 3.7 0 0 0-.868.625c-1.2 1.059-2.448 1.518-3.213 1.212a3.564 3.564 0 0 1-1.492-1.544c-.511-.982-.829-1.313-1.263-1.313a21.915 21.915 0 0 1-4.744-1.022A26.185 26.185 0 0 1 7.7 32.435a28.205 28.205 0 0 1-4.12-4.107 5.708 5.708 0 0 0-.79-.918 3.052 3.052 0 0 1-1.1-3.252c.229-.6.638-1.212.791-1.212a13.027 13.027 0 0 1 1.734 1.569m.051 6.823A29.227 29.227 0 0 0 7.2 33.991a29.2 29.2 0 0 0 5.612 3.264c.14.039.663.217 1.147.4a20.274 20.274 0 0 0 3.571.918c1.122.166 1.2.2 1.428.663a8.358 8.358 0 0 0 1.875 2.1 4.908 4.908 0 0 0 .893.306 2.3 2.3 0 0 0 1.556-.076 6 6 0 0 0 2.385-1.173c.408-.319.548-.37.765-.255a5.328 5.328 0 0 0 3.1.561 6.4 6.4 0 0 0 4.629-4.26c.1-.268.242-.357.612-.421 2.411-.382 4.2-1.7 4.566-3.366.051-.23.153-.434.229-.447a4.807 4.807 0 0 0 1.888-.88l.676-.51.344.408a2.439 2.439 0 0 1-.459 3.3 4.175 4.175 0 0 1-2.64.663c-.663 0-.969.051-1.148.217a.734.734 0 0 0-.229.306 6.312 6.312 0 0 1-1.084 2.015 4.752 4.752 0 0 1-2.831 1.288c-.447 0-1.288.868-1.684 1.722a5.324 5.324 0 0 1-4.731 3.124 3.633 3.633 0 0 1-1.862-.42c-.255-.255-.88-.051-1.632.5a3.745 3.745 0 0 1-2.4.944 3.8 3.8 0 0 1-3.15-1.875 3.539 3.539 0 0 0-2.053-1.3 26.451 26.451 0 0 1-4.808-1.428 4.939 4.939 0 0 0-.625-.242 31.618 31.618 0 0 1-4.668-2.6 8.051 8.051 0 0 0-.778-.561 25.174 25.174 0 0 1-3.838-3.788 3.241 3.241 0 0 1-.2-2.13 3.3 3.3 0 0 1 .867-1.249 18.6 18.6 0 0 1 1.747 1.632"/>
        </g>
    </g>
</svg>
