<svg xmlns="http://www.w3.org/2000/svg" width="56" height="56" viewBox="0 0 56 56">
    <defs>
        <clipPath id="8i1ntyrlqa">
            <path data-name="사각형 26771" style="fill:none" d="M0 0h42.057v41.575H0z"/>
        </clipPath>
    </defs>
    <g data-name="그룹 128973">
        <g data-name="그룹 128972" style="clip-path:url(#8i1ntyrlqa)" transform="translate(7 7)">
            <path data-name="패스 71992" d="M30.324 6.925a.52.52 0 0 1-.14.306c-.217.217-.077.689.293.969l.344.255 1-.267a14.186 14.186 0 0 1 4.688-.588 20.28 20.28 0 0 1 2.385.089c.523.14.65.74.65 2.959a15.267 15.267 0 0 1-.51 4.4c-.357 1.326-.357 1.466.039 1.772a.8.8 0 0 0 .586.217c.791-.255.753-.268.676.128a19.217 19.217 0 0 1-2 5.445c-.638 1.084-.344 1.722.714 1.594.561-.063.574.013.089 1.008a21.5 21.5 0 0 1-4.057 5.488c-.88.88-1 1.249-.523 1.7a1.012 1.012 0 0 0 .561.255c.536 0 .434.229-.433.931a24.139 24.139 0 0 1-6.441 3.614c-1.148.408-1.237.484-1.237.994a1 1 0 0 0 .383.791 1.6 1.6 0 0 1 .382.434 4.757 4.757 0 0 1-1.925.484 15.01 15.01 0 0 1-6.492-1.033 18.488 18.488 0 0 1-3.7-1.76c-.8-.459-1.734-.969-2.066-1.147a1.562 1.562 0 0 1-.612-.447 17.847 17.847 0 0 1 1.7-1.823l1.683-1.684h6.033c5.853 0 6.032-.013 6.274-.255a.774.774 0 0 0 0-1.148c-.242-.242-.421-.255-5.356-.255-2.806 0-5.1-.038-5.1-.089s1.5-1.607 3.341-3.443l3.347-3.353h3.635a17.952 17.952 0 0 0 3.838-.166.868.868 0 0 0-.178-1.479 17.366 17.366 0 0 0-2.946-.141H26.7l3.852-3.864c3.252-3.265 3.851-3.928 3.851-4.234a.787.787 0 0 0-.816-.829c-.345 0-.855.459-4.285 3.89-2.143 2.142-3.928 3.889-3.979 3.889a21.655 21.655 0 0 1-.1-3.06v-3.048l-.357-.192a.715.715 0 0 0-.765-.012l-.409.178v7.856l-3.341 3.341c-1.849 1.85-3.392 3.355-3.443 3.355s-.1-2.385-.1-5.293c0-5.127-.013-5.305-.255-5.548a.774.774 0 0 0-1.148 0c-.242.243-.255.421-.255 6.466v6.2l-1.684 1.709a17.729 17.729 0 0 1-1.823 1.7A3.473 3.473 0 0 1 11 33.26c-.28-.51-.727-1.3-.995-1.76a19.507 19.507 0 0 1-2.767-8.136 7.765 7.765 0 0 1 .2-3.5c.1-.523.281-.561.714-.114.663.675 1.263.5 1.633-.5.089-.242.267-.688.4-.982a3.506 3.506 0 0 0 .241-.637 27.584 27.584 0 0 1 2.028-3.724c.896-1.307 1.776-2.327 1.946-2.225a.456.456 0 0 1 .115.344.706.706 0 0 0 .765.727c.345 0 .613-.191 1.658-1.186A22.643 22.643 0 0 1 21.5 8.2c1.3-.7 1.415-.7 1.39.026-.026.433.038.612.23.752.4.306.612.255 1.874-.421A19.964 19.964 0 0 1 27.71 7.41a10.591 10.591 0 0 1 2.461-.638.156.156 0 0 1 .153.153" style="fill:#93e5c2"/>
            <path data-name="패스 71993" d="M22.736.128c-.14.051-.51.178-.829.267a20.628 20.628 0 0 0-3.341 1.416 1.405 1.405 0 0 1-.421.23 2.685 2.685 0 0 0-.549.318c-.612.421-.765.408-.816-.089-.025-.319-.115-.446-.382-.535-.294-.1-.5-.052-1.148.255a18.593 18.593 0 0 0-6.16 4.948 7.861 7.861 0 0 1-.842.956c-.051.013-.153-.166-.242-.382-.217-.5-.65-.791-.982-.664-.534.2-1.875 2.181-2.818 4.12a27.052 27.052 0 0 0-1.684 4.693.907.907 0 0 1-.178.472c-.166.229-.191.229-.587-.1S.941 15.6.66 15.788a1.352 1.352 0 0 0-.433.944.744.744 0 0 1-.14.446A15.126 15.126 0 0 0 .2 21.106a24.712 24.712 0 0 0 2.45 6.759c.561 1.123 1.122 2.207 1.25 2.424.663 1.135 1.76 2.869 2.078 3.264a1.74 1.74 0 0 1 .37.689 24.977 24.977 0 0 1-2.614 2.869 26.9 26.9 0 0 0-2.614 2.857 1.257 1.257 0 0 0 .854.842 25.184 25.184 0 0 0 2.882-2.678c1.467-1.48 2.7-2.678 2.742-2.678a6.828 6.828 0 0 1 .855.7l.765.689-1.875 1.9a16.162 16.162 0 0 0-1.887 2.079.818.818 0 0 0 .8.752c.357 0 .7-.293 2.857-2.449l2.448-2.448.357.178c.192.1.676.37 1.059.587s.956.548 1.275.714.8.459 1.084.612a21.05 21.05 0 0 0 7.588 2.678 12.5 12.5 0 0 0 6.122-.688 1.977 1.977 0 0 1 .586-.2c.192 0 .689-.6.689-.842a1.636 1.636 0 0 0-.459-.612c-.4-.383-.446-.485-.306-.65a.549.549 0 0 1 .306-.192 27.227 27.227 0 0 0 4.094-2.168 20.6 20.6 0 0 0 3.57-2.984c.715-.88.536-1.39-.637-1.773-.064-.025.217-.446.637-.943a15.7 15.7 0 0 0 1.874-2.452 20.057 20.057 0 0 0 1.892-3.742c.051-.229.191-.688.293-1.02.178-.574.178-.625-.064-.931a.752.752 0 0 0-.637-.319c-.319 0-.37-.038-.294-.229a17.489 17.489 0 0 0 1.467-5.994c0-.982-.026-1.059-.294-1.161a1.439 1.439 0 0 0-.663-.046c-.331.064-.357.051-.267-.229.038-.166.165-1.059.267-1.99a10.246 10.246 0 0 0-.012-3.124c-.281-2.207-.319-2.372-.549-2.564a11.542 11.542 0 0 0-4.655-.675c-.5.038-1.262.114-1.683.153l-.791.076-.14-.931c-.089-.523-.2-1.313-.281-1.773-.306-1.951-.625-3.086-.9-3.162-.128-.026-.23-.1-.23-.166a9.929 9.929 0 0 0-3.116.025 20.3 20.3 0 0 0-3.763.893c-.765.255-.918.23-.816-.127a.881.881 0 0 0-.153-.574 1.007 1.007 0 0 0-1.275-.2M31.1 1.875a13.859 13.859 0 0 1 .5 2.665c0 .345-.051.408-.4.485a5.4 5.4 0 0 1-.765.076 19.836 19.836 0 0 0-4.855 1.416c-.332.166-.357.153-.357-.242a.992.992 0 0 0-.319-.664l-.304-.293-.931.281c-.51.165-1.1.37-1.314.459a16.176 16.176 0 0 0-2.423 1.2 26.7 26.7 0 0 0-3.239 2.359 3.389 3.389 0 0 1-.854.587c-.09 0-.192-.179-.243-.383a.766.766 0 0 0-.982-.65c-.739.28-3.316 3.366-4.31 5.177a26.44 26.44 0 0 0-1.4 2.844.936.936 0 0 1-.191.332c-.179.242-.2.229-.638-.217-.523-.548-.816-.587-1.161-.191-.765.88-1.326 3.1-1.326 5.241a18.593 18.593 0 0 0 1.39 6.657c.255.625 1.224 2.576 1.416 2.87.115.178.382.637.6 1.02s.51.931.676 1.211.4.727.548.982.23.523.179.562a9.834 9.834 0 0 1-2.232-1.837 22.256 22.256 0 0 1-2.294-3.239c-.142-.23-.537-.906-.881-1.505s-.727-1.314-.855-1.594-.459-.969-.727-1.53a25.863 25.863 0 0 1-1.53-4.273c-.332-1.237-.485-3.481-.255-3.622.051-.038.293.077.523.243.943.7 1.416.242 1.709-1.658a5.357 5.357 0 0 1 .191-.829c.064-.242.179-.651.242-.893.466-1.722 2.239-5.434 2.66-5.574.063-.025.2.128.293.344a1.423 1.423 0 0 0 .447.587c.42.281.8.051 1.377-.816a22.557 22.557 0 0 1 3.66-4.043 14.29 14.29 0 0 1 2.168-1.466c.064 0 .1.255.089.573-.038 1.059.676 1.135 1.862.2 1.365-1.071 4.413-2.69 5.063-2.69.293 0 .306.012.115.433a.521.521 0 0 0 .051.638c.331.484.625.51 1.543.076a6.423 6.423 0 0 1 1.007-.382.625.625 0 0 0 .294-.1 12.854 12.854 0 0 1 2.576-.778 16.188 16.188 0 0 1 2.807-.381c.624-.013.675.013.8.332m-.778 5.05a.52.52 0 0 1-.14.306c-.217.217-.077.689.293.969l.344.255 1-.267a14.186 14.186 0 0 1 4.69-.588 20.28 20.28 0 0 1 2.385.089c.523.14.65.74.65 2.959a15.267 15.267 0 0 1-.51 4.4c-.357 1.326-.357 1.466.039 1.772a.8.8 0 0 0 .586.217c.791-.255.753-.268.676.128a19.217 19.217 0 0 1-2 5.445c-.638 1.084-.344 1.722.714 1.594.561-.063.574.013.089 1.008a21.5 21.5 0 0 1-4.057 5.488c-.88.88-1 1.249-.523 1.7a1.012 1.012 0 0 0 .561.255c.536 0 .434.229-.433.931a24.139 24.139 0 0 1-6.441 3.614c-1.148.408-1.237.484-1.237.994a1 1 0 0 0 .383.791 1.6 1.6 0 0 1 .382.434 4.757 4.757 0 0 1-1.925.484 15.01 15.01 0 0 1-6.492-1.033 18.488 18.488 0 0 1-3.7-1.76c-.8-.459-1.734-.969-2.066-1.147a1.562 1.562 0 0 1-.612-.447 17.847 17.847 0 0 1 1.7-1.823l1.683-1.684h6.033c5.853 0 6.032-.013 6.274-.255a.774.774 0 0 0 0-1.148c-.242-.242-.421-.255-5.356-.255-2.806 0-5.1-.038-5.1-.089s1.5-1.607 3.341-3.443l3.347-3.353h3.635a17.952 17.952 0 0 0 3.838-.166.868.868 0 0 0-.178-1.479 17.366 17.366 0 0 0-2.946-.141H26.7l3.852-3.864c3.252-3.265 3.851-3.928 3.851-4.234a.787.787 0 0 0-.816-.829c-.345 0-.855.459-4.285 3.89-2.143 2.142-3.928 3.889-3.979 3.889a21.655 21.655 0 0 1-.1-3.06v-3.048l-.357-.192a.715.715 0 0 0-.765-.012l-.409.178v7.856l-3.341 3.341c-1.849 1.85-3.392 3.355-3.443 3.355s-.1-2.385-.1-5.293c0-5.127-.013-5.305-.255-5.548a.774.774 0 0 0-1.148 0c-.242.243-.255.421-.255 6.466v6.2l-1.684 1.709a17.729 17.729 0 0 1-1.823 1.7A3.473 3.473 0 0 1 11 33.26c-.28-.51-.727-1.3-.995-1.76a19.507 19.507 0 0 1-2.767-8.136 7.765 7.765 0 0 1 .2-3.5c.1-.523.281-.561.714-.114.663.675 1.263.5 1.633-.5.089-.242.267-.688.4-.982a3.506 3.506 0 0 0 .241-.637 27.584 27.584 0 0 1 2.028-3.724c.896-1.307 1.776-2.327 1.946-2.225a.456.456 0 0 1 .115.344.706.706 0 0 0 .765.727c.345 0 .613-.191 1.658-1.186A22.643 22.643 0 0 1 21.5 8.2c1.3-.7 1.415-.7 1.39.026-.026.433.038.612.23.752.4.306.612.255 1.874-.421A19.964 19.964 0 0 1 27.71 7.41a10.591 10.591 0 0 1 2.461-.638.156.156 0 0 1 .153.153"/>
        </g>
    </g>
</svg>
