<svg xmlns="http://www.w3.org/2000/svg" width="56" height="56" viewBox="0 0 56 56">
    <defs>
        <clipPath id="nia0pnacla">
            <path data-name="사각형 26765" style="fill:none" d="M0 0h42.085v40.555H0z"/>
        </clipPath>
    </defs>
    <g data-name="그룹 128961">
        <g data-name="그룹 128960" style="clip-path:url(#nia0pnacla)" transform="translate(7 8)">
            <path data-name="패스 71954" d="M21.247 2.321c.357.446.944 1.2 1.326 1.7s.855 1.11 1.072 1.377l.382.472-.51.5a2.833 2.833 0 0 0-.23 4.2 4.615 4.615 0 0 0 2 1.289 8.117 8.117 0 0 0 2.882.012c.319-.166.421-.063 1.811 1.76 2.13 2.78 2.053 2.666 1.811 3.125a3.859 3.859 0 0 0 .013 2.487 4.238 4.238 0 0 0 3.558 2.193c.688 0 .548-.14 2.321 2.168a7.107 7.107 0 0 1 1.1 1.632c-.089.026-8.4-2.678-9.9-3.239a1.081 1.081 0 0 1-.7-.6 5.811 5.811 0 0 0-2.256-2.097 5.425 5.425 0 0 0-3.2-.484 9.628 9.628 0 0 0-1.237.37l-.51.2-9.373-3.138c-5.153-1.721-9.425-3.188-9.5-3.252-.357-.357 1.976-3.571 3.966-5.471A23.165 23.165 0 0 1 9.82 4.629c.243-.14.816-.459 1.276-.714A24.689 24.689 0 0 1 15.049 2.3c.242-.064.765-.179 1.148-.256a18.079 18.079 0 0 1 3.52-.5l.892-.013z" style="fill:#93e5c2"/>
            <path data-name="패스 71955" d="M10.9 17.791c7.72 2.576 8.931 3.009 8.893 3.209a16.68 16.68 0 0 0-.115 1.2c-.153 2.346 1.25 4.106 3.775 4.7a4.568 4.568 0 0 0 4.68-2.372 2.485 2.485 0 0 1 .485-.765c.076-.025 2.78.842 6.007 1.926l5.866 1.951.038 5.5a44.8 44.8 0 0 1-.1 5.5c-.178 0-38.374-12.74-38.667-12.893-.217-.115-.229-.421-.229-5.535 0-5.076.012-5.42.229-5.42.115.013 4.234 1.352 9.144 3" style="fill:#93e5c2"/>
            <path data-name="패스 71956" d="M14.016 9.131a3.068 3.068 0 0 1 1.135.625 1.074 1.074 0 0 1 .472 1.084 1.075 1.075 0 0 1-.472 1.084 3.011 3.011 0 0 1-2.614.7c-1.174-.255-1.658-.612-1.952-1.428-.153-.395-.14-.5.115-.956a2.475 2.475 0 0 1 1.607-1.148 2.33 2.33 0 0 1 1.709.038" style="fill:#fff"/>
            <path data-name="패스 71957" d="M7.6 20.609a1.509 1.509 0 0 1 .561 1.263 1.205 1.205 0 0 1-.433.88 1.069 1.069 0 0 1-1.008.459 1.432 1.432 0 0 1-1.033-2.474 1.529 1.529 0 0 1 1.913-.128" style="fill:#fff"/>
            <path data-name="패스 71958" d="M35.53 30.531a1 1 0 0 1 .485 1.084 1.2 1.2 0 0 1-.306.969 1.475 1.475 0 0 1-2.551-.982 1.386 1.386 0 0 1 2.372-1.071" style="fill:#fff"/>
            <path data-name="패스 71959" d="M17.663.128a2.133 2.133 0 0 1-.715.115 3.961 3.961 0 0 0-.828.127c-.2.064-.625.179-.943.268a26.337 26.337 0 0 0-5.9 2.474 27.186 27.186 0 0 0-6.726 5.917 27.421 27.421 0 0 0-2.117 3.3c-.115.229-.255.42-.319.42S0 15.776 0 19.755c0 5.445.038 7.027.165 7.129.077.076 9.131 3.124 20.112 6.772s20.059 6.708 20.174 6.771a2.579 2.579 0 0 0 .931.128h.7V26.667l-2.1-2.716c-1.16-1.493-2.18-2.806-2.27-2.908s-.319-.408-.509-.676c-.332-.446-.409-.472-1.034-.472a3.434 3.434 0 0 1-2.525-.918c-.612-.625-.637-1.11-.1-1.9a2.689 2.689 0 0 0 .383-.727 3.575 3.575 0 0 0-.728-1.174c-.09-.1-.625-.79-1.186-1.53-2.8-3.66-2.831-3.7-3.176-3.7a3.942 3.942 0 0 0-1.007.255 3.9 3.9 0 0 1-1.021.255 3.885 3.885 0 0 1-2.167-.829 1.076 1.076 0 0 1-.472-1.071 1.161 1.161 0 0 1 .37-1.021 1.686 1.686 0 0 1 .484-.395 1.9 1.9 0 0 0 .548-.293c.677-.434.614-.727-.6-2.334-.588-.765-1.11-1.454-1.186-1.53s-.612-.791-1.212-1.569L21.5 0l-1.8.013a11.372 11.372 0 0 0-2.041.115m3.584 2.193c.357.447.944 1.2 1.326 1.7s.854 1.109 1.072 1.377l.382.472-.51.5a2.834 2.834 0 0 0-.229 4.2 4.594 4.594 0 0 0 2 1.288 8.118 8.118 0 0 0 2.882.013c.319-.166.422-.064 1.812 1.76 2.129 2.78 2.052 2.665 1.811 3.124a3.852 3.852 0 0 0 .012 2.487 4.239 4.239 0 0 0 3.558 2.193c.688 0 .548-.14 2.322 2.168a7.227 7.227 0 0 1 1.1 1.633c-.09.025-8.405-2.678-9.9-3.239a1.087 1.087 0 0 1-.7-.6 5.821 5.821 0 0 0-2.254-2.097 5.427 5.427 0 0 0-3.2-.485 9.58 9.58 0 0 0-1.237.37l-.51.2-9.373-3.137C6.454 14.526 2.181 13.059 2.105 13c-.357-.357 1.977-3.571 3.966-5.471A23.108 23.108 0 0 1 9.82 4.63c.243-.141.817-.459 1.276-.714A24.609 24.609 0 0 1 15.049 2.3a24.25 24.25 0 0 1 1.148-.255 18.092 18.092 0 0 1 3.519-.5l.892-.012zM10.9 17.791c7.72 2.576 8.932 3.009 8.892 3.209-.025.127-.076.663-.115 1.2-.153 2.347 1.25 4.107 3.775 4.706a4.573 4.573 0 0 0 4.682-2.372 2.49 2.49 0 0 1 .484-.765c.076-.025 2.781.842 6.007 1.926l5.866 1.951.038 5.5a45.077 45.077 0 0 1-.1 5.5c-.178 0-38.373-12.74-38.667-12.893-.216-.115-.229-.421-.229-5.535 0-5.076.013-5.42.229-5.42.115.013 4.234 1.352 9.144 3m14.067 2.78c1.671.714 2.435 2.04 1.862 3.188a3.041 3.041 0 0 1-2.322 1.633 2.847 2.847 0 0 1-3.022-1.684c-.573-1.122-.319-2.64.511-3.035a4.131 4.131 0 0 1 2.971-.1"/>
            <path data-name="패스 71960" d="M18.1 4.247a1.127 1.127 0 0 0-.268 1.569 1.043 1.043 0 0 0 1.7.191 1.154 1.154 0 0 0 .1-1.594.8.8 0 0 0-.79-.332 1.51 1.51 0 0 0-.74.166"/>
            <path data-name="패스 71961" d="M11.529 7.639a3.421 3.421 0 0 0-2.6 3.2c0 3.341 5.152 4.731 7.562 2.028a2.82 2.82 0 0 0-.166-4.2 3.5 3.5 0 0 0-1.53-.995 5.489 5.489 0 0 0-3.265-.038m2.487 1.492a3.068 3.068 0 0 1 1.135.625 1.074 1.074 0 0 1 .472 1.084 1.075 1.075 0 0 1-.472 1.084 3.011 3.011 0 0 1-2.614.7c-1.174-.255-1.658-.612-1.952-1.428-.153-.395-.14-.5.115-.956a2.475 2.475 0 0 1 1.607-1.148 2.33 2.33 0 0 1 1.709.038"/>
            <path data-name="패스 71962" d="M26.565 14.692a1.39 1.39 0 0 0-.6 1.288 1.122 1.122 0 0 0 1.135.855 1.1 1.1 0 0 0 .535-2.079.941.941 0 0 0-1.071-.064"/>
            <path data-name="패스 71963" d="M6.083 18.76a3.1 3.1 0 0 0-2.346 2.155 2.612 2.612 0 0 0 .1 2 3 3 0 0 0 1.328 1.545 2.143 2.143 0 0 0 1.48.332 2.259 2.259 0 0 0 1.594-.37 4.132 4.132 0 0 0 1.045-1.007 2.079 2.079 0 0 0 .409-1.569 2.725 2.725 0 0 0-1.008-2.372 3.087 3.087 0 0 0-2.6-.714M7.6 20.609a1.509 1.509 0 0 1 .561 1.263 1.205 1.205 0 0 1-.433.88 1.069 1.069 0 0 1-1.008.459 1.432 1.432 0 0 1-1.033-2.474 1.529 1.529 0 0 1 1.913-.128"/>
            <path data-name="패스 71964" d="M15.036 24.932a1.6 1.6 0 0 0-.357 2.474 1.106 1.106 0 0 0 1.046.4 1.259 1.259 0 0 0 1.351-.765 1.166 1.166 0 0 0 .039-1.39 1.548 1.548 0 0 0-2.079-.714"/>
            <path data-name="패스 71965" d="M33.285 28.822a2.813 2.813 0 0 0-1.685 2.755 2.793 2.793 0 0 0 1.849 2.844 3.008 3.008 0 0 0 3.943-1.521 3.888 3.888 0 0 0 .319-1.148 3.357 3.357 0 0 0-1.773-2.946 3.668 3.668 0 0 0-2.653.013m2.245 1.709a1 1 0 0 1 .485 1.084 1.2 1.2 0 0 1-.306.969 1.475 1.475 0 0 1-2.551-.982 1.386 1.386 0 0 1 2.372-1.071"/>
            <path data-name="패스 71966" d="M26.641 30.582a1.112 1.112 0 1 0 1.53 1.288 1.173 1.173 0 0 0-.7-1.339.785.785 0 0 0-.829.051"/>
        </g>
    </g>
</svg>
