<svg xmlns="http://www.w3.org/2000/svg" width="56" height="56" viewBox="0 0 56 56">
    <defs>
        <clipPath id="bru7wj1e6a">
            <path data-name="사각형 26783" style="fill:none" d="M0 0h48.208v30.056H0z"/>
        </clipPath>
    </defs>
    <g data-name="그룹 128997">
        <g data-name="그룹 128996" style="clip-path:url(#bru7wj1e6a)" transform="translate(4 12.999)">
            <path data-name="패스 72043" d="M45.426 2.471c.128 1.467.357 3.979.485 5.509.127 1.39.255 2.819.5 5.65.077.74.166 1.722.217 2.193l.089.855-.434.064c-.242.038-.892.089-1.453.127s-1.684.128-2.487.2c-4.438.4-7.435.638-7.474.6a12.3 12.3 0 0 1 .332-1.6c.064-.255.179-.7.242-.981s.192-.74.255-1.021.192-.739.255-1.02.192-.74.256-1.02.191-.765.267-1.084.192-.8.268-1.084c.421-1.684.23-2.462-.688-2.87A24.546 24.546 0 0 0 33.6 6.31c-1.046-.255-2.13-.523-2.385-.587s-.714-.191-.995-.255-.739-.191-1.02-.255-.752-.191-1.046-.268-.752-.178-.994-.242c-.766-.179-1.582-.4-1.99-.523a2.813 2.813 0 0 0-.637-.115 1.029 1.029 0 0 1-.511-.178c-.433-.319-.038-.46 1.684-.6.905-.064 2.244-.178 2.984-.242s2-.179 2.806-.255 2.1-.179 2.869-.255C36.7 2.318 40.491 2 43.156 1.77a13.28 13.28 0 0 0 1.722-.2.508.508 0 0 1 .267-.026c.141.026.217.268.281.931" style="fill:#93e5c2"/>
            <path data-name="패스 72044" d="M22.573 5.213c4.247 1.059 7.932 1.977 8.2 2.04s.689.179.957.243c.9.229 1.619.408 2.015.535a2.708 2.708 0 0 0 .586.115 2.237 2.237 0 0 1 .638.179l.446.191L33.6 15.76c-1.377 5.5-1.862 7.256-2.015 7.282a26.4 26.4 0 0 1-4.527-1.161 45.072 45.072 0 0 1-1.313-5.828c-.077-.382-.192-.931-.243-1.211s-.166-.855-.255-1.276-.2-.994-.255-1.275-.166-.829-.242-1.212a8.372 8.372 0 0 0-.625-2.41 1.5 1.5 0 0 0-.7-.7c-.51-.243-.841-.217-2.767.165-.319.064-.854.179-1.211.243s-1.811.37-3.253.663c-3.711.765-3.341.74-3.252.306.077-.37.192-.829.434-1.811.077-.293.191-.752.255-1.02.179-.689.357-1.429.51-2 .064-.281.166-.664.2-.868s.153-.344.294-.344c.114 0 3.685.867 7.932 1.913" style="fill:#93e5c2"/>
            <path data-name="패스 72045" d="M22.93 10.251c.089.421.217 1.084.293 1.467s.192.931.243 1.211.165.855.255 1.275.2.995.255 1.276c.127.586.306 1.492.5 2.487.077.382.191.956.268 1.275s.191.893.268 1.275.191.931.242 1.212c.281 1.39.408 2.066.421 2.3.025.255-.536.408-4.757 1.225-1.467.293-1.8.357-4.336.88-1.441.293-2.844.586-3.125.637s-.854.166-1.275.255-.995.192-1.275.255-1.4.281-2.487.51-2.206.46-2.487.511-.663.127-.854.178c-.408.115-.523-.051-.74-1.135-.089-.421-.2-1-.255-1.275s-.166-.855-.255-1.276-.2-.994-.255-1.275-.166-.854-.255-1.275-.2-1-.255-1.275l-.243-1.212c-.077-.383-.191-.956-.267-1.275s-.192-.893-.268-1.276-.191-.931-.242-1.211a9.389 9.389 0 0 1-.344-2.326 2.421 2.421 0 0 1 .625-.179c.893-.153 1.683-.306 4.438-.88 1.441-.293 2.844-.586 3.125-.637 1.364-.268 2.078-.421 2.55-.51.281-.051.855-.166 1.276-.256 1.5-.293 1.8-.357 2.486-.51s1.123-.242 2.423-.5c.383-.077 1.34-.281 2.105-.446 2-.434 2-.434 2.206.5" style="fill:#93e5c2"/>
            <path data-name="패스 72046" d="M43.615.112c-.318.064-1.377.179-2.359.255s-2.334.192-3 .255c-1.135.115-1.989.192-5.8.523-.842.064-2.105.179-2.806.243s-1.99.178-2.87.255c-3.124.268-3.634.37-3.991.739a2.4 2.4 0 0 0-.434.727c-.076.2-.2.37-.306.37s-1.824-.421-3.826-.931c-3.622-.905-4.119-.969-4.578-.612-.523.421-.689.88-1.531 4.247-.5 1.951-.931 3.647-.956 3.749-.038.128-.357.268-.867.37-.434.089-1.072.217-1.429.293-.676.141-1.377.281-2.257.472-.306.064-.893.191-1.313.268s-1 .191-1.276.255-.854.179-1.275.255c-1.479.293-1.888.446-2.308.867A1.143 1.143 0 0 0 0 13.758a1.321 1.321 0 0 0 .115.689 1.674 1.674 0 0 1 .191.612c.038.306.128.8.191 1.122.1.523.23 1.161.523 2.615.051.28.345 1.683.638 3.124s.561 2.755.6 2.933.1.549.166.829.179.855.255 1.275c.447 2.322.574 2.615 1.3 2.985.344.178.931.153 2.142-.1l1.279-.257c.382-.077.956-.192 1.275-.268s.893-.191 1.275-.268c1-.191 1.9-.37 2.487-.5.51-.1 1.556-.319 2.551-.511a351.3 351.3 0 0 0 5.611-1.135 35.65 35.65 0 0 1 1.275-.267c.842-.166 1.493-.294 2.36-.5.319-.063.931-.191 1.364-.28 1.148-.243 1.7-.778 1.7-1.7 0-.255.038-.46.1-.46s1.045.243 2.206.523c2.3.587 2.55.587 3.175.013.345-.306.447-.612.944-2.576l.548-2.232.5-.076c.28-.051 1.211-.153 2.091-.23s2.232-.191 3-.268 2.092-.191 2.933-.255c4.668-.4 4.541-.37 5.076-1.02.4-.459.421-.893.23-2.844-.077-.65-.192-1.951-.268-2.895s-.191-2.27-.255-2.933c-.115-1.224-.255-2.78-.51-5.8-.153-1.785-.434-2.665-.88-2.8-.153-.039-.268-.141-.268-.2a5.956 5.956 0 0 0-2.3.012m1.811 2.36c.128 1.466.357 3.979.485 5.509.128 1.39.255 2.818.5 5.65.077.739.166 1.721.217 2.193l.089.855-.433.063c-.242.039-.893.09-1.454.128s-1.683.127-2.487.2c-4.438.4-7.435.638-7.473.6a12.055 12.055 0 0 1 .331-1.594c.064-.255.179-.7.243-.982s.191-.74.255-1.02.191-.74.255-1.02.191-.74.255-1.021.191-.765.268-1.084.191-.8.268-1.084c.42-1.683.229-2.461-.689-2.869A24.03 24.03 0 0 0 33.6 6.31c-1.045-.255-2.129-.523-2.385-.586s-.714-.192-.994-.255-.74-.192-1.02-.255-.753-.192-1.046-.268-.753-.179-1-.243a33.56 33.56 0 0 1-1.989-.522 2.821 2.821 0 0 0-.638-.115 1.028 1.028 0 0 1-.51-.179c-.434-.319-.038-.459 1.683-.6.906-.064 2.245-.179 2.984-.242s2-.179 2.806-.256 2.1-.178 2.869-.255c2.34-.215 6.131-.534 8.796-.764a13.024 13.024 0 0 0 1.722-.2.524.524 0 0 1 .268-.025c.14.025.217.267.28.931M22.573 5.214c4.247 1.058 7.932 1.976 8.2 2.04s.689.179.957.242c.9.23 1.619.408 2.015.536a2.7 2.7 0 0 0 .586.115 2.228 2.228 0 0 1 .638.178l.446.192L33.6 15.76c-1.377 5.5-1.862 7.257-2.015 7.282a26.468 26.468 0 0 1-4.527-1.16 45.158 45.158 0 0 1-1.314-5.828c-.076-.383-.191-.931-.242-1.212s-.166-.854-.255-1.275-.2-1-.255-1.276l-.242-1.211a8.348 8.348 0 0 0-.625-2.41 1.5 1.5 0 0 0-.7-.7c-.51-.242-.841-.217-2.767.166-.319.064-.854.179-1.212.242s-1.811.37-3.252.663c-3.711.766-3.341.74-3.252.307.077-.37.192-.829.434-1.811.076-.294.191-.753.255-1.021.179-.688.357-1.428.51-2 .064-.28.166-.663.2-.867s.153-.344.294-.344c.114 0 3.685.867 7.932 1.913m.357 5.037c.089.421.217 1.084.293 1.467s.192.931.243 1.211.165.855.255 1.275.2.995.255 1.276c.127.586.306 1.492.5 2.487.077.382.191.956.268 1.275s.191.893.268 1.275.191.931.242 1.212c.281 1.39.408 2.066.421 2.3.025.255-.536.408-4.757 1.225-1.467.293-1.8.357-4.336.88-1.441.293-2.844.586-3.125.637s-.854.166-1.275.255-.995.192-1.275.255-1.4.281-2.487.51-2.206.46-2.487.511-.663.127-.854.178c-.408.115-.523-.051-.74-1.135-.089-.421-.2-1-.255-1.275s-.166-.855-.255-1.276-.2-.994-.255-1.275-.166-.854-.255-1.275-.2-1-.255-1.275l-.243-1.212c-.077-.383-.191-.956-.267-1.275s-.192-.893-.268-1.276-.191-.931-.242-1.211a9.389 9.389 0 0 1-.338-2.33 2.421 2.421 0 0 1 .625-.179c.893-.153 1.683-.306 4.438-.88 1.441-.293 2.844-.586 3.125-.637 1.364-.268 2.078-.421 2.55-.51.281-.051.855-.166 1.276-.256 1.5-.293 1.8-.357 2.486-.51s1.123-.242 2.423-.5c.383-.077 1.34-.281 2.105-.446 2-.434 2-.434 2.206.5"/>
        </g>
    </g>
</svg>
