<svg xmlns="http://www.w3.org/2000/svg" width="56" height="56" viewBox="0 0 56 56">
    <defs>
        <clipPath id="2zitf16aaa">
            <path data-name="사각형 26761" style="fill:none" d="M0 0h40.549v40.505H0z"/>
        </clipPath>
    </defs>
    <g data-name="그룹 128952">
        <g data-name="그룹 128951" transform="translate(5 8)" style="clip-path:url(#2zitf16aaa)">
            <path data-name="패스 71925" d="M38.067 17.473c.306.077.587.217.625.319a27.2 27.2 0 0 1 .089 5.088 24.986 24.986 0 0 1-1.084 5.8 15.045 15.045 0 0 1-6.249 8.493 14.135 14.135 0 0 1-3.838 1.467 14.251 14.251 0 0 1-4.553-.064 7.842 7.842 0 0 1-5.318-5.176c-.09-.319-.217-.74-.281-.944a13.412 13.412 0 0 1 .026-3.571 13.182 13.182 0 0 1 6.427-8.812c.5-.268.957-.523 1.02-.574a17.043 17.043 0 0 1 2.168-.906c.2-.051.931-.229 1.595-.408a22.288 22.288 0 0 1 2.231-.472c.561-.089 1.2-.2 1.4-.255a34.482 34.482 0 0 1 5.739.013" style="fill:#93e5c2"/>
            <path data-name="패스 71926" d="M11.081 26.961a1.37 1.37 0 0 1 .536.6 4.959 4.959 0 0 1-.166 3.036 6.672 6.672 0 0 1-1.275 2.4 8.307 8.307 0 0 1-1.263-2.41 4.868 4.868 0 0 1-.306-1.837c0-1.1.166-1.492.727-1.811a2.367 2.367 0 0 1 1.747.026" style="fill:#93e5c2"/>
            <path data-name="패스 71927" d="M35.427 3.291A3.3 3.3 0 0 1 37.1 5.854a2.321 2.321 0 0 1 .025 1.186 2.264 2.264 0 0 0-.14.625 5.774 5.774 0 0 1-1.314 2.36 6.006 6.006 0 0 1-1.415.982c-2.372 1.135-4.808 1.007-6.02-.332-1.543-1.709-.9-3.367 1.8-4.719A7.588 7.588 0 0 0 32.264 4.4a13.771 13.771 0 0 1 1.276-1.135 2.18 2.18 0 0 1 1.887.026" style="fill:#93e5c2"/>
            <path data-name="패스 71928" d="M11.476 9.221c1.875.676 2.869 1.377 3.38 2.372a3.373 3.373 0 0 1 .153 1.99 19.7 19.7 0 0 1-2.487-2.283c-2.538-2.538-2.589-2.64-1.046-2.079" style="fill:#93e5c2"/>
            <path data-name="패스 71929" d="M11.413 12.614A18.063 18.063 0 0 1 13.594 15a2.212 2.212 0 0 1-.816.1 2.278 2.278 0 0 1-1.314-.344c-1.058-.625-1.518-1.3-2.206-3.278-.357-1.02-.383-1.161-.23-1.161.051 0 1.122 1.033 2.385 2.3" style="fill:#93e5c2"/>
            <path data-name="패스 71930" d="M10.966.129c-.242.063-.931.2-1.53.318S8.148.7 7.906.754A15.418 15.418 0 0 1 4.08 1.3c-.74.013-1.62 0-1.964-.038-.791-.077-1.033.191-.88.956a13.342 13.342 0 0 1 .076 1.849 15.412 15.412 0 0 1-.548 3.828c-.051.243-.191.931-.306 1.531S.19 10.752.126 11.058a10.675 10.675 0 0 0 .026 3.431 9.288 9.288 0 0 0 2.423 4.667A11.516 11.516 0 0 0 14.6 22.4a11.99 11.99 0 0 0 7.907-8.174 12.438 12.438 0 0 0-.267-7.096 11.861 11.861 0 0 0-.587-1.275A10.05 10.05 0 0 0 12.65 0a10.97 10.97 0 0 0-1.684.128m3.214 1.53a8.781 8.781 0 0 1 6.045 4.833 9.809 9.809 0 0 1 1.007 5.867 12.957 12.957 0 0 1-.522 2.423 11.014 11.014 0 0 1-2.347 3.571 10.98 10.98 0 0 1-4.145 2.563 10.6 10.6 0 0 1-4.144.37 14.662 14.662 0 0 1-1.6-.255 13.06 13.06 0 0 0-.829-.268 6.4 6.4 0 0 1-1.186-.523 5.142 5.142 0 0 0-.688-.357 14.138 14.138 0 0 1-2.4-2.091 7.845 7.845 0 0 1-1.709-6.53c.2-1.2.51-2.755.651-3.3A22.024 22.024 0 0 0 3 3.878l.025-.893.561.039a22.71 22.71 0 0 0 4.387-.715c.51-.127 1.99-.42 3.189-.637a9.238 9.238 0 0 1 3.022-.013"/>
            <path data-name="패스 71931" d="M6.337 6.339a.886.886 0 0 0-.1.982 12.757 12.757 0 0 1 .778 2.232c.089.319.2.74.268.957 1.117 3.979 2.459 5.69 4.87 6.185a3.917 3.917 0 0 0 4.54-3.252c.382-2.117-1.263-4.464-3.813-5.407-.243-.09-.562-.217-.7-.268a12.57 12.57 0 0 0-1.721-.536c-1.518-.395-1.684-.446-2.36-.676a3.2 3.2 0 0 1-.752-.331.875.875 0 0 0-1.008.114m5.14 2.883c1.874.676 2.869 1.377 3.379 2.372a3.354 3.354 0 0 1 .153 1.989 19.552 19.552 0 0 1-2.488-2.283c-2.538-2.537-2.589-2.639-1.046-2.078m-.064 3.392A18.063 18.063 0 0 1 13.594 15a2.212 2.212 0 0 1-.816.1 2.278 2.278 0 0 1-1.314-.344c-1.058-.625-1.518-1.3-2.206-3.278-.357-1.02-.383-1.161-.23-1.161.051 0 1.122 1.033 2.385 2.3"/>
            <path data-name="패스 71932" d="M33.846 1.416A3.881 3.881 0 0 0 31.7 2.7a8.393 8.393 0 0 1-2.142 1.671c-.345.179-.88.485-1.212.663-1.862 1.008-2.984 3.278-2.436 4.885a5.611 5.611 0 0 0 5.956 3.456 10.163 10.163 0 0 0 2.946-.931A7.054 7.054 0 0 0 38.386 8.6a6.142 6.142 0 0 0-.179-4.68 4.6 4.6 0 0 0-4.361-2.5m1.581 1.875A3.3 3.3 0 0 1 37.1 5.854a2.321 2.321 0 0 1 .025 1.186 2.264 2.264 0 0 0-.14.625 5.774 5.774 0 0 1-1.314 2.36 6.006 6.006 0 0 1-1.415.982c-2.372 1.135-4.808 1.007-6.02-.332-1.543-1.709-.9-3.367 1.8-4.719A7.588 7.588 0 0 0 32.264 4.4a13.771 13.771 0 0 1 1.276-1.135 2.18 2.18 0 0 1 1.887.026"/>
            <path data-name="패스 71933" d="M33.118 5.166a3.607 3.607 0 0 1-.944.714c-.472.23-.548.306-.548.663.013.574.268.842.816.842 1.428 0 2.882-1.836 1.964-2.474-.459-.332-.854-.255-1.288.255"/>
            <path data-name="패스 71934" d="M33.6 15.751a24.675 24.675 0 0 0-3.57.51c-.893.179-1.148.243-2.551.613a22.588 22.588 0 0 0-4.387 1.849 21.645 21.645 0 0 0-3.367 2.55c-.076.128-.433.549-.778.944a15.166 15.166 0 0 0-2.117 3.418.41.41 0 0 1-.089.281 8.724 8.724 0 0 0-.689 2.065 12.56 12.56 0 0 0 .1 5.752 9.776 9.776 0 0 0 1.429 2.882 5.744 5.744 0 0 1 .535.663 9.157 9.157 0 0 0 2.959 2.245 5.989 5.989 0 0 0 2.321.714c.281.026.905.115 1.377.191a4.485 4.485 0 0 0 1.658 0c.434-.063 1.2-.191 1.684-.267a12.28 12.28 0 0 0 4.144-1.607A14.876 14.876 0 0 0 36.09 35.2a11.677 11.677 0 0 0 1.429-2.156c.127-.229.318-.548.408-.7a25.571 25.571 0 0 0 1.339-3.38 34.257 34.257 0 0 0 1.16-6.274 15.012 15.012 0 0 0-.012-3.941c-.268-2.027-.358-2.385-.664-2.538a22.874 22.874 0 0 0-6.147-.459m4.464 1.722c.306.077.587.217.625.319a27.2 27.2 0 0 1 .089 5.088 24.986 24.986 0 0 1-1.084 5.8 15.045 15.045 0 0 1-6.249 8.493 14.135 14.135 0 0 1-3.838 1.467 14.251 14.251 0 0 1-4.553-.064 7.842 7.842 0 0 1-5.318-5.177c-.09-.319-.217-.74-.281-.944a13.412 13.412 0 0 1 .026-3.571 13.182 13.182 0 0 1 6.427-8.812c.5-.268.957-.523 1.02-.574a17.043 17.043 0 0 1 2.168-.906c.2-.051.931-.229 1.595-.408a22.288 22.288 0 0 1 2.231-.472c.561-.089 1.2-.2 1.4-.255a34.482 34.482 0 0 1 5.739.013"/>
            <path data-name="패스 71935" d="M30.606 18.608a14.778 14.778 0 0 0-8.685 3.724 10.571 10.571 0 0 0-3.443 6.631 3.875 3.875 0 0 0-.013 1.607c.179.6.625.855 1.1.651.433-.2.586-.638.586-1.658 0-2.525 1.786-5.446 4.375-7.155a10.071 10.071 0 0 1 3.086-1.441 15.994 15.994 0 0 1 3.38-.727c1.288-.165 1.657-.369 1.657-.905-.012-.714-.573-.906-2.04-.727"/>
            <path data-name="패스 71936" d="M36.511 19.5c-.434.179-.548.536-.548 1.683a32.1 32.1 0 0 1-.447 4.311c-.051.178-.14.574-.217.893-1.109 4.8-3.953 8.213-7.945 9.539a17.221 17.221 0 0 1-2.678.6 2.615 2.615 0 0 0-.791.268c-.624.4-.165 1.454.613 1.454a17.076 17.076 0 0 0 3.621-.791 13.407 13.407 0 0 0 7.754-7.524 21.611 21.611 0 0 0 1.48-5.267 30.375 30.375 0 0 0 .229-4.68c-.064-.243-.586-.664-.765-.6a2.93 2.93 0 0 0-.306.115"/>
            <path data-name="패스 71937" d="M28.961 22.7a9.386 9.386 0 0 0-4.974 4.374c-.637 1.276-.65 1.671-.051 2.028.561.319.842.128 1.378-1a7.577 7.577 0 0 1 4.068-3.775c.944-.344 1.224-.943.714-1.492a.93.93 0 0 0-1.135-.14"/>
            <path data-name="패스 71938" d="M33 22.689c-.2.128-.446.765-.74 1.977a18.462 18.462 0 0 1-1.658 4.017 11.164 11.164 0 0 1-4.132 3.979 16.3 16.3 0 0 1-3.838 1.25 6.544 6.544 0 0 0-2.066.421c-.243.178-.2.9.064 1.147.637.587 4.017-.076 6.338-1.249a12.315 12.315 0 0 0 5.139-4.91 18.374 18.374 0 0 0 1.671-3.954c.089-.319.217-.752.281-.982a2.518 2.518 0 0 0 .038-1.568 1.275 1.275 0 0 0-1.1-.128"/>
            <path data-name="패스 71939" d="M9.5 25.239a2.46 2.46 0 0 0-1.684.919 3.892 3.892 0 0 0-.931 2.423 13.04 13.04 0 0 0 2.347 6.032c.433.625.6.778.931.8.357.039.459-.038.854-.574a20.935 20.935 0 0 0 1.964-3.8 6.211 6.211 0 0 0 .408-3.214 3.138 3.138 0 0 0-.982-1.836 3.261 3.261 0 0 0-2.907-.75m1.581 1.722a1.37 1.37 0 0 1 .536.6 4.959 4.959 0 0 1-.166 3.036 6.672 6.672 0 0 1-1.275 2.4 8.307 8.307 0 0 1-1.263-2.41 4.868 4.868 0 0 1-.306-1.837c0-1.1.166-1.492.727-1.811a2.367 2.367 0 0 1 1.747.026"/>
        </g>
    </g>
</svg>
