<svg xmlns="http://www.w3.org/2000/svg" width="56" height="56" viewBox="0 0 56 56">
    <defs>
        <clipPath id="bhybtaouta">
            <path data-name="사각형 26779" style="fill:none" d="M0 0h29.012v46.064H0z"/>
        </clipPath>
    </defs>
    <g data-name="그룹 128989">
        <g data-name="그룹 128988" style="clip-path:url(#bhybtaouta)" transform="translate(13 5)">
            <path data-name="패스 72024" d="M18.4 14.806c.421.765.982 1.263 1.441 1.263.332 0 .523-.115.944-.6.535-.612.535-.612.739-.344a4.47 4.47 0 0 0 1.132 1.175 1.5 1.5 0 0 0 .6.281 3.92 3.92 0 0 0 1.376-1.281l.192-.318.522.471a4.93 4.93 0 0 0 .957.676c.485.23.574.447.867 2.1a34.165 34.165 0 0 1-.076 7.2c-.332 1.722-.409 2.117-.574 2.678-.077.281-.192.676-.243.893s-.344.982-.637 1.722a24.516 24.516 0 0 1-7.945 10.419A21.33 21.33 0 0 1 14.71 43.1a1.415 1.415 0 0 0-.408.242 11.21 11.21 0 0 1-3.469 1.072 9.121 9.121 0 0 1-4.144-.676C3.36 42.22 1.128 38.33 1.715 35.027a9.5 9.5 0 0 1 4.336-5.955 22.9 22.9 0 0 0 6.749-6.436 27.71 27.71 0 0 0 1.544-2.665 26.86 26.86 0 0 0 1.428-3.749 1.918 1.918 0 0 1 .791-.753 6.822 6.822 0 0 0 1.033-.816c.382-.434.5-.421.8.153" style="fill:#93e5c2"/>
            <path data-name="패스 72025" d="M12.224.165a.9.9 0 0 0-.256 1.035c.128.318.166.331 1.225.331a5.672 5.672 0 0 1 4.655 1.888c.867.956 1.351 1.8 1.237 2.117a.892.892 0 0 1-.434.344 6.812 6.812 0 0 0-.7.319c-.2.1-.523.268-.74.382a5.433 5.433 0 0 0-1.977 2.666 13.261 13.261 0 0 0-.446 2.895 8.618 8.618 0 0 1-.14 1.4c-.077.37-.192.995-.255 1.378a13.636 13.636 0 0 1-.778 2.614.539.539 0 0 0-.1.293 26.352 26.352 0 0 1-1.913 3.8A27.177 27.177 0 0 1 8.7 25.021a23.287 23.287 0 0 1-3.648 2.793 11.667 11.667 0 0 0-4.663 5.854c-.09.319-.217.7-.281.867A11.68 11.68 0 0 0 .122 37.8a11.918 11.918 0 0 0 2.039 4.272 10.422 10.422 0 0 0 3.572 2.971 9.149 9.149 0 0 0 1.721.676 25.486 25.486 0 0 0 2.614.345 12.816 12.816 0 0 0 2.3-.281c.178-.051.574-.178.893-.268a16.928 16.928 0 0 0 2.907-1.4 30.462 30.462 0 0 0 7.652-6.887 12.239 12.239 0 0 0 .918-1.314 4.87 4.87 0 0 1 .485-.816 23.476 23.476 0 0 0 1.811-3.584 1.074 1.074 0 0 1 .115-.369 12.643 12.643 0 0 0 .779-2.194c.088-.319.2-.714.254-.893a27.548 27.548 0 0 0 .778-7.651 11.014 11.014 0 0 1-.141-1.467 10.481 10.481 0 0 0-.191-1.594 29.744 29.744 0 0 1-.268-1.4 26.67 26.67 0 0 0-1.722-5.216c-1.147-2.563-2.219-3.915-3.647-4.591-.331-.166-.714-.344-.829-.408a1.8 1.8 0 0 0-.65-.115c-.485 0-.727-.217-.982-.893a11.057 11.057 0 0 0-1.939-2.754A6.95 6.95 0 0 0 13.665 0a3.863 3.863 0 0 0-1.441.165m9.615 7.142c1.429.5 2.181 1.454 3.571 4.553.753 1.683.791 2.627.038 1.084a2.507 2.507 0 0 0-.586-.829c-.651-.344-1.148.038-1.148.88-.013.587-.332 1.428-.587 1.505-.153.051-.612-.931-.829-1.811-.165-.689-.548-1.212-.88-1.212s-.714.5-.956 1.212-.523 1.212-.689 1.212a3.746 3.746 0 0 1-.65-1.582 1.784 1.784 0 0 0-.255-.689c-.217-.357-.319-.42-.663-.382-.37.038-.459.14-.88.956-.485.957-.829 1.4-.969 1.263a18.753 18.753 0 0 1 .395-3.813 3.3 3.3 0 0 1 1.9-2.066 3.445 3.445 0 0 1 1.811-.434 5 5 0 0 1 1.377.153m-3.443 7.5c.421.765.982 1.263 1.441 1.263.332 0 .523-.115.944-.6.535-.612.535-.612.739-.344a4.47 4.47 0 0 0 1.136 1.174 1.5 1.5 0 0 0 .6.281 3.92 3.92 0 0 0 1.376-1.281l.192-.318.522.471a4.93 4.93 0 0 0 .957.676c.485.23.574.447.867 2.1a34.165 34.165 0 0 1-.076 7.2c-.332 1.722-.409 2.117-.574 2.678-.077.281-.192.676-.243.893s-.344.982-.637 1.722a24.516 24.516 0 0 1-7.945 10.419A21.33 21.33 0 0 1 14.71 43.1a1.415 1.415 0 0 0-.408.242 11.21 11.21 0 0 1-3.469 1.072 9.121 9.121 0 0 1-4.144-.676C3.36 42.22 1.128 38.33 1.715 35.027a9.5 9.5 0 0 1 4.336-5.955 22.9 22.9 0 0 0 6.749-6.436 27.71 27.71 0 0 0 1.544-2.665 26.86 26.86 0 0 0 1.428-3.749 1.918 1.918 0 0 1 .791-.753 6.822 6.822 0 0 0 1.033-.816c.382-.434.5-.421.8.153"/>
            <path data-name="패스 72026" d="M6.115 30.62a7.288 7.288 0 0 0-2.538 3.431 6.821 6.821 0 0 0 .255 5.05 7.142 7.142 0 0 0 4.757 3.877 8.637 8.637 0 0 0 3.52-.2 21.588 21.588 0 0 0 6.606-4.311 25.715 25.715 0 0 0 3.061-3.609c.217-.4.191-.472-.179-.854-.6-.587-.816-.472-2.079 1.1a20.609 20.609 0 0 1-3.774 3.686 20.148 20.148 0 0 1-4.044 2.364 6.938 6.938 0 0 1-3.392-.025 5.287 5.287 0 0 1-2.934-2.615 4.728 4.728 0 0 1-.229-3.826 4.779 4.779 0 0 1 1.607-2.41c.867-.689.892-.727.892-1.135 0-.74-.88-1.046-1.53-.523"/>
        </g>
    </g>
</svg>
