<svg xmlns="http://www.w3.org/2000/svg" width="56" height="56" viewBox="0 0 56 56">
    <defs>
        <clipPath id="g76o8wv5ca">
            <path data-name="사각형 26760" style="fill:none" d="M0 0h43.08v47.194H0z"/>
        </clipPath>
    </defs>
    <g data-name="그룹 128950">
        <g data-name="그룹 128949" style="clip-path:url(#g76o8wv5ca)" transform="translate(6 4.001)">
            <path data-name="패스 71920" d="M14.985 33.528c.561.255.676.37 1.084 1.084a3.493 3.493 0 0 1 .332 2.551 4.634 4.634 0 0 1-1.454 2.5c-.638.574-.906.689-2.882 1.288a3.541 3.541 0 0 1-3.482-.982c-.663-.663-.676-.688-.676-1.428a1.459 1.459 0 0 1 .574-1.39 5.474 5.474 0 0 1 1.454-1.11 9.109 9.109 0 0 0 2.538-1.874 1.954 1.954 0 0 1 2.512-.638" style="fill:#93e5c2"/>
            <path data-name="패스 71921" d="M21.383 20.8c.025 2.219-.013 2.908-.128 3.01a8.363 8.363 0 0 1-1.186.446c-.561.191-2.372.8-4.017 1.377s-4 1.365-5.229 1.786c-3.583 1.211-7.4 2.512-8.315 2.844a2.643 2.643 0 0 1-.918.242 37.967 37.967 0 0 1 .039-5.241 2.293 2.293 0 0 1 .726-.4c.345-.123 1.084-.404 1.645-.608 1.237-.472 2.69-1.007 4.144-1.556.6-.217 1.531-.574 2.079-.778s1.454-.548 2.041-.765 1.479-.548 2-.752c1.058-.4 2.436-.919 4.081-1.531.6-.229 1.428-.535 1.849-.7a3.818 3.818 0 0 1 .956-.281c.166.026.192.459.23 2.908" style="fill:#93e5c2"/>
            <path data-name="패스 71922" d="M4.5.192A6.719 6.719 0 0 0 4.336 2.5c0 2.028-.012 2.155-.306 2.653-.574.982-3.8 5.747-3.915 5.79C.051 10.968 0 18.327 0 28.95c0 14.679.026 17.982.166 18.084.166.14 8.774.178 33.923.153h6.594l.127-.332a11.68 11.68 0 0 0 .268-1.823c.076-.817.178-1.964.242-2.564s.166-1.747.243-2.55c.165-1.773.357-3.7.522-5.421.077-.7.192-1.874.256-2.614s.191-1.938.255-2.678.191-1.913.255-2.614.153-1.492.2-1.76a1.3 1.3 0 0 0-.077-.791l-.166-.319-5.56-.025-5.56-.039-.039-6.147-.025-6.147-2.164-3.252-2.168-3.264V2.7c0-1.722-.038-2.193-.2-2.423L26.9 0H15.776C6.339.013 4.63.039 4.5.192m21.26 2.742v1.4H5.867V1.531h19.895zm-.855 3.022a18.126 18.126 0 0 1-1.492 2.4l-1.543 2.3-9.782.039c-5.394.012-9.794 0-9.794-.026 0-.064 2.882-4.374 3.086-4.642.1-.115 2.219-.153 9.807-.153 5.318 0 9.693.038 9.718.089m3.061 2.691c.676 1.033 1.237 1.926 1.237 1.977a19.851 19.851 0 0 1-2.678.089 20 20 0 0 1-2.678-.089 27.778 27.778 0 0 1 2.716-3.915 17.023 17.023 0 0 1 1.4 1.938M21.4 14.156l.026 1.85-1.11.42c-1.084.421-2 .766-4.119 1.556-.561.2-1.48.549-2.041.765s-1.479.549-2.04.766-1.48.548-2.041.765-1.479.548-2.04.765-1.48.548-2.041.765-1.492.561-2.066.778l-1.658.625c-.332.125-.624.2-.663.153-.1-.1-.089-10.929.013-11.031.038-.051 4.5-.077 9.909-.064l9.833.038zm8.57-1.67a53.874 53.874 0 0 1 .128 5.5 53.9 53.9 0 0 1-.128 5.5c-.127.229-.293.242-2.755.242h-2.6l-.115.293c-.115.281-.064 1.059.242 4.171.077.739.192 1.938.255 2.678.153 1.556.332 3.494.51 5.292.077.7.192 1.875.256 2.615s.178 1.913.255 2.614c.306 3.2.369 4.209.28 4.3a7.479 7.479 0 0 1-1.7.076l-1.578-.047-.039-16.579c-.012-9.118 0-16.655.039-16.745.038-.114.854-.153 3.43-.153 3.214 0 3.393.013 3.52.243M21.4 20.8c.026 2.219-.013 2.907-.128 3.009a8.318 8.318 0 0 1-1.186.447c-.561.191-2.372.8-4.017 1.377s-4 1.365-5.229 1.786c-3.583 1.211-7.4 2.512-8.315 2.843a2.631 2.631 0 0 1-.918.243 37.983 37.983 0 0 1 .039-5.242 2.3 2.3 0 0 1 .726-.4c.345-.128 1.084-.408 1.646-.612 1.237-.472 2.69-1.008 4.144-1.556.6-.217 1.531-.574 2.079-.778s1.454-.548 2.041-.765 1.479-.549 2-.753c1.058-.4 2.436-.918 4.081-1.53.6-.23 1.428-.536 1.849-.7a3.773 3.773 0 0 1 .956-.281c.166.026.192.459.23 2.908m19.971 5.177c-.025.409-.115 1.289-.178 1.952s-.151 1.561-.191 1.969a3.312 3.312 0 0 1-.14.829c-.038.051-2.92.1-6.4.14l-6.325.064-.077.318c-.115.447-.013.855.242.982.115.051 2.959.128 6.326.166 6.032.064 6.121.064 6.1.319-.026.14-.1.944-.179 1.785s-.191 2.079-.255 2.742c-.14 1.378-.319 3.214-.5 5.127-.191 2.079-.268 2.819-.332 3.125l-.051.293h-5.664c-5.267 0-5.662-.013-5.752-.23a14.559 14.559 0 0 1-.2-1.619c-.217-2.347-.357-3.89-.5-5.229-.166-1.76-.357-3.7-.51-5.293-.064-.739-.179-1.938-.255-2.678s-.192-1.887-.255-2.55l-.2-2.079-.09-.854h15.452zM21.4 35.607l-.038 10.113H1.6V32.24l2.1-.688c1.16-.383 2.219-.753 2.359-.817s1.314-.472 2.614-.892 2.475-.829 2.615-.893 1.313-.472 2.614-.906 3.482-1.186 4.846-1.657 2.525-.855 2.589-.868.077 4.54.064 10.088"/>
            <path data-name="패스 71923" d="M13.391 31.806A4.646 4.646 0 0 0 11.4 33.12a8.173 8.173 0 0 1-2.474 1.734c-2.168 1.174-3.1 3.24-2.27 5.012a5.536 5.536 0 0 0 2.156 2.181 5.558 5.558 0 0 0 3.137.421 7.188 7.188 0 0 0 4.336-2.079 5.942 5.942 0 0 0 1.7-4.833 4.589 4.589 0 0 0-1.339-2.768 3.538 3.538 0 0 0-1.951-.982c-.766-.2-.7-.2-1.3 0m1.594 1.722c.561.255.676.37 1.084 1.084a3.493 3.493 0 0 1 .332 2.551 4.634 4.634 0 0 1-1.454 2.5c-.638.574-.906.689-2.882 1.288a3.541 3.541 0 0 1-3.482-.982c-.663-.663-.676-.688-.676-1.428a1.459 1.459 0 0 1 .574-1.39 5.474 5.474 0 0 1 1.454-1.11 9.109 9.109 0 0 0 2.538-1.874 1.954 1.954 0 0 1 2.512-.638"/>
            <path data-name="패스 71924" d="M12.8 35.275a2.124 2.124 0 0 1-.7.561c-.562.293-.625.434-.46.982.154.472.485.6 1.135.421a2.079 2.079 0 0 0 1.505-1.658c0-.638-1.109-.867-1.479-.306"/>
        </g>
    </g>
</svg>
