<svg xmlns="http://www.w3.org/2000/svg" width="56" height="56" viewBox="0 0 56 56">
    <defs>
        <clipPath id="5atocfhkja">
            <path data-name="사각형 26767" transform="translate(0 .001)" style="fill:none" d="M0 0h39.7v39.765H0z"/>
        </clipPath>
    </defs>
    <g data-name="그룹 128965">
        <g data-name="그룹 128964" style="clip-path:url(#5atocfhkja)" transform="translate(8 8)">
            <path data-name="패스 71971" d="M21.846 2.165a11.49 11.49 0 0 1 2.869 2.525 12.913 12.913 0 0 1 2.207 4.821 23.491 23.491 0 0 1 .114 5.216c-.535 4.31-.051 7.2 1.518 9.169.434.536.485.7.242.765a15.859 15.859 0 0 0-5.063 2.194 5.533 5.533 0 0 1-.918.561c-.408 0-.586-3.788-.382-7.779.178-3.329.1-4.107-.523-5.357a6.489 6.489 0 0 0-3.24-2.946 7.77 7.77 0 0 0-1.632-.624c-.625 0-.893-.256-1.352-1.25a11.885 11.885 0 0 0-2.538-3.648 12.074 12.074 0 0 1-.88-.9c.064-.064 1.684-.778 2.079-.918.7-.243 2.155-.651 2.87-.8a9.365 9.365 0 0 0 2.742-.892 8.645 8.645 0 0 1 1.16-.5 2.807 2.807 0 0 1 .727.37" style="fill:#93e5c2"/>
            <path data-name="패스 71972" d="M27.228 4.193a3.643 3.643 0 0 0 .574.268c.242.1.905.446 1.466.765a17.9 17.9 0 0 1 7.7 9.042c.778 2-.344 5.2-2.589 7.333a12.7 12.7 0 0 1-2.639 1.887c-.715.37-.766.383-1.072.179a6.606 6.606 0 0 1-1.989-3.647 19.9 19.9 0 0 1 0-4.847 24.244 24.244 0 0 0 0-5.088A14.685 14.685 0 0 0 26.6 4.461c-.4-.459-.382-.536.064-.447a2.644 2.644 0 0 1 .561.179" style="fill:#93e5c2"/>
            <path data-name="패스 71973" d="M9.488 5.723c.217.064.638.191.931.281a5.363 5.363 0 0 1 2.347 1.81 14.885 14.885 0 0 1 1.772 3.163 4.211 4.211 0 0 1-.484.855 9.476 9.476 0 0 0-1.633 3.979 8.059 8.059 0 0 0 1.02 5.713c.893 1.594 1.3 1.913 1.926 1.5.549-.357.523-.714-.127-1.786a6.487 6.487 0 0 1-1.225-3.966 6.083 6.083 0 0 1 .281-2.1 9.247 9.247 0 0 1 1.237-2.538c.293-.4.357-.421.867-.357a6.746 6.746 0 0 1 3.239 1.734 3.935 3.935 0 0 1 1.008 1.582 4.6 4.6 0 0 1 .2 2.423 46.562 46.562 0 0 0 .306 10.355c.077.281.166.676.2.893a8.68 8.68 0 0 0 .906 2.168 6.475 6.475 0 0 0 1.525 2.168 6.827 6.827 0 0 0 4.63 2.1c.357 0 .663.051.663.115a10.786 10.786 0 0 1-2.627 1.3 13.91 13.91 0 0 1-5.025.842 6.334 6.334 0 0 1-4.693-1.225 11.282 11.282 0 0 1-4.859-6.132 37.468 37.468 0 0 0-.281-.944 3.6 3.6 0 0 1-.115-.892c-.012-.638-.216-.944-.739-1.046a.6.6 0 0 0-.663.2c-.268.268-.281.37-.2 1.161A10.7 10.7 0 0 0 11.5 33.78a16.424 16.424 0 0 0 1.632 2.18c.039.039.243.256.447.485l.382.421-.382-.14A18.831 18.831 0 0 1 6.1 30.655a19.137 19.137 0 0 1-2.143-4 4.444 4.444 0 0 0-.255-.7 2.249 2.249 0 0 1-.178-.51c-.051-.217-.153-.637-.217-.956a19.24 19.24 0 0 1 .013-7.78c.076-.382.191-.994.267-1.339a23.3 23.3 0 0 0 .383-3.124 17.946 17.946 0 0 0-.395-3.125c-.077-.28-.179-.65-.217-.829a8.159 8.159 0 0 0-.438-1.013 2.25 2.25 0 0 1-.306-.779 1.879 1.879 0 0 1 .663-.179c.345-.051.931-.153 1.314-.216s1.148-.166 1.7-.23a4.151 4.151 0 0 0 1.071-.191 6.339 6.339 0 0 1 2.13.038" style="fill:#93e5c2"/>
            <path data-name="패스 71974" d="M37.966 22.187a14.256 14.256 0 0 1-1.594 5.981 17.752 17.752 0 0 1-3.443 4.77c-.855.842-.919.88-1.824 1.058a6.6 6.6 0 0 1-2.819.039 6.168 6.168 0 0 1-4.7-3.648l-.4-.829.434-.446c1.135-1.212 3.035-2.13 6.351-3.1a16.26 16.26 0 0 0 4.017-1.926 12.987 12.987 0 0 0 3.647-3.94l.307-.574.038.7c.025.383.013 1.25-.013 1.913" style="fill:#93e5c2"/>
            <path data-name="패스 71975" d="M20.482.111A11.858 11.858 0 0 1 18.007 1.3c-.484.127-1.135.267-2.091.471a15.32 15.32 0 0 0-3.1 1.033c-.344.153-.778.345-.956.421a7.686 7.686 0 0 0-.842.5c-.51.331-.574.344-2.806.4-1.25.038-2.652.127-3.112.2a29.042 29.042 0 0 1-3.379.472C.281 4.894 0 5.021 0 5.57a1.447 1.447 0 0 0 .485.995 6.217 6.217 0 0 1 .778 1.173c.166.331.344.714.408.829a1.271 1.271 0 0 1 .115.472.413.413 0 0 0 .114.318c.319.2.434 3.89.153 5.14-.076.37-.191.944-.267 1.275s-.179.931-.268 1.314a23.488 23.488 0 0 0-.217 4.9 16.939 16.939 0 0 0 1.8 6.963 24.422 24.422 0 0 0 1.607 2.678c.038.039.242.294.446.574a27.5 27.5 0 0 0 4.732 4.413 17.3 17.3 0 0 0 3.673 1.9.33.33 0 0 1 .267.115.722.722 0 0 0 .358.178c.165.038.522.141.8.217a19.507 19.507 0 0 0 5.344.727 10.174 10.174 0 0 0 2.423-.077 4.593 4.593 0 0 1 .969-.191 7.548 7.548 0 0 0 1.211-.191c.281-.064.689-.166.893-.2a4.288 4.288 0 0 0 .638-.192c.14-.051.459-.165.7-.255s.7-.267 1.02-.408.715-.318.893-.4a5.377 5.377 0 0 0 .638-.357c.178-.115.548-.344.829-.5a22.466 22.466 0 0 0 6.44-6.441c.153-.28.383-.65.5-.829a5.228 5.228 0 0 0 .357-.637c.077-.179.256-.574.4-.893s.319-.778.408-1.02.2-.561.255-.7a4.767 4.767 0 0 0 .191-.637c.039-.217.141-.613.2-.893a16.774 16.774 0 0 0 .408-4.336 17.31 17.31 0 0 0-.42-4.464c-.077-.357-.179-.829-.217-1.058a.939.939 0 0 0-.179-.485.322.322 0 0 1-.115-.255 2.72 2.72 0 0 0-.242-.727 23.654 23.654 0 0 1-.408-.982 8.883 8.883 0 0 0-.523-1.058 5.449 5.449 0 0 1-.357-.676 24.386 24.386 0 0 0-1.454-2.155 44.039 44.039 0 0 0-3.342-3.394 16.4 16.4 0 0 0-1.811-1.3 27.1 27.1 0 0 0-3.073-1.493 1.362 1.362 0 0 1-.4-.127 8.657 8.657 0 0 0-.51-.255 1.38 1.38 0 0 0-.561-.128.521.521 0 0 1-.383-.115 1.156 1.156 0 0 0-.548-.178 3.639 3.639 0 0 1-2.015-.727A7.941 7.941 0 0 0 22.1.367C21.872.265 21.68.15 21.68.1c0-.141-1.122-.128-1.2.012m1.364 2.054a11.494 11.494 0 0 1 2.87 2.525 12.924 12.924 0 0 1 2.206 4.82 23.549 23.549 0 0 1 .115 5.216c-.536 4.311-.051 7.206 1.517 9.17.434.536.485.7.243.765a15.839 15.839 0 0 0-5.063 2.194 5.566 5.566 0 0 1-.919.561c-.408 0-.586-3.788-.382-7.78.178-3.328.1-4.106-.523-5.356a6.486 6.486 0 0 0-3.239-2.946 7.817 7.817 0 0 0-1.633-.625c-.625 0-.892-.255-1.352-1.25a11.878 11.878 0 0 0-2.537-3.647 12.041 12.041 0 0 1-.88-.9c.063-.064 1.683-.778 2.078-.919.7-.242 2.156-.65 2.87-.8a9.336 9.336 0 0 0 2.742-.893 8.576 8.576 0 0 1 1.16-.5 2.791 2.791 0 0 1 .727.37m5.382 2.027a3.6 3.6 0 0 0 .574.268c.242.1.905.447 1.466.765a17.9 17.9 0 0 1 7.7 9.042c.778 2-.344 5.2-2.589 7.333a12.7 12.7 0 0 1-2.639 1.888c-.715.37-.766.382-1.072.178a6.606 6.606 0 0 1-1.989-3.647 19.841 19.841 0 0 1 0-4.846 24.254 24.254 0 0 0 0-5.089A14.7 14.7 0 0 0 26.6 4.46c-.4-.459-.383-.535.064-.446a2.659 2.659 0 0 1 .561.178M9.488 5.723c.217.064.638.191.931.28a5.369 5.369 0 0 1 2.347 1.811 14.9 14.9 0 0 1 1.773 3.163 4.184 4.184 0 0 1-.485.855 9.488 9.488 0 0 0-1.632 3.978 8.061 8.061 0 0 0 1.02 5.714c.893 1.594 1.3 1.913 1.926 1.5.548-.357.522-.714-.128-1.786a6.488 6.488 0 0 1-1.224-3.966 6.082 6.082 0 0 1 .28-2.1 9.247 9.247 0 0 1 1.237-2.538c.294-.4.357-.421.868-.357a6.755 6.755 0 0 1 3.239 1.734 3.925 3.925 0 0 1 1.007 1.582 4.58 4.58 0 0 1 .2 2.423 46.685 46.685 0 0 0 .306 10.355c.077.281.166.676.2.893a8.654 8.654 0 0 0 .905 2.168 6.477 6.477 0 0 0 1.527 2.168 6.826 6.826 0 0 0 4.629 2.1c.357 0 .663.051.663.115a10.824 10.824 0 0 1-2.627 1.3 13.932 13.932 0 0 1-5.025.842 6.334 6.334 0 0 1-4.693-1.225 11.293 11.293 0 0 1-4.859-6.132c-.089-.319-.217-.74-.28-.944a3.6 3.6 0 0 1-.115-.892c-.013-.638-.217-.944-.74-1.046a.606.606 0 0 0-.663.2c-.268.268-.28.37-.2 1.16A10.7 10.7 0 0 0 11.5 33.78a16.424 16.424 0 0 0 1.633 2.18c.038.039.242.255.446.485l.383.421-.383-.141a18.82 18.82 0 0 1-7.479-6.07 19.129 19.129 0 0 1-2.142-4 4.552 4.552 0 0 0-.255-.7 2.241 2.241 0 0 1-.179-.51c-.051-.217-.153-.638-.217-.956a19.24 19.24 0 0 1 .013-7.78c.076-.382.191-.995.268-1.339a23.307 23.307 0 0 0 .382-3.124 17.851 17.851 0 0 0-.395-3.125c-.076-.28-.179-.65-.217-.829a8.118 8.118 0 0 0-.433-1.007 2.227 2.227 0 0 1-.31-.785 1.872 1.872 0 0 1 .663-.179c.344-.051.931-.153 1.313-.217s1.148-.165 1.7-.229a4.163 4.163 0 0 0 1.072-.191 6.333 6.333 0 0 1 2.129.038m28.474 16.465a14.256 14.256 0 0 1-1.594 5.981 17.752 17.752 0 0 1-3.443 4.77c-.855.842-.919.88-1.824 1.058a6.6 6.6 0 0 1-2.819.039 6.168 6.168 0 0 1-4.7-3.648l-.4-.829.434-.446c1.135-1.212 3.035-2.13 6.351-3.1a16.26 16.26 0 0 0 4.017-1.926 12.987 12.987 0 0 0 3.647-3.94l.307-.574.038.7c.025.383.013 1.25-.013 1.913"/>
        </g>
    </g>
</svg>
