<svg xmlns="http://www.w3.org/2000/svg" width="56" height="56" viewBox="0 0 56 56">
    <defs>
        <clipPath id="ls4rk0dkta">
            <path data-name="사각형 26793" style="fill:none" d="M0 0h42.562v55.063H0z"/>
        </clipPath>
    </defs>
    <g data-name="그룹 129017">
        <g data-name="그룹 129016" style="clip-path:url(#ls4rk0dkta)" transform="translate(7)">
            <path data-name="패스 72106" d="M18.841 9.9c2.551.88 4.846 3.29 6.4 6.683.268.6.548 1.173.612 1.3.115.2.651 1.964.944 3.1.089.345.242 1.148.331 1.786a12.768 12.768 0 0 0 .268 1.517 2.861 2.861 0 0 1 .115.7c.013 1.02.931 3.239 2.385 5.751a14.831 14.831 0 0 1 1.951 9.119 14 14 0 0 1-3.061 7.779 16.321 16.321 0 0 1-8.735 5.522c-.345.077-1.314.2-2.13.294a14.9 14.9 0 0 1-8.951-2.184 15.461 15.461 0 0 1-6.912-9.246 14.314 14.314 0 0 1-.434-4.846 15.325 15.325 0 0 1 2.181-6.759 20.04 20.04 0 0 0 1.786-3.826c.216-.855.471-1.964.612-2.806a29.624 29.624 0 0 1 .931-4.272c1.1-3.648 3.3-7.053 5.56-8.6A6.05 6.05 0 0 1 16.737 9.7a7.053 7.053 0 0 1 2.1.191" style="fill:#93e5c2"/>
            <path data-name="패스 72107" d="M15.181.191a1.592 1.592 0 0 0-.051 1.275c.344.37.982 4.668.893 5.93l-.051.574-.638.115a10.37 10.37 0 0 0-4.056 1.862 13.821 13.821 0 0 0-3.111 3.533 17.718 17.718 0 0 0-1.684 3.111A29.289 29.289 0 0 0 5.2 20.6c-.076.421-.191.995-.255 1.275s-.178.88-.255 1.339a16.992 16.992 0 0 1-2.461 6.759c-.2.383-.51.931-.663 1.212a4.949 4.949 0 0 0-.345.765c-.038.14-.217.65-.395 1.148s-.388 1.233-.477 1.654-.2.994-.268 1.275A26.453 26.453 0 0 0 .2 41.192a16.366 16.366 0 0 0 4.935 9.157 19.823 19.823 0 0 0 3 2.346c.179.09.574.306.893.485a17 17 0 0 0 4.91 1.683 28.435 28.435 0 0 0 5.229.128c.28-.077.854-.2 1.275-.281a15.583 15.583 0 0 0 4.91-1.964 14.346 14.346 0 0 0 3.265-2.678 14.67 14.67 0 0 0 3.226-4.476 13.967 13.967 0 0 0 1.4-4.081 17.426 17.426 0 0 0-.5-8.3c-.153-.421-.357-1.008-.472-1.327a3.525 3.525 0 0 0-.293-.7c-.051-.077-.268-.447-.472-.829s-.51-.931-.676-1.212a13.339 13.339 0 0 1-1.9-5.33c-.077-.472-.2-1.237-.281-1.722a14.567 14.567 0 0 0-.5-2.194c-.051-.178-.166-.574-.255-.892a11.888 11.888 0 0 0-.715-1.977c-.153-.357-.4-.906-.535-1.237a27.535 27.535 0 0 0-1.849-3.15 14.334 14.334 0 0 0-3.085-3.064 7.384 7.384 0 0 0-3.354-1.415 5.2 5.2 0 0 1-.676-.192 2.328 2.328 0 0 1-.114-.931 10.6 10.6 0 0 0-.128-1.607 3.421 3.421 0 0 1-.064-.829c.039-.038.37.23.74.574a16.3 16.3 0 0 0 3.851 2.832 22.093 22.093 0 0 0 2.87 1.275 17.366 17.366 0 0 0 2.869.778c.5.089 1.186.217 1.531.293a23.819 23.819 0 0 0 3.379.051 24.517 24.517 0 0 0 5.165-.459 26.617 26.617 0 0 0 3.252-.778c.243-.076.587-.166.765-.2a.864.864 0 0 0 .766-.8c0-.255-.268-.587-1.11-1.416a20.411 20.411 0 0 0-3.609-2.895A21.492 21.492 0 0 0 31.722.892l-.893-.255c-.306-.089-.74-.165-2.87-.523A26.96 26.96 0 0 0 21.073.5c-.281.064-.765.191-1.084.255-.549.128-1.11.281-1.786.472a2.016 2.016 0 0 0-.446.178c-.255.192-.956.281-.956.128a4.7 4.7 0 0 0-.332-.842C16.176.063 16.112 0 15.742 0a.876.876 0 0 0-.561.191m13.544 1.581a25.094 25.094 0 0 1 3.57.893c.141.064.6.242 1.021.408a24.38 24.38 0 0 1 3.507 1.875 33.794 33.794 0 0 1 3.188 2.512 1.424 1.424 0 0 0 .077.23c.038.127-.051.2-.294.255-.191.038-.612.14-.931.2a25.147 25.147 0 0 1-6.185.74 16.674 16.674 0 0 1-5.1-.409 16.914 16.914 0 0 1-4.145-1.441 19.325 19.325 0 0 1-3.188-2.053A14.38 14.38 0 0 1 18.2 2.958c0-.229 3.6-1.173 4.5-1.186a5.775 5.775 0 0 0 1.046-.114 26.627 26.627 0 0 1 4.974.114m-11.159.4a.128.128 0 0 1-.128.127.137.137 0 0 1-.127-.127.127.127 0 0 1 .127-.128.121.121 0 0 1 .128.128m1.28 7.728c2.551.88 4.846 3.29 6.4 6.683.268.6.548 1.173.612 1.3.115.2.651 1.964.944 3.1.089.345.242 1.148.331 1.786a12.768 12.768 0 0 0 .268 1.517 2.861 2.861 0 0 1 .115.7c.013 1.02.931 3.239 2.385 5.751a14.831 14.831 0 0 1 1.951 9.119 14 14 0 0 1-3.061 7.779 16.321 16.321 0 0 1-8.735 5.522c-.345.077-1.314.2-2.13.294a14.9 14.9 0 0 1-8.951-2.184 15.461 15.461 0 0 1-6.912-9.246 14.314 14.314 0 0 1-.434-4.846 15.325 15.325 0 0 1 2.181-6.759 20.04 20.04 0 0 0 1.786-3.826c.216-.855.471-1.964.612-2.806a29.624 29.624 0 0 1 .931-4.272c1.1-3.648 3.3-7.053 5.56-8.6A6.05 6.05 0 0 1 16.737 9.7a7.053 7.053 0 0 1 2.1.191"/>
            <path data-name="패스 72108" d="M22.374 36.7c-.7.765.332 1.9 1.059 1.173a.941.941 0 0 0 .255-.574.791.791 0 0 0-1.314-.6"/>
            <path data-name="패스 72109" d="M24.924 43.59a1.027 1.027 0 0 0-.064 1.148 1.059 1.059 0 0 0 1.2-.077c.587-.765-.5-1.785-1.135-1.071"/>
            <path data-name="패스 72110" d="M21.354 46.4a1.027 1.027 0 0 0-.065 1.148 1.112 1.112 0 0 0 .638.153c.523 0 .74-.242.74-.8a.776.776 0 0 0-1.313-.5"/>
        </g>
    </g>
</svg>
