<svg xmlns="http://www.w3.org/2000/svg" width="56" height="56" viewBox="0 0 56 56">
    <defs>
        <clipPath id="zo6wbs4ixa">
            <path data-name="사각형 26789" style="fill:none" d="M0 0h53.142v22.859H0z"/>
        </clipPath>
    </defs>
    <g data-name="그룹 129009">
        <g data-name="그룹 129008" transform="translate(1 17.29)" style="clip-path:url(#zo6wbs4ixa)">
            <path data-name="패스 72087" d="M42.264 5.433c.332.058.871.172 1.181.229a20.349 20.349 0 0 1 6.646 2.51 9.631 9.631 0 0 1 2.235 2.177l.367.573-.229.367c-.114.206-.538.9-.94 1.558l-.71 1.169-.7-.412a19.681 19.681 0 0 0-5.237-2.143 51.488 51.488 0 0 0-7.621.023c-4.389.275-7.368.355-15.16.423-4.7.046-7.758.035-7.827-.034s.115-.252.47-.481a12.816 12.816 0 0 0 1.191-.94c.585-.527.653-.562 1.261-.562a8.126 8.126 0 0 0 2.338-.424c1.7-.47 1.971-1.914.492-2.635a3.831 3.831 0 0 0-2.074-.355l-1.432-.046-.482-.47a2.62 2.62 0 0 1-.492-.562c0-.149 25.99-.115 26.723.034" transform="translate(-1.446 -.538)" style="fill:#93e5c2"/>
            <path data-name="패스 72088" d="M12.363 5.964c1.157.779 1.787 1.444 1.8 1.9a1.754 1.754 0 0 1-.217 1.146 11.107 11.107 0 0 1-3.874 2.464 1.61 1.61 0 0 1-.974.161l-.377-.081.435-.447a6.121 6.121 0 0 0 1.344-2.06c.161-.5.173-.607.023-.894s-.218-.321-.631-.287c-.458.034-.481.046-.928.917-.653 1.284-2 2.5-2.8 2.5A12 12 0 0 1 1.97 10.1c-.275-.183-.321-.287-.263-.573A4.743 4.743 0 0 1 4.33 7.053a19.9 19.9 0 0 1 6.612-1.6c.572-.012.7.034 1.421.516" transform="translate(-.171 -.553)" style="fill:#93e5c2"/>
            <path data-name="패스 72089" d="M53.911 19.933a3.3 3.3 0 0 1-1.237 2.017c-.94.722-.928.722-5.157.79a100.774 100.774 0 0 1-16.811-.962c-.378-.058-.917-.137-1.2-.183s-.791-.114-1.112-.172-.894-.172-1.237-.229c-1.811-.332-3.736-.733-4.366-.928a2.52 2.52 0 0 0-.539-.1.345.345 0 0 1-.263-.126 38.358 38.358 0 0 1 5.466-.058c5.306.058 7.838.137 12.652.412 4.893.275 5.763.309 6.44.217a8.61 8.61 0 0 0 6.165-4.629c.172-.321.527-.9.791-1.317l.47-.734L54 16.61a24 24 0 0 1-.092 3.323" transform="translate(-2.23 -1.413)" style="fill:#93e5c2"/>
            <path data-name="패스 72090" d="m16.158.093-.86.229a9.63 9.63 0 0 0-3.781 2.372c-.447.458-.768.7-.952.7a4.508 4.508 0 0 0-.745.1c-.263.058-.871.172-1.341.252-3.335.539-6.016 1.708-7.4 3.22A3.186 3.186 0 0 0 0 9.17c0 .55.034.63.492 1.066.779.779 2.074 1.271 4.721 1.821a39.54 39.54 0 0 0 4.469.5c3.037.252 9.305.344 15.126.229 5.741-.126 7.322-.183 12.147-.481 4.378-.263 5.788-.195 7.461.355a15.888 15.888 0 0 1 3.988 1.96c.206.207.206.217-.035.55a7.9 7.9 0 0 1-2.452 2.006c-1.524.733-1.581.745-7.013.424-.939-.058-3.048-.161-4.675-.218s-3-.148-3.06-.183-2.819-.068-6.153-.068c-6.119-.012-7.266.046-8.606.435-.917.264-1.2.837-.653 1.272s4.057 1.41 7.563 2.086c.378.069.894.172 1.147.229.572.126 1.581.3 2.692.458.47.069 1.147.173 1.49.229.585.092 1.077.161 3.724.447a105.176 105.176 0 0 0 12.032.55 36.081 36.081 0 0 0 5.386-.321.411.411 0 0 1 .252-.1 5.737 5.737 0 0 0 1.846-1.261 4.339 4.339 0 0 0 1.168-2.177A74.506 74.506 0 0 0 53 10.854a7.741 7.741 0 0 0-1.089-2.36A17.293 17.293 0 0 0 41.6.254C40.749.025 40.577.013 28.648 0 21.1-.01 16.409.025 16.158.093m24.316 1.353a13.677 13.677 0 0 1 1.753.458c.126.058.538.207.917.355a15.613 15.613 0 0 1 3.38 1.926c.034.046.332.3.665.573a2.609 2.609 0 0 1 .6.6c0 .092-.161.046-.974-.31-.47-.194-1.9-.664-2.865-.939-.757-.207-1.215-.31-2.693-.6-.424-.081-5.111-.127-14.462-.115-9.087 0-13.842-.034-13.842-.1A9.086 9.086 0 0 1 14.9 1.938c1.271-.572 1.317-.584 13.545-.6 7.448-.012 11.631.034 12.032.1m.343 3.45c.332.057.871.172 1.181.229a20.333 20.333 0 0 1 6.646 2.51 9.631 9.631 0 0 1 2.235 2.177l.367.572-.229.367c-.114.207-.538.906-.939 1.559l-.711 1.169-.7-.412a19.651 19.651 0 0 0-5.237-2.143 51.325 51.325 0 0 0-7.621.022c-4.389.275-7.368.356-15.16.424-4.7.046-7.758.034-7.827-.034s.115-.252.47-.482a12.64 12.64 0 0 0 1.192-.94c.584-.527.653-.561 1.26-.561a8.126 8.126 0 0 0 2.338-.424c1.7-.47 1.971-1.914.492-2.635a3.829 3.829 0 0 0-2.077-.348l-1.432-.046-.482-.47a2.6 2.6 0 0 1-.492-.562c0-.148 25.99-.114 26.723.035m-28.625.516c1.157.779 1.787 1.443 1.8 1.9a1.754 1.754 0 0 1-.217 1.146A11.12 11.12 0 0 1 9.9 10.923a1.615 1.615 0 0 1-.974.16L8.549 11l.435-.447a6.133 6.133 0 0 0 1.341-2.063c.161-.5.173-.607.023-.894s-.218-.321-.631-.286c-.458.034-.481.046-.928.917-.653 1.283-2 2.5-2.8 2.5A12 12 0 0 1 1.8 9.547c-.275-.183-.321-.286-.263-.572A4.744 4.744 0 0 1 4.159 6.5a19.871 19.871 0 0 1 6.612-1.6c.572-.012.7.034 1.421.516m5.283 2.108c0 .252-1.536.492-1.765.287-.137-.137-.137-.195-.012-.344.207-.252 1.776-.206 1.776.058m34.206 11a3.3 3.3 0 0 1-1.237 2.017c-.94.722-.928.722-5.157.79a100.774 100.774 0 0 1-16.811-.962c-.378-.058-.917-.137-1.2-.183s-.791-.114-1.112-.172-.894-.172-1.237-.229c-1.811-.332-3.736-.733-4.366-.928a2.52 2.52 0 0 0-.539-.1.345.345 0 0 1-.263-.126 38.358 38.358 0 0 1 5.466-.058c5.306.058 7.838.137 12.652.412 4.893.275 5.763.309 6.44.217a8.61 8.61 0 0 0 6.165-4.629c.172-.321.527-.9.791-1.317l.47-.734.034 2.682a24 24 0 0 1-.092 3.323"/>
            <path data-name="패스 72091" d="M7.563 5.652c-1.295.436-1.673.94-1.146 1.5.309.321.71.321 1.455-.023.631-.3.791-.562.619-1.02a.7.7 0 0 0-.928-.458"/>
        </g>
    </g>
</svg>
