<svg xmlns="http://www.w3.org/2000/svg" width="56" height="56" viewBox="0 0 56 56">
    <defs>
        <clipPath id="f4a34uwhra">
            <path data-name="사각형 26796" style="fill:none" d="M0 0h39.453v43.532H0z"/>
        </clipPath>
    </defs>
    <g data-name="그룹 129023">
        <g data-name="그룹 129022" style="clip-path:url(#f4a34uwhra)" transform="translate(8 6)">
            <path data-name="패스 72124" d="M15.886 12.805c.166.064.612.179 1 .268a10.168 10.168 0 0 1 3.073 1.415 8.165 8.165 0 0 0 1.033.613.79.79 0 0 0 1-.5c.191-.472.025-.727-.842-1.288-1.02-.638-.931-.752.357-.446 3.125.752 7.053 4.157 8.609 7.473a14.942 14.942 0 0 1 1.441 6.95 16.183 16.183 0 0 1-.51 4.426c-.064.268-.179.676-.243.905a18.4 18.4 0 0 1-1.709 3.507 16.433 16.433 0 0 1-3.379 3.558 12.5 12.5 0 0 1-3.38 1.824 1.229 1.229 0 0 0-.484.14 1.917 1.917 0 0 1-.778.09l-.523-.039.689-.433a15.582 15.582 0 0 0 4.323-4.732c.676-1.1.778-1.555.421-1.938a.876.876 0 0 0-1.161-.013 17.322 17.322 0 0 0-.918 1.5 6.416 6.416 0 0 1-.561.791 11.669 11.669 0 0 1-8.175 4.948 8.68 8.68 0 0 1-2.742-.051 7.07 7.07 0 0 1-2.933-.829 13.835 13.835 0 0 1-6.249-6.326c-.293-.6-.587-1.186-.65-1.3a1.281 1.281 0 0 1-.115-.472.412.412 0 0 0-.115-.319.82.82 0 0 1-.179-.421c-.051-.2-.14-.65-.216-.995s-.192-1.186-.255-1.849-.141-1.352-.179-1.53a23.135 23.135 0 0 1 .319-3.7 23.539 23.539 0 0 1 1.173-3.7 15.053 15.053 0 0 1 6.874-6.861 3.31 3.31 0 0 1 .791-.281.36.36 0 0 0 .268-.127c.038-.077.267-.128.484-.14a1.925 1.925 0 0 0 .663-.115 17.069 17.069 0 0 1 3.788-.013" style="fill:#93e5c2"/>
            <path data-name="패스 72125" d="M25.234.09a10.416 10.416 0 0 0-5.025 2.334 8.186 8.186 0 0 0-1.543 2.206c-.127.345-.344.51-1.122.88-1.071.51-1.033.523-1.39-.6a7.741 7.741 0 0 0-.5-1.212c-.153-.28-.382-.714-.522-.956A7.238 7.238 0 0 0 13.743.906a.713.713 0 0 0-.854.153c-.344.37-.255.74.37 1.582a13.511 13.511 0 0 1 .893 1.4 21.814 21.814 0 0 1 1.186 3.673 15.977 15.977 0 0 1 .395 2.831c0 .688.013.676-1.084.484a11.849 11.849 0 0 0-3.443.268A10.831 10.831 0 0 0 8.4 12.32a11.34 11.34 0 0 0-2.1 1.25 29.75 29.75 0 0 1-.931.816 16.082 16.082 0 0 0-3.533 4.553 14.078 14.078 0 0 0-.778 1.747c-.064.166-.166.421-.229.574A26.466 26.466 0 0 0 .1 24.04a54.755 54.755 0 0 0-.013 6.313c.051.2.166.7.242 1.084a17.113 17.113 0 0 0 1.518 4.17A7.564 7.564 0 0 0 2.61 36.9a.224.224 0 0 1 .115.2.847.847 0 0 0 .229.408c.115.127.383.472.6.752a19.352 19.352 0 0 0 3.1 3.035 11.625 11.625 0 0 0 2.576 1.39c.178.077.421.179.536.243a1.289 1.289 0 0 0 .471.114.411.411 0 0 1 .319.115c.141.23 1.225.294 5.306.357a44.969 44.969 0 0 0 5.164-.089A12.725 12.725 0 0 0 28.04 39.9a16.977 16.977 0 0 0 4.935-9.488 32.254 32.254 0 0 0-.013-6.377 17.422 17.422 0 0 0-2.062-5.682c-1.836-3.189-5.1-5.969-7.83-6.683-.2-.064-.727-.2-1.148-.332a10.889 10.889 0 0 0-2.691-.229L17.3 11.1l-.1-1.084c-.051-.6-.1-1.4-.115-1.773-.013-.7-.013-.7.561-1.045.944-.574 1.046-.574 1.671.051a7.931 7.931 0 0 0 3.609 2.011 17.665 17.665 0 0 0 4.565-.013c1.021-.242 2.436-.638 2.717-.753.14-.063.6-.242 1.02-.408.74-.28 3.112-1.466 4.017-1.989 1.2-.7 2.321-1.416 3.227-2.041s.982-.739.982-1.122c0-.51-.1-.6-1.084-.931a43.533 43.533 0 0 0-7.4-1.836A33.537 33.537 0 0 0 25.234.09m5.305 1.569a33.913 33.913 0 0 1 4.579.956c.522.153 1.122.306 1.313.345.23.038.344.14.319.255a22.843 22.843 0 0 1-4.183 2.6 15.839 15.839 0 0 1-2.334 1.008.531.531 0 0 0-.28.1 2.88 2.88 0 0 1-.7.268c-.319.1-.714.216-.893.267a10.032 10.032 0 0 1-3.239.409 5.737 5.737 0 0 1-2.372-.281A6.1 6.1 0 0 1 20.528 6.3c-.6-.51-.6-.931-.025-1.836 1.224-1.9 3.736-2.946 7.167-2.985a23.16 23.16 0 0 1 2.869.179M15.886 12.805c.166.064.612.179 1 .268a10.168 10.168 0 0 1 3.073 1.415 8.165 8.165 0 0 0 1.033.613.79.79 0 0 0 1-.5c.191-.472.025-.727-.842-1.288-1.02-.638-.931-.752.357-.446 3.125.752 7.053 4.157 8.609 7.473a14.942 14.942 0 0 1 1.441 6.95 16.183 16.183 0 0 1-.51 4.426c-.064.268-.179.676-.243.905a18.4 18.4 0 0 1-1.709 3.507 16.433 16.433 0 0 1-3.379 3.558 12.5 12.5 0 0 1-3.38 1.824 1.229 1.229 0 0 0-.484.14 1.917 1.917 0 0 1-.778.09l-.523-.039.689-.433a15.582 15.582 0 0 0 4.323-4.732c.676-1.1.778-1.555.421-1.938a.876.876 0 0 0-1.161-.013 17.322 17.322 0 0 0-.918 1.5 6.416 6.416 0 0 1-.561.791 11.669 11.669 0 0 1-8.175 4.948 8.68 8.68 0 0 1-2.742-.051 7.07 7.07 0 0 1-2.933-.829 13.835 13.835 0 0 1-6.249-6.326c-.293-.6-.587-1.186-.65-1.3a1.281 1.281 0 0 1-.115-.472.412.412 0 0 0-.115-.319.82.82 0 0 1-.179-.421c-.051-.2-.14-.65-.216-.995s-.192-1.186-.255-1.849-.141-1.352-.179-1.53a23.135 23.135 0 0 1 .319-3.7 23.539 23.539 0 0 1 1.173-3.7 15.053 15.053 0 0 1 6.874-6.861 3.31 3.31 0 0 1 .791-.281.36.36 0 0 0 .268-.127c.038-.077.267-.128.484-.14a1.925 1.925 0 0 0 .663-.115 17.069 17.069 0 0 1 3.788-.013"/>
            <path data-name="패스 72126" d="M26.585 25.622a2.408 2.408 0 0 0-.115 1.178c.038.944.064 1.008.4 1.2a.556.556 0 0 0 .7 0c.319-.191.344-.255.383-1.2.038-1.16-.064-1.352-.74-1.352a.935.935 0 0 0-.625.179"/>
        </g>
    </g>
</svg>
