<svg xmlns="http://www.w3.org/2000/svg" width="56" height="56" viewBox="0 0 56 56">
    <defs>
        <clipPath id="6vmus4bcna">
            <path data-name="사각형 26786" style="fill:none" d="M0 0h41.814v43.6H0z"/>
        </clipPath>
    </defs>
    <g data-name="그룹 129003">
        <g data-name="그룹 129002" style="clip-path:url(#6vmus4bcna)" transform="translate(7 6)">
            <path data-name="패스 72065" d="M32.023 2.071c1.377.344 1.9.536 1.9.689a2.827 2.827 0 0 1-.51.6l-.5.5-.753-.714a7.038 7.038 0 0 0-1.275-.982c-.969-.5-.587-.523 1.135-.089" style="fill:#93e5c2"/>
            <path data-name="패스 72066" d="M27.942 2.964c1.811.395 3.124 1.084 3.456 1.811.14.306.089.383-.893 1.365L29.46 7.185l-.664-.65a10.188 10.188 0 0 0-7.2-2.729 4.078 4.078 0 0 1-1.314-.1 6.182 6.182 0 0 1 2.3-.931 28.294 28.294 0 0 1 5.369.191" style="fill:#93e5c2"/>
            <path data-name="패스 72067" d="M36.448 4.048a8.881 8.881 0 0 1 3.673 5.242c.191.93.153 2.091-.077 2.231-.051.039-.191-.242-.318-.612a9.855 9.855 0 0 0-5.089-5.751l-.5-.23.688-.689a6.18 6.18 0 0 1 .791-.688 4.307 4.307 0 0 1 .829.5" style="fill:#93e5c2"/>
            <path data-name="패스 72068" d="M22.088 5.463a11.392 11.392 0 0 1 3.329.829 6.259 6.259 0 0 1 2.537 1.8c.141.306.1.383-.994 1.467l-1.16 1.133-.561-.268a3.884 3.884 0 0 0-3.112.064c-.357.178-.739.408-.854.484-.179.128-.357.064-1.084-.446-.472-.344-1.862-1.288-3.074-2.1L14.9 6.93l.383-.332c.548-.5 1.7-.8 4.043-1.071.778-.09 1.466-.166 1.53-.179s.625.051 1.237.115" style="fill:#93e5c2"/>
            <path data-name="패스 72069" d="M33.5 6.5a7.208 7.208 0 0 1 2.882 1.938A9.92 9.92 0 0 1 38.3 11.84c.038.178.166.714.268 1.211a9.757 9.757 0 0 1 .2 1.849 3.091 3.091 0 0 1-.5 1.913 4.561 4.561 0 0 1-.6.982c-.064.026-.191-.268-.28-.625A15.407 15.407 0 0 0 33.6 10.5a22.341 22.341 0 0 0-2.33-1.849 1.2 1.2 0 0 1-.344-.2c-.242-.191-.217-.229.765-1.135C32.75 6.33 32.9 6.254 33.5 6.5" style="fill:#93e5c2"/>
            <path data-name="패스 72070" d="m16.783 10.22 3.3 2.219.064 1.2a4.547 4.547 0 0 0 .306 1.632l.229.434-1.272 1.274-1.262 1.263-.97-.23a3.716 3.716 0 0 0-1.9-.064 15.783 15.783 0 0 0-3.622 1.11c-.816.395-.9.357-1.377-.638a6.448 6.448 0 0 1-.689-2.627 16.376 16.376 0 0 1 .31-4.119 6.965 6.965 0 0 1 1.7-2.053c.229-.217.726-.664 1.084-.995a4.657 4.657 0 0 1 .726-.612c.039 0 1.556.994 3.38 2.206" style="fill:#93e5c2"/>
            <path data-name="패스 72071" d="M30.008 9.812a13.276 13.276 0 0 1 4.515 4.731c1.045 1.811 2.066 5.6 1.606 5.88a3 3 0 0 1-.994-.485c-.485-.293-1.671-1.008-2.615-1.594s-2.435-1.48-3.315-2-1.684-1.046-1.786-1.135c-.14-.141-.166-.434-.14-1.25a4.918 4.918 0 0 0-.128-1.543l-.165-.447 1.2-1.211c.663-.663 1.225-1.212 1.25-1.212s.281.128.574.268" style="fill:#93e5c2"/>
            <path data-name="패스 72072" d="M7.907 15.411a7.462 7.462 0 0 0 1.224 4.425 1.736 1.736 0 0 1 .306.523A11.258 11.258 0 0 1 8.086 21.6c-1.084.893-1.4 1.1-1.569.995a7.227 7.227 0 0 1-1.217-2.44c-.267-1.466-.255-1.62.243-2.538.421-.778.765-1.352 1.811-3.009.165-.256.357-.472.42-.472a2.971 2.971 0 0 1 .128 1.275" style="fill:#93e5c2"/>
            <path data-name="패스 72073" d="M27.865 17.451c.421.255 1.173.714 1.658 1.02.995.612 2.142 1.314 3.379 2.079a13.408 13.408 0 0 1 2.168 1.441 24.723 24.723 0 0 1-2.7 3.074c-1.722 1.772-1.773 1.785-4.056 1.568a15.86 15.86 0 0 1-4.144-.816 20.329 20.329 0 0 1-4.183-2.053l-.625-.472.1-.906a6.713 6.713 0 0 0 0-2.257l-.1-.7 1.288-1.263 1.272-1.266.548.2a4.231 4.231 0 0 0 1.34.216 2.749 2.749 0 0 0 1.59-.426l.8-.421.446.255c.243.14.791.459 1.212.727" style="fill:#93e5c2"/>
            <path data-name="패스 72074" d="M4.323 22.234a8.142 8.142 0 0 0 .727 1.288l.344.446-1.568 1.582c-1.492 1.492-1.964 1.8-1.671 1.071.064-.166.242-.791.395-1.39a19.865 19.865 0 0 1 1.339-3.826 5.641 5.641 0 0 1 .434.829" style="fill:#93e5c2"/>
            <path data-name="패스 72075" d="M19.385 25.371a25.832 25.832 0 0 0 4.221 2.029 20.3 20.3 0 0 0 4.579.931l.573.025-.956.727c-.523.395-1.3.918-1.709 1.173l-.752.447-1.416-.064c-3.01-.128-5.356-.765-6.81-1.836-.51-.383-.51-.587.013-1.288a13.213 13.213 0 0 0 .969-1.556 6.256 6.256 0 0 1 .625-.982 3.6 3.6 0 0 1 .663.4" style="fill:#93e5c2"/>
            <path data-name="패스 72076" d="M16.349 30.243a11.391 11.391 0 0 0 1.62.905 14.317 14.317 0 0 0 3.736.97c.268 0 .485.051.485.1 0 .242-2.589 1.2-4.209 1.556-.382.089-.829.2-.994.267a2.608 2.608 0 0 1-.766.115 3.582 3.582 0 0 0-.905.128 22.232 22.232 0 0 1-4.17.089 16.158 16.158 0 0 1 1.836-2.028c1.059-1.071 2.041-2.1 2.194-2.308a1.744 1.744 0 0 1 .319-.344 9.7 9.7 0 0 1 .854.548" style="fill:#93e5c2"/>
            <path data-name="패스 72077" d="M26.641.031a4.385 4.385 0 0 1-.893.2 22.466 22.466 0 0 0-3.877.957c-.2.089-.638.267-.956.395A47.833 47.833 0 0 0 16.094 4.1a44.191 44.191 0 0 0-4.987 3.788 33.988 33.988 0 0 0-3.966 4.336 6.038 6.038 0 0 1-.382.51c-.128.1-1.3 1.862-1.862 2.806a43.364 43.364 0 0 0-3.571 8.1c-.1.421-.242.931-.306 1.148a37.167 37.167 0 0 0-.62 2.547c-.077.421-.2 1.008-.268 1.314S0 31.314 0 33.929c0 4.348.012 4.744.229 4.9a.851.851 0 0 0 1.186-.179c.179-.191.574-.688.893-1.109.778-1.046.765-1.033 1.645-2.1.434-.522 1.479-1.7 2.321-2.588 3.392-3.6 5.879-5.357 8.443-5.956 1.122-.255 1.058-.089-.7 2.015a66.977 66.977 0 0 1-4.871 4.935L8.034 34.86v3.953c0 2.168.051 4.017.1 4.094.115.166.383.268 1.275.51a27.207 27.207 0 0 0 5.675.064 73.12 73.12 0 0 1 1.365-.281 37.237 37.237 0 0 0 4.183-1.262c.153-.077.408-.179.574-.243a50.561 50.561 0 0 0 5.573-2.92c1.186-.74 4.642-3.214 4.846-3.456a9.67 9.67 0 0 1 .638-.523 29.25 29.25 0 0 0 5.065-5.196c.408-.548.8-1.071.892-1.16a36.473 36.473 0 0 0 1.99-3.38c.115-.255.306-.676.408-.918s.268-.638.37-.867a14.715 14.715 0 0 0 .485-1.428c.28-.995.293-1.187.331-6.721.026-5.408.013-5.752-.229-6.67a9.307 9.307 0 0 0-2.538-4.306 12.12 12.12 0 0 0-2.5-2.027A14.9 14.9 0 0 0 34.127 1a.322.322 0 0 1-.255-.115.825.825 0 0 0-.421-.178c-.2-.038-.612-.14-.931-.217a18.269 18.269 0 0 0-3.954-.472 15.164 15.164 0 0 0-1.925.013m5.381 2.041c1.378.344 1.9.535 1.9.688a2.855 2.855 0 0 1-.51.6l-.5.5-.752-.714a6.96 6.96 0 0 0-1.276-.982c-.969-.5-.586-.523 1.135-.089m-4.08.892c1.81.4 3.124 1.084 3.456 1.811.14.306.089.383-.893 1.365l-1.043 1.042-.663-.65a10.19 10.19 0 0 0-7.2-2.729 4.044 4.044 0 0 1-1.314-.1 6.2 6.2 0 0 1 2.3-.931 28.387 28.387 0 0 1 5.37.191m8.506 1.084a8.881 8.881 0 0 1 3.663 5.24c.191.931.153 2.091-.077 2.232-.051.038-.191-.243-.319-.613a9.853 9.853 0 0 0-5.088-5.751l-.5-.23.689-.688a6.324 6.324 0 0 1 .791-.689 4.4 4.4 0 0 1 .829.5M22.088 5.464a11.377 11.377 0 0 1 3.328.829 6.263 6.263 0 0 1 2.538 1.8c.141.306.1.383-.994 1.467l-1.16 1.133-.561-.268a3.884 3.884 0 0 0-3.112.064c-.357.178-.74.408-.854.484-.179.128-.357.064-1.084-.446-.472-.345-1.862-1.288-3.074-2.1L14.9 6.93l.383-.331c.548-.5 1.7-.8 4.042-1.071.778-.09 1.467-.166 1.531-.179s.625.051 1.237.115M33.5 6.5a7.215 7.215 0 0 1 2.882 1.938 9.942 9.942 0 0 1 1.913 3.4c.038.179.166.715.268 1.212a9.757 9.757 0 0 1 .2 1.849 3.085 3.085 0 0 1-.5 1.913 4.533 4.533 0 0 1-.6.982c-.064.026-.191-.268-.28-.625A15.417 15.417 0 0 0 33.6 10.5a22.207 22.207 0 0 0-2.33-1.848 1.2 1.2 0 0 1-.344-.2c-.243-.191-.217-.23.765-1.135C32.749 6.331 32.9 6.255 33.5 6.5m-16.717 3.721 3.3 2.219.063 1.2a4.547 4.547 0 0 0 .306 1.632l.23.434-1.272 1.274-1.263 1.262-.969-.229a3.717 3.717 0 0 0-1.9-.064 15.752 15.752 0 0 0-3.622 1.11c-.816.4-.906.357-1.377-.638a6.432 6.432 0 0 1-.689-2.627 16.372 16.372 0 0 1 .31-4.119 6.942 6.942 0 0 1 1.7-2.054c.23-.216.727-.663 1.084-.994a4.678 4.678 0 0 1 .727-.613c.038 0 1.556.995 3.38 2.207m13.225-.408a13.266 13.266 0 0 1 4.514 4.731c1.046 1.811 2.066 5.6 1.607 5.879a2.985 2.985 0 0 1-1-.484c-.484-.294-1.67-1.008-2.614-1.595s-2.436-1.479-3.316-2-1.683-1.046-1.785-1.135c-.141-.14-.166-.433-.141-1.25a4.9 4.9 0 0 0-.127-1.543l-.166-.446 1.2-1.212c.663-.663 1.224-1.211 1.25-1.211s.28.127.574.268m-5.272 2.166a1.931 1.931 0 0 1 .7 2.729 2.011 2.011 0 0 1-3.724-.753 2.034 2.034 0 0 1 3.022-1.976m-16.832 3.43a7.46 7.46 0 0 0 1.225 4.426 1.735 1.735 0 0 1 .306.522A11.129 11.129 0 0 1 8.085 21.6c-1.084.893-1.4 1.1-1.569.995a7.246 7.246 0 0 1-1.216-2.44c-.268-1.466-.255-1.619.242-2.538.421-.777.765-1.351 1.811-3.009.166-.255.357-.472.421-.472a3 3 0 0 1 .127 1.275m19.959 2.041c.421.255 1.173.714 1.658 1.02.995.612 2.142 1.314 3.379 2.079a13.325 13.325 0 0 1 2.168 1.441 24.747 24.747 0 0 1-2.7 3.073c-1.722 1.773-1.773 1.786-4.056 1.569a15.9 15.9 0 0 1-4.144-.816 20.278 20.278 0 0 1-4.183-2.054l-.625-.471.1-.906a6.713 6.713 0 0 0 0-2.257l-.1-.7 1.288-1.262 1.277-1.268.548.2a4.2 4.2 0 0 0 1.34.217 2.751 2.751 0 0 0 1.594-.433l.8-.421.446.255c.243.14.791.459 1.212.727M40.3 18.472a9.158 9.158 0 0 1-.574 3.762 19.4 19.4 0 0 1-1.594 3.443 4.962 4.962 0 0 0-.408.7 19.125 19.125 0 0 1-1.212 1.723 28.087 28.087 0 0 1-5.778 5.931c-.318.242-.6.472-.637.51a6.039 6.039 0 0 1-.51.382 3.7 3.7 0 0 0-.51.4c-.128.153-3.622 2.448-4.643 3.035a38.067 38.067 0 0 1-3.609 1.811c-.165.064-.446.178-.637.255a16.552 16.552 0 0 1-1.633.6 21.986 21.986 0 0 1-2.359.638c-.319.077-.893.2-1.275.293a19.759 19.759 0 0 1-5.076 0c-.281-.153-.281-.2-.281-3.009a20.333 20.333 0 0 1 .1-2.908 6.17 6.17 0 0 1 1.276.025 28.917 28.917 0 0 0 3.06-.068 21.223 21.223 0 0 0 4.617-.715 33.339 33.339 0 0 0 3.252-1.058c.217-.089.638-.268.957-.4a32.994 32.994 0 0 0 3.749-1.977 39.423 39.423 0 0 0 7.55-6.326c.765-.829 1.428-1.53 1.466-1.568s.447-.561.906-1.174a39.4 39.4 0 0 0 3.112-5.1 3.966 3.966 0 0 1 .6-.994 8.893 8.893 0 0 1 .089 1.785M16.974 19.62c.791.217.931.5.918 1.76a6.813 6.813 0 0 1-.918 3.315c-.268.536-.281.536-.969.536-2.309 0-5.051 1.288-7.907 3.7a58.265 58.265 0 0 0-5.356 5.523 11.188 11.188 0 0 1-1.11 1.237 18.119 18.119 0 0 1-.1-2.793V30.09l2.716-2.716c4.413-4.438 6.874-6.428 8.979-7.257a6.983 6.983 0 0 1 3.749-.5M4.323 22.234a8.142 8.142 0 0 0 .727 1.288l.344.447-1.568 1.581c-1.493 1.492-1.964 1.8-1.671 1.071.064-.166.242-.791.395-1.39a19.865 19.865 0 0 1 1.339-3.826 5.641 5.641 0 0 1 .434.829m15.061 3.137A25.832 25.832 0 0 0 23.6 27.4a20.3 20.3 0 0 0 4.579.931l.574.026-.957.726c-.523.4-1.3.919-1.709 1.174l-.752.446-1.416-.064c-3.009-.127-5.356-.765-6.81-1.836-.51-.383-.51-.587.013-1.288a13.13 13.13 0 0 0 .969-1.556 6.256 6.256 0 0 1 .625-.982 3.664 3.664 0 0 1 .663.4m-3.035 4.872a11.391 11.391 0 0 0 1.62.905 14.317 14.317 0 0 0 3.736.97c.268 0 .485.051.485.1 0 .242-2.589 1.2-4.209 1.556-.382.089-.829.2-.994.267a2.608 2.608 0 0 1-.766.115 3.582 3.582 0 0 0-.905.128 22.232 22.232 0 0 1-4.17.089 16.158 16.158 0 0 1 1.836-2.028c1.059-1.071 2.041-2.1 2.194-2.308a1.744 1.744 0 0 1 .319-.344 9.7 9.7 0 0 1 .854.548"/>
        </g>
    </g>
</svg>
