<svg xmlns="http://www.w3.org/2000/svg" width="56" height="56" viewBox="0 0 56 56">
    <defs>
        <clipPath id="ufjmjwc5xa">
            <path data-name="사각형 26787" style="fill:none" d="M0 0h53.75v19.937H0z"/>
        </clipPath>
    </defs>
    <g data-name="그룹 129005">
        <g data-name="그룹 129004" transform="translate(1 18.031)" style="clip-path:url(#ufjmjwc5xa)">
            <path data-name="패스 72078" d="M61.244 3.106a20.183 20.183 0 0 1-.467 2.08 15.672 15.672 0 0 0-.509 2.652 19.128 19.128 0 0 0 1.071 4.381 2.985 2.985 0 0 1 .2.658c0 .222-.52.18-1.178-.075a13.026 13.026 0 0 1-2.748-1.284 1.453 1.453 0 0 1 .255-.435 2.663 2.663 0 0 0 .71-2.069 2.684 2.684 0 0 0-.319-1.548 3.861 3.861 0 0 0-1.241-1.517c-.329-.212-.265-.287.754-.839.413-.212 1.294-.764 1.962-1.22 1.167-.8 1.39-.9 1.507-.785" transform="translate(-9.557 -.515)" style="fill:#93e5c2"/>
            <path data-name="패스 72079" d="M26.053 5.817c1.581.223 3.48.488 4.562.647.382.053 1.029.148 1.432.2s1.051.138 1.432.2c.7.106 1.475.233 2.79.434 1.538.234 2.165.329 2.779.425 1.03.17 5.326.434 6.366.4a2.8 2.8 0 0 0 1.411-.275 1.267 1.267 0 0 1 1.581.222 1.694 1.694 0 0 1 .668 1.39c0 .4-.063.541-.456.976l-.467.509-.87-.106a11.659 11.659 0 0 0-4.488.531 28.339 28.339 0 0 0-2.9 1.442c-3.2 1.8-4.4 2.154-8.753 2.556-1.1.1-1.7.171-3.554.435a45.149 45.149 0 0 1-7 0c-2.822-.265-3.5-.382-3.214-.562a1.016 1.016 0 0 1 .456-.095 4.76 4.76 0 0 0 1.729-.52c.774-.393 1.274-1.061 1.125-1.517a2.414 2.414 0 0 0-1.315-.838 14.975 14.975 0 0 0-4.244.032c-.615.191-.838.541-.626 1 .17.349 0 .329 2.62.19a4.492 4.492 0 0 1 1.294.032c0 .191-1 .35-2.218.35-1.389 0-1.453.032-1.517.636-.032.34-.064.372-.35.361-.987-.042-2.154-.4-1.772-.541a6.413 6.413 0 0 0 .658-.467c1.453-1.146 1.655-2.769.583-4.615A6.628 6.628 0 0 0 11.922 7.3c-.371 0-.181-.18.265-.255.244-.032.732-.116 1.082-.17a96.776 96.776 0 0 1 4.4-.647c1.708-.212 2.493-.3 4.085-.413.87-.064 1.612-.149 1.645-.17a13.525 13.525 0 0 1 2.652.17" transform="translate(-1.971 -.945)" style="fill:#93e5c2"/>
            <path data-name="패스 72080" d="M9.948 7.74a.435.435 0 0 1-.159.223c-.276.233-.181.52.413 1.156a5.246 5.246 0 0 1 1.284 1.981c.435 1.273-.223 2.143-2.111 2.8a1.36 1.36 0 0 1-1.061.052 23.553 23.553 0 0 0-2.344-.477 9.616 9.616 0 0 1-2.281-.552c-.774-.3-.87-.4-.361-.4a3.166 3.166 0 0 0 .785-.106c.35-.1.393-.085.785.319.339.35.477.424.827.424a.935.935 0 0 0 .785-1.475 5.145 5.145 0 0 0-.81-.885c-.542-.509-.711-.6-1.04-.6a3.109 3.109 0 0 1-1.47-.4c-.085-.257 2.388-1.223 4.31-1.679.616-.148 1.273-.318 1.442-.36.425-.128 1.008-.138 1.008-.022" transform="translate(-.506 -1.287)" style="fill:#93e5c2"/>
            <path data-name="패스 72081" d="M25.525.383a7.959 7.959 0 0 0-2.282 2.292l-.456.711h-.922c-.5 0-1.413.052-2.027.106s-1.591.159-2.175.223-1.368.148-1.75.2-1.092.149-1.591.212c-1.348.17-3.384.488-4.085.636-.232.053-.71.149-1.061.212-.774.149-1.452.3-1.984.435-.223.053-.582.138-.794.191a21.024 21.024 0 0 0-3.586 1.254A11 11 0 0 0 .658 8.181c-.425.467-.3 1.358.2 1.358.275 0 .731.223.668.329a.838.838 0 0 1-.488.095c-.615 0-1.04.287-1.04.69 0 .255.138.446.7.977a6.331 6.331 0 0 0 1.253.923 10.268 10.268 0 0 0 2.5.806 3.079 3.079 0 0 1 .636.1c.2.053.732.149 1.166.223a7.7 7.7 0 0 1 1.624.5 10.192 10.192 0 0 0 1.22.477c.541.138 2.046.446 3.045.616.35.063.9.159 1.22.212a42.53 42.53 0 0 0 8.752.806l3.288.032.5.711c.276.393.637.849.8 1.029a7.084 7.084 0 0 0 2.578 1.665.326.326 0 0 1 .265.106c.106.17.69.127.881-.064a1.676 1.676 0 0 0 .042-1.347 20.04 20.04 0 0 1-.232-.977 6.517 6.517 0 0 0-.224-.88 1.75 1.75 0 0 1-.1-.542c0-.286.011-.286.987-.424a31.085 31.085 0 0 0 3.841-.753c1.061-.308.987-.329 3.13.658 1.273.583 1.453.636 1.676.519.116-.063 1.029-.976 2.037-2.026l1.825-1.921-.065-.424-.062-.413.5-.022a4.056 4.056 0 0 1 2.63.552c1.39.68 2.536 1.2 3.713 1.676a3.983 3.983 0 0 0 2.154.393c1.081 0 1.22-.021 1.358-.212a1.2 1.2 0 0 0-.106-1.177 19.072 19.072 0 0 1-1.356-4.132c-.223-.923-.211-1.1.234-2.886.233-.976.487-2.026.552-2.313s.148-.669.2-.839a1.391 1.391 0 0 0-.095-1.262C52.822.8 52.684.8 51.91 1a7.243 7.243 0 0 0-2.557 1.315 17.192 17.192 0 0 1-1.7 1.082c-.445.245-1.029.594-1.284.774s-.541.382-.636.435a6.141 6.141 0 0 0-.595.509c-.849.785-1.983 1.071-2.323.584a.893.893 0 0 1-.171-.446 1.86 1.86 0 0 0-.844-1.071 2.877 2.877 0 0 0-1.771-.032 11.861 11.861 0 0 0-1.8 1.177c-.287.255-.626.223-3.426-.244-.383-.064-1-.159-1.378-.212A15.574 15.574 0 0 1 31.2 4.49c-.032-.032.01-.159.095-.286.446-.7.477-.8.371-1.1-.095-.255-.17-.3-.529-.318a8.543 8.543 0 0 1-2.441-.51 3.129 3.129 0 0 1-1.42-1.288c-.457-1.007-.457-1-.8-.987a2.578 2.578 0 0 0-.954.382m1.424 2.207a5.166 5.166 0 0 0 2.44 1.241c.149.022.265.1.265.191 0 .19-.35.19-1.591.01-.467-.074-1.156-.18-1.538-.233s-1-.138-1.379-.181c-.53-.053-.7-.116-.72-.255-.043-.234.636-1.082 1.2-1.485l.424-.308.244.3c.137.159.435.487.657.721m24.74 0a19.434 19.434 0 0 1-.467 2.08 15.761 15.761 0 0 0-.509 2.652 19.128 19.128 0 0 0 1.07 4.377 2.938 2.938 0 0 1 .2.658c0 .222-.519.18-1.176-.075A13 13 0 0 1 48.058 11a1.444 1.444 0 0 1 .255-.435 2.655 2.655 0 0 0 .71-2.068 2.685 2.685 0 0 0-.318-1.549 3.868 3.868 0 0 0-1.241-1.517c-.329-.212-.265-.286.753-.839.413-.212 1.3-.764 1.962-1.22 1.167-.8 1.391-.9 1.507-.785m-27.6 2.281c1.581.223 3.48.488 4.562.647.382.053 1.029.148 1.432.2s1.051.138 1.432.2c.7.106 1.475.233 2.79.434 1.538.234 2.165.329 2.779.425 1.029.17 5.326.434 6.366.4a2.794 2.794 0 0 0 1.411-.275 1.267 1.267 0 0 1 1.581.222 1.692 1.692 0 0 1 .669 1.39c0 .4-.063.541-.456.976l-.468.509-.87-.106a11.661 11.661 0 0 0-4.488.531 28.339 28.339 0 0 0-2.9 1.442c-3.2 1.8-4.4 2.154-8.753 2.556-1.1.1-1.7.171-3.553.435a45.149 45.149 0 0 1-7 0c-2.822-.265-3.5-.382-3.215-.562a1.02 1.02 0 0 1 .457-.095 4.76 4.76 0 0 0 1.729-.52c.774-.393 1.272-1.061 1.125-1.517a2.417 2.417 0 0 0-1.315-.838 14.981 14.981 0 0 0-4.245.032c-.614.191-.838.541-.625 1 .17.349 0 .329 2.62.19a4.488 4.488 0 0 1 1.294.032c0 .191-1 .35-2.218.35-1.389 0-1.453.032-1.517.636-.032.34-.064.372-.349.361-.987-.042-2.154-.4-1.772-.541a6.51 6.51 0 0 0 .658-.467c1.453-1.146 1.654-2.769.582-4.615a6.618 6.618 0 0 0-1.878-1.944c-.37 0-.18-.18.265-.255.245-.032.733-.116 1.083-.17a96.353 96.353 0 0 1 4.4-.647c1.707-.212 2.493-.3 4.085-.413.869-.064 1.611-.149 1.644-.17a13.522 13.522 0 0 1 2.652.17M9.443 6.452a.443.443 0 0 1-.16.223c-.275.234-.18.52.413 1.156a5.27 5.27 0 0 1 1.284 1.984c.434 1.273-.224 2.143-2.111 2.8a1.36 1.36 0 0 1-1.061.052 23.3 23.3 0 0 0-2.345-.477 9.673 9.673 0 0 1-2.281-.552c-.774-.3-.869-.4-.361-.4a3.178 3.178 0 0 0 .786-.106c.349-.1.392-.085.784.319.339.35.477.424.827.424a.936.936 0 0 0 .787-1.475 5.145 5.145 0 0 0-.805-.893c-.542-.509-.711-.6-1.04-.6a3.117 3.117 0 0 1-1.476-.397C2.6 8.255 5.071 7.29 6.992 6.834c.615-.148 1.272-.318 1.442-.36.424-.127 1.008-.138 1.008-.022m32.3 5.347a21.242 21.242 0 0 1-2.6 2.833 3.863 3.863 0 0 1-.678-.265c-.319-.149-.7-.308-.849-.371-.35-.127-.35-.265.021-.457.16-.074.5-.265.765-.413a25.391 25.391 0 0 1 2.439-1.274c.743-.307.9-.318.9-.052m-13.07 4.5c.042.223.116.616.18.881.2.827.233 1.061.159 1.061a6.273 6.273 0 0 1-2.069-2.016c0-.255.127-.3.966-.308l.7-.011z"/>
            <path data-name="패스 72082" d="M6.072 7.368a.866.866 0 0 0-.487.742.81.81 0 0 0 .221.377c.2.21.344.244 1.153.244.764 0 .952-.033 1.108-.21a.735.735 0 0 0-.156-1.086 4.653 4.653 0 0 0-1.839-.067"/>
        </g>
    </g>
</svg>
