<svg xmlns="http://www.w3.org/2000/svg" width="56" height="56" viewBox="0 0 56 56">
    <defs>
        <clipPath id="shuhjd67pa">
            <path data-name="사각형 26772" style="fill:none" d="M0 0h44.381v48.971H0z"/>
        </clipPath>
    </defs>
    <g data-name="그룹 128975">
        <g data-name="그룹 128974" style="clip-path:url(#shuhjd67pa)" transform="translate(6 4)">
            <path data-name="패스 71994" d="M31.066 1.8a2.531 2.531 0 0 1 1.326 1.977c0 .484-.433 1.275-1.479 2.729-1.569 2.193-1.811 2.857-1.4 3.839a2.8 2.8 0 0 0 1.479 1.39 11.158 11.158 0 0 0 1.646.216c1.3.09 1.581.23 1.747.88a.7.7 0 0 1-.166.664c-.255.357-.944.612-4.757 1.81-.944.294-1.887.625-2.079.727a1.57 1.57 0 0 0-.663 1.633c.128.931.408 1.071 3.367 1.823.663.166.854.281 1.046.587a.839.839 0 0 1-.089 1.11c-.166.191-.855.344-2.793.625-.715.114-1.237.191-3.508.51-3.06.433-3.532.561-4.119 1.122a2.923 2.923 0 0 0-.561.727 2.944 2.944 0 0 0 .089 2.295c.638 1.123.868 1.212 4.553 1.582 1.2.115 1.633.344 1.9 1a.788.788 0 0 1-.038.9 1.765 1.765 0 0 1-1.466.918 4.358 4.358 0 0 0-.893.128c-.689.153-2.372.472-4.056.765-.459.076-1.058.191-1.339.255s-.9.166-1.4.255a12.379 12.379 0 0 0-2.576.587c-.918.382-1.1 1.428-.433 2.6.6 1.084.5 1.607-.5 2.525-.178.153-1.594 1.148-3.15 2.194a25.968 25.968 0 0 0-3.06 2.257c-.128.192-.8 1.352-1.505 2.576L4.9 47.248l-1.429.038c-1.237.026-1.428.013-1.428-.166 0-.114.408-1.428.906-2.907.982-2.934.982-2.921.624-4.936l-.255-1.53c-.077-.459-.191-1.148-.267-1.531a12.944 12.944 0 0 1-.192-2.984c.153-.637.791-1.173 2-1.683 1.9-.8 2.6-1.735 2.309-3.112-.064-.319-.931-2.614-1.926-5.1-1.518-3.762-1.811-4.6-1.747-4.974a1.2 1.2 0 0 1 1.288-1.02c.523 0 .587.051 1.377.918.447.51.982 1.135 1.186 1.378 1.288 1.619 2.36 2.231 3.38 1.925 1.8-.535 2.4-1.76 1.785-3.66-.127-.408-.421-1.5-.637-2.41a82.66 82.66 0 0 0-1.033-3.9 13.979 13.979 0 0 1-.383-1.632c0-.446.829-1.25 1.39-1.352.765-.127 1.3.166 1.913 1.071a6.386 6.386 0 0 1 .523.829 20.967 20.967 0 0 0 1.441 2.3 1.6 1.6 0 0 0 2.423-.217c.179-.268.217-.893.242-4.119.039-4.209.064-4.323.855-4.859.816-.561 1.645-.255 2.436.88s1.262 1.428 2.206 1.428A2.94 2.94 0 0 0 25 5.737a26.016 26.016 0 0 0 2.231-2.028c2.245-2.181 2.627-2.372 3.839-1.913" style="fill:#93e5c2"/>
            <path data-name="패스 71995" d="M28.719.317a11.57 11.57 0 0 0-2.549 2.155c-2.232 2.194-2.3 2.219-3.087 1.186-1.135-1.479-1.772-1.875-3.06-1.875A3.127 3.127 0 0 0 17.1 3.735c-.255.574-.267.867-.267 4.119a33.949 33.949 0 0 1-.09 3.494 3.091 3.091 0 0 1-.676-.943c0-.039-.306-.562-.688-1.186a4.09 4.09 0 0 0-2.513-2.181 3.264 3.264 0 0 0-3.9 3.316 6.426 6.426 0 0 0 .2 1.147c.242.817.37 1.288.587 2.143.114.459.255 1.046.318 1.3s.192.714.255.994c.281 1.11.383 1.505.651 2.372s.255.931.05 1.237a.985.985 0 0 1-1.185.358 5.558 5.558 0 0 1-.931-.931c-2.793-3.227-2.806-3.227-4.26-3.214a2.077 2.077 0 0 0-1.428.357A3.417 3.417 0 0 0 1.786 18.6c0 .421.255 1.1 2.219 6.006.88 2.207 1.606 4.171 1.606 4.362q0 .555-1.147 1a5.073 5.073 0 0 0-3.074 2.55 8.822 8.822 0 0 0-.012 3.4c.153.817.28 1.569.548 3.163.077.485.191 1.135.255 1.441.114.485.026.8-.9 3.635-.561 1.7-1.084 3.188-1.148 3.3a1.524 1.524 0 0 0-.128.65c0 .714.485.855 3.048.855 2.87 0 2.679.115 4-2.3.2-.382.472-.841.6-1.02s.345-.6.523-.931c.255-.5.356-.6.561-.523a12.582 12.582 0 0 0 1.276.166 7.11 7.11 0 0 1 1.594.319c.535.217.7.28 1.441.574.153.063 1.338.523 2.64 1.033s2.473.969 2.614 1.02a2.386 2.386 0 0 0 2.385.076 2.8 2.8 0 0 0 1.518-1.3 3.412 3.412 0 0 0 .063-2.6 13.322 13.322 0 0 0-1.684-1.849c-1.53-1.48-1.67-1.735-1.263-2.321.333-.472.868-.5 1.634-.064.357.2 1.07.587 1.556.854s1.173.651 1.5.855a7.281 7.281 0 0 0 .663.357c.025 0 .715.383 1.556.867 1.938 1.11 2.1 1.173 2.832 1.173a2.5 2.5 0 0 0 2.447-3.086c-.191-.65-.484-1.046-1.887-2.614a11.215 11.215 0 0 1-1.059-1.25c0-.115.409.026 1.646.6.6.281 1.275.574 1.479.676s.906.408 1.531.7 1.326.612 1.53.7a2.4 2.4 0 0 0 2.155.191 2.636 2.636 0 0 0 1.747-3.035 4.065 4.065 0 0 0-1.2-1.9c-.28-.281-.472-.587-.42-.65a2.2 2.2 0 0 1 .816-.345c.395-.114.867-.268 1.045-.319s.753-.229 1.277-.4c2.511-.727 3.149-1.135 3.813-2.41a2.949 2.949 0 0 0 .4-1.607 3.581 3.581 0 0 0-.116-1.046c-.063-.115-.2-.421-.319-.676a4.418 4.418 0 0 0-1.822-1.721 11.537 11.537 0 0 0-4.273-.064c-.587.076-1.428.2-1.888.268a2.139 2.139 0 0 1-.944 0 2.768 2.768 0 0 1 .039-1.123 3.748 3.748 0 0 0-1.607-4.068 2.88 2.88 0 0 1-.893-.842c-.383-.777-1.058-1.16-2.908-1.619-1.019-.243-1.135-.459-.382-.7 1.747-.535 3.29-1.02 3.954-1.237 1.734-.561 2.334-1.045 2.626-2.18a2.686 2.686 0 0 0-1.275-2.921 11.035 11.035 0 0 0-3.1-.484c-.128 0-.307-.166-.422-.383-.191-.37-.191-.37 1.2-2.449a27.524 27.524 0 0 0 1.53-2.512 4.8 4.8 0 0 0 .142-1.173 3.736 3.736 0 0 0-5.2-3.367M31.066 1.8a2.53 2.53 0 0 1 1.326 1.977c0 .485-.433 1.275-1.479 2.729C29.344 8.7 29.1 9.359 29.51 10.341a2.8 2.8 0 0 0 1.48 1.39 11.127 11.127 0 0 0 1.645.217c1.3.089 1.581.229 1.747.88a.708.708 0 0 1-.166.663c-.255.357-.944.612-4.757 1.811-.944.293-1.886.625-2.078.727a1.565 1.565 0 0 0-.663 1.632c.127.931.407 1.071 3.366 1.824.663.166.854.28 1.046.586a.839.839 0 0 1-.089 1.11c-.166.191-.854.344-2.794.625-.713.115-1.237.191-3.507.51-3.059.434-3.532.561-4.118 1.122a2.9 2.9 0 0 0-.561.727 2.946 2.946 0 0 0 .088 2.3c.639 1.122.868 1.211 4.553 1.581 1.2.115 1.634.344 1.9 1a.789.789 0 0 1-.037.9 1.764 1.764 0 0 1-1.468.918 4.368 4.368 0 0 0-.892.128c-.688.153-2.372.472-4.056.765-.458.077-1.058.191-1.338.255s-.905.166-1.4.255a12.447 12.447 0 0 0-2.576.587c-.919.383-1.1 1.428-.433 2.6.6 1.084.5 1.606-.5 2.525-.179.153-1.594 1.147-3.151 2.193a26.136 26.136 0 0 0-3.059 2.257c-.128.192-.8 1.352-1.505 2.577L4.9 47.248l-1.429.038c-1.237.026-1.428.013-1.428-.165 0-.115.408-1.429.905-2.908.981-2.933.981-2.921.625-4.936l-.255-1.53a56.285 56.285 0 0 0-.268-1.53 12.936 12.936 0 0 1-.191-2.984c.153-.638.791-1.174 2-1.684 1.9-.8 2.6-1.734 2.309-3.112-.064-.318-.932-2.614-1.926-5.1-1.518-3.762-1.811-4.6-1.747-4.974a1.2 1.2 0 0 1 1.288-1.02c.523 0 .587.051 1.377.918.447.511.982 1.135 1.186 1.378 1.288 1.619 2.36 2.232 3.38 1.925 1.8-.535 2.4-1.759 1.784-3.66-.126-.408-.42-1.5-.636-2.41a83.919 83.919 0 0 0-1.034-3.9 14.161 14.161 0 0 1-.382-1.633c0-.446.829-1.25 1.389-1.352.766-.127 1.3.166 1.913 1.072a6.186 6.186 0 0 1 .524.829 20.659 20.659 0 0 0 1.441 2.3 1.6 1.6 0 0 0 2.423-.217c.178-.267.217-.892.241-4.119.039-4.208.065-4.323.856-4.859.816-.561 1.644-.255 2.436.88s1.262 1.428 2.2 1.428A2.936 2.936 0 0 0 25 5.737a25.993 25.993 0 0 0 2.231-2.028c2.245-2.181 2.627-2.372 3.839-1.913m2.475 20.928a2.818 2.818 0 0 1 .012 1.314 5.613 5.613 0 0 0 .051 2.869c.2.166 1.135.14 3.379-.128 3.941-.459 4.3-.446 5.012.141a2.045 2.045 0 0 1 .588 2.665c-.486.778-.843 1-2.666 1.531-.522.153-1.1.331-1.276.382s-.752.23-1.275.383c-2.461.752-2.678.854-2.678 1.326a3.842 3.842 0 0 0 .995 1.4c1.713 1.941 1.87 2.293 1.213 2.911-.651.586-.625.586-2.781-.409-.829-.382-1.186-.548-2.933-1.339-.344-.153-1.032-.484-1.531-.714-1.529-.714-2.5-.51-2.869.612a1.511 1.511 0 0 0-.063.778 11.862 11.862 0 0 0 1.717 2.194c1.8 2 1.938 2.3 1.376 2.9a1.281 1.281 0 0 1-1.594.025c-.267-.153-.739-.421-1.059-.6s-.905-.51-1.312-.74a7.906 7.906 0 0 0-.792-.433 7.439 7.439 0 0 1-.663-.358c-.331-.2-1.07-.612-1.632-.918s-1.2-.65-1.416-.778a2.491 2.491 0 0 0-3.748 2.088c0 .867.421 1.505 1.9 2.882s1.683 1.734 1.4 2.538a1.645 1.645 0 0 1-1.226.918 2.685 2.685 0 0 1-.777-.255 2.738 2.738 0 0 0-.664-.255 1.129 1.129 0 0 1-.357-.115c-.306-.153-.547-.255-3.213-1.288s-2.907-1.135-3.213-1.288a2.383 2.383 0 0 0-.8-.115c-.319 0-.574-.051-.574-.127a10.261 10.261 0 0 1 1.569-1.161c3.941-2.627 4.744-3.481 4.731-5.024a2.606 2.606 0 0 0-.408-1.505c-.28-.51-.357-.753-.242-.778.37-.115 1.365-.319 2.129-.459.459-.077 1.149-.2 1.531-.268s.956-.179 1.275-.242.892-.166 1.276-.243 1.019-.178 1.4-.255c3.15-.574 3.276-.612 4.029-1.352a2.571 2.571 0 0 0 .549-3.315 2.726 2.726 0 0 0-1.837-1.442 18.45 18.45 0 0 0-3.1-.408c-1.108 0-1.823-.727-1.428-1.479.2-.37.562-.5 1.913-.676.6-.089 1.428-.2 1.85-.268l1.721-.255c.523-.076 1.276-.191 1.672-.255a6.953 6.953 0 0 1 1.084-.127 3.8 3.8 0 0 0 2.5-1.072c.549-.663.509-.65.815-.28a2.427 2.427 0 0 1 .435.867"/>
            <path data-name="패스 71996" d="M22.675 12.892c-.268.153-2.971 3.418-4.553 5.5a4.328 4.328 0 0 1-.637.739 8.891 8.891 0 0 1-.778-1.441c-.893-1.862-1.084-2.13-1.505-2.13-.472 0-.919.332-.919.676a15.5 15.5 0 0 0 1.033 2.364l1.021 2.1-.906 1.288C10.866 28.5 7.652 33.922 7.652 35.133a.815.815 0 0 0 .842.829c.369 0 .5-.178 1.2-1.645a40.128 40.128 0 0 1 2.194-3.941l.37-.535H14.4c2.066 0 2.143-.013 2.411-.294a.707.707 0 0 0 .025-1.084c-.242-.255-.382-.28-1.849-.28-1.059 0-1.594-.051-1.594-.14 0-.51 5.139-7.588 8.723-12.014 1.237-1.53 1.607-2.078 1.607-2.359 0-.548-.625-1.008-1.046-.778"/>
        </g>
    </g>
</svg>
