<svg xmlns="http://www.w3.org/2000/svg" width="56" height="56" viewBox="0 0 56 56">
    <defs>
        <clipPath id="wt0t4lc0va">
            <path data-name="사각형 26790" style="fill:none" d="M0 0h52.533v27.038H0z"/>
        </clipPath>
    </defs>
    <g data-name="그룹 129011">
        <g data-name="그룹 129010" style="clip-path:url(#wt0t4lc0va)" transform="translate(2 15)">
            <path data-name="패스 72092" d="M45.551 2.19a13.137 13.137 0 0 1-.306 2.487c-.077.28-.191.727-.255.982a7.252 7.252 0 0 1-.523 1.7.535.535 0 0 0-.1.281 6.457 6.457 0 0 1-.459 1.16 19.48 19.48 0 0 1-15.1 11.146 24.888 24.888 0 0 1-4.973 0 21.951 21.951 0 0 1-2.742-.51 20.556 20.556 0 0 1-8.483-5.016 19.653 19.653 0 0 1-4.566-7.256 27.131 27.131 0 0 1-.778-2.844 8.319 8.319 0 0 1-.051-2.678c.039-.051 8.7-.077 19.219-.064l19.143.038z" style="fill:#93e5c2"/>
            <path data-name="패스 72093" d="M.2.2C0 .366-.028.545.023 1.96c.038.855.127 1.913.191 2.334s.191 1.084.268 1.467a28.319 28.319 0 0 0 .9 3.507c.217.536.332.816.561 1.428a26.135 26.135 0 0 0 5.739 8.621 28.847 28.847 0 0 0 4.107 3.405 6 6 0 0 1 .79.485 27.733 27.733 0 0 0 4.494 2.193l.7.255a12.938 12.938 0 0 0 1.913.573c1.084.268 1.53.358 3.7.715a24.229 24.229 0 0 0 3.38.076 22.8 22.8 0 0 0 5.866-.727c.319-.076.778-.191 1.02-.242a12.756 12.756 0 0 0 1.85-.65c.14-.051.484-.192.765-.294a23.409 23.409 0 0 0 2.869-1.377c.179-.115.549-.344.829-.5a25.212 25.212 0 0 0 4.795-3.826 24.387 24.387 0 0 0 5.752-8.417A21.721 21.721 0 0 0 51.621 7.8c.09-.318.205-.752.268-.956s.166-.791.243-1.275.2-1.212.267-1.607A10.612 10.612 0 0 0 52.348.2C52.081-.067.558-.067.2.2m5.192 2.334a8.881 8.881 0 0 0 .344 2.64 1.077 1.077 0 0 1 .115.536.783.783 0 0 0 .127.5c.077.038.128.2.128.357a3.385 3.385 0 0 0 .421 1.314.527.527 0 0 1 .089.319 2.317 2.317 0 0 0 .242.714c.128.268.37.765.536 1.122a12.873 12.873 0 0 0 .65 1.173 2.645 2.645 0 0 1 .357.664.14.14 0 0 0 .128.14c.076 0 .127.076.127.166a.864.864 0 0 0 .23.42 6.3 6.3 0 0 1 .536.689 24.886 24.886 0 0 0 4.336 4.336 3.768 3.768 0 0 1 .51.4 22.815 22.815 0 0 0 4.846 2.537 2.726 2.726 0 0 1 .7.281.937.937 0 0 0 .459.1.61.61 0 0 1 .421.115 1.155 1.155 0 0 0 .549.178c.268.051.854.153 1.313.23a25.6 25.6 0 0 0 3.7.153c2.907 0 4.412-.1 4.54-.306a.625.625 0 0 1 .433-.115 2.176 2.176 0 0 0 .663-.115c.166-.063.549-.191.868-.28a2.492 2.492 0 0 0 .688-.268.689.689 0 0 1 .345-.1 15.468 15.468 0 0 0 2.767-1.288c.485-.281 2.194-1.429 2.614-1.76a30.478 30.478 0 0 0 3.52-3.507 4.068 4.068 0 0 1 .268-.332 6.2 6.2 0 0 0 .383-.51c.178-.242.357-.51.408-.574a22.183 22.183 0 0 0 2.04-3.762c.077-.178.179-.421.243-.536a1.168 1.168 0 0 0 .114-.42 1.156 1.156 0 0 1 .115-.421 4.526 4.526 0 0 0 .4-1.467.562.562 0 0 1 .114-.395 8.444 8.444 0 0 0 .37-2.691l.089-1.148 1.9-.038 1.887-.038-.064 1.186a23.346 23.346 0 0 1-1.355 6.407c-.063.141-.191.46-.267.7a29.764 29.764 0 0 1-1.811 3.66 3.335 3.335 0 0 0-.357.625 13.609 13.609 0 0 1-.919 1.3 25.687 25.687 0 0 1-7.562 6.8 27.442 27.442 0 0 1-3.163 1.518.531.531 0 0 0-.28.1 3.514 3.514 0 0 1-.638.267c-.281.09-.625.2-.765.268a33.652 33.652 0 0 1-3.89.919 35.5 35.5 0 0 1-6.44.1c-1.429-.2-2.347-.37-2.9-.511a19.563 19.563 0 0 1-2.589-.765c-.14-.051-.459-.178-.7-.268A30.665 30.665 0 0 1 13.5 22a26.154 26.154 0 0 1-8.175-8.034A32.606 32.606 0 0 1 3.3 9.969a.875.875 0 0 0-.127-.357 13.383 13.383 0 0 1-.638-1.874c-.064-.217-.191-.7-.293-1.084a23.648 23.648 0 0 1-.689-4.9c.064-.178.37-.2 1.926-.2h1.836zm40.159-.344a13.137 13.137 0 0 1-.306 2.487c-.077.28-.191.727-.255.982a7.252 7.252 0 0 1-.523 1.7.535.535 0 0 0-.1.281 6.457 6.457 0 0 1-.459 1.16 19.48 19.48 0 0 1-15.1 11.146 24.888 24.888 0 0 1-4.973 0 21.951 21.951 0 0 1-2.742-.51 20.556 20.556 0 0 1-8.483-5.016 19.653 19.653 0 0 1-4.566-7.256 27.131 27.131 0 0 1-.778-2.844 8.319 8.319 0 0 1-.051-2.678c.039-.051 8.7-.077 19.219-.064l19.143.038z"/>
            <path data-name="패스 72094" d="M17.456 7.508a11.185 11.185 0 0 0-.969.791c-.345.319-.906.829-1.237 1.122-.4.357-.6.65-.6.842a1.044 1.044 0 0 0 .868.854 6.788 6.788 0 0 0 1.708-1.25c1.186-1.02 1.454-1.313 1.48-1.645a.633.633 0 0 0-.306-.663c-.408-.319-.536-.332-.944-.051"/>
            <path data-name="패스 72095" d="M34.188 7.5a.67.67 0 0 0-.281.638c0 .382.1.548.549.931.293.267.9.816 1.352 1.211 1.122.982 1.556 1.071 2 .4a.529.529 0 0 0 .076-.625A15.79 15.79 0 0 0 34.7 7.292a1.045 1.045 0 0 0-.51.2"/>
            <path data-name="패스 72096" d="M21.218 10.314a6.757 6.757 0 0 0-.727 1.3c-.28.6-.6 1.288-.7 1.53-.421.88-.166 1.543.6 1.543.408 0 .663-.255 1-1.02.14-.319.421-.956.637-1.428.6-1.276.613-1.441.23-1.811s-.74-.421-1.033-.115"/>
            <path data-name="패스 72097" d="M30.464 10.263c-.446.23-.472.74-.051 1.671 1.212 2.742 1.441 3.035 2.13 2.678.574-.306.637-.6.331-1.288-1.1-2.385-1.4-2.972-1.619-3.087-.332-.178-.4-.178-.791.026"/>
            <path data-name="패스 72098" d="M25.784 11.309c-.281.2-.293.281-.293 2.219 0 1.785.025 2.041.229 2.219a.918.918 0 0 0 1.123.038c.216-.165.242-.357.242-2.231a9.218 9.218 0 0 0-.128-2.168 1.06 1.06 0 0 0-1.173-.077"/>
        </g>
    </g>
</svg>
