<svg xmlns="http://www.w3.org/2000/svg" width="56" height="56" viewBox="0 0 56 56">
    <defs>
        <clipPath id="mxzp6tzvza">
            <path data-name="사각형 26795" style="fill:none" d="M0 0h50.255v46.405H0z"/>
        </clipPath>
    </defs>
    <g data-name="그룹 129021">
        <g data-name="그룹 129020" style="clip-path:url(#mxzp6tzvza)" transform="translate(3 4.999)">
            <path data-name="패스 72120" d="M45.2 1.671c1.148.179 1.62.408 1.62.791a3.248 3.248 0 0 1-.651 1.084c-1.084 1.339-1.135 1.53-1.122 4.17a20.323 20.323 0 0 0 .089 2.512 5.958 5.958 0 0 0 .969.957 7.72 7.72 0 0 1 2.245 3.073 22.279 22.279 0 0 1 0 5.573c-.179 1.276-.625 3.724-.765 4.145-.051.179-.166.574-.255.893-2.079 7.431-7.269 13.339-14.794 16.872a38.951 38.951 0 0 1-9.195 3.01 30.255 30.255 0 0 1-7.511-.243 17.445 17.445 0 0 1-4.43-1.224l-.675-.319v-1.122c0-.9.038-1.16.229-1.313.293-.268 2.665-1.735 3.851-2.385a47.149 47.149 0 0 1 5.14-2.436.622.622 0 0 0 .293-.1 2.911 2.911 0 0 1 .625-.268c.281-.1.74-.268 1.02-.4s.97-.408 1.531-.651a29.09 29.09 0 0 0 5.5-3.086 33.966 33.966 0 0 0 4.642-4.655 26.1 26.1 0 0 0 2.36-3.953 22.136 22.136 0 0 0 1.53-4.3c.051-.281.128-.689.191-.893s.166-.727.256-1.148a10.027 10.027 0 0 1 1.173-3.022 7.876 7.876 0 0 1 2.856-2.487c.74-.357.957-.535 1.059-.842a40.286 40.286 0 0 0-.013-6.81c-.115-.8-.115-1.1-.013-1.2a3.034 3.034 0 0 1 1.225-.358c.064 0 .523.051 1.02.128" style="fill:#93e5c2"/>
            <path data-name="패스 72121" d="M42.559.256c-1.071.535-1.275.982-1.173 2.512.14 1.926.23 5.777.153 6.109-.064.229-.28.408-.79.637a9.555 9.555 0 0 0-3 2.755 4.557 4.557 0 0 0-.5.8 3.984 3.984 0 0 1-.242.613 8.7 8.7 0 0 0-.651 2.066c-.089.42-.2.931-.267 1.135a2.68 2.68 0 0 0-.115.65 22.082 22.082 0 0 1-1.374 4.058 7.236 7.236 0 0 1-3.087 2.857 21.111 21.111 0 0 1-13.263 1.62c-.242-.038-1.619-.357-3.061-.7-2.933-.714-3.443-.829-4.08-.943-.243-.039-.766-.141-1.148-.2a52.161 52.161 0 0 0-7.97-.574 5.2 5.2 0 0 0-1.63 2.021A3.071 3.071 0 0 0 .283 28.4a14.932 14.932 0 0 0 2.45 3.2c.982 1.071.993 1.1.9 1.607a2.726 2.726 0 0 1-.191.739 3.707 3.707 0 0 0-.115 1.084 3.335 3.335 0 0 0 1.046 2.538A21.493 21.493 0 0 0 8 39.956a3.363 3.363 0 0 1 .993.663 9.941 9.941 0 0 1 .077 1.505 5.079 5.079 0 0 0 .166 1.62c.408.816 3.889 2.078 6.721 2.435.522.064 2.244.153 3.826.192a17.975 17.975 0 0 0 5.56-.408 38.625 38.625 0 0 0 5.369-1.748.359.359 0 0 1 .255-.089 10.759 10.759 0 0 0 1.416-.587c.675-.318 1.441-.675 1.683-.79a38.324 38.324 0 0 0 3.775-2.232 26.548 26.548 0 0 0 9.246-10.534c.281-.6.663-1.454.841-1.913s.371-.956.434-1.1c.153-.382.829-2.818.995-3.7.089-.421.2-.995.268-1.275s.165-1 .243-1.595.19-1.568.254-2.18a13.253 13.253 0 0 0 .026-3.584 11.266 11.266 0 0 1-.28-.867 8.776 8.776 0 0 0-2.641-3.762l-.536-.383V7.538c0-2.309-.051-2.13.944-3.265a3.764 3.764 0 0 0 .842-1.786A2.522 2.522 0 0 0 46.245.256a.54.54 0 0 1-.383-.128A4.342 4.342 0 0 0 44.421 0a4.094 4.094 0 0 0-1.862.255M45.2 1.671c1.148.179 1.62.408 1.62.791a3.23 3.23 0 0 1-.65 1.084c-1.084 1.339-1.135 1.53-1.123 4.17a20.246 20.246 0 0 0 .09 2.513 5.966 5.966 0 0 0 .969.956 7.707 7.707 0 0 1 2.244 3.073 22.287 22.287 0 0 1 0 5.574c-.178 1.275-.625 3.723-.765 4.144-.051.179-.166.574-.255.893-2.08 7.431-7.27 13.34-14.794 16.872a38.965 38.965 0 0 1-9.195 3.01 30.3 30.3 0 0 1-7.512-.242 17.486 17.486 0 0 1-4.429-1.225l-.675-.318v-1.123c0-.9.037-1.16.228-1.313.294-.268 2.666-1.735 3.852-2.385a47.068 47.068 0 0 1 5.139-2.436.625.625 0 0 0 .294-.1 2.915 2.915 0 0 1 .625-.268c.28-.1.739-.268 1.02-.4s.969-.408 1.53-.65a29.126 29.126 0 0 0 5.5-3.087 34.079 34.079 0 0 0 4.642-4.655 26.043 26.043 0 0 0 2.36-3.949 22.113 22.113 0 0 0 1.53-4.3c.051-.28.128-.688.192-.893s.166-.726.255-1.147a10.023 10.023 0 0 1 1.173-3.023 7.881 7.881 0 0 1 2.857-2.487c.739-.357.956-.535 1.058-.841a40.275 40.275 0 0 0-.012-6.81c-.115-.8-.115-1.1-.013-1.2a3.015 3.015 0 0 1 1.224-.357c.064 0 .523.051 1.02.127M6.774 25.341c.179.025.8.115 1.4.178s1.379.179 1.722.243.956.178 1.339.255c.689.127 1.3.255 2.27.51.256.064.728.178 1.046.255l1.058.255c.995.255 1.582.395 2.258.51a37.9 37.9 0 0 0 4.948.434c.191-.026 1.007-.115 1.811-.179s1.658-.166 1.887-.2c.255-.051.408-.025.408.064s-.1.14-.229.14a.622.622 0 0 0-.357.115 22.777 22.777 0 0 1-3.814 1.224 37.753 37.753 0 0 1-6.121.7c-1.122.063-2.41.178-2.868.242s-1.111.166-1.468.2c-.625.089-2.563.446-3.826.7a17.21 17.21 0 0 0-1.925.511 5.177 5.177 0 0 1-.83.191l-.561.089-1.016-1.132a19.532 19.532 0 0 1-1.34-1.568 3.826 3.826 0 0 0-.395-.511 2.574 2.574 0 0 1-.625-1.428 3.311 3.311 0 0 1 .8-1.773c.231-.242.344-.255 2.168-.178 1.071.038 2.08.115 2.257.153m23.469 2.576a19.086 19.086 0 0 1-3.29 2.678 27.9 27.9 0 0 1-4.107 2.232c-.319.127-.778.306-1.02.421-.548.229-1 .421-1.365.561-.165.064-.446.178-.637.255s-.472.191-.612.242a46.8 46.8 0 0 0-4.681 2.207c-.344.191-.879.5-1.211.675s-.753.434-.931.562a18.067 18.067 0 0 1-2.423 1.4 4.237 4.237 0 0 1-.868-.4c-.4-.229-.982-.548-1.275-.714A12.2 12.2 0 0 1 5.129 36.1c-.459-.637-.28-2.41.281-2.716.243-.127 2.563-.74 3.788-1.007a50.8 50.8 0 0 1 7.32-1.008 33.94 33.94 0 0 0 5.943-.638c.242-.063.739-.178 1.084-.267.625-.141 2.678-.791 3.188-1 .14-.064.944-.459 1.785-.88 1.633-.829 1.722-.855 1.722-.676"/>
            <path data-name="패스 72122" d="M43.338 22.892a3.147 3.147 0 0 0-.536 1.173 17.926 17.926 0 0 1-3.124 6.16 26.033 26.033 0 0 1-5.038 4.668 38.877 38.877 0 0 1-9.054 4.348c-3.061.944-3.418 1.174-3 1.952.255.471.6.548 1.377.306 1.722-.51 3.405-1.1 4.948-1.709a28.264 28.264 0 0 0 11.58-7.907 19.041 19.041 0 0 0 3.864-7.129c.357-1.224.319-1.581-.217-1.862-.446-.23-.51-.23-.8 0"/>
            <path data-name="패스 72123" d="M17.513 40.81a.889.889 0 0 0-.077 1.2.807.807 0 0 0 1.327-.651 1.012 1.012 0 0 0-.765-.8.946.946 0 0 0-.485.255"/>
        </g>
    </g>
</svg>
