<svg xmlns="http://www.w3.org/2000/svg" width="56" height="56" viewBox="0 0 56 56">
    <defs>
        <clipPath id="dyz71g9pla">
            <path data-name="사각형 26784" style="fill:none" d="M0 0h48.412v54.602H0z"/>
        </clipPath>
    </defs>
    <g data-name="그룹 128999">
        <g data-name="그룹 128998" style="clip-path:url(#dyz71g9pla)" transform="translate(4 1)">
            <path data-name="패스 72047" d="M46.482 17.153c.217.446.242.791.242 2.551a20.119 20.119 0 0 1-.523 5.037 51.06 51.06 0 0 0-.293 1.467 21.064 21.064 0 0 1-1.16 3.481c-.2.447-.37.829-.37.867a11.848 11.848 0 0 1-.638 1.021 6.848 6.848 0 0 1-3.124 2.487 9.917 9.917 0 0 0-2.168 1.326 12.915 12.915 0 0 0-1.948 3.634c-1.084 2.742-2.244 4.388-3.775 5.382-1.045.676-1.887.906-5.05 1.39a5.647 5.647 0 0 0-3.957 2.804 6.769 6.769 0 0 1-2.066 2.168 9.336 9.336 0 0 1-4.693 1.569 20.049 20.049 0 0 1-6.568-.625 3.927 3.927 0 0 0-3.38.472c-.382.191-.739.306-.79.255a1.443 1.443 0 0 1 .025-.778 9.237 9.237 0 0 0 .128-1.237 11.979 11.979 0 0 1 1.313-4.26 19.339 19.339 0 0 1 5.229-5.586 11.283 11.283 0 0 1 4.935-1.678c2.423-.306 2.946-.612 4.451-2.614a9.648 9.648 0 0 1 4.17-3.648c.868-.408 1.607-.752 1.646-.752a11.5 11.5 0 0 0 1.645-1.071A6.852 6.852 0 0 0 31.37 27.8a11.151 11.151 0 0 1 6.823-7.116c.714-.255 2.78-.842 3.507-1.008a9.155 9.155 0 0 0 2.55-1.76c.969-.9 1.556-1.352 1.786-1.3.1.013.306.255.446.536" style="fill:#93e5c2"/>
            <path data-name="패스 72048" d="M7.917.5a1.958 1.958 0 0 0-.638 1.313 10.8 10.8 0 0 0-.14 1.441c0 1.059-.191 1.543-1.352 3.443A13.518 13.518 0 0 0 4.308 9.68a11.58 11.58 0 0 0-.485 3.29 10 10 0 0 0 .153 1.913 20.963 20.963 0 0 0 .74 2.4c.9 2.168.9 2.321-.013 4.361a9.583 9.583 0 0 0-.893 5.624c.192 1.837.128 2.1-.778 3.227C1.362 32.571.711 33.757.38 35.326c-.077.383-.2.88-.268 1.1a23.887 23.887 0 0 0 .025 4.859A11.951 11.951 0 0 0 2.943 47.2a4.083 4.083 0 0 1 .88 1.594c.153.485.383 1.161.523 1.505a5.188 5.188 0 0 1 .242 2.041c0 1.186.039 1.479.255 1.823.37.612.982.587 2.015-.089a8.032 8.032 0 0 1 1.569-.765 2.3 2.3 0 0 1 1.824-.013 20.119 20.119 0 0 0 6.81.651 17.61 17.61 0 0 0 3.571-.766c.153-.076.433-.2.637-.28a12 12 0 0 0 2.576-1.837c.255-.28.727-.9 1.072-1.39a5.557 5.557 0 0 1 1.8-1.913c.484-.28.829-.37 2.933-.7a9.443 9.443 0 0 0 5.292-2.423 13.046 13.046 0 0 0 2.194-3.061c.574-1.262.752-1.671 1-2.308.153-.383.472-1.11.714-1.607.51-1.059.778-1.275 2.831-2.334a8.3 8.3 0 0 0 3.52-3.124 13.507 13.507 0 0 0 .714-1.148c0-.026.14-.357.306-.74a25.063 25.063 0 0 0 1.339-4.17c.255-1.135.294-1.352.421-2.1.816-5 .5-7.729-1.007-8.711a2.418 2.418 0 0 0-2.054-.1 6.351 6.351 0 0 0-.982.842 9.884 9.884 0 0 1-3 2.155c-.318.09-.714.217-.892.268s-.574.166-.893.255c-1.071.306-1.467.421-1.722.51-.14.064-.459.179-.7.268a4.633 4.633 0 0 0-.791.4 1.394 1.394 0 0 1-.421.23 11.16 11.16 0 0 0-2.474 1.913 12.206 12.206 0 0 0-2.793 4.208 20.646 20.646 0 0 0-.88 2.385 3.2 3.2 0 0 1-1.619 1.569 2.114 2.114 0 0 1-.829.319 17.523 17.523 0 0 1 .064-2.972c.076-.612.165-.765 1.211-1.951a6.844 6.844 0 0 0 2.155-4.9 21.775 21.775 0 0 0-.841-7.524c-.855-3.278-1.913-5.063-3.2-5.408a1.208 1.208 0 0 0-1.11.128c-.612.28-.931.688-1.479 1.9a5.786 5.786 0 0 1-1.7 2.359c-.345.281-.7.561-.778.638s-.408.332-.714.574a9.9 9.9 0 0 0-3.584 4.9c-.089.319-.2.587-.255.587a1.463 1.463 0 0 1-.242-.561 2.472 2.472 0 0 1 .267-1.837c.115-.293.281-.7.485-1.211.893-2.258.306-5.038-1.887-8.928-.281-.51-1.913-2.971-2.283-3.443A17.837 17.837 0 0 0 10.391.4a10.89 10.89 0 0 1-.6-.28A2.372 2.372 0 0 0 8.988 0a1.179 1.179 0 0 0-1.071.5m2.117 1.517a20.415 20.415 0 0 1 4.5 6.071c1.645 3.175 1.887 4.795 1.071 7.039-.88 2.423-.893 2.487-.523 3.877a22.4 22.4 0 0 0 1.148 3.4 4.919 4.919 0 0 1 .089 1.25v1.186l-.942 1.06c-.523.586-1.211 1.351-1.53 1.708a8.353 8.353 0 0 0-1.722 3.469c-.574 2.207-.752 2.513-1.709 3.074-.612.357-.778.357-.688-.013.688-3.137 1.364-7.065 1.619-9.335l.255-2.3a63.771 63.771 0 0 0-.025-8.417c-.153-1.1-.446-1.594-.931-1.594s-.74.421-.65 1.11c.051.331.114 1.874.153 3.417a51.046 51.046 0 0 1-.664 9.808c-.216 1.708-.65 4.272-.943 5.624-.064.28-.179.829-.268 1.211s-.191.842-.242 1.02a6.065 6.065 0 0 0-.179.651 5.417 5.417 0 0 1-.842 1.25 14.1 14.1 0 0 0-2.652 4.6 12.517 12.517 0 0 0-.791 3.189c0 .7-.179.854-.472.421C1.528 42.6 1.107 38.9 1.987 35.148a10.523 10.523 0 0 1 1.925-3.329c1.492-1.862 1.5-1.887 1.441-3.635-.114-3.762-.076-4.106.689-5.789 1.008-2.22 1.11-3.253.472-4.8a10.632 10.632 0 0 1-1.161-4.706 10.163 10.163 0 0 1 2.041-5.875 6.712 6.712 0 0 0 1.275-3.8c0-1.008.2-1.683.51-1.683a2.421 2.421 0 0 1 .855.484m16.5 7.831a7.507 7.507 0 0 1 .561.93 17.135 17.135 0 0 1 .7 1.913c.064.2.191.7.293 1.084a20.564 20.564 0 0 1 .765 5.676c0 2.652-.319 3.519-2 5.356-1.2 1.313-1.352 1.76-1.479 4.349-.1 2.193-.153 2.474-.4 2.474a10.526 10.526 0 0 0-2.474 1.8 15.9 15.9 0 0 0-1.148 1.441c-.943 1.3-1.415 1.811-1.951 2.066-.612.293-2.193.561-2.193.383 0-.153.076-.307.816-1.607.434-.778 2.78-5.5 3.01-6.058.051-.14.216-.523.357-.842a38.757 38.757 0 0 0 1.509-4.58c.357-1.377.293-1.709-.37-1.862-.561-.115-.8.217-1.161 1.607a24.933 24.933 0 0 1-1.237 3.788 6.433 6.433 0 0 0-.242.612c0 .2-2.576 5.483-3.354 6.886C15.084 37.851 14.969 38 14.5 38a9.837 9.837 0 0 0-2.7 1.327 25.611 25.611 0 0 0-3.73 3.587 17.45 17.45 0 0 0-2.576 4.17c-.217.549-.37.421-.472-.369a13.746 13.746 0 0 1 1.913-7.5 11.017 11.017 0 0 1 2.716-2.882c.191-.1.842-.472 1.429-.817 1.53-.9 1.836-1.377 2.448-3.749.5-1.964.727-2.321 2.691-4.451 1.556-1.7 1.632-1.875 1.632-4.259a10.871 10.871 0 0 1 1.174-5.726 10.752 10.752 0 0 1 3.111-3.3 8.068 8.068 0 0 0 2.87-3.418c.74-1.531.9-1.607 1.53-.765m19.946 7.307c.217.446.242.791.242 2.551a20.119 20.119 0 0 1-.523 5.037 51.06 51.06 0 0 0-.293 1.467 21.064 21.064 0 0 1-1.16 3.481c-.2.447-.37.829-.37.867a11.848 11.848 0 0 1-.638 1.021 6.848 6.848 0 0 1-3.124 2.487 9.917 9.917 0 0 0-2.168 1.326 12.915 12.915 0 0 0-1.948 3.632c-1.084 2.742-2.244 4.388-3.775 5.382-1.045.676-1.887.906-5.05 1.39a5.647 5.647 0 0 0-3.957 2.804 6.769 6.769 0 0 1-2.066 2.168 9.336 9.336 0 0 1-4.693 1.569 20.049 20.049 0 0 1-6.568-.625 3.927 3.927 0 0 0-3.38.472c-.382.191-.739.306-.79.255a1.443 1.443 0 0 1 .025-.778 9.237 9.237 0 0 0 .128-1.237 11.979 11.979 0 0 1 1.313-4.26 19.339 19.339 0 0 1 5.229-5.586 11.283 11.283 0 0 1 4.935-1.678c2.423-.306 2.946-.612 4.451-2.614a9.648 9.648 0 0 1 4.17-3.648c.868-.408 1.607-.752 1.646-.752a11.5 11.5 0 0 0 1.645-1.071A6.852 6.852 0 0 0 31.37 27.8a11.151 11.151 0 0 1 6.823-7.116c.714-.255 2.78-.842 3.507-1.008a9.155 9.155 0 0 0 2.55-1.76c.969-.9 1.556-1.352 1.786-1.3.1.013.306.255.446.536"/>
            <path data-name="패스 72049" d="M36.038 29.153a8.13 8.13 0 0 0-.727 1.11c-3.022 5.279-7.256 9.284-13.569 12.842a38.616 38.616 0 0 1-6.5 2.946c-1.2.357-1.4.472-1.531.8a.8.8 0 0 0 .613 1.071c.675.077 3.736-1.045 6.261-2.308a38.6 38.6 0 0 0 13.99-11.184c1.544-2.1 2.793-4.221 2.793-4.757a.814.814 0 0 0-1.326-.523"/>
        </g>
    </g>
</svg>
