<svg xmlns="http://www.w3.org/2000/svg" width="56" height="56" viewBox="0 0 56 56">
    <defs>
        <clipPath id="5brfc0weba">
            <path data-name="사각형 26777" style="fill:none" d="M0 0h47.429v51.245H0z"/>
        </clipPath>
    </defs>
    <g data-name="그룹 128985">
        <g data-name="그룹 128984" style="clip-path:url(#5brfc0weba)" transform="translate(5 2)">
            <path data-name="패스 72010" d="M38.46 31.487c.2.064.625.179.944.268a9.878 9.878 0 0 1 5.296 4.323 9.557 9.557 0 0 1 1.084 5.458 8.813 8.813 0 0 1-2.678 5.5 9.034 9.034 0 0 1-4.043 2.4 6.692 6.692 0 0 1-2.716.267 7.48 7.48 0 0 1-3.762-.88 9.432 9.432 0 0 1-4.744-5.547 6.62 6.62 0 0 1-.332-2.717 7.078 7.078 0 0 1 .291-2.619 9.439 9.439 0 0 1 6.377-6.287 12.579 12.579 0 0 1 4.285-.166" style="fill:#93e5c2"/>
            <path data-name="패스 72011" d="M42.069.408a45.98 45.98 0 0 1-2.308 4.5 3.062 3.062 0 0 1-.625.829 5.9 5.9 0 0 1-.714-.217 9.641 9.641 0 0 0-3.864-.051 5.9 5.9 0 0 0-2.3 1.415c-1.352 1.352-1.862 2.207-4.387 7.4a26.744 26.744 0 0 1-2.525 4.438 49.827 49.827 0 0 1-5.382 6.81 46.728 46.728 0 0 1-7.244 5.4c-.574.331-3.3 1.683-3.736 1.849-.141.064-.74.281-1.339.51a18.148 18.148 0 0 0-5.114 2.742 7.47 7.47 0 0 0-2.024 2.736.513.513 0 0 1-.089.306 7.262 7.262 0 0 0-.306 3.7c.063.217.191.651.267.97a11.236 11.236 0 0 0 .549 1.4 6.943 6.943 0 0 0 3.966 3.328c.217.051.74.191 1.16.293a12.856 12.856 0 0 0 3.877.09c.255-.064.778-.192 1.161-.268a15.822 15.822 0 0 0 3.035-1.033 8.326 8.326 0 0 1 .855-.37c.255 0 6.121-3.073 6.848-3.584a1.271 1.271 0 0 1 .421-.242 4.388 4.388 0 0 0 .638-.383 3.035 3.035 0 0 1 .637-.382 11.633 11.633 0 0 0 1.02-.638 4.892 4.892 0 0 1 1.123-.637c.191 0 .344.522.344 1.122a10.007 10.007 0 0 0 .765 2.576c.128.242.37.7.536 1.007a14.943 14.943 0 0 0 2.244 2.691 1.883 1.883 0 0 1 .5.383 10.651 10.651 0 0 0 3.43 1.811 9.475 9.475 0 0 0 2.972.331 16.545 16.545 0 0 0 2.423-.076c.178-.064.586-.191.9-.281a11.223 11.223 0 0 0 6.262-5.037c.217-.421.446-.829.5-.893a5.487 5.487 0 0 0 .243-.7c.089-.319.217-.714.28-.893a11.139 11.139 0 0 0 .23-4.54 15.58 15.58 0 0 0-.753-2.665 15.62 15.62 0 0 1-.5-.893c-1.594-2.933-5.382-5.42-8.277-5.42-.6 0-.816-.051-.867-.191a2.791 2.791 0 0 1 .561-1.186c.345-.536.778-1.238.957-1.556s.484-.868.688-1.212a54.614 54.614 0 0 0 2.551-5.229 25.484 25.484 0 0 0 1.3-4.654c.076-.383.191-1.008.268-1.378a18.518 18.518 0 0 0-.013-4.361 5.864 5.864 0 0 0-2.194-3.342c-.382-.331-.4-.255.345-1.5A22.818 22.818 0 0 0 43.383.854C43.4.306 43.128 0 42.63 0c-.28 0-.408.089-.561.408M38.256 7.09c1.849.638 2.844 1.467 3.29 2.768a6.026 6.026 0 0 1 .281 2.359 14.922 14.922 0 0 1-.115 2.1c-.064.294-.191.88-.268 1.3a27.408 27.408 0 0 1-3.469 8.953 69.539 69.539 0 0 1-.982 1.722c-.127.229-.535.9-.9 1.5s-.791 1.288-.944 1.543a1.112 1.112 0 0 1-.829.613 10.827 10.827 0 0 0-5.93 3.66 12.053 12.053 0 0 0-1.862 3.035 5.245 5.245 0 0 1-.255.842 4.333 4.333 0 0 0-.255 1.186c0 .484 0 .484-1.849 1.683-1.008.663-1.875 1.212-1.913 1.212a2.983 2.983 0 0 0-.638.382 4.45 4.45 0 0 1-.637.383 1.261 1.261 0 0 0-.421.242c-.345.23-1.633.931-3.979 2.143-1.212.625-2.207 1.071-4.017 1.823a9.979 9.979 0 0 1-4.464.817 6.266 6.266 0 0 1-3.329-.625 7.224 7.224 0 0 1-2.219-1.888 1.31 1.31 0 0 0-.229-.446 4.1 4.1 0 0 1-.383-.855 6.2 6.2 0 0 1-.37-2.588c.243-2.9 2.4-4.808 7.359-6.53a32.207 32.207 0 0 0 4.271-2.032c.357-.216.727-.42.829-.471.268-.115 3.839-2.538 4.145-2.806.14-.128.6-.51 1.02-.855a29.8 29.8 0 0 0 2.87-2.7 62.522 62.522 0 0 0 6.147-8.532c.229-.4 1.084-2.117 2.435-4.91C32.2 8.9 33.678 7.192 35.182 6.874a8.393 8.393 0 0 1 3.074.216m.2 24.4c.2.064.625.179.944.268a9.878 9.878 0 0 1 5.3 4.32 9.557 9.557 0 0 1 1.084 5.458 8.813 8.813 0 0 1-2.678 5.5 9.034 9.034 0 0 1-4.043 2.4 6.692 6.692 0 0 1-2.716.267 7.48 7.48 0 0 1-3.762-.88 9.432 9.432 0 0 1-4.744-5.547 6.62 6.62 0 0 1-.332-2.717 7.078 7.078 0 0 1 .291-2.619 9.439 9.439 0 0 1 6.377-6.287 12.579 12.579 0 0 1 4.285-.166"/>
            <path data-name="패스 72012" d="M38.154 13.161a1.111 1.111 0 0 0-.153.612c0 .37.064.5.319.638.637.344 1.25-.357.9-1.046a.779.779 0 0 0-1.071-.2"/>
            <path data-name="패스 72013" d="M33.448 15.316a.727.727 0 0 0-.357.918c.178.714 1.339.472 1.339-.28a.683.683 0 0 0-.982-.638"/>
            <path data-name="패스 72014" d="M34.455 23.759a.658.658 0 0 0-.051 1.02.746.746 0 0 0 1.1-.064c.28-.4.255-.573-.115-.93-.383-.4-.587-.4-.931-.026"/>
            <path data-name="패스 72015" d="M25.248 26.144a.646.646 0 0 0-.064.944.78.78 0 0 0 1.339-.472.94.94 0 0 0-.765-.727.883.883 0 0 0-.51.255"/>
            <path data-name="패스 72016" d="M23.449 32.227a.743.743 0 0 0 .332 1.033.668.668 0 0 0 .956-.663c0-.523-.2-.714-.727-.714-.344 0-.446.063-.561.344"/>
            <path data-name="패스 72017" d="M14.535 35.862c-.306.332-.319.472-.051.842a.648.648 0 0 0 .587.28.667.667 0 0 0 .459-1.2.653.653 0 0 0-.995.077"/>
            <path data-name="패스 72018" d="M19.509 38.82c-.179.089-.536.293-.791.434s-.676.382-.892.522-.7.4-1.059.613c-3.3 1.925-7.04 3-9.093 2.588a8.8 8.8 0 0 1-1.543-.471c-.8-.37-1.2-.319-1.4.2-.268.625.153 1.007 1.582 1.479a8.864 8.864 0 0 0 5.037.051 25.585 25.585 0 0 0 6.695-2.831c.6-.357 1.008-.587 1.735-1.008.829-.459 1.071-.931.714-1.39a.747.747 0 0 0-.982-.191"/>
            <path data-name="패스 72019" d="M35.743 35.964c-.434.179-.587.587-.523 1.467l.051.8-.459-.37a2.359 2.359 0 0 0-.9-.433 1.087 1.087 0 0 0-1.263 1.007 2.458 2.458 0 0 0 1.972 1.865 1.323 1.323 0 0 0 1.033-.995c.076-.357.1-.37.663-.306.523.038.638 0 .918-.28a1.207 1.207 0 0 0 .306-1.008 2.236 2.236 0 0 0-.6-1.594 1.406 1.406 0 0 0-1.2-.153"/>
            <path data-name="패스 72020" d="M38.613 38.782c-.536.281-.918.893-.8 1.275a1.773 1.773 0 0 0 .408.549l.318.293-.4.4c-.433.434-.484.638-.217 1.148a2.56 2.56 0 0 0 1.25 1.11c.638.255.778.242 1.237-.141a.875.875 0 0 0 .4-.816c0-.433-.077-.561-.638-1.046-.714-.612-.765-.739-.344-.739s1.237-.714 1.237-1.1a1.409 1.409 0 0 0-.5-1.033 2.511 2.511 0 0 0-1.951.1"/>
            <path data-name="패스 72021" d="M33.473 41.371a2.038 2.038 0 0 0-1.084 1.505 1.142 1.142 0 0 0 1.046.995 2.734 2.734 0 0 0 1.441-.638c.178-.293.255-.089.255.676 0 .918.191 1.211.854 1.326.8.128 1.505-.765 1.505-1.913a1.089 1.089 0 0 0-1.135-1.237c-.28 0-.548.051-.586.128-.141.217-.319.14-.319-.141a1.25 1.25 0 0 0-.37-.637c-.459-.447-.893-.472-1.607-.064"/>
        </g>
    </g>
</svg>
