<svg xmlns="http://www.w3.org/2000/svg" width="56" height="56" viewBox="0 0 56 56">
    <defs>
        <clipPath id="srfs100uga">
            <path data-name="사각형 26775" style="fill:none" d="M0 0h37.906v47.674H0z"/>
        </clipPath>
    </defs>
    <g data-name="그룹 128981">
        <g data-name="그룹 128980" style="clip-path:url(#srfs100uga)" transform="translate(9 4)">
            <path data-name="패스 72004" d="M19.054 6.927a23.353 23.353 0 0 0 1.4 4.106c1.02 2.538 1.441 3.673 2.066 5.523a25.072 25.072 0 0 1 1.186 5.573 53.85 53.85 0 0 1 .064 8.1c-.345 2.563-.421 3.086-.523 3.507-.051.242-.192.791-.294 1.211-.726 2.972-1.823 5.344-2.895 6.249-1.782 1.491-3.58-.384-5.058-5.296-.128-.459-.319-1.173-.4-1.594s-.2-.995-.268-1.276a40.146 40.146 0 0 1 0-13.071 5.867 5.867 0 0 0 .2-2.015c-.153-.485-1.224-.523-1.415-.051a29.372 29.372 0 0 0-.829 4.552 68.666 68.666 0 0 0 .1 8.991 28.919 28.919 0 0 0 2.334 8.4 4.32 4.32 0 0 1 .433 1.02.874.874 0 0 1-.421-.115 14.441 14.441 0 0 1-5.844-6.306 20.05 20.05 0 0 1-1.824-7.983 25.622 25.622 0 0 1 .51-4.234c.064-.255.179-.663.243-.893a12.68 12.68 0 0 1 .433-1.225c.51-1.212.549-1.594.23-1.913A.787.787 0 0 0 7.3 18.2a17.81 17.81 0 0 0-1.148 2.907 16.5 16.5 0 0 0-.625 5.484 18.161 18.161 0 0 0 .752 5.739 18.348 18.348 0 0 0 3.418 6.4 3.771 3.771 0 0 1 .714.995A16.338 16.338 0 0 1 7.933 38.2a20.192 20.192 0 0 1-3.507-3.5 14.179 14.179 0 0 1-2.512-5.688 23.883 23.883 0 0 1-.077-5.637 13.85 13.85 0 0 1 4.2-8.021 34.376 34.376 0 0 1 5.688-4.451A46.137 46.137 0 0 0 16.4 7.475c.268-.242.523-.408.562-.357a33.733 33.733 0 0 1-1.569 4.132 1.032 1.032 0 0 0 .242 1.352c.523.395.931.153 1.327-.778.5-1.135.522-1.211.752-1.734A23.323 23.323 0 0 0 18.8 6.94c0-.141.064-.243.127-.243s.128.1.128.23" style="fill:#93e5c2"/>
            <path data-name="패스 72005" d="M26.26 10.893c1.8 1.212 4.285 3.035 4.527 3.316.039.038.294.268.574.51a14.679 14.679 0 0 1 4.247 6.453 15.762 15.762 0 0 1-.038 9.82 16.909 16.909 0 0 1-7.193 8.315c-1.467.88-1.556.829-.536-.357a17.829 17.829 0 0 0 3.814-7.193 23.709 23.709 0 0 0 .535-8.047 17.765 17.765 0 0 0-.778-3.239c-1.046-3.125-2.754-5.6-7.346-10.713-.318-.344-.4-.587-.127-.434.076.064 1.122.766 2.321 1.569" style="fill:#93e5c2"/>
            <path data-name="패스 72006" d="M19.054 6.927a23.353 23.353 0 0 0 1.4 4.106c1.02 2.538 1.441 3.673 2.066 5.522a25.1 25.1 0 0 1 1.186 5.573 53.864 53.864 0 0 1 .064 8.1c-.345 2.563-.421 3.086-.523 3.507-.051.242-.191.79-.293 1.211-.727 2.972-1.824 5.344-2.9 6.249-1.778 1.491-3.576-.383-5.054-5.295-.128-.459-.319-1.174-.4-1.594s-.2-.995-.268-1.276a40.152 40.152 0 0 1 0-13.072 5.866 5.866 0 0 0 .2-2.015c-.153-.484-1.224-.522-1.415-.051a29.416 29.416 0 0 0-.829 4.553 68.666 68.666 0 0 0 .1 8.991 28.934 28.934 0 0 0 2.334 8.4 4.318 4.318 0 0 1 .433 1.021.869.869 0 0 1-.42-.115 14.437 14.437 0 0 1-5.845-6.307 20.05 20.05 0 0 1-1.824-7.983 25.729 25.729 0 0 1 .51-4.234c.064-.255.179-.663.243-.893a12.68 12.68 0 0 1 .433-1.225c.51-1.212.549-1.594.23-1.913A.786.786 0 0 0 7.3 18.2a17.81 17.81 0 0 0-1.148 2.907 16.491 16.491 0 0 0-.625 5.484 18.135 18.135 0 0 0 .753 5.739 18.338 18.338 0 0 0 3.417 6.4 3.824 3.824 0 0 1 .715.995A16.366 16.366 0 0 1 7.933 38.2a20.227 20.227 0 0 1-3.507-3.5 14.179 14.179 0 0 1-2.512-5.688 23.883 23.883 0 0 1-.077-5.637 13.85 13.85 0 0 1 4.2-8.021 34.365 34.365 0 0 1 5.688-4.451A46.176 46.176 0 0 0 16.4 7.475c.268-.242.523-.408.562-.357a33.733 33.733 0 0 1-1.569 4.132 1.032 1.032 0 0 0 .242 1.352c.523.395.931.153 1.327-.778.5-1.135.522-1.212.752-1.734A23.323 23.323 0 0 0 18.8 6.94c0-.141.064-.243.128-.243s.127.1.127.23m7.206 3.966c1.8 1.212 4.285 3.035 4.527 3.316.038.038.293.268.574.51a14.7 14.7 0 0 1 4.247 6.453 15.755 15.755 0 0 1-.039 9.82 16.9 16.9 0 0 1-7.192 8.315c-1.467.88-1.556.829-.536-.357a17.839 17.839 0 0 0 3.813-7.193 23.735 23.735 0 0 0 .536-8.047 17.765 17.765 0 0 0-.778-3.239c-1.046-3.125-2.755-5.6-7.346-10.713-.319-.344-.4-.587-.128-.434.077.064 1.123.766 2.322 1.569M18.633.027c-.331.09-.6.855-.6 1.722a3.375 3.375 0 0 1-.51 1.8c-.816 1.658-2.385 3.1-6.249 5.7-.88.6-1.645 1.122-1.722 1.173s-.752.574-1.53 1.148c-3.52 2.614-5.586 5.025-6.657 7.754-.077.178-.192.459-.268.637a19.259 19.259 0 0 0-1.046 7.3 14.805 14.805 0 0 0 1.53 5.777A19.783 19.783 0 0 0 7.959 40.2a20.2 20.2 0 0 0 6.058 2.588c.829.217.854.255.625.7-1.11 2.1-1.212 2.346-1.072 2.614a.8.8 0 0 0 1.072.345c.267-.179.357-.332 1.224-2 .65-1.262.65-1.249 1.466-1.109l.7.127V45.2c0 1.836.1 2.27.586 2.448a.838.838 0 0 0 .574-.063c.294-.141.306-.192.37-2.117l.064-1.977.752-.115c.893-.127.791-.229 1.8 1.7.752 1.429 1.109 1.722 1.645 1.378.484-.319.421-.753-.319-2.168-.446-.868-.587-1.25-.472-1.289.089-.025.485-.114.867-.2a20.28 20.28 0 0 0 2.806-.841 23.1 23.1 0 0 0 4.336-2.462c.038-.051.383-.331.765-.65a17.693 17.693 0 0 0 4.987-6.606c.063-.153.165-.408.242-.574a14.68 14.68 0 0 0 .854-5.05 16.041 16.041 0 0 0-2.678-9.96c-1.25-1.9-4.323-4.6-8.124-7.142-4.348-2.908-6.338-4.8-6.8-6.44a23.518 23.518 0 0 1-.421-2.194 1.531 1.531 0 0 0-.229-.663 1.423 1.423 0 0 0-1.004-.188M21.9 9.656c.089.089.408.485.727.867s.74.867.944 1.084.905 1.033 1.581 1.824c3.711 4.361 5.012 6.976 5.509 11.121a18.828 18.828 0 0 1-.369 6.057 16.167 16.167 0 0 1-5.943 9.361 5.633 5.633 0 0 1-1.926 1.007 5.943 5.943 0 0 1 .472-1.135 21.152 21.152 0 0 0 2-6.3 32.359 32.359 0 0 0 .574-7.256 32.161 32.161 0 0 0-.5-6.581c-.038-.178-.114-.548-.178-.829a38.29 38.29 0 0 0-2.1-6.5C22.306 11.505 21.6 9.707 21.6 9.6c0-.153.127-.128.293.051"/>
        </g>
    </g>
</svg>
