<svg xmlns="http://www.w3.org/2000/svg" width="56" height="56" viewBox="0 0 56 56">
    <defs>
        <clipPath id="lzswssx6ia">
            <path data-name="사각형 26788" style="fill:none" d="M0 0h54.854v28.041H0z"/>
        </clipPath>
    </defs>
    <g data-name="그룹 129007">
        <g data-name="그룹 129006" style="clip-path:url(#lzswssx6ia)" transform="translate(1 11)">
            <path data-name="패스 72083" d="M52.932 11.39c.344.242.319.536-.128 1.709a11.53 11.53 0 0 1-2.5 3.979 3.65 3.65 0 0 0-.676.905c0 .166.14.37 1.186 1.76a10.678 10.678 0 0 1 1.586 2.666.967.967 0 0 1-.6 1.084c-.434.229-.434.229-2.869-.613-.7-.242-1.773-.6-2.4-.79a6.281 6.281 0 0 1-1.173-.447 6.492 6.492 0 0 1 .127-1.224 14.776 14.776 0 0 0 0-4.629c-.2-1.084-.178-1.288.153-1.288a15.427 15.427 0 0 0 3.035-1.492 14.054 14.054 0 0 1 2.972-1.556c.9-.306.931-.306 1.288-.064" style="fill:#93e5c2"/>
            <path data-name="패스 72084" d="M21.764 8.317a27.292 27.292 0 0 1 3.635.536A23.808 23.808 0 0 1 31.52 10.7a8.7 8.7 0 0 1 2.691 1.913 6.457 6.457 0 0 0 2.4 1.4c.637.165 2.588.446 5.152.739a10.746 10.746 0 0 1 1.543.255c.51.192.65.855.638 3.125 0 2.232-.166 3.086-.549 2.933a9.536 9.536 0 0 0-4.3-.714 2.847 2.847 0 0 0-1.785.969c-.408.612-4.464 1.645-7.575 1.913-.459.038-1.429.128-2.168.191a64.031 64.031 0 0 1-9.642.408 2.575 2.575 0 0 1-1.683-.624 17.882 17.882 0 0 0-3.023-1.633 7.789 7.789 0 0 0-2.27-.446 4.134 4.134 0 0 0-1.964.535c-.153.128-.395.077-1.147-.229l-.438-.186.9-1.008c1.2-1.352 1.67-2.308 1.67-3.4a4.352 4.352 0 0 0-1.02-2.385c-.51-.574-1.033-.6-1.441-.051-.28.383-.306.294.357 1.505a2.054 2.054 0 0 1-.051 2.232 7.647 7.647 0 0 1-2.257 2.232 6.091 6.091 0 0 1-1.224-.536A4.928 4.928 0 0 1 1.8 17.346l-.28-.74.293-.548c.485-.944 2.7-2.551 5.726-4.157.523-.268 1.454-.842 2.066-1.25a13.221 13.221 0 0 1 1.186-.74 4.026 4.026 0 0 0 .613-.242 12.593 12.593 0 0 1 3.086-.906 34.49 34.49 0 0 0 1.3-.267 9.612 9.612 0 0 1 1.4-.128 18.556 18.556 0 0 0 1.569-.115 8.047 8.047 0 0 1 1.347-.053c.357.026 1.1.077 1.658.115" style="fill:#93e5c2"/>
            <path data-name="패스 72085" d="m25.271 3.28-3.38 3.315h-1.9c-4.451 0-8.57.944-10.866 2.487a28.41 28.41 0 0 1-2.78 1.658c-3.086 1.683-5.076 3.176-5.917 4.425C-.3 16.237-.095 17.69 1 19.234c.765 1.084 1.887 1.785 4.884 3.086.242.1.778.344 1.186.523a6.165 6.165 0 0 0 .842.331 7.177 7.177 0 0 1 .956.753 7.292 7.292 0 0 0 2.744 1.573 10.572 10.572 0 0 0 3.3.179c.536-.051 2.729-.128 4.872-.153l3.89-.051.293.446a6.2 6.2 0 0 0 3.124 1.964 17.5 17.5 0 0 0 4.54.026 1.539 1.539 0 0 1 .613-.141 1.013 1.013 0 0 0 .484-.1 3.481 3.481 0 0 1 .638-.267 7.515 7.515 0 0 0 1.887-.893c.523-.434.1-1.2-1.045-1.875-.447-.268-.511-.433-.141-.433a1.836 1.836 0 0 0 .536-.115 27.13 27.13 0 0 1 1.25-.4 10.44 10.44 0 0 0 1.173-.4c.357-.191.6-.14 1.161.242a8.14 8.14 0 0 0 5.292 1.237c.587-.076.65-.127.893-.612.14-.293.293-.637.331-.752.051-.179.128-.191.421-.089 2.666.918 5.867 1.9 6.173 1.9a2.808 2.808 0 0 0 2.525-1.594c.382-.829.357-1.186-.166-2.36a20.277 20.277 0 0 0-1.62-2.563 1.945 1.945 0 0 1-.37-.612 4.565 4.565 0 0 1 .676-.969 10.744 10.744 0 0 0 .868-1.174c.089-.191.318-.612.5-.931a7.476 7.476 0 0 0 .51-1.147 2.716 2.716 0 0 1 .281-.7.937.937 0 0 0 .1-.459.647.647 0 0 1 .127-.434c.332-.2-.051-1.492-.586-1.976-1.2-1.059-2.755-.765-5.892 1.109a20.449 20.449 0 0 1-3.316 1.7c-.765.294-3.265.179-5.675-.28-.791-.153-.982-.357-.982-1.071a1.427 1.427 0 0 0-.115-.536 13.411 13.411 0 0 1-.281-.574 5.534 5.534 0 0 0-1.721-1.773 20.735 20.735 0 0 1-3.431-3.609c-.344-.5-.676-.956-.739-1.02-.217-.281-1.174-1.824-1.531-2.487-1-1.8-.931-1.721-1.377-1.747-.408-.026-.651.179-3.813 3.278m3.673-.995c.063.089.242.37.382.612.459.816 1.582 2.614 1.671 2.678a5.722 5.722 0 0 1 .484.65 23.177 23.177 0 0 0 3.635 3.839 4.458 4.458 0 0 1 1.486 1.463c.153.293.217.8.09.8a4.952 4.952 0 0 1-1.79-1.259c-1.76-1.658-4.387-2.806-8.162-3.571-.421-.089-.943-.2-1.16-.281a3.162 3.162 0 0 0-.74-.115 1.534 1.534 0 0 1-.612-.14c-.242-.127-.089-.319 2.079-2.487 1.288-1.288 2.384-2.346 2.423-2.346s.14.076.217.153m-7.18 6.032a27.258 27.258 0 0 1 3.634.536A23.8 23.8 0 0 1 31.52 10.7a8.72 8.72 0 0 1 2.691 1.913 6.445 6.445 0 0 0 2.4 1.4c.638.165 2.589.446 5.152.739a10.692 10.692 0 0 1 1.543.255c.511.192.651.855.638 3.125 0 2.232-.166 3.086-.548 2.933a9.538 9.538 0 0 0-4.3-.714 2.847 2.847 0 0 0-1.785.969c-.409.612-4.464 1.645-7.576 1.913-.459.038-1.428.128-2.168.191a64.019 64.019 0 0 1-9.641.408 2.571 2.571 0 0 1-1.683-.624 17.959 17.959 0 0 0-3.023-1.633 7.8 7.8 0 0 0-2.27-.446 4.13 4.13 0 0 0-1.964.535c-.153.128-.395.077-1.148-.229l-.438-.186.9-1.008c1.2-1.352 1.671-2.308 1.671-3.4a4.352 4.352 0 0 0-1.02-2.385c-.51-.574-1.033-.6-1.441-.051-.281.383-.306.294.357 1.505a2.054 2.054 0 0 1-.051 2.232 7.636 7.636 0 0 1-2.258 2.232 6.116 6.116 0 0 1-1.224-.536A4.929 4.929 0 0 1 1.8 17.346l-.281-.74.294-.548c.484-.944 2.7-2.551 5.726-4.157.523-.268 1.454-.842 2.066-1.25a13.221 13.221 0 0 1 1.186-.74 4.034 4.034 0 0 0 .612-.242 12.606 12.606 0 0 1 3.086-.906c.421-.076 1.008-.2 1.3-.267a9.613 9.613 0 0 1 1.4-.128 18.556 18.556 0 0 0 1.569-.115 8.04 8.04 0 0 1 1.348-.053c.357.026 1.1.077 1.658.115m31.168 3.075c.344.243.319.536-.128 1.709a11.53 11.53 0 0 1-2.5 3.979 3.648 3.648 0 0 0-.676.906c0 .166.14.37 1.186 1.76a10.7 10.7 0 0 1 1.586 2.665.967.967 0 0 1-.6 1.084c-.434.23-.434.23-2.869-.612-.7-.242-1.773-.6-2.4-.791a6.314 6.314 0 0 1-1.173-.446 6.492 6.492 0 0 1 .127-1.224 14.782 14.782 0 0 0 0-4.63c-.2-1.084-.178-1.288.153-1.288a15.456 15.456 0 0 0 3.036-1.492 14.074 14.074 0 0 1 2.971-1.556c.9-.306.931-.306 1.288-.064M41.4 22.09c1.327.4 1.722.587 1.722.842 0 .217-.1.242-.855.242-1.237 0-3.226-.676-3.226-1.084 0-.255 1.492-.255 2.359 0m-28 1.352a5.278 5.278 0 0 1 1.16.638c0 .178-1.53.127-2.283-.077a5.7 5.7 0 0 1-2.053-.943c0-.243.255-.294 1.1-.23a5.008 5.008 0 0 1 2.079.612M31.864 25.1c1.275.7 1.3.752.459.982-.344.089-.842.23-1.109.306a10.171 10.171 0 0 1-4.018-.153c-.765-.255-1.67-.74-1.67-.905a8.52 8.52 0 0 1 1.505-.23 68.815 68.815 0 0 0 2.321-.255c1.505-.191 1.721-.166 2.512.255"/>
            <path data-name="패스 72086" d="M3.106 15.777a.963.963 0 0 0-.179 1.1c.179.28.664.433 1.34.433.854 0 1.364-.331 1.364-.892 0-.587-.51-.893-1.454-.893-.625 0-.854.051-1.071.255"/>
        </g>
    </g>
</svg>
