<svg xmlns="http://www.w3.org/2000/svg" width="56" height="56" viewBox="0 0 56 56">
    <defs>
        <clipPath id="xhwchhqwta">
            <path data-name="사각형 26758" style="fill:none" d="M0 0h39.786v46.906H0z"/>
        </clipPath>
    </defs>
    <path style="opacity:.08;fill:none" d="M0 0h56v56H0z"/>
    <g data-name="그룹 128946">
        <g data-name="그룹 128945" style="clip-path:url(#xhwchhqwta)" transform="translate(8 5)">
            <path data-name="패스 71904" d="M37.953.269a2.808 2.808 0 0 0-1.722 2.908c0 .6-.051 1.02-.128 1.02s-.127-.089-.127-.191c0-.7-1.377-2.232-2.015-2.232-.2 0-.74.931-.906 1.568a2.1 2.1 0 0 0-.012 1.123 1.675 1.675 0 0 1 .089.574c-.026.038-.23-.039-.434-.153-.65-.383-1.058 0-1.39 1.288a1.892 1.892 0 0 0-.038 1.211c.191.612.128.7-.319.5s-.752.076-1.109 1.02a2.387 2.387 0 0 0 .076 2.1c.128.255.191.5.153.536s-.28-.051-.535-.2c-.434-.268-.472-.268-.7-.064a3 3 0 0 0-.523 3.124c.281.574.268.587-.242.319-.357-.178-.4-.178-.638.064a3.537 3.537 0 0 0-.574 2.92c.077.255.039.268-.675.268h-.753l-.969-.943c-.816-.791-.982-1.021-.982-1.365a2.268 2.268 0 0 0-.727-1.454.738.738 0 0 0-.446.077c-.332.178-.434.063-.255-.332a2.17 2.17 0 0 0-.09-1.747c-.293-.7-.548-.918-.982-.816-.293.076-.319.063-.242-.2.051-.166.1-.383.14-.485a3.421 3.421 0 0 0-.523-1.632c-.242-.4-.612-.536-.765-.281-.178.293-.28.089-.268-.548 0-.817-.484-1.913-.88-1.977-.357-.051-1.287.689-1.555 1.237l-.23.459-.064-.791A2.442 2.442 0 0 0 14.385 4.8c-.485-.025-.51 0-.689.485a2.517 2.517 0 0 0 .485 2.257 3.548 3.548 0 0 1 .37.523 1.708 1.708 0 0 1-.509.217.99.99 0 0 0-.588.408 2.809 2.809 0 0 0 .982 1.849.625.625 0 0 1 .37.689 2.6 2.6 0 0 0 1.148 1.938c.318.217.6.408.625.421s-.026.128-.1.23c-.2.242.039 1.122.46 1.7a2.443 2.443 0 0 1 .293.459 2.294 2.294 0 0 1-.791-.179 4.686 4.686 0 0 0-5.041 1.37l-.791.8-1.122.051a3.975 3.975 0 0 0-3.227 1.467A3.7 3.7 0 0 0 5.126 21.2c-.242.714-.37.892-.714 1.058a5.594 5.594 0 0 0-1.9 2.028 41.88 41.88 0 0 0-.394.9c-.153.345-.257.421-.778.5a1.429 1.429 0 0 0-.971.484L0 26.553l.051 2.563a26.8 26.8 0 0 0 .4 4.732c.051.2.153.637.229.956.842 3.533 2.806 5.969 6.645 8.213l1.122.651-.064.446c-.242 1.454-.229 1.836.077 2.3l.306.446 8.6.038c9.565.026 8.877.089 9.272-.842a1.684 1.684 0 0 0 .025-1.173 3.126 3.126 0 0 1-.076-.931 1.928 1.928 0 0 1 .689-.5 15.4 15.4 0 0 0 4.348-3.1 12.6 12.6 0 0 0 3.865-6.887 31.886 31.886 0 0 0 .5-5.178c0-1.466-.026-1.645-.293-2.04a1.12 1.12 0 0 0-.855-.536c-1.084-.191-1.148-.216-1.148-.472a5.823 5.823 0 0 0-1.441-2.372c-.293-.318-.344-.459-.242-.637a3.626 3.626 0 0 0 .2-.855c.077-.484.051-.676-.1-.841-.191-.217-.166-.268.344-.791a2.769 2.769 0 0 0 .778-1.288c.255-.893.255-1.059 0-1.314-.2-.191-.178-.242.255-.6A2.762 2.762 0 0 0 34.5 14.31c.012-.663.051-.816.242-.88A3 3 0 0 0 35.989 12c.306-.689.331-1.556.051-1.556-.357 0-.192-.2.293-.37a3.032 3.032 0 0 0 1.836-2.714c-.025-.255.064-.4.358-.574a3.12 3.12 0 0 0 1.249-2.143c-.038-.229-.854-.574-1.339-.574-.4 0-.37-.063.166-.535a2.908 2.908 0 0 0 .791-3.048c-.128-.447-.192-.5-.536-.485a2.861 2.861 0 0 0-.905.268m.8 1.122a2.006 2.006 0 0 1-.982 1.8 1.331 1.331 0 0 1-.663.294A1.293 1.293 0 0 1 37 2.807a1.872 1.872 0 0 1 1.02-1.7c.562-.294.689-.243.74.28m-4.11 1.688a1.983 1.983 0 0 1 .561 1.492 1.385 1.385 0 0 1-.23.892l-.217.281-.408-.421a1.926 1.926 0 0 1-.523-1.862 4.694 4.694 0 0 1 .192-.574c.1-.178.37-.089.625.192m4.106 2.053c.077.37-.561 1.071-1.173 1.3-1.084.421-1.645.025-1.059-.753a1.756 1.756 0 0 1 1.62-.8c.434.025.587.076.612.255m-23.644.74c.548.433.918 1.4.638 1.683-.1.1-.7-.2-.97-.5a1.859 1.859 0 0 1-.293-1.314c.115-.2.242-.178.625.128m18.135.65a2.4 2.4 0 0 1-.013 1.811c-.166.217-.2.229-.485.038a2.392 2.392 0 0 1-.586-.8 1.328 1.328 0 0 1-.141-1.186 1.611 1.611 0 0 1 .294-.676c.178-.1.676.331.931.816m1.237.23c-.064.242-.294.369-.294.153a2.126 2.126 0 0 0-.089-.4c-.064-.268-.051-.28.191-.153a.319.319 0 0 1 .192.4m-16.056.79c.2.791-.2 1.951-.663 1.862-.549-.1-.434-1.543.153-1.964.344-.242.42-.229.51.1m18.8.447a1.633 1.633 0 0 1-.893 1.262 2.531 2.531 0 0 1-1.581.14c-.115-.114.267-.88.573-1.16a2.707 2.707 0 0 1 1.544-.548.332.332 0 0 1 .357.306m-5.881 1.084a2.031 2.031 0 0 1 .344 2.3l-.2.383-.391-.362a2.48 2.48 0 0 1-.735-1.49c0-.472.293-1.11.51-1.11a.861.861 0 0 1 .472.281m-15.482.242c.726.6.6 1.071-.243.9a1.564 1.564 0 0 1-1.135-.79c-.217-.434-.153-.51.434-.51a1.413 1.413 0 0 1 .944.395m16.923.115c.14.089.153.153.038.268s-.179.076-.281-.128c-.153-.281-.063-.344.243-.14m-12.8.714a2.139 2.139 0 0 1-.4 1.581c-.408.345-.829-.255-.65-.943.089-.345.676-1.1.842-1.1.063 0 .153.2.2.459m14.257 0c.319.115.243.306-.114.306-.306 0-.408-.128-.23-.293.1-.1.1-.1.344-.013m1.174 1.084c.191.331-.549 1.313-1.212 1.594-.472.2-1.288.242-1.288.064a2.4 2.4 0 0 1 1.467-1.709c.472-.115.943-.089 1.033.051m-18.224.65c.6.574.561.867-.1.867a1.109 1.109 0 0 1-.957-.433c-.6-.6-.574-.842.1-.842a1.111 1.111 0 0 1 .957.408m12.383.434a2.562 2.562 0 0 1 .791 1.492 2.512 2.512 0 0 1-.2.791c-.179.446-.2.459-.472.28a2.066 2.066 0 0 1-.7-2.448c.166-.37.2-.383.587-.115m1.811.306a1.075 1.075 0 0 1-.166.319c-.166.217-.191.2-.383-.192-.306-.6-.267-.688.166-.42a.976.976 0 0 1 .383.293M21.31 12.6a1.366 1.366 0 0 1-.1 1.276c-.281.561-.625.79-.791.522a1.8 1.8 0 0 1 .319-1.823c.268-.281.408-.268.574.025m-3.035 1.811c.714.383 1.16 1.39.612 1.39-.651 0-1.531-.714-1.531-1.25 0-.216.077-.28.332-.28a1.482 1.482 0 0 1 .587.14m15.393.332a1.833 1.833 0 0 1-1.684 1.619c-.6.115-.714-.114-.421-.752a2.164 2.164 0 0 1 1.837-1.2c.229-.013.28.051.268.332m-12.613.676a.14.14 0 0 1-.14.127c-.064 0-.09-.064-.051-.127s.1-.128.14-.128.051.051.051.128m1.632.574a1.2 1.2 0 0 1-.27 1.008c-.433.536-.727.383-.727-.383 0-.663.4-1.364.753-1.3.153.025.217.2.242.676m5.816.114a1.484 1.484 0 0 1 .4 1.237c-.013.549-.064.817-.242.97-.217.216-.243.2-.664-.268a1.766 1.766 0 0 1-.459-.893c-.038-.969.153-1.671.447-1.569a2.12 2.12 0 0 1 .523.523m1.109-.306c.255.141.344.561.089.485-.165-.064-.561-.612-.433-.612a1.469 1.469 0 0 1 .344.127m-13.651 1.43a4.355 4.355 0 0 1 1.225.769 2.475 2.475 0 0 0 .969.612c.344 0 1.109.625.893.714-.09.038-.166.242-.166.446a2.559 2.559 0 0 0 .829 1.875c.28.255.433.472.344.51s-.153.306-.153.689a2.4 2.4 0 0 0 2.334 2.4c.446 0 .6.051.6.192 0 .166-1.135.191-9.488.191-5.611 0-9.527-.051-9.565-.115-.242-.382.778-1.632 1.671-2.053.7-.332.918-.574.931-1.033a3.855 3.855 0 0 1 1.824-2.6 4.13 4.13 0 0 1 2.359-.2 2.43 2.43 0 0 0 .854.064 2.051 2.051 0 0 0 .535-.692 3.475 3.475 0 0 1 2.206-1.836 3.959 3.959 0 0 1 1.8.064m3.762.089c.421.255.906 1.122.727 1.3s-.982-.1-1.262-.421c-.306-.357-.574-.944-.472-1.046.153-.153.612-.076 1.007.166m12.805.727a2.212 2.212 0 0 1-.753 1.313c-.446.319-1.313.549-1.466.4-.23-.23.153-1.11.663-1.518a1.322 1.322 0 0 1 1.007-.4c.421 0 .549.051.549.2m-8.66.663a1.1 1.1 0 0 1-.127 1.033c-.421.829-.778.842-.982.038-.141-.51.446-1.53.867-1.556.051 0 .153.217.242.485m3.38.689a2.066 2.066 0 0 1 .408 2.206c-.179.408-.357.408-.753-.038a1.784 1.784 0 0 1-.471-2.028c.178-.5.459-.536.816-.14m-1.735.8c0 .638-.127.727-.382.255-.089-.178-.243-.319-.332-.319a.328.328 0 0 1-.242-.127c-.14-.23.064-.383.523-.383.433 0 .433 0 .433.574m-4.565.153c.408.37.65.918.484 1.122-.369.434-1.657-.535-1.657-1.262 0-.2.063-.23.459-.166a1.6 1.6 0 0 1 .714.306m4.82.906c0 .242.549.867 1.225 1.377.421.331.446.382.37.867a8.809 8.809 0 0 1-.549 2.015 4.629 4.629 0 0 1-1.313.077l-1.2-.039-.115-.535c-.115-.549-.115-.549.587-1.225a2.223 2.223 0 0 0 .8-2.346c-.051-.4-.038-.549.051-.485a.361.361 0 0 1 .14.294m-.969.178c.179.689-.1 1.658-.535 1.824s-.715-.765-.4-1.378c.383-.726.791-.931.931-.446m6.581.038a1.851 1.851 0 0 1-.192.7c-.4.752-2.1 1.39-2.1.79a2.129 2.129 0 0 1 1.888-1.8c.357-.012.408.026.408.306m-9.372 1.929c.561.561.612 1.084.115 1.084a1.718 1.718 0 0 1-1.262-.892c-.281-.536-.243-.638.255-.638a1.14 1.14 0 0 1 .892.446m9.272.663c.433.46.892 1.3.8 1.454a8.336 8.336 0 0 1-1.874.115h-1.783l.089-.74a4.593 4.593 0 0 1 .153-.829 1.531 1.531 0 0 1 .651-.1 2.768 2.768 0 0 0 .854-.114.878.878 0 0 1 1.11.216m3.086 3.329a47.8 47.8 0 0 1-.421 5.254 12.346 12.346 0 0 1-.829 2.857c-1.058 2.653-3.634 5.1-7.154 6.836-1.582.778-1.671.931-1.212 1.887a2.515 2.515 0 0 1 .255.854v.319H17.42c-7.141 0-7.588-.012-7.588-.229a1.6 1.6 0 0 1 .168-.538l.166-.319 4.757-.063c4.514-.064 4.756-.077 4.935-.307a.88.88 0 0 0-.025-1.071l-.192-.28h-9.72l-.714-.37C5.789 40.479 3.736 38.5 2.716 35.99a13.137 13.137 0 0 1-.778-2.907 45.413 45.413 0 0 1-.356-5.6c.075-.191 1.376-.2 16.4-.2 8.978 0 16.35.051 16.388.1"/>
            <path data-name="패스 71905" d="M34.369 27.382a47.8 47.8 0 0 1-.421 5.254 12.346 12.346 0 0 1-.829 2.857c-1.058 2.653-3.634 5.1-7.154 6.836-1.582.778-1.671.931-1.212 1.887a2.515 2.515 0 0 1 .255.854v.319H17.42c-7.141 0-7.588-.012-7.588-.229a1.6 1.6 0 0 1 .168-.536l.166-.319 4.757-.063c4.514-.064 4.756-.077 4.935-.307a.88.88 0 0 0-.025-1.071l-.192-.28h-9.72l-.714-.37C5.789 40.479 3.736 38.5 2.716 35.99a13.137 13.137 0 0 1-.778-2.907 45.413 45.413 0 0 1-.356-5.6c.075-.191 1.376-.2 16.4-.2 8.978 0 16.35.051 16.388.1" style="fill:#93e5c2"/>
        </g>
    </g>
</svg>
