<svg xmlns="http://www.w3.org/2000/svg" width="56" height="56" viewBox="0 0 56 56">
    <defs>
        <clipPath id="7z2utdccoa">
            <path data-name="사각형 26799" transform="translate(0 .001)" style="fill:none" d="M0 0h36.609v30.048H0z"/>
        </clipPath>
    </defs>
    <g data-name="그룹 129029">
        <g data-name="그룹 129028" style="clip-path:url(#7z2utdccoa)" transform="translate(10 12.999)">
            <path data-name="패스 72143" d="M17.542 1.966c.1.74-1.007 1.173-2.449.944a4.772 4.772 0 0 0-3.736.956c-.944.7-.153 1.913.892 1.365 1.2-.625 1.378-.689 2.079-.689 1.263 0 1.594.612.625 1.135-1.785.944-3.035 2.933-2.206 3.507.535.383.829.255 1.441-.574a5 5 0 0 1 4.476-2.129 3.478 3.478 0 0 1 1.1.191 3.878 3.878 0 0 0 .74.306 5.6 5.6 0 0 1 2.206 1.938c.383.523.689.587 1.173.268.434-.28.408-.829-.051-1.492a8.063 8.063 0 0 0-2.155-2.015c-.574-.331-.65-.535-.319-.905.153-.166.4-.23.944-.23a3.021 3.021 0 0 1 1.645.472c.867.446.931.459 1.25.281a1.1 1.1 0 0 0 .459-.536c.1-.293.076-.395-.217-.7a4.787 4.787 0 0 0-3.915-1.136c-1.39.217-2.5-.229-2.4-.956.039-.281.077-.293 1.123-.268A17.357 17.357 0 0 1 30.155 5.2a11.2 11.2 0 0 1 4.769 7.678 18.66 18.66 0 0 1-.153 4.6c-.076.281-.191.74-.267 1.021a13.141 13.141 0 0 1-4.847 7.001 17.7 17.7 0 0 1-4.017 2.028 16.71 16.71 0 0 0-.893.242 25.594 25.594 0 0 1-6.5.753c-4.744 0-8.608-1.046-11.388-3.1A11.993 11.993 0 0 1 4.432 23c0-.1.038-.089.115.025s.358.179.714.192a.929.929 0 0 0 1.084-1.046 1.013 1.013 0 0 0-1.735-.753.92.92 0 0 0-.344.842v.54l-.293-.369a19.759 19.759 0 0 1-1.747-3.482 60.336 60.336 0 0 0-.255-1.084 12.447 12.447 0 0 1 .867-8.6A14.615 14.615 0 0 1 7.3 4.58a20.751 20.751 0 0 1 3.635-1.823.577.577 0 0 0 .332-.115 19.451 19.451 0 0 1 5.663-.982c.5.013.574.051.612.306" style="fill:#93e5c2"/>
            <path data-name="패스 72144" d="M15.592.079a2.3 2.3 0 0 1-.753.114 5.942 5.942 0 0 0-.956.128c-.255.064-.778.191-1.161.268a27.883 27.883 0 0 0-3.4 1.1 15.191 15.191 0 0 0-3.678 2.139A14.392 14.392 0 0 0 2.737 6.57a14.7 14.7 0 0 0-1.492 2.257 5 5 0 0 1-.243.6 14.433 14.433 0 0 0-.854 2.7A22.7 22.7 0 0 0 .1 16.785a16.2 16.2 0 0 0 1.619 5.1 15.106 15.106 0 0 0 9.731 7.371 22.756 22.756 0 0 0 6.887.791 22.42 22.42 0 0 0 5.228-.408c.625-.127 1.008-.217 2.487-.612a17.513 17.513 0 0 0 4.91-2.5 28.957 28.957 0 0 0 2.653-2.665 14.851 14.851 0 0 0 3-9.374 10.591 10.591 0 0 0-.638-4.208c-.995-3.163-4.157-6.453-7.945-8.251A20.565 20.565 0 0 0 21.777.181a41.165 41.165 0 0 0-6.185-.1m1.951 1.887c.1.74-1.008 1.173-2.449.944a4.772 4.772 0 0 0-3.736.956c-.944.7-.153 1.913.892 1.365 1.2-.625 1.378-.689 2.079-.689 1.263 0 1.594.612.625 1.135-1.785.944-3.035 2.933-2.206 3.507.535.383.829.255 1.441-.574a5 5 0 0 1 4.476-2.129 3.478 3.478 0 0 1 1.1.191 3.878 3.878 0 0 0 .74.306 5.6 5.6 0 0 1 2.206 1.938c.382.523.689.587 1.173.268.434-.28.408-.829-.051-1.492a8.063 8.063 0 0 0-2.155-2.015c-.574-.331-.65-.536-.319-.905.153-.166.395-.23.944-.23a3.023 3.023 0 0 1 1.645.472c.867.446.931.459 1.25.281a1.108 1.108 0 0 0 .459-.536c.1-.293.076-.395-.217-.7a4.791 4.791 0 0 0-3.915-1.135c-1.39.217-2.5-.229-2.4-.956.039-.281.077-.293 1.123-.268A17.357 17.357 0 0 1 30.156 5.2a11.2 11.2 0 0 1 4.769 7.678 18.662 18.662 0 0 1-.153 4.6c-.076.281-.191.74-.268 1.021a13.134 13.134 0 0 1-4.846 7.001 17.7 17.7 0 0 1-4.017 2.028c-.229.051-.638.166-.893.242a25.594 25.594 0 0 1-6.5.753c-4.744 0-8.608-1.046-11.388-3.1A11.993 11.993 0 0 1 4.433 23c0-.1.038-.09.115.025s.357.179.714.192a.929.929 0 0 0 1.084-1.046 1.013 1.013 0 0 0-1.735-.753.92.92 0 0 0-.344.842v.54l-.293-.369a19.759 19.759 0 0 1-1.747-3.482 70.592 70.592 0 0 0-.256-1.084 12.447 12.447 0 0 1 .868-8.6A14.615 14.615 0 0 1 7.3 4.58a20.751 20.751 0 0 1 3.635-1.823.572.572 0 0 0 .331-.115 19.465 19.465 0 0 1 5.663-.982c.5.013.574.051.612.306m1.339 2.219c.931.446.765.663-.51.638-1.479-.013-1.607-.141-.663-.664.548-.306.459-.306 1.173.026"/>
            <path data-name="패스 72145" d="M4.688 11.493a.663.663 0 0 0 1.07.752.618.618 0 0 0-.484-1.071.553.553 0 0 0-.586.319"/>
            <path data-name="패스 72146" d="M2.2 13.291a.667.667 0 0 0 .778 1.046c.229-.1.306-.243.306-.549a.908.908 0 0 0-.153-.548.719.719 0 0 0-.931.051"/>
            <path data-name="패스 72147" d="M8.042 13.916a.787.787 0 0 0-.014.931.844.844 0 0 0 .969 0 .839.839 0 0 0 0-.969.783.783 0 0 0-.955.038"/>
            <path data-name="패스 72148" d="M4.2 15.153a.73.73 0 0 0 .179 1.135.651.651 0 0 0 .721-1.071.658.658 0 0 0-.893-.064"/>
            <path data-name="패스 72149" d="M6.039 17.308c-.166.242-.166.319 0 .638a.589.589 0 0 0 .995.165.7.7 0 0 0 .051-.918.775.775 0 0 0-1.046.115"/>
            <path data-name="패스 72150" d="M3.412 18.635a.618.618 0 0 0 .5.956.641.641 0 0 0 .651-.956.65.65 0 0 0-1.148 0"/>
            <path data-name="패스 72151" d="M7.442 20.433a.619.619 0 0 0 .051.944c.344.344.561.319.88-.077.332-.421.332-.446.013-.79a.6.6 0 0 0-.944-.077"/>
            <path data-name="패스 72152" d="M10.528 22.652a1.081 1.081 0 0 0-.281 1.365 1.047 1.047 0 0 0 1.964-.587 1.011 1.011 0 0 0-1.683-.778"/>
            <path data-name="패스 72153" d="M7.072 23.391a1.408 1.408 0 0 0 .038 1.556 1.342 1.342 0 0 0 1.569.025 1.5 1.5 0 0 0-.013-1.594 1.5 1.5 0 0 0-1.594.013"/>
            <path data-name="패스 72154" d="M11.5 25.075a1.57 1.57 0 0 0-.816 1.084 1.455 1.455 0 0 0 .956 1.033 1.174 1.174 0 0 0 1.174-.74.994.994 0 0 0-.549-1.326 1.981 1.981 0 0 0-.459-.166 1.672 1.672 0 0 0-.306.115"/>
        </g>
    </g>
</svg>
