<svg xmlns="http://www.w3.org/2000/svg" width="56" height="56" viewBox="0 0 56 56">
    <defs>
        <clipPath id="8uucllw13a">
            <path data-name="사각형 26798" style="fill:none" d="M0 0h51.942v44.798H0z"/>
        </clipPath>
    </defs>
    <g data-name="그룹 129027">
        <g data-name="그룹 129026" style="clip-path:url(#8uucllw13a)" transform="translate(2 6.999)">
            <path data-name="패스 72135" d="M25.532 7.822c.8.191 1 .293 1 .472a7.816 7.816 0 0 0 1.352 2.4l.561.625-.51.6A5.484 5.484 0 0 0 26.7 14.53c-.331 1.569-.127 4.068.383 4.578.153.141.548.2 1.568.23a11 11 0 0 1 1.811.166 4.14 4.14 0 0 0 .8.127c.969 0 2.4 3.7 2.4 6.186a15.322 15.322 0 0 1-.446 2.805.741.741 0 0 0 .191.612c.243.306.357.345 1.1.345a3.264 3.264 0 0 0 1.084-.141c.5-.267.625.039.625 1.556 0 2.717-.816 4.4-2.742 5.675a5.883 5.883 0 0 1-6.7-.344 6.36 6.36 0 0 1-2.041-3.2 3.48 3.48 0 0 0-.1-.676 3.258 3.258 0 0 1 .026-1.211c.153-.817.166-.842 1.454-2.143l1.3-1.3.536.268c1.53.778 2.984.982 3.341.472.447-.638.166-1.084-.816-1.365a6.534 6.534 0 0 1-1.964-.739c-.421-.268-.472-.357-.4-.651.038-.191.115-.867.153-1.5a7.269 7.269 0 0 0-.763-3.73 7.986 7.986 0 0 0-4.54-3.763 15.613 15.613 0 0 0-3.826-.114c-.395.14-.5.1-.791-.37a5.87 5.87 0 0 1-.739-2.895 5.4 5.4 0 0 1 1.7-4.017 5.481 5.481 0 0 1 4.361-1.722 9.654 9.654 0 0 1 1.875.153" style="fill:#93e5c2"/>
            <path data-name="패스 72136" d="M14.883 8.932a6.525 6.525 0 0 1 1.824 1.059c0 .012-.153.395-.332.854a5.083 5.083 0 0 0-.344 2.6 4.771 4.771 0 0 0 .4 2.729 9.617 9.617 0 0 0 .536 1.1c.089.115-.09.319-.625.753a10.4 10.4 0 0 0-1.352 1.352c-.574.727-.6.727-1.377.8a5.251 5.251 0 0 1-2.959-.484A5.842 5.842 0 0 1 7.792 11.9a6.37 6.37 0 0 1 3.367-3.009 7.1 7.1 0 0 1 3.724.038" style="fill:#93e5c2"/>
            <path data-name="패스 72137" d="M22 18.28a5.992 5.992 0 0 1 4.285 3.647 7.627 7.627 0 0 1 .128 3.7 6.4 6.4 0 0 1-2.985 3.494 6.276 6.276 0 0 1-5.139.013 7.012 7.012 0 0 1-2.372-2.181 7.012 7.012 0 0 1-.867-3 5.621 5.621 0 0 1 1.785-4.068 5.058 5.058 0 0 1 2.831-1.594A4.394 4.394 0 0 1 22 18.28" style="fill:#93e5c2"/>
            <path data-name="패스 72138" d="M8.175 20.065a8.9 8.9 0 0 0 2.6 1.467 9.085 9.085 0 0 0 2.614.331c.242-.076.255-.038.191.408a19.46 19.46 0 0 0-.114 1.314l-.051.829-1.123.076a7.593 7.593 0 0 0-1.747.294 8.039 8.039 0 0 0-4.8 5c-.153.484-.306.74-.421.714a5.7 5.7 0 0 1-2.92-2.767 9.049 9.049 0 0 1-.51-1.646 5.843 5.843 0 0 1 5.356-6.567 1.761 1.761 0 0 1 .918.548" style="fill:#93e5c2"/>
            <path data-name="패스 72139" d="M13.25 26.084c.344.077.472.217.854 1a7.523 7.523 0 0 0 3.6 3.6l.918.459v1.033A4.759 4.759 0 0 1 17.4 35.5a5.6 5.6 0 0 1-3.061 1.989 4.461 4.461 0 0 1-2.5.115 5.829 5.829 0 0 1-4.693-5.675 5.175 5.175 0 0 1 1.773-4.132 5.824 5.824 0 0 1 3.851-1.773 2.581 2.581 0 0 1 .485.064" style="fill:#93e5c2"/>
            <path data-name="패스 72140" d="M22.955 31.772a9.166 9.166 0 0 0 .74 3.29 9.293 9.293 0 0 0 .943 1.454 2.129 2.129 0 0 1 .345 2.589 5.986 5.986 0 0 1-3.622 3.558 8.053 8.053 0 0 1-3.737 0 6.3 6.3 0 0 1-2.754-2.155c-.828-1.161-.842-1.148.612-1.62a8.42 8.42 0 0 0 4.157-3.724 7.2 7.2 0 0 0 .765-3.035v-.765l.931-.013a4.5 4.5 0 0 0 1.174-.115c.42-.178.446-.153.446.536" style="fill:#93e5c2"/>
            <path data-name="패스 72141" d="M5.407 32.538a1.363 1.363 0 0 1 .2.689A6.6 6.6 0 0 0 7.652 37.1a6.935 6.935 0 0 0 4.148 2.159c.612.076.638.1.676.484.077.715-1.046 2.028-2.4 2.793a6.427 6.427 0 0 1-5.14.141 6.889 6.889 0 0 1-2.41-2.168 5.874 5.874 0 0 1 1.607-7.894c.6-.434 1.007-.46 1.275-.077" style="fill:#93e5c2"/>
            <path data-name="패스 72142" d="M28.8.528a13.531 13.531 0 0 0-2.04 3.456c-.064.229-.23.842-.345 1.365-.166.7-.28.943-.408.905a17.718 17.718 0 0 0-1.951-.115 7.016 7.016 0 0 0-3.928.663 9.232 9.232 0 0 0-2.206 1.645l-.192.268-.535-.382A6.342 6.342 0 0 0 13.072 7.1a6.376 6.376 0 0 0-4.6 1.53 7.289 7.289 0 0 0-2.819 5.318 7.442 7.442 0 0 0 .485 3.163 2.344 2.344 0 0 1 .191.854.807.807 0 0 1-.421.179 6.778 6.778 0 0 0-3.66 2.142A7.026 7.026 0 0 0 .28 24.912a6.385 6.385 0 0 0 .765 3.609 6.765 6.765 0 0 0 1.327 1.887l.829.842-.88.854A7.509 7.509 0 0 0 .4 35.063c-.089.319-.217.7-.281.867a10.259 10.259 0 0 0 0 3.061 5.091 5.091 0 0 1 .281.791 7.7 7.7 0 0 0 4.9 4.693 7.169 7.169 0 0 0 2.908.268 6.976 6.976 0 0 0 4.374-2.13 10.589 10.589 0 0 1 1.008-.918 8.179 8.179 0 0 1 .88.79 7.306 7.306 0 0 0 8.544 1.2 9.5 9.5 0 0 0 2.908-2.793 8.161 8.161 0 0 0 .867-2.308c0-.255.038-.242 1.02.127a7.781 7.781 0 0 0 6.101-.411A8.651 8.651 0 0 0 37 35.063a7.144 7.144 0 0 0 .714-4.145 18.015 18.015 0 0 0-.14-2.129c-.089-.281-.025-.409.332-.766a11.486 11.486 0 0 0 1.211-1.492 1.584 1.584 0 0 1 .574.217 12.94 12.94 0 0 0 2.653.867 16.784 16.784 0 0 0 4.5.064c.229-.064.663-.191.982-.28a10.629 10.629 0 0 0 4.042-2.271c.268-.446-.2-2.384-.943-3.8a9.888 9.888 0 0 0-3.737-4c-1.454-.817-1.428-.753-.459-1.378A12.468 12.468 0 0 0 49.737 13c.586-.867.624-1.084.229-1.492l-.28-.293.4-1.186a17.567 17.567 0 0 0 1.186-6.045c0-1.581-.14-2.041-.714-2.283a11.32 11.32 0 0 0-4.068.013 23.691 23.691 0 0 0-3.87 1.033l-1.045.344-.294-.268a1.039 1.039 0 0 0-.586-.28c-.625 0-2.908 2.066-3.788 3.43-.268.434-.548.753-.625.74a6.032 6.032 0 0 1-.714-1.2A11.858 11.858 0 0 0 30.62.324c-1-.472-1.3-.447-1.824.2m2 1.645a11.956 11.956 0 0 1 4.336 6.3c.332 1.007.664 1.467 1.059 1.467.255 0 .791-.5.791-.727a8.1 8.1 0 0 1 1.1-2.232c.855-1.339 2.474-2.819 2.474-2.27 0 .229.842.127 1.671-.2.446-.192 1-.383 1.2-.447s.816-.229 1.339-.369a14.4 14.4 0 0 1 3.928-.638h1.046v1.071a10.965 10.965 0 0 1-.141 1.76A30.685 30.685 0 0 1 48.5 9.9c-.485 1.339-.676 2.334-.434 2.334.561 0-.906 1.607-2.257 2.474a8.5 8.5 0 0 1-2.219 1.1c-.255 0-.74.536-.74.829 0 .332.293.6.893.816.242.089.561.217.7.268s.459.178.7.268a9.027 9.027 0 0 1 5.165 6.057c.064.345.026.447-.28.664a12.354 12.354 0 0 1-2.219 1.1 8.826 8.826 0 0 1-3.176.472 9.355 9.355 0 0 1-4.578-1.058c-.88-.51-1.16-.625-1.377-.587a3.647 3.647 0 0 0-.893 1.059 4.966 4.966 0 0 1-1.873 1.904c-.765.395-.778.357-.727-1.416a11.036 11.036 0 0 0-.357-3.494c-.063-.179-.178-.549-.268-.829a14.961 14.961 0 0 0-.6-1.441 5.456 5.456 0 0 1-.395-.97 6.89 6.89 0 0 1 .765-.318c1.53-.613 3.928-2.4 3.928-2.921 0-.229-.587-.791-.816-.791a3.884 3.884 0 0 0-1.008.625c-2.079 1.594-3.316 2.143-4.591 2A15.73 15.73 0 0 1 28.3 17.5c-.357-.357-.255-2.232.178-3.418a3.936 3.936 0 0 1 1.48-1.836c.943-.612 1.02-1.173.2-1.671a6.151 6.151 0 0 1-1.808-2.064 9.672 9.672 0 0 1-.434-1.224 6.472 6.472 0 0 1 1.314-4.719c.293-.446.612-.79.727-.79a2.767 2.767 0 0 1 .841.4m-5.267 5.65c.8.191.995.293.995.471a7.829 7.829 0 0 0 1.352 2.4l.561.625-.51.6a5.477 5.477 0 0 0-1.229 2.607c-.332 1.568-.128 4.068.382 4.578.153.14.549.2 1.569.23a11.058 11.058 0 0 1 1.811.165 4.14 4.14 0 0 0 .8.128c.969 0 2.4 3.7 2.4 6.185a15.34 15.34 0 0 1-.447 2.806.74.74 0 0 0 .192.612c.242.306.357.344 1.1.344a3.266 3.266 0 0 0 1.084-.14c.5-.268.625.038.625 1.556 0 2.716-.816 4.4-2.742 5.675a5.883 5.883 0 0 1-6.7-.344 6.362 6.362 0 0 1-2.04-3.2 3.48 3.48 0 0 0-.1-.676 3.258 3.258 0 0 1 .025-1.212c.153-.816.166-.842 1.454-2.142l1.3-1.3.535.268c1.531.778 2.985.982 3.342.472.446-.638.165-1.084-.817-1.365a6.507 6.507 0 0 1-1.963-.74c-.421-.268-.472-.357-.4-.65.038-.191.115-.867.153-1.5a7.264 7.264 0 0 0-.763-3.731 7.988 7.988 0 0 0-4.54-3.762 15.616 15.616 0 0 0-3.826-.115c-.4.14-.5.1-.79-.37a5.857 5.857 0 0 1-.74-2.895 5.4 5.4 0 0 1 1.7-4.017 5.478 5.478 0 0 1 4.353-1.721 9.572 9.572 0 0 1 1.874.153M14.883 8.932a6.515 6.515 0 0 1 1.823 1.059c0 .012-.153.395-.331.854a5.08 5.08 0 0 0-.345 2.6 4.77 4.77 0 0 0 .4 2.729 9.642 9.642 0 0 0 .535 1.1c.09.114-.089.318-.625.752a10.458 10.458 0 0 0-1.351 1.352c-.574.727-.6.727-1.378.8a5.248 5.248 0 0 1-2.958-.484A5.841 5.841 0 0 1 7.792 11.9a6.367 6.367 0 0 1 3.367-3.01 7.1 7.1 0 0 1 3.724.038M22 18.28a5.992 5.992 0 0 1 4.285 3.647 7.627 7.627 0 0 1 .127 3.7 6.4 6.4 0 0 1-2.984 3.494 6.276 6.276 0 0 1-5.139.013 7.012 7.012 0 0 1-2.372-2.181 7.013 7.013 0 0 1-.868-3 5.622 5.622 0 0 1 1.786-4.068 5.058 5.058 0 0 1 2.831-1.594A4.394 4.394 0 0 1 22 18.28M8.174 20.066a8.908 8.908 0 0 0 2.6 1.466 9.094 9.094 0 0 0 2.614.332c.243-.077.255-.039.192.408-.039.268-.09.854-.115 1.313l-.051.829-1.122.077a7.61 7.61 0 0 0-1.748.293 8.044 8.044 0 0 0-4.795 5c-.153.485-.306.74-.421.715A5.705 5.705 0 0 1 2.41 27.73a9.118 9.118 0 0 1-.51-1.645 5.845 5.845 0 0 1 5.356-6.568 1.755 1.755 0 0 1 .918.549m5.076 6.019c.344.076.472.217.855 1a7.517 7.517 0 0 0 3.6 3.6l.918.459v1.033A4.761 4.761 0 0 1 17.4 35.5a5.606 5.606 0 0 1-3.061 1.989 4.458 4.458 0 0 1-2.5.115 5.829 5.829 0 0 1-4.694-5.675 5.175 5.175 0 0 1 1.773-4.132 5.827 5.827 0 0 1 3.852-1.773 2.574 2.574 0 0 1 .484.064m9.7 5.688a9.187 9.187 0 0 0 .74 3.29 9.232 9.232 0 0 0 .944 1.454 2.131 2.131 0 0 1 .344 2.589 5.989 5.989 0 0 1-3.622 3.558 8.053 8.053 0 0 1-3.737 0 6.3 6.3 0 0 1-2.754-2.155c-.829-1.161-.842-1.148.612-1.62a8.42 8.42 0 0 0 4.157-3.724 7.187 7.187 0 0 0 .766-3.035v-.765l.931-.013a4.488 4.488 0 0 0 1.173-.115c.421-.178.446-.153.446.536m-17.548.765a1.363 1.363 0 0 1 .2.689 6.6 6.6 0 0 0 2.046 3.87 6.935 6.935 0 0 0 4.148 2.159c.612.076.638.1.676.484.077.715-1.046 2.028-2.4 2.793a6.427 6.427 0 0 1-5.14.141 6.889 6.889 0 0 1-2.41-2.168 5.874 5.874 0 0 1 1.607-7.894c.6-.434 1.007-.46 1.275-.077"/>
        </g>
    </g>
</svg>
