<svg xmlns="http://www.w3.org/2000/svg" width="56" height="56" viewBox="0 0 56 56">
    <defs>
        <clipPath id="bwe8ypscra">
            <path data-name="사각형 26785" style="fill:none" d="M0 0h39.674v35.964H0z"/>
        </clipPath>
    </defs>
    <g data-name="그룹 129001">
        <g data-name="그룹 129000" style="clip-path:url(#bwe8ypscra)" transform="translate(9 9.999)">
            <path data-name="패스 72050" d="M5.254 2.794a25.458 25.458 0 0 1 2.882 7.091 31.2 31.2 0 0 1 .421 4.451c-.038.216-.115.969-.179 1.67a19.042 19.042 0 0 1-2.193 7.308c-.625 1.262-.956 1.811-1.1 1.785-.408-.076-2.04-3.737-2.6-5.841-.064-.242-.166-.65-.243-.893a21.689 21.689 0 0 1-.65-6.478 6.573 6.573 0 0 1 .191-1.122c.038-.039.319.063.625.216 1.148.6 3.8.243 3.992-.548.217-.854-.472-1.288-1.454-.931a2.2 2.2 0 0 1-2.461-.51c-.447-.408-.447-.638.038-1.977.217-.6.421-1.2.459-1.339A17.455 17.455 0 0 1 4.884 2.3a2.967 2.967 0 0 1 .37.5" style="fill:#93e5c2"/>
            <path data-name="패스 72051" d="M19.869 11.313a24.689 24.689 0 0 1 2.665 6.734c.077.42.2.969.268 1.224a34.934 34.934 0 0 1-.025 5.879 25.2 25.2 0 0 1-1.177 4.183 26.3 26.3 0 0 1-2.027 4.119l-.268.37-.23-.293a4.735 4.735 0 0 1-.395-.625c-.089-.179-.383-.714-.65-1.2a22.33 22.33 0 0 1-1.493-4.068c0-.306.778-.982 1.314-1.122a4.353 4.353 0 0 1 2.155.2.762.762 0 0 0 .867-.817c0-.446-.165-.6-1.045-.918a3.933 3.933 0 0 0-3.278.255c-.191.1-.344.115-.421.039a31.165 31.165 0 0 1 .141-5.637c.267-1.378.382-1.862.51-2.3.064-.242.178-.65.255-.893a21.894 21.894 0 0 1 .931-2.55 21.454 21.454 0 0 1 1.517-3.061c.051 0 .217.217.383.472" style="fill:#93e5c2"/>
            <path data-name="패스 72052" d="M34.688 2.6a29.714 29.714 0 0 1 2.7 6.134A14.94 14.94 0 0 1 38 13.9a15.543 15.543 0 0 1-.23 3.507c-.115.561-.268 1.225-.319 1.467A24.821 24.821 0 0 1 34.8 25l-.268.319-.689-1.466a21.968 21.968 0 0 1-1.377-3.214 28.175 28.175 0 0 1-1.275-5.561 15.329 15.329 0 0 1 .114-4.259c.051-.051.332 0 .613.14a4.071 4.071 0 0 0 2.372.281c1.466-.243 2.04-.778 1.581-1.467-.281-.446-.625-.51-1.365-.268a2.309 2.309 0 0 1-2.091-.191c-.727-.446-.854-.727-.638-1.4a24.965 24.965 0 0 1 2.372-5.331c.217-.357.294-.357.536.026" style="fill:#93e5c2"/>
            <path data-name="패스 72053" d="M4.233.473c-1.109 1.339-3 4.655-3 5.292a.36.36 0 0 1-.115.281.821.821 0 0 0-.178.421c-.039.2-.128.586-.2.867-.129.472-.32 1.352-.664 3.125a35.052 35.052 0 0 0 .076 5.483c.038.383.281 1.531.536 2.551a18.146 18.146 0 0 0 .956 3.188c.077.179.179.434.23.574s.229.6.4 1.02.51 1.174.778 1.671c.5.944.574 1.352.357 2.015-.383 1.237-.625 1.989-.765 2.5-.089.318-.268.918-.408 1.339a79.62 79.62 0 0 0-.74 2.486 19.071 19.071 0 0 1-.4 1.25 1.587 1.587 0 0 0 .038 1.276c.281.28.918.165 2.372-.421l1.428-.574 1.429.574c1.607.637 2.308.727 2.525.306.178-.319.1-.676-.51-2.538-.255-.8-.778-2.41-1.135-3.571s-.727-2.232-.791-2.4a1.4 1.4 0 0 1 .255-1.467 24.786 24.786 0 0 0 2.806-6.785c.089-.421.217-.994.28-1.275a20.285 20.285 0 0 0-.357-9.118c-.1-.383-.229-.88-.293-1.084A29.545 29.545 0 0 0 5.572.345c-.395-.5-.854-.459-1.339.128m1.02 2.321a25.428 25.428 0 0 1 2.882 7.091 31.051 31.051 0 0 1 .421 4.45c-.038.217-.114.97-.178 1.671a19.045 19.045 0 0 1-2.194 7.308c-.625 1.262-.956 1.811-1.1 1.785-.408-.076-2.04-3.737-2.6-5.841-.064-.242-.166-.65-.242-.893a21.728 21.728 0 0 1-.651-6.478 6.688 6.688 0 0 1 .191-1.122c.039-.039.319.063.625.216 1.148.6 3.8.243 3.992-.548.217-.854-.472-1.288-1.454-.931a2.2 2.2 0 0 1-2.461-.51c-.446-.408-.446-.638.038-1.977.217-.6.421-1.2.459-1.339A17.561 17.561 0 0 1 4.883 2.3a2.907 2.907 0 0 1 .37.5m-.089 25.347c.064.2.37 1.135.663 2.079s.676 2.117.842 2.614a2.54 2.54 0 0 1 .191.995 2.647 2.647 0 0 1-1.02-.281c-.765-.319-.969-.357-1.263-.242-.191.077-.484.191-.663.255s-.421.179-.535.242a1.15 1.15 0 0 1-.294.115c-.14 0-.051-.587.179-1.262.127-.4.306-.97.395-1.288s.255-.893.383-1.276.293-.956.382-1.275c.332-1.1.51-1.275.74-.676"/>
            <path data-name="패스 72054" d="M4.59 5.357c-.357.14-.5.65-.344 1.263.1.433.153.459.663.5.421.025.6-.013.74-.191a1.5 1.5 0 0 0 .025-1.339 1.06 1.06 0 0 0-1.084-.23"/>
            <path data-name="패스 72055" d="M3.94 13.672a1 1 0 0 0 .089 1.173c.192.166.434.2 1.212.179.918-.038.995-.064 1.2-.4s.191-.382.025-.7c-.191-.332-.255-.344-1.275-.383-.74-.025-1.135.013-1.25.128"/>
            <path data-name="패스 72056" d="M4 17.447a1.036 1.036 0 0 0-.217.638c0 .574.383.79 1.416.79.778 0 .893-.038 1.122-.331.332-.434.332-.689.013-1.046-.23-.242-.408-.281-1.2-.281-.74 0-.969.051-1.135.23"/>
            <path data-name="패스 72057" d="M15.533.32a.654.654 0 0 0-.153.68c.064.191.242.778.395 1.3s.332 1.1.4 1.275.216.752.382 1.275.37 1.276.5 1.658.293.957.382 1.275.281.919.421 1.352l.255.778-.695 1.387c-.382.765-.79 1.645-.918 1.964s-.28.689-.344.829c-.191.434-.855 2.513-1 3.125-.076.318-.166.714-.217.892a19.374 19.374 0 0 0-.472 5.051 25.767 25.767 0 0 0 .128 3.06c.077.281.2.842.281 1.263a31.274 31.274 0 0 0 1.007 3.443 18.672 18.672 0 0 0 2.716 4.6.968.968 0 0 0 .817.434c.382 0 .484-.09 1.071-.957a31.919 31.919 0 0 0 2.474-4.718 24.865 24.865 0 0 0 1.377-4.783 36.265 36.265 0 0 0 0-6.657c-.076-.306-.2-.893-.28-1.314a23.494 23.494 0 0 0-2.9-7.141 2.743 2.743 0 0 1-.421-.855 10.459 10.459 0 0 1 .434-1.53c.229-.727.726-2.257 1.1-3.418l.906-2.818c.28-.829.293-1.237.064-1.556a.958.958 0 0 0-1.072-.1c-.268.14-.7.319-2.155.88l-.676.268-1.237-.5C17.42.486 16.757.2 16.642.129a.841.841 0 0 0-1.109.191m5.854 1.989c0 .077-.23.829-.511 1.684s-.7 2.155-.943 2.895c-.281.88-.51 1.352-.638 1.377s-.2-.038-.2-.179a4.124 4.124 0 0 0-.242-.93c-.128-.4-.306-.97-.4-1.289s-.255-.892-.382-1.275a21.184 21.184 0 0 1-.638-2.181c0-.191.5-.127 1.046.141.523.255 1.25.331 1.416.165a8.937 8.937 0 0 1 1.4-.535c.051-.013.09.051.09.127m-1.518 9a24.689 24.689 0 0 1 2.665 6.734c.077.42.2.969.268 1.224a34.934 34.934 0 0 1-.025 5.879 25.2 25.2 0 0 1-1.175 4.187 26.3 26.3 0 0 1-2.027 4.119l-.268.37-.23-.293a4.735 4.735 0 0 1-.395-.625c-.089-.179-.383-.714-.65-1.2a22.33 22.33 0 0 1-1.493-4.068c0-.306.778-.982 1.314-1.122a4.353 4.353 0 0 1 2.155.2.762.762 0 0 0 .867-.817c0-.446-.165-.6-1.045-.918a3.933 3.933 0 0 0-3.278.255c-.191.1-.344.115-.421.039a31.165 31.165 0 0 1 .141-5.637c.267-1.378.382-1.862.51-2.3.064-.242.178-.65.255-.893a21.894 21.894 0 0 1 .931-2.55 21.454 21.454 0 0 1 1.517-3.061c.051 0 .217.217.383.472"/>
            <path data-name="패스 72058" d="M18.542 17.371a.9.9 0 0 0-.1 1.237c.217.217.421.268 1.135.268a2.515 2.515 0 0 0 1.1-.166 1.022 1.022 0 0 0 .013-1.313 3.51 3.51 0 0 0-2.143-.026"/>
            <path data-name="패스 72059" d="M18.683 21.056a.892.892 0 0 0-.115 1.479 3.344 3.344 0 0 0 1.977.026.865.865 0 0 0-.115-1.518 3.251 3.251 0 0 0-1.747.013"/>
            <path data-name="패스 72060" d="M18.836 29.1a1.125 1.125 0 0 0 .038 1.479c.6.574 1.365.153 1.365-.739s-.829-1.352-1.4-.74"/>
            <path data-name="패스 72061" d="M33.654.6a19.42 19.42 0 0 0-3.061 5.713 22.555 22.555 0 0 0-.65 11.1 32.6 32.6 0 0 0 2.563 7.371c.638 1.288.689 1.531.5 2.028a27.13 27.13 0 0 0-.4 1.25 89.044 89.044 0 0 1-.752 2.487c-.128.421-.357 1.2-.51 1.721s-.332 1.1-.4 1.276c-.664 2.015-.625 2.423.229 2.423a8.894 8.894 0 0 0 2.6-.893c.421-.242 1.071-.128 2.334.383 1.441.586 2 .637 2.282.229.23-.319.217-.421-.433-2.4-.255-.8-.714-2.245-1.021-3.189s-.65-2.04-.777-2.436c-.268-.765-.307-1.39-.128-1.594a15.9 15.9 0 0 0 1.17-2.028 23.029 23.029 0 0 0 2.474-10.458 17.753 17.753 0 0 0-.651-4.91c-.1-.382-.229-.88-.293-1.084a13.617 13.617 0 0 0-.638-1.789 41.854 41.854 0 0 0-2.436-4.668C34.993.141 34.866 0 34.534 0c-.293 0-.484.14-.88.6m1.033 2a29.637 29.637 0 0 1 2.7 6.134A14.94 14.94 0 0 1 38 13.9a15.549 15.549 0 0 1-.23 3.507c-.114.561-.267 1.224-.318 1.467A24.8 24.8 0 0 1 34.8 25l-.268.319-.689-1.467a21.978 21.978 0 0 1-1.377-3.213 28.246 28.246 0 0 1-1.275-5.561 15.32 15.32 0 0 1 .115-4.259c.051-.051.331 0 .612.14a4.072 4.072 0 0 0 2.372.281c1.466-.243 2.04-.778 1.581-1.467-.28-.446-.625-.51-1.364-.268a2.31 2.31 0 0 1-2.092-.191c-.727-.446-.854-.727-.637-1.4a24.915 24.915 0 0 1 2.372-5.331c.216-.357.293-.357.535.026m.215 26.112c.153.51.51 1.62.778 2.461s.561 1.709.625 1.926c.127.383.166.816.076.816-.025 0-.459-.166-.969-.382l-.918-.383-.944.37a2.78 2.78 0 0 1-.956.28 3.491 3.491 0 0 1 .255-1.288c.127-.382.357-1.135.51-1.657s.331-1.1.4-1.276.2-.65.319-1.058.293-.727.383-.727.28.408.446.918"/>
            <path data-name="패스 72062" d="M33.91 5.51a1.1 1.1 0 0 0-.1 1.173c.179.421.242.459.7.459.383 0 .562-.076.7-.28a1.262 1.262 0 0 0 .025-1.288 1.276 1.276 0 0 0-1.325-.064"/>
            <path data-name="패스 72063" d="M33.527 13.672a1.044 1.044 0 0 0-.153.612c0 .663.166.765 1.288.765 1.084 0 1.39-.153 1.39-.714 0-.714-.178-.816-1.313-.816a2.819 2.819 0 0 0-1.212.153"/>
            <path data-name="패스 72064" d="M33.578 17.422a1.015 1.015 0 0 0 .025 1.237c.166.153.472.217 1.059.217 1.033 0 1.39-.217 1.39-.829 0-.676-.255-.829-1.339-.829-.689 0-1 .051-1.135.2"/>
        </g>
    </g>
</svg>
