<svg xmlns="http://www.w3.org/2000/svg" width="56" height="56" viewBox="0 0 56 56">
    <defs>
        <clipPath id="8b2oguwjya">
            <path data-name="사각형 26764" style="fill:none" d="M0 0h33.434v46.154H0z"/>
        </clipPath>
    </defs>
    <g data-name="그룹 128959">
        <g data-name="그룹 128958" style="clip-path:url(#8b2oguwjya)" transform="translate(11 5)">
            <path data-name="패스 71950" d="M29.511 25.94c-.013.344-.077 1.237-.166 1.977s-.2 1.8-.268 2.359c-1.122 10.075-1.109 9.986-1.249 10.521a5.206 5.206 0 0 1-3.291 3.558 6.753 6.753 0 0 1-2.512.268c-1.913 0-1.645.077-3.89-1.084-1.1-.561-1.632-.51-3.367.357l-1.453.727h-1.709c-2.411 0-3.189-.268-4.477-1.492-1.147-1.1-1.453-1.951-1.785-5.012-.077-.663-.179-1.67-.242-2.232s-.179-1.594-.255-2.3c-.192-1.7-.37-3.341-.511-4.591a29.337 29.337 0 0 1-.306-3.66c.039-.064 5.79-.09 12.779-.077l12.715.038z" style="fill:#93e5c2"/>
            <path data-name="패스 71951" d="M26.654.115c-.1.051-.383.179-.612.268-1.059.382-1.8 1.556-3.711 5.879-.153.344-.383.88-.536 1.212s-.434.956-.625 1.377-.51 1.1-.688 1.492-.482 1.071-.664 1.467c-.42.931-1.4 3-2.3 4.82a7.991 7.991 0 0 0-.689 1.747.91.91 0 0 0 .8.74c.28 0 .65-.5 1.135-1.53a373.273 373.273 0 0 0 3.073-6.5c.166-.383.459-1.021.638-1.4.293-.663.421-.944 1.109-2.487a28.4 28.4 0 0 1 2.462-4.859 2.043 2.043 0 0 1 2.793-.446 1.841 1.841 0 0 1 1.058 1.925c-.013.868-.064.982-1 2.449-.242.37-.739 1.16-1.109 1.76s-1.161 1.811-1.747 2.7S25 12.383 25 12.422s-.421.714-.944 1.505c-2.372 3.634-2.64 4.081-2.6 4.463.051.459.625.855.969.651.268-.166.854-1.046 4.362-6.556.51-.8 1.3-2.027 1.747-2.7s.8-1.276.8-1.314a6.265 6.265 0 0 1 .5-.816c1.364-2 1.606-2.589 1.594-3.839a3.216 3.216 0 0 0-1.135-2.78A3.219 3.219 0 0 0 27.764 0a3.662 3.662 0 0 0-1.11.115"/>
            <path data-name="패스 71952" d="M4.4 14.679c-.688.37-1.071.982-2.691 4.221C.319 21.693 0 22.42 0 22.867a2.3 2.3 0 0 0 1.671 2.168c.536.165.561.191.714.854a7.725 7.725 0 0 1 .153 1.237c.013.306.064.931.128 1.4s.191 1.428.268 2.13c.127 1.249.255 2.359.51 4.68.076.65.191 1.671.255 2.27.408 3.724.574 4.374 1.4 5.611a6.948 6.948 0 0 0 3.545 2.7 9.05 9.05 0 0 0 2.908.23 12.993 12.993 0 0 0 2.563-.141 6.932 6.932 0 0 0 1.543-.79 1.93 1.93 0 0 1 2.27 0c1.454.854 1.811.931 4.119.931 2.271 0 2.755-.09 3.979-.7a8.321 8.321 0 0 0 2.844-2.92c.536-1.1.6-1.441.982-4.8.064-.664.179-1.671.243-2.232s.178-1.594.255-2.3c.293-2.652.37-3.354.51-4.591.076-.7.178-1.722.229-2.27.1-1.071.179-1.173.893-1.313a2.292 2.292 0 0 0 1.441-1.7c.051-1.071-.076-1.428-1.683-4.6-.893-1.786-1.709-3.342-1.8-3.457a2.325 2.325 0 0 0-1.964-.752c-1.021 0-1.2.115-1.2.74 0 .574.28.778 1.1.79.51 0 .7.064.905.281a68.33 68.33 0 0 1 3.227 6.517.974.974 0 0 1-.319.535l-.306.319h-14.51c-14.245 0-14.526 0-14.921-.255-.255-.153-.421-.357-.421-.51 0-.281 2.971-6.3 3.29-6.67.179-.2.6-.217 5.407-.217h5.216l.306-.318c.37-.358.4-.536.115-.931l-.191-.281h-5.509a47.059 47.059 0 0 0-5.765.153M29.511 25.94c-.013.344-.077 1.237-.166 1.977s-.2 1.8-.268 2.359c-1.122 10.075-1.109 9.986-1.249 10.521a5.206 5.206 0 0 1-3.291 3.558 6.753 6.753 0 0 1-2.512.268c-1.913 0-1.645.077-3.89-1.084-1.1-.561-1.632-.51-3.367.357l-1.453.727h-1.709c-2.411 0-3.189-.268-4.477-1.492-1.147-1.1-1.453-1.951-1.785-5.012-.077-.663-.179-1.67-.242-2.232s-.179-1.594-.255-2.3c-.192-1.7-.37-3.341-.511-4.591a29.337 29.337 0 0 1-.306-3.66c.039-.064 5.79-.09 12.779-.077l12.715.038z" style="fill:#222"/>
            <path data-name="패스 71953" d="M5.5 19.36a11.443 11.443 0 0 0-.905 2.1c0 .74-.332.714 12.166.714 7.014 0 11.529-.051 11.733-.127a.8.8 0 0 0 .344-1.1l-.14-.306H17.74c-6.032 0-10.993-.051-11.031-.1a4.376 4.376 0 0 1 .446-1.109 6.654 6.654 0 0 0 .5-1.225c0-.319-.421-.625-.867-.625-.37 0-.421.064-1.288 1.773"/>
        </g>
    </g>
</svg>
