<svg xmlns="http://www.w3.org/2000/svg" width="56" height="56" viewBox="0 0 56 56">
    <defs>
        <clipPath id="qbkywg2kca">
            <path data-name="사각형 26803" style="fill:none" d="M0 0h45.677v36.008H0z"/>
        </clipPath>
    </defs>
    <g data-name="그룹 129037">
        <g data-name="그룹 129036" style="clip-path:url(#qbkywg2kca)" transform="translate(5 11)">
            <path data-name="패스 72181" d="M27.658 36.008a7.483 7.483 0 0 1-.934-.058 7.642 7.642 0 0 1-3.424-1.317.614.614 0 0 1-.074-.061 8.923 8.923 0 0 0-6.07-2.411c-2.245.323-3.777 1.561-5.55 2.994-.27.218-.543.439-.824.661a.674.674 0 0 1-.277.134.654.654 0 0 1-.171.017.682.682 0 0 1-.661-.662.735.735 0 0 1 .015-.162.676.676 0 0 1 .14-.287l.5-.615c1.547-1.91 2.769-3.418 3.168-5.811.314-2.085-1.134-4.182-2.411-6.033l-.067-.1a7.6 7.6 0 0 1 3.876-11.529 6.744 6.744 0 0 1 9.236-6.82A6.748 6.748 0 0 1 34.6 1.576a6.741 6.741 0 0 1 9.5 9.483 6.735 6.735 0 0 1-2.374 10.463 6.741 6.741 0 0 1-6.826 9.233 7.608 7.608 0 0 1-7.243 5.253m-3.541-2.466a6.248 6.248 0 0 0 9.625-3.7.683.683 0 0 1 .783-.514 5.374 5.374 0 0 0 5.676-7.851.682.682 0 0 1 .389-.974 5.37 5.37 0 0 0 2.111-8.952.682.682 0 0 1-.005-.97 5.377 5.377 0 0 0-7.61-7.6.61.61 0 0 1-.485.2.684.684 0 0 1-.484-.2 5.381 5.381 0 0 0-8.966 2.104.688.688 0 0 1-.4.423.681.681 0 0 1-.578-.034 5.378 5.378 0 0 0-7.866 5.665.681.681 0 0 1-.51.782 6.236 6.236 0 0 0-3.667 9.6l.067.1c1.421 2.058 3.032 4.392 2.636 7.021a10.036 10.036 0 0 1-.405 1.607l21.42-21.4a.682.682 0 0 1 .964.965L15.435 31.171a8.692 8.692 0 0 1 1.578-.367.851.851 0 0 1 .1-.007 10.283 10.283 0 0 1 7.008 2.745"/>
            <path data-name="패스 72182" d="M.682 35.285c2.165-1.708 3.932-3.417 6.755-3.806a9.636 9.636 0 0 1 6.583 2.6A6.928 6.928 0 0 0 24.736 30a6.055 6.055 0 0 0 6.392-8.851 6.052 6.052 0 0 0 2.378-10.089 6.059 6.059 0 0 0-8.574-8.56 6.065 6.065 0 0 0-10.1 2.375 6.06 6.06 0 0 0-8.862 6.384A6.917 6.917 0 0 0 1.9 21.908c1.375 1.993 2.952 4.228 2.59 6.63-.472 2.842-2.052 4.553-3.808 6.747m0 0L26.664 9.333z" style="fill:#93e5c2"/>
            <path data-name="패스 72183" d="M17.989 36.008a7.483 7.483 0 0 1-.934-.058 7.642 7.642 0 0 1-3.427-1.317.614.614 0 0 1-.074-.061 8.925 8.925 0 0 0-6.07-2.411c-2.245.323-3.777 1.561-5.55 2.994-.27.218-.543.439-.824.661a.674.674 0 0 1-.277.134.658.658 0 0 1-.171.017.682.682 0 0 1-.662-.662.735.735 0 0 1 .015-.162.676.676 0 0 1 .14-.287l.5-.615c1.547-1.91 2.769-3.418 3.168-5.811.314-2.085-1.134-4.183-2.412-6.034l-.067-.1a7.6 7.6 0 0 1 3.874-11.53 6.744 6.744 0 0 1 9.243-6.818 6.748 6.748 0 0 1 10.475-2.372 6.741 6.741 0 0 1 9.494 9.483 6.734 6.734 0 0 1-2.375 10.463 6.74 6.74 0 0 1-6.823 9.233 7.609 7.609 0 0 1-7.243 5.253m-3.541-2.466a6.248 6.248 0 0 0 9.625-3.7.682.682 0 0 1 .783-.514 5.374 5.374 0 0 0 5.673-7.855.682.682 0 0 1 .389-.974 5.37 5.37 0 0 0 2.111-8.952.682.682 0 0 1-.005-.97 5.378 5.378 0 0 0-7.611-7.6.63.63 0 0 1-.485.2.68.68 0 0 1-.483-.2 5.383 5.383 0 0 0-8.965 2.108.682.682 0 0 1-.974.389 5.377 5.377 0 0 0-7.865 5.665.681.681 0 0 1-.51.782 6.236 6.236 0 0 0-3.667 9.6l.066.1c1.422 2.058 3.033 4.392 2.636 7.022a9.932 9.932 0 0 1-.4 1.607l21.42-21.4a.682.682 0 0 1 .964.965L5.766 31.171a8.692 8.692 0 0 1 1.578-.371c.032-.005.076-.006.1-.007a10.285 10.285 0 0 1 7.008 2.745"/>
            <path data-name="패스 72184" d="M15.918 10.136a.828.828 0 0 0-1.581.492l2.334 7.524-6.72 6.728-1.465-4.72a.828.828 0 1 0-1.581.492l1.721 5.554-3.684 3.688a.828.828 0 0 0 1.17 1.171L9.8 27.377l5.545 1.723a.828.828 0 0 0 .492-1.582l-4.718-1.465 6.724-6.73 7.533 2.338a.815.815 0 0 0 .325.039.826.826 0 0 0 .314-.089.815.815 0 0 0 .255-.2.825.825 0 0 0 .19-.613.843.843 0 0 0-.095-.313.83.83 0 0 0-.5-.4L19.166 18l7.025-7.031a.83.83 0 0 0 .252-.589.84.84 0 0 0-.061-.321.83.83 0 0 0-.774-.515.819.819 0 0 0-.319.068.829.829 0 0 0-.269.185l-7.026 7.033z"/>
        </g>
    </g>
</svg>
