<svg xmlns="http://www.w3.org/2000/svg" width="56" height="56" viewBox="0 0 56 56">
    <defs>
        <clipPath id="5tej9wbg9a">
            <path data-name="사각형 26770" style="fill:none" d="M0 0h43.625v43.609H0z"/>
        </clipPath>
    </defs>
    <g data-name="그룹 128971">
        <g data-name="그룹 128970" style="clip-path:url(#5tej9wbg9a)" transform="translate(6 5.999)">
            <path data-name="패스 71989" d="M23.962 1.779A3.8 3.8 0 0 1 25.9 3.118c.472.689.472 1.135 0 1.186a4.567 4.567 0 0 0-1.976.931c-2 1.352-3.316 3.762-3.75 6.874-.076.548-.089.574-.612.663a3.95 3.95 0 0 0-2.193 1.2 7.116 7.116 0 0 0-1.76 2.614 22.294 22.294 0 0 0-.676 3.813 17.588 17.588 0 0 1-.816 3.89 28.292 28.292 0 0 1-4.171 7.984c-.854 1.134-7.946 8.39-8.072 8.263a5.789 5.789 0 0 1 1.2-1.862 29.513 29.513 0 0 0 5.241-7.882 28.257 28.257 0 0 0 1.644-4.272 26.374 26.374 0 0 0 .574-3.125 13.94 13.94 0 0 0 .038-4.183 6.821 6.821 0 0 1 .459-3.736c.46-.995.727-1.212 1.39-1.122.485.063.6.038.842-.217a.646.646 0 0 0 .217-.625 78.2 78.2 0 0 0-.268-1.212A7.094 7.094 0 0 1 14.3 6.4c.765-.931 1.505-1.135 2.385-.664s1.148.319 2.1-1.147A10.015 10.015 0 0 1 21.08 2.2a3.969 3.969 0 0 1 1.16-.485 2.687 2.687 0 0 1 1.722.064" style="fill:#93e5c2"/>
            <path data-name="패스 71990" d="M35.4 4.215a4.4 4.4 0 0 1 2.678 1.543c1.837 1.977 1.913 3.877.293 6.759-.089.153-.5.727-.892 1.263-.906 1.186-.931 1.466-.23 2.232a1.329 1.329 0 0 1 .51 1.2c0 .753-.319 1.339-1.313 2.385a9.216 9.216 0 0 1-6.02 2.385c-1.109.064-1.275.128-1.466.587-.128.318-.115.42.114.752.332.459.332.6 0 1.161-.777 1.3-2.257 2.117-4.387 2.41-.561.076-1.619.217-2.359.319a19.523 19.523 0 0 0-5.343 1.479 3.806 3.806 0 0 1-1.021.319c-.038-.038 3.252-3.392 7.3-7.435 5.688-5.688 7.359-7.435 7.359-7.665A1.048 1.048 0 0 0 29.8 13c-.178 0-2.69 2.423-7.69 7.422-4.093 4.094-7.435 7.359-7.435 7.282a9.661 9.661 0 0 1 .5-1.4 25.873 25.873 0 0 0 1.543-6.733 13.138 13.138 0 0 1 .408-2.13 5.679 5.679 0 0 1 2.13-2.87l.561-.293.433.255c.944.549 1.441.179 1.441-1.084a10.212 10.212 0 0 1 2.232-6.006 5.371 5.371 0 0 1 2.5-1.582 2.032 2.032 0 0 1 1.5.765c.255.357.344.408.739.345a2.9 2.9 0 0 0 1.174-.7 11.21 11.21 0 0 1 2.874-1.712c.217-.076.74-.2 1.161-.293s.765-.166.778-.179.344.051.752.128" style="fill:#93e5c2"/>
            <path data-name="패스 71991" d="M21.539.2a9.588 9.588 0 0 0-4.106 3.39c-.294.395-.421.485-.638.421A3.258 3.258 0 0 0 13.033 5.4a7.047 7.047 0 0 0-1.569 4.986 15.059 15.059 0 0 0 .089 1.964c.064.319.039.4-.127.4-.344 0-1.467 1.224-1.811 1.989a11.851 11.851 0 0 0-.5 1.365 17.2 17.2 0 0 0-.077 4.259 16.289 16.289 0 0 1-.23 3.89 15.135 15.135 0 0 1-.765 2.971c-.063.141-.229.612-.382 1.033a40.136 40.136 0 0 1-2.411 4.872 32.483 32.483 0 0 1-3.032 4.091 10.755 10.755 0 0 0-1.913 2.844.933.933 0 0 1-.178.433C-.1 40.638 0 42.04.28 42.55a1.917 1.917 0 0 0 1.951 1.059 3.584 3.584 0 0 0 1.862-.421 9.236 9.236 0 0 0 2.04-1.415 26.69 26.69 0 0 1 3.52-2.755 3.723 3.723 0 0 0 .6-.37 31.87 31.87 0 0 1 6.847-3.214 21.4 21.4 0 0 1 7.014-.739c3.227.012 3.265.012 4.132-.319a4.274 4.274 0 0 0 2.666-2.028c.089-.255.6-.281 1.619-.089a9.435 9.435 0 0 0 3.316-.268 6.836 6.836 0 0 0 3.686-2.729 3.733 3.733 0 0 0 .14-2.36c-.115-.2.013-.344.842-.969a8.607 8.607 0 0 0 2.971-3.787 7.191 7.191 0 0 0-.051-3.036 7.037 7.037 0 0 0-1.658-2.448 6.924 6.924 0 0 0-2.4-1.046c-.421-.089-.727-.357-.727-.663a1.446 1.446 0 0 1 .318-.446 9.515 9.515 0 0 0 1.25-2.054 7.256 7.256 0 0 0 .582-5.407 7.05 7.05 0 0 0-5.93-4.5 10.367 10.367 0 0 0-5.5 2.066l-.688.51-.306-.293a.963.963 0 0 1-.306-.51 6.554 6.554 0 0 0-.919-2.245 6.224 6.224 0 0 0-2.512-1.8 5.246 5.246 0 0 0-3.1-.074m2.423 1.581A3.8 3.8 0 0 1 25.9 3.118c.471.689.471 1.135 0 1.186a4.564 4.564 0 0 0-1.977.931c-2 1.352-3.316 3.762-3.75 6.874-.076.548-.089.574-.612.663a3.95 3.95 0 0 0-2.193 1.2 7.116 7.116 0 0 0-1.76 2.614 22.294 22.294 0 0 0-.676 3.813 17.588 17.588 0 0 1-.816 3.89 28.313 28.313 0 0 1-4.17 7.984c-.854 1.134-7.946 8.39-8.072 8.263a5.789 5.789 0 0 1 1.2-1.862 29.513 29.513 0 0 0 5.241-7.882 28.257 28.257 0 0 0 1.644-4.272 26.374 26.374 0 0 0 .574-3.125 13.94 13.94 0 0 0 .038-4.183 6.812 6.812 0 0 1 .46-3.736c.459-.995.726-1.212 1.39-1.123.484.064.6.039.841-.216a.646.646 0 0 0 .217-.625 78.2 78.2 0 0 0-.268-1.212A7.094 7.094 0 0 1 14.3 6.4c.765-.931 1.505-1.135 2.385-.664s1.148.319 2.1-1.147A10.015 10.015 0 0 1 21.08 2.2a3.981 3.981 0 0 1 1.16-.485 2.687 2.687 0 0 1 1.722.064M35.4 4.215a4.407 4.407 0 0 1 2.68 1.543c1.836 1.977 1.913 3.877.293 6.759-.089.153-.5.727-.893 1.263-.9 1.186-.931 1.466-.229 2.231a1.332 1.332 0 0 1 .51 1.2c0 .753-.319 1.339-1.314 2.385a9.211 9.211 0 0 1-6.019 2.385c-1.11.064-1.275.127-1.467.586-.127.319-.114.421.115.753.332.459.332.6 0 1.16-.778 1.3-2.257 2.117-4.387 2.411-.561.076-1.62.217-2.359.319a19.494 19.494 0 0 0-5.344 1.479 3.815 3.815 0 0 1-1.02.319c-.038-.039 3.252-3.393 7.3-7.435 5.688-5.688 7.358-7.435 7.358-7.665A1.048 1.048 0 0 0 29.8 13c-.179 0-2.691 2.423-7.69 7.422-4.094 4.094-7.435 7.358-7.435 7.282a9.733 9.733 0 0 1 .5-1.4 25.831 25.831 0 0 0 1.543-6.734 13.255 13.255 0 0 1 .408-2.129 5.68 5.68 0 0 1 2.13-2.87l.561-.293.434.255c.944.548 1.441.179 1.441-1.084a10.218 10.218 0 0 1 2.232-6.007 5.365 5.365 0 0 1 2.5-1.581 2.029 2.029 0 0 1 1.5.765c.255.357.345.408.74.344a2.913 2.913 0 0 0 1.173-.7 11.215 11.215 0 0 1 2.87-1.709c.216-.076.739-.2 1.16-.293s.765-.166.778-.179.344.051.753.128m4.884 13.314a4.388 4.388 0 0 1 1.556 1.722.415.415 0 0 0 .127.318 2.355 2.355 0 0 1 .135 1.019 3.219 3.219 0 0 1-.332 1.658 8.549 8.549 0 0 1-2.958 2.984c-1.161.752-1.25.944-.791 1.7a2.1 2.1 0 0 1 .255 1.007 1.434 1.434 0 0 1-.523 1.187c-1.16 1.313-3.392 1.912-5.726 1.543-2.206-.37-2.155-.37-2.423-.128a.733.733 0 0 0-.128.957c.192.357-.522 1.007-1.543 1.4-.8.306-.867.319-4.03.281a19.051 19.051 0 0 0-5.394.37c-.319.076-.829.191-1.148.268a22.7 22.7 0 0 0-4.808 1.836 30 30 0 0 0-7.285 4.857c-.765.727-1.951 1.505-2.206 1.416-.14-.051 6.823-7.015 7.856-7.856a29.274 29.274 0 0 1 5.484-3.38 14.875 14.875 0 0 1 1.7-.74c.153-.063.408-.165.574-.242a24.313 24.313 0 0 1 3.66-.905c.459-.051 1.377-.166 2.04-.23a7.874 7.874 0 0 0 4.91-1.862 4.555 4.555 0 0 0 1.658-2.831c.064-.2.2-.306.548-.357a16.1 16.1 0 0 0 3.72-1.123 7.874 7.874 0 0 0 4.005-4.107c.115-.357.242-.714.268-.8.076-.2.318-.192.8.038"/>
        </g>
    </g>
</svg>
