<svg xmlns="http://www.w3.org/2000/svg" width="56" height="56" viewBox="0 0 56 56">
    <defs>
        <clipPath id="wr5usivgxa">
            <path data-name="사각형 26766" style="fill:none" d="M0 0h45.636v45.653H0z"/>
        </clipPath>
    </defs>
    <g data-name="그룹 128963">
        <g data-name="그룹 128962" style="clip-path:url(#wr5usivgxa)" transform="translate(5 5)">
            <path data-name="패스 71967" d="M20.168 1.667a7.79 7.79 0 0 1 4.387 3.469 5.441 5.441 0 0 1 1.173 3.507 6.411 6.411 0 0 1-1.823 4.808c-1.059 1.084-1.072 1.109-.587 1.811a3.8 3.8 0 0 1 .612 3.338c-.115.574-.293.791-2.066 2.6l-1.938 1.989-1.237.077-1.25.076.523-.969c.663-1.237.739-1.518.88-3.737.306-4.438.382-5.522.459-6.784.076-1.174.064-1.378-.128-1.569a.773.773 0 0 0-1.073.017c-.191.191-.255.535-.332 1.632-.255 3.941-.331 5.089-.4 6.428a15.135 15.135 0 0 1-.217 2.04 6.364 6.364 0 0 1-1.39 2.462c-.752.867-1.046.829-2.13-.268-1.453-1.454-2.18-3.329-1.823-4.693a7.663 7.663 0 0 1 .918-2.105c.472-.663.434-.88-.319-1.823a8.041 8.041 0 0 1-2.028-5.306 4.56 4.56 0 0 1 .447-2.359.539.539 0 0 0 .1-.293 10.356 10.356 0 0 1 1.9-2.615 8.129 8.129 0 0 1 3.137-1.606 11.4 11.4 0 0 1 4.2-.128" style="fill:#93e5c2"/>
            <path data-name="패스 71968" d="M33.215 9.243a6.919 6.919 0 0 1 3.264 3.1 6.658 6.658 0 0 1 .28 3.788c-.4 1.721-.331 1.645-1.428 1.976a9.328 9.328 0 0 0-3.584 1.964c-.407.383-.42.383-.764.166a12.088 12.088 0 0 0-3.049-1.3 2.935 2.935 0 0 1-.934-.321 1.814 1.814 0 0 1 .486-.459 25.593 25.593 0 0 0 3.417-2.882.929.929 0 0 0-.587-.931c-.281-.089-.854.306-3.316 2.27a15.819 15.819 0 0 1-1.288.982 2.577 2.577 0 0 1-.217-.867 6.327 6.327 0 0 0-.381-1.441l-.269-.561.357-.383a7.35 7.35 0 0 0 1.85-3.775 3.064 3.064 0 0 1 .192-.854 5.868 5.868 0 0 1 2.3-.791 8.643 8.643 0 0 1 3.673.319" style="fill:#93e5c2"/>
            <path data-name="패스 71969" d="M38.89 19.573a10.31 10.31 0 0 1 3.4 1.9 7.923 7.923 0 0 1 2.015 4.6 8.889 8.889 0 0 1-1.275 4.948 9.543 9.543 0 0 1-2.576 2.219 7.1 7.1 0 0 1-7.053.026 12.526 12.526 0 0 1-1.262-.816c-.855-.651-1.021-.664-1.952-.115a6.954 6.954 0 0 1-3.66 1.071 3.342 3.342 0 0 1-1.874-.383c-.982-.471-2.054-1.441-1.9-1.721.523-.918 3.163-2.984 3.852-3 .178-.013 2.78-.013 5.777 0l5.458.013.323-.315c.383-.383.4-.587.1-.957-.229-.255-.306-.268-6.16-.28-5.8-.013-5.943 0-6.555.255a12.3 12.3 0 0 0-3.009 2.232 4.865 4.865 0 0 1-.778.714 1.442 1.442 0 0 1-.23-.612 46.753 46.753 0 0 1-.28-1.084 15.96 15.96 0 0 1-.1-2.513l.025-2.04.714-.663c.4-.358 1.263-1.2 1.939-1.85l1.224-1.173.689.064a8.848 8.848 0 0 1 4.7 1.658 2.49 2.49 0 0 0 .919.561 3.979 3.979 0 0 0 1.237-.931 7.281 7.281 0 0 1 2.971-1.811 8.054 8.054 0 0 1 3.316 0" style="fill:#93e5c2"/>
            <path data-name="패스 71970" d="M16.8.124a1.14 1.14 0 0 1-.5.127A6.723 6.723 0 0 0 14.378.8a8.942 8.942 0 0 0-5.165 5.573 8.851 8.851 0 0 0 .089 4.91 12.387 12.387 0 0 0 1.671 3.217l.5.663-.255.357a5.527 5.527 0 0 0-.842 3.29 3.838 3.838 0 0 0 .549 2.525 7.9 7.9 0 0 0 1.492 2.117c.7.753.893 1.033.791 1.135a.47.47 0 0 1-.255.153 5.615 5.615 0 0 0-.8.319c-.383.179-1.02.459-1.4.638s-.739.319-.765.319a9.391 9.391 0 0 0-.893.382c-.459.2-.867.383-.892.383s-.383.153-.791.331-.944.421-1.186.523C2.862 29.086 1.752 30.03.847 32.2a16.7 16.7 0 0 0-.663 2.1 19.315 19.315 0 0 0-.1 4.336c.063.242.191.7.268 1.02a9.15 9.15 0 0 0 1.683 3.189 8.126 8.126 0 0 0 3.913 2.425c1.11.369 1.173.382 3.609.382a9.48 9.48 0 0 0 3.3-.268 6.743 6.743 0 0 0 2.946-1.76 15.72 15.72 0 0 0 4.17-7.46c.294-1.135 1.48-3.392 1.773-3.392a1.275 1.275 0 0 1 .408.293 10.048 10.048 0 0 0 1.454 1.109 6.021 6.021 0 0 1 .625.243 6.824 6.824 0 0 0 2.423.523 9.134 9.134 0 0 0 3.762-1.046c.574-.319.842-.293 1.467.14a8.305 8.305 0 0 0 8.506.867 10.883 10.883 0 0 0 4.285-3.775l.319-.714a8.1 8.1 0 0 0 .638-3.787 7.39 7.39 0 0 0-.919-4.26 8.982 8.982 0 0 0-5.726-4.247c-1.1-.28-1.058-.178-.765-1.862a9.08 9.08 0 0 0-.842-5.292A7.474 7.474 0 0 0 32.9 7.572a12.582 12.582 0 0 0-4.323.025c-1.454.408-1.416.421-1.505-.28a5.974 5.974 0 0 0-1.02-2.526 11 11 0 0 0-3.232-3.545 7.726 7.726 0 0 0-2.4-1 .5.5 0 0 1-.37-.127 10.667 10.667 0 0 0-3.252 0m3.367 1.543a7.793 7.793 0 0 1 4.387 3.469 5.441 5.441 0 0 1 1.173 3.507 6.413 6.413 0 0 1-1.825 4.813c-1.058 1.084-1.071 1.109-.586 1.811a3.8 3.8 0 0 1 .616 3.338c-.115.574-.293.791-2.066 2.6l-1.939 1.989-1.237.077-1.249.076.522-.969c.664-1.237.74-1.518.88-3.737.306-4.438.383-5.522.46-6.784.076-1.174.063-1.378-.128-1.569a.773.773 0 0 0-1.073.017c-.192.191-.255.535-.332 1.632-.255 3.941-.331 5.089-.4 6.428a15.135 15.135 0 0 1-.217 2.04 6.376 6.376 0 0 1-1.39 2.462c-.752.867-1.046.828-2.13-.268-1.454-1.454-2.181-3.329-1.823-4.693a7.663 7.663 0 0 1 .918-2.105c.472-.663.433-.88-.319-1.823a8.03 8.03 0 0 1-2.028-5.306 4.56 4.56 0 0 1 .447-2.359.539.539 0 0 0 .1-.293 10.331 10.331 0 0 1 1.9-2.615 8.136 8.136 0 0 1 3.137-1.607 11.424 11.424 0 0 1 4.2-.127m13.051 7.576a6.921 6.921 0 0 1 3.265 3.1 6.649 6.649 0 0 1 .28 3.788c-.4 1.722-.331 1.645-1.428 1.977a9.29 9.29 0 0 0-3.583 1.964c-.409.382-.421.382-.766.165a12.064 12.064 0 0 0-3.048-1.3 2.993 2.993 0 0 1-.934-.32 1.82 1.82 0 0 1 .485-.459 25.688 25.688 0 0 0 3.418-2.883.931.931 0 0 0-.587-.931c-.28-.089-.854.307-3.316 2.271a15.891 15.891 0 0 1-1.288.982 2.545 2.545 0 0 1-.216-.868 6.388 6.388 0 0 0-.383-1.441l-.268-.561.357-.383a7.348 7.348 0 0 0 1.849-3.774 3.14 3.14 0 0 1 .192-.855 5.9 5.9 0 0 1 2.3-.791 8.673 8.673 0 0 1 3.673.319m5.675 10.33a10.3 10.3 0 0 1 3.4 1.9 7.923 7.923 0 0 1 2.015 4.6 8.889 8.889 0 0 1-1.275 4.948 9.528 9.528 0 0 1-2.576 2.219 7.1 7.1 0 0 1-7.053.026 12.757 12.757 0 0 1-1.262-.816c-.855-.651-1.02-.663-1.951-.115a6.95 6.95 0 0 1-3.66 1.071 3.354 3.354 0 0 1-1.875-.382c-.982-.472-2.053-1.441-1.9-1.722.522-.918 3.162-2.984 3.851-3 .179-.013 2.78-.013 5.777 0l5.458.013.322-.314c.383-.383.4-.587.1-.956-.229-.256-.306-.268-6.159-.281-5.8-.013-5.943 0-6.555.255a12.281 12.281 0 0 0-3.01 2.232 4.865 4.865 0 0 1-.778.714 1.457 1.457 0 0 1-.23-.612 50.852 50.852 0 0 1-.28-1.084 15.96 15.96 0 0 1-.1-2.513l.025-2.04.714-.663c.4-.357 1.263-1.2 1.939-1.849l1.224-1.174.689.064a8.871 8.871 0 0 1 4.706 1.658 2.488 2.488 0 0 0 .918.561 3.979 3.979 0 0 0 1.237-.931 7.3 7.3 0 0 1 2.971-1.811 8.089 8.089 0 0 1 3.316 0m-20.94 5.293c0 .064-3.087 2.181-6.849 4.706-4.348 2.907-6.988 4.744-7.218 5.037a11.618 11.618 0 0 0-1.39 2.755 25.508 25.508 0 0 0-.421 2c-.229 1.275-.637-.523-.637-2.767a8.159 8.159 0 0 1 .446-3.252c.051-.141.178-.46.268-.7A6.6 6.6 0 0 1 3.7 30.425a18.27 18.27 0 0 1 2.69-1.352 6.751 6.751 0 0 0 .778-.319c.383-.178 1.021-.459 1.4-.637s.74-.319.765-.319.37-.14.766-.319 1.02-.459 1.4-.638.74-.318.766-.318.433-.179.892-.383a9.552 9.552 0 0 1 .893-.383c.026 0 .446-.178.918-.4 1.084-.5 2.972-.816 2.972-.5m1.683 1.619c.026 1.276-.013 1.429-.421 2.028a3.027 3.027 0 0 0-.37.625 3.065 3.065 0 0 1-.369.612c-.2.293-.485.74-.613.982s-.561.931-.931 1.531-.79 1.288-.93 1.53a8.211 8.211 0 0 1-.472.765c-.128.179-.587.918-1.021 1.658s-.892 1.479-1.02 1.658-.344.523-.484.765c-1.148 2.015-1.607 2.614-2.449 3.176A6.639 6.639 0 0 1 6.114 43.1a3.783 3.783 0 0 1-1.939-.255c-.586-.307-.714-.485-.829-1.314a12.537 12.537 0 0 1 .8-4.68A6.347 6.347 0 0 1 5.438 35c.5-.408 13.965-9.373 14.079-9.373a2.091 2.091 0 0 1 .115.854m.574 3.635a5.961 5.961 0 0 1 .319.8l.229.625-.318.485a3.763 3.763 0 0 0-.319.536c0 .025-.268.535-.612 1.122a8.768 8.768 0 0 0-.906 2.27 13.646 13.646 0 0 1-1.2 3.188 9.16 9.16 0 0 1-5.3 5.089 10.308 10.308 0 0 1-3.328.012c0-.076.089-.127.2-.127a7.873 7.873 0 0 0 2.537-1.316c1.123-.919 1.429-1.34 3.546-4.859.421-.7.854-1.416.982-1.6a8.081 8.081 0 0 0 .472-.765c.14-.242.561-.931.931-1.53s.79-1.288.931-1.53a11.445 11.445 0 0 1 .612-.982 3.723 3.723 0 0 0 .37-.6 3.021 3.021 0 0 1 .663-.969c.051 0 .127.076.191.153"/>
        </g>
    </g>
</svg>
