<svg xmlns="http://www.w3.org/2000/svg" width="56" height="56" viewBox="0 0 56 56">
    <defs>
        <clipPath id="eevhzxzq1a">
            <path data-name="사각형 26792" style="fill:none" d="M0 0h39.203v43.552H0z"/>
        </clipPath>
    </defs>
    <g data-name="그룹 129015">
        <g data-name="그룹 129014" style="clip-path:url(#eevhzxzq1a)" transform="translate(9 6)">
            <path data-name="패스 72103" d="M11.72 10.657a15.476 15.476 0 0 1 4.387 1.53 10.5 10.5 0 0 0 3.52 1.327 10.437 10.437 0 0 0 3.532-1.327c3.406-1.721 6.3-2.091 8.711-1.109a9.752 9.752 0 0 1 5.33 6.963 13.228 13.228 0 0 1 .344 5.739c-.332 2.41-.829 3.813-2.614 7.358-2.334 4.63-4.668 7.321-7.78 8.94a15.107 15.107 0 0 1-7.715 1.786 11.646 11.646 0 0 1-3.954-.447A15.127 15.127 0 0 1 9 37.872a27.919 27.919 0 0 1-5.727-8.927 16.716 16.716 0 0 1-1.632-5.994 14.377 14.377 0 0 1 2.028-8.71 7.771 7.771 0 0 1 5.433-3.609 6.882 6.882 0 0 1 2.614.025" style="fill:#93e5c2"/>
            <path data-name="패스 72104" d="M23.963.123a1.221 1.221 0 0 1-.536.128 2.108 2.108 0 0 0-.637.114c-.166.064-.638.243-1.059.408A9.475 9.475 0 0 0 18.25 3.26l-.982 1.059-.383-.345a6.484 6.484 0 0 0-1.9-1.249.778.778 0 0 0-.969.663c0 .382.1.5 1.02 1.109a5.377 5.377 0 0 1 1.721 1.556 13 13 0 0 1 1.48 2.678 9.388 9.388 0 0 1 .535 2.755 3.041 3.041 0 0 1-1.186-.408 21.937 21.937 0 0 0-4.272-1.747c-.28-.077-.752-.192-1.033-.268a14.452 14.452 0 0 0-3.775-.026c-.166.064-.523.179-.8.255a15.122 15.122 0 0 0-1.594.6 9.946 9.946 0 0 0-2.258 1.619 14.467 14.467 0 0 0-2.847 4.579.361.361 0 0 1-.114.28 1.183 1.183 0 0 0-.2.485c-.051.23-.141.65-.217.931A20.717 20.717 0 0 0 .115 24.1a22.817 22.817 0 0 0 2.55 7.333c2.309 4.718 4.681 7.677 7.614 9.475a16.566 16.566 0 0 0 3.481 1.658 17.536 17.536 0 0 0 6.619.918 9.816 9.816 0 0 1 1.339-.127 12.188 12.188 0 0 0 2.755-.485 17.286 17.286 0 0 0 8.392-5.445 20.693 20.693 0 0 0 1.555-2.168 4.018 4.018 0 0 1 .358-.613 46.655 46.655 0 0 0 3.3-6.529c.1-.281.229-.625.293-.765a17.546 17.546 0 0 0 .51-1.849 13.655 13.655 0 0 0 .319-3.635 15.137 15.137 0 0 0-.893-5.752 11.962 11.962 0 0 0-3.252-4.9 6.141 6.141 0 0 0-2.295-1.479 36.09 36.09 0 0 0-1.084-.434 11.916 11.916 0 0 0-4.4-.255 22.317 22.317 0 0 0-4.655 1.594c-1.173.549-2.079.957-2.143.957a4.841 4.841 0 0 1-.216-.931 11.354 11.354 0 0 0-1.11-3.635c-.37-.765-.332-.931.166-.6a10.584 10.584 0 0 0 6.724 1.597A9.2 9.2 0 0 0 32.1 5.02c1.212-1.237 1.288-1.5.638-2.117a10.663 10.663 0 0 0-2.079-1.568c-.344-.192-.688-.383-.765-.434A16.767 16.767 0 0 0 27.3.136a10.735 10.735 0 0 0-3.337-.013m3.214 1.543A8.877 8.877 0 0 1 30.85 3.3l.446.37-.446.472A9.438 9.438 0 0 1 28.682 5.7a6.962 6.962 0 0 1-2.092.676 5.243 5.243 0 0 0-.969.14A9.09 9.09 0 0 1 19.678 4.8c-.408-.357-.383-.472.178-1.007a8.367 8.367 0 0 1 3.9-2.028 4.006 4.006 0 0 0 .714-.115 8.006 8.006 0 0 1 2.7.013m-15.45 8.994a15.476 15.476 0 0 1 4.387 1.53 10.5 10.5 0 0 0 3.52 1.327 10.437 10.437 0 0 0 3.532-1.327c3.406-1.721 6.3-2.091 8.711-1.109a9.752 9.752 0 0 1 5.33 6.963 13.228 13.228 0 0 1 .344 5.739c-.332 2.41-.829 3.813-2.614 7.358-2.334 4.63-4.668 7.321-7.78 8.94a15.107 15.107 0 0 1-7.715 1.786 11.646 11.646 0 0 1-3.954-.447A15.127 15.127 0 0 1 9 37.872a27.919 27.919 0 0 1-5.727-8.927 16.716 16.716 0 0 1-1.632-5.994 14.377 14.377 0 0 1 2.028-8.71 7.771 7.771 0 0 1 5.433-3.609 6.882 6.882 0 0 1 2.614.025"/>
            <path data-name="패스 72105" d="M34.548 20.566c-.281.14-.319.242-.344.982a24.708 24.708 0 0 1-.421 3.571c-.051.178-.23.752-.4 1.275a41.651 41.651 0 0 1-3.239 6.44 15.879 15.879 0 0 1-3.992 4.018c-1.759.982-1.938 1.122-1.938 1.5 0 .484.332.918.7.918a7.558 7.558 0 0 0 2.589-1.263c2.219-1.505 3.979-3.749 5.892-7.524 1.773-3.507 2.3-5.318 2.3-7.984V20.8l-.383-.2c-.446-.23-.37-.23-.765-.026"/>
        </g>
    </g>
</svg>
