<svg xmlns="http://www.w3.org/2000/svg" width="56" height="56" viewBox="0 0 56 56">
    <defs>
        <clipPath id="phwjs1x5la">
            <path data-name="사각형 26762" style="fill:none" d="M0 0h46.165v35.187H0z"/>
        </clipPath>
    </defs>
    <g data-name="그룹 128954">
        <g data-name="그룹 128953" style="clip-path:url(#phwjs1x5la)" transform="translate(5 11)">
            <path data-name="패스 71940" d="M34.344 2.2c1.3 0 1.492.025 1.441.2a13.208 13.208 0 0 0-.331 3.38 4.478 4.478 0 0 1-.294 2.244c-.242.5-.331.574-.727.612a10.809 10.809 0 0 0-3.877 1.263 9.473 9.473 0 0 0-2.384 1.773c-1.862 1.759-2.271 1.951-4.694 2.231a11.17 11.17 0 0 0-6.9 3.24 16.134 16.134 0 0 1-1.377 1.2 4.814 4.814 0 0 1-2.423.778 6.178 6.178 0 0 0-1.237.141c-1.008.255-1.084.076-.141-.4a9.09 9.09 0 0 0 1.722-1.224c.791-.727.982-1.02 2.321-3.38a9.479 9.479 0 0 1 3.877-3.239 63.727 63.727 0 0 0 1.581-.74A10.356 10.356 0 0 0 23.5 7.93a11.373 11.373 0 0 1 3.469-4.451A6.529 6.529 0 0 1 29.2 2.306a4.611 4.611 0 0 1 2.168-.179c.8.039 2.142.077 2.971.077" style="fill:#93e5c2"/>
            <path data-name="패스 71941" d="M36.564 13.455a3.09 3.09 0 0 1 .956.638 3.054 3.054 0 0 1-1.109 4.336C33.848 20.048 31 19.143 31 16.72c0-2.4 3.226-4.3 5.56-3.265" style="fill:#93e5c2"/>
            <path data-name="패스 71942" d="M24.4 19.072c1.875.574 2.576 2.04 1.734 3.66a4.158 4.158 0 0 1-3.9 2.27 2.547 2.547 0 0 1-2.168-.791 2.389 2.389 0 0 1-.383-2.882 4.411 4.411 0 0 1 3.138-2.27 2.037 2.037 0 0 1 1.581.013" style="fill:#93e5c2"/>
            <path data-name="패스 71943" d="M13.461 24.487a2.281 2.281 0 0 1 1.62 2.283c0 1.9-1.964 3.583-4.2 3.583A2.673 2.673 0 0 1 8.3 28.938 1.805 1.805 0 0 1 8.194 27a4.273 4.273 0 0 1 5.267-2.512" style="fill:#93e5c2"/>
            <path data-name="패스 71944" d="M36.793.113a10.153 10.153 0 0 1-2.423.6 3.776 3.776 0 0 1-1.212-.077 10.967 10.967 0 0 0-2.066-.153 5.992 5.992 0 0 0-2.292.28 10.348 10.348 0 0 0-2.908 1.48 14.286 14.286 0 0 0-2.538 2.729c-.1.179-.255.434-.331.574-1.084 1.964-1.875 2.869-3.01 3.405-.383.178-1.135.536-1.684.791a11.332 11.332 0 0 0-1.734 1.033 11.332 11.332 0 0 0-2.436 2.563 16 16 0 0 1-2.069 3.112 5.541 5.541 0 0 1-1.4.982c-.433.216-1.249.6-1.785.854a7.783 7.783 0 0 0-1.148.625c-.089.089-.37.293-.612.472a12.6 12.6 0 0 0-2.168 2.244 10.593 10.593 0 0 0-1.212 2.551c-.114.344-.255.74-.306.88s-.178.459-.267.7c-.166.46-.256.715-.5 1.314a2.02 2.02 0 0 0-.14.6A6.942 6.942 0 0 1 .893 30.4C.077 31.32 0 31.46 0 31.97A1.194 1.194 0 0 0 .447 33l.446.472L2 33.437a10.319 10.319 0 0 1 3.035.357c.14.051.6.255 1.02.446a8.274 8.274 0 0 0 4.068.931 8.047 8.047 0 0 0 3.711-.51 10.739 10.739 0 0 0 4.438-2.793 5.5 5.5 0 0 1 3.916-1.887 10.814 10.814 0 0 0 3.787-.919 4.034 4.034 0 0 1 .612-.242 14.946 14.946 0 0 0 2.934-2.155 5.789 5.789 0 0 1 4.463-2.053 11.313 11.313 0 0 0 6.275-2.653 9.621 9.621 0 0 0 2.971-4.553 7.391 7.391 0 0 1 1.913-3.826c1.059-1.147 1.212-1.568.829-2.321-.332-.676-.676-.8-2.13-.8a9.816 9.816 0 0 1-4.8-1.225 3.578 3.578 0 0 0-.918-.306 5.331 5.331 0 0 1-.829-.153c-.51-.14-.574-.191-.51-.42a10.313 10.313 0 0 0 .268-2.87 9.769 9.769 0 0 1 .369-3 10.866 10.866 0 0 1 .46-1.109 1.322 1.322 0 0 0-.056-1.161.933.933 0 0 0-1.033-.1M34.344 2.2c1.3 0 1.492.025 1.441.2a13.245 13.245 0 0 0-.331 3.379 4.483 4.483 0 0 1-.294 2.245c-.242.5-.331.574-.726.612a10.792 10.792 0 0 0-3.877 1.262 9.5 9.5 0 0 0-2.385 1.773c-1.862 1.76-2.27 1.951-4.693 2.232a11.175 11.175 0 0 0-6.9 3.239 16.19 16.19 0 0 1-1.377 1.2 4.821 4.821 0 0 1-2.423.778 6.254 6.254 0 0 0-1.237.14c-1.008.255-1.084.077-.14-.4a9.169 9.169 0 0 0 1.721-1.225c.791-.726.982-1.02 2.321-3.379a9.485 9.485 0 0 1 3.877-3.239 65.853 65.853 0 0 0 1.582-.74 10.387 10.387 0 0 0 2.6-2.359 11.373 11.373 0 0 1 3.47-4.438A6.512 6.512 0 0 1 29.2 2.307a4.6 4.6 0 0 1 2.168-.179c.8.038 2.142.077 2.971.077m3.112 8.136a10.466 10.466 0 0 1 2.143.816 8.175 8.175 0 0 0 3.685.829 4.626 4.626 0 0 1 1.1.064 9.4 9.4 0 0 1-.753.956 7.413 7.413 0 0 0-1.67 3.227 7.929 7.929 0 0 1-.676 2 8.9 8.9 0 0 1-4.5 4.094 6.661 6.661 0 0 0-.625.242 12.734 12.734 0 0 1-3.4.638 7.406 7.406 0 0 0-2.423.816 20.656 20.656 0 0 0-1.785 1.441 18.541 18.541 0 0 1-2.071 1.636 12.24 12.24 0 0 1-4.413 1.351c-2.3.255-2.946.574-4.986 2.411a15.99 15.99 0 0 1-1.85 1.479c-.267.14-.612.319-.752.4a13.13 13.13 0 0 1-2.232.8 15.6 15.6 0 0 1-4.081-.089c-.242-.077-.841-.332-1.339-.562a8.205 8.205 0 0 0-4.2-.982 1.92 1.92 0 0 1-.841-.051 6.619 6.619 0 0 1 .739-1.033 8.032 8.032 0 0 0 1.556-2.856A3.607 3.607 0 0 1 4.5 26.7a.448.448 0 0 0 .089-.268A4.906 4.906 0 0 1 5 25.4a9.336 9.336 0 0 1 3.125-3.239 12.347 12.347 0 0 1 3.673-1.3 15.751 15.751 0 0 0 2.78-.446A8.7 8.7 0 0 0 18 18.044a10.048 10.048 0 0 1 3.749-2.168 15.152 15.152 0 0 1 3.061-.523c1.543-.191 2.436-.689 4.285-2.347a14.668 14.668 0 0 1 1.722-1.4c.2-.1.51-.281.688-.4a11.945 11.945 0 0 1 2.3-.854 12.989 12.989 0 0 1 3.66-.013"/>
            <path data-name="패스 71945" d="M33.214 11.946a5.821 5.821 0 0 0-3.813 4.2 4.088 4.088 0 0 0 1.237 3.57 4.883 4.883 0 0 0 1.721.982 7.527 7.527 0 0 0 3.15-.063 5.787 5.787 0 0 0 4.069-4.069 3.169 3.169 0 0 0-.064-1.976 4.168 4.168 0 0 0-2.729-2.729 6.67 6.67 0 0 0-3.571.089m3.354 1.543a3.09 3.09 0 0 1 .956.638 3.054 3.054 0 0 1-1.109 4.336c-2.563 1.619-5.407.714-5.407-1.709 0-2.4 3.226-4.3 5.56-3.265"/>
            <path data-name="패스 71946" d="M22.381 17.483a6.353 6.353 0 0 0-1.658.637 7.266 7.266 0 0 0-2.1 1.8 1.346 1.346 0 0 1-.229.46 4.142 4.142 0 0 0-.587 2.3 3.472 3.472 0 0 0 .74 2.194 3.083 3.083 0 0 0 1.606 1.364 3.73 3.73 0 0 0 2.1.319 5.019 5.019 0 0 0 3.43-.982 5.4 5.4 0 0 0 2.232-2.908 4.135 4.135 0 0 0 .14-1.147 3.769 3.769 0 0 0-1.39-3.048 4.962 4.962 0 0 0-4.285-.982m2.028 1.581c1.875.574 2.576 2.04 1.734 3.66a4.158 4.158 0 0 1-3.9 2.27 2.547 2.547 0 0 1-2.168-.791 2.389 2.389 0 0 1-.383-2.882 4.411 4.411 0 0 1 3.138-2.27 2.037 2.037 0 0 1 1.581.013"/>
            <path data-name="패스 71947" d="M10.521 22.915a5.966 5.966 0 0 0-3.66 3.061 4.058 4.058 0 0 0 1.084 5.076 5.906 5.906 0 0 0 6.071.025 6.226 6.226 0 0 0 2.193-2.377 3.356 3.356 0 0 0 .421-1.862 3.778 3.778 0 0 0-2.793-3.915 6.65 6.65 0 0 0-3.316-.013m2.908 1.569a2.281 2.281 0 0 1 1.62 2.283c0 1.9-1.964 3.583-4.2 3.583A2.673 2.673 0 0 1 8.26 28.93 1.805 1.805 0 0 1 8.162 27a4.273 4.273 0 0 1 5.267-2.512"/>
        </g>
    </g>
</svg>
