<svg xmlns="http://www.w3.org/2000/svg" width="56" height="56" viewBox="0 0 56 56">
    <defs>
        <clipPath id="286i9epifa">
            <path data-name="사각형 26794" style="fill:none" d="M0 0h35.673v46.067H0z"/>
        </clipPath>
    </defs>
    <g data-name="그룹 129019">
        <g data-name="그룹 129018" style="clip-path:url(#286i9epifa)" transform="translate(11 4.999)">
            <path data-name="패스 72111" d="M26.116 14.279c.663.064 1.62.166 2.1.217a2.7 2.7 0 0 1 1.633.574 8.375 8.375 0 0 1 3.051 3.417 9.46 9.46 0 0 1 1.058 2.959 14.652 14.652 0 0 1 .077 4.145 36.4 36.4 0 0 0-.268 1.377 21.686 21.686 0 0 1-1.416 4.12c-.28.586-.5 1.084-.5 1.109 0 .115-1.76 2.9-2.232 3.545A27.746 27.746 0 0 1 20 43.841a3.645 3.645 0 0 1-2.168.586 3.225 3.225 0 0 1-2.028-.548 27.263 27.263 0 0 1-11.924-11.8 19.461 19.461 0 0 1-2.258-7.269 12.521 12.521 0 0 1 .294-4.03 9.822 9.822 0 0 1 3.877-5.611 3.166 3.166 0 0 1 1.938-.663c.612-.064 1.518-.166 2-.23s1.39-.153 1.99-.2l1.084-.089.382.752a14.575 14.575 0 0 0 1.811 2.742 12.03 12.03 0 0 0 2.781 2.665c.369 0 .752-.293 1.836-1.39a14.951 14.951 0 0 0 2.742-3.647 3.524 3.524 0 0 1 .752-1.084 3.962 3.962 0 0 1 1.008.025c.433.051 1.339.153 2 .23" style="fill:#93e5c2"/>
            <path data-name="패스 72112" d="M18.031.276a19.393 19.393 0 0 0-1.008 4.757c-.013.383-.076.5-.217.459-2.206-.561-5.649-.765-6.44-.382-.357.165-.383.229-.421 1.033a8.192 8.192 0 0 0 .166 1.81c.1.523.191.982.191 1.021a3.752 3.752 0 0 1-.7.382 8.782 8.782 0 0 0-4.095 3.724 2.7 2.7 0 0 1-.765.829 13.364 13.364 0 0 0-2.551 2.538A13.3 13.3 0 0 0 .2 21.1a19.215 19.215 0 0 0-.113 4.44.752.752 0 0 1 .14.46 20.356 20.356 0 0 0 1.39 5.037c.128.294.37.8.523 1.161a31.716 31.716 0 0 0 3.571 5.611 28.675 28.675 0 0 0 6.364 5.714 20.269 20.269 0 0 0 4.591 2.385 3.411 3.411 0 0 1 .752.114 4.266 4.266 0 0 0 2.092-.255 1.227 1.227 0 0 1 .459-.115.553.553 0 0 0 .357-.127 4.326 4.326 0 0 1 .689-.408 29.219 29.219 0 0 0 7.09-5.254A29.591 29.591 0 0 0 32 35.092c.1-.191.447-.791.791-1.339a11.327 11.327 0 0 0 .6-1.059c0-.025.217-.535.5-1.109s.548-1.263.625-1.5.255-.778.4-1.2a13.442 13.442 0 0 0 .4-1.53c.077-.421.2-1.008.268-1.3a24.737 24.737 0 0 0-.026-4.859 10.491 10.491 0 0 0-1.007-3.022 11.167 11.167 0 0 0-3.525-4.274 3.7 3.7 0 0 1-.957-1.1 8.832 8.832 0 0 0-3.851-3.418c-.778-.37-.829-.472-.625-1.2a8.659 8.659 0 0 0 .064-2.959 3.217 3.217 0 0 0-1.02-.28 16.363 16.363 0 0 0-5.752.612c-.281.076-.293.038-.293-.536a16.544 16.544 0 0 1 .523-3.175c.267-1 .28-1.339.051-1.594a.741.741 0 0 0-1.135.025m-3.954 6.288a7.2 7.2 0 0 1 3.137.842 1.13 1.13 0 0 0 1.365 0 5.2 5.2 0 0 1 1.16-.5A17.828 17.828 0 0 1 24 6.41c.293.115.268 1.135-.064 2-.523 1.377-.472 1.619.459 1.9a8.745 8.745 0 0 1 3.227 1.836c.574.549.535.7-.191.651-1.416-.128-3.2-.332-3.7-.447a2.384 2.384 0 0 0-1.849.1 5.8 5.8 0 0 0-.485.982c-.574 1.454-2.984 4.668-3.507 4.668-.459 0-2.7-2.857-3.367-4.272-.7-1.531-.7-1.531-1.1-1.582a20.533 20.533 0 0 0-3.316.37c-1.492.217-2.487.255-2.487.089 0-.459 2.117-1.862 3.507-2.321 1.084-.37 1.275-.676.893-1.441a4.3 4.3 0 0 1-.485-2.487c.128-.127.829-.1 2.538.1m12.039 7.716c.663.064 1.62.166 2.1.217a2.7 2.7 0 0 1 1.633.574 8.375 8.375 0 0 1 3.055 3.424 9.46 9.46 0 0 1 1.058 2.959 14.652 14.652 0 0 1 .077 4.145 36.4 36.4 0 0 0-.268 1.377 21.686 21.686 0 0 1-1.416 4.12c-.28.586-.5 1.084-.5 1.109 0 .115-1.76 2.9-2.232 3.545A27.746 27.746 0 0 1 20 43.841a3.645 3.645 0 0 1-2.168.586 3.225 3.225 0 0 1-2.028-.548 27.263 27.263 0 0 1-11.924-11.8 19.461 19.461 0 0 1-2.258-7.269 12.521 12.521 0 0 1 .294-4.03 9.822 9.822 0 0 1 3.877-5.611 3.166 3.166 0 0 1 1.938-.663c.612-.064 1.518-.166 2-.23s1.39-.153 1.99-.2l1.084-.089.382.752a14.575 14.575 0 0 0 1.811 2.742 12.03 12.03 0 0 0 2.781 2.665c.369 0 .752-.293 1.836-1.39a14.951 14.951 0 0 0 2.742-3.647 3.524 3.524 0 0 1 .752-1.084 3.962 3.962 0 0 1 1.008.025c.433.051 1.339.153 2 .23"/>
            <path data-name="패스 72113" d="M13.822 23.486a1.69 1.69 0 0 0-.077 1.1c.128 1.046.383 1.428.944 1.428.765 0 1.008-.574.7-1.709-.268-.969-.37-1.1-.893-1.1-.37 0-.536.077-.676.281"/>
            <path data-name="패스 72114" d="M20.581 23.55a5.073 5.073 0 0 0-.268 1.161c-.115.969.089 1.3.791 1.3.484 0 .65-.267.931-1.5.127-.573.127-.714-.051-.981s-.319-.319-.714-.319c-.421 0-.536.063-.689.344"/>
            <path data-name="패스 72115" d="M27.685 23.742a5.222 5.222 0 0 0-.421 1.722.759.759 0 0 0 .906.778c.548-.051.778-.5.854-1.607.064-.957-.076-1.174-.74-1.174-.357 0-.5.064-.6.281"/>
            <path data-name="패스 72116" d="M7.641 23.6c-.413.213-.493.653-.266 1.678s.6 1.386 1.265 1.146c.333-.107.373-.2.413-.786a2.322 2.322 0 0 0-.44-1.878c-.346-.346-.506-.373-.972-.16"/>
            <path data-name="패스 72117" d="M17.278 31.98c-.166.179-.217.472-.217 1.275 0 .919.026 1.059.281 1.225a.825.825 0 0 0 1.007.038 3.617 3.617 0 0 0 .2-2.385.848.848 0 0 0-1.275-.153"/>
            <path data-name="패스 72118" d="M12.01 33.52c-.346.133-.4.346-.32 1.239.16 1.585.773 2.131 1.6 1.425l.346-.306-.173-.973c-.24-1.292-.653-1.691-1.452-1.385"/>
            <path data-name="패스 72119" d="M23.718 33.37c-.268.1-.5.7-.587 1.518-.063.625-.051.829.115.982.561.573 1.326.255 1.5-.625.268-1.378.268-1.531-.051-1.76a1.042 1.042 0 0 0-.982-.115"/>
        </g>
    </g>
</svg>
