<svg xmlns="http://www.w3.org/2000/svg" width="230.593" height="264.77" viewBox="0 0 230.593 264.77"><g transform="translate(-890.603 -108.615)"><g transform="translate(926.166 151.681)"><g transform="translate(-35.563 -50.066)"><path d="M230.337,104.745c-.235-.823-2.045-5.409-2.692-6.114a53.344,53.344,0,0,0-5.16-4.269c-1.162-.767-6.367-3.452-7.992-4.192s-6.159-3.093-7.552-3.846-11.24-6.809-13.931-8.67S182.836,73.1,181.05,72.4s-6.447-2.866-7.841-3.62-10.3-6.634-12.91-9.08-17.551-13.589-19.327-14.331a20.046,20.046,0,0,0-4.67-.679c-2.713-.43-6.459-.6-6.878-.7-.587-.146-2.165-.807-3.632-1.43s-2.935-2.9-3.265-4.256a15.545,15.545,0,0,1-.146-4.732c.146-1.54,1.761-4.181,1.908-4.7s.4-1.1,1.283-.659,2.054-2.459,2.715-6.053-.88-3.3-1.246-3.156-.147-.294-.147-.294c1.761-9.464-1.246-13.719-3.962-15.846a10.109,10.109,0,0,0-2.513-1.355A10.042,10.042,0,0,0,116.246,0s-.363.046-.95.146c-.586-.1-.95-.146-.95-.146a10.05,10.05,0,0,0-4.171,1.507,10.108,10.108,0,0,0-2.513,1.355c-2.715,2.127-5.723,6.382-3.962,15.846,0,0,.221.441-.146.294s-1.908-.44-1.248,3.156,1.835,6.493,2.715,6.053,1.137.146,1.284.659,1.761,3.156,1.908,4.7a15.587,15.587,0,0,1-.148,4.732c-.33,1.357-1.8,3.632-3.265,4.256s-3.045,1.284-3.631,1.43c-.421.106-4.165.273-6.88.7a20.058,20.058,0,0,0-4.67.679c-1.775.742-16.715,11.884-19.325,14.331s-11.517,8.328-12.911,9.08-6.054,2.913-7.841,3.62-9.268,3.4-11.96,5.256-12.538,7.916-13.931,8.67S17.725,89.431,16.1,90.17s-6.83,3.425-7.991,4.192a53.207,53.207,0,0,0-5.161,4.269c-.647.705-2.456,5.291-2.692,6.114s-.47,1.646.088,2.027,1.927-.744,2.413-1.482.83-2.577,2.393-3.831,2.732-2.555,5.506-2.692c0,0,.3-.307-.023.387a15.956,15.956,0,0,1-2.637,2.631,4.9,4.9,0,0,0-1.483,2.777c.026.854.719.415,1.579.032s5.592-3.321,6.391-3.738a18.523,18.523,0,0,0,2.6-2.215s2.755-4.08,4.368-4.866,8.241-3.069,11.142-4.15,7.171-2.529,8.953-3.057,8.975-3.924,10.351-4.647,19.47-11.244,21.6-12.371,9.659-6.284,13.558-7.228a32.014,32.014,0,0,1,4.164-.9,4.312,4.312,0,0,1,.187.62c.489,2.544.195,8.218,1.467,12.718s5.283,10.761,4.892,26.315c-.279,11.037-3.5,21.411-5.639,27.5-.164.1-7.651,15.692-8.291,17.17S74.805,168.508,73,173.3,62.4,195.211,59.259,198.68a66.436,66.436,0,0,0-14.283,27.07c-3.8,14.328-5.594,17.1-5.933,18.417s-2.409,2.152-2.4,3.923a4.81,4.81,0,0,1-1.41,3.118s-4.479,2.984-5.555,3.9-2.15,1.827-1.451,3.616a21.1,21.1,0,0,0,3.223,4.845,3.026,3.026,0,0,0,4.119.7,11.116,11.116,0,0,0,4.551-5.75c.831-2.165,1.457-4.4,2.241-5.283s1.451-3.616,2.466-5.9,8.609-14.888,10.539-17.772,8.412-13.19,9.827-15.423,4.744-10.007,7.676-13.6,11.785-14.666,12.954-16.477S98.5,166.933,100.5,164.632c1.6-1.85,7.835-8.175,10.757-11.266a20.33,20.33,0,0,1,3.771-.444,2.157,2.157,0,0,0,.265-.051,2.207,2.207,0,0,0,.265.051,20.352,20.352,0,0,1,3.773.444c2.922,3.091,9.151,9.416,10.757,11.266,2,2.3,13.511,17.624,14.678,19.434s10.023,12.885,12.954,16.477,6.261,11.364,7.676,13.6,7.9,12.539,9.827,15.423,9.524,15.486,10.538,17.772,1.682,5.02,2.466,5.9,1.41,3.118,2.241,5.283a11.116,11.116,0,0,0,4.551,5.75,3.028,3.028,0,0,0,4.121-.7,21.1,21.1,0,0,0,3.222-4.845c.7-1.789-.375-2.7-1.451-3.616s-5.554-3.9-5.554-3.9a4.8,4.8,0,0,1-1.41-3.118c.008-1.771-2.061-2.6-2.4-3.923s-2.134-4.089-5.933-18.417a66.438,66.438,0,0,0-14.282-27.07c-3.142-3.468-11.934-20.593-13.741-25.383s-10.188-26.077-10.829-27.554-8.129-17.071-8.291-17.17c-2.134-6.085-5.361-16.459-5.639-27.5-.391-15.554,3.619-21.815,4.891-26.315s.978-10.174,1.468-12.718a3.99,3.99,0,0,1,.187-.62,32.05,32.05,0,0,1,4.163.9c3.9.943,11.429,6.1,13.558,7.228S177.324,81.2,178.7,81.922s8.569,4.118,10.351,4.647,6.053,1.976,8.954,3.057,9.529,3.364,11.142,4.15,4.367,4.866,4.367,4.866a18.555,18.555,0,0,0,2.6,2.215c.8.417,5.532,3.356,6.391,3.738s1.552.821,1.578-.032a4.883,4.883,0,0,0-1.483-2.777,15.956,15.956,0,0,1-2.637-2.631c-.321-.694-.023-.387-.023-.387,2.774.137,3.945,1.437,5.508,2.692s1.905,3.093,2.391,3.831,1.855,1.865,2.413,1.482.323-1.2.088-2.027" transform="translate(0 7)" fill="#dfdfdf"/></g></g><path d="M106.247,2.336,107.871,3.5l-.584.812-1.624-1.168.584-.812Zm3.247,2.336,1.457,1.048h0l.023.017h0l0,0h.006l.01.007h0l.006,0h0l.006,0h.006l0,0,0,0h0l0,0h.006l0,0,.016.011h0l.007,0h0l.013.009h0l0,0h0l0,0h0l.006,0h0l.009.007h0l0,0h0l0,0h0l0,0h0l0,0h0l0,0h0l-.584.812L108.91,5.484Zm3.247,2.336,1.624,1.168-.584.812L112.157,7.82l.584-.812Zm3.247,2.336,1.623,1.168-.584.812L115.4,10.156l.584-.812Zm3.247,2.336,1.624,1.168-.584.812-1.624-1.168.584-.812Zm3.247,2.336,1.624,1.168-.584.812L121.9,14.828l.584-.812Zm3.247,2.336,1.624,1.168-.584.812-1.624-1.168Zm3.247,2.336,1.624,1.168-.584.812L128.392,19.5Zm3.247,2.336.1.072h0l.034.024h0l.044.032h0l.009.007h0l.032.023h0l.013.009h0l.023.017h0l.006,0h0l.006,0h0l0,0h0l0,0,.013.01h0l.014.01h0l.063.045h0l1.247.9-.584.812-1.624-1.168Zm3.247,2.336,1.624,1.168-.584.812-1.623-1.168Zm3.247,2.336,1.624,1.168-.584.812-1.624-1.168Zm3.247,2.336,1.624,1.168-.584.812-1.624-1.168Zm3.247,2.336,1.624,1.168-.584.812-1.624-1.168Zm3.247,2.336.35.252h0l0,0h0l.035.025h0l0,0,.006,0,0,0,0,0,.006,0,.012.008h0l.015.011,0,0,.006,0h0l.008.006h0l.016.012h0l.017.012h0l.009.006h0l.007.005,0,0,1.108.8-.584.812-1.624-1.168Zm3.247,2.336,1.624,1.168-.584.812-1.624-1.168.584-.812Zm3.247,2.336,1.624,1.168-.584.812-1.624-1.168Zm3.247,2.336,1.623,1.168-.584.812-1.624-1.168.584-.812Zm3.247,2.336,1.624,1.168-.584.812-1.623-1.168.584-.812Zm3.247,2.336,1.624,1.168-.584.812L164.109,45.2l.584-.812Zm3.247,2.336,1.624,1.168-.584.812-1.624-1.168Zm3.247,2.336,1.624,1.168-.584.812L170.6,49.868Zm3.247,2.336,1.623,1.168-.584.812L173.85,52.2Zm3.247,2.336.752.541h0l.08.058,0,0h0l0,0,0,0,.011.008,0,0h0l.009.006h0l.009.006h0l0,0,0,0,0,0,0,0,0,0h0l0,0h0l.008.006h0l.009.006h0l.008.006,0,0,.018.013h0l.018.013,0,0,.659.474-.584.812L177.1,54.54Zm3.247,2.336,1.624,1.168-.584.812-1.624-1.168Zm3.247,2.336,1.624,1.168-.584.812-1.624-1.168Zm3.247,2.336,1.623,1.168-.584.812-1.623-1.168Zm3.247,2.336,1.624,1.168-.584.812-1.623-1.168.584-.812Zm3.247,2.336.975.7h0l0,0h0l0,0h0l0,0h0l0,0,.006,0,0,0,.006,0,0,0,0,0h0l0,0h0l.016.011.007.005.022.016h0l.008.006,0,0,.033.024,0,0,.511.368-.584.812-1.624-1.168Zm3.247,2.336,1.624,1.168-.584.812-1.624-1.168.584-.812Zm3.247,2.336,1.624,1.168-.584.812-1.623-1.168.584-.812Zm3.247,2.336,1.624,1.168-.584.812-1.623-1.168.584-.812Zm1.045,2.432.95.312-.624,1.9-.95-.312Zm-1.247,3.8.95.312-.624,1.9-.95-.312Zm-1.247,3.8.95.312-.624,1.9-.95-.312Zm-1.247,3.8.95.312h0v0h0l0,.007h0l-.62,1.888-.95-.312Zm-1.247,3.8.95.312-.624,1.9-.95-.312Zm-1.247,3.8.95.312-.624,1.9-.95-.312Zm-1.247,3.8.95.312-.624,1.9-.95-.312Zm-1.247,3.8.95.312-.624,1.9-.95-.312Zm-1.247,3.8.95.312-.624,1.9-.95-.312Zm-1.247,3.8.95.312-.624,1.9-.95-.312Zm-1.247,3.8.95.312-.624,1.9-.95-.312Zm-1.247,3.8.95.312-.624,1.9-.95-.312Zm-1.247,3.8.95.312-.624,1.9-.95-.312Zm-1.247,3.8.95.312-.624,1.9-.95-.312Zm-1.247,3.8.95.312-.624,1.9-.95-.312Zm-1.247,3.8.95.312-.624,1.9-.95-.312Zm-1.247,3.8.95.312-.326.993v0l0,.006-.294.9-.95-.312Zm-1.247,3.8.95.312-.624,1.9-.95-.312Zm-1.247,3.8.95.312-.624,1.9-.95-.312Zm-1.247,3.8.95.312-.624,1.9-.95-.312Zm-1.247,3.8.95.312-.624,1.9-.95-.312Zm-1.247,3.8.95.312-.624,1.9-.95-.312Zm-1.247,3.8.95.312-.624,1.9-.95-.312Zm-1.247,3.8.95.312-.624,1.9-.95-.312Zm-1.247,3.8.95.312-.624,1.9-.95-.312Zm-1.247,3.8.95.312-.624,1.9-.95-.312Zm-1.247,3.8.95.312-.624,1.9-.95-.312Zm-1.247,3.8.95.312-.624,1.9-.95-.312Zm-1.247,3.8.95.312-.624,1.9-.95-.312Zm-1.247,3.8.95.312L169,186.864h0l-.006.017v.006h0v0h0v0l0,.006v0h0l0,.012v0l0,.007h0l-.005.016v0l-.01.031v0l-.1.3-.95-.312Zm-1.247,3.8.95.312-.027.081h0l-.03.093h0l-.019.057h0l-.01.03h0l0,.014v.005h0v.005l0,0v0l0,.015h0l-.005.016v0l-.005.017h0l-.005.016v0h0v.007h0v0h0l-.006.017v0l-.006.018h0l0,.008v0l0,.012v.008l0,.007,0,.007v0l0,0,0,.007,0,.011-.012.035v0l0,.011v.01l0,.01,0,.005v0l0,.008-.01.03h0l0,.01h0l0,0h0l0,.009v0l0,.014h0l-.41,1.249-.95-.312Zm-1.247,3.8.95.312-.287.876h0v0l0,.015v0l0,.007h0l0,.007v0l0,.006v0l0,.005v0l0,.006v.007h0l0,.012h0l-.006.017h0v0h0l-.01.032h0l0,.011h-.926v-.3l-.024-.008.024-.074V193h.2Zm-4.311.332h2v1h-2Zm-4,0h2v1h-2Zm-4,0h2v1h-2Zm-4,0h2v1h-2Zm-4,0h2v1h-2Zm-4,0h2v1h-2Zm-4,0h2v1h-2Zm-4,0h2v1h-2Zm-4,0h2v1h-2Zm-4,0h2v1h-2Zm-4,0h2v1h-2Zm-4,0h2v1h-2Zm-4,0h2v1h-2Zm-4,0h2v1h-2Zm-4,0h2v1h-2Zm-4,0h2v1h-2Zm-4,0h2v1h-2Zm-4,0h2v1h-2Zm-4,0h2v1h-2Zm-4,0h2v1h-2Zm-4,0h2v1h-2Zm-4,0h2v1h-2Zm-4,0h2v1h-2Zm-4,0h2v1h-2Zm-4,0h2v1h-2Zm-4,0h2v1h-2Zm-4,0h2v1h-2Zm-4,0h2v1h-2Zm-4,0h2v1h-2Zm-4,0h2v1h-2Zm-4,0h2v1h-2Zm-1.941-.842.5,1.531-.561.184.561-.184-.561.184V194h-.389l-.02-.062h0v-.007h0v0h0v0h0v0h0v0h0v0h0V193.9h0l0,0v0h0v-.011h0l0-.006v0h0l0-.007h0l-.458-1.4Zm-1.247-3.8.624,1.9-.95.312-.624-1.9Zm-1.247-3.8.624,1.9-.95.312-.624-1.9Zm-1.247-3.8.624,1.9-.95.312-.624-1.9Zm-1.247-3.8.624,1.9-.95.312-.624-1.9Zm-1.247-3.8.624,1.9-.95.312-.624-1.9Zm-1.247-3.8.624,1.9-.95.312-.624-1.9Zm-1.247-3.8.624,1.9-.95.312-.624-1.9Zm-1.247-3.8.624,1.9-.95.312-.624-1.9Zm-1.247-3.8.624,1.9-.95.312-.624-1.9Zm-1.247-3.8.624,1.9-.95.312-.624-1.9Zm-1.247-3.8.624,1.9-.95.312-.624-1.9Zm-1.247-3.8.624,1.9-.95.312-.624-1.9Zm-1.247-3.8.624,1.9-.95.312-.624-1.9Zm-1.247-3.8.624,1.9-.95.312-.624-1.9Zm-1.247-3.8.624,1.9-.95.312-.624-1.9Zm-1.247-3.8.624,1.9-.95.312-.624-1.9Zm-1.247-3.8.624,1.9-.95.312-.426-1.3v0l-.013-.04v0l-.006-.017v0l0-.007v0h0l-.011-.033v0l-.161-.491Zm-1.247-3.8.624,1.9-.95.312-.624-1.9Zm-1.247-3.8.624,1.9-.95.312-.007-.021h0l-.02-.06h0l-.6-1.819Zm-1.247-3.8.624,1.9-.95.312-.144-.439v0l-.006-.018h0l0-.014,0-.007,0-.008h0v-.012h0v0h0l-.007-.02h0l-.451-1.373Zm-1.247-3.8.624,1.9-.95.312-.624-1.9Zm-1.247-3.8.624,1.9-.95.312-.624-1.9Zm-1.247-3.8.624,1.9-.95.312-.624-1.9Zm-1.247-3.8.624,1.9-.95.312-.624-1.9Zm-1.247-3.8.624,1.9-.95.312-.624-1.9Zm-1.247-3.8.624,1.9-.95.312-.624-1.9Zm-1.247-3.8.624,1.9-.95.312-.624-1.9Zm-1.247-3.8.624,1.9-.95.312-.25-.763-.373-1.137Zm-1.247-3.8.624,1.9-.95.312-.624-1.9Zm-1.247-3.8L3,80.039l-.95.312-.624-1.9Zm-1.247-3.8.624,1.9L.8,76.55.18,74.65ZM2.778,72.1l.584.812L1.739,74.082l-.584-.812,1.374-.989h0l.006,0h0Zm3.247-2.336.584.812L4.986,71.746,4.4,70.935l1.624-1.168Zm3.247-2.336.584.812L8.233,69.41,7.649,68.6l.78-.561h0l0,0,.007,0,0,0,0,0h0l0,0,0,0h0l0,0h0l0,0Zm3.247-2.336.584.812L11.48,67.074l-.584-.812Zm3.247-2.336.584.812-1.624,1.168-.584-.812.178-.128h0l.009-.007,0,0h0l0,0,0,0h0l0,0h0l.013-.009h0Zm3.247-2.336.584.812L17.974,62.4l-.584-.812Zm3.247-2.336.584.812-1.624,1.168-.584-.812Zm3.247-2.336.584.812L24.468,57.73l-.584-.812Zm3.247-2.336.584.812-1.624,1.168-.584-.812ZM32,51.079l.584.812-1.624,1.168-.584-.812Zm3.247-2.336.584.812-1.624,1.168-.584-.812ZM38.5,46.407l.584.812-1.624,1.168-.584-.812.254-.182h0l.059-.043h0l.031-.022h0l.03-.022,0,0,.015-.011h0l.008-.006h0l.008-.006h0l.025-.018h0l0,0,.009-.006,0,0h0l.006,0,0,0,.006,0,0,0h0l.011-.008,0,0,1.138-.819Zm3.247-2.336.584.812L40.7,46.05l-.584-.812,1.624-1.168Zm3.247-2.336.584.812L43.95,43.714l-.584-.812ZM48.236,39.4l.584.812L47.2,41.378l-.584-.812h0l.017-.012h0l0,0h0l.021-.015h0Zm3.247-2.336.584.812-1.624,1.168-.584-.812Zm3.247-2.336.584.812-1.623,1.168-.584-.812Zm3.247-2.336.584.812L56.938,34.37l-.584-.812Zm3.247-2.336.584.812-1.624,1.168-.584-.812,1.624-1.168Zm3.247-2.336.584.812L63.432,29.7l-.584-.812Zm3.247-2.336.584.812-1.623,1.168-.584-.812,1.624-1.168Zm3.247-2.336.584.812-1.624,1.168-.584-.812,1.11-.8h0l.07-.05h0l.034-.024h0l.016-.012h0l.014-.01,0,0h0l0,0h0l.008-.005h0l.014-.01,0,0,.005,0,0,0,.005,0,0,0,.006,0h0l.009-.007,0,0,0,0,0,0,.006,0h0l0,0h0l0,0h0Zm3.247-2.336.584.812L73.173,22.69l-.584-.812Zm3.247-2.336.584.812L76.42,20.354l-.584-.812Zm3.247-2.336.584.812-1.623,1.168-.584-.812.659-.474,0,0,.017-.012h0l.017-.013,0,0,.008-.006h0l.008-.006h0l.008-.006h0l0,0h0l0,0,0,0h0l0,0,0,0h0l.008-.006h0l.009-.006h0l0,0,.011-.008,0,0,0,0,.005,0,.08-.058h0l.751-.541ZM83.953,13.7l.584.812-1.623,1.168-.584-.812ZM87.2,11.367l.584.812-1.623,1.168-.584-.812Zm3.247-2.336.584.812L89.408,11.01l-.584-.812Zm3.247-2.336.584.812L92.655,8.674l-.584-.812.7-.5.007-.005h0l.918-.66Zm3.247-2.336.584.812L95.9,6.338l-.584-.812Zm3.247-2.336.584.812L99.149,4l-.584-.812,1.624-1.168ZM103,0l1.623,1.168-.584.812L103,1.232l-.6.434-.584-.812,1.143-.823h.006l0,0h0l0,0h0l.015-.011h0L103,0Z" transform="translate(903 128)" fill="#b5b5b5"/><g transform="translate(904.919 128.498)" opacity="0.16"><path d="M.151,32.331l-.3-.953,1.907-.6.3.953Zm3.814-1.207-.3-.953,1.907-.6.3.953Zm3.814-1.207-.3-.953,1.907-.6.3.953Zm3.814-1.207-.3-.953,1.907-.6.3.953ZM15.4,27.5l-.3-.953,1.907-.6.3.953ZM19.218,26.3l-.3-.953,1.907-.6.3.953Zm3.814-1.207-.3-.953,1.907-.6.3.953Zm3.814-1.207-.3-.953,1.907-.6.3.953Zm3.814-1.207-.3-.953,1.907-.6.3.953Zm3.814-1.207-.3-.953,1.907-.6.3.953Zm3.814-1.207-.3-.953,1.907-.6.3.953ZM42.1,19.053l-.3-.953,1.907-.6.3.953Zm3.814-1.207-.3-.953,1.907-.6.3.953Zm3.814-1.207-.3-.953,1.907-.6.3.953Zm3.814-1.207-.3-.953,1.907-.6.3.953Zm3.814-1.207-.3-.953,1.907-.6.3.953Zm3.814-1.207-.3-.953,1.907-.6.3.953Zm3.814-1.207-.3-.953,1.907-.6.3.953ZM68.794,10.6l-.3-.953,1.907-.6.3.953ZM72.608,9.4l-.3-.953,1.907-.6.3.953Zm3.814-1.207-.3-.953,1.907-.6.3.953Zm3.814-1.207-.3-.953,1.907-.6.3.953Zm3.814-1.207-.3-.953,1.907-.6.3.953Zm3.814-1.207-.3-.953,1.907-.6.3.953Zm3.814-1.207-.3-.953,1.907-.6.3.953Zm3.814-1.207-.3-.953L97.094.6l.3.953ZM99.3.947,99-.007l1.485-.47.3.953Z" transform="translate(101.525 73.986)" fill="#1db196"/><path d="M101.376,32.332l-1.908-.6.3-.954,1.908.6Zm-3.817-1.2-1.908-.6.3-.954,1.908.6Zm-3.817-1.2-1.908-.6.3-.954,1.908.6Zm-3.817-1.2-1.908-.6.3-.954,1.908.6Zm-3.817-1.2-1.908-.6.3-.954,1.908.6Zm-3.817-1.2-1.908-.6.3-.954,1.908.6Zm-3.817-1.2-1.908-.6.3-.954,1.908.6Zm-3.817-1.2-1.908-.6.3-.954,1.908.6Zm-3.817-1.2-1.908-.6.3-.954,1.908.6Zm-3.817-1.2-1.908-.6.3-.954,1.908.6Zm-3.817-1.2-1.908-.6.3-.954,1.908.6Zm-3.817-1.2-1.908-.6.3-.954,1.908.6Zm-3.817-1.2-1.908-.6.3-.954,1.908.6Zm-3.817-1.2-1.908-.6.3-.954,1.908.6Zm-3.817-1.2-1.908-.6.3-.954,1.908.6Zm-3.817-1.2-1.908-.6.3-.954,1.908.6Zm-3.817-1.2-1.908-.6.3-.954,1.908.6Zm-3.817-1.2-1.908-.6.3-.954,1.908.6Zm-3.817-1.2-1.908-.6.3-.954,1.908.6Zm-3.817-1.2-1.908-.6.3-.954,1.908.6Zm-3.817-1.2-1.908-.6.3-.954,1.908.6Zm-3.817-1.2-1.908-.6.3-.954,1.908.6Zm-3.817-1.2-1.908-.6.3-.954,1.908.6ZM13.6,4.79l-1.908-.6.3-.954,1.908.6Zm-3.817-1.2-1.908-.6.3-.954,1.908.6Zm-3.817-1.2L4.054,1.8l.3-.954,1.908.6ZM2.145,1.2.237.6l.3-.954,1.908.6Z" transform="translate(0 73.986)" fill="#1db196"/><path d="M1.283,86.037l-.809-.588L1.65,83.831l.809.588ZM3.635,82.8l-.809-.588L4,80.6l.809.588Zm2.352-3.236-.809-.588L6.353,77.36l.809.588ZM8.338,76.33l-.809-.588,1.176-1.618.809.588Zm2.352-3.236-.809-.588,1.176-1.618.809.588Zm2.352-3.236-.809-.588,1.176-1.618.809.588Zm2.352-3.236-.809-.588,1.176-1.618.809.588Zm2.352-3.236-.809-.588,1.176-1.618.809.588ZM20.1,60.152l-.809-.588,1.176-1.618.809.588Zm2.352-3.236-.809-.588,1.176-1.618.809.588ZM24.8,53.681l-.809-.588,1.176-1.618.809.588Zm2.352-3.236-.809-.588L27.52,48.24l.809.588ZM29.5,47.21l-.809-.588L29.871,45l.809.588Zm2.352-3.236-.809-.588,1.176-1.618.809.588Zm2.352-3.236-.809-.588,1.176-1.618.809.588ZM36.56,37.5l-.809-.588L36.927,35.3l.809.588Zm2.352-3.236L38.1,33.68l1.176-1.618.809.588Zm2.352-3.236-.809-.588,1.176-1.618.809.588ZM43.615,27.8l-.809-.588,1.176-1.618.809.588Zm2.352-3.236-.809-.588,1.176-1.618.809.588Zm2.352-3.236-.809-.588,1.176-1.618.809.588Zm2.352-3.236-.809-.588,1.176-1.618.809.588Zm2.352-3.236-.809-.588,1.176-1.618.809.588Zm2.352-3.236-.809-.588,1.176-1.618L56.55,10Zm2.352-3.236-.809-.588,1.176-1.618.809.588Zm2.352-3.236-.809-.588,1.176-1.618.809.588ZM62.43,1.912l-.809-.588L62.8-.294l.809.588Z" transform="translate(38.325 105.841)" fill="#1db196"/><path d="M61.338,86.451l-1.165-1.626.813-.582,1.165,1.626ZM59.008,83.2l-1.165-1.626.813-.582,1.165,1.626Zm-2.33-3.251-1.165-1.626.813-.582,1.165,1.626ZM54.348,76.7l-1.165-1.626L54,74.489l1.165,1.626Zm-2.33-3.251L50.853,71.82l.813-.582,1.165,1.626Zm-2.33-3.251-1.165-1.626.813-.583L50.5,69.612Zm-2.33-3.251-1.165-1.626.813-.582,1.165,1.626Zm-2.33-3.251-1.165-1.626.813-.583,1.165,1.626ZM42.7,60.441l-1.165-1.626.813-.583,1.165,1.626Zm-2.33-3.251L39.2,55.564l.813-.583,1.165,1.626Zm-2.33-3.251-1.165-1.626.813-.583,1.165,1.626Zm-2.33-3.251-1.165-1.626.813-.583L36.521,50.1Zm-2.33-3.251L32.214,45.81l.813-.582,1.165,1.626Zm-2.33-3.251-1.165-1.626.813-.583L31.861,43.6Zm-2.33-3.251-1.165-1.626.813-.583,1.165,1.626Zm-2.33-3.251-1.165-1.626.813-.583L27.2,37.1Zm-2.33-3.251L22.894,32.8l.813-.583,1.165,1.626Zm-2.33-3.251-1.165-1.626.813-.583L22.541,30.6ZM19.4,27.928,18.234,26.3l.813-.583,1.165,1.626Zm-2.33-3.251L15.9,23.051l.813-.583,1.165,1.626Zm-2.33-3.251L13.574,19.8l.813-.583,1.165,1.626Zm-2.33-3.251-1.165-1.626.813-.582,1.165,1.626Zm-2.33-3.251L8.914,13.3l.813-.582,1.165,1.626Zm-2.33-3.251L6.584,10.045,7.4,9.463l1.165,1.626ZM5.419,8.42,4.254,6.794l.813-.582L6.231,7.837ZM3.089,5.168,1.924,3.543l.813-.582L3.9,4.586ZM.759,1.917-.406.291.406-.291,1.571,1.334Z" transform="translate(101.525 105.841)" fill="#1db196"/><path d="M.389,105.845.374,104l1-.008.016,1.845ZM.357,102,.34,100l1-.008.017,2ZM.324,98,.307,96l1-.008.017,2ZM.29,94,.273,92l1-.008.017,2ZM.256,90,.239,88l1-.008.017,2ZM.223,86,.206,84l1-.008.017,2ZM.189,82,.172,80l1-.008.017,2ZM.155,78,.139,76l1-.008.017,2ZM.122,74,.105,72l1-.008.017,2ZM.088,70,.071,68l1-.008.017,2ZM.055,66,.038,64l1-.008.017,2ZM.021,62,0,60l1-.008.017,2Zm-.034-4-.017-2,1-.008.017,2Zm-.034-4-.017-2,1-.008.017,2ZM-.08,50-.1,48l1-.008.017,2Zm-.034-4L-.13,44l1-.008.017,2Zm-.034-4-.017-2,1-.008.017,2Zm-.034-4L-.2,36l1-.008.017,2Zm-.034-4-.017-2,1-.008.017,2Zm-.034-4-.017-2,1-.008.017,2Zm-.034-4L-.3,24l1-.008.017,2Zm-.034-4-.017-2,1-.008.017,2Zm-.034-4-.017-2,1-.008.017,2Zm-.034-4L-.4,12,.6,12l.017,2Zm-.034-4L-.433,8,.567,8l.017,2ZM-.45,6-.466,4,.534,4,.55,6ZM-.483,2-.5,0,.5,0,.517,2Z" transform="translate(100.636)" fill="#1db196"/></g></g></svg>