<svg xmlns="http://www.w3.org/2000/svg" width="40" height="40" viewBox="0 0 40 40">
    <path style="fill:none" d="M0 0h40v40H0z"/>
    <g style="opacity:.6">
        <path data-name="패스 22030" d="m.933 0 18.085.029a1.02 1.02 0 0 1 .936 1.084 1.014 1.014 0 0 1-.934 1.081L.935 2.164A1.02 1.02 0 0 1 0 1.08 1.014 1.014 0 0 1 .933 0z" transform="rotate(45 -7.711 22.36)" style="fill:#fff"/>
        <path data-name="패스 22031" d="M.938.054 19.023.023a1.014 1.014 0 0 1 .934 1.077 1.02 1.02 0 0 1-.936 1.084L.936 2.218A1.014 1.014 0 0 1 0 1.138 1.02 1.02 0 0 1 .938.054z" transform="rotate(-45 37.67 -1.844)" style="fill:#fff"/>
    </g>
</svg>
