<svg width="24" height="24" viewBox="0 0 24 24" fill="none" xmlns="http://www.w3.org/2000/svg">
<path d="M0.97361 20.2987C0.931659 19.9255 1.03055 19.55 1.24956 19.2509C1.46856 18.9517 1.79068 18.7521 2.14842 18.6939L9.78038 18.648C10.1375 18.7048 10.4595 18.9033 10.6784 19.2016C10.8973 19.4998 10.996 19.8746 10.9538 20.2469C10.9961 20.6204 10.8975 20.9965 10.6785 21.2962C10.4594 21.5959 10.1371 21.7961 9.77895 21.8547L2.14556 21.9005C1.78778 21.844 1.46529 21.6452 1.24649 21.3461C1.0277 21.0471 0.929816 20.6713 0.97361 20.2987ZM0.97361 11.4242C0.932052 11.0513 1.03112 10.6762 1.25009 10.3773C1.46906 10.0785 1.79096 9.87909 2.14842 9.82085L6.92891 9.77499C7.28596 9.83149 7.6079 10.0297 7.82681 10.3277C8.04572 10.6257 8.14449 11.0003 8.10229 11.3724C8.14466 11.7459 8.046 12.122 7.82698 12.4217C7.60797 12.7215 7.28561 12.9216 6.92748 12.9802L2.14556 13.026C1.78778 12.9696 1.46529 12.7707 1.24649 12.4716C1.0277 12.1726 0.929816 11.7969 0.97361 11.4242ZM0.97361 2.5497C0.932052 2.1768 1.03112 1.8017 1.25009 1.50286C1.46906 1.20402 1.79096 1.00461 2.14842 0.946373L9.78038 0.900513C10.1375 0.957354 10.4595 1.15582 10.6784 1.45408C10.8973 1.75235 10.996 2.12712 10.9538 2.49941C10.9961 2.87278 10.8974 3.24866 10.6784 3.54815C10.4593 3.84764 10.137 4.04746 9.77895 4.10569L2.14556 4.15155C1.78778 4.09507 1.46529 3.8962 1.24649 3.59714C1.0277 3.29809 0.929816 2.92237 0.97361 2.5497Z" fill="#222222"/>
<path d="M20.1606 22.3218L13.3573 13.0176C13.0825 12.7027 12.9424 12.2982 12.9659 11.8868C12.9499 11.4843 13.09 11.0905 13.3588 10.7826L20.1606 1.47979C20.2919 1.32093 20.4545 1.18877 20.6388 1.09088C20.8232 0.993002 21.0258 0.931347 21.2349 0.909466C21.444 0.887584 21.6556 0.905907 21.8573 0.963389C22.0591 1.02087 22.2471 1.11636 22.4105 1.24438C22.7289 1.5167 22.9229 1.89975 22.9501 2.30985C22.9772 2.71995 22.8354 3.12377 22.5555 3.43311L16.3741 11.8994L22.5657 20.3685C22.8454 20.6776 22.9873 21.0812 22.9601 21.4911C22.9329 21.9009 22.739 22.2837 22.4207 22.5558C22.1451 22.7796 21.7963 22.9017 21.4364 22.9005C21.1927 22.9009 20.952 22.8492 20.7315 22.7492C20.5109 22.6491 20.316 22.5032 20.1606 22.3218Z" fill="#222222"/>
</svg>
