<svg xmlns="http://www.w3.org/2000/svg" xmlns:xlink="http://www.w3.org/1999/xlink" width="18.2" height="23.208" viewBox="0 0 18.2 23.208"><defs><clipPath id="a"><path d="M0,0H18.2V23.208H0Z" fill="none"/></clipPath></defs><g transform="translate(-11 -8)"><g transform="translate(11 8)" clip-path="url(#a)"><path d="M15.78,23.21H2.42A2.423,2.423,0,0,1,0,20.79V4.089a2.423,2.423,0,0,1,2.42-2.42h2.5a.75.75,0,0,1,0,1.5H2.42a.921.921,0,0,0-.92.92v16.7a.921.921,0,0,0,.92.92H15.78a.921.921,0,0,0,.92-.92V4.09a.921.921,0,0,0-.92-.92H13.275a.75.75,0,0,1,0-1.5H15.78A2.423,2.423,0,0,1,18.2,4.09v16.7A2.423,2.423,0,0,1,15.78,23.21Z" fill="#1ba88e"/><path d="M6.6,0H11.6a2.423,2.423,0,0,1,2.42,2.42v.834a2.423,2.423,0,0,1-2.42,2.42H6.6a2.423,2.423,0,0,1-2.42-2.42V2.42A2.423,2.423,0,0,1,6.6,0ZM11.6,4.174a.921.921,0,0,0,.92-.92V2.42a.921.921,0,0,0-.92-.92H6.6a.921.921,0,0,0-.92.92v.834a.921.921,0,0,0,.92.92ZM7.406,8.33h3.383a.75.75,0,0,1,.75.747l.008,2.129h2.131a.75.75,0,0,1,.75.75v3.388a.75.75,0,0,1-.75.75H11.55v2.129a.75.75,0,0,1-.75.75H7.407a.75.75,0,0,1-.75-.75V16.095H4.53a.75.75,0,0,1-.75-.75V11.957a.75.75,0,0,1,.75-.75H6.656V9.08A.75.75,0,0,1,7.406,8.33Zm2.636,1.5H8.156v2.127a.75.75,0,0,1-.75.75H5.28v1.888H7.407a.75.75,0,0,1,.75.75v2.128H10.05V15.344a.75.75,0,0,1,.75-.75h2.128V12.706H10.8a.75.75,0,0,1-.75-.747Z" fill="#1ba88e"/></g></g></svg>