<svg xmlns="http://www.w3.org/2000/svg" width="22.403" height="22.396" viewBox="0 0 22.403 22.396"><g transform="translate(-1.793 -1.793)"><path d="M18.387,12.515,10,4.146a2.192,2.192,0,0,0-3.1,0L5.826,5.229l-2.44-2.26L5.673.633,5.047.021.013,5.165l.626.612L2.773,3.6,5.207,5.849,4.132,6.924a2.191,2.191,0,0,0,0,3.1l8.383,8.37h5.253L20.383,21,21,20.385,18.387,17.77V12.517Zm-5.51,5L4.751,9.4a1.315,1.315,0,0,1,0-1.858L7.528,4.765a1.315,1.315,0,0,1,1.858,0l2.258,2.254L9.277,9.386l.619.619,2.367-2.367,2.009,2.006L11.9,12.013l.619.619,2.369-2.37L16.9,12.268,14.53,14.639l.619.619,2.363-2.364v4.617H12.878Zm5.07-9.631h0a3.047,3.047,0,0,0,2.164-5.209L17.949.557,15.776,2.683a3.062,3.062,0,0,0,.006,4.325,3.07,3.07,0,0,0,2.165.874ZM16.392,3.306,17.95,1.782,19.5,3.3a2.164,2.164,0,0,1-1.549,3.711h0a2.148,2.148,0,0,1-2.187-2.164,2.153,2.153,0,0,1,.631-1.537Z" transform="translate(2.487 2.479)" fill="#1db196"/><path d="M20.383,21.711l-2.821-2.821H12.308L3.779,10.373a2.692,2.692,0,0,1,0-3.8l.707-.707-1.7-1.57L.647,6.483-.694,5.172,5.039-.686,6.381.625,4.1,2.951l1.71,1.583.743-.743a2.692,2.692,0,0,1,3.8,0l8.529,8.516v5.255l2.821,2.821Zm-7.3-4.7h3.929V14.1l-1.863,1.864-1.326-1.326,2.371-2.371-1.3-1.3-2.369,2.37L11.2,12.013l2.369-2.369-1.3-1.3L9.9,10.712,8.57,9.386l2.366-2.367-1.9-1.9a.815.815,0,0,0-1.151,0L5.1,7.894a.815.815,0,0,0,0,1.151Zm4.865-8.629h0a3.575,3.575,0,0,1-2.519-1.021,3.562,3.562,0,0,1-.005-5.032l0,0L17.949-.143,20.466,2.32a3.54,3.54,0,0,1-2.518,6.063ZM16.787,3.619l-.041.041a1.687,1.687,0,0,0,.009,2.375,1.688,1.688,0,0,0,2.39-2.385l-1.2-1.169Z" transform="translate(2.487 2.479)" fill="#1db196"/></g></svg>