<svg xmlns="http://www.w3.org/2000/svg" width="23.051" height="27.027" viewBox="0 0 23.051 27.027"><g transform="translate(-85.08 -56.99)"><g transform="translate(62.5 39.5)"><path d="M27.744,31.411a5.476,5.476,0,0,1-4.036-1.9,5.041,5.041,0,0,1-1.128-3.271V18.494a1,1,0,0,1,2,0v7.746a3.05,3.05,0,0,0,.678,2.008,3.478,3.478,0,0,0,2.486,1.164,2.855,2.855,0,0,0,2.5-1.162,3.027,3.027,0,0,0,.681-2.009V18.49a1,1,0,0,1,2,0v7.749a5.014,5.014,0,0,1-1.136,3.279A4.806,4.806,0,0,1,27.744,31.411Z" transform="translate(0 0)" fill="#1db196"/><path d="M34.75,44.523a1,1,0,0,1-1-1V18.5a1,1,0,0,1,2,0V43.523A1,1,0,0,1,34.75,44.523Z" transform="translate(-6.803 -0.006)" fill="#1db196"/><path d="M66.25,63.7a1,1,0,0,1-1-1V49.99a1,1,0,0,1,2,0V62.7A1,1,0,0,1,66.25,63.7Z" transform="translate(-25.986 -19.184)" fill="#1db196"/><path d="M58.808,31.407h0a1.732,1.732,0,0,1-.611-.106,5.821,5.821,0,0,1-3.024-2.518l-.145-.239v-.015a8.241,8.241,0,0,1-.954-4.03,8.032,8.032,0,0,1,1.471-4.843,4.592,4.592,0,0,1,7.8,0,8.038,8.038,0,0,1,1.47,4.846,8.05,8.05,0,0,1-1.107,4.29,5.9,5.9,0,0,1-3.1,2.532l-.156.078H60.2a1.009,1.009,0,0,1-.126-.008Zm-1.852-3.539a3.788,3.788,0,0,0,1.881,1.538l1.21-.01A3.892,3.892,0,0,0,62,27.746a6.1,6.1,0,0,0,.811-3.243,6.006,6.006,0,0,0-1.087-3.669,2.781,2.781,0,0,0-2.289-1.345,2.745,2.745,0,0,0-2.277,1.345A6,6,0,0,0,56.07,24.5a6.073,6.073,0,0,0,.808,3.242Z" transform="translate(-19.178 0)" fill="#1db196"/></g></g></svg>