<svg xmlns="http://www.w3.org/2000/svg" width="33" height="33" viewBox="0 0 33 33">
    <defs>
        <clipPath id="8ixxpk27za">
            <path data-name="사각형 26868" style="fill:none" d="M0 0h16.04v19.695H0z"/>
        </clipPath>
    </defs>
    <g data-name="그룹 128468">
        <path data-name="패스 55301" d="M152 20a16 16 0 1 1-16-16 16 16 0 0 1 16 16" style="stroke:rgba(29,177,150,.5);fill:#fff" transform="translate(-119.5 -3.5)"/>
    </g>
    <g data-name="그룹 129169">
        <g data-name="그룹 129168" style="clip-path:url(#8ixxpk27za)" transform="translate(8.5 6.5)">
            <path data-name="패스 72274" d="M1.929.5a9.174 9.174 0 0 0 .223 2.367 17.877 17.877 0 0 1 .737 3.927" style="fill:#fff"/>
            <path data-name="패스 72275" d="M1.929.5a9.174 9.174 0 0 0 .223 2.367 17.877 17.877 0 0 1 .737 3.927" style="stroke:#1db196;stroke-linecap:round;stroke-linejoin:round;fill:none"/>
            <path data-name="패스 72276" d="M3.387 6.108a6.125 6.125 0 0 0-.892 3.773c.206 2.2 1.046 5.231 1.046 5.556a1.836 1.836 0 0 1-.754 1.663 15.568 15.568 0 0 1-1.338.806s-.875.069-.926.446-.1.875.892.84 4.459-.086 4.459-.086.789-.48.617-.84-.823-1.595-.823-1.595a29.813 29.813 0 0 0 .377-4.613" style="fill:#fff"/>
            <path data-name="패스 72277" d="M3.387 6.108a6.125 6.125 0 0 0-.892 3.773c.206 2.2 1.046 5.231 1.046 5.556a1.836 1.836 0 0 1-.754 1.663 15.568 15.568 0 0 1-1.338.806s-.875.069-.926.446-.1.875.892.84 4.459-.086 4.459-.086.789-.48.617-.84-.823-1.595-.823-1.595a29.813 29.813 0 0 0 .377-4.613" style="stroke:#1db196;stroke-linecap:round;stroke-linejoin:round;fill:none"/>
            <path data-name="패스 72278" d="M5.188 12.916A6.806 6.806 0 0 0 6.8 9.932a4.886 4.886 0 0 0-.892-3.481" style="fill:#fff"/>
            <path data-name="패스 72279" d="M5.188 12.916A6.806 6.806 0 0 0 6.8 9.932a4.886 4.886 0 0 0-.892-3.481" style="stroke:#1db196;stroke-linecap:round;stroke-linejoin:round;fill:none"/>
            <path data-name="패스 72280" d="M6.3 6.931a5.413 5.413 0 0 0 .1-1.818 6.633 6.633 0 0 1 .456-3A2.315 2.315 0 0 0 6.971.5" style="fill:#fff"/>
            <path data-name="패스 72281" d="M6.3 6.931a5.413 5.413 0 0 0 .1-1.818 6.633 6.633 0 0 1 .456-3A2.315 2.315 0 0 0 6.971.5" style="stroke:#1db196;stroke-linecap:round;stroke-linejoin:round;fill:none"/>
            <path data-name="패스 72282" d="M14.111.5a9.174 9.174 0 0 1-.223 2.367 17.877 17.877 0 0 0-.737 3.927" style="fill:#fff"/>
            <path data-name="패스 72283" d="M14.111.5a9.174 9.174 0 0 1-.223 2.367 17.877 17.877 0 0 0-.737 3.927" style="stroke:#1db196;stroke-linecap:round;stroke-linejoin:round;fill:none"/>
            <path data-name="패스 72284" d="M12.653 6.108a6.125 6.125 0 0 1 .892 3.773c-.206 2.2-1.046 5.231-1.046 5.556a1.836 1.836 0 0 0 .754 1.664 15.568 15.568 0 0 0 1.338.806s.875.069.926.446.1.875-.892.84-4.459-.086-4.459-.086-.789-.48-.617-.84.823-1.595.823-1.595a29.813 29.813 0 0 1-.377-4.613" style="fill:#fff"/>
            <path data-name="패스 72285" d="M12.653 6.108a6.125 6.125 0 0 1 .892 3.773c-.206 2.2-1.046 5.231-1.046 5.556a1.836 1.836 0 0 0 .754 1.664 15.568 15.568 0 0 0 1.338.806s.875.069.926.446.1.875-.892.84-4.459-.086-4.459-.086-.789-.48-.617-.84.823-1.595.823-1.595a29.813 29.813 0 0 1-.377-4.613" style="stroke:#1db196;stroke-linecap:round;stroke-linejoin:round;fill:none"/>
            <path data-name="패스 72286" d="M10.852 12.916A6.8 6.8 0 0 1 9.24 9.932a4.886 4.886 0 0 1 .892-3.481" style="fill:#fff"/>
            <path data-name="패스 72287" d="M10.852 12.916A6.8 6.8 0 0 1 9.24 9.932a4.886 4.886 0 0 1 .892-3.481" style="stroke:#1db196;stroke-linecap:round;stroke-linejoin:round;fill:none"/>
            <path data-name="패스 72288" d="M9.738 6.931a5.4 5.4 0 0 1-.1-1.818 6.645 6.645 0 0 0-.455-3A2.312 2.312 0 0 1 9.068.5" style="fill:#fff"/>
            <path data-name="패스 72289" d="M9.738 6.931a5.4 5.4 0 0 1-.1-1.818 6.645 6.645 0 0 0-.455-3A2.312 2.312 0 0 1 9.068.5" style="stroke:#1db196;stroke-linecap:round;stroke-linejoin:round;fill:none"/>
        </g>
    </g>
</svg>
