<svg xmlns="http://www.w3.org/2000/svg" width="22" height="23.692" viewBox="0 0 22 23.692">
    <defs>
        <clipPath id="vy02yivnia">
            <path data-name="사각형 26910" style="fill:none" d="M0 0h22v23.692H0z"/>
        </clipPath>
    </defs>
    <g data-name="그룹 129220" style="clip-path:url(#vy02yivnia)">
        <path data-name="패스 72302" d="M18.615 24.812H3.385A3.385 3.385 0 0 1 0 21.427V10.663a3.385 3.385 0 0 1 3.385-3.385h15.23A3.385 3.385 0 0 1 22 10.663v10.764a3.385 3.385 0 0 1-3.385 3.385" transform="translate(0 -1.12)" style="fill:#ec1c24"/>
        <path data-name="패스 72303" d="M12.723 22.686a1.524 1.524 0 0 1-1.523-1.524v-9.289a1.524 1.524 0 1 1 3.048 0v9.289a1.524 1.524 0 0 1-1.524 1.524" transform="translate(-1.723 -1.592)" style="fill:#fff"/>
        <path data-name="패스 72304" d="M17.953 17.357a1.553 1.553 0 0 1-1.553 1.552h-9a1.553 1.553 0 0 1 0-3.105h9a1.553 1.553 0 0 1 1.553 1.553" transform="translate(-.899 -2.431)" style="fill:#fff"/>
        <path data-name="패스 72305" d="M18.957 6.158H16.5V2.612a.647.647 0 0 0-.393-.112H7.242a.647.647 0 0 0-.393.112v3.546H4.394v-3.63A2.674 2.674 0 0 1 7.242 0h8.867a2.674 2.674 0 0 1 2.848 2.528z" transform="translate(-.676)" style="fill:#172e55"/>
    </g>
</svg>
