<svg xmlns="http://www.w3.org/2000/svg" xmlns:xlink="http://www.w3.org/1999/xlink" width="22" height="23.692" viewBox="0 0 22 23.692">
  <defs>
    <clipPath id="clip-path">
      <rect id="사각형_26910" data-name="사각형 26910" width="22" height="23.692" fill="none"/>
    </clipPath>
  </defs>
  <g id="그룹_129220" data-name="그룹 129220" clip-path="url(#clip-path)">
    <path id="패스_72302" data-name="패스 72302" d="M18.615,24.812H3.385A3.385,3.385,0,0,1,0,21.427V10.663A3.385,3.385,0,0,1,3.385,7.278H18.615A3.385,3.385,0,0,1,22,10.663V21.427a3.385,3.385,0,0,1-3.385,3.385" transform="translate(0 -1.12)" fill="#949494"/>
    <path id="패스_72303" data-name="패스 72303" d="M12.723,22.686h0A1.524,1.524,0,0,1,11.2,21.162V11.873a1.524,1.524,0,1,1,3.048,0v9.289a1.524,1.524,0,0,1-1.524,1.524" transform="translate(-1.723 -1.592)" fill="#fff"/>
    <path id="패스_72304" data-name="패스 72304" d="M17.953,17.357h0A1.553,1.553,0,0,1,16.4,18.909h-9a1.553,1.553,0,0,1,0-3.105h9a1.553,1.553,0,0,1,1.553,1.553" transform="translate(-0.899 -2.431)" fill="#fff"/>
    <path id="패스_72305" data-name="패스 72305" d="M18.957,6.158H16.5V2.612a.647.647,0,0,0-.393-.112H7.242a.647.647,0,0,0-.393.112V6.158H4.394V2.528A2.674,2.674,0,0,1,7.242,0h8.867a2.674,2.674,0,0,1,2.848,2.528Z" transform="translate(-0.676)" fill="#949494"/>
  </g>
</svg>
