<svg xmlns="http://www.w3.org/2000/svg" width="21.549" height="21.548" viewBox="0 0 21.549 21.548"><g transform="translate(-0.25 -0.25)"><path d="M14.253,21.8h-.038a7.546,7.546,0,0,1-5.349-2.262l-6.406-6.4A7.546,7.546,0,1,1,13.133,2.461l6.4,6.4A7.546,7.546,0,0,1,14.253,21.8ZM7.8,1.75A6.046,6.046,0,0,0,3.521,12.072l6.414,6.412A6.046,6.046,0,0,0,14.223,20.3h.03A6.046,6.046,0,0,0,18.485,9.934l-.005-.005L12.072,3.521A6.007,6.007,0,0,0,7.8,1.75Z" fill="#1ba88e"/><path d="M6.336,16.542,6.053,15.07A12.36,12.36,0,0,0,11.6,11.6,12.364,12.364,0,0,0,15.07,6.049l1.472.287a13.535,13.535,0,0,1-3.88,6.327A13.526,13.526,0,0,1,6.336,16.542Z" fill="#1ba88e"/></g></svg>