<svg xmlns="http://www.w3.org/2000/svg" xmlns:xlink="http://www.w3.org/1999/xlink" width="20" height="20" viewBox="0 0 20 20">
  <defs>
    <clipPath id="clip-path">
      <rect id="사각형_26804" data-name="사각형 26804" width="20" height="20" transform="translate(-20122 -2219)" fill="#fff"/>
    </clipPath>
  </defs>
  <g id="마스크_그룹_94424" data-name="마스크 그룹 94424" transform="translate(20122 2219)" clip-path="url(#clip-path)">
    <path id="제외_1" data-name="제외 1" d="M10.9,25.815a13.242,13.242,0,0,1-7.038-3.61A12.829,12.829,0,0,1,.191,15.338,13.193,13.193,0,0,0,10.9,25.813Zm2.343-5a7.969,7.969,0,0,1-7.5-5.2.951.951,0,0,1,.126-.89,1,1,0,0,1,1.75.236,5.987,5.987,0,0,0,11.6-1.955,5.92,5.92,0,0,0-5.969-5.856,6,6,0,0,0-4.961,2.6H10.29a.98.98,0,1,1,0,1.959H6.281a.986.986,0,0,1-.995-.976V6.769a.995.995,0,0,1,1.989,0l0,1.073A8.035,8.035,0,0,1,13.246,5.2a7.893,7.893,0,0,1,7.959,7.807A7.893,7.893,0,0,1,13.246,20.814ZM.2,10.666h0a12.694,12.694,0,0,1,.815-2.7A12.951,12.951,0,0,0,.2,10.666ZM11.746.08q.4-.044.8-.064Q12.142.037,11.746.08Z" transform="translate(-20125 -2221.916)" fill="#1db196"/>
  </g>
</svg>
