<svg xmlns="http://www.w3.org/2000/svg" width="21.827" height="24" viewBox="0 0 21.827 24">
    <path data-name="패스 56510" d="M7.842 27.013A1.975 1.975 0 0 1 5.834 25V7.194a1.975 1.975 0 0 1 2.008-2.008h6.208A2.774 2.774 0 0 1 18.5 3.63a2.674 2.674 0 0 1 .948 1.556h6.2a1.975 1.975 0 0 1 2.008 2.008V25a1.975 1.975 0 0 1-2.008 2.008zm0-1.613h17.81a.424.424 0 0 0 .4-.4V7.194a.424.424 0 0 0-.4-.4h-2.5v2.894H10.344V6.8h-2.5a.424.424 0 0 0-.4.4V25a.424.424 0 0 0 .4.4zm8.906-18.453a1.134 1.134 0 0 0 1.16-1.16 1.16 1.16 0 1 0-2.321 0 1.134 1.134 0 0 0 1.16 1.16z" transform="translate(-5.834 -3.013)" style="fill:#1db196"/>
</svg>
