<svg xmlns="http://www.w3.org/2000/svg" width="26" height="27.601" viewBox="0 0 26 27.601">
    <path data-name="패스 56511" d="m14.78 31.351-2.435-4.3H7.621l-2.928-5.2 2.421-4.3-2.421-4.3 2.928-5.2h4.724l2.435-4.3h5.827l2.435 4.3h4.724l2.928 5.2-2.421 4.3 2.421 4.3-2.928 5.2h-4.724l-2.435 4.3zm8.286-14.675h3.691l1.934-3.424-1.934-3.425h-3.691l-1.954 3.424zm-7.2 4.27h3.649l1.955-3.4-1.955-3.4h-3.646l-1.955 3.4zm0-8.569h3.649l1.976-3.445-1.955-3.4h-3.688l-1.955 3.4zm-7.2 4.3h3.679l1.945-3.424-1.945-3.426h-3.68l-1.954 3.424zm0 8.6h3.679l1.945-3.424-1.969-3.424H8.63l-1.93 3.42zm7.183 4.3h3.691l1.955-3.412-1.976-3.436h-3.65l-1.976 3.431zm7.218-4.3h3.67l1.954-3.424-1.954-3.424h-3.67l-1.9 3.424z" style="fill:#1db196" transform="translate(-4.693 -3.75)"/>
</svg>
