<svg xmlns="http://www.w3.org/2000/svg" width="29.718" height="24" viewBox="0 0 29.718 24">
    <path data-name="패스 56515" d="M10.685 5.833a7.1 7.1 0 0 1 3.567.942A8.894 8.894 0 0 1 17.146 9.5a9.54 9.54 0 0 1 2.968-2.752 7 7 0 0 1 3.493-.915 6.7 6.7 0 0 1 6.82 6.834 7.022 7.022 0 0 1-.036.723 6.777 6.777 0 0 1-.116.723H28.49a6.174 6.174 0 0 0 .137-.723 5.761 5.761 0 0 0 .044-.723 4.921 4.921 0 0 0-5.063-5.077 5.488 5.488 0 0 0-3.2 1.025 8.1 8.1 0 0 0-2.49 2.974h-1.555a8.163 8.163 0 0 0-2.487-2.969 5.447 5.447 0 0 0-3.191-1.03 4.932 4.932 0 0 0-5.063 5.078 5.764 5.764 0 0 0 .044.723 6.171 6.171 0 0 0 .137.723H4.017a6.79 6.79 0 0 1-.116-.723 7.024 7.024 0 0 1-.036-.723 6.7 6.7 0 0 1 6.82-6.834zM8.353 21.32h2.356q1.222 1.281 2.807 2.789t3.631 3.378q2.046-1.87 3.623-3.374t2.8-2.794h2.377q-1.354 1.5-3.2 3.292T18.4 28.7l-1.255 1.136-1.254-1.136q-2.5-2.293-4.343-4.085T8.353 21.32zm7.465 1.47a.71.71 0 0 0 .465-.162.917.917 0 0 0 .287-.422l2.23-6.672 1.73 2.58a1.358 1.358 0 0 0 .4.353 1.017 1.017 0 0 0 .512.129h10.563v-1.757H21.812l-2.544-3.779a.823.823 0 0 0-.348-.3 1.092 1.092 0 0 0-.445-.091.767.767 0 0 0-.478.162.8.8 0 0 0-.288.422l-2.22 6.687-1.773-2.632a1.336 1.336 0 0 0-.386-.344.979.979 0 0 0-.5-.129H2.287V18.6h10.152l2.549 3.8a.74.74 0 0 0 .366.3 1.311 1.311 0 0 0 .464.09z" transform="translate(-2.287 -5.833)" style="fill:#1db196"/>
</svg>
