<svg xmlns="http://www.w3.org/2000/svg" width="14.607" height="25.666" viewBox="0 0 14.607 25.666">
  <g id="그룹_106305" data-name="그룹 106305" transform="translate(0.5 0.5)">
    <path id="패스_53073" data-name="패스 53073" d="M13.868,60.8a1.906,1.906,0,1,0,3.812,0" transform="translate(-8.97 -38.039)" fill="none" stroke="#1ba88e" stroke-linecap="round" stroke-linejoin="round" stroke-width="1"/>
    <path id="패스_53074" data-name="패스 53074" d="M10.576,26.091a.8.8,0,0,0,.8-.8v-1.6a.775.775,0,0,0-.04-.2,6.8,6.8,0,1,0-7.064,0,.76.76,0,0,0-.04.2v1.6a.8.8,0,0,0,.8.8" transform="translate(-1 -7.123)" fill="none" stroke="#1ba88e" stroke-linecap="round" stroke-linejoin="round" stroke-width="1"/>
    <path id="패스_53075" data-name="패스 53075" d="M16.634,52.108v-.474a.8.8,0,0,0-.8-.8H10.289a.8.8,0,0,0-.8.8v.474a.785.785,0,0,0,.322.623.786.786,0,0,0-.322.623v.474a.8.8,0,0,0,.8.8h5.545a.8.8,0,0,0,.8-.8v-.474a.787.787,0,0,0-.322-.623A.786.786,0,0,0,16.634,52.108Z" transform="translate(-6.259 -31.867)" fill="none" stroke="#1ba88e" stroke-linecap="round" stroke-linejoin="round" stroke-width="1"/>
    <line id="선_275" data-name="선 275" x2="4.749" transform="translate(3.63 20.864)" fill="none" stroke="#1ba88e" stroke-linecap="round" stroke-linejoin="round" stroke-width="1"/>
    <line id="선_276" data-name="선 276" y2="1.885" transform="translate(6.803)" fill="none" stroke="#1ba88e" stroke-linecap="round" stroke-linejoin="round" stroke-width="1"/>
    <line id="선_277" data-name="선 277" x1="0.942" y2="1.632" transform="translate(10.907 1.352)" fill="none" stroke="#1ba88e" stroke-linecap="round" stroke-linejoin="round" stroke-width="1"/>
    <line id="선_278" data-name="선 278" x2="0.942" y2="1.632" transform="translate(1.758 1.352)" fill="none" stroke="#1ba88e" stroke-linecap="round" stroke-linejoin="round" stroke-width="1"/>
  </g>
</svg>
