<svg xmlns="http://www.w3.org/2000/svg" width="18.521" height="22.414" viewBox="0 0 18.521 22.414">
    <path data-name="패스 71667" d="M20.107 7v14a1 1 0 0 1-.295.707A1.01 1.01 0 0 1 19.1 22H5.007a1.01 1.01 0 0 1-.712-.293A1 1 0 0 1 4 21V3a1 1 0 0 1 .295-.707A1.01 1.01 0 0 1 5.007 2h10.066m5.033 5h-5.033V2m5.033 5-5.033-5m-3.02 7.5v5" transform="translate(-3 -.586)" style="fill:none;stroke:#1ba88e;stroke-linecap:round;stroke-linejoin:round;stroke-width:2px"/>
    <path data-name="패스 71668" d="M12.008 19.5a1.263 1.263 0 0 0 .89-.366 1.244 1.244 0 0 0 0-1.768 1.264 1.264 0 0 0-1.78 0 1.244 1.244 0 0 0 0 1.768 1.263 1.263 0 0 0 .89.366z" transform="translate(-2.955 -.586)" style="fill:#1ba88e;fill-rule:evenodd"/>
</svg>
