<svg xmlns="http://www.w3.org/2000/svg" width="21.001" height="25.001" viewBox="0 0 21.001 25.001">
    <path d="M11 8.663a1.65 1.65 0 0 0 2 0c1.038-.792 4-3.579 4-5.913a2.749 2.749 0 0 0-5-1.58 2.749 2.749 0 0 0-5 1.58c0 2.334 2.964 5.121 4 5.913zM9.75 1a1.752 1.752 0 0 1 1.75 1.75.5.5 0 0 0 1 0 1.75 1.75 0 0 1 3.5 0c0 1.613-2.153 4.008-3.609 5.118a.644.644 0 0 1-.781 0C10.154 6.758 8 4.363 8 2.75A1.752 1.752 0 0 1 9.751 1zM12 11a3 3 0 1 0 3 3 3 3 0 0 0-3-3zm0 5a2 2 0 1 1 2-2 2 2 0 0 1-2 2zm9.854-2.146L16 19.708V23.5a.5.5 0 1 1-1 0V20H9v3.5a.5.5 0 1 1-1 0v-3.792l-5.854-5.854a.5.5 0 0 1 .707-.707L8.707 19h6.586l5.854-5.854a.5.5 0 1 1 .707.707z" transform="translate(-1.5 .5)" style="fill:#1db196;stroke:#1db196"/>
</svg>
