<svg xmlns="http://www.w3.org/2000/svg" xmlns:xlink="http://www.w3.org/1999/xlink" width="22.512" height="22.512" viewBox="0 0 22.512 22.512">
  <defs>
    <clipPath id="clip-path">
      <rect id="사각형_16927" data-name="사각형 16927" width="22.512" height="22.512" transform="translate(-1 -1)" fill="none" stroke="#1ba88e" stroke-width="1"/>
    </clipPath>
  </defs>
  <g id="그룹_101814" data-name="그룹 101814" transform="translate(1 1)" clip-path="url(#clip-path)">
    <path id="패스_53519" data-name="패스 53519" d="M3.8,12.606l6.9,6.9a1.645,1.645,0,1,1-2.325,2.326l-6.9-6.9A1.645,1.645,0,0,1,3.8,12.606Zm-.5,4.148,3.258,3.259a1.645,1.645,0,0,1-2.326,2.326L.968,19.08a1.645,1.645,0,0,1,2.326-2.326Z" transform="translate(-0.108 -2.686)" fill="none" stroke="#1ba88e" stroke-linecap="round" stroke-linejoin="round" stroke-width="1"/>
    <path id="패스_53520" data-name="패스 53520" d="M16.058,9.829,9.83,16.058M8,14.226,14.226,8" transform="translate(-1.771 -1.772)" fill="none" stroke="#1ba88e" stroke-linecap="round" stroke-linejoin="round" stroke-width="1"/>
    <path id="패스_53521" data-name="패스 53521" d="M12.6,3.8l6.9,6.9a1.645,1.645,0,0,0,2.326-2.326l-6.9-6.9A1.645,1.645,0,0,0,12.6,3.8Zm4.148-.5,3.259,3.258a1.644,1.644,0,0,0,2.325-2.325L19.079.968a1.645,1.645,0,0,0-2.326,2.326Z" transform="translate(-2.685 -0.108)" fill="none" stroke="#1ba88e" stroke-linecap="round" stroke-linejoin="round" stroke-width="1"/>
  </g>
</svg>
