<svg xmlns="http://www.w3.org/2000/svg" width="18.609" height="21.25" viewBox="0 0 18.609 21.25">
  <g id="그룹_107661" data-name="그룹 107661" transform="translate(12346 5350)">
    <g id="패스_55408" data-name="패스 55408" transform="translate(-12346 -5349.366)" fill="none">
      <path d="M0,0H15.541l-2.22,20.616H2.537Z" stroke="none"/>
      <path d="M 1.130622863769531 0.9999961853027344 L 3.421779632568359 19.61567497253418 L 12.42280387878418 19.61567497253418 L 14.42756938934326 0.9999961853027344 L 1.130622863769531 0.9999961853027344 M 2.86102294921875e-06 -3.814697265625e-06 L 15.54104232788086 -3.814697265625e-06 L 13.32089233398438 20.61567497253418 L 2.537312507629395 20.61567497253418 L 2.86102294921875e-06 -3.814697265625e-06 Z" stroke="none" fill="#1db196"/>
    </g>
    <path id="패스_55409" data-name="패스 55409" d="M-12343-5325h13.533" transform="translate(-2.049 -17.071)" fill="none" stroke="#1db196" stroke-width="1"/>
    <path id="패스_55411" data-name="패스 55411" d="M3.386-13.333S6.772-7.382,6.772-5.606A3.3,3.3,0,0,1,3.386-2.391,3.3,3.3,0,0,1,0-5.606C0-7.382,3.386-13.333,3.386-13.333Z" transform="translate(-12334.162 -5336.667)" fill="#fff"/>
    <g id="패스_55410" data-name="패스 55410" transform="translate(-12333.618 -5335.742)" fill="#fff">
      <path d="M 2.842201948165894 -4.159992218017578 C 1.550711989402771 -4.159992218017578 0.5000019669532776 -5.210702419281006 0.5000019669532776 -6.50219202041626 C 0.5000019669532776 -7.41838264465332 1.796952366828918 -10.23480987548828 2.842201948165894 -12.26147174835205 C 3.887451648712158 -10.23480987548828 5.184401988983154 -7.41838264465332 5.184401988983154 -6.50219202041626 C 5.184401988983154 -5.210702419281006 4.133691787719727 -4.159992218017578 2.842201948165894 -4.159992218017578 Z" stroke="none"/>
      <path d="M 2.842201948165894 -11.15519046783447 C 1.849990367889404 -9.150346755981445 1.000001907348633 -7.132415771484375 1.000001907348633 -6.502192497253418 C 1.000001907348633 -5.48640251159668 1.826411962509155 -4.659992218017578 2.842201948165894 -4.659992218017578 C 3.857991933822632 -4.659992218017578 4.684401988983154 -5.48640251159668 4.684401988983154 -6.502192497253418 C 4.684401988983154 -7.132415771484375 3.834413528442383 -9.150346755981445 2.842201948165894 -11.15519046783447 M 2.842201948165894 -13.33349227905273 C 2.842201948165894 -13.33349227905273 5.684401988983154 -8.071891784667969 5.684401988983154 -6.502192497253418 C 5.684401988983154 -4.932482719421387 4.411901950836182 -3.659992218017578 2.842201948165894 -3.659992218017578 C 1.272501945495605 -3.659992218017578 1.9073486328125e-06 -4.932482719421387 1.9073486328125e-06 -6.502192497253418 C 1.9073486328125e-06 -8.071891784667969 2.842201948165894 -13.33349227905273 2.842201948165894 -13.33349227905273 Z" stroke="none" fill="#1db196"/>
    </g>
  </g>
</svg>
