<svg width="24" height="24" viewBox="0 0 24 24" fill="none" xmlns="http://www.w3.org/2000/svg">
<g clip-path="url(#clip0_4254_6028)">
<path d="M14.3035 4.88951L18.512 8.5646C20.1739 10.0159 21.0049 10.7415 21.0049 11.6763C21.0049 12.6111 20.1739 13.3367 18.512 14.788L14.3035 18.4631C13.5449 19.1255 13.1656 19.4568 12.8529 19.3188C12.5401 19.1808 12.5401 18.6823 12.5401 17.6852V15.2449C8.72603 15.2449 4.59409 17.0291 3.00488 20.0029C3.00488 10.4868 8.6554 8.10774 12.5401 8.10774V5.66743C12.5401 4.67033 12.5401 4.17177 12.8529 4.03381C13.1656 3.89585 13.5449 4.22707 14.3035 4.88951Z" stroke="white" stroke-width="1.6" stroke-linecap="round" stroke-linejoin="round"/>
</g>
<defs>
<clipPath id="clip0_4254_6028">
<rect width="24" height="24" fill="white"/>
</clipPath>
</defs>
</svg>
