<svg width="28" height="28" viewBox="0 0 28 28" fill="none" xmlns="http://www.w3.org/2000/svg">
<g clip-path="url(#clip0_3_2)">
<g opacity="0.2">
<path d="M14 28C21.732 28 28 21.732 28 14C28 6.26801 21.732 0 14 0C6.26801 0 0 6.26801 0 14C0 21.732 6.26801 28 14 28Z" fill="white"/>
<path d="M14 27.5C21.4558 27.5 27.5 21.4558 27.5 14C27.5 6.54416 21.4558 0.5 14 0.5C6.54416 0.5 0.5 6.54416 0.5 14C0.5 21.4558 6.54416 27.5 14 27.5Z" stroke="#555555"/>
</g>
<path d="M14 24C19.5228 24 24 19.5228 24 14C24 8.47715 19.5228 4 14 4C8.47715 4 4 8.47715 4 14C4 19.5228 8.47715 24 14 24Z" fill="#5AB651"/>
<path d="M14 23C18.9706 23 23 18.9706 23 14C23 9.02944 18.9706 5 14 5C9.02944 5 5 9.02944 5 14C5 18.9706 9.02944 23 14 23Z" stroke="#222222" stroke-width="2"/>
</g>
<defs>
<clipPath id="clip0_3_2">
<rect width="28" height="28" fill="white"/>
</clipPath>
</defs>
</svg>
