<svg xmlns="http://www.w3.org/2000/svg" width="18" height="18" viewBox="0 0 18 18">
  <g id="그룹_107270" data-name="그룹 107270" transform="translate(-3 -3)">
    <g id="타원_1" data-name="타원 1" transform="translate(3 3)" fill="none" stroke="#555" stroke-width="1">
      <circle cx="9" cy="9" r="9" stroke="none"/>
      <circle cx="9" cy="9" r="8.5" fill="none"/>
    </g>
    <path id="패스_42425" data-name="패스 42425" d="M6.68-6.843a2.224,2.224,0,0,0-.7-1.722A3.248,3.248,0,0,0,3.711-9.32a3.225,3.225,0,0,0-2.247.852A2.535,2.535,0,0,0,.68-6.541v.129a.748.748,0,0,0,.027.172H2.112a5.659,5.659,0,0,1,.171-1.077,1.521,1.521,0,0,1,1.5-.744A1.519,1.519,0,0,1,5-7.631a1.269,1.269,0,0,1,.219.875c0,.732-.206.817-1.166,1.583A2.965,2.965,0,0,0,2.68-2.881v.624H4.139V-2.9A.972.972,0,0,1,4.45-3.71c.207-.165.473-.42.473-.42A12.71,12.71,0,0,0,6.031-5.174,2.2,2.2,0,0,0,6.68-6.843Z" transform="translate(8.32 16.711)" fill="#555"/>
    <circle id="타원_1273" data-name="타원 1273" cx="1" cy="1" r="1" transform="translate(10.75 15)" fill="#555"/>
  </g>
</svg>
