<svg xmlns="http://www.w3.org/2000/svg" width="22.562" height="25.069" viewBox="0 0 22.562 25.069">
  <path id="Icon_material-calendar-month" data-name="Icon material-calendar-month" d="M24.556,5.507H23.3V3H20.8V5.507H10.767V3H8.26V5.507H7.007A2.5,2.5,0,0,0,4.513,8.014L4.5,25.562a2.507,2.507,0,0,0,2.507,2.507H24.556a2.514,2.514,0,0,0,2.507-2.507V8.014A2.514,2.514,0,0,0,24.556,5.507Zm0,20.056H7.007V13.028H24.556ZM12.021,18.042H9.514V15.535h2.507Zm5.014,0H14.528V15.535h2.507Zm5.014,0H19.542V15.535h2.507ZM12.021,23.056H9.514V20.549h2.507Zm5.014,0H14.528V20.549h2.507Zm5.014,0H19.542V20.549h2.507Z" transform="translate(-4.5 -3)" fill="#505050"/>
</svg>
