<svg xmlns="http://www.w3.org/2000/svg" xmlns:xlink="http://www.w3.org/1999/xlink" width="15" height="28" viewBox="0 0 15 28">
  <defs>
    <clipPath id="clip-path">
      <rect id="사각형_15546" data-name="사각형 15546" width="15" height="28" transform="translate(0.2 -3)" fill="none" stroke="#1db196" stroke-width="1"/>
    </clipPath>
  </defs>
  <g id="그룹_98395" data-name="그룹 98395" transform="translate(-0.2 3)" clip-path="url(#clip-path)">
    <path id="패스_52629" data-name="패스 52629" d="M6.21,1V4.889A3.579,3.579,0,0,0,3,8.514a3.674,3.674,0,0,0,3.609,3.373,3.785,3.785,0,0,0,3.182-1.532,3.786,3.786,0,0,0,3.182,1.532,3.673,3.673,0,0,0,3.609-3.373,3.578,3.578,0,0,0-3.206-3.625V1" transform="translate(-2.094 -2.267)" fill="none" stroke="#1db196" stroke-linecap="round" stroke-linejoin="round" stroke-width="1"/>
    <path id="패스_52630" data-name="패스 52630" d="M6.21,52.453V48.564A3.579,3.579,0,0,1,3,44.94a3.674,3.674,0,0,1,3.609-3.373A3.785,3.785,0,0,1,9.794,43.1a3.786,3.786,0,0,1,3.182-1.532,3.673,3.673,0,0,1,3.609,3.373,3.578,3.578,0,0,1-3.206,3.625v3.889" transform="translate(-2.094 -29.187)" fill="none" stroke="#1db196" stroke-linecap="round" stroke-linejoin="round" stroke-width="1"/>
  </g>
</svg>
