<svg id="그룹_107272" data-name="그룹 107272" xmlns="http://www.w3.org/2000/svg" width="24" height="24" viewBox="0 0 24 24">
  <rect id="Boundary" width="24" height="24" fill="none"/>
  <path id="패스_22030" data-name="패스 22030" d="M.747,0l14.5.06A.743.743,0,0,1,16,.784a.728.728,0,0,1-.747.717L.754,1.44A.743.743,0,0,1,0,.717.728.728,0,0,1,.747,0Z" transform="translate(6.873 5.812) rotate(45)" fill="#555"/>
  <path id="패스_22031" data-name="패스 22031" d="M.753.053l14.5-.06A.728.728,0,0,1,16,.709a.743.743,0,0,1-.753.723l-14.5.06A.728.728,0,0,1,0,.775.743.743,0,0,1,.753.053Z" transform="translate(5.818 17.132) rotate(-45)" fill="#555"/>
</svg>
