<svg xmlns="http://www.w3.org/2000/svg" width="28" height="28" viewBox="0 0 28 28"><g transform="translate(5392 -14747)"><g opacity="0.2"><circle cx="14" cy="14" r="14" transform="translate(-5392 14747)" fill="#fff"/><path d="M14,1A13,13,0,0,0,4.808,23.192,13,13,0,0,0,23.192,4.808,12.915,12.915,0,0,0,14,1m0-1A14,14,0,1,1,0,14,14,14,0,0,1,14,0Z" transform="translate(-5392 14747)" fill="#555"/></g><circle cx="10" cy="10" r="10" transform="translate(-5388 14751)" fill="#d6d6d6"/><path d="M10,2a8,8,0,1,0,8,8,8.009,8.009,0,0,0-8-8m0-2A10,10,0,1,1,0,10,10,10,0,0,1,10,0Z" transform="translate(-5388 14751)" fill="#222"/></g></svg>