<svg id="그룹_107284" data-name="그룹 107284" xmlns="http://www.w3.org/2000/svg" width="40" height="40" viewBox="0 0 40 40">
  <rect id="base" width="40" height="40" transform="translate(40 40) rotate(180)" fill="red" opacity="0"/>
  <g id="빼기_18" data-name="빼기 18" transform="translate(3367.18 -90.092)" fill="none">
    <path d="M-3346.179,119.094h-11a2,2,0,0,1-2-2v-14a2,2,0,0,1,2-2h11a1.984,1.984,0,0,0,.587,1.413,1.986,1.986,0,0,0,1.413.587,2,2,0,0,0,2-2h5a2,2,0,0,1,2,2v14a2,2,0,0,1-2,2h-5a1.989,1.989,0,0,0-.587-1.414,1.986,1.986,0,0,0-1.413-.587,2,2,0,0,0-2,2Z" stroke="none"/>
    <path d="M -3347.342041015625 117.5933990478516 C -3346.779541015625 116.4109802246094 -3345.573486328125 115.5918121337891 -3344.1796875 115.5918121337891 C -3343.245849609375 115.5918121337891 -3342.3671875 115.956169128418 -3341.70556640625 116.6177597045898 C -3341.41748046875 116.9058303833008 -3341.18603515625 117.2351608276367 -3341.01611328125 117.5924987792969 L -3337.179443359375 117.5924987792969 C -3336.90380859375 117.5924987792969 -3336.6796875 117.3683013916016 -3336.6796875 117.0927124023438 L -3336.6796875 103.0923004150391 C -3336.6796875 102.8167114257812 -3336.90380859375 102.5924987792969 -3337.179443359375 102.5924987792969 L -3341.01708984375 102.5924987792969 C -3341.579833984375 103.773811340332 -3342.7861328125 104.5923004150391 -3344.1796875 104.5923004150391 C -3345.113037109375 104.5923004150391 -3345.991455078125 104.2278900146484 -3346.65283203125 103.5665512084961 C -3346.94091796875 103.2785797119141 -3347.1728515625 102.9493942260742 -3347.3427734375 102.5924987792969 L -3357.17919921875 102.5924987792969 C -3357.454833984375 102.5924987792969 -3357.678955078125 102.8167114257812 -3357.678955078125 103.0923004150391 L -3357.678955078125 117.0927124023438 C -3357.678955078125 117.3683013916016 -3357.454833984375 117.5924987792969 -3357.178955078125 117.5924987792969 L -3347.342041015625 117.5933990478516 M -3346.179443359375 119.093505859375 L -3357.17919921875 119.0924987792969 C -3358.281982421875 119.0924987792969 -3359.178955078125 118.1953887939453 -3359.178955078125 117.0927124023438 L -3359.178955078125 103.0923004150391 C -3359.178955078125 101.9896087646484 -3358.281982421875 101.0924987792969 -3357.17919921875 101.0924987792969 L -3346.179443359375 101.0924987792969 C -3346.179443359375 101.6254119873047 -3345.971435546875 102.1268692016602 -3345.592529296875 102.505500793457 C -3345.214111328125 102.8838958740234 -3344.71240234375 103.0923004150391 -3344.1796875 103.0923004150391 C -3343.076416015625 103.0923004150391 -3342.178955078125 102.1951904296875 -3342.178955078125 101.0924987792969 L -3337.179443359375 101.0924987792969 C -3336.07666015625 101.0924987792969 -3335.1796875 101.9896087646484 -3335.1796875 103.0923004150391 L -3335.1796875 117.0927124023438 C -3335.1796875 118.1953887939453 -3336.07666015625 119.0924987792969 -3337.179443359375 119.0924987792969 L -3342.1796875 119.0924987792969 C -3342.18017578125 118.5584487915039 -3342.38818359375 118.0565795898438 -3342.766357421875 117.6783447265625 C -3343.14453125 117.3001098632812 -3343.646240234375 117.0918121337891 -3344.1796875 117.0918121337891 C -3345.2822265625 117.0918121337891 -3346.179443359375 117.9893188476562 -3346.179443359375 119.0924987792969 L -3346.179443359375 119.093505859375 Z" stroke="none" fill="#222"/>
  </g>
  <line id="선_219" data-name="선 219" y2="9" transform="translate(23 15.5)" fill="none" stroke="#7e7e7e" stroke-width="1" stroke-dasharray="1 1"/>
</svg>
