<svg xmlns="http://www.w3.org/2000/svg" width="16.017" height="15.663" viewBox="0 0 16.017 15.663">
  <g id="그룹_105392" data-name="그룹 105392" transform="translate(-280.663 -13.748)">
    <path id="패스_22030" data-name="패스 22030" d="M.933,0,19.018.029a1.02,1.02,0,0,1,.936,1.084,1.014,1.014,0,0,1-.934,1.081L.935,2.164A1.02,1.02,0,0,1,0,1.08,1.014,1.014,0,0,1,.933,0Z" transform="translate(282.216 13.75) rotate(45)" fill="#222"/>
    <path id="패스_22031" data-name="패스 22031" d="M.938.054,19.023.023A1.014,1.014,0,0,1,19.957,1.1a1.02,1.02,0,0,1-.936,1.084L.936,2.218A1.014,1.014,0,0,1,0,1.138,1.02,1.02,0,0,1,.938.054Z" transform="translate(281 27.844) rotate(-45)" fill="#222"/>
  </g>
</svg>
