<svg xmlns="http://www.w3.org/2000/svg" xmlns:xlink="http://www.w3.org/1999/xlink" width="32" height="32" viewBox="0 0 32 32">
  <defs>
    <clipPath id="clip-path">
      <rect id="사각형_15395" data-name="사각형 15395" width="32" height="32" fill="none"/>
    </clipPath>
  </defs>
  <g id="img" clip-path="url(#clip-path)">
    <path id="패스_52429" data-name="패스 52429" d="M17.113,22.821l-.039-1.668c-6.441-.016-9.265-4.077-9.292-7.373-.023-2.527,1.7-5.2,4.562-5.23a4.432,4.432,0,0,1,3.619,1.9,4.17,4.17,0,0,1,3.686-1.977c1.907-.016,4.474,1.6,4.506,5.339.031,3.517-2.488,7.374-7.043,9.008M15.873,0C7.131.079-.073,6.52,0,14.822A14.269,14.269,0,0,0,5.935,26l-.981,4.779C23.4,36.135,32.071,22.633,32,14.575,31.929,6.362,24.77-.077,15.873,0" transform="translate(0 0)" fill="#e8272d"/>
  </g>
</svg>
