<svg xmlns="http://www.w3.org/2000/svg" xmlns:xlink="http://www.w3.org/1999/xlink" width="19" height="21" viewBox="0 0 19 21">
  <defs>
    <clipPath id="clip-path">
      <rect id="사각형_16480" data-name="사각형 16480" width="19" height="21" fill="none" stroke="#1ba88e" stroke-width="1"/>
    </clipPath>
  </defs>
  <g id="그룹_100940" data-name="그룹 100940" clip-path="url(#clip-path)">
    <path id="패스_53270" data-name="패스 53270" d="M16.113,39.7V27.145h11.02V39.692" transform="translate(-11.602 -19.544)" fill="none" stroke="#1ba88e" stroke-linecap="round" stroke-linejoin="round" stroke-width="1"/>
    <line id="선_280" data-name="선 280" x1="13.046" y1="0.004" transform="translate(3.63 20.156)" fill="none" stroke="#1ba88e" stroke-linecap="round" stroke-linejoin="round" stroke-width="1"/>
    <path id="패스_53271" data-name="패스 53271" d="M6.553,15.1A3.105,3.105,0,0,1,3.6,11.034,3.322,3.322,0,0,1,3,9.213,2.852,2.852,0,0,1,5.763,6.28a2.83,2.83,0,0,1,1.118.241A4.115,4.115,0,0,1,9.415,3.236,4.04,4.04,0,0,1,14.056,4.8c.02-.008-.02,0,0,0a4.115,4.115,0,1,1,4.183,7.087" transform="translate(-2.16 -2.16)" fill="none" stroke="#1ba88e" stroke-linecap="round" stroke-linejoin="round" stroke-width="1"/>
    <path id="패스_53272" data-name="패스 53272" d="M56.508,38.006h2.338v6.331H56.508" transform="translate(-40.686 -27.365)" fill="none" stroke="#1ba88e" stroke-linecap="round" stroke-linejoin="round" stroke-width="1"/>
    <line id="선_281" data-name="선 281" y2="6.363" transform="translate(8.458 10.732)" fill="none" stroke="#1ba88e" stroke-linecap="round" stroke-linejoin="round" stroke-width="1"/>
    <line id="선_282" data-name="선 282" y2="6.363" transform="translate(12.029 10.732)" fill="none" stroke="#1ba88e" stroke-linecap="round" stroke-linejoin="round" stroke-width="1"/>
  </g>
</svg>
