<svg width="12" height="12" viewBox="0 0 12 12" fill="none" xmlns="http://www.w3.org/2000/svg">
<g clip-path="url(#clip0_6638_24943)">
<path d="M9.32065 3.05236C9.55177 2.81508 9.93139 2.81014 10.1688 3.04113C10.4061 3.27227 10.4111 3.65186 10.18 3.88928L8.12973 5.99572C8.12814 5.99735 8.12646 5.99899 8.12485 6.0006L5.18051 8.95471C5.068 9.06758 4.91508 9.1309 4.75571 9.13098C4.59634 9.131 4.44348 9.06751 4.3309 8.95471L1.82553 6.44445C1.59167 6.20988 1.59202 5.82982 1.82651 5.59582C2.06104 5.36193 2.4411 5.36241 2.67514 5.5968L4.75473 7.68127L7.27475 5.15344L9.32065 3.05236Z" fill="white"/>
</g>
<defs>
<clipPath id="clip0_6638_24943">
<rect width="12" height="12" fill="white"/>
</clipPath>
</defs>
</svg>
