<svg xmlns="http://www.w3.org/2000/svg" xmlns:xlink="http://www.w3.org/1999/xlink" width="96" height="96.25" viewBox="0 0 96 96.25">
  <defs>
    <radialGradient id="radial-gradient" cx="0.5" cy="0.5" r="0.742" gradientUnits="objectBoundingBox">
      <stop offset="0" stop-color="#fefefe"/>
      <stop offset="1" stop-color="#f2f2f2"/>
    </radialGradient>
    <filter id="사각형_16170" x="24.625" y="0" width="46.75" height="59.688" filterUnits="userSpaceOnUse">
      <feOffset dy="4" input="SourceAlpha"/>
      <feGaussianBlur stdDeviation="3" result="blur"/>
      <feFlood flood-opacity="0.22"/>
      <feComposite operator="in" in2="blur"/>
      <feComposite in="SourceGraphic"/>
    </filter>
    <filter id="사각형_16170-2" x="24.625" y="0" width="46.75" height="59.688" filterUnits="userSpaceOnUse">
      <feOffset input="SourceAlpha"/>
      <feGaussianBlur stdDeviation="2" result="blur-2"/>
      <feFlood flood-opacity="0.051" result="color"/>
      <feComposite operator="out" in="SourceGraphic" in2="blur-2"/>
      <feComposite operator="in" in="color"/>
      <feComposite operator="in" in2="SourceGraphic"/>
    </filter>
    <linearGradient id="linear-gradient" x1="0.5" x2="0.5" y2="1" gradientUnits="objectBoundingBox">
      <stop offset="0" stop-color="#7cd8c7"/>
      <stop offset="1" stop-color="#2aaa93"/>
    </linearGradient>
    <filter id="사각형_16168" x="10" y="18.25" width="76" height="77" filterUnits="userSpaceOnUse">
      <feOffset dy="4" input="SourceAlpha"/>
      <feGaussianBlur stdDeviation="5" result="blur-3"/>
      <feFlood flood-opacity="0.231"/>
      <feComposite operator="in" in2="blur-3"/>
      <feComposite in="SourceGraphic"/>
    </filter>
    <filter id="사각형_16168-2" x="10" y="18.25" width="76" height="77" filterUnits="userSpaceOnUse">
      <feOffset dy="3" input="SourceAlpha"/>
      <feGaussianBlur stdDeviation="3" result="blur-4"/>
      <feFlood flood-color="#fff" flood-opacity="0.161" result="color-2"/>
      <feComposite operator="out" in="SourceGraphic" in2="blur-4"/>
      <feComposite operator="in" in="color-2"/>
      <feComposite operator="in" in2="SourceGraphic"/>
    </filter>
    <filter id="사각형_16159" x="0" y="60.25" width="96" height="36" filterUnits="userSpaceOnUse">
      <feOffset dy="3" input="SourceAlpha"/>
      <feGaussianBlur stdDeviation="3" result="blur-5"/>
      <feFlood flood-opacity="0.161"/>
      <feComposite operator="in" in2="blur-5"/>
      <feComposite in="SourceGraphic"/>
    </filter>
  </defs>
  <g id="그룹_107259" data-name="그룹 107259" transform="translate(-129 -127.75)">
    <g data-type="innerShadowGroup">
      <g transform="matrix(1, 0, 0, 1, 129, 127.75)" filter="url(#사각형_16170)">
        <path id="사각형_16170-3" data-name="사각형 16170" d="M14.375,7.188a7.2,7.2,0,0,0-7.188,7.188V27.313a7.187,7.187,0,1,0,14.375,0V14.375a7.2,7.2,0,0,0-7.187-7.188m0-7.188A14.375,14.375,0,0,1,28.75,14.375V27.313a14.375,14.375,0,0,1-28.75,0V14.375A14.375,14.375,0,0,1,14.375,0Z" transform="translate(33.63 5)" fill="url(#radial-gradient)"/>
      </g>
      <g transform="matrix(1, 0, 0, 1, 129, 127.75)" filter="url(#사각형_16170-2)">
        <path id="사각형_16170-4" data-name="사각형 16170" d="M14.375,7.188a7.2,7.2,0,0,0-7.188,7.188V27.313a7.187,7.187,0,1,0,14.375,0V14.375a7.2,7.2,0,0,0-7.187-7.188m0-7.188A14.375,14.375,0,0,1,28.75,14.375V27.313a14.375,14.375,0,0,1-28.75,0V14.375A14.375,14.375,0,0,1,14.375,0Z" transform="translate(33.63 5)" fill="#fff"/>
      </g>
    </g>
    <g data-type="innerShadowGroup">
      <g transform="matrix(1, 0, 0, 1, 129, 127.75)" filter="url(#사각형_16168)">
        <rect id="사각형_16168-3" data-name="사각형 16168" width="46" height="47" rx="10" transform="translate(25 29.25)" fill="url(#linear-gradient)"/>
      </g>
      <g transform="matrix(1, 0, 0, 1, 129, 127.75)" filter="url(#사각형_16168-2)">
        <rect id="사각형_16168-4" data-name="사각형 16168" width="46" height="47" rx="10" transform="translate(25 29.25)" fill="#fff"/>
      </g>
    </g>
    <g id="그룹_99973" data-name="그룹 99973" transform="translate(137.814 194.296)">
      <g id="그룹_99974" data-name="그룹 99974" transform="translate(0 0)">
        <g transform="matrix(1, 0, 0, 1, -8.81, -66.55)" filter="url(#사각형_16159)">
          <rect id="사각형_16159-2" data-name="사각형 16159" width="78" height="18" rx="9" transform="translate(9 66.25)" fill="#fff"/>
        </g>
        <path id="패스_53078" data-name="패스 53078" d="M114.668,56.661a.647.647,0,0,0-.884-.237l-1.214.7v-1.4a.647.647,0,0,0-1.294,0v1.4l-1.215-.7a.647.647,0,0,0-.647,1.121l1.215.7-1.215.7a.647.647,0,0,0,.647,1.121l1.215-.7v1.4a.647.647,0,1,0,1.294,0v-1.4l1.214.7a.647.647,0,1,0,.647-1.121l-1.215-.7,1.215-.7a.648.648,0,0,0,.237-.884m13.9,0a.647.647,0,0,0-.884-.237l-1.214.7v-1.4a.647.647,0,0,0-1.294,0v1.4l-1.214-.7a.647.647,0,1,0-.647,1.121l1.214.7-1.214.7a.647.647,0,1,0,.647,1.121l1.214-.7v1.4a.647.647,0,1,0,1.294,0v-1.4l1.214.7a.647.647,0,1,0,.647-1.121l-1.215-.7,1.215-.7a.647.647,0,0,0,.237-.884m13.9,0a.647.647,0,0,0-.884-.237l-1.215.7v-1.4a.647.647,0,0,0-1.294,0v1.4l-1.215-.7a.647.647,0,1,0-.647,1.121l1.215.7-1.215.7a.647.647,0,1,0,.647,1.121l1.215-.7v1.4a.647.647,0,1,0,1.294,0v-1.4l1.215.7a.647.647,0,1,0,.647-1.121l-1.215-.7,1.215-.7a.647.647,0,0,0,.237-.884m13.9,0a.647.647,0,0,0-.884-.237l-1.214.7v-1.4a.647.647,0,0,0-1.294,0v1.4l-1.215-.7a.647.647,0,1,0-.647,1.121l1.215.7-1.215.7a.647.647,0,1,0,.647,1.121l1.215-.7v1.4a.647.647,0,1,0,1.294,0v-1.4l1.214.7a.647.647,0,1,0,.647-1.121l-1.215-.7,1.215-.7a.647.647,0,0,0,.237-.884" transform="translate(-93.922 -49.238)" fill="#46d88f"/>
      </g>
    </g>
    <g id="합치기_11" data-name="합치기 11" transform="translate(173 171)" fill="#21544b">
      <path d="M 4.5 16.00029945373535 C 2.707940101623535 16.00029945373535 1.25 14.54236030578613 1.25 12.75030040740967 L 1.25 8.550565719604492 C -0.151224747300148 7.561919689178467 -1 5.976560592651367 -1 4.285799980163574 C -1 1.371200203895569 1.467290043830872 -0.9999998211860657 4.5 -0.9999998211860657 C 7.532710075378418 -0.9999998211860657 10 1.371200203895569 10 4.285799980163574 C 10 5.976256370544434 9.15118408203125 7.561548709869385 7.75 8.550296783447266 L 7.75 12.75030040740967 C 7.75 14.54236030578613 6.292059898376465 16.00029945373535 4.5 16.00029945373535 Z" stroke="none"/>
      <path d="M 4.5 15.00030040740967 C 5.742000102996826 15.00030040740967 6.75 13.99320030212402 6.75 12.75030040740967 L 6.75 7.998070240020752 C 8.094940185546875 7.257019996643066 9 5.872080326080322 9 4.285799980163574 C 9 1.918800234794617 6.984899997711182 2.037048290048915e-07 4.5 2.037048290048915e-07 C 2.01419997215271 2.037048290048915e-07 0 1.918800234794617 0 4.285799980163574 C 0 5.872230052947998 0.9048500061035156 7.257290363311768 2.25 7.998300075531006 L 2.25 12.75030040740967 C 2.25 13.99320030212402 3.257100105285645 15.00030040740967 4.5 15.00030040740967 M 4.5 17.00029945373535 C 2.156539916992188 17.00029945373535 0.25 15.09376049041748 0.25 12.75030040740967 L 0.25 9.041816711425781 C -1.160839557647705 7.859961986541748 -2 6.126346111297607 -2 4.285799980163574 C -2 0.8198001980781555 0.9158899784088135 -1.999999761581421 4.5 -1.999999761581421 C 8.084110260009766 -1.999999761581421 11 0.8198001980781555 11 4.285799980163574 C 11 6.126173496246338 10.16096115112305 7.85960054397583 8.75 9.041524887084961 L 8.75 12.75030040740967 C 8.75 15.09376049041748 6.843460083007812 17.00029945373535 4.5 17.00029945373535 Z" stroke="none" fill="#257d6d"/>
    </g>
  </g>
</svg>
