<svg xmlns="http://www.w3.org/2000/svg" width="20" height="19.978" viewBox="0 0 20 19.978">
    <path d="M16.088 12.208a3.879 3.879 0 0 0-3.2 1.685l-5.414-2.446a3.807 3.807 0 0 0 0-2.9l5.41-2.459a3.879 3.879 0 1 0-.688-2.2 3.856 3.856 0 0 0 .067.654L6.516 7.153a3.886 3.886 0 1 0-.016 5.682l5.767 2.6a3.942 3.942 0 0 0-.066.653 3.885 3.885 0 1 0 3.884-3.884zm0-10.544a2.22 2.22 0 1 1-2.219 2.22 2.22 2.22 0 0 1 2.219-2.22zM3.88 12.208A2.22 2.22 0 1 1 6.1 9.989a2.22 2.22 0 0 1-2.219 2.22zm12.208 6.1a2.22 2.22 0 1 1 2.22-2.22 2.22 2.22 0 0 1-2.22 2.22z" transform="translate(.027 .001)" style="fill:#7e7e7e"/>
</svg>
