<svg width="16" height="16" viewBox="0 0 16 16" fill="none" xmlns="http://www.w3.org/2000/svg">
<g clip-path="url(#clip0_8505_182307)">
<path d="M9.09085 1.44807C9.23506 1.44819 9.3524 1.56543 9.35243 1.70966V9.4546C9.29427 9.4309 9.2319 9.41642 9.16805 9.41313C9.02317 9.40576 8.88061 9.45452 8.77056 9.54903C8.66066 9.64356 8.59115 9.77676 8.5766 9.92099L8.57405 9.97905L8.53066 9.98033C8.34152 9.99017 8.1606 10.0628 8.01769 10.187C7.8748 10.3114 7.77734 10.4802 7.74143 10.6662C7.70555 10.8522 7.73352 11.045 7.81991 11.2136C7.90634 11.3822 8.0467 11.5176 8.21867 11.5971C8.12783 11.6871 8.06283 11.7999 8.03109 11.9237C7.99936 12.0477 8.00164 12.1782 8.03811 12.3008C8.07459 12.4234 8.14416 12.534 8.23845 12.6205C8.33271 12.7068 8.44884 12.7657 8.57405 12.7914V12.8061C8.57411 12.9559 8.63344 13.0996 8.7393 13.2055C8.84532 13.3115 8.98943 13.3714 9.13934 13.3714C9.21315 13.3714 9.28537 13.356 9.35243 13.3287V14.2902C9.35243 14.4344 9.23508 14.5516 9.09085 14.5517H6.90754C6.76321 14.5517 6.64595 14.4345 6.64595 14.2902V6.45143C6.72509 6.49203 6.81375 6.51396 6.90435 6.51396C7.05405 6.51384 7.19785 6.45452 7.30375 6.34871C7.40972 6.24269 7.46963 6.09857 7.46963 5.94867V5.93464C7.59485 5.90887 7.71101 5.84941 7.80523 5.76301C7.89944 5.67656 7.96849 5.56592 8.00493 5.44336C8.04133 5.32084 8.04361 5.19076 8.01195 5.06693C7.98024 4.94306 7.91583 4.82963 7.82501 4.73962C7.99683 4.6601 8.1374 4.5253 8.22378 4.35681C8.31014 4.18825 8.33744 3.99536 8.30161 3.80939C8.26574 3.62338 8.16823 3.45462 8.02535 3.33024C7.88248 3.20594 7.70213 3.13277 7.51302 3.12288L7.46963 3.1216L7.46644 3.06418C7.45195 2.9198 7.38252 2.78618 7.27249 2.69158C7.16246 2.59708 7.01985 2.54833 6.875 2.55568C6.79448 2.55982 6.71642 2.58143 6.64595 2.61757V1.70966C6.64598 1.56536 6.76323 1.44807 6.90754 1.44807H9.09085Z" fill="white"/>
<path d="M5.41329 1.44935C5.78352 1.44935 6.08385 1.74969 6.08385 2.11991V13.8799C6.08385 14.2501 5.78352 14.5505 5.41329 14.5505C5.04308 14.5505 4.74273 14.2501 4.74273 13.8799V7.10987C3.55678 6.52492 2.58425 5.57725 1.97181 4.39892L1.95458 4.36574C1.78394 4.03739 1.91161 3.63253 2.23978 3.46167C2.56818 3.291 2.97303 3.41859 3.14385 3.74686L3.16172 3.78068C3.53569 4.50012 4.08109 5.10958 4.74273 5.56139V2.11991C4.74273 1.74969 5.04308 1.44936 5.41329 1.44935Z" fill="white"/>
<path d="M10.5851 1.44935C10.9552 1.44951 11.2557 1.74979 11.2557 2.11991V10.0556C11.8071 9.508 12.4599 9.06417 13.1844 8.75278C13.5245 8.60664 13.9187 8.76357 14.0649 9.10369C14.2108 9.44375 14.0533 9.83801 13.7133 9.98416C12.6776 10.4294 11.8279 11.2194 11.308 12.2198L11.2901 12.2536C11.2795 12.2739 11.268 12.2935 11.2557 12.3123V13.8799C11.2557 14.25 10.9552 14.5503 10.5851 14.5505C10.2149 14.5505 9.91453 14.2501 9.91453 13.8799V2.11991C9.91453 1.74969 10.2149 1.44935 10.5851 1.44935Z" fill="white"/>
</g>
<defs>
<clipPath id="clip0_8505_182307">
<rect width="16" height="16" fill="white"/>
</clipPath>
</defs>
</svg>
