<svg xmlns="http://www.w3.org/2000/svg" xmlns:xlink="http://www.w3.org/1999/xlink" width="60" height="60" viewBox="0 0 60 60">
  <defs>
    <clipPath id="clip-path">
      <rect id="사각형_17603" data-name="사각형 17603" width="29.185" height="39" fill="none"/>
    </clipPath>
  </defs>
  <g id="그룹_105324" data-name="그룹 105324" transform="translate(7758 -3128)">
    <rect id="사각형_17601" data-name="사각형 17601" width="60" height="60" rx="8" transform="translate(-7758 3128)" fill="#5d8ee3"/>
    <g id="그룹_105325" data-name="그룹 105325" transform="translate(-7742.593 3138.5)">
      <g id="그룹_105327" data-name="그룹 105327" clip-path="url(#clip-path)">
        <path id="패스_55059" data-name="패스 55059" d="M49.626,24.085a8.064,8.064,0,0,1-2.163-.3,1.261,1.261,0,1,1,.676-2.429,5.525,5.525,0,0,0,5.425-1.446l7.851-8a5.526,5.526,0,0,0-7.889-7.741l-7.851,8a5.485,5.485,0,0,0-1.408,5.215A1.261,1.261,0,1,1,41.822,18a7.988,7.988,0,0,1,2.054-7.6l7.851-8A8.048,8.048,0,1,1,63.215,13.68l-7.851,8a8.038,8.038,0,0,1-5.738,2.4" transform="translate(-36.333 0)" fill="#fff"/>
        <path id="패스_55060" data-name="패스 55060" d="M8.047,142.389A8.045,8.045,0,0,1,2.3,128.708l7.851-8a8.047,8.047,0,0,1,7.9-2.109,1.261,1.261,0,0,1-.676,2.429,5.525,5.525,0,0,0-5.425,1.446l-7.851,8a5.526,5.526,0,1,0,7.889,7.741l7.851-8A5.485,5.485,0,0,0,21.251,125a1.261,1.261,0,0,1,2.445-.614,7.988,7.988,0,0,1-2.054,7.6l-7.851,8a8.025,8.025,0,0,1-5.745,2.407" transform="translate(0 -103.389)" fill="#fff"/>
      </g>
    </g>
  </g>
</svg>
