<svg xmlns="http://www.w3.org/2000/svg" xmlns:xlink="http://www.w3.org/1999/xlink" width="22" height="23" viewBox="0 0 22 23">
  <defs>
    <clipPath id="clip-path">
      <rect id="사각형_15547" data-name="사각형 15547" width="22" height="23" transform="translate(-0.047 0)" fill="none" stroke="#5b5bd1" stroke-width="1"/>
    </clipPath>
  </defs>
  <g id="그룹_98397" data-name="그룹 98397" transform="translate(0.047 0)" clip-path="url(#clip-path)">
    <path id="패스_52631" data-name="패스 52631" d="M11.806,24.2c.214-2.471.849-3.02,2.662-3.1,2.3-.1,3.291,3.457,9.157,1.573,6.115-1.964,6.218-10.01,3.761-13.931-1.48-2.361-4.916-5.159-8.011-4.057L17.277,3" transform="translate(-8.079 -2.104)" fill="none" stroke="#1ba88e" stroke-linecap="round" stroke-linejoin="round" stroke-width="1"/>
    <path id="패스_52632" data-name="패스 52632" d="M7.993,8.623,10.57,10.73s-2.466,2.547.318,6.2c2.12,2.777.167,4.624-.849,5.025-2.1.829-2.784-.544-4.86.6-1.633.9-2.1,3.213-2.18,5.175" transform="translate(-1.904 -6.048)" fill="none" stroke="#1ba88e" stroke-linecap="round" stroke-linejoin="round" stroke-width="1"/>
  </g>
</svg>
