<svg xmlns="http://www.w3.org/2000/svg" width="16" height="16" viewBox="0 0 16 16">
    <path d="m50.982-840.364-1.055-1.055a1.819 1.819 0 0 0-.491-1.6 1.748 1.748 0 0 0-1.691-.582l-1.055-1.055a3.087 3.087 0 0 1 .627-.218 3.049 3.049 0 0 1 .682-.073 3.156 3.156 0 0 1 2.318.954 3.156 3.156 0 0 1 .955 2.318 3.054 3.054 0 0 1-.073.682 3.085 3.085 0 0 1-.217.629zm2.327 2.291-1.055-1.018a7.959 7.959 0 0 0 1.227-1.155 6.472 6.472 0 0 0 .918-1.427 7.149 7.149 0 0 0-2.609-2.918 6.914 6.914 0 0 0-3.79-1.082 7.323 7.323 0 0 0-1.036.073 7 7 0 0 0-1 .218l-1.127-1.127a8.059 8.059 0 0 1 1.527-.464 8.423 8.423 0 0 1 1.636-.154 8.258 8.258 0 0 1 4.891 1.518A8.656 8.656 0 0 1 56-841.673a8.506 8.506 0 0 1-1.1 1.991 8 8 0 0 1-1.591 1.609zm.364 4.473-3.055-3.018a8.728 8.728 0 0 1-1.282.3 8.706 8.706 0 0 1-1.336.1 8.258 8.258 0 0 1-4.891-1.518A8.657 8.657 0 0 1 40-841.673a8.619 8.619 0 0 1 .964-1.791 8.371 8.371 0 0 1 1.327-1.482l-2-2.036L41.309-848l13.382 13.382zm-10.364-10.327a7.8 7.8 0 0 0-.964 1.036 6.554 6.554 0 0 0-.745 1.218 7.149 7.149 0 0 0 2.609 2.918A6.914 6.914 0 0 0 48-837.673a5.436 5.436 0 0 0 .709-.045q.345-.046.709-.1l-.655-.691a3.335 3.335 0 0 1-.382.082 2.572 2.572 0 0 1-.381.027 3.156 3.156 0 0 1-2.318-.955 3.156 3.156 0 0 1-.955-2.318 2.573 2.573 0 0 1 .027-.382 3.333 3.333 0 0 1 .082-.382zm5.8 1.691zm-2.745 1.363z" transform="translate(-40 849)" style="fill:#999"/>
</svg>
