<svg xmlns="http://www.w3.org/2000/svg" width="16" height="16" viewBox="0 0 16 16">
    <path d="M48-791.273a3.156 3.156 0 0 0 2.318-.955 3.156 3.156 0 0 0 .955-2.318 3.156 3.156 0 0 0-.955-2.318 3.156 3.156 0 0 0-2.318-.954 3.156 3.156 0 0 0-2.318.955 3.156 3.156 0 0 0-.955 2.318 3.156 3.156 0 0 0 .955 2.318 3.156 3.156 0 0 0 2.318.954zm0-1.309a1.894 1.894 0 0 1-1.391-.573 1.894 1.894 0 0 1-.573-1.391 1.894 1.894 0 0 1 .573-1.391 1.894 1.894 0 0 1 1.391-.572 1.894 1.894 0 0 1 1.391.573 1.894 1.894 0 0 1 .573 1.391 1.894 1.894 0 0 1-.573 1.391 1.894 1.894 0 0 1-1.391.572zm0 3.491a8.42 8.42 0 0 1-4.836-1.482A8.424 8.424 0 0 1 40-794.545a8.424 8.424 0 0 1 3.164-3.973A8.42 8.42 0 0 1 48-800a8.42 8.42 0 0 1 4.836 1.482A8.424 8.424 0 0 1 56-794.545a8.424 8.424 0 0 1-3.164 3.973A8.42 8.42 0 0 1 48-789.091zm0-5.454zm0 4a6.941 6.941 0 0 0 3.773-1.082 7.107 7.107 0 0 0 2.627-2.918 7.107 7.107 0 0 0-2.627-2.918A6.942 6.942 0 0 0 48-798.545a6.942 6.942 0 0 0-3.773 1.082 7.107 7.107 0 0 0-2.627 2.918 7.107 7.107 0 0 0 2.627 2.918A6.941 6.941 0 0 0 48-790.545z" transform="translate(-40 803)" style="fill:#999"/>
</svg>
