<svg xmlns="http://www.w3.org/2000/svg" width="44" height="44" viewBox="0 0 44 44">
  <g id="그룹_105358" data-name="그룹 105358" transform="translate(-161.666 -282.667)">
    <g id="타원_1231" data-name="타원 1231" transform="translate(161.667 282.667)" fill="none" stroke="#e6e6e6" stroke-width="6">
      <circle cx="22" cy="22" r="22" stroke="none"/>
      <circle cx="22" cy="22" r="19" fill="none"/>
    </g>
    <g id="패스_52194" data-name="패스 52194" transform="translate(162 283)" fill="none" stroke-linecap="round" stroke-dasharray="74 56">
      <path d="M21.667,0A21.667,21.667,0,1,1,0,21.667,21.667,21.667,0,0,1,21.667,0Z" stroke="none"/>
      <path d="M 21.66650390625 -3.814697265625e-06 C 33.63257598876953 -3.814697265625e-06 43.33301162719727 9.700420379638672 43.33301162719727 21.66650390625 C 43.33301162719727 33.63616180419922 33.62727737426758 43.33882522583008 21.65580749511719 43.3330078125 C 21.65247344970703 43.33300399780273 21.64822387695312 43.33300018310547 21.64489936828613 43.33300018310547 C 21.64069747924805 43.3329963684082 21.63525581359863 43.33298873901367 21.63105964660645 43.33298110961914 C 21.62724685668945 43.33297348022461 21.62440299987793 43.33296966552734 21.62057876586914 43.33296203613281 C 21.61640167236328 43.33295440673828 21.61319732666016 43.33294677734375 21.6090145111084 43.33293533325195 C 21.60469436645508 43.33292388916016 21.60003852844238 43.33290863037109 21.59572219848633 43.3328971862793 C 21.59226989746094 43.3328857421875 21.58868789672852 43.3328742980957 21.58523941040039 43.33285903930664 C 21.58130645751953 43.33284759521484 21.57808303833008 43.33283233642578 21.57415390014648 43.33281707763672 C 21.56923484802246 43.33279800415039 21.56540679931641 43.33277893066406 21.56048583984375 43.33275604248047 C 21.55643081665039 43.33273696899414 21.55378723144531 43.33272171020508 21.54972839355469 43.33270263671875 C 21.54543495178223 43.33267974853516 21.54202270507812 43.33266067504883 21.53771781921387 43.33263397216797 C 21.53352546691895 43.33261108398438 21.52919578552246 43.33258438110352 21.5250072479248 43.33255767822266 C 21.52168083190918 43.33253479003906 21.51741409301758 43.3325080871582 21.51409149169922 43.33248519897461 C 21.51027870178223 43.33245849609375 21.50511169433594 43.33242034912109 21.50129127502441 43.33239364624023 C 21.49721145629883 43.33236312866211 21.49381828308105 43.33233642578125 21.48975563049316 43.33230209350586 C 21.48667335510254 43.33227920532227 21.48232650756836 43.33224105834961 21.4792537689209 43.33221817016602 C 21.47518348693848 43.33218383789062 21.46914291381836 43.33213043212891 21.46508026123047 43.33209228515625 C 21.46138763427734 43.33205795288086 21.4580078125 43.33202743530273 21.45431518554688 43.33199310302734 C 21.45026588439941 43.33195114135742 21.44712448120117 43.3319206237793 21.44307708740234 43.33188247680664 C 21.43901062011719 43.33184051513672 21.43396759033203 43.331787109375 21.42990684509277 43.33174514770508 C 21.42584991455078 43.33169937133789 21.42302322387695 43.33166885375977 21.41897773742676 43.33162307739258 C 21.41492080688477 43.33157730102539 21.41188430786133 43.33154296875 21.40783882141113 43.33149719238281 C 21.40292549133301 43.33143997192383 21.39931678771973 43.33139801025391 21.39440536499023 43.33133697509766 C 21.39035415649414 43.3312873840332 21.38775825500488 43.33125305175781 21.38370895385742 43.33120346069336 C 21.37965965270996 43.33115005493164 21.37603759765625 43.33110427856445 21.37199401855469 43.33104705810547 C 21.3678092956543 43.33099365234375 21.3635196685791 43.33093643188477 21.35933685302734 43.33087539672852 C 21.35553932189941 43.3308219909668 21.35233116149902 43.33077621459961 21.34853172302246 43.33072280883789 C 21.34472846984863 43.33066940307617 21.34102821350098 43.33061599731445 21.33722877502441 43.33055877685547 C 21.33306121826172 43.33049392700195 21.32827758789062 43.33042526245117 21.32411193847656 43.33036041259766 C 21.32115745544434 43.33031463623047 21.31623649597168 43.33023452758789 21.31328773498535 43.3301887512207 C 21.30997085571289 43.33013534545898 21.3049259185791 43.33005523681641 21.30161094665527 43.32999801635742 C 21.29733276367188 43.32992935180664 21.29340362548828 43.32986068725586 21.28912734985352 43.32978820800781 C 21.28569984436035 43.32973098754883 21.28170585632324 43.32966232299805 21.27827835083008 43.3296012878418 C 21.27361488342285 43.32951736450195 21.26872062683105 43.32943344116211 21.26406288146973 43.329345703125 C 21.26014518737793 43.32927703857422 21.25741386413574 43.3292236328125 21.25349426269531 43.32915115356445 C 21.24981689453125 43.32908248901367 21.24620628356934 43.32901382446289 21.24253463745117 43.32894515991211 C 21.23775482177734 43.32885360717773 21.23360061645508 43.32876968383789 21.22882080078125 43.32867813110352 C 21.22515487670898 43.32860565185547 21.2220630645752 43.32854080200195 21.21838760375977 43.32846832275391 C 21.21471977233887 43.32839202880859 21.21074104309082 43.32831192016602 21.20706748962402 43.3282356262207 C 21.2024097442627 43.3281364440918 21.19840049743652 43.32805252075195 21.19374465942383 43.32795333862305 C 21.1901969909668 43.32787704467773 21.18657875061035 43.32780075073242 21.18303489685059 43.32772064208984 C 21.17900085449219 43.32763290405273 21.17508888244629 43.32754516601562 21.17105293273926 43.32745742797852 C 21.16712951660156 43.32736968994141 21.16220092773438 43.32725524902344 21.15827369689941 43.32716751098633 C 21.15533256530762 43.32709884643555 21.15057754516602 43.32698822021484 21.14763450622559 43.32691955566406 C 21.14311027526855 43.32681274414062 21.13910865783691 43.32671737670898 21.13458061218262 43.32660675048828 C 21.13016891479492 43.32649993896484 21.12747573852539 43.32643508911133 21.12306976318359 43.32632827758789 C 21.11928367614746 43.32623291015625 21.1159610748291 43.32615280151367 21.11216926574707 43.32605743408203 C 21.10812950134277 43.32595443725586 21.1027717590332 43.3258171081543 21.09872436523438 43.32571411132812 C 21.09493827819824 43.32561874389648 21.09180450439453 43.32553482055664 21.08801651000977 43.32543563842773 C 21.08447456359863 43.32534408569336 21.08071136474609 43.32524490356445 21.07716941833496 43.32514953613281 C 21.07239723205566 43.32502365112305 21.068115234375 43.32490539550781 21.06334114074707 43.32477569580078 C 21.05955505371094 43.32467269897461 21.05671310424805 43.32459259033203 21.05292701721191 43.32448959350586 C 21.04938507080078 43.32439041137695 21.04556274414062 43.32428359985352 21.04202270507812 43.32418441772461 C 21.03725242614746 43.32404708862305 21.03313827514648 43.32392883300781 21.02836608886719 43.32379150390625 C 21.02495002746582 43.32369232177734 21.0213565826416 43.32358932495117 21.0179443359375 43.323486328125 C 21.01440048217773 43.32338333129883 21.010498046875 43.32326889038086 21.00695610046387 43.32316207885742 C 21.00255966186523 43.32303237915039 20.99763298034668 43.32288360595703 20.99323463439941 43.32274627685547 C 20.98969459533691 43.32263946533203 20.98598098754883 43.32252502441406 20.98244667053223 43.32241439819336 C 20.97816276550293 43.32228469848633 20.97401428222656 43.3221549987793 20.96974182128906 43.32201766967773 C 20.96534538269043 43.32188034057617 20.96237564086914 43.32178497314453 20.95797920227051 43.3216438293457 C 20.95443916320801 43.32152938842773 20.95088577270508 43.32141494750977 20.94734954833984 43.3213005065918 C 20.94295120239258 43.3211555480957 20.93877792358398 43.32101821899414 20.93438148498535 43.32087326049805 C 20.92999839782715 43.32072830200195 20.92742156982422 43.32064056396484 20.92303848266602 43.32049179077148 C 20.91962623596191 43.32037734985352 20.91602325439453 43.32025527954102 20.91260719299316 43.32013702392578 C 20.90724563598633 43.31995391845703 20.90365219116211 43.31983184814453 20.89828872680664 43.31964492797852 C 20.8948802947998 43.31952667236328 20.89144897460938 43.31940460205078 20.88803291320801 43.31928634643555 C 20.88462066650391 43.31916427612305 20.88071632385254 43.31902694702148 20.87730598449707 43.31890487670898 C 20.87265968322754 43.3187370300293 20.86787986755371 43.31856536865234 20.86324501037598 43.31839370727539 C 20.85982894897461 43.31827163696289 20.85614967346191 43.31813430786133 20.85273933410645 43.31800842285156 C 20.84908676147461 43.31787490844727 20.84520149230957 43.31772994995117 20.84154319763184 43.31759262084961 C 20.83679008483887 43.31741714477539 20.832763671875 43.31726455688477 20.82800483703613 43.31708145141602 C 20.8245906829834 43.31695175170898 20.82115173339844 43.31682205200195 20.8177433013916 43.31668853759766 C 20.81408882141113 43.31654739379883 20.81002044677734 43.31639099121094 20.80636596679688 43.31624984741211 C 20.8016185760498 43.31606292724609 20.79780006408691 43.31591415405273 20.79305839538574 43.31572341918945 C 20.78965187072754 43.31558990478516 20.78598213195801 43.31544494628906 20.7825756072998 43.3153076171875 C 20.77843284606934 43.31513977050781 20.77432823181152 43.31497573852539 20.77018547058105 43.3148078918457 C 20.76641273498535 43.31465148925781 20.76163482666016 43.31445693969727 20.75786018371582 43.31430053710938 C 20.75433158874512 43.31415557861328 20.75095367431641 43.31401443481445 20.7474250793457 43.31386947631836 C 20.74340629577637 43.31370162963867 20.73913383483887 43.31352233886719 20.73511505126953 43.31335067749023 C 20.73098373413086 43.31317520141602 20.72735214233398 43.31302261352539 20.72322273254395 43.31284332275391 C 20.71993827819824 43.31270217895508 20.71594619750977 43.31253051757812 20.71266555786133 43.3123893737793 C 20.70803260803223 43.31218719482422 20.70306205749512 43.31197357177734 20.69843292236328 43.311767578125 C 20.69478607177734 43.31160736083984 20.69139289855957 43.31145858764648 20.68774604797363 43.31129455566406 C 20.68421745300293 43.31113815307617 20.68060874938965 43.31097793579102 20.67708396911621 43.31081771850586 C 20.67245101928711 43.31061172485352 20.66818046569824 43.31041717529297 20.66355323791504 43.31020736694336 C 20.66003036499023 43.3100471496582 20.6563663482666 43.30987930297852 20.65284156799316 43.30971527099609 C 20.64919281005859 43.30954742431641 20.64543724060059 43.30937576293945 20.64179420471191 43.3092041015625 C 20.63717842102051 43.30899047851562 20.63317108154297 43.30880355834961 20.6285572052002 43.30858612060547 C 20.62443733215332 43.30839157104492 20.62213134765625 43.30828094482422 20.61800765991211 43.30808639526367 C 20.61375999450684 43.30788421630859 20.61136436462402 43.30776596069336 20.60712432861328 43.30756378173828 C 20.60215759277344 43.30732345581055 20.59856986999512 43.30715179443359 20.59360122680664 43.30690765380859 C 20.5903263092041 43.30674743652344 20.5862922668457 43.30654907226562 20.5830135345459 43.30638885498047 C 20.57767105102539 43.30612564086914 20.57420349121094 43.30595397949219 20.56886100769043 43.30568695068359 C 20.56534194946289 43.30551147460938 20.56221961975098 43.30535507202148 20.55869674682617 43.30517959594727 C 20.55529403686523 43.30500793457031 20.5512638092041 43.30480194091797 20.54786491394043 43.30463027954102 C 20.54361152648926 43.30441284179688 20.53890991210938 43.30417251586914 20.5346565246582 43.303955078125 C 20.53102684020996 43.30376815795898 20.52766799926758 43.30359268188477 20.52403831481934 43.30340576171875 C 20.52088737487793 43.30324172973633 20.51664543151855 43.30302047729492 20.51349258422852 43.3028564453125 C 20.50888252258301 43.3026123046875 20.50387191772461 43.30234909057617 20.49926948547363 43.30210494995117 C 20.49563980102539 43.30191040039062 20.49275588989258 43.3017578125 20.4891300201416 43.30156326293945 C 20.48597717285156 43.30139541625977 20.4816780090332 43.30116271972656 20.47852516174316 43.30099487304688 C 20.47430038452148 43.30076599121094 20.46885681152344 43.30046844482422 20.46463203430176 43.30023956298828 C 20.46113014221191 43.30004501342773 20.4579029083252 43.29986953735352 20.45439720153809 43.29967498779297 C 20.45077133178711 43.29947662353516 20.44785499572754 43.29931259155273 20.44422912597656 43.29911422729492 C 20.43988037109375 43.29887008666992 20.43398475646973 43.29854202270508 20.42963981628418 43.29829788208008 C 20.4260139465332 43.29809188842773 20.42306518554688 43.29792785644531 20.4194393157959 43.29772186279297 C 20.41569328308105 43.29750823974609 20.41274452209473 43.29734039306641 20.40899848937988 43.29712677001953 C 20.40405464172363 43.29684066772461 20.39990997314453 43.29660415649414 20.39496612548828 43.29631805419922 C 20.39158630371094 43.29612350463867 20.38830947875977 43.29593276977539 20.38492965698242 43.29573440551758 C 20.38191795349121 43.29555892944336 20.37909317016602 43.29539489746094 20.37608337402344 43.29521560668945 C 20.37042236328125 43.29488372802734 20.36580467224121 43.29461288452148 20.36013412475586 43.29427337646484 C 20.35760116577148 43.29412460327148 20.35310935974121 43.29385375976562 20.35056686401367 43.29370498657227 C 20.3422737121582 43.29320526123047 20.33393478393555 43.29270172119141 20.32563591003418 43.29219436645508 C 20.3227481842041 43.29201889038086 20.31935501098633 43.29180908203125 20.31646156311035 43.29163360595703 C 20.30829620361328 43.29113006591797 20.29900550842285 43.29055404663086 20.29084205627441 43.29004287719727 C 20.28783226013184 43.28985595703125 20.28450202941895 43.28964614868164 20.281494140625 43.28945541381836 C 20.27656936645508 43.28914642333984 20.27110290527344 43.28879547119141 20.26616287231445 43.28848266601562 C 20.26315498352051 43.28829193115234 20.2595272064209 43.28805923461914 20.25651741027832 43.28786468505859 C 20.24824905395508 43.28733444213867 20.23996162414551 43.28679656982422 20.23171234130859 43.28625869750977 C 20.22810935974121 43.2860221862793 20.22560119628906 43.28585815429688 20.22199821472168 43.28562164306641 C 20.21408462524414 43.28509902954102 20.20475769042969 43.28448104858398 20.19685935974121 43.28395080566406 C 20.1931324005127 43.2837028503418 20.19107627868652 43.28356552124023 20.1873607635498 43.2833137512207 C 20.17909240722656 43.28275680541992 20.17085838317871 43.28219223022461 20.1625804901123 43.2816276550293 C 20.15922355651855 43.28139877319336 20.15666389465332 43.28122329711914 20.1533088684082 43.28099060058594 C 20.14480400085449 43.28040313720703 20.13615036010742 43.27980041503906 20.12765312194824 43.27920532226562 C 20.12417411804199 43.27896118164062 20.12224388122559 43.27882385253906 20.11877059936523 43.27857971191406 C 20.11350631713867 43.2782096862793 20.10792350769043 43.27781295776367 20.10262680053711 43.27743530273438 C 20.09902763366699 43.27717971801758 20.09675407409668 43.27701568603516 20.09315872192383 43.27675628662109 C 20.09016799926758 43.27654266357422 20.08795738220215 43.27638244628906 20.08489799499512 43.27616500854492 C 20.07867622375488 43.27571487426758 20.07425689697266 43.27539443969727 20.06801795959473 43.27494049072266 C 20.06466102600098 43.27469253540039 20.06209373474121 43.27450561523438 20.05873489379883 43.27426147460938 C 20.05023956298828 43.27363586425781 20.04189300537109 43.27302169799805 20.03340530395508 43.27238845825195 C 20.03017234802246 43.27214813232422 20.0277099609375 43.2719612121582 20.02447891235352 43.27172088623047 C 20.0155029296875 43.27104949951172 20.00739479064941 43.27043533325195 19.99842262268066 43.26975250244141 C 19.99470520019531 43.26947021484375 19.99288177490234 43.26932907104492 19.98915863037109 43.26904296875 C 19.98138999938965 43.26844787597656 19.97208976745605 43.26773071289062 19.96432113647461 43.26712799072266 C 19.96133613586426 43.26689529418945 19.95912170410156 43.2667236328125 19.95613861083984 43.2664909362793 C 19.94765663146973 43.26582717895508 19.93827438354492 43.26509094238281 19.92980766296387 43.26441955566406 C 19.91774749755859 43.26346206665039 19.90754127502441 43.26264190673828 19.89547157287598 43.26166915893555 C 19.88688659667969 43.2609748840332 19.87931442260742 43.26035690307617 19.87073135375977 43.25965118408203 C 19.87073135375977 43.25965118408203 19.8705940246582 43.25963973999023 19.8705940246582 43.25963973999023 C 19.86712646484375 43.25935745239258 19.86442565917969 43.25913619995117 19.8609676361084 43.25885009765625 C 19.85285568237305 43.2581787109375 19.84419441223145 43.25746154785156 19.83611488342285 43.25678634643555 C 19.83265113830566 43.25649642944336 19.82991790771484 43.25626373291016 19.82644653320312 43.25597381591797 C 19.81797790527344 43.2552604675293 19.8097972869873 43.25457000732422 19.80133247375488 43.25384902954102 C 19.7979907989502 43.25356292724609 19.7958927154541 43.25338363647461 19.79254150390625 43.25309753417969 C 19.78372573852539 43.25234222412109 19.77619743347168 43.25168991088867 19.76738929748535 43.25092697143555 C 19.75596237182617 43.24993515014648 19.74560165405273 43.24902725219727 19.73417663574219 43.24801635742188 C 19.73357200622559 43.24796295166016 19.73312568664551 43.2479248046875 19.73252105712891 43.24787139892578 C 19.67826080322266 43.24307250976562 19.62515258789062 43.23817443847656 19.57100677490234 43.23297882080078 C 19.57088661193848 43.23296737670898 19.57076072692871 43.23295211791992 19.57064056396484 43.23294067382812 C 19.55924224853516 43.23184967041016 19.54830360412598 43.23078918457031 19.53691101074219 43.22967910766602 C 19.53678894042969 43.22966766357422 19.53639602661133 43.22962951660156 19.53627586364746 43.2296142578125 C 19.52488136291504 43.2285041809082 19.51385879516602 43.22742080688477 19.50247001647949 43.22629165649414 C 19.50247001647949 43.22629165649414 19.50244140625 43.22628784179688 19.50244140625 43.22628784179688 C 19.49105262756348 43.22515869140625 19.47970581054688 43.22402572631836 19.46832275390625 43.22287750244141 C 19.46832275390625 43.22287750244141 19.46825981140137 43.22286987304688 19.46825981140137 43.22286987304688 C 18.21467399597168 43.09656143188477 16.99316596984863 42.8635368347168 15.81189918518066 42.53275299072266 C 14.21778678894043 42.08523941040039 13.28752136230469 40.4306526184082 13.73384475708008 38.83588027954102 C 14.18039703369141 37.24033737182617 15.83584594726562 36.30889129638672 17.43138694763184 36.75544357299805 C 18.80072784423828 37.13869094848633 20.22563362121582 37.3330078125 21.66650390625 37.3330078125 C 30.30504608154297 37.3330078125 37.3330078125 30.30504608154297 37.3330078125 21.66650390625 C 37.3330078125 13.02796363830566 30.30504608154297 5.999996185302734 21.66650390625 5.999996185302734 C 21.66650390625 5.999996185302734 21.66650390625 5.999996185302734 21.66650390625 5.999996185302734 C 20.17016220092773 5.999996185302734 18.69258689880371 6.209362030029297 17.27480888366699 6.622268676757812 C 15.68404960632324 7.0855712890625 14.01890563964844 6.171562194824219 13.55561065673828 4.580799102783203 C 13.09232711791992 2.990032196044922 14.00631523132324 1.324893951416016 15.59708023071289 0.8616104125976562 C 16.06349563598633 0.7257728576660156 16.53625869750977 0.605224609375 17.01509857177734 0.5004806518554688 C 17.01509857177734 0.5004806518554688 17.01541709899902 0.5004119873046875 17.01541709899902 0.5004119873046875 C 17.03472518920898 0.4961891174316406 17.05373764038086 0.4920578002929688 17.07306480407715 0.487884521484375 C 17.07306480407715 0.487884521484375 17.07334899902344 0.487823486328125 17.07334899902344 0.487823486328125 C 17.09255599975586 0.4836769104003906 17.1116886138916 0.4795761108398438 17.13091278076172 0.4754791259765625 C 17.13091278076172 0.4754791259765625 17.13146591186523 0.4753608703613281 17.13146591186523 0.4753608703613281 C 17.13908386230469 0.4737396240234375 17.14667892456055 0.4721260070800781 17.15429878234863 0.4705123901367188 C 17.15498542785645 0.470367431640625 17.15394973754883 0.4705886840820312 17.15463638305664 0.4704399108886719 C 17.16612815856934 0.4680061340332031 17.17778015136719 0.4655494689941406 17.18927955627441 0.463134765625 C 17.18927955627441 0.463134765625 17.18928909301758 0.4631309509277344 17.18928909301758 0.4631309509277344 C 17.20853424072266 0.4590873718261719 17.22772789001465 0.4550819396972656 17.24699020385742 0.4510917663574219 C 17.24767875671387 0.4509468078613281 17.24700355529785 0.4510879516601562 17.24769020080566 0.4509468078613281 C 17.25532341003418 0.4493637084960938 17.26289749145508 0.4477996826171875 17.27053260803223 0.4462242126464844 C 17.27053260803223 0.4462242126464844 17.27084732055664 0.4461593627929688 17.27084732055664 0.4461593627929688 C 17.29011917114258 0.4421882629394531 17.30937957763672 0.4382476806640625 17.32866859436035 0.434326171875 C 17.32866859436035 0.434326171875 17.3290901184082 0.4342422485351562 17.3290901184082 0.4342422485351562 C 17.33673286437988 0.4326896667480469 17.34446907043457 0.431121826171875 17.35211372375488 0.4295768737792969 C 17.35211372375488 0.4295768737792969 17.35228538513184 0.4295425415039062 17.35228538513184 0.4295425415039062 C 17.36369514465332 0.4272384643554688 17.37514686584473 0.4249343872070312 17.38656234741211 0.4226455688476562 C 17.38656234741211 0.4226455688476562 17.38768577575684 0.4224205017089844 17.38768577575684 0.4224205017089844 C 17.39521408081055 0.4209136962890625 17.40248680114746 0.4194602966308594 17.41001892089844 0.4179611206054688 C 17.41422653198242 0.4171028137207031 17.41749954223633 0.4164657592773438 17.42171287536621 0.4156341552734375 C 17.42171287536621 0.4156341552734375 17.42231750488281 0.4155120849609375 17.42231750488281 0.4155120849609375 C 17.42608451843262 0.414764404296875 17.42993354797363 0.41400146484375 17.43370056152344 0.4132537841796875 C 17.43370056152344 0.4132537841796875 17.43405151367188 0.4131851196289062 17.43405151367188 0.4131851196289062 C 17.43826484680176 0.4123458862304688 17.4417552947998 0.4116554260253906 17.44597244262695 0.41082763671875 C 17.4535083770752 0.4093399047851562 17.46078109741211 0.4079093933105469 17.46831893920898 0.4064292907714844 C 17.47253799438477 0.4055900573730469 17.47587776184082 0.4049453735351562 17.48009490966797 0.4041213989257812 C 17.48009490966797 0.4041213989257812 17.48061943054199 0.4040184020996094 17.48061943054199 0.4040184020996094 C 17.48439025878906 0.4032783508300781 17.48810768127441 0.4025535583496094 17.49188041687012 0.4018173217773438 C 17.49188041687012 0.4018173217773438 17.49273872375488 0.4016494750976562 17.49273872375488 0.4016494750976562 C 17.49683570861816 0.4008522033691406 17.50031471252441 0.4001731872558594 17.50441360473633 0.3993759155273438 C 17.51159286499023 0.3979759216308594 17.51905632019043 0.3965301513671875 17.52623748779297 0.3951416015625 C 17.53032875061035 0.3943138122558594 17.53445243835449 0.3935508728027344 17.53855133056641 0.39276123046875 C 17.53855133056641 0.39276123046875 17.53899574279785 0.3926734924316406 17.53899574279785 0.3926734924316406 C 17.54277038574219 0.3919486999511719 17.54641914367676 0.3912429809570312 17.55019378662109 0.3905181884765625 C 17.55019378662109 0.3905181884765625 17.55133819580078 0.3902969360351562 17.55133819580078 0.3902969360351562 C 17.55544281005859 0.3895072937011719 17.55854034423828 0.3889274597167969 17.5626277923584 0.3881301879882812 C 17.56640434265137 0.3874053955078125 17.57014274597168 0.3866920471191406 17.57391929626465 0.3859672546386719 C 17.57391929626465 0.3859672546386719 17.57408714294434 0.3859367370605469 17.57408714294434 0.3859367370605469 C 17.5777416229248 0.3852386474609375 17.58112907409668 0.3845901489257812 17.58478355407715 0.3838958740234375 C 17.58478355407715 0.3838958740234375 17.58656883239746 0.3835563659667969 17.58656883239746 0.3835563659667969 C 17.59066963195801 0.3827705383300781 17.59329032897949 0.3822479248046875 17.59740447998047 0.3814926147460938 C 17.60175323486328 0.3806686401367188 17.60608673095703 0.3798294067382812 17.61044502258301 0.3790206909179688 C 17.61406326293945 0.3783302307128906 17.61800956726074 0.3776054382324219 17.62162590026855 0.3769035339355469 C 17.62597274780273 0.3760833740234375 17.62831115722656 0.3756484985351562 17.63266944885254 0.3748207092285156 C 17.63677597045898 0.3740501403808594 17.64103889465332 0.3732452392578125 17.64514541625977 0.3724784851074219 C 17.648681640625 0.3718147277832031 17.65217208862305 0.3711585998535156 17.65571022033691 0.3704986572265625 C 17.65571022033691 0.3704986572265625 17.65590476989746 0.3704605102539062 17.65590476989746 0.3704605102539062 C 17.66013526916504 0.3696670532226562 17.66483879089355 0.3687553405761719 17.6690845489502 0.3680000305175781 C 17.67270469665527 0.3673210144042969 17.6762523651123 0.3666725158691406 17.67986869812012 0.3659896850585938 C 17.68340682983398 0.3653297424316406 17.6871452331543 0.3646354675292969 17.69068336486816 0.3639793395996094 C 17.69068336486816 0.3639793395996094 17.69185066223145 0.3637657165527344 17.69185066223145 0.3637657165527344 C 17.69571495056152 0.3630447387695312 17.70001220703125 0.3622360229492188 17.70388031005859 0.3615379333496094 C 17.70729827880859 0.3609046936035156 17.71066474914551 0.3602828979492188 17.71408271789551 0.3596534729003906 C 17.71408271789551 0.3596534729003906 17.71450614929199 0.3595771789550781 17.71450614929199 0.3595771789550781 C 17.7187385559082 0.3587989807128906 17.72335624694824 0.3579444885253906 17.72758674621582 0.3571701049804688 C 17.73121070861816 0.35650634765625 17.73490142822266 0.3558387756347656 17.73852157592773 0.35516357421875 C 17.74332809448242 0.3542861938476562 17.74648094177246 0.3537139892578125 17.75129318237305 0.3528289794921875 C 17.75479698181152 0.3521881103515625 17.75889205932617 0.3514289855957031 17.76239967346191 0.3508071899414062 C 17.76594352722168 0.35015869140625 17.76942253112793 0.3495292663574219 17.7729663848877 0.3488845825195312 C 17.7729663848877 0.3488845825195312 17.7735767364502 0.3487739562988281 17.7735767364502 0.3487739562988281 C 17.77826499938965 0.3479232788085938 17.78170585632324 0.3472900390625 17.78639602661133 0.3464546203613281 C 17.79014587402344 0.3457756042480469 17.79318618774414 0.3452339172363281 17.79693222045898 0.3445510864257812 C 17.80174446105957 0.3436813354492188 17.80555534362793 0.3429908752441406 17.81036758422852 0.342132568359375 C 17.81375312805176 0.341522216796875 17.81756591796875 0.3408279418945312 17.82094573974609 0.3402366638183594 C 17.82449340820312 0.339599609375 17.82820320129395 0.3389358520507812 17.83174896240234 0.3383026123046875 C 17.83174896240234 0.3383026123046875 17.83176231384277 0.3382987976074219 17.83176231384277 0.3382987976074219 C 17.83657455444336 0.3374404907226562 17.84009742736816 0.3368186950683594 17.84490776062012 0.3359565734863281 C 17.84841537475586 0.3353309631347656 17.85226058959961 0.3346366882324219 17.85575866699219 0.3340301513671875 C 17.86000442504883 0.3332748413085938 17.86441993713379 0.3324813842773438 17.86867332458496 0.3317413330078125 C 17.8720588684082 0.3311386108398438 17.87633895874023 0.3303794860839844 17.87973785400391 0.3297882080078125 C 17.88385963439941 0.3290634155273438 17.88772010803223 0.3283805847167969 17.89185523986816 0.3276557922363281 C 17.89606285095215 0.3269157409667969 17.89974784851074 0.3262748718261719 17.90394973754883 0.3255348205566406 C 17.90746307373047 0.3249244689941406 17.91079521179199 0.3243331909179688 17.9143009185791 0.3237228393554688 C 17.91842651367188 0.3230056762695312 17.9234561920166 0.3221321105957031 17.92757415771484 0.3214111328125 C 17.93096542358398 0.3208198547363281 17.93510818481445 0.3201026916503906 17.93848991394043 0.3195152282714844 C 17.94318962097168 0.3187026977539062 17.94658851623535 0.3181114196777344 17.95129585266113 0.3172988891601562 C 17.95538520812988 0.3165931701660156 17.95831871032715 0.3160820007324219 17.96240425109863 0.3153839111328125 C 17.96616744995117 0.3147315979003906 17.96929931640625 0.3142166137695312 17.97305297851562 0.3135490417480469 C 17.97718238830566 0.3128433227539062 17.98234748840332 0.3119392395019531 17.98648071289062 0.311248779296875 C 17.99044418334961 0.3105697631835938 17.99330139160156 0.3100852966308594 17.99727630615234 0.3094024658203125 C 18.00198173522949 0.3085975646972656 18.0053825378418 0.3080215454101562 18.01008224487305 0.3072242736816406 C 18.01405143737793 0.306549072265625 18.01740646362305 0.3059806823730469 18.02138137817383 0.3053054809570312 C 18.02825164794922 0.3041419982910156 18.03502082824707 0.3030014038085938 18.04189300537109 0.3018417358398438 C 18.04611206054688 0.3011360168457031 18.04950714111328 0.3005638122558594 18.05372619628906 0.2998542785644531 C 18.05798721313477 0.2991294860839844 18.0621223449707 0.2984466552734375 18.06637763977051 0.2977333068847656 C 18.06990814208984 0.2971305847167969 18.07353210449219 0.2965354919433594 18.07705116271973 0.2959518432617188 C 18.0811824798584 0.2952423095703125 18.08615493774414 0.29443359375 18.09029197692871 0.2937469482421875 C 18.09417533874512 0.2931175231933594 18.09734344482422 0.2925796508789062 18.10123443603516 0.29193115234375 C 18.10557746887207 0.2912139892578125 18.1082820892334 0.2907676696777344 18.11262321472168 0.2900505065917969 C 18.11688613891602 0.2893486022949219 18.12090301513672 0.2886886596679688 18.12516403198242 0.2879829406738281 C 18.12868499755859 0.2873916625976562 18.1324348449707 0.2867851257324219 18.13596153259277 0.2862129211425781 C 18.14010047912598 0.2855262756347656 18.14511680603027 0.2847137451171875 18.14925384521484 0.2840385437011719 C 18.15289688110352 0.2834434509277344 18.15607070922852 0.2829246520996094 18.15971946716309 0.2823333740234375 C 18.16406440734863 0.2816238403320312 18.16731262207031 0.2811012268066406 18.17166137695312 0.2803916931152344 C 18.17567825317383 0.2797470092773438 18.17950248718262 0.2791213989257812 18.18352127075195 0.278472900390625 C 18.18655967712402 0.2779884338378906 18.1915454864502 0.2771759033203125 18.19458198547363 0.2766876220703125 C 18.1985969543457 0.2760429382324219 18.20380973815918 0.27520751953125 18.20783042907715 0.2745590209960938 C 18.21181488037109 0.2739181518554688 18.21468925476074 0.2734565734863281 18.21866989135742 0.2728233337402344 C 18.22314453125 0.2721023559570312 18.22661781311035 0.2715492248535156 18.23109436035156 0.2708396911621094 C 18.23513221740723 0.2702140808105469 18.23871803283691 0.2696304321289062 18.24273872375488 0.2689857482910156 C 18.24589729309082 0.2684898376464844 18.25026512145996 0.2677955627441406 18.2534236907959 0.2672958374023438 C 18.25814247131348 0.2665519714355469 18.26215362548828 0.2659187316894531 18.26687812805176 0.2651710510253906 C 18.27073287963867 0.2645606994628906 18.2734432220459 0.2641372680664062 18.27730560302734 0.2635269165039062 C 18.28154182434082 0.2628707885742188 18.28581237792969 0.2621917724609375 18.2900447845459 0.2615318298339844 C 18.29440307617188 0.2608413696289062 18.29718399047852 0.2604141235351562 18.30154037475586 0.259735107421875 C 18.30540084838867 0.2591323852539062 18.30894088745117 0.2585830688476562 18.31280708312988 0.2579803466796875 C 18.31753158569336 0.2572479248046875 18.32100296020508 0.2567100524902344 18.32573127746582 0.2559776306152344 C 18.32959175109863 0.2553749084472656 18.33273696899414 0.2548942565917969 18.33660316467285 0.2542991638183594 C 18.34063529968262 0.2536697387695312 18.34616470336914 0.2528266906738281 18.35019493103027 0.2522048950195312 C 18.35398101806641 0.2516403198242188 18.35724067687988 0.2511253356933594 18.36102294921875 0.2505455017089844 C 18.36525726318359 0.2499008178710938 18.36797332763672 0.2494773864746094 18.37221717834473 0.2488365173339844 C 18.37624740600586 0.2482070922851562 18.38098526000977 0.2474937438964844 18.38501930236816 0.24688720703125 C 18.38818740844727 0.2464027404785156 18.39239120483398 0.2457656860351562 18.39555931091309 0.2452888488769531 C 18.39947891235352 0.2446937561035156 18.40518569946289 0.2438278198242188 18.40909385681152 0.2432403564453125 C 18.41239547729492 0.242767333984375 18.41629219055176 0.242156982421875 18.41958236694336 0.2416648864746094 C 18.4238224029541 0.2410163879394531 18.42766571044922 0.240447998046875 18.43190574645996 0.2398147583007812 C 18.43594551086426 0.2392349243164062 18.43986892700195 0.2386207580566406 18.44390487670898 0.2380218505859375 C 18.44708251953125 0.2375640869140625 18.45160675048828 0.2368736267089844 18.45477676391602 0.2364044189453125 C 18.45881652832031 0.2358131408691406 18.46407508850098 0.2350234985351562 18.46811103820801 0.2344284057617188 C 18.47185897827148 0.2338638305664062 18.4749584197998 0.2334136962890625 18.47870826721191 0.2328605651855469 C 18.48258209228516 0.2322921752929688 18.4863224029541 0.2317390441894531 18.49019622802734 0.231170654296875 C 18.49456787109375 0.23052978515625 18.498779296875 0.2299118041992188 18.50314903259277 0.2292709350585938 C 18.50690269470215 0.2287178039550781 18.50994491577148 0.2282791137695312 18.51370048522949 0.2277297973632812 C 18.51831245422363 0.2270584106445312 18.52268600463867 0.2264213562011719 18.52730369567871 0.2257537841796875 C 18.53105354309082 0.2252044677734375 18.53406715393066 0.2247695922851562 18.53782081604004 0.2242279052734375 C 18.54207611083984 0.2236175537109375 18.54615783691406 0.2230224609375 18.55040550231934 0.222412109375 C 18.55464744567871 0.2217979431152344 18.55781745910645 0.221343994140625 18.56206893920898 0.220733642578125 C 18.56594657897949 0.220184326171875 18.56948661804199 0.2196693420410156 18.57336616516113 0.2191162109375 C 18.57810974121094 0.2184410095214844 18.58188438415527 0.2178993225097656 18.58663177490234 0.21722412109375 C 18.59051322937012 0.2166786193847656 18.59342384338379 0.2162628173828125 18.59730529785156 0.2157096862792969 C 18.60155868530273 0.2151107788085938 18.60515403747559 0.2145957946777344 18.60940742492676 0.2139968872070312 C 18.61329078674316 0.2134513854980469 18.61755561828613 0.2128486633300781 18.62143707275391 0.2123031616210938 C 18.62545204162598 0.2117424011230469 18.629150390625 0.2112197875976562 18.63315391540527 0.2106552124023438 C 18.63790702819824 0.2099952697753906 18.64125061035156 0.2095222473144531 18.64599990844727 0.2088623046875 C 18.64917755126953 0.2084159851074219 18.65340805053711 0.2078285217285156 18.65658950805664 0.2073860168457031 C 18.66064262390137 0.2068328857421875 18.66628646850586 0.2060432434082031 18.67033386230469 0.2054786682128906 C 18.67364120483398 0.2050209045410156 18.67751693725586 0.2044868469238281 18.68082427978516 0.2040328979492188 C 18.68495750427246 0.2034683227539062 18.6884937286377 0.2029762268066406 18.692626953125 0.2024078369140625 C 18.69655609130859 0.2018814086914062 18.70125579833984 0.2012252807617188 18.7051830291748 0.2006874084472656 C 18.7082405090332 0.2002754211425781 18.71301460266113 0.1996231079101562 18.71607398986816 0.1992034912109375 C 18.72012329101562 0.1986618041992188 18.72547721862793 0.1979293823242188 18.72952842712402 0.1973762512207031 C 18.7332878112793 0.196868896484375 18.73639106750488 0.1964454650878906 18.74015617370605 0.1959381103515625 C 18.74391555786133 0.1954269409179688 18.74744033813477 0.1949577331542969 18.7512092590332 0.1944503784179688 C 18.75617599487305 0.1937751770019531 18.75956535339355 0.1933250427246094 18.7645320892334 0.1926612854003906 C 18.76759719848633 0.1922492980957031 18.77236366271973 0.1916160583496094 18.77542495727539 0.1912040710449219 C 18.78005981445312 0.1905937194824219 18.78424835205078 0.1900291442871094 18.78888320922852 0.1894149780273438 C 18.79252433776855 0.1889305114746094 18.79575157165527 0.188507080078125 18.79939651489258 0.1880226135253906 C 18.80353736877441 0.1874771118164062 18.80776977539062 0.1869239807128906 18.81191062927246 0.186370849609375 C 18.8161735534668 0.1858139038085938 18.81962394714355 0.1853561401367188 18.82389068603516 0.1847991943359375 C 18.82778739929199 0.1842880249023438 18.8314323425293 0.1838111877441406 18.83532524108887 0.1833038330078125 C 18.84008979797363 0.1826896667480469 18.84355545043945 0.1822357177734375 18.84832000732422 0.181610107421875 C 18.85209083557129 0.181121826171875 18.85526084899902 0.1807098388671875 18.85903549194336 0.1802215576171875 C 18.8632984161377 0.1796684265136719 18.86739349365234 0.1791419982910156 18.87166213989258 0.1785926818847656 C 18.87568092346191 0.178070068359375 18.87935447692871 0.1776046752929688 18.88337516784668 0.1770858764648438 C 18.88714790344238 0.176605224609375 18.8908863067627 0.1761245727539062 18.8946590423584 0.1756439208984375 C 18.8995532989502 0.1750221252441406 18.9033203125 0.1745376586914062 18.90821266174316 0.1739158630371094 C 18.91153526306152 0.1735153198242188 18.9155158996582 0.1729927062988281 18.91883277893066 0.1725692749023438 C 18.92288970947266 0.17205810546875 18.92835807800293 0.1713638305664062 18.93242263793945 0.1708564758300781 C 18.93549156188965 0.1704597473144531 18.93968963623047 0.1699409484863281 18.94275665283203 0.1695556640625 C 18.946533203125 0.1690864562988281 18.95033645629883 0.1686058044433594 18.9541130065918 0.1681365966796875 C 18.95876312255859 0.1675529479980469 18.96275901794434 0.1670608520507812 18.96740531921387 0.1664772033691406 C 18.97035217285156 0.1661148071289062 18.9753360748291 0.165496826171875 18.97828102111816 0.165130615234375 C 18.98268127441406 0.164581298828125 18.98696899414062 0.1640586853027344 18.99136924743652 0.16351318359375 C 18.99490356445312 0.1630821228027344 18.99880409240723 0.16259765625 19.0023307800293 0.1621665954589844 C 19.0061092376709 0.1617050170898438 19.01031684875488 0.16119384765625 19.01409530639648 0.1607284545898438 C 19.0180492401123 0.1602439880371094 19.02308654785156 0.1596298217773438 19.02702903747559 0.1591529846191406 C 19.03068923950195 0.1587104797363281 19.03415870666504 0.1582908630371094 19.03781318664551 0.1578483581542969 C 19.04259300231934 0.1572685241699219 19.04677581787109 0.1567611694335938 19.05155181884766 0.15618896484375 C 19.05533599853516 0.1557388305664062 19.05842590332031 0.1553611755371094 19.06220626831055 0.1549110412597656 C 19.06636810302734 0.1544113159179688 19.07040214538574 0.1539344787597656 19.07455635070801 0.1534347534179688 C 19.0782527923584 0.1529998779296875 19.08293724060059 0.152435302734375 19.08663749694824 0.1519966125488281 C 19.09054756164551 0.1515274047851562 19.09399795532227 0.151123046875 19.09790802001953 0.150665283203125 C 19.10256004333496 0.1501121520996094 19.10662460327148 0.1496353149414062 19.11128425598145 0.1490859985351562 C 19.11507415771484 0.1486473083496094 19.11812782287598 0.1482887268066406 19.12191200256348 0.1478424072265625 C 19.12570190429688 0.14739990234375 19.12955284118652 0.1469535827636719 19.13334083557129 0.1465072631835938 C 19.13712120056152 0.1460723876953125 19.14250755310059 0.1454429626464844 19.14629364013672 0.1450042724609375 C 19.14995765686035 0.1445846557617188 19.15364456176758 0.1441535949707031 19.15730476379395 0.1437301635742188 C 19.16196250915527 0.1431846618652344 19.166259765625 0.1426963806152344 19.17092323303223 0.1421661376953125 C 19.17470741271973 0.1417274475097656 19.17792510986328 0.1413650512695312 19.18171501159668 0.14093017578125 C 19.18649864196777 0.1403846740722656 19.19086456298828 0.1398849487304688 19.19565200805664 0.13934326171875 C 19.19910430908203 0.138946533203125 19.20269775390625 0.1385459899902344 19.20615386962891 0.138153076171875 C 19.20993995666504 0.137725830078125 19.21349716186523 0.1373291015625 19.21728515625 0.1368980407714844 C 19.22195053100586 0.1363677978515625 19.22589302062988 0.1359291076660156 19.23056030273438 0.1354103088378906 C 19.23435401916504 0.134979248046875 19.23783683776855 0.1345939636230469 19.24162673950195 0.1341743469238281 C 19.2455883026123 0.1337318420410156 19.25133323669434 0.1330909729003906 19.25528717041016 0.1326560974121094 C 19.25907707214355 0.132232666015625 19.26193237304688 0.1319160461425781 19.26572608947754 0.1315040588378906 C 19.2692699432373 0.1311111450195312 19.2732048034668 0.13067626953125 19.2767505645752 0.1302909851074219 C 19.28116989135742 0.1298027038574219 19.28603553771973 0.1292762756347656 19.29045104980469 0.1287918090820312 C 19.29341316223145 0.1284828186035156 19.29838752746582 0.1279258728027344 19.30134391784668 0.1276054382324219 C 19.30601692199707 0.1271095275878906 19.3105411529541 0.1266136169433594 19.31521034240723 0.1261062622070312 C 19.31887626647949 0.1257171630859375 19.32186508178711 0.1253929138183594 19.32553672790527 0.1249923706054688 C 19.32920455932617 0.1245956420898438 19.33323669433594 0.1241645812988281 19.3369083404541 0.1237754821777344 C 19.34166526794434 0.1232643127441406 19.34548377990723 0.12286376953125 19.35024070739746 0.1223526000976562 C 19.35378646850586 0.121978759765625 19.35753631591797 0.12158203125 19.361083984375 0.1212043762207031 C 19.36575698852539 0.1207160949707031 19.37032890319824 0.1202278137207031 19.3750057220459 0.1197357177734375 C 19.37880325317383 0.1193351745605469 19.38205146789551 0.1189956665039062 19.38584899902344 0.1185989379882812 C 19.39027214050293 0.1181373596191406 19.39419555664062 0.1177291870117188 19.39862060546875 0.1172676086425781 C 19.40304756164551 0.1168098449707031 19.40601539611816 0.1165008544921875 19.41043853759766 0.1160430908203125 C 19.41424179077148 0.1156463623046875 19.41780281066895 0.1152801513671875 19.42160224914551 0.1148910522460938 C 19.42627906799316 0.1144027709960938 19.43047523498535 0.1139755249023438 19.43515396118164 0.1134986877441406 C 19.4391975402832 0.1130828857421875 19.44201278686523 0.1127967834472656 19.44606781005859 0.1123847961425781 C 19.45029067993164 0.1119537353515625 19.45565795898438 0.1114120483398438 19.45987510681152 0.1109848022460938 C 19.46371459960938 0.1105918884277344 19.46673393249512 0.1102867126464844 19.47057723999023 0.1099052429199219 C 19.47475242614746 0.1094741821289062 19.47815322875977 0.1091461181640625 19.48233222961426 0.1087226867675781 C 19.4865550994873 0.1083145141601562 19.49087333679199 0.1078681945800781 19.49509239196777 0.1074485778808594 C 19.49832153320312 0.1071319580078125 19.50290679931641 0.1066780090332031 19.50612449645996 0.106353759765625 C 19.51009178161621 0.1059722900390625 19.51575088500977 0.1054039001464844 19.51972198486328 0.1050148010253906 C 19.5230598449707 0.10467529296875 19.5269603729248 0.1043014526367188 19.53030586242676 0.1039772033691406 C 19.53423690795898 0.1035919189453125 19.5379810333252 0.1032295227050781 19.54191207885742 0.10284423828125 C 19.54659652709961 0.1023788452148438 19.55038642883301 0.1020240783691406 19.55507278442383 0.1015663146972656 C 19.55804443359375 0.1012802124023438 19.56280136108398 0.1008186340332031 19.56577301025391 0.1005325317382812 C 19.57045936584473 0.1000862121582031 19.57500457763672 0.09965133666992188 19.57968902587891 0.0991973876953125 C 19.5837459564209 0.09881591796875 19.5865535736084 0.09853744506835938 19.59061431884766 0.0981597900390625 C 19.59454917907715 0.09778213500976562 19.59818077087402 0.09743881225585938 19.60211563110352 0.09706878662109375 C 19.6063060760498 0.09668350219726562 19.61053085327148 0.09627914428710938 19.61471366882324 0.09588241577148438 C 19.61840057373047 0.09553146362304688 19.62232971191406 0.0951690673828125 19.62601661682129 0.09482192993164062 C 19.63070678710938 0.09438323974609375 19.63494491577148 0.09399032592773438 19.63963317871094 0.09355545043945312 C 19.64319610595703 0.09322738647460938 19.64666175842285 0.09290695190429688 19.65022468566895 0.0925750732421875 C 19.65402984619141 0.09221649169921875 19.65819549560547 0.09183502197265625 19.66201019287109 0.09149169921875 C 19.66582107543945 0.09113311767578125 19.67107963562012 0.09066009521484375 19.67489242553711 0.09031295776367188 C 19.6784553527832 0.08998489379882812 19.68233489990234 0.089630126953125 19.68589973449707 0.08931350708007812 C 19.69046783447266 0.088897705078125 19.69497680664062 0.08848953247070312 19.69954681396484 0.08807754516601562 C 19.70285415649414 0.0877838134765625 19.70685386657715 0.08742141723632812 19.71017074584961 0.087127685546875 C 19.7146053314209 0.08672332763671875 19.71975326538086 0.08626556396484375 19.72420120239258 0.08587646484375 C 19.72768211364746 0.08555984497070312 19.73179626464844 0.085205078125 19.73527526855469 0.08489227294921875 C 19.73909187316895 0.08455657958984375 19.74267196655273 0.0842437744140625 19.74648666381836 0.0839080810546875 C 19.75118827819824 0.08349227905273438 19.75529861450195 0.0831298828125 19.75999450683594 0.08272552490234375 C 19.76356315612793 0.0824127197265625 19.7672176361084 0.08209991455078125 19.77078247070312 0.081787109375 C 19.77547645568848 0.08137893676757812 19.78020668029785 0.08097076416015625 19.78490829467773 0.08056640625 C 19.78826332092285 0.08028411865234375 19.79244232177734 0.07992172241210938 19.79579925537109 0.07963180541992188 C 19.79974174499512 0.07929229736328125 19.80311393737793 0.07900619506835938 19.80706214904785 0.07867431640625 C 19.8118896484375 0.07826614379882812 19.81574249267578 0.07793807983398438 19.8205680847168 0.0775299072265625 C 19.82392120361328 0.07724380493164062 19.8282527923584 0.07687759399414062 19.83161163330078 0.07659912109375 C 19.83572769165039 0.07627487182617188 19.84119606018066 0.07579421997070312 19.84531402587891 0.0754547119140625 C 19.84865760803223 0.07518386840820312 19.85265922546387 0.07484817504882812 19.85602188110352 0.07456588745117188 C 19.8602180480957 0.07421875 19.86383819580078 0.07391738891601562 19.8680362701416 0.073577880859375 C 19.87201881408691 0.0732269287109375 19.87668609619141 0.07286453247070312 19.88067626953125 0.072540283203125 C 19.88437271118164 0.07224273681640625 19.88791275024414 0.07194900512695312 19.8916130065918 0.07165145874023438 C 19.89631843566895 0.0712738037109375 19.900634765625 0.07092666625976562 19.90534019470215 0.0705413818359375 C 19.90929222106934 0.07022476196289062 19.91252136230469 0.06996536254882812 19.91646957397461 0.06965255737304688 C 19.92117881774902 0.06927490234375 19.92520904541016 0.0689544677734375 19.92991828918457 0.06858062744140625 C 19.92991828918457 0.06858062744140625 19.93067741394043 0.06851959228515625 19.93067741394043 0.06851959228515625 C 19.93564033508301 0.06812667846679688 19.93987083435059 0.06780242919921875 19.94482231140137 0.06740188598632812 C 19.94865036010742 0.06710433959960938 19.9520206451416 0.06683731079101562 19.95584678649902 0.06653976440429688 C 19.9606819152832 0.06615829467773438 19.96406364440918 0.06589889526367188 19.96889877319336 0.06552505493164062 C 19.97297668457031 0.06520462036132812 19.97644805908203 0.06493759155273438 19.98053169250488 0.06462478637695312 C 19.98406410217285 0.06435394287109375 19.9874095916748 0.06409835815429688 19.99094009399414 0.0638275146484375 C 19.99094009399414 0.0638275146484375 19.9918041229248 0.06375885009765625 19.9918041229248 0.06375885009765625 C 19.99651718139648 0.0634002685546875 20.00064468383789 0.06307220458984375 20.00536155700684 0.0627288818359375 C 20.00919342041016 0.06243515014648438 20.01238822937012 0.06219100952148438 20.01621437072754 0.06190872192382812 C 20.02092933654785 0.061553955078125 20.02550315856934 0.06120681762695312 20.03021049499512 0.06085968017578125 C 20.03391265869141 0.060577392578125 20.03755378723145 0.06031036376953125 20.041259765625 0.06003570556640625 C 20.04559516906738 0.05971527099609375 20.05025100708008 0.05937576293945312 20.05458450317383 0.059051513671875 C 20.05829238891602 0.05878829956054688 20.06214714050293 0.05849838256835938 20.06585121154785 0.0582275390625 C 20.06967735290527 0.05794525146484375 20.07296562194824 0.05770111083984375 20.07680511474609 0.05743026733398438 C 20.08223915100098 0.057037353515625 20.08562469482422 0.05679702758789062 20.09105682373047 0.05640029907226562 C 20.09510231018066 0.05611419677734375 20.09778213500977 0.05591583251953125 20.10182952880859 0.05562973022460938 C 20.1065502166748 0.05529403686523438 20.11031150817871 0.05502700805664062 20.11502456665039 0.05469131469726562 C 20.11886215209961 0.05442047119140625 20.12260818481445 0.05415725708007812 20.12644195556641 0.05388641357421875 C 20.12981224060059 0.05364990234375 20.13361549377441 0.0533905029296875 20.13698577880859 0.05315017700195312 C 20.1418342590332 0.0528106689453125 20.14628982543945 0.05250167846679688 20.15113830566406 0.05216598510742188 C 20.15484809875488 0.051910400390625 20.15833473205566 0.051666259765625 20.16204071044922 0.05141830444335938 C 20.16689109802246 0.05108261108398438 20.17082405090332 0.05080795288085938 20.17567253112793 0.05048751831054688 C 20.17951393127441 0.05022811889648438 20.18306732177734 0.04999160766601562 20.18690299987793 0.04972457885742188 C 20.19086647033691 0.04945755004882812 20.19511413574219 0.04916763305664062 20.1990795135498 0.04890823364257812 C 20.20342445373535 0.048614501953125 20.20726013183594 0.04835891723632812 20.21160697937012 0.04807281494140625 C 20.21544456481934 0.047821044921875 20.21869659423828 0.04760360717773438 20.22253799438477 0.04735183715820312 C 20.22726440429688 0.04703903198242188 20.23124122619629 0.046783447265625 20.23596572875977 0.04647064208984375 C 20.23993301391602 0.04621505737304688 20.24354362487793 0.04597854614257812 20.24751663208008 0.04572296142578125 C 20.25127220153809 0.04547500610351562 20.25550270080566 0.04521560668945312 20.25925445556641 0.0449676513671875 C 20.26360321044922 0.04468917846679688 20.26769256591797 0.04442596435546875 20.27203559875488 0.04415130615234375 C 20.27625846862793 0.04388427734375 20.27872657775879 0.043731689453125 20.28295135498047 0.04346084594726562 C 20.28780746459961 0.04315185546875 20.29208564758301 0.0428924560546875 20.29693984985352 0.04258346557617188 C 20.30006408691406 0.04239273071289062 20.30473327636719 0.0420989990234375 20.3078556060791 0.04190444946289062 C 20.31186485290527 0.041656494140625 20.31676483154297 0.0413360595703125 20.32078552246094 0.04111099243164062 C 20.32501220703125 0.04085159301757812 20.32839393615723 0.0406494140625 20.33261489868164 0.04038619995117188 C 20.33612251281738 0.04017257690429688 20.34004592895508 0.03992843627929688 20.34354209899902 0.03972625732421875 C 20.34780693054199 0.03946685791015625 20.35270690917969 0.0391693115234375 20.35697174072266 0.03892135620117188 C 20.36047744750977 0.0387115478515625 20.36493110656738 0.03844070434570312 20.36843872070312 0.03824234008789062 C 20.37270355224609 0.03799057006835938 20.3767204284668 0.03773880004882812 20.38099098205566 0.03750228881835938 C 20.38534927368164 0.03725433349609375 20.38917922973633 0.03702926635742188 20.39353370666504 0.036773681640625 C 20.39704132080078 0.03656768798828125 20.40077972412109 0.0363616943359375 20.404296875 0.03615188598632812 C 20.40856552124023 0.03590774536132812 20.41350173950195 0.0356292724609375 20.41777992248535 0.03538131713867188 C 20.42141532897949 0.03517532348632812 20.42535400390625 0.03493881225585938 20.42899894714355 0.03474807739257812 C 20.43398666381836 0.03446578979492188 20.43745040893555 0.03426742553710938 20.44244384765625 0.03399276733398438 C 20.44654846191406 0.03376388549804688 20.4500617980957 0.0335693359375 20.45416450500488 0.03334426879882812 C 20.45793342590332 0.03313827514648438 20.46126556396484 0.032958984375 20.46502494812012 0.03274917602539062 C 20.46917343139648 0.03252410888671875 20.47469711303711 0.03221893310546875 20.47883224487305 0.0319976806640625 C 20.48294067382812 0.03177642822265625 20.48593902587891 0.0316162109375 20.49004364013672 0.03139495849609375 C 20.49490928649902 0.03113174438476562 20.49808120727539 0.03096389770507812 20.50295066833496 0.03070831298828125 C 20.5064640045166 0.03052139282226562 20.5112476348877 0.03027725219726562 20.51476097106934 0.03008651733398438 C 20.5183162689209 0.02989959716796875 20.52203369140625 0.02970504760742188 20.52558898925781 0.02952194213867188 C 20.52558898925781 0.02952194213867188 20.52566337585449 0.02951812744140625 20.52566337585449 0.02951812744140625 C 20.52993965148926 0.029296875 20.53530120849609 0.02901458740234375 20.53958320617676 0.02880096435546875 C 20.54262924194336 0.02864456176757812 20.54570007324219 0.0284881591796875 20.54874801635742 0.02833175659179688 C 20.54874801635742 0.02833175659179688 20.5503978729248 0.02824783325195312 20.5503978729248 0.02824783325195312 C 20.55480575561523 0.02802276611328125 20.55961036682129 0.02779006958007812 20.56400299072266 0.02756118774414062 C 20.56764602661133 0.02737808227539062 20.57185935974121 0.02718353271484375 20.57550048828125 0.02698898315429688 C 20.57918357849121 0.02680587768554688 20.58274269104004 0.02663040161132812 20.58642768859863 0.02645111083984375 C 20.58642768859863 0.02645111083984375 20.58720207214355 0.0264129638671875 20.58720207214355 0.0264129638671875 C 20.59194946289062 0.02617645263671875 20.59560012817383 0.0260009765625 20.6003475189209 0.0257720947265625 C 20.60399055480957 0.02559661865234375 20.60794258117676 0.02540206909179688 20.61157989501953 0.02523040771484375 C 20.61585998535156 0.0250244140625 20.62066459655762 0.02479934692382812 20.62495613098145 0.02459335327148438 C 20.62847328186035 0.02442550659179688 20.63306617736816 0.02420806884765625 20.63659477233887 0.02404403686523438 C 20.6408748626709 0.02384185791015625 20.64471054077148 0.02367019653320312 20.64900016784668 0.023468017578125 C 20.65349388122559 0.02325820922851562 20.65706253051758 0.02309036254882812 20.66155815124512 0.02289199829101562 C 20.66507720947266 0.02273178100585938 20.66890335083008 0.02256393432617188 20.67241859436035 0.02239608764648438 C 20.67657470703125 0.02220916748046875 20.68216896057129 0.02196121215820312 20.68632888793945 0.0217742919921875 C 20.68972396850586 0.02162551879882812 20.69409370422363 0.02142715454101562 20.69748687744141 0.02128219604492188 C 20.7016429901123 0.02109909057617188 20.70647621154785 0.02088165283203125 20.71063041687012 0.0207061767578125 C 20.71487808227539 0.0205230712890625 20.71810913085938 0.02039337158203125 20.72235298156738 0.02019882202148438 C 20.72600173950195 0.02004241943359375 20.7300853729248 0.01987075805664062 20.73373031616211 0.01971435546875 C 20.73788833618164 0.01954269409179688 20.74311828613281 0.0193328857421875 20.74727630615234 0.01914596557617188 C 20.75079917907715 0.0189971923828125 20.75485992431641 0.01882553100585938 20.75838279724121 0.01868438720703125 C 20.76339530944824 0.0184783935546875 20.76663780212402 0.01833724975585938 20.77164459228516 0.0181427001953125 C 20.77589416503906 0.01797103881835938 20.77935409545898 0.01784515380859375 20.78359985351562 0.01765823364257812 C 20.79145431518555 0.0173492431640625 20.80042839050293 0.01697921752929688 20.80828475952148 0.01668548583984375 C 20.81266212463379 0.01651763916015625 20.81485748291016 0.01642608642578125 20.8192310333252 0.01626205444335938 C 20.82352256774902 0.01609420776367188 20.82824325561523 0.01590347290039062 20.83254051208496 0.01575469970703125 C 20.83619117736816 0.01562118530273438 20.84061622619629 0.01546096801757812 20.84426498413086 0.01531219482421875 C 20.84855651855469 0.01515579223632812 20.85206604003906 0.01503753662109375 20.85635757446289 0.01486587524414062 C 20.86099433898926 0.01469802856445312 20.86483955383301 0.014556884765625 20.86947059631348 0.01438522338867188 C 20.87359237670898 0.0142364501953125 20.87649917602539 0.01413345336914062 20.8806266784668 0.01398468017578125 C 20.88479423522949 0.0138397216796875 20.8899040222168 0.01365280151367188 20.89406967163086 0.01351165771484375 C 20.8976001739502 0.0133819580078125 20.90204811096191 0.01322555541992188 20.90558242797852 0.01311111450195312 C 20.90987586975098 0.01296234130859375 20.9138355255127 0.0128326416015625 20.91814613342285 0.0126800537109375 C 20.92252731323242 0.0125274658203125 20.92624473571777 0.0124053955078125 20.93063354492188 0.01226043701171875 C 20.93416213989258 0.01213836669921875 20.93803787231445 0.01200103759765625 20.94157218933105 0.01189804077148438 C 20.94586944580078 0.01175308227539062 20.9509162902832 0.0116119384765625 20.95521354675293 0.01145172119140625 C 20.95887184143066 0.0113372802734375 20.96267700195312 0.01121902465820312 20.96633338928223 0.01109695434570312 C 20.97062873840332 0.010955810546875 20.97554588317871 0.01080703735351562 20.9798412322998 0.01067352294921875 C 20.98409843444824 0.01054000854492188 20.98754501342773 0.01044082641601562 20.99180221557617 0.01030349731445312 C 20.99546241760254 0.01019287109375 20.99887084960938 0.01007461547851562 21.00254440307617 0.009979248046875 C 21.00684547424316 0.009845733642578125 21.01223945617676 0.009693145751953125 21.01652908325195 0.00955963134765625 C 21.02066040039062 0.009441375732421875 21.02372360229492 0.00934600830078125 21.02786254882812 0.0092315673828125 C 21.03275871276855 0.009090423583984375 21.03614234924316 0.009002685546875 21.04103660583496 0.008853912353515625 C 21.0452938079834 0.008731842041015625 21.04864311218262 0.008640289306640625 21.05290985107422 0.008518218994140625 C 21.05695724487305 0.0084075927734375 21.0597095489502 0.008331298828125 21.06375694274902 0.008220672607421875 C 21.06865692138672 0.008083343505859375 21.07302093505859 0.007968902587890625 21.07792091369629 0.007839202880859375 C 21.08218574523926 0.007724761962890625 21.0845775604248 0.007659912109375 21.08883857727051 0.007549285888671875 C 21.09386825561523 0.007419586181640625 21.09699249267578 0.007328033447265625 21.10202217102051 0.00720977783203125 C 21.10581207275391 0.007110595703125 21.10993194580078 0.007007598876953125 21.11373519897461 0.0069122314453125 C 21.11744117736816 0.0068206787109375 21.12115478515625 0.006725311279296875 21.12486267089844 0.0066375732421875 C 21.12486267089844 0.0066375732421875 21.12509536743164 0.00662994384765625 21.12509536743164 0.00662994384765625 C 21.12940406799316 0.00652313232421875 21.13437461853027 0.00643157958984375 21.13868141174316 0.0063018798828125 C 21.14234924316406 0.00621795654296875 21.14648628234863 0.006122589111328125 21.15013694763184 0.006031036376953125 C 21.15444755554199 0.005931854248046875 21.15948486328125 0.005825042724609375 21.16379165649414 0.00571441650390625 C 21.16732978820801 0.005641937255859375 21.17170333862305 0.005542755126953125 21.17525482177734 0.005458831787109375 C 21.17956352233887 0.00536346435546875 21.18371772766113 0.00525665283203125 21.18803024291992 0.005176544189453125 C 21.19242668151855 0.005084991455078125 21.19597625732422 0.00501251220703125 21.20036888122559 0.004913330078125 C 21.20403480529785 0.0048370361328125 21.20762252807617 0.00475311279296875 21.21129035949707 0.0046844482421875 C 21.21560096740723 0.00460052490234375 21.22106742858887 0.0045013427734375 21.22537803649902 0.004398345947265625 C 21.22879219055176 0.00433349609375 21.23313140869141 0.00423431396484375 21.23654174804688 0.004180908203125 C 21.24085426330566 0.004093170166015625 21.24514007568359 0.004001617431640625 21.24943733215332 0.003932952880859375 C 21.25383758544922 0.003849029541015625 21.25732040405273 0.0037841796875 21.26172256469727 0.003704071044921875 C 21.26526832580566 0.003635406494140625 21.26932525634766 0.003559112548828125 21.27286720275879 0.00350189208984375 C 21.27717971801758 0.00342559814453125 21.28240585327148 0.003314971923828125 21.28671836853027 0.003261566162109375 C 21.29001045227051 0.003200531005859375 21.29459762573242 0.003131866455078125 21.29788017272949 0.003070831298828125 C 21.30219078063965 0.00299835205078125 21.30641746520996 0.0029296875 21.31075096130371 0.00286102294921875 C 21.31515502929688 0.002788543701171875 21.31871795654297 0.00273895263671875 21.32311820983887 0.00266265869140625 C 21.32704544067383 0.00260162353515625 21.33003997802734 0.002552032470703125 21.33398818969727 0.002498626708984375 C 21.33830070495605 0.00243377685546875 21.34352874755859 0.002353668212890625 21.34785461425781 0.002292633056640625 C 21.35212898254395 0.002239227294921875 21.35495948791504 0.00218963623046875 21.35923957824707 0.002132415771484375 C 21.36428260803223 0.002063751220703125 21.3676586151123 0.00201416015625 21.37271118164062 0.001949310302734375 C 21.37625694274902 0.00189971923828125 21.38065910339355 0.00183868408203125 21.38421440124512 0.001800537109375 C 21.38780403137207 0.0017547607421875 21.39135360717773 0.001708984375 21.39494323730469 0.001667022705078125 C 21.39494323730469 0.001667022705078125 21.39609146118164 0.001651763916015625 21.39609146118164 0.001651763916015625 C 21.40088081359863 0.001590728759765625 21.40467262268066 0.001552581787109375 21.40946388244629 0.001491546630859375 C 21.41373825073242 0.001438140869140625 21.41636848449707 0.001407623291015625 21.420654296875 0.00136566162109375 C 21.42557334899902 0.001312255859375 21.42970275878906 0.00125885009765625 21.43462371826172 0.00121307373046875 C 21.43791580200195 0.001178741455078125 21.44262886047363 0.001129150390625 21.44592094421387 0.0010986328125 C 21.45011520385742 0.001056671142578125 21.45387649536133 0.001041412353515625 21.45806121826172 0.000980377197265625 C 21.46259689331055 0.000934600830078125 21.46669387817383 0.000896453857421875 21.47122955322266 0.00086212158203125 C 21.47538185119629 0.000823974609375 21.47805786132812 0.000797271728515625 21.48221588134766 0.000766754150390625 C 21.48641014099121 0.000728607177734375 21.4915943145752 0.000701904296875 21.49578857421875 0.0006561279296875 C 21.49934005737305 0.00063323974609375 21.50381851196289 0.0005950927734375 21.50737762451172 0.00057220458984375 C 21.5117015838623 0.00054168701171875 21.51567268371582 0.00049591064453125 21.51999473571777 0.000484466552734375 C 21.52453804016113 0.000453948974609375 21.52779197692871 0.0004425048828125 21.53232955932617 0.00040435791015625 C 21.53614234924316 0.0003814697265625 21.53972625732422 0.00035858154296875 21.54353523254395 0.000339508056640625 C 21.5478630065918 0.000316619873046875 21.55326652526855 0.000301361083984375 21.55757904052734 0.00026702880859375 C 21.56100845336914 0.000247955322265625 21.56559181213379 0.0002288818359375 21.56901359558105 0.000213623046875 C 21.57394218444824 0.000194549560546875 21.57750511169434 0.000186920166015625 21.58243179321289 0.000156402587890625 C 21.58659172058105 0.00014495849609375 21.5898265838623 0.000133514404296875 21.5939826965332 0.000118255615234375 C 21.59732437133789 0.0001068115234375 21.60086441040039 9.5367431640625e-05 21.60420608520508 8.7738037109375e-05 C 21.60420608520508 8.7738037109375e-05 21.60492706298828 8.392333984375e-05 21.60492706298828 8.392333984375e-05 C 21.6093864440918 6.866455078125e-05 21.61457061767578 6.4849853515625e-05 21.61902236938477 4.9591064453125e-05 C 21.62257957458496 4.1961669921875e-05 21.6267261505127 4.57763671875e-05 21.63027763366699 2.6702880859375e-05 C 21.63533592224121 1.9073486328125e-05 21.63886451721191 7.62939453125e-06 21.64391899108887 1.1444091796875e-05 C 21.64820861816406 7.62939453125e-06 21.65136528015137 7.62939453125e-06 21.6556510925293 0 C 21.65925216674805 0 21.66290283203125 -3.814697265625e-06 21.66650390625 -3.814697265625e-06 C 21.66650390625 -3.814697265625e-06 21.66650390625 -3.814697265625e-06 21.66650390625 -3.814697265625e-06 Z" stroke="none" fill="#1db196"/>
    </g>
  </g>
</svg>
