<svg xmlns="http://www.w3.org/2000/svg" xmlns:xlink="http://www.w3.org/1999/xlink" width="80" height="27" viewBox="0 0 80 27">
  <defs>
    <clipPath id="clip-path">
      <rect id="사각형_16471" data-name="사각형 16471" width="80" height="27" fill="none"/>
    </clipPath>
  </defs>
  <g id="그룹_100902" data-name="그룹 100902" clip-path="url(#clip-path)">
    <path id="패스_53156" data-name="패스 53156" d="M79.1,18.3a9.273,9.273,0,0,1-2.151,1.689,10.647,10.647,0,0,1-3,1.391c-.172.043-.347.079-.523.106l-.046.007c-.108.018-.22.03-.333.039l-.15.011q-.111.005-.223.005a2.478,2.478,0,0,0-.531.062,2.12,2.12,0,0,0-.846.4,3.016,3.016,0,0,1-.413.281,8.9,8.9,0,0,1-1.2.51l-.208.075a1.247,1.247,0,0,0-.224.1,2.337,2.337,0,0,0-.365.258.7.7,0,0,1-.134.075,1.305,1.305,0,0,0-.255.136c-.026.018-.05.037-.076.055a10.9,10.9,0,0,1-5.262,1.555,5.343,5.343,0,0,1-1,.016,3.365,3.365,0,0,0-1.833.374,12.193,12.193,0,0,1-6.91,1.15c-.052-.005-.1-.011-.154-.018s-.124-.016-.186-.022c-.116-.014-.232-.023-.35-.032-.076-.005-.154-.011-.232-.013a11.044,11.044,0,0,0-2.035.09,35.16,35.16,0,0,1-5.766.37,21.788,21.788,0,0,1-5.444-.911.514.514,0,0,0-.066-.02.88.88,0,0,0-.108-.027,1.076,1.076,0,0,0-.7.129c-.048.028-.1.054-.152.079a3.986,3.986,0,0,1-1.32.329l-.178.016c-.078.007-.158.014-.239.019a15.061,15.061,0,0,1-6.083-.635,9.346,9.346,0,0,1-.887-.372,2.028,2.028,0,0,0-.949-.2,1.906,1.906,0,0,0-.777.193,4.544,4.544,0,0,1-4.152-.054,8.92,8.92,0,0,0-2.235-1.062,20.668,20.668,0,0,0-2.422-.381c-.064-.011-.126-.023-.19-.036l-.048-.011a3.091,3.091,0,0,1-.831-.3,1.9,1.9,0,0,1-.168-.095.271.271,0,0,0-.217-.029,4.458,4.458,0,0,1-2.205.131,24.111,24.111,0,0,0-2.746-.386c-1.556-.224-3.283.007-4.733-.7-.861-.421-1.174-1.2-1.719-1.871a11.313,11.313,0,0,0-1.106-.955.253.253,0,0,0-.248-.048.544.544,0,0,1-.154.023,2.967,2.967,0,0,1-2.249-1.421c-.547-.744-1.032-1.529-1.508-2.307A8.5,8.5,0,0,1,.036,12.8,3.422,3.422,0,0,1,1.03,9.784l.024-.021c.026-.023.052-.045.08-.066s.036-.028.054-.041a2.736,2.736,0,0,1,.5-.313.216.216,0,0,0,.128-.193.21.21,0,0,0-.088-.168.165.165,0,0,0-.038-.025.568.568,0,0,1-.114-.075.938.938,0,0,1-.212-.241.978.978,0,0,1-.152-.664,1.908,1.908,0,0,1,.853-1.014,33,33,0,0,1,4.451-2.34,26.04,26.04,0,0,1,5.42-1.767,7.209,7.209,0,0,1,2.866.064A3.789,3.789,0,0,0,17.75,2.46a10.517,10.517,0,0,1,3.611-1.4A28.688,28.688,0,0,1,27.671.743a13.248,13.248,0,0,1,3.812.5,1.772,1.772,0,0,0,.385.08c.034,0,.068,0,.1,0a.212.212,0,0,0,.032,0l.054,0h.008a.267.267,0,0,0,.04,0,1.51,1.51,0,0,0,.8-.27A5.887,5.887,0,0,1,35.554.036,13.039,13.039,0,0,1,39.318.38a18.613,18.613,0,0,1,2.874.744.1.1,0,0,0,.02.007l.046.016.08.027h0c.068.021.136.041.206.057a3.327,3.327,0,0,0,.581.1l.006,0,.048,0c.034,0,.066,0,.1,0a3.355,3.355,0,0,0,.887-.084,5.457,5.457,0,0,1,1.14-.111,52.191,52.191,0,0,1,12.5,1.344,2.2,2.2,0,0,1,1.027.524c.032.029.06.059.088.088a1.989,1.989,0,0,0,.9.54l.074.02c.076.02.154.036.234.048l.016,0a.965.965,0,0,0,.124.014,2.368,2.368,0,0,0,.595-.016c3.337-.5,7.787-.479,9.6,1.714a3.188,3.188,0,0,1,.3.431,1.946,1.946,0,0,0,.727.709c.03.018.06.034.092.05a2.313,2.313,0,0,0,.429.165l.124.03c.064.014.128.025.194.034a8.062,8.062,0,0,1,4,1.567c1.386,1.113,2.482,2.782,2,4.39a2.889,2.889,0,0,1-.212.515.194.194,0,0,0,.058.24.324.324,0,0,0,.04.029.051.051,0,0,1,.014.009,3.224,3.224,0,0,1,1.755,2.338A3.219,3.219,0,0,1,79.1,18.3" transform="translate(0 0)" fill="#763a1c"/>
    <path id="패스_53157" data-name="패스 53157" d="M40.891,49.519a7.775,7.775,0,0,0-.176-1.347,5.733,5.733,0,0,0-.441-1.263,4.358,4.358,0,0,0-.33-.558,4.528,4.528,0,0,0-.383-.47c-.136-.148-.272-.274-.387-.381-.014-.011-.032-.029-.042-.037l-.042-.039-.018-.018-.018-.02-.036-.036c-.024-.028-.044-.048-.068-.073s-.042-.052-.064-.079c-.05-.063-.1-.136-.156-.213-.038-.054-.078-.111-.118-.17-.024-.032-.052-.073-.076-.109l-.036-.057-.042-.057-.08-.115c-.03-.047-.064-.089-.1-.132s-.074-.091-.114-.136a4.3,4.3,0,0,0-.855-.733,4.768,4.768,0,0,0-1.186-.551,5.531,5.531,0,0,0-.627-.155c-.1-.02-.2-.037-.3-.05s-.22-.025-.331-.034a5.612,5.612,0,0,0-1.256.073,6.907,6.907,0,0,0-1.164.338c-.186.068-.368.145-.545.229-.09.039-.178.082-.264.127-.042.021-.082.045-.126.068a.413.413,0,0,0-.05.03h-.008v0l-.006,0-.01.007v0a.011.011,0,0,1-.006,0l-.006,0c-.026,0,.034.055.028.028l.008,0v0h0l0,0,.01-.005.066-.027c.046-.022.092-.039.136-.056.09-.036.182-.068.274-.1l.28-.088c.094-.03.19-.057.282-.082a7.544,7.544,0,0,1,1.158-.224c.389-.052.839.335,1.228.368,0,0,.012,0,.018,0,.377.047.7-.176,1.046-.038.088.034.176.07.262.113l.128.059.124.068c.036.021.08.043.122.066l.118.075a2.4,2.4,0,0,1,.228.154,3.208,3.208,0,0,1,.739.73l.072.1.074.116.036.058c.012.019.026.037.038.061.024.039.052.082.076.123s.052.08.076.125.056.088.084.131l.044.066.044.066.044.066.046.066c.038.052.066.091.1.134s.068.088.106.138l.052.065.028.032.026.03.052.059c.014.018.032.037.052.059.132.15.247.282.349.419a3.891,3.891,0,0,1,.284.44,3.4,3.4,0,0,1,.224.474,5.132,5.132,0,0,1,.28,1.054,7.068,7.068,0,0,1,.09,1.1c0,.091,0,.179,0,.27s-.01.177-.014.263l-.026.272c-.01.1-.02.2-.036.281a4.438,4.438,0,0,1-.264,1.027,3.075,3.075,0,0,1-.228.463c-.044.077-.094.147-.142.215-.026.037-.054.07-.082.1l-.04.05a0,0,0,0,1,0,0c.054.034.11.066.168.095a3.087,3.087,0,0,0,.831.3l0-.005a3.633,3.633,0,0,0,.355-.63,4.814,4.814,0,0,0,.368-1.4c.018-.122.022-.226.032-.338s.016-.233.02-.347,0-.233,0-.351-.006-.227-.012-.342m-9.44-5.937a.012.012,0,0,1-.012-.011v0s.008.007.012.011Z" transform="translate(-21.368 -28.886)" fill="#602913"/>
    <path id="패스_53158" data-name="패스 53158" d="M64.9,47.1c0-.061,0-.122-.006-.181s-.008-.12-.012-.181a1.1,1.1,0,0,0-.018-.181c-.014-.12-.028-.232-.042-.359a8.99,8.99,0,0,0-.323-1.379l-.052-.163c-.022-.061-.042-.123-.066-.186l-.034-.093-.04-.1c-.028-.066-.056-.129-.09-.195s-.068-.134-.1-.2-.084-.138-.126-.206c-.02-.032-.04-.059-.058-.086,0-.007-.01-.013-.014-.02l-.04-.057-.034-.047c-.032-.039-.056-.071-.082-.1l-.088-.106c-.062-.071-.132-.141-.2-.211-.052-.048-.106-.1-.162-.145l-.06-.05-.114-.09-.058-.045-.056-.039L62.9,42.6c-.04-.027-.076-.048-.112-.072-.14-.084-.3-.174-.435-.24-.062-.03-.122-.059-.182-.086q-.114-.054-.228-.1a7.892,7.892,0,0,0-.817-.292c-.264-.077-.537-.15-.809-.2a10.088,10.088,0,0,0-1.645-.2,12.489,12.489,0,0,0-1.6.043c-.13.016-.258.023-.386.039s-.255.029-.379.048-.26.034-.391.057l-.01,0c-.052.011-.106.02-.16.029-.082.014-.162.03-.236.047a11.57,11.57,0,0,0-1.536.428c-.252.091-.507.195-.765.315-.13.062-.262.127-.392.2-.066.037-.134.073-.2.116l-.1.062-.1.061c-.058.041-.124.084-.186.127s-.136.1-.2.152c-.086.068-.168.136-.244.208-.046.039-.09.08-.132.122-.076.075-.15.152-.218.227l.815.524.03-.03a.765.765,0,0,1,.07-.066,2.067,2.067,0,0,1,.164-.147c.04-.034.078-.064.12-.1s.1-.071.144-.105l.074-.052.068-.047c.046-.03.1-.061.144-.091.1-.063.209-.122.314-.179.216-.116.459-.229.7-.331a10.768,10.768,0,0,1,1.539-.506c.136-.03.256-.066.386-.089s.271-.056.407-.077.282-.045.423-.068.28-.036.419-.052a11.289,11.289,0,0,1,1.642-.064,9.052,9.052,0,0,1,1.588.206,7.359,7.359,0,0,1,.773.211,6.576,6.576,0,0,1,.725.276,5.741,5.741,0,0,1,.641.327c.02.015.048.032.066.043l.062.041.03.022.028.02.056.041.1.088c.034.03.066.061.1.093a2.752,2.752,0,0,1,.321.4A.077.077,0,0,1,63.4,44c.014.022.028.041.042.063.024.045.056.1.084.145l.042.073.04.077.074.157c.028.059.058.118.082.179a8.317,8.317,0,0,1,.491,1.447c.032.122.044.245.068.365a3.362,3.362,0,0,1,.06.365c.034.245.046.49.056.735s0,.492-.01.737-.032.492-.06.737c-.052.49-.126.979-.21,1.467s-.168.973-.242,1.454c-.038.241-.078.481-.138.725a3.512,3.512,0,0,1-.108.361c-.022.061-.044.122-.068.181-.01.023-.018.047-.03.072l0,.007v0l0,.011-.006.014a.007.007,0,0,0,0,0s0,0,0,0a.012.012,0,0,1,0,.007l0,0,0,.007c-.01.009,0,.013.008.013s.054-.011.04-.021,0-.005,0-.009v0l0,0v0l.008-.014c.016-.03.032-.061.046-.09q.045-.091.084-.183c.054-.122.1-.245.14-.367s.074-.245.106-.368.06-.243.09-.363c.122-.51.239-.98.349-1.44.114-.479.222-.963.306-1.447a11.549,11.549,0,0,0,.162-1.456c0-.12,0-.236.006-.363Zm-1.33,6.281,0,0a.029.029,0,0,1,.018-.005l0,0a.018.018,0,0,1-.018,0" transform="translate(-34.982 -28.017)" fill="#602913"/>
    <path id="패스_53159" data-name="패스 53159" d="M100.776,53.446c-.008-.131-.018-.247-.034-.368,0-.022-.006-.045-.01-.068s-.006-.05-.01-.077c-.01-.079-.024-.159-.038-.238l-.012-.047v-.016l-.016-.064-.068-.252c-.034-.12-.072-.241-.116-.36a6.636,6.636,0,0,0-.643-1.326,7.728,7.728,0,0,0-.859-1.127c-.162-.17-.325-.335-.495-.49s-.331-.29-.5-.424-.341-.261-.477-.37c-.016-.014-.038-.03-.052-.041l-.048-.038-.024-.019-.022-.018-.044-.039c-.032-.027-.054-.048-.082-.075s-.052-.054-.08-.08c-.106-.113-.216-.252-.335-.4-.026-.034-.06-.077-.088-.116-.014-.02-.032-.037-.046-.056l-.048-.061-.094-.12-.112-.138a5.6,5.6,0,0,0-1.662-1.352,5.913,5.913,0,0,0-.723-.329c-.058-.022-.114-.041-.172-.061a5.235,5.235,0,0,0-.559-.157,5.318,5.318,0,0,0-.755-.12,4.892,4.892,0,0,0-1.5.1,4.372,4.372,0,0,0-1.767.837c-.028.021-.056.043-.082.066-.084.068-.158.143-.237.213-.038.038-.07.077-.106.114a.509.509,0,0,0-.04.045l-.006,0v0l-.006.007L88.8,46.4h0l0,0,0,0h0l0,0,0,0c-.014.005,0,.014.018.018s.03,0,.022-.007l.006-.005v0l0,0,.008-.009c.02-.016.04-.036.058-.052.038-.034.076-.07.12-.1a2.82,2.82,0,0,1,.256-.191c.018-.013.036-.025.054-.039.072-.047.148-.091.223-.138.1-.05.19-.109.29-.154a4.548,4.548,0,0,1,1.294-.406,4.755,4.755,0,0,1,1.378,0,5.027,5.027,0,0,1,1.3.376c.1.045.2.089.3.141l.144.077.14.08c.046.027.118.071.162.1l.106.071c.088.059.174.12.255.183a4.584,4.584,0,0,1,.833.825c.026.037.054.073.08.111l.088.131.042.063.048.066c.032.045.066.089.1.132l.1.136c.038.048.072.1.106.143a.614.614,0,0,0,.058.073l.058.073c.018.027.04.052.06.077l.066.077c.048.055.092.105.136.154s.1.1.144.15l.076.073.036.036.034.034.072.068.07.063c.164.147.338.3.5.453s.3.283.443.433.266.3.395.453a7.09,7.09,0,0,1,.663,1,5.443,5.443,0,0,1,.453,1.077c.03.091.054.183.076.276.018.075.034.154.05.232l0,.011,0,.025c.012.095.032.188.038.279s.022.2.022.3a3.79,3.79,0,0,1-.12,1.1,3.606,3.606,0,0,1-.192.524,2.086,2.086,0,0,1-.132.256,1.206,1.206,0,0,1-.076.129l-.042.064-.038.061-.084.109a1.3,1.3,0,0,1-.1.122c-.022.027-.044.052-.066.077a1.906,1.906,0,0,1-.3.26c-.262.188-.791.563-1.324.941a3.986,3.986,0,0,0,1.32-.329c.052-.025.1-.05.152-.079a1.076,1.076,0,0,1,.7-.129.877.877,0,0,1,.108.027l.05-.048c.034-.036.072-.073.112-.111s.08-.088.122-.133l.058-.07a.639.639,0,0,0,.052-.066c.032-.039.068-.088.1-.136.074-.1.128-.2.2-.3a3.878,3.878,0,0,0,.3-.682,4.19,4.19,0,0,0,.2-1.5M88.824,46.405a.021.021,0,0,1-.016,0s0,0,0,0a.06.06,0,0,1,.018,0Z" transform="translate(-60.393 -30.441)" fill="#602913"/>
    <path id="패스_53160" data-name="패스 53160" d="M120.595,40.281v-.027c0-.093-.008-.184-.018-.277l-.02-.14c-.008-.048-.016-.1-.028-.147a2.776,2.776,0,0,0-.074-.293c-.032-.1-.068-.2-.108-.3s-.092-.206-.144-.3c-.024-.05-.056-.1-.086-.156l-.1-.154c-.032-.05-.07-.1-.11-.154l-.118-.154c-.084-.1-.178-.2-.274-.3s-.2-.186-.3-.268l-.156-.122-.08-.057-.078-.054-.16-.1c-.054-.034-.1-.061-.154-.091-.146-.084-.288-.155-.425-.222-.036-.018-.072-.034-.106-.05-.208-.1-.406-.176-.6-.249-.352-.131-.707-.242-1.064-.34-.338-.095-.685-.181-1.032-.261a18.751,18.751,0,0,0-2.113-.358,15.475,15.475,0,0,0-2.109-.095c-.174.009-.344.007-.515.023s-.337.021-.5.041-.346.037-.519.063-.376.066-.541.1-.342.075-.513.123l-.177.056-.068.021-.262.082a8.177,8.177,0,0,0-.972.422,8.683,8.683,0,0,0-.927.553c-.156.111-.311.224-.459.344-.08.061-.15.127-.232.195-.038.036-.078.068-.114.106l-.1.1c-.072.068-.138.138-.2.208s-.15.163-.22.249a5.072,5.072,0,0,0-.385.528c-.024.036-.046.071-.066.107-.052.084-.1.17-.142.252l.9.354c.01-.018.018-.032.028-.048.034-.057.07-.114.106-.168s.08-.12.122-.175.08-.1.124-.159.1-.12.152-.177l.078-.088c.024-.027.05-.052.076-.079.048-.048.1-.1.158-.157.118-.106.234-.211.358-.311a7.9,7.9,0,0,1,.829-.587,7.159,7.159,0,0,1,1.925-.841c.18-.047.342-.084.515-.118s.365-.066.545-.09.379-.048.571-.063.381-.028.571-.034a14.316,14.316,0,0,1,2.254.1,18.593,18.593,0,0,1,2.175.388c.357.082.707.175,1.051.277a10.155,10.155,0,0,1,.973.344,5.915,5.915,0,0,1,.851.431l.088.057.082.056.04.028.036.029.074.057c.048.039.092.079.138.118s.088.084.13.133a2.911,2.911,0,0,1,.469.685c.032.065.064.134.092.2l.04.1.038.111c.024.073.044.147.064.22s.04.172.054.256a3.106,3.106,0,0,1,.006,1.009,3.2,3.2,0,0,1-.331.936,5.084,5.084,0,0,1-.653.923,6.076,6.076,0,0,1-.681.664,8.283,8.283,0,0,1-.831.678c-.146.106-.291.213-.443.31s-.3.2-.457.292a12.444,12.444,0,0,1-1.947.971,11.567,11.567,0,0,1-2.111.613l-.547.088c-.182.019-.366.045-.551.061-.054,0-.11.005-.164.009-.13.009-.26.02-.391.023-.09,0-.18.005-.276.007l-.108,0-.012,0,0,0-.016,0h-.022l0,0h-.006l-.01,0h-.014c-.008,0-.012,0-.014,0l-.006,0,0,.005c.008.016.048.045.052.027h.05l.138,0c.1,0,.192.005.287.009.12,0,.236,0,.352-.007.074,0,.146,0,.218,0,.19-.014.382-.023.571-.039s.376-.041.565-.072A11.705,11.705,0,0,0,114.758,46a12.991,12.991,0,0,0,2.005-.911,11.866,11.866,0,0,0,1.77-1.2l.232-.193c.058-.047.116-.095.174-.143s.128-.118.19-.181.124-.122.186-.184c.04-.045.084-.091.128-.138l.048-.052c.058-.065.112-.131.168-.2.108-.131.208-.272.3-.413a3.785,3.785,0,0,0,.5-1.063,3.286,3.286,0,0,0,.134-.826c0-.071,0-.145,0-.216m-10.187,6.366s-.016-.006-.016-.014a.007.007,0,0,0,0,0,.088.088,0,0,1,.016.014Z" transform="translate(-70.884 -24.096)" fill="#602913"/>
    <path id="패스_53161" data-name="패스 53161" d="M157.206,63.534c0-.075-.01-.15-.018-.224a6.3,6.3,0,0,0-.172-.873l-.028-.1-.032-.12-.02-.059-.022-.063c-.016-.039-.03-.08-.048-.123l-.06-.125c-.024-.045-.046-.086-.07-.127a.544.544,0,0,0-.04-.064l-.044-.064-.046-.065-.05-.061c-.038-.045-.078-.082-.116-.122s-.082-.077-.124-.113l-.068-.052-.032-.023-.032-.022-.066-.043c-.018-.014-.042-.028-.062-.041-.174-.1-.326-.174-.475-.245s-.294-.138-.445-.2-.285-.127-.431-.186l-.845-.367c-.276-.123-.553-.245-.815-.372-.064-.03-.126-.064-.192-.093l-.188-.1c-.062-.037-.128-.071-.192-.1l-.2-.109c-.21-.114-.473-.254-.787-.424q-.192-.1-.415-.218l-.226-.109c-.04-.02-.08-.037-.122-.056l-.062-.027-.062-.025c-.036-.014-.078-.032-.118-.047l-.1-.037a.234.234,0,0,1-.04-.015c-.092-.034-.188-.059-.28-.084-.064-.018-.124-.032-.18-.048l-.178.793-.016.073.028.007c.064.021.128.043.186.066l.09.034c.032.014.068.028.1.041l.05.023.046.021c.028.015.062.029.094.043.068.032.134.063.2.1.134.068.274.136.415.213.28.14.567.292.859.426.082.041.14.07.21.1s.148.068.22.1l.228.1c.078.03.153.068.228.1.307.125.605.247.908.358l.9.338c.142.052.29.109.453.166.146.054.29.109.435.17s.284.116.4.173a.284.284,0,0,1,.04.023l.04.022.036.021.032.022a.749.749,0,0,1,.064.05c.02.016.038.034.058.052a1.375,1.375,0,0,1,.214.293c.014.025.032.059.046.086l.022.047.022.047.038.1c.016.036.03.073.044.109a5.715,5.715,0,0,1,.266.841,2.641,2.641,0,0,1,.058.8,1.884,1.884,0,0,1-.068.383,1.543,1.543,0,0,1-.142.358,1.61,1.61,0,0,1-.551.6,3.841,3.841,0,0,1-.843.4l-.206.068c.062.006.124.013.186.022s.1.012.154.018a3.907,3.907,0,0,0,.863-.32,1.992,1.992,0,0,0,.713-.63,2.213,2.213,0,0,0,.335-.836c.018-.073.022-.148.034-.22l.012-.111c0-.039,0-.075.006-.112s0-.075,0-.111Z" transform="translate(-101.815 -39.378)" fill="#602913"/>
    <path id="패스_53162" data-name="패스 53162" d="M175.143,11.6a.843.843,0,0,0-.034-.122l-.124-.015-.016,0s0,.005,0,.009c0,.037,0,.069,0,.1a1.042,1.042,0,0,1-.114.413,1.474,1.474,0,0,1-.26.376,1.875,1.875,0,0,1-.371.3c-.036.021-.07.045-.106.063l-.056.028-.056.027-.06.023-.056.027c-.04.015-.082.029-.122.039a1.794,1.794,0,0,1-.523.082h-.068l-.078,0-.042,0h-.118l-.082.007-.084.011-.042.007-.04.011a.306.306,0,0,0-.042.011l-.038.015c-.026.011-.05.023-.076.036s-.046.032-.066.048l-.046.039-.012.014-.026.03c-.008.009-.014.02-.022.029a2.379,2.379,0,0,0-.138.229l-.124.217c-.04.068-.086.134-.132.2a2.438,2.438,0,0,1-.312.352,2.014,2.014,0,0,1-.379.276c-.034.018-.07.032-.1.05s-.074.028-.108.043l-.116.034c-.042.012-.086.027-.124.036a2.948,2.948,0,0,1-.5.082c-.088.007-.178.013-.272.016l-.144.009-.076,0-.036,0-.036,0-.07.007-.078.009-.148.032c-.026.005-.309.106-.485.168l-.14.048,1.052.671.016,0c.04-.007.082-.013.12-.016l.06-.005.072-.005.068,0c.016,0,.034,0,.05,0h0a.044.044,0,0,1,.016,0l.146-.005c.1-.005.2-.013.306-.025a2.793,2.793,0,0,0,.6-.131,1.419,1.419,0,0,0,.136-.054c.048-.018.1-.037.14-.055s.086-.047.134-.072a1.183,1.183,0,0,0,.126-.079,2.2,2.2,0,0,0,.423-.381,2.756,2.756,0,0,0,.317-.451,2.7,2.7,0,0,0,.124-.245l.1-.247a2.351,2.351,0,0,1,.1-.22c0-.007.008-.016.012-.021l.012-.02.006-.011.006-.009.014-.018.03-.029c.012-.009.022-.018.034-.025a.7.7,0,0,1,.208-.066l.066-.011.032,0,.036,0,.072-.007.08-.011a1.985,1.985,0,0,0,.583-.179,1.907,1.907,0,0,0,.461-.316,1.845,1.845,0,0,0,.338-.41,1.6,1.6,0,0,0,.19-.471,1.159,1.159,0,0,0,.012-.49" transform="translate(-114.843 -7.758)" fill="#602913"/>
    <path id="패스_53163" data-name="패스 53163" d="M132.721,7.669l0,0h0l0,0-.018-.011-.032-.021-.062-.052a.76.76,0,0,1-.054-.057c-.016-.021-.034-.041-.048-.063a1,1,0,0,1-.1-.15c-.022-.041-.042-.082-.062-.123a1.3,1.3,0,0,1-.09-.3,1.007,1.007,0,0,1-.02-.311.558.558,0,0,1,.008-.08l.006-.039.008-.039a.328.328,0,0,1,.01-.041l.01-.039c.008-.025.016-.052.026-.079a1.112,1.112,0,0,1,.18-.313l.032-.039.038-.041.018-.021.018-.023a.268.268,0,0,1,.036-.047l.032-.045a.392.392,0,0,1,.026-.05.12.12,0,0,0,.01-.023l.01-.025a.108.108,0,0,0,.008-.025l0-.027a.436.436,0,0,0,0-.05.364.364,0,0,0-.012-.048l-.01-.025-.006-.013-.006-.011-.014-.021a.155.155,0,0,0-.016-.022,1.77,1.77,0,0,0-.138-.143l-.136-.133a1.293,1.293,0,0,1-.118-.132,1.464,1.464,0,0,1-.18-.274.811.811,0,0,1-.084-.284c0-.023,0-.047,0-.07s0-.048.006-.07l.016-.071c.006-.027.012-.054.018-.077a1.128,1.128,0,0,1,.132-.284,1.163,1.163,0,0,1,.094-.142l.008-.011-.006,0-.916-.2a.039.039,0,0,0-.008.011l-.054.079c-.034.057-.072.116-.1.177a1.228,1.228,0,0,0-.126.368c-.006.032-.006.059-.01.089s0,.065-.006.1,0,.062.008.093.01.063.018.093a1.125,1.125,0,0,0,.162.345,1.945,1.945,0,0,0,.263.31c.052.048.106.1.162.143l.17.131c.058.043.112.084.152.118,0,.005.01.009.014.014l.01.013.006.005.006.009.008.013a.242.242,0,0,1,.012.023.136.136,0,0,1,.006.027.252.252,0,0,1-.032.131.367.367,0,0,0-.02.039l-.01.02-.016.019-.024.039-.028.048a1.03,1.03,0,0,0-.124.361.979.979,0,0,0,.012.342,1.565,1.565,0,0,0,.046.161,1.257,1.257,0,0,0,.068.159,1.585,1.585,0,0,0,.192.29,1.413,1.413,0,0,0,.116.125,1.429,1.429,0,0,0,.152.127.771.771,0,0,0,.158.1l.086.041.048.018.02.005v0h.006l0,0h.006c0,.009.056-.03.028-.018m-.018.007-.008.005a.046.046,0,0,0,.012-.007Z" transform="translate(-89.131 -2.368)" fill="#602913"/>
    <path id="패스_53164" data-name="패스 53164" d="M159.96,25.226a3.217,3.217,0,0,0-.284-.5c-.106-.152-.222-.3-.33-.43l-.327-.381-.331-.368c-.443-.485-.889-.941-1.34-1.376q-.34-.328-.679-.639c-.222-.209-.471-.428-.717-.617s-.507-.372-.769-.538c-.054-.034-.106-.066-.16-.1h0c-.2-.122-.4-.236-.609-.345-.244-.129-.483-.241-.689-.34l-.042-.02-.08-.037-.078-.036-.038-.018-.034-.018-.07-.034c-.05-.027-.092-.047-.138-.072s-.09-.048-.138-.073l-.629-.356c-.054-.03-.118-.066-.178-.1l-.09-.047-.094-.05c-.064-.03-.128-.064-.194-.093l-.118-.052h0l-.11-.043a3.633,3.633,0,0,0-2.055-.206,3.337,3.337,0,0,0-1.026.4,3.631,3.631,0,0,0-.759.58l-.018.018a4.519,4.519,0,0,0-.609.753,4.691,4.691,0,0,0-.421.83,5.577,5.577,0,0,0-.376,1.73,6.786,6.786,0,0,0,.116,1.694,6.384,6.384,0,0,0,.208.8l.012.038c.036.118.082.232.124.347.024.063.052.125.08.186.01.023.02.047.032.071l0,.009h0l.006.013.006.012a.006.006,0,0,0,0,0s0,0,0,0a.036.036,0,0,0,0,.009h0l0,0,0,.007c0,.037.054-.039.026-.036,0,0,0-.005,0-.009v0l0,0v0l-.008-.016c-.01-.032-.022-.064-.034-.095-.02-.063-.046-.127-.064-.193-.024-.082-.048-.166-.07-.25-.012-.048-.026-.1-.036-.146-.034-.134-.06-.268-.086-.4s-.042-.272-.062-.41a6.9,6.9,0,0,1,0-1.662A5.415,5.415,0,0,1,147.146,21a4.24,4.24,0,0,1,.982-1.369,4.086,4.086,0,0,1,.328-.27q.084-.062.174-.118l.182-.107c.062-.034.124-.063.186-.095s.128-.054.192-.08a3.109,3.109,0,0,1,.391-.118,2.773,2.773,0,0,1,1.51.1l.164.063.184.08.09.045.064.029,0,0,.03.014.188.1c.066.034.13.071.194.107s.138.075.2.116c.04.021.072.041.108.061l.108.062c.04.025.074.045.112.066s.076.045.114.068l.239.139c.08.047.16.091.242.14l.12.068.06.034.058.032.116.066.11.062c.294.165.549.313.785.462s.467.306.693.472.425.335.627.515c.4.369.805.773,1.192,1.168s.763.805,1.112,1.211c.086.1.17.2.256.3s.164.2.244.3.164.211.239.315a2.832,2.832,0,0,1,.208.334,1.065,1.065,0,0,1,.15.632.683.683,0,0,1-.317.469,2.507,2.507,0,0,1-.679.3l-.437.134-.238.071-.122.039-.114.036-.228.073-.256.084c-.174.059-.342.12-.507.179a2.738,2.738,0,0,0-.312.181.752.752,0,0,1-.122.065s1.286.431,1.354.41l.108-.032.1-.03.2-.061.431-.125c.11-.034.226-.066.344-.1a5.414,5.414,0,0,0,.621-.224,2.706,2.706,0,0,0,.541-.313,1.954,1.954,0,0,0,.258-.238c.022-.025.046-.052.068-.08a1.379,1.379,0,0,0,.148-.224,1.448,1.448,0,0,0,.17-.726v-.013a1.831,1.831,0,0,0-.162-.662m-12.933.574h0a.021.021,0,0,1-.008.016.008.008,0,0,0-.006,0,.111.111,0,0,1,.01-.014" transform="translate(-99.592 -12.369)" fill="#602913"/>
    <path id="패스_53165" data-name="패스 53165" d="M169.039,52.778l0-.007v0l0,0v0l0-.013c-.006-.025-.012-.048-.018-.071-.012-.048-.022-.1-.034-.143-.024-.1-.048-.191-.076-.288s-.058-.19-.09-.283-.066-.186-.1-.279a5.589,5.589,0,0,0-.557-1.05,7.459,7.459,0,0,0-.755-.925,8.846,8.846,0,0,0-.9-.807c-.074-.066-.161-.122-.239-.184-.038-.03-.078-.063-.118-.091l-.122-.088-.122-.088c-.04-.03-.082-.057-.124-.086l-.246-.168c-.331-.222-.669-.428-.989-.632l-.118-.073-.138-.088-.072-.039-.076-.043c-.052-.027-.106-.056-.154-.082s-.112-.052-.168-.077-.12-.05-.18-.075a.846.846,0,0,0-.094-.036l-.05-.016-.046-.016c-.032-.013-.066-.022-.1-.032l-.1-.029c-.07-.018-.144-.034-.216-.05s-.148-.025-.22-.034l-.11-.013-.054-.005-.052,0-.1-.007c-.032,0-.068,0-.1,0-.264-.005-.489.005-.7.018s-.407.03-.609.052l-.03,0c-.2.019-.407.036-.609.052-.407.043-.813.082-1.214.131l-1.184.141-.288.032-.282.032c-.1.007-.2.02-.294.032l-.309.037c-.393.056-.785.113-1.188.19-.2.043-.407.084-.617.141-.108.03-.22.057-.328.091l-.17.059-.082.029-.006,0-.082.03c-.054.022-.106.045-.16.068l-.182.08c-.114.05.19.773.3.862.008.007.016.011.022.007l.11-.052a1.175,1.175,0,0,1,.13-.056l.066-.025.06-.023.124-.047c.088-.03.18-.054.269-.082s.186-.054.284-.077.192-.052.295-.071c.4-.095.813-.168,1.232-.241.108-.018.2-.037.3-.052s.212-.034.318-.048l.332-.05c.108-.018.212-.032.327-.05l1.284-.2c.421-.059.845-.123,1.262-.17l.629-.086c.2-.027.4-.048.607-.068s.4-.034.565-.036h.15l.028,0,.054,0c.04.005.07.007.108.013s.07.011.108.018a2.814,2.814,0,0,1,.479.15l.126.056.064.027.066.03.128.066.148.073c.387.2.763.4,1.128.6s.717.422,1.051.651l.247.174.24.182c.156.123.309.249.455.381a7.451,7.451,0,0,1,.809.85,5.712,5.712,0,0,1,.625.977c.086.174.166.349.238.531.036.089.07.181.1.272.016.045.032.09.048.138.006.018.014.036.02.056v.005l0,0,0,.007,0,.005,0,.005,0,0a0,0,0,0,0,0,0v.007h0l0,.007c-.006.027.06-.023.032-.023m-.028.005h0a.049.049,0,0,1,.01-.009l0,0,0,0s0,.009-.012.009" transform="translate(-104.769 -31.704)" fill="#602913"/>
    <path id="패스_53166" data-name="패스 53166" d="M198.711,20.954a1.064,1.064,0,0,1,.032.195c.008.084.022.168.024.254a3.562,3.562,0,0,1-.11,1.036,4.135,4.135,0,0,1-.4.987,4.355,4.355,0,0,1-.641.862c-.064.065-.122.122-.192.191l-.1.088-.1.084a.916.916,0,0,1-.106.082l-.11.079a2.314,2.314,0,0,1-.22.143,3.879,3.879,0,0,1-.948.408l-.118.034-.138.032-.07.016-.07.017c-.05.011-.1.026-.146.036s-.1.027-.15.037l-.154.045c-.03.009-.054.016-.078.025l-.082.025c-.026.007-.052.018-.082.028l-.082.029c-.058.02-.112.047-.17.07s-.11.048-.164.077l-.078.039-.042.02-.036.021-.076.043-.07.042c-.188.109-.344.211-.5.306s-.314.184-.476.272-.315.166-.481.24c-.337.139-.681.272-1.028.391a7.731,7.731,0,0,1-1.058.3l-.262.048c-.084.015-.174.028-.26.041l-.272.032-.285.034c-.365.039-.729.058-1.1.062-.186,0-.371,0-.565,0l-.3-.005-.156,0-.054,0h-.1l-.148,0-.168,0-.334.005-.208.007.092.925h.036l.26.006.128,0,.128.005a.078.078,0,0,0,.02,0l.074,0,.068,0c.042,0,.092,0,.14.005l.3.011c.2.005.419.007.633,0a11.3,11.3,0,0,0,1.314-.1c.11-.013.21-.031.314-.047s.222-.034.328-.052l.337-.068c.058-.012.112-.025.168-.039l.16-.036.32-.082.317-.1c.056-.02.114-.039.17-.061.15-.054.3-.109.441-.164.2-.079.392-.159.585-.24s.376-.17.557-.27.355-.2.523-.306.322-.213.476-.322.31-.226.421-.3c.014-.01.034-.023.044-.032l.046-.028.022-.014.022-.015.042-.025.086-.046c.028-.015.06-.029.09-.045a3.975,3.975,0,0,1,.441-.158l.126-.037.064-.02.066-.02.134-.039c.052-.016.1-.033.152-.05a4.753,4.753,0,0,0,1.138-.564,4.2,4.2,0,0,0,.921-.84c.068-.077.126-.159.186-.242s.118-.163.166-.248.1-.168.15-.256.084-.172.128-.264a4.329,4.329,0,0,0,.325-1.093,3.734,3.734,0,0,0,0-1.088c-.028-.133-.054-.261-.092-.386Z" transform="translate(-126.704 -14.181)" fill="#602913"/>
    <path id="패스_53167" data-name="패스 53167" d="M226.677,58.255c-.01.023-.02.048-.032.072l-.05.071-.03.045,1.051-.163a1.362,1.362,0,0,0-.036-.374,1.825,1.825,0,0,0-.176-.442,2.3,2.3,0,0,0-.132-.206c-.046-.063-.094-.123-.148-.184s-.1-.115-.134-.159a.11.11,0,0,1-.012-.018l-.01-.016-.006-.007,0-.007-.008-.018c0-.013-.006-.018-.01-.028a.2.2,0,0,1-.006-.032.324.324,0,0,1,.042-.147A.32.32,0,0,1,227,56.6l.01-.021.014-.022.026-.046.028-.052a1.033,1.033,0,0,0,.112-.424,1.17,1.17,0,0,0-.054-.408,1.347,1.347,0,0,0-.076-.192,1.77,1.77,0,0,0-.1-.179,1.817,1.817,0,0,0-.274-.318,1.622,1.622,0,0,0-.349-.25,2.109,2.109,0,0,0-.2-.1l-.1-.043-.054-.016a.136.136,0,0,1-.024-.007h0l0,0h0l0,0,0,0,0,0c0-.007-.026.02-.03.025l0,0h0v0h0l0,0a.078.078,0,0,1,.02.012.416.416,0,0,1,.042.027c.028.018.054.036.08.056s.05.043.076.063l.072.062a1.422,1.422,0,0,1,.244.286,1.389,1.389,0,0,1,.166.327,1.328,1.328,0,0,1,.076.351c0,.03,0,.059,0,.089v.047l0,.045a.43.43,0,0,1-.006.045l0,.045c-.008.03-.014.061-.022.09a.975.975,0,0,1-.172.342l-.032.039-.036.045-.02.023-.016.022c-.014.016-.026.032-.038.046l-.032.047c-.012.018-.02.032-.03.048a.062.062,0,0,0-.012.025l-.012.025a.117.117,0,0,0-.008.027l-.01.025a.441.441,0,0,0,0,.052c0,.016,0,.027.008.054l.008.025,0,.013.006.013.01.025a.244.244,0,0,0,.014.023c.036.061.082.116.12.17l.11.163a1.2,1.2,0,0,1,.088.165,1.127,1.127,0,0,1,.1.34.8.8,0,0,1-.014.333c-.006.027-.014.052-.022.079m-.743-3.723s0,0,.006-.007l0,0-.01.009" transform="translate(-153.668 -36.896)" fill="#602913"/>
    <path id="패스_53168" data-name="패스 53168" d="M213.652,41.278a.281.281,0,0,1-.04-.029c-.034.075-.086.147-.128.22a2.054,2.054,0,0,1-.156.218,2.247,2.247,0,0,1-.176.209,4.712,4.712,0,0,1-.875.724,6.906,6.906,0,0,1-1.04.551,9.456,9.456,0,0,1-1.112.4c-.094.027-.182.052-.284.079l-.142.037-.142.034-.142.032-.142.032c-.094.02-.18.036-.282.056a7.151,7.151,0,0,1-1.1.127l-.13,0-.15,0h-.074l-.078,0-.158,0-.162.007-.17.009c-.032,0-.06.006-.086.007l-.09.007-.09.011-.092.011c-.06.009-.124.022-.186.03s-.126.023-.186.037l-.09.022-.044.011-.042.011-.086.023-.08.023-.569.165c-.176.045-.354.088-.535.118a4.739,4.739,0,0,1-.529.061,4.327,4.327,0,0,1-.545-.009,3.622,3.622,0,0,1-.537-.079,3.515,3.515,0,0,1-.989-.4c-.076-.043-.144-.093-.218-.139s-.134-.1-.2-.154-.13-.113-.19-.172-.134-.129-.19-.19a4.449,4.449,0,0,1-.6-.812c-.086-.143-.164-.3-.242-.451l-.116-.243c-.018-.043-.038-.086-.058-.129l-.03-.066-.028-.061-.006-.012c-.014-.036-.03-.073-.046-.111s-.042-.1-.06-.138c-.044-.1-.082-.189-.118-.272-.026-.061-.05-.118-.074-.172l-.9.352.012.032c.028.075.054.148.086.232.012.034.026.073.042.113s.032.09.048.131l.026.064.02.05,0,.011c.014.038.032.08.05.123l.112.261c.08.177.172.36.274.54a5.2,5.2,0,0,0,.793,1.061c.08.088.162.157.244.234s.178.159.274.234.2.148.309.22.214.134.328.192a4.449,4.449,0,0,0,1.424.47c.122.018.242.032.363.039s.234.011.349.012a5,5,0,0,0,.685-.045,5.184,5.184,0,0,0,.641-.125c.2-.056.391-.113.577-.181s.36-.136.509-.19l.056-.02.052-.018.026-.011.024-.007.05-.016.1-.025.1-.023a4.177,4.177,0,0,1,.481-.057l.136-.011.068,0,.072-.005.144-.007.164-.012a8.287,8.287,0,0,0,1.284-.218,10.991,10.991,0,0,0,1.228-.374c.2-.073.4-.15.591-.236s.382-.174.567-.272a7.2,7.2,0,0,0,1.042-.66,4.451,4.451,0,0,0,.827-.826,2.645,2.645,0,0,0,.288-.467,2.112,2.112,0,0,0,.09-.206l-.014-.009" transform="translate(-135.434 -27.7)" fill="#602913"/>
    <path id="패스_53169" data-name="패스 53169" d="M198.01,66.263a.613.613,0,0,0-.028-.073.6.6,0,0,0-.032-.064.941.941,0,0,0-.072-.12,2.008,2.008,0,0,0-.164-.218,4.7,4.7,0,0,0-.357-.36,4.1,4.1,0,0,0-.865-.587c-.082-.043-.158-.075-.234-.111s-.17-.07-.248-.1-.178-.063-.266-.09-.176-.054-.264-.071a5.028,5.028,0,0,0-1.056-.129,5.611,5.611,0,0,0-1.007.072c-.162.03-.323.059-.479.1-.108.03-.214.059-.32.093a.05.05,0,0,1-.016,0l0,0a.084.084,0,0,0-.018.007c-.026.007-.054.018-.08.027l-.389.134-.042.013-.04.013-.02.005-.018.006-.04.009c-.028.005-.046.009-.072.016l-.078.011a2.42,2.42,0,0,1-.357,0c-.032,0-.07,0-.1-.005l-.052,0-.054,0-.108-.009-.126,0a3.061,3.061,0,0,0-.988.152,1.954,1.954,0,0,0-.873.549,1.767,1.767,0,0,0-.427.868,1.941,1.941,0,0,0,.066.887,1.7,1.7,0,0,0,.433.737,1.247,1.247,0,0,0,.342.238,1.649,1.649,0,0,0,.188.07.658.658,0,0,0,.1.021l.038.005a.041.041,0,0,0,.012,0l.008-.034c-.016,0-.032-.009-.044-.013l-.086-.034a1.065,1.065,0,0,1-.164-.088,1.742,1.742,0,0,1-.148-.116,1.116,1.116,0,0,1-.128-.139,1.517,1.517,0,0,1-.3-.7,1.731,1.731,0,0,1,.036-.773,1.441,1.441,0,0,1,.4-.66,1.5,1.5,0,0,1,.154-.122l.082-.056c.028-.014.058-.032.086-.047s.058-.028.088-.041.06-.025.09-.037a1.638,1.638,0,0,1,.186-.056,2.41,2.41,0,0,1,.779-.063l.09.009.106.014.054.007.054.009.11.014.114.015.118.011.06,0,.064,0c.02,0,.04,0,.062,0h.066c.042,0,.086,0,.132-.005s.088-.009.134-.016l.064-.011.032-.005.032-.007.062-.015.062-.012c.158-.034.295-.081.429-.111s.271-.064.409-.089.268-.041.4-.057a4.815,4.815,0,0,1,.833,0,4.109,4.109,0,0,1,.805.143c.064.016.124.043.186.063s.12.045.18.068l.178.088c.064.028.128.064.182.095a3.362,3.362,0,0,1,.631.443,3.065,3.065,0,0,1,.271.27,1.592,1.592,0,0,1,.128.143.558.558,0,0,1,.076.168c.014.09.028.175.042.254a.693.693,0,0,0,.134-.075,2.335,2.335,0,0,1,.365-.258,1.23,1.23,0,0,1,.224-.1l.209-.075a.62.62,0,0,0-.028-.088" transform="translate(-128.348 -43.541)" fill="#602913"/>
    <path id="패스_53170" data-name="패스 53170" d="M128.169,16.044l-.14-.15-.028-.03-.082-.088c-.032-.034-.062-.068-.1-.1l-.05-.048-.046-.047c-.028-.032-.062-.063-.094-.095-.068-.066-.138-.133-.21-.2a5.061,5.061,0,0,0-.493-.387,4.64,4.64,0,0,0-1.24-.6c-.116-.036-.222-.066-.336-.091s-.236-.052-.358-.073-.226-.03-.339-.043l.028.007a.977.977,0,0,0-.122-.012l.056,0c-.124-.007-.248-.014-.37-.013a5.171,5.171,0,0,0-1.386.2,6.088,6.088,0,0,0-.577.2c-.064.025-.128.052-.19.08-.142.063-.278.129-.413.2-.178.1-.35.2-.513.31s-.3.218-.447.331l-.387.316a.539.539,0,0,1-.044.034l-.04.032-.02.014-.02.015-.04.027-.078.052-.084.048a3.879,3.879,0,0,1-.414.182l-.118.045-.06.023-.064.023-.126.047-.144.057a5.146,5.146,0,0,0-.841.445.359.359,0,0,1-.044.031c-.06.041-.118.082-.176.125A4.868,4.868,0,0,0,116.8,18.2a4.464,4.464,0,0,0-.279.5,3.755,3.755,0,0,0-.2.528.132.132,0,0,1-.008.025c-.024.079-.048.159-.068.24s-.038.179-.052.268a2.924,2.924,0,0,0-.034.349,2.966,2.966,0,0,0,.048.708,2.643,2.643,0,0,0,.142.49c.022.056.046.107.072.161.01.023.02.045.032.068s.042.071.062.107c.01.012.018.027.028.041v.005h0l.006.005,0,.009a.007.007,0,0,0,0,0l0,0a.015.015,0,0,0,0,.005h0v0l0,0c0,.022.056-.028.03-.023l0-.005v0l0,0v0l-.006-.009c-.008-.016-.018-.036-.026-.054-.016-.036-.032-.073-.046-.113a.5.5,0,0,1-.02-.057,1.666,1.666,0,0,1-.054-.177,2.372,2.372,0,0,1-.05-.241c-.014-.082-.024-.163-.03-.247a3.212,3.212,0,0,1,.1-1,3.161,3.161,0,0,1,.168-.486,3.683,3.683,0,0,1,.228-.467,4.347,4.347,0,0,1,.633-.835c.062-.063.124-.125.19-.183l.1-.088.1-.086.1-.08.1-.079c.07-.05.14-.1.215-.148a4.2,4.2,0,0,1,.9-.447l.114-.039.132-.041.066-.02.068-.023.138-.045.142-.047c.05-.02.1-.036.148-.054l.074-.03.076-.03c.026-.009.052-.022.078-.032l.078-.034c.06-.03.106-.052.158-.077l.152-.086.074-.043.036-.023.034-.021.07-.045.064-.043c.146-.1.309-.213.457-.317s.288-.184.439-.272.3-.157.452-.229a5.056,5.056,0,0,1,.988-.322,4.16,4.16,0,0,1,1.038-.091c.086,0,.17.013.254.02l.018,0h0l.008,0,.214.036.248.057c.086.025.178.048.254.075a3.891,3.891,0,0,1,.893.431,4.628,4.628,0,0,1,.4.293c.066.057.132.111.2.168.032.03.066.061.1.091l.052.047.048.045c.028.029.062.059.092.09l.1.1.112.107.094.093c.048.045.09.086.13.125l.7-.624Zm-11.593,5.64h0a.011.011,0,0,1-.01.011h0a.05.05,0,0,1,.01-.011" transform="translate(-79.013 -9.525)" fill="#602913"/>
    <path id="패스_53171" data-name="패스 53171" d="M41.478,13.644a2.119,2.119,0,0,0-.066-.27,2.482,2.482,0,0,0-.09-.243,1.305,1.305,0,0,0-.126-.236.871.871,0,0,0-.078-.107c-.014-.016-.03-.032-.046-.048a.193.193,0,0,1-.018-.018l0,0,0,0-.006,0s-.018.032-.012.039l.03.05a1.1,1.1,0,0,1,.048.109c.014.038.026.077.038.116s.022.079.03.12a2.377,2.377,0,0,1,.046.494,2.573,2.573,0,0,1-.05.5,2.646,2.646,0,0,1-.136.48c-.018.037-.032.077-.05.114l-.028.057-.028.056c-.01.016-.02.034-.03.054l-.032.055c-.022.036-.044.072-.068.106a1.9,1.9,0,0,1-.345.379l-.05.041-.06.045-.03.023-.03.025c-.018.016-.04.034-.058.048l-.056.054c-.02.019-.036.037-.054.055a.193.193,0,0,0-.026.03l-.024.03a.4.4,0,0,0-.024.032l-.02.034a.572.572,0,0,0-.058.147l-.008.037,0,.018,0,.02,0,.036v.037c0,.1.01.179.016.258s.01.157.012.231a.961.961,0,0,1-.02.213,1.066,1.066,0,0,1-.172.41,1.164,1.164,0,0,1-.328.324c-.032.021-.068.039-.1.059s-.072.032-.106.048l-.116.039c-.042.013-.084.027-.122.036a2.077,2.077,0,0,1-.5.058c-.084,0-.17,0-.26-.011-.046,0-.092-.005-.138-.011l-.074-.005L38,17.8h-.034l-.07-.005-.076,0c-.036,0-.07,0-.1,0a.437.437,0,0,0-.046,0,7.074,7.074,0,0,0,.092.873h.018c.044,0,.086,0,.128,0l.064.005.074.005.038,0,.034,0,.072.005c.05.005.1.009.154.012.068.005.142.007.214.007.038,0,.076,0,.116,0a2.518,2.518,0,0,0,.7-.122c.06-.018.11-.041.164-.063a1.482,1.482,0,0,0,.168-.073,1.774,1.774,0,0,0,.166-.093c.052-.036.106-.07.154-.107a1.949,1.949,0,0,0,.473-.538,1.761,1.761,0,0,0,.215-.619,1.451,1.451,0,0,0,.008-.308c-.008-.095-.022-.188-.036-.279s-.034-.177-.042-.249c0-.009,0-.018,0-.025l0-.025v-.047c0-.018.006-.027.008-.041a.3.3,0,0,1,.012-.043.618.618,0,0,1,.116-.176l.042-.046.022-.023.024-.023.046-.048.054-.055a2.038,2.038,0,0,0,.327-.476,2.168,2.168,0,0,0,.177-.519c.018-.088.032-.177.042-.265.006-.061.01-.123.012-.186,0-.027,0-.054,0-.08a2.953,2.953,0,0,0-.048-.531" transform="translate(-25.621 -8.604)" fill="#602913"/>
    <path id="패스_53172" data-name="패스 53172" d="M19.016,30.731A7.824,7.824,0,0,0,18.7,30c-.064-.127-.128-.252-.2-.378-.036-.064-.074-.129-.112-.2l-.062-.1,0-.007-.056-.086c-.038-.059-.082-.123-.122-.184s-.1-.139-.15-.208c-.1-.136-.4-.316-.515-.44-.076-.082-.749.433-.749.433l.032.034c.078.084.152.168.218.252.034.041.064.082.1.127l.106.15.054.077.046.071c.028.045.062.1.094.148.062.106.124.213.182.32.12.222.238.462.342.7a4.649,4.649,0,0,1,.415,1.426,2.591,2.591,0,0,1,.008.324,1.769,1.769,0,0,1-.042.322l-.006.039v.005s0,0,0,.005-.03,0-.046,0l-.112.011L18,32.849l-.138.007c-.092.007-.18.016-.266.027a9.41,9.41,0,0,0-.986.175,13.6,13.6,0,0,0-1.775.553q-.421.164-.817.349c-.255.118-.5.245-.749.372l-.665.365-.072.041-.07.036-.034.018-.034.018-.066.034c-.048.022-.086.041-.13.063s-.088.039-.136.059c-.186.079-.4.159-.641.247-.058.022-.12.043-.18.066l-.09.036-.094.034-.186.075c-.072.029-.144.061-.215.093a4.76,4.76,0,0,0-.451.233l-.186.114c-.052.032-.1.064-.146.1-.016.025-.048,0-.072-.005l-.074-.025c-.048-.018-.094-.038-.138-.057l-.066-.031-.07-.036c-.052-.029-.1-.059-.154-.091a2.079,2.079,0,0,1-.847-1.208,3.878,3.878,0,0,1-.13-.753c-.02-.258-.018-.522-.014-.785a8.526,8.526,0,0,1,.174-1.56,7.265,7.265,0,0,1,.483-1.5,6.859,6.859,0,0,1,.374-.716c.066-.118.146-.227.22-.344.038-.054.076-.109.118-.166l.006-.011.038-.057.008-.005,0,0,.008-.011.008-.015s0,0,0,0l0,0,.006-.007,0,0v0l.006-.007c.032-.023-.068-.018-.048,0a.044.044,0,0,1-.006.009,0,0,0,0,1,0,0l0,0v0h0l-.01.015-.066.08-.016.02c-.04.048-.082.095-.118.145-.084.114-.172.224-.25.342s-.156.233-.228.352-.134.241-.2.361a7.617,7.617,0,0,0-.587,1.517,9.4,9.4,0,0,0-.266,1.571,5.518,5.518,0,0,0,.06,1.581,2.713,2.713,0,0,0,.11.388c.024.065.048.127.078.19s.058.123.09.186.068.122.108.179a1.819,1.819,0,0,0,.128.174,2.189,2.189,0,0,0,.306.311,2.366,2.366,0,0,0,.234.174c.042.028.084.052.126.077a.573.573,0,0,0,.064.036l.084.041a3.22,3.22,0,0,0,.344.138c.06.018.12.037.182.057l.094.028.046.015.042,0c.1-.075.209-.154.319-.231.052-.036.12-.08.164-.105l.108-.054L10.8,36.1l.182-.073.092-.034.1-.037.2-.071c.066-.027.138-.048.208-.073s.144-.054.218-.079l.114-.041.118-.043.118-.045.124-.047.252-.1c.084-.034.166-.07.252-.106l.124-.055.06-.027.058-.027.118-.054.112-.052c.294-.138.547-.261.793-.372s.5-.217.751-.316.495-.186.749-.27a11.888,11.888,0,0,1,1.566-.4,7.126,7.126,0,0,1,.8-.1c.064,0,.13-.005.194-.007l.236.009.467.022.116.007s.012,0,.018,0a.009.009,0,0,0,.008-.005l.012-.025.026-.048c.032-.064.064-.129.092-.195a2.4,2.4,0,0,0,.14-.388c0-.005,0-.009,0-.015a2.543,2.543,0,0,0,.078-.385,2.805,2.805,0,0,0,.024-.4,4.561,4.561,0,0,0-.3-1.51M9.735,28.577s0,0,0,0a.069.069,0,0,1-.02,0l0,0a.026.026,0,0,1,.02,0" transform="translate(-5.388 -19.212)" fill="#602913"/>
    <path id="패스_53173" data-name="패스 53173" d="M12.451,27.364c-.014.005-.03.009-.042.013l-.092.023c-.06.012-.122.025-.184.036s-.124.022-.186.03l-.186.027c-.25.034-.5.058-.753.07s-.5.016-.753.009-.5-.025-.741-.056c-.062-.009-.122-.018-.184-.028l-.09-.014-.088-.016c-.026-.005-.058-.011-.09-.018l-.09-.018c-.056-.014-.116-.027-.172-.043a3.721,3.721,0,0,1-.659-.232l-.076-.036-.084-.043-.044-.021-.046-.022L7.8,26.983l-.1-.039c-.036-.011-.068-.025-.1-.036l-.054-.016-.056-.014a.431.431,0,0,0-.058-.013l-.058-.011c-.04-.005-.082-.009-.124-.013s-.084,0-.124,0l-.062,0-.032,0-.028,0-.06.007-.058.009c-.15.021-.279.054-.4.084l-.373.082c-.118.027-.238.048-.36.069a7.016,7.016,0,0,1-.721.086,5.555,5.555,0,0,1-.707,0c-.056,0-.114-.009-.168-.015s-.112-.016-.164-.023l-.018,0a.209.209,0,0,1,.088.168.216.216,0,0,1-.128.193,2.736,2.736,0,0,0-.5.313c-.018.013-.036.027-.054.041s-.054.043-.08.066c.034.007.068.013.1.018.072.013.132.018.2.029L3.8,28l.216.016c.072,0,.142.005.212,0a5.819,5.819,0,0,0,.833-.057,8.2,8.2,0,0,0,.807-.15c.132-.032.262-.066.395-.105l.192-.059.08-.025.1-.03c.124-.037.242-.075.344-.1a.245.245,0,0,1,.036-.009l.036-.007.018,0,.016,0,.032-.005.066,0c.022,0,.042,0,.064,0a1.118,1.118,0,0,1,.295.063c.022.007.054.018.08.025l.04.014.042.016.082.03.1.036a4.285,4.285,0,0,0,.781.195,5.49,5.49,0,0,0,.8.072c.132,0,.264,0,.4,0s.262-.011.395-.022c.262-.021.521-.055.777-.1s.509-.1.755-.166c.124-.034.247-.068.366-.109.06-.021.12-.041.178-.064.03-.011.058-.021.088-.034l.034-.014,0,0Z" transform="translate(-2.24 -18.163)" fill="#602913"/>
    <path id="패스_53174" data-name="패스 53174" d="M57.6,19.006l-.008-.127-.008-.145-.006-.073-.01-.075c-.006-.052-.014-.1-.024-.155l-.034-.159c-.014-.054-.032-.111-.05-.166a.822.822,0,0,0-.03-.084l-.034-.088a.933.933,0,0,0-.038-.086l-.044-.088s0,0,0,0c-.018-.037-.04-.073-.06-.107l-.04-.062c-.04-.056-.08-.113-.12-.166l-.062-.079c-.012-.012-.022-.027-.034-.039l-.034-.034L56.89,17.2c-.02-.022-.044-.045-.066-.066a3.227,3.227,0,0,0-.264-.226c-.086-.066-.166-.131-.252-.186l-.248-.17-.256-.155c-.162-.1-.334-.192-.5-.284-.338-.179-.687-.338-1.032-.488s-.7-.277-1.042-.392c-.086-.034-.172-.059-.258-.086s-.164-.063-.25-.086l-.264-.084c-.092-.03-.194-.052-.28-.079a10.683,10.683,0,0,0-1.114-.243c-.192-.03-.39-.056-.6-.073-.108-.007-.214-.014-.322-.018-.056,0-.112,0-.172,0l-.088,0-.082,0-.166.007c-.06,0-.124.007-.186.014-.1.009-.194.023-.288.039-.026,0-.052.007-.078.013-.08.012.052.889.052.889l.032,0,.1-.016c.046-.005.09-.011.134-.014s.076-.005.116-.009l.134-.005.068,0h.188c.09,0,.178.005.266.011.182.009.368.027.555.05.373.043.739.114,1.11.193.094.025.178.043.264.064s.184.05.274.075.19.052.282.079.188.052.278.08c.369.109.727.229,1.078.367a11.085,11.085,0,0,1,1.027.453c.166.084.334.172.5.265l.238.138.228.148a4.349,4.349,0,0,1,.407.3c.014.011.03.029.04.037l.038.036.018.018.016.018.034.036c.022.028.038.048.06.073a.849.849,0,0,1,.054.079,1.589,1.589,0,0,1,.172.4c.012.036.022.075.032.114l.014.057.012.061.022.122.022.139a4.766,4.766,0,0,1,.068,1.064,1.781,1.781,0,0,1-.3.9,2.174,2.174,0,0,1-.338.367c-.132.114-.28.227-.433.34a7.419,7.419,0,0,0-.909.735,5.834,5.834,0,0,0-.715.862c-.068.1-.134.2-.2.3-.032.05-.062.1-.09.152-.044.079-.086.156-.126.234l-.058.118c-.006.014-.014.03-.022.047l0,0,0,0,0,.007,0,.011s0,0,0,0v0l0,0h0l0,.005c-.022.014.062.021.04.005l0-.007,0,0,.006-.011c.012-.018.022-.037.034-.056.024-.039.048-.075.072-.112.05-.073.1-.147.154-.22s.1-.14.158-.209l.006-.007c.054-.07.11-.141.17-.211a6.23,6.23,0,0,1,.777-.774,7.965,7.965,0,0,1,.933-.635,3.845,3.845,0,0,0,.9-.712,2.039,2.039,0,0,0,.17-.232l.072-.123.062-.129c.016-.039.034-.084.052-.131l.044-.134c.026-.088.046-.179.064-.268a5.1,5.1,0,0,0,.056-1.068m-3.764,5.03,0,0a.055.055,0,0,1,.016,0l0,0a.014.014,0,0,1-.014,0" transform="translate(-33.367 -9.852)" fill="#602913"/>
    <path id="패스_53175" data-name="패스 53175" d="M83.722,12.586c-.048-.077-.1-.186-.118-.208a2.73,2.73,0,0,0-.535-.673,3.008,3.008,0,0,0-.747-.471l-.064-.027a2.758,2.758,0,0,0-.9-.195l-.04,0a1.9,1.9,0,0,0-.25,0c-.086.005-.176.007-.261.018s-.176.025-.26.045-.166.039-.244.066a3.306,3.306,0,0,0-.835.4,4.23,4.23,0,0,0-.637.522c-.094.093-.18.188-.264.286l-.234.284c-.078.095-.148.186-.216.258-.008.009-.016.02-.024.027l-.026.023-.012.012-.012.011-.024.02-.05.037c-.02.011-.036.023-.056.032a1.267,1.267,0,0,1-.287.1l-.086.02-.042.011-.046.007-.09.018-.1.022a4.8,4.8,0,0,0-.785.236,6.093,6.093,0,0,0-.713.336c-.114.063-.226.127-.334.195s-.216.136-.323.209c-.208.143-.411.3-.6.453s-.379.325-.557.5c-.03.029-.06.057-.09.088-.058.057-.114.116-.17.175-.038.045-.08.09-.122.138-.018.023-.038.047-.058.071-.008.009-.014.018-.022.029a.031.031,0,0,0-.006.007l0,.007c-.024.009.038.048.024.027a.054.054,0,0,0,.01-.012c.012-.011.024-.02.034-.03l.068-.061c.052-.041.1-.08.142-.116l.146-.113.018-.014c.048-.034.09-.066.13-.1.2-.145.406-.283.617-.415s.424-.254.645-.37.443-.222.669-.318c.056-.021.108-.041.172-.068l.086-.032.088-.032c.026-.009.056-.02.086-.029l.088-.03.174-.054a4.585,4.585,0,0,1,.711-.145l.088-.011.1-.009.05-.005.054-.007.106-.014.108-.02.11-.025a.324.324,0,0,0,.058-.016l.056-.016c.02-.005.038-.013.058-.02l.056-.023a1.213,1.213,0,0,0,.114-.052c.036-.021.074-.041.108-.064l.05-.034.024-.018.024-.018.046-.036.042-.038c.11-.1.193-.189.277-.275l.248-.254c.08-.079.164-.155.25-.229a3.5,3.5,0,0,1,.557-.392,2.56,2.56,0,0,1,.623-.252c.054-.014.108-.021.162-.032a1.21,1.21,0,0,1,.16-.018c.056,0,.112-.005.168,0s.12,0,.172.005a1.9,1.9,0,0,1,.619.157,2.125,2.125,0,0,1,.276.15c.02.012.04.027.06.041l.072.05.066.05.034.027.032.023a.775.775,0,0,1,.062.048l.068.056.136.107c.032.023.06.047.086.066l1.018,0c-.012,0-.036-.032-.06-.073M73.475,15.679a.005.005,0,0,0,0,0,.015.015,0,0,1,.01.009s0,0-.008-.005" transform="translate(-49.971 -7.45)" fill="#602913"/>
    <path id="패스_53176" data-name="패스 53176" d="M91.088,28.941a.164.164,0,0,0,0-.03l0,0,0,0v0l0-.007h0v0h0l0,0c.014-.007-.06-.014-.036,0l0,0v0l0,.005a.186.186,0,0,1,0,.034c0,.025-.008.048-.012.07-.008.045-.02.091-.032.136s-.028.091-.044.136c-.008.02-.014.039-.022.059s-.018.05-.028.073a3.032,3.032,0,0,1-.268.512,3.6,3.6,0,0,1-.363.46,3.54,3.54,0,0,1-.443.4c-.04.029-.08.059-.122.086l-.06.043-.064.039c-.018.011-.042.023-.064.037l-.066.036c-.044.023-.088.048-.132.068a2.517,2.517,0,0,1-.565.2l-.074.014-.084.016-.042.007-.044.009-.086.018-.088.023-.086.028-.046.018-.044.016a.365.365,0,0,0-.044.022l-.042.021a.81.81,0,0,0-.084.052c-.026.02-.052.039-.076.061l-.034.034-.018.016-.014.018-.032.034c-.008.009-.018.023-.028.034a3.146,3.146,0,0,0-.18.263l-.166.243c-.056.077-.114.154-.174.227a3.738,3.738,0,0,1-.4.41,2.711,2.711,0,0,1-.459.333l-.124.068c-.04.02-.082.037-.124.057l-.134.05c-.048.018-.1.037-.142.052a4.115,4.115,0,0,1-.571.15c-.1.02-.2.036-.306.052l-.162.027-.086.014-.042.007-.042.009-.082.016-.09.02-.032.009-.144.041-.116.041.463.778.016,0c.046-.011.088-.021.132-.028l.068-.013.08-.014.038-.005.038-.006.074-.012.162-.022c.1-.016.214-.036.322-.057l.018,0a3.831,3.831,0,0,0,.685-.208c.056-.021.1-.047.156-.07l.162-.075c.054-.029.108-.057.16-.088s.1-.065.15-.1a3.41,3.41,0,0,0,.525-.447,4.341,4.341,0,0,0,.419-.514c.06-.091.12-.184.174-.277s.1-.184.148-.273.094-.179.136-.249a.258.258,0,0,1,.016-.025l.016-.023.008-.013.008-.011.018-.02c.014-.016.022-.023.036-.038a.364.364,0,0,1,.04-.032.971.971,0,0,1,.228-.109c.018-.007.046-.016.068-.023l.036-.013.036-.011.076-.023.086-.027a2.777,2.777,0,0,0,.623-.3,3.036,3.036,0,0,0,.513-.411,2.568,2.568,0,0,0,.218-.236c.066-.082.134-.163.192-.25a3.463,3.463,0,0,0,.3-.54,2.824,2.824,0,0,0,.182-.574l.012-.068a2.146,2.146,0,0,0,.03-.224c0-.05.006-.1.006-.147,0-.025,0-.05,0-.073m-.024-.045,0,0s0,0,.012,0l0,0Z" transform="translate(-57.281 -19.545)" fill="#602913"/>
    <path id="패스_53177" data-name="패스 53177" d="M102.357,17.183l-.006,0,0,0,0,0v0l-.012-.009-.066-.052c-.018-.012-.034-.025-.05-.037s-.058-.043-.086-.064c-.092-.066-.188-.129-.283-.188s-.192-.114-.29-.168-.2-.108-.3-.152c-.408-.183-.819-.333-1.231-.483s-.829-.288-1.244-.422-.831-.265-1.246-.387l-.311-.091-.154-.045c-.052-.015-.1-.03-.156-.043l-.154-.039-.018-.005-.14-.034-.308-.082a9.7,9.7,0,0,0-1.066-.234c-.06-.013-.122-.023-.185-.032l-.158-.02-.185-.02c-.032,0-.064-.005-.1-.005l-.1,0a1.727,1.727,0,0,0-.215.005c-.074,0-.15.016-.228.027a2.092,2.092,0,0,0-.248.055c-.042.009-.086.029-.13.043s-.09.032-.134.054-.09.043-.134.068-.09.056-.134.082a1.915,1.915,0,0,0-.253.209,1.649,1.649,0,0,0-.2.256,1.061,1.061,0,0,0-.076.136l-.03.068-.028.066c-.016.045-.026.088-.04.132a1.067,1.067,0,0,0-.028.125,1.829,1.829,0,0,0-.016.44l.024.19c.014.068.028.136.046.2a1.95,1.95,0,0,0,.35.658,3.119,3.119,0,0,0,.465.476,7.1,7.1,0,0,0,1.042.723c.363.2.719.4,1.078.58l.266.134c.086.041.174.086.26.129s.182.09.276.131l.224.093.072.03c.018.007.034.016.052.022a10.562,10.562,0,0,0,1.12.41l.984.243c.062.011.122.021.186.03l.1.012.092.013.182.02c.068,0,.142.009.208.014.14.005.279.005.413,0,.032,0,.062,0,.094,0l.17-.011.068-.862-.084.016-.134.025c-.094,0-.185,0-.271,0-.044,0-.084,0-.128-.007l-.15-.014-.076-.007-.068-.009c-.044,0-.092-.013-.14-.02-.1-.014-.2-.034-.295-.052-.2-.038-.406-.088-.613-.142a11.6,11.6,0,0,1-1.232-.4L96.9,18.84a2.762,2.762,0,0,1-.3-.122c-.1-.043-.206-.09-.309-.136l-.3-.14c-.2-.095-.4-.189-.587-.288s-.385-.193-.563-.3a5.33,5.33,0,0,1-.972-.673,2.046,2.046,0,0,1-.352-.415,1.257,1.257,0,0,1-.174-.5,1.083,1.083,0,0,1,.028-.517.253.253,0,0,1,.02-.056l.024-.052.012-.027.012-.025.03-.047c.022-.028.044-.059.068-.088l.084-.077a1.184,1.184,0,0,1,.483-.225,1.279,1.279,0,0,1,.146-.027l.074-.011c.024,0,.05-.005.076-.005l.152-.007.174,0a8.848,8.848,0,0,1,1.346.168c.441.1.883.172,1.32.281.22.05.437.1.653.157l.649.166q.646.166,1.282.349c.421.125.843.243,1.25.4a6.084,6.084,0,0,1,.6.27c.1.05.193.105.288.163.02.013.04.025.06.039s.052.034.08.05l.056.037,0,.005,0,0,.01.007.01.007v0s0,0,0,0l.006,0v0l.006.005c.016.025.03-.052.008-.037m-.018.02,0,0a.048.048,0,0,1,0-.016h0a.01.01,0,0,1,0,.014" transform="translate(-62.989 -9.852)" fill="#602913"/>
    <path id="패스_53178" data-name="패스 53178" d="M98.036,6.324l-.012.054a.241.241,0,0,1-.012.05.534.534,0,0,1-.048.1,1.128,1.128,0,0,1-.08.106c-.028.034-.062.071-.094.1l-.05.048a.319.319,0,0,1-.022.025l-.02.025a.208.208,0,0,1-.022.023.09.09,0,0,1-.016.021.3.3,0,0,0-.03.047l0,.005-.981.07c0-.013,0-.027.008-.041a.685.685,0,0,1,.024-.066l.02-.032.018-.03.02-.029.026-.032.046-.057c.032-.039.062-.073.092-.106a1.079,1.079,0,0,0,.134-.2c.008-.016.014-.034.022-.05l.01-.025.01-.025c0-.014.008-.034.01-.047a.377.377,0,0,0,0-.048.516.516,0,0,0-.058-.2,1.451,1.451,0,0,0-.138-.211c-.032-.036-.062-.073-.1-.109l-.108-.116a.929.929,0,0,1-.106-.131.053.053,0,0,1-.01-.018l-.008-.022,0-.009,0-.009,0-.02a.137.137,0,0,1,0-.039.154.154,0,0,1,.014-.037l.01-.018a.1.1,0,0,1,.014-.016l.016-.016a.14.14,0,0,1,.018-.014c.012-.009.026-.018.038-.029l.044-.027.046-.023.024-.011.022-.009.048-.022.042-.016a1.314,1.314,0,0,0,.268-.157.359.359,0,0,0,.052-.041l.024-.021a.238.238,0,0,0,.022-.022l.024-.023.018-.021.038-.045a.817.817,0,0,0,.11-.192.992.992,0,0,0,.062-.206,1.326,1.326,0,0,0,.03-.227c0-.013,0-.029,0-.045.034,0,.068,0,.1,0,.012.032.022.064.032.093.032.091.054.172.074.252a1.61,1.61,0,0,1,.038.225.593.593,0,0,1,0,.1.413.413,0,0,1-.02.1.444.444,0,0,1-.1.188.79.79,0,0,1-.222.179l-.038.021-.036.018-.018.009-.014.013c-.01.005-.02.013-.028.018-.036.025-.062.05-.066.075a.058.058,0,0,0,0,.02l.006.018.006.011,0,0,.006.005.01.011a.043.043,0,0,0,.01.011,1.332,1.332,0,0,0,.12.1l.142.111c.048.036.09.073.136.109a1.96,1.96,0,0,1,.215.213.594.594,0,0,1,.126.208.534.534,0,0,1,.012.053.487.487,0,0,1,0,.052" transform="translate(-65.676 -2.773)" fill="#602913"/>
    <path id="패스_53179" data-name="패스 53179" d="M22.7,15.68c.8.024,1.6.178,2.4.123a2.4,2.4,0,0,0,1.989-1.025.714.714,0,0,0-.138-.935,1.16,1.16,0,0,0-.493-.15,8.5,8.5,0,0,0-6.018,1.445,1.743,1.743,0,0,0-.595.622c-.421.9.382.707.762.629.688-.14,1.085-.74,2.092-.709" transform="translate(-13.422 -9.214)" fill="#804320"/>
    <path id="패스_53180" data-name="패스 53180" d="M71.079,4.769c.13.358-.154.73-.475.974a6.787,6.787,0,0,1-2.483.979c-.883.22-2.837.694-3.48-.248-.425-.622-.059-.83.569-1.188.93-.53,5.381-1.855,5.868-.517" transform="translate(-43.845 -2.835)" fill="#804320"/>
    <path id="패스_53181" data-name="패스 53181" d="M49.975,25.455c-.232.366-.392.9-.008,1.147a1.159,1.159,0,0,0,1.008-.067l3.445-1.363a1.6,1.6,0,0,0,.646-.381c.917-1.072-1.422-1.77-2.249-1.683-1.281.135-2.254,1.422-2.841,2.348" transform="translate(-33.831 -15.634)" fill="#804320"/>
    <path id="패스_53182" data-name="패스 53182" d="M186.409,18.347a2.91,2.91,0,0,0,2.282-.355,5.522,5.522,0,0,1,2.192-.827c.629-.027,1.311.194,1.861-.079a1.206,1.206,0,0,0,.616-1.192,2.466,2.466,0,0,0-2.2-1.945,5.248,5.248,0,0,0-3.179.682,17.024,17.024,0,0,0-1.607,1.012c-.3.2-.9.457-1.081.767-.363.639.467,1.686,1.117,1.937" transform="translate(-125.978 -9.411)" fill="#804320"/>
    <path id="패스_53183" data-name="패스 53183" d="M104.674,6.1c-.063.384.413.685.847.7a10.049,10.049,0,0,0,1.286-.173,4.563,4.563,0,0,1,2.249.584,4.958,4.958,0,0,0,2.238.634c.791-.033,1.613-.6,1.536-1.309-.137-1.247-2.5-2.2-3.722-2-.879.141-4.29.68-4.434,1.562" transform="translate(-71.197 -3.051)" fill="#804320"/>
    <path id="패스_53184" data-name="패스 53184" d="M159.566,9.49a1.589,1.589,0,0,0,.82-.009c.257-.093.456-.357.362-.59-.081-.2-.327-.3-.55-.373-.819-.28-5.659-2.526-6.154-.894-.147.484,1.675.646,2.175.812a25.46,25.46,0,0,0,3.347,1.053" transform="translate(-104.777 -4.761)" fill="#804320"/>
    <path id="패스_53185" data-name="패스 53185" d="M154.857,26.391a1.862,1.862,0,0,0,1.237.026.84.84,0,0,0,.354-1.052,2.176,2.176,0,0,0-.827-.913c-1.206-.861-3.719-2-4.682-.275-.359.643-.658,1.835.273,2.086a9.251,9.251,0,0,0,1.81-.1,9,9,0,0,1,1.835.227" transform="translate(-102.434 -15.753)" fill="#804320"/>
    <path id="패스_53186" data-name="패스 53186" d="M125.667,25.591a.712.712,0,0,0-.02.845c.3.378.933.313,1.454.31a3.831,3.831,0,0,1,1.9.493c.358.2.756.481,1.158.36.458-.138.547-.671.558-1.1a1.371,1.371,0,0,0-.407-1.239,1.763,1.763,0,0,0-.783-.229c-1.23-.16-3.066-.591-3.861.561" transform="translate(-85.378 -16.795)" fill="#804320"/>
    <path id="패스_53187" data-name="패스 53187" d="M16.662,35.629a2.065,2.065,0,0,0,1.176.144,5.24,5.24,0,0,0,1.945-.393,5.007,5.007,0,0,1,1.582-.785,1.87,1.87,0,0,0,.789-.121.557.557,0,0,0,.011-.868,1.843,1.843,0,0,0-.995-.383c-1.146-.183-3.188-.419-4.26.117-.778.389-1.1,1.8-.248,2.288" transform="translate(-10.99 -22.341)" fill="#804320"/>
    <path id="패스_53188" data-name="패스 53188" d="M92.914,32.967a3.224,3.224,0,0,0-1.755-2.338.048.048,0,0,0-.014-.009.337.337,0,0,1-.04-.029.194.194,0,0,1-.058-.24,2.912,2.912,0,0,0,.212-.515c.479-1.608-.617-3.277-2-4.39-.116-.093-.238-.18-.362-.265a3.308,3.308,0,0,1,.459,2.663,2.9,2.9,0,0,1-.212.515.194.194,0,0,0,.058.24.279.279,0,0,0,.04.028l.014.009A3.13,3.13,0,0,1,90.766,31.1a2.753,2.753,0,0,1-.648,2.255,9.269,9.269,0,0,1-2.151,1.689,10.659,10.659,0,0,1-3,1.392c-.172.043-.346.079-.523.105l-.046.007c-.108.018-.22.031-.333.039l-.15.011c-.074,0-.148.005-.222.005a2.5,2.5,0,0,0-.531.063,2.114,2.114,0,0,0-.845.4,3.084,3.084,0,0,1-.413.281,8.888,8.888,0,0,1-1.2.51l-.208.075a1.254,1.254,0,0,0-.224.1,2.363,2.363,0,0,0-.365.258.677.677,0,0,1-.134.075,1.308,1.308,0,0,0-.254.136c-.026.018-.05.038-.076.056a10.9,10.9,0,0,1-5.262,1.554,5.317,5.317,0,0,1-1,.016,3.361,3.361,0,0,0-1.833.374,12.2,12.2,0,0,1-6.91,1.15L64.3,41.64c-.062-.009-.124-.016-.186-.021-.116-.014-.232-.023-.35-.032-.076-.005-.154-.011-.232-.013a11.076,11.076,0,0,0-2.035.09,35.161,35.161,0,0,1-5.766.37,21.808,21.808,0,0,1-5.444-.911.429.429,0,0,0-.066-.02.765.765,0,0,0-.108-.027,1.075,1.075,0,0,0-.7.129c-.048.029-.1.054-.152.079a3.984,3.984,0,0,1-1.32.329l-.178.016c-.078.007-.158.014-.238.02a15.06,15.06,0,0,1-6.083-.635,9.147,9.147,0,0,1-.887-.372,2.032,2.032,0,0,0-.949-.2,1.906,1.906,0,0,0-.777.193,4.545,4.545,0,0,1-4.152-.054,8.921,8.921,0,0,0-2.235-1.063,20.722,20.722,0,0,0-2.421-.381c-.064-.011-.126-.023-.19-.036l-.048-.011a3.083,3.083,0,0,1-.831-.3,1.865,1.865,0,0,1-.168-.095.27.27,0,0,0-.216-.029,4.454,4.454,0,0,1-2.205.131,24.129,24.129,0,0,0-2.746-.386c-1.51-.217-3.179-.009-4.6-.641.019.021.039.041.056.062.545.675.857,1.451,1.719,1.871,1.45.707,3.177.476,4.733.7a24.113,24.113,0,0,1,2.746.387,4.457,4.457,0,0,0,2.205-.131.271.271,0,0,1,.217.028,1.826,1.826,0,0,0,.168.1,3.091,3.091,0,0,0,.831.3l.048.011c.064.013.126.025.191.036a20.673,20.673,0,0,1,2.421.381,8.92,8.92,0,0,1,2.235,1.062,4.545,4.545,0,0,0,4.152.054,1.9,1.9,0,0,1,.777-.193,2.032,2.032,0,0,1,.949.2,9.261,9.261,0,0,0,.887.372,15.061,15.061,0,0,0,6.083.635c.08-.005.16-.012.239-.02l.178-.016a3.986,3.986,0,0,0,1.32-.329c.052-.025.1-.05.152-.079a1.076,1.076,0,0,1,.7-.129.824.824,0,0,1,.108.027.514.514,0,0,1,.066.02,21.791,21.791,0,0,0,5.444.911,35.161,35.161,0,0,0,5.766-.37,11.046,11.046,0,0,1,2.035-.09c.078,0,.156.007.232.013.118.009.234.018.35.032q.093.008.186.022c.052.007.1.012.154.018a12.193,12.193,0,0,0,6.91-1.15,3.362,3.362,0,0,1,1.833-.374,5.343,5.343,0,0,0,1-.016,10.9,10.9,0,0,0,5.262-1.555c.026-.018.05-.037.076-.055a1.3,1.3,0,0,1,.255-.136.691.691,0,0,0,.134-.075,2.336,2.336,0,0,1,.365-.258,1.225,1.225,0,0,1,.224-.1l.208-.075a8.928,8.928,0,0,0,1.2-.51,3.07,3.07,0,0,0,.413-.281,2.117,2.117,0,0,1,.845-.4,2.5,2.5,0,0,1,.531-.063q.111,0,.223-.005l.15-.011c.112-.009.224-.022.332-.039l.046-.007c.176-.027.35-.063.523-.106a10.639,10.639,0,0,0,3-1.392,9.263,9.263,0,0,0,2.151-1.689,3.217,3.217,0,0,0,.889-2.379" transform="translate(-12.927 -17.042)" fill="#602913"/>
  </g>
</svg>
