<svg xmlns="http://www.w3.org/2000/svg" xmlns:xlink="http://www.w3.org/1999/xlink" width="81" height="33" viewBox="0 0 81 33">
  <defs>
    <clipPath id="clip-path">
      <rect id="사각형_16470" data-name="사각형 16470" width="81" height="33" transform="translate(0.081 0)" fill="none"/>
    </clipPath>
  </defs>
  <g id="그룹_100900" data-name="그룹 100900" transform="translate(-0.081 0)" clip-path="url(#clip-path)">
    <path id="패스_53107" data-name="패스 53107" d="M129.543,51.546a11.639,11.639,0,0,0-5.67.723c-1.728.856-3.016,2.951-2.308,4.755a3.8,3.8,0,0,0,2.266,2.058,8.642,8.642,0,0,0,3.1.417,18.7,18.7,0,0,0,10.905-3.279c4.523-3.311-6.773-4.614-8.291-4.674" transform="translate(-76.083 -32.15)" fill="#602913"/>
    <path id="패스_53108" data-name="패스 53108" d="M190.808,21.836a5.987,5.987,0,0,1,.969,3.38,7.774,7.774,0,0,1-5.509,7.3A7.514,7.514,0,0,1,176.9,25.3c-.065-4.149,2.783-5.81,6.566-6.1,2.6-.2,5.747.326,7.34,2.642" transform="translate(-110.897 -11.956)" fill="#6b3217"/>
    <path id="패스_53109" data-name="패스 53109" d="M191.427,29.574c-1.57,7.687-2.186.673-5.278,1.528-3.982,1.1-8.084,4.231-9.244.543,0,.051,0,.1,0,.154a7.514,7.514,0,0,0,9.365,7.225,7.774,7.774,0,0,0,5.509-7.3,6.561,6.561,0,0,0-.351-2.145" transform="translate(-110.898 -18.46)" fill="#602913"/>
    <path id="패스_53110" data-name="패스 53110" d="M38.011,26.7a6.768,6.768,0,0,1-3.605,1.776,9.075,9.075,0,0,1-4.209.365c-2.5-.566-4.452-2.861-5.255-5.462a7.225,7.225,0,0,1,.6-6.1c.027-.045.06-.091.091-.137A5.734,5.734,0,0,1,29.3,14.982a13.719,13.719,0,0,1,3.933-.033l.408.044a13.454,13.454,0,0,1,1.772.291,4.755,4.755,0,0,1,1.875.876c1.6,1.3,1.8,3.648,1.838,5.721.031,1.689-.01,3.547-1.115,4.821" transform="translate(-15.385 -9.252)" fill="#6b3217"/>
    <path id="패스_53111" data-name="패스 53111" d="M29.762,27.283a2.41,2.41,0,0,1-.991,1.776,1.823,1.823,0,0,1-1.467.054,5.088,5.088,0,0,1-1.3-.768,8.97,8.97,0,0,1-1.063-.884,7.226,7.226,0,0,1,.6-6.1,9.667,9.667,0,0,1,2.415,1.351,4.651,4.651,0,0,1,1.767,2.393,4.914,4.914,0,0,1,.039,2.177" transform="translate(-15.385 -13.335)" fill="#602913"/>
    <path id="패스_53112" data-name="패스 53112" d="M51.093,20.222a5.014,5.014,0,0,1-1.185,1.83,1.02,1.02,0,0,1-.478.363.971.971,0,0,1-.8-.292,6.564,6.564,0,0,1-2.312-3.382,4.758,4.758,0,0,1,.132-2.845,4.841,4.841,0,0,1,.334-.738l.408.044a13.453,13.453,0,0,1,1.772.29,7.67,7.67,0,0,1,.569.593,7.814,7.814,0,0,1,1.316,1.886,3.284,3.284,0,0,1,.239,2.251" transform="translate(-28.941 -9.461)" fill="#602913"/>
    <path id="패스_53113" data-name="패스 53113" d="M39.213,26.859a11.3,11.3,0,0,0-.634-4.056c.071.627-2.986,4.3-4.089,5.573a4.1,4.1,0,0,1-3.94.93c-2.333-.529-4.977-.228-5.867-2.61.355,3.222,2.576,6.442,5.6,7.127a9.089,9.089,0,0,0,4.21-.365A6.786,6.786,0,0,0,38.1,31.681c1.1-1.274,1.146-3.132,1.113-4.822" transform="translate(-15.473 -14.233)" fill="#602913"/>
    <path id="패스_53114" data-name="패스 53114" d="M63.221,13.3a7.944,7.944,0,0,1-4.069,2.336c-3.667,1.114-11.1,1.467-12.057-3.781a5.752,5.752,0,0,1,2.044-5.383A10.859,10.859,0,0,1,55.4,3.8,9.365,9.365,0,0,1,62,5.685a6.669,6.669,0,0,1,.529.5c1.8,1.874,2.3,5.084.686,7.12" transform="translate(-29.466 -2.354)" fill="#6b3217"/>
    <path id="패스_53115" data-name="패스 53115" d="M63.666,14.7a2.212,2.212,0,0,0-2.248,1.5c-1.854,4.383-4.662,2.416-6.181,2.878-3.321,1.008-6.335,2.594-8.227-1.242a5.47,5.47,0,0,0,.089.841c.961,5.248,8.39,4.894,12.057,3.781a7.931,7.931,0,0,0,4.068-2.337,5.32,5.32,0,0,0,.442-5.421" transform="translate(-29.47 -9.176)" fill="#602913"/>
    <path id="패스_53116" data-name="패스 53116" d="M62.35,30.827a8,8,0,0,1,3.645,3.934,5.133,5.133,0,0,1-.744,5.163A8.4,8.4,0,0,1,61.316,42c-3.562,1.124-10.561,2.766-12.394-2.059C47.388,35.9,50.9,30.993,54.646,29.89a10.142,10.142,0,0,1,7.7.937" transform="translate(-30.437 -18.421)" fill="#6b3217"/>
    <path id="패스_53117" data-name="패스 53117" d="M51.35,43.437a7.324,7.324,0,0,1,2.027,2.336,3.215,3.215,0,0,1-.32,3.481,1.69,1.69,0,0,1-1.067.669,1.875,1.875,0,0,1-1.045-.26,5.24,5.24,0,0,1-2.169-7.216c.088-.16.449-1.139.673-1.14s.356.638.481.8a7.021,7.021,0,0,0,1.42,1.33" transform="translate(-30.16 -25.783)" fill="#602913"/>
    <path id="패스_53118" data-name="패스 53118" d="M66.008,42.868c-.048-.124-.1-.247-.157-.367.044,1.22-.429,1.4-1.232,2.3-1,1.127-4,.261-5.466.564-4.616.953-8.528,5.234-10.579.88a5.7,5.7,0,0,0,.361,1.8c1.833,4.824,8.832,3.182,12.394,2.059a8.406,8.406,0,0,0,3.935-2.076,5.133,5.133,0,0,0,.744-5.163" transform="translate(-30.45 -26.529)" fill="#602913"/>
    <path id="패스_53119" data-name="패스 53119" d="M119.825,24.774a8.65,8.65,0,0,1,6.952.2,5.962,5.962,0,0,1,3.233,5.919c-.346,2.235-2.129,3.945-3.94,5.282a14.413,14.413,0,0,1-6.817,3.066,6.857,6.857,0,0,1-6.584-2.837c-3.08-5.022,3.149-10.142,7.156-11.631" transform="translate(-70.112 -15.071)" fill="#6b3217"/>
    <path id="패스_53120" data-name="패스 53120" d="M129.541,34.072a4.812,4.812,0,0,1-.053.839c-.346,2.235-2.19,3.866-3.94,5.282-3.7,3-4.831.41-7.335.681s-4.743,1.705-6.066-.452a6.127,6.127,0,0,1-.3-.554,5.308,5.308,0,0,0,.825,2.733,6.856,6.856,0,0,0,6.584,2.837,14.406,14.406,0,0,0,6.817-3.066c1.811-1.338,3.594-3.047,3.94-5.282a5.236,5.236,0,0,0-.471-3.018" transform="translate(-70.114 -21.267)" fill="#602913"/>
    <path id="패스_53121" data-name="패스 53121" d="M131.8,8.456c-.023.156-.051.309-.084.463a5.818,5.818,0,0,1-.365,1.115,5.316,5.316,0,0,1-.328.629c-.082.135-.171.268-.266.4-1.553,2.112-4.279,2.922-6.836,3.451a18.094,18.094,0,0,1-6.02.467,7.486,7.486,0,0,1-5.175-2.849,4.734,4.734,0,0,1-.766-1.66,4.131,4.131,0,0,1-.113-.837s0,0,0,0c0-.085,0-.168,0-.253V9.367c.078-3.77,4.852-7.437,7.936-8.641a9.619,9.619,0,0,1,9.547,1.218,6.59,6.59,0,0,1,.565.537h0a7.34,7.34,0,0,1,1.421,2.251c.027.067.054.135.078.2.031.085.062.172.091.257a7.649,7.649,0,0,1,.249.957c.013.058.023.116.031.174.025.143.043.288.06.431.006.046.01.091.013.137a6.845,6.845,0,0,1-.037,1.564" transform="translate(-70.113 0)" fill="#6b3217"/>
    <path id="패스_53122" data-name="패스 53122" d="M131.8,12.577c-.023.156-.051.309-.084.463a5.818,5.818,0,0,1-.365,1.115,5.316,5.316,0,0,1-.328.629c-.082.135-.171.268-.266.4-1.553,2.112-4.279,2.922-6.836,3.451a18.093,18.093,0,0,1-6.02.467,7.486,7.486,0,0,1-5.175-2.849,4.734,4.734,0,0,1-.766-1.66,4.473,4.473,0,0,1-.113-.837s0,0,0,0c0-.085,0-.168,0-.253v-.006a5.068,5.068,0,0,0,.357.579,7.476,7.476,0,0,0,5.175,2.849,10.565,10.565,0,0,0,5.911-.656c4.172-1.957,4.009-6.7,5.562-8.813a2.01,2.01,0,0,1,1.042-.844h0a7.34,7.34,0,0,1,1.421,2.251c.027.067.054.135.078.2.031.085.062.172.091.257a7.649,7.649,0,0,1,.249.957c.013.058.023.116.031.174.025.143.043.288.06.431.006.046.01.091.013.137a6.845,6.845,0,0,1-.037,1.564" transform="translate(-70.113 -4.122)" fill="#602913"/>
    <path id="패스_53123" data-name="패스 53123" d="M166.938,13.883a7.212,7.212,0,0,1-5.468,4.4,4.461,4.461,0,0,1-2.926-.384c-1.756-1-3.043-4.246-3.23-6.2a5.826,5.826,0,0,1,1.03-3.613,6.512,6.512,0,0,1,2.53-2.335,5.931,5.931,0,0,1,7.487,2.239,6.745,6.745,0,0,1,.577,5.9" transform="translate(-97.352 -3.259)" fill="#6b3217"/>
    <path id="패스_53124" data-name="패스 53124" d="M166.865,14.928a6.609,6.609,0,0,1-.406,2.835c-.881,2.292-3.455.9-5.863,1.3a3.487,3.487,0,0,1-2.588-.2c-1.169-.664-2.073.592-2.64-1.023.215,1.965,1.491,5.138,3.223,6.122a4.457,4.457,0,0,0,2.926.383,7.206,7.206,0,0,0,5.467-4.4,6.761,6.761,0,0,0-.119-5.015" transform="translate(-97.398 -9.318)" fill="#602913"/>
    <path id="패스_53125" data-name="패스 53125" d="M25.289,51.426A9.584,9.584,0,0,0,34.358,53.8a4.455,4.455,0,0,0,2.879-1.76,4.189,4.189,0,0,0,.468-2.472A8.527,8.527,0,0,0,32.767,42.5c-2.246-.992-6.673-1.1-8.612.815-2.1,2.067-.573,6.321,1.135,8.109" transform="translate(-14.504 -26.093)" fill="#6b3217"/>
    <path id="패스_53126" data-name="패스 53126" d="M37.707,56.231a8.019,8.019,0,0,0-.359-1.86,3.713,3.713,0,0,1-.482,1.855,4.453,4.453,0,0,1-2.879,1.759,9.584,9.584,0,0,1-9.069-2.376,8.487,8.487,0,0,1-1.774-3.135,8.483,8.483,0,0,0,2.147,5.612,9.584,9.584,0,0,0,9.069,2.376A4.455,4.455,0,0,0,37.239,58.7a4.189,4.189,0,0,0,.468-2.472" transform="translate(-14.506 -32.754)" fill="#602913"/>
    <path id="패스_53127" data-name="패스 53127" d="M13.558,26.141c-.826,2.824-2.932,5.445-5.787,6.072A6.679,6.679,0,0,1,.359,28.029a6.464,6.464,0,0,1-.251-3.316,7.085,7.085,0,0,1,.159-.7c.83-3.048,3.55-5.636,6.865-4.97a7.32,7.32,0,0,1,1.306.4,10.43,10.43,0,0,1,1.041.488c.723.384,1.417.84,2.1,1.293a5.126,5.126,0,0,1,1.982,1.907,4.3,4.3,0,0,1,0,3.015" transform="translate(0 -11.819)" fill="#6b3217"/>
    <path id="패스_53128" data-name="패스 53128" d="M13.565,29.681a2.689,2.689,0,0,0-.135-.243,7.393,7.393,0,0,1-.216.944c-.827,2.825-2.931,5.445-5.788,6.073A6.677,6.677,0,0,1,.014,32.27l0-.014a6.212,6.212,0,0,0,.352,2.328,6.678,6.678,0,0,0,7.412,4.184c2.857-.627,4.961-3.247,5.788-6.072a4.3,4.3,0,0,0,0-3.015" transform="translate(-0.004 -18.375)" fill="#602913"/>
    <path id="패스_53129" data-name="패스 53129" d="M138.31,63.865a4.3,4.3,0,0,0,.129,3.26,4.37,4.37,0,0,0,3.315,1.787,13.407,13.407,0,0,0,9.739-2.444c2.11-1.551,2.168-3.455.191-5.1a20.211,20.211,0,0,0-4.083-3.128c-4.191-1.844-8.21,1.75-9.291,5.624" transform="translate(-86.544 -36.043)" fill="#6b3217"/>
    <path id="패스_53130" data-name="패스 53130" d="M152.571,69.876a4.107,4.107,0,0,1-1.447,1.708,13.4,13.4,0,0,1-9.739,2.444,4.443,4.443,0,0,1-3.266-1.71,3.642,3.642,0,0,0,.321,2.381,4.368,4.368,0,0,0,3.314,1.787,13.407,13.407,0,0,0,9.739-2.444c1.72-1.264,2.075-2.763,1.077-4.165" transform="translate(-86.545 -43.616)" fill="#602913"/>
    <path id="패스_53131" data-name="패스 53131" d="M152.482,27.427a15.4,15.4,0,0,1,5.44.812,5.291,5.291,0,0,1,3.428,4.027,5.042,5.042,0,0,1-1.834,4.19c-2.792,2.453-8.213,3.572-11.628,1.854-3.084-1.552-3.683-6.029-1.8-8.791,1.432-2.1,4.107-2.156,6.391-2.091" transform="translate(-90.909 -17.11)" fill="#6b3217"/>
    <path id="패스_53132" data-name="패스 53132" d="M161.378,37.759a4.088,4.088,0,0,0-.507-1.547c-.07,1.356-5.822.45-6.85,1.353-2.792,2.453-3.213,5.776-6.628,4.058a5.029,5.029,0,0,1-2.33-2.519,5.528,5.528,0,0,0,2.854,4.7c3.415,1.718,8.836.6,11.628-1.854a5.042,5.042,0,0,0,1.834-4.19" transform="translate(-90.938 -22.603)" fill="#602913"/>
    <path id="패스_53133" data-name="패스 53133" d="M98.5,60.873a7.714,7.714,0,0,0,6.088,4.38,16.408,16.408,0,0,0,7.682-1.053,5.228,5.228,0,0,0,3.151-2.142,4.506,4.506,0,0,0-.487-4.211,10.516,10.516,0,0,0-6.478-4.933c-4.614-1.163-12.414,1.849-9.956,7.959" transform="translate(-61.453 -32.875)" fill="#6b3217"/>
    <path id="패스_53134" data-name="패스 53134" d="M115.379,68.093a2.947,2.947,0,0,1-.307.969,5.228,5.228,0,0,1-3.151,2.142,16.418,16.418,0,0,1-7.682,1.053,7.714,7.714,0,0,1-6.088-4.38c-.038-.094-.073-.188-.106-.281A5.779,5.779,0,0,0,98.5,70.19a7.714,7.714,0,0,0,6.088,4.38,16.413,16.413,0,0,0,7.682-1.053,5.227,5.227,0,0,0,3.151-2.142,3.935,3.935,0,0,0-.041-3.283" transform="translate(-61.454 -42.192)" fill="#602913"/>
    <path id="패스_53135" data-name="패스 53135" d="M60.463,52.787a9.218,9.218,0,0,1,7.124-1.2,7.006,7.006,0,0,1,5,5.021,4.483,4.483,0,0,1-.8,3.89,6.029,6.029,0,0,1-2.938,1.6,25.53,25.53,0,0,1-7.916,1.034c-2.438-.067-5.482-1.227-5.382-4.229.08-2.4,3.057-4.98,4.912-6.119" transform="translate(-34.822 -32.032)" fill="#6b3217"/>
    <path id="패스_53136" data-name="패스 53136" d="M72.591,64.015a5.918,5.918,0,0,0-.255-.838,3.977,3.977,0,0,1-.913,2.3,6.028,6.028,0,0,1-2.938,1.6,25.542,25.542,0,0,1-7.916,1.035c-1.843-.051-4.033-.727-4.948-2.352a3.265,3.265,0,0,0-.069.552c-.1,3,2.945,4.162,5.382,4.229A25.54,25.54,0,0,0,68.849,69.5a6.026,6.026,0,0,0,2.938-1.6,4.483,4.483,0,0,0,.8-3.89" transform="translate(-34.822 -39.435)" fill="#602913"/>
    <path id="패스_53137" data-name="패스 53137" d="M98.127,19.914a8.738,8.738,0,0,1-6.164,3.86,6.72,6.72,0,0,1-6.414-10.243,7.434,7.434,0,0,1,2.635-2.382c2.627-1.465,6.481-1.887,8.987-.2a5.419,5.419,0,0,1,2.192,3.123,7.16,7.16,0,0,1-1.236,5.839" transform="translate(-52.986 -6.152)" fill="#6b3217"/>
    <path id="패스_53138" data-name="패스 53138" d="M99.4,19.591a6.31,6.31,0,0,0-.326-.9,7.73,7.73,0,0,1-1.434,4.557,8.742,8.742,0,0,1-6.165,3.858,6.688,6.688,0,0,1-6.524-3.3c-.14-.269-.262-.539-.369-.807a7.825,7.825,0,0,0,.894,2.986A6.687,6.687,0,0,0,92,29.289a8.74,8.74,0,0,0,6.165-3.858,7.16,7.16,0,0,0,1.236-5.84" transform="translate(-53.024 -11.669)" fill="#602913"/>
    <path id="패스_53139" data-name="패스 53139" d="M165.17,40.565a8.713,8.713,0,0,1,7.366.133c1.693.841,3.24,2.276,5.127,2.244.716-.012,1.413-.242,2.128-.283a1.48,1.48,0,0,1,1.651.955,5.682,5.682,0,0,1-.165,2.957,15.072,15.072,0,0,1-6.483,7.241,10.186,10.186,0,0,1-9.654-.042c-2.274-1.265-4.933-4.2-4.988-6.992-.049-2.511,2.936-5.27,5.018-6.213" transform="translate(-100.396 -24.851)" fill="#6b3217"/>
    <path id="패스_53140" data-name="패스 53140" d="M181.442,49.117a1.032,1.032,0,0,0-.254-.486,3.36,3.36,0,0,1-.259,1.129A15.072,15.072,0,0,1,174.445,57a10.187,10.187,0,0,1-9.654-.041,10.932,10.932,0,0,1-4.612-5.166,3.3,3.3,0,0,0-.028.487c.055,2.8,2.713,5.727,4.987,6.992a10.188,10.188,0,0,0,9.654.042,15.075,15.075,0,0,0,6.484-7.242,5.684,5.684,0,0,0,.165-2.957" transform="translate(-100.396 -30.355)" fill="#602913"/>
    <path id="패스_53141" data-name="패스 53141" d="M103.283,48.284a2.259,2.259,0,0,1-1.24.847q-1.635.638-3.271,1.272a7.956,7.956,0,0,1-3.48.774c-3.363-.288-6.053-3.131-4.057-6.381a4.061,4.061,0,0,1,.672-.82,8.139,8.139,0,0,1,6.811-1.787,6.293,6.293,0,0,1,2.2,1.068,6.547,6.547,0,0,1,2.427,3.613,1.95,1.95,0,0,1-.062,1.413" transform="translate(-56.765 -26.23)" fill="#6b3217"/>
    <path id="패스_53142" data-name="패스 53142" d="M103.35,52.906a6.166,6.166,0,0,0-.443-1.215,1.269,1.269,0,0,1-.145.448,2.255,2.255,0,0,1-1.24.848l-3.27,1.27a7.927,7.927,0,0,1-3.48.774,5.488,5.488,0,0,1-4.2-2.316c-.224,2.4,2.032,4.265,4.722,4.5a7.935,7.935,0,0,0,3.481-.774l3.27-1.271a2.253,2.253,0,0,0,1.24-.848,1.947,1.947,0,0,0,.063-1.413" transform="translate(-56.77 -32.265)" fill="#602913"/>
    <path id="패스_53143" data-name="패스 53143" d="M64.459,5.094a1.047,1.047,0,0,1,.1,1.695l-.01.009a5.329,5.329,0,0,1-2.141.88L54.938,9.532a2.733,2.733,0,0,1-1.844.021,1.64,1.64,0,0,1-.873-1.522,2.728,2.728,0,0,1,1.2-2.357A10.948,10.948,0,0,1,58.671,3.8a9.844,9.844,0,0,1,5.789,1.3" transform="translate(-32.735 -2.355)" fill="#763a1c"/>
    <path id="패스_53144" data-name="패스 53144" d="M97.321,14.471a4.3,4.3,0,0,1-2.87,1.915c-.867.046-1.706-.392-2.575-.353-1.216.056-2.417,1.031-3.537.556a1.891,1.891,0,0,1-1.066-1.244,2.843,2.843,0,0,1,.72-2.8,7.916,7.916,0,0,1,1.842-1.4,10.026,10.026,0,0,1,7.235-1A2.018,2.018,0,0,1,98.3,13.01a9.022,9.022,0,0,1-.976,1.461" transform="translate(-54.635 -6.152)" fill="#763a1c"/>
    <path id="패스_53145" data-name="패스 53145" d="M128.081,5.2c0,.043-.008.087-.011.132a4.584,4.584,0,0,0,1.49,3.389A4.262,4.262,0,0,0,131.411,9.9a4.08,4.08,0,0,0,4.171-1.85c.479-.682,2.615-3.813,1.572-4.691-1.967-1.655-8.7-1.819-9.072,1.848" transform="translate(-80.281 -1.394)" fill="#763a1c"/>
    <path id="패스_53146" data-name="패스 53146" d="M9.975,19.759a.538.538,0,0,1,.293.558v0a8.422,8.422,0,0,1-.775,2.295,5.31,5.31,0,0,1-2.015,2.714,5.036,5.036,0,0,1-3.389.135A7.018,7.018,0,0,1,2.011,24.8a1.393,1.393,0,0,1-.588-1.758c1.092-2.6,3.574-4.592,6.53-4a7.294,7.294,0,0,1,1.306.4c.243.1.481.2.717.321" transform="translate(-0.822 -11.819)" fill="#763a1c"/>
    <path id="패스_53147" data-name="패스 53147" d="M40.915,56.024c.583-.157,1.246-.541,1.221-1.148a1.183,1.183,0,0,0-.685-.907c-1.422-.785-3.147-.1-4.608-.738-.717-.312-1.824-1.77-2.119-.418-.68,3.116,4.315,3.715,6.192,3.211" transform="translate(-21.728 -32.612)" fill="#763a1c"/>
    <path id="패스_53148" data-name="패스 53148" d="M59.8,36.571a11.307,11.307,0,0,1,3.352-1.832,3.885,3.885,0,0,1,3.621.633c.291.262.536.7.316,1.028a1.008,1.008,0,0,1-.74.313,9.791,9.791,0,0,0-2.955.9,7.133,7.133,0,0,1-2.194.882c-1.068.126-2.72-.986-1.4-1.919" transform="translate(-37.183 -21.571)" fill="#763a1c"/>
    <path id="패스_53149" data-name="패스 53149" d="M64.554,58.454c-.365.346-.726.862-.5,1.315.2.415.766.478,1.22.41,1.243-.187,2.358-.928,3.607-1.075,1.211-.142,2.595.247,3.555-.509a14.243,14.243,0,0,0-1.723-1.747c-.666-.53-.973-.806-1.83-.657a8.691,8.691,0,0,0-4.327,2.263" transform="translate(-40.109 -35.049)" fill="#763a1c"/>
    <path id="패스_53150" data-name="패스 53150" d="M103.195,43.258a1.376,1.376,0,0,1-.115.442,1.93,1.93,0,0,1-1.465.977c-.6.108-1.213.056-1.821.11-.758.066-1.492.3-2.242.438a3.93,3.93,0,0,1-2.25-.118,1.78,1.78,0,0,1-1.119-1.131,8.14,8.14,0,0,1,6.811-1.787,6.3,6.3,0,0,1,2.2,1.069" transform="translate(-59.042 -26.23)" fill="#763a1c"/>
    <path id="패스_53151" data-name="패스 53151" d="M116.124,65.857a1.236,1.236,0,0,0-.612,1.458,1.186,1.186,0,0,0,1.1.6,4.322,4.322,0,0,0,1.288-.3,11.591,11.591,0,0,1,3.685-.553,2.845,2.845,0,0,0,2.245-.542c1.37-1.539-1.042-3.767-2.643-3.1-.7.292-1.217,1.007-1.889,1.375-1,.546-2.222.479-3.176,1.056" transform="translate(-72.365 -39.514)" fill="#763a1c"/>
    <path id="패스_53152" data-name="패스 53152" d="M167.973,48.792a4.5,4.5,0,0,0,3.909,4.622,8.612,8.612,0,0,0,3.439-.634l3.984-1.316c.591-.2,1.29-.522,1.331-1.147s-.616-1.047-1.217-1.18a4.253,4.253,0,0,1-1.754-.508c-.837-.645-.673-1.978-1.234-2.876-.983-1.575-3.543-1.286-5.068-.891a4.539,4.539,0,0,0-3.389,3.93" transform="translate(-105.294 -27.808)" fill="#763a1c"/>
    <path id="패스_53153" data-name="패스 53153" d="M151.262,36.4c.734-.169,1.139-.932,1.617-1.519a4.481,4.481,0,0,1,2.623-1.562c.434-.081.944-.136,1.175-.516a.861.861,0,0,0-.063-.9,1.6,1.6,0,0,0-.754-.555c-1.547-.616-3.89.3-5.241,1.175s-1.631,4.4.643,3.879" transform="translate(-93.765 -19.439)" fill="#763a1c"/>
    <path id="패스_53154" data-name="패스 53154" d="M207.075,27.481c.188.471.47,1.016.972,1.058a.9.9,0,0,0,.872-.82,1.882,1.882,0,0,0-.38-1.24,4.234,4.234,0,0,0-1.141-1.155c-1.822-1.241-.587,1.5-.323,2.157" transform="translate(-129.402 -15.608)" fill="#763a1c"/>
    <path id="패스_53155" data-name="패스 53155" d="M167.567,7.04a.826.826,0,0,1-.544,1.386l-.072,0c-.7.033-1.409-.112-2.11-.035a6.287,6.287,0,0,0-1.93.637,7.987,7.987,0,0,1-1.914.7,2.475,2.475,0,0,1-1.945-.384,2.154,2.154,0,0,1-.573-.8.839.839,0,0,1,.079-.854,6.319,6.319,0,0,1,2.261-1.947,6.02,6.02,0,0,1,6.739,1.283l.009.009" transform="translate(-99.297 -3.259)" fill="#763a1c"/>
  </g>
</svg>
