<svg xmlns="http://www.w3.org/2000/svg" xmlns:xlink="http://www.w3.org/1999/xlink" width="97" height="28" viewBox="0 0 97 28">
  <defs>
    <clipPath id="clip-path">
      <rect id="사각형_16474" data-name="사각형 16474" width="97" height="28" transform="translate(0 -0.142)" fill="none"/>
    </clipPath>
  </defs>
  <g id="그룹_100910" data-name="그룹 100910" transform="translate(0 0.142)" clip-path="url(#clip-path)">
    <path id="패스_53212" data-name="패스 53212" d="M97.033,18.492c-.22.537-.846.651-1.4.727-3.591.483-7.214.963-10.835,1.176a13.215,13.215,0,0,0-1.919.378,49.179,49.179,0,0,1-7.441,1.955,36.244,36.244,0,0,1-5.356.55,36.589,36.589,0,0,1-5.333-.06c-1.593-.2-3.059-.9-4.653-1.056a19.048,19.048,0,0,0-4.451,0c-2.505.348-4.094,1.66-6.461,2.5-5.037,1.8-14.994,2.671-19.322-.556-3.868-2.884.678-4.159-10.448-5.186-5.318-.49-8.459.035-13.379.455-2.089.179-4.8-.455-5.582-2.281a2.947,2.947,0,0,1-.24-1.863A5.115,5.115,0,0,1,2.04,12.775c2.333-2.072,6.175-2.311,9.331-3.521,2.259-.866,3.45-2.09,5.347-3.529C20.809,2.618,26.849.9,31.761,2.075c.8.191,1.462.384,2.075.6a21.538,21.538,0,0,1,2.586-1.405A12.177,12.177,0,0,1,44.027.238c2.444.56,4.5,2.1,6.861,2.918,4.242,1.476,9.12.545,13.338,2.083a16.183,16.183,0,0,1,3.94,2.11,14.535,14.535,0,0,1,5.6.107,26.316,26.316,0,0,1,6.98,3.258c2.425,1.66,4.55,4.159,7.463,4.829a22.535,22.535,0,0,0,3.5.4,12.249,12.249,0,0,1,4.086.779A2.182,2.182,0,0,1,97,17.728a.964.964,0,0,1,.03.763" transform="translate(-0.099 -0.001)" fill="#a15d2d"/>
    <path id="패스_53213" data-name="패스 53213" d="M197.489,26.612c1.079.529,2.335.857,3.081,1.8a5.979,5.979,0,0,0,.747.958c1.073.9,1.856.217,3.079.894.737.408,2.073,1.006,2.849,1.333.491.207,1.184.216,1.354.721.151.445-.541,1.06-.695,1.073-2.3.186-4.891-.83-6.516-1.512a9.641,9.641,0,0,1-3.2-1.61c-1.833-1.333-4.117-2.079-5.624-3.772-1.258-1.413-1.838-3.348-3.179-4.682a6,6,0,0,1-.742-.78c-.205-.3.272-.708.545-.509.614.447,2.259,1.04,2.8,1.567,1.082,1.047,2.263,2.159,3.418,3.13a10.2,10.2,0,0,0,2.08,1.392" transform="translate(-121.11 -13.146)" fill="#763a1c"/>
    <path id="패스_53214" data-name="패스 53214" d="M139.257,18.892a11.023,11.023,0,0,0-1.784-.565c-.736-.154-1.491-.087-2.219-.254a4.428,4.428,0,0,1-1.574-.706c-.992-.706-1.73-1.687-2.661-2.46-1.1-.91-3.557-1.952-4.519-2.948-2.8-2.9-4.871-5.3-8.757-6.722-4.218-1.538-9.1-.606-13.339-2.084C102.046,2.333,99.989.8,97.545.237a12.172,12.172,0,0,0-7.605,1.028A34.394,34.394,0,0,0,83.49,5.417l33.424,17.745c7.512.44,12.408.016,19.485-2.391a17,17,0,0,1,2.1-.411c.447-.089.9-.182,1.336-.3.25-.069.979-.174.668-.57a.814.814,0,0,0-.33-.213c-.3-.129-.6-.259-.913-.382" transform="translate(-53.616 0)" fill="#a15d2d"/>
    <path id="패스_53215" data-name="패스 53215" d="M133.142,27.651c-2.229-.437-8.8-3.24-10.537-4.7-1.58-1.329-2.847-3.014-4.507-4.242-4.186-3.1-10.158-2.817-14.373-5.874-1.438-1.043-2.6-2.429-4.031-3.483a10.805,10.805,0,0,0-5.408-1.887l10.283,15.276Z" transform="translate(-60.549 -4.792)" fill="#804320"/>
    <path id="패스_53216" data-name="패스 53216" d="M69.693,26.215c-4.958.3-9.464-1.637-14.046-1-2.505.348-4.094,1.66-6.461,2.5-5.037,1.8-14.994,2.671-19.322-.556C26,24.277,30.542,23,19.418,21.976c-5.32-.49-8.461.035-13.381.455a6.758,6.758,0,0,1-4.873-1.3,2.857,2.857,0,0,1-.71-.979c-.814-1.892.126-3.026,1.587-4.324,2.331-2.072,6.173-2.311,9.33-3.521,2.259-.866,3.45-2.09,5.347-3.529a19.273,19.273,0,0,1,2.91-1.813A18.381,18.381,0,0,1,31.76,5.126a18.773,18.773,0,0,1,5.9,2.455c4.689,2.715.828,4.391,15.883,8.676,5.372,1.528,4.468,4.057,9.69,6.649.681.338,8.171,2.427,9.423,2.976.367.161-2.311.3-2.963.333" transform="translate(-0.099 -3.052)" fill="#a15d2d"/>
    <path id="패스_53217" data-name="패스 53217" d="M97.036,46.456c-.22.537-.846.651-1.4.727-3.586.483-7.2.961-10.82,1.175l-.029,0a13.006,13.006,0,0,0-1.9.375,49.18,49.18,0,0,1-7.441,1.955,36.243,36.243,0,0,1-5.357.55,36.589,36.589,0,0,1-5.333-.06c-1.593-.2-3.059-.9-4.653-1.056a19.048,19.048,0,0,0-4.451,0c-2.505.348-4.094,1.66-6.461,2.5-5.037,1.8-14.994,2.671-19.322-.556-3.868-2.884.678-4.159-10.448-5.186-5.318-.49-8.459.035-13.379.455-2.089.179-4.8-.455-5.582-2.281a3.4,3.4,0,0,1-.3-1.222.292.292,0,0,1,.485-.222,3.829,3.829,0,0,0,1.214.7,3.8,3.8,0,0,0,1.156.207,5.677,5.677,0,0,1,3,1.037,1.761,1.761,0,0,0,.466.224,5.074,5.074,0,0,0,2.524-.141,29.557,29.557,0,0,1,12.692.1,10.31,10.31,0,0,0,4.416.465,5.005,5.005,0,0,1,1.467-.25c1.44.128,1.944,1.919,2.769,3.105,1.04,1.5,2.875,2.181,4.6,2.782A18.949,18.949,0,0,0,39.385,53a6.364,6.364,0,0,0,4.375-1.035,14.628,14.628,0,0,1,1.806-1.424,4.313,4.313,0,0,1,2.121-.392,25.716,25.716,0,0,0,3.232.172,3.291,3.291,0,0,0,1.355-.409c.5-.289.974-.609,1.484-.872a10,10,0,0,1,2.264-.863,6.506,6.506,0,0,1,4.533.42c.623.329,1.179.778,1.827,1.053a6.781,6.781,0,0,0,2.313.42,67.094,67.094,0,0,0,12.884-.993,42.415,42.415,0,0,0,4.93-.7,93.016,93.016,0,0,1,9.71-1.382c.658-.05.617-.742,1.273-.792.279-.021.677-.8.536-1.039-.352-.6-1.492-.442-1.768-.693a.292.292,0,0,1,.225-.5,10.512,10.512,0,0,1,3.312.721,2.182,2.182,0,0,1,1.21,1.007.964.964,0,0,1,.03.763" transform="translate(-0.101 -27.965)" fill="#763a1c"/>
    <path id="패스_53218" data-name="패스 53218" d="M26.832,61.442a2.277,2.277,0,0,1-.327.972,3.2,3.2,0,0,1-1.413,1.222,6.813,6.813,0,0,1-2.877.449c-4.237-.039-8.378-1.511-12.559-2.2a15.079,15.079,0,0,0-4.791.3,18.129,18.129,0,0,1-2.641.324A2.361,2.361,0,0,1,.338,61.9a.839.839,0,0,1-.062-.089,2.582,2.582,0,0,1,.583-3.023c1.355-1.338,3.28-1.312,5.051-1.178a18.684,18.684,0,0,0,2.709.125c1.163-.082,2.345-.381,3.5-.551,1.558-.229,3.118-.45,4.691-.535a17.7,17.7,0,0,1,6.115,1.16,8.573,8.573,0,0,1,2.633,1.171,2.915,2.915,0,0,1,1.272,2.462" transform="translate(0 -36.371)" fill="#a15d2d"/>
    <path id="패스_53219" data-name="패스 53219" d="M26.6,66.194a2.217,2.217,0,0,1,.055.71c-.032.348-.726.775-.9,1.071-.321.532-.254,1.254-.875,1.363-5.639.988-5.136-.535-6.1-.671-1.923-.27-5.363.2-9.4-1.078a8.276,8.276,0,0,0-4.681.061c-1.82.559-1.721-.124-2.609-.116-.621.006-1.52.361-1.919-.173-.008-.009-.013-.019-.019-.028a1.845,1.845,0,0,0,.224.614.839.839,0,0,0,.062.089,2.363,2.363,0,0,0,1.887.613,18.129,18.129,0,0,0,2.641-.324,15.09,15.09,0,0,1,4.791-.3c4.18.689,8.321,2.16,12.559,2.2a6.817,6.817,0,0,0,2.876-.449A3.2,3.2,0,0,0,26.6,68.551a2.277,2.277,0,0,0,.327-.972,2.422,2.422,0,0,0-.322-1.385" transform="translate(-0.093 -42.509)" fill="#763a1c"/>
    <path id="패스_53220" data-name="패스 53220" d="M21.71,61.3c2.685.344,5.336,1.543,8,1.057.444-.081.978-.339.944-.789-.027-.353-.4-.563-.725-.7a19.018,19.018,0,0,0-10.445-1.191,17.538,17.538,0,0,1-4.241.531,7.937,7.937,0,0,0-3.34,0c-.575.209-1.106.863-.468,1.375.615.494,2.3.085,3.034.018,1.156-.106,2.31-.25,3.468-.337a18.708,18.708,0,0,1,3.774.038" transform="translate(-7.157 -38.153)" fill="#b66e36"/>
    <path id="패스_53221" data-name="패스 53221" d="M177.288,43.795a3.865,3.865,0,0,1,1.636-1.047,4.549,4.549,0,0,1,2.016-.2,4.949,4.949,0,0,1,1.933.7,8.989,8.989,0,0,0,1.525.805,5.113,5.113,0,0,0,1.626.215c.594.008,1.229-.026,1.893.033a4.326,4.326,0,0,1,1.938.628,2.614,2.614,0,0,1,.746.7c.049.069.088.147.131.218s.069.154.1.23.043.161.064.239.02.162.028.24a1.963,1.963,0,0,0-.58-.687,2.672,2.672,0,0,0-.764-.384,4.546,4.546,0,0,0-1.681-.191c-.584.038-1.191.13-1.843.172a7.413,7.413,0,0,1-1.012,0,4.591,4.591,0,0,1-1.056-.214,7.6,7.6,0,0,1-1.747-.985,6.5,6.5,0,0,0-.727-.442,4.029,4.029,0,0,0-.765-.3,5.122,5.122,0,0,0-3.461.274" transform="translate(-113.851 -27.301)" fill="#b66e36"/>
    <path id="패스_53222" data-name="패스 53222" d="M88.05,47.408a5.827,5.827,0,0,0,4.023-1.031,3.889,3.889,0,0,0,.872-.986,6.132,6.132,0,0,1,1-1.238,3.2,3.2,0,0,1,.744-.484,4.576,4.576,0,0,1,.8-.279,5,5,0,0,1,1.657-.131,4.074,4.074,0,0,1,1.652.5,3.2,3.2,0,0,1,.379.26,3.6,3.6,0,0,1,.327.3c.185.192.351.379.512.562a6.786,6.786,0,0,0,.946.947c.039.033.079.057.118.085a1.271,1.271,0,0,0,.339.162,2.118,2.118,0,0,0,.564.079,10.518,10.518,0,0,0,1.382-.138,6.031,6.031,0,0,1,1.583-.055,4.108,4.108,0,0,1,1.5.553c.44.254.841.531,1.257.759a3.843,3.843,0,0,0,.657.279,3.172,3.172,0,0,0,.713.153,3.264,3.264,0,0,1-1.5-.1c-.493-.145-.946-.356-1.393-.521a3.715,3.715,0,0,0-1.3-.285,6.029,6.029,0,0,0-1.341.2,9.053,9.053,0,0,1-1.53.275,2.98,2.98,0,0,1-.895-.072,2.428,2.428,0,0,1-.456-.161c-.073-.033-.148-.076-.214-.114s-.129-.078-.187-.121a7.484,7.484,0,0,1-1.172-1.088c-.168-.181-.327-.361-.485-.52a2.191,2.191,0,0,0-.213-.2,1.882,1.882,0,0,0-.229-.153,2.917,2.917,0,0,0-1.142-.353,4.144,4.144,0,0,0-1.267.051,3.449,3.449,0,0,0-.6.174,2.167,2.167,0,0,0-.508.28,5.9,5.9,0,0,0-.924.978A4.42,4.42,0,0,1,92.5,47.05a5.464,5.464,0,0,1-1.466.551,5.526,5.526,0,0,1-1.524.136,3.994,3.994,0,0,1-1.463-.329" transform="translate(-56.544 -27.768)" fill="#b66e36"/>
    <path id="패스_53223" data-name="패스 53223" d="M11.182,34.811a4.031,4.031,0,0,1,1.708-1.048,8.553,8.553,0,0,1,1.99-.423A8.946,8.946,0,0,1,15.9,33.3c.343,0,.69.028,1.022.059a12.734,12.734,0,0,0,1.906.108,4.5,4.5,0,0,0,1.7-.46A10.208,10.208,0,0,0,22.1,31.985c.265-.2.518-.4.817-.6a6.876,6.876,0,0,1,.943-.542,4.334,4.334,0,0,1,3.355-.208,4.23,4.23,0,0,1,1.033.527,11.259,11.259,0,0,1,1.52,1.428,3.386,3.386,0,0,0,1.394.939,2.782,2.782,0,0,0,.815.133,3.848,3.848,0,0,0,.87-.1c.6-.125,1.222-.356,1.892-.52a6.6,6.6,0,0,1,1.039-.177,4.226,4.226,0,0,1,1.073.05,4.12,4.12,0,0,1,1.9.859,2.327,2.327,0,0,1,.642.826,1.147,1.147,0,0,1-.02,1,1.084,1.084,0,0,0-.15-.914,2.083,2.083,0,0,0-.679-.631,3.98,3.98,0,0,0-2.676-.473,5.832,5.832,0,0,0-.9.252c-.6.211-1.2.491-1.885.69a4.834,4.834,0,0,1-1.088.193A3.844,3.844,0,0,1,30.86,34.6a3.742,3.742,0,0,1-1.063-.463,5.8,5.8,0,0,1-.865-.686,11.251,11.251,0,0,0-1.39-1.26,2.979,2.979,0,0,0-.731-.367,3.555,3.555,0,0,0-.81-.166,3.357,3.357,0,0,0-1.624.307,9.352,9.352,0,0,0-1.585.975,10.147,10.147,0,0,1-1.808,1.052,5.324,5.324,0,0,1-2.133.431,11.3,11.3,0,0,1-2.037-.288c-.322-.064-.633-.117-.95-.151s-.638-.051-.96-.06a9.268,9.268,0,0,0-1.926.155,5.565,5.565,0,0,0-.935.263,3.338,3.338,0,0,0-.861.468" transform="translate(-7.181 -19.516)" fill="#b66e36"/>
    <path id="패스_53224" data-name="패스 53224" d="M127.28,18.228a3.174,3.174,0,0,1,1.048-.612,7.8,7.8,0,0,1,1.2-.353,10.866,10.866,0,0,1,2.528-.236c.216.007.435.02.657.046.111.014.223.03.336.051s.229.047.336.075a8.042,8.042,0,0,1,1.226.433c.762.338,1.438.711,2.12.948a5.182,5.182,0,0,0,1.035.253,7.534,7.534,0,0,0,1.108.064c.76-.01,1.554-.1,2.368-.18a14.439,14.439,0,0,1,2.511-.071,5.8,5.8,0,0,1,1.246.233,2.575,2.575,0,0,1,1.064.585,3.055,3.055,0,0,0-1.135-.317,7.064,7.064,0,0,0-1.18-.006c-.2.016-.39.036-.584.064s-.389.065-.584.1c-.39.075-.78.159-1.175.243a17.449,17.449,0,0,1-2.477.394,7.461,7.461,0,0,1-1.333-.023,5.914,5.914,0,0,1-1.324-.3,18.931,18.931,0,0,1-2.222-1.042,7.924,7.924,0,0,0-1.013-.432c-.086-.03-.168-.056-.25-.078s-.172-.043-.262-.061c-.179-.037-.366-.069-.555-.094a14.487,14.487,0,0,0-2.35-.1,11.2,11.2,0,0,0-1.188.1,5.059,5.059,0,0,0-.585.115,3,3,0,0,0-.566.195" transform="translate(-81.737 -10.933)" fill="#804320"/>
    <path id="패스_53225" data-name="패스 53225" d="M101.882,35.3a2.573,2.573,0,0,0,.922.317,3.664,3.664,0,0,0,.945,0,7.882,7.882,0,0,0,1.841-.5,12.841,12.841,0,0,1,1.967-.625,4.732,4.732,0,0,1,1.112-.1,3.666,3.666,0,0,1,1.137.235,8.668,8.668,0,0,1,1.813,1.084,4.383,4.383,0,0,0,1.6.8,4.053,4.053,0,0,0,1.816-.095c.314-.075.627-.175.943-.279s.631-.223.952-.331c-.263.214-.536.413-.82.6a7.279,7.279,0,0,1-.9.51,4.964,4.964,0,0,1-1,.355,3.475,3.475,0,0,1-2.206-.2,6.892,6.892,0,0,1-.944-.5,10.175,10.175,0,0,0-1.636-.931,3.259,3.259,0,0,0-1.691-.141c-.606.084-1.235.268-1.893.427a6.54,6.54,0,0,1-2.082.219,3.323,3.323,0,0,1-1.034-.243,2.631,2.631,0,0,1-.461-.254c-.071-.051-.135-.111-.2-.164s-.12-.123-.177-.185" transform="translate(-65.427 -22.087)" fill="#804320"/>
    <path id="패스_53226" data-name="패스 53226" d="M57.185,11.826c.629.551,1.77.51,2.084,1.286.174.432-.012.939.133,1.381a1.392,1.392,0,0,0,1.752.674A6.585,6.585,0,0,0,62.9,14.055a7.075,7.075,0,0,1,6.848-.706,21.813,21.813,0,0,0,3.08,1.474,2.433,2.433,0,0,0,2.925-1.093,2.2,2.2,0,0,0-.734-2.338,25.256,25.256,0,0,0-4.694-2.509C66.763,7.82,66.276,7.463,62.6,7.463A8.612,8.612,0,0,0,58.15,8.651c-.938.629-2.171,2.118-.965,3.175" transform="translate(-36.402 -4.792)" fill="#b66e36"/>
    <path id="패스_53227" data-name="패스 53227" d="M109.735,2.686a33.614,33.614,0,0,1,3.579,1.468c.422.2,1.058.433,1.488.617l.013.005a.379.379,0,0,1-.28.7,17.062,17.062,0,0,0-3.391-.8c-1.515-.176-3.218.554-4.571-.15a3.855,3.855,0,0,0-2.736-.556c-.212.027-1.957-.07-1.956-.326,0-.223,1.391-.617,1.548-.667a10.353,10.353,0,0,1,6.305-.3" transform="translate(-65.427 -1.484)" fill="#b66e36"/>
    <path id="패스_53228" data-name="패스 53228" d="M164.9,30.286c.112-.108.231-.207.352-.306s.249-.186.377-.275a8.71,8.71,0,0,1,.8-.485,10.883,10.883,0,0,1,1.717-.739,10.328,10.328,0,0,1,1.84-.443,6.667,6.667,0,0,1,1.973-.011,5.159,5.159,0,0,1,.98.267,6.794,6.794,0,0,1,.89.405,15.041,15.041,0,0,1,1.568,1,10.193,10.193,0,0,0,3.093,1.731,4.45,4.45,0,0,1-1.864-.186,11.137,11.137,0,0,1-1.725-.716c-.544-.273-1.069-.547-1.589-.776-.261-.113-.52-.214-.78-.3a5.259,5.259,0,0,0-.772-.188,7.586,7.586,0,0,0-1.643-.025c-.568.041-1.144.123-1.723.22a29.637,29.637,0,0,0-3.494.82" transform="translate(-105.894 -17.955)" fill="#804320"/>
  </g>
</svg>
