<svg xmlns="http://www.w3.org/2000/svg" width="36" height="36" viewBox="0 0 36 36">
    <g transform="translate(-4 -5)">
        <rect data-name="사각형 13546" width="36" height="36" rx="18" transform="translate(4 5)" style="fill:#fff"/>
        <path data-name="합치기 21" d="M-50.166 220.948a.983.983 0 0 1 .824-1.085l5.353-.031a.978.978 0 0 1 .823 1.081.984.984 0 0 1-.824 1.087l-5.354.031a.976.976 0 0 1-.822-1.083zm0-6a.983.983 0 0 1 .824-1.084l3.353-.031a.977.977 0 0 1 .823 1.08.984.984 0 0 1-.824 1.087l-3.354.031a.976.976 0 0 1-.822-1.083zm0-6a.983.983 0 0 1 .824-1.084l5.353-.031a.978.978 0 0 1 .823 1.081.983.983 0 0 1-.824 1.086l-5.354.031a.976.976 0 0 1-.822-1.083z" transform="translate(64.166 -192.337)" style="fill:#222"/>
        <path data-name="합치기 22" d="m-45.388 221.365-4.693-6.64a1.153 1.153 0 0 1-.27-.807 1.153 1.153 0 0 1 .271-.788l4.692-6.639a1.1 1.1 0 0 1 1.552-.168 1.11 1.11 0 0 1 .1 1.562L-48 213.927l4.271 6.044a1.109 1.109 0 0 1-.1 1.561 1.05 1.05 0 0 1-.679.246 1.14 1.14 0 0 1-.88-.413z" transform="translate(73.352 -191.077)" style="fill:#222"/>
    </g>
</svg>
