<svg xmlns="http://www.w3.org/2000/svg" xmlns:xlink="http://www.w3.org/1999/xlink" width="86" height="30" viewBox="0 0 86 30">
  <defs>
    <clipPath id="clip-path">
      <rect id="사각형_16475" data-name="사각형 16475" width="86" height="30" transform="translate(0.5 0.389)" fill="none"/>
    </clipPath>
  </defs>
  <g id="그룹_100913" data-name="그룹 100913" transform="translate(-0.5 -0.389)" clip-path="url(#clip-path)">
    <path id="패스_53229" data-name="패스 53229" d="M50.453,69.47a17.875,17.875,0,0,0,8.834-.771c.7-.289,1.446-.761,1.542-1.512.127-.983-.915-1.684-1.837-2.038a16.067,16.067,0,0,0-10.767-.183c-4.192,1.393-.58,4.188,2.228,4.5" transform="translate(-31.689 -43.788)" fill="#b66e36"/>
    <path id="패스_53230" data-name="패스 53230" d="M103.008,87.465c.065-.746-.781-1.223-1.512-1.367-1.192-.235-6.053-.475-3.881,1.672.94.93,5.213,1.754,5.393-.305" transform="translate(-66.411 -58.689)" fill="#b66e36"/>
    <path id="패스_53231" data-name="패스 53231" d="M22.808,1.261c3.861-1,7.941-1.8,11.8-.8,4.681,1.216,8.308,4.891,12.684,6.955,5.325,2.512,11.424,2.512,17.262,3.243a66.694,66.694,0,0,1,14.234,3.4c3.19,1.145,6.735,3.091,7.171,6.465a6.686,6.686,0,0,1-3.1,6.04A16.98,16.98,0,0,1,76.2,28.921a132.164,132.164,0,0,1-24.532,1.858c-4.4,0-9.164-.239-12.568-3.037-2.054-1.689-3.358-4.129-5.275-5.973-3.863-3.717-9.774-4.536-15.04-3.589-2.959.533-5.83,1.554-8.822,1.848s-6.276-.273-8.369-2.44a6.2,6.2,0,0,1-1.117-6.6c.812-2.168,2.334-2.7,4.38-3.584A123.267,123.267,0,0,1,22.808,1.261" transform="translate(0 0)" fill="#b66e36"/>
    <path id="패스_53232" data-name="패스 53232" d="M146.08,8.153A3.657,3.657,0,0,0,148.2,9.366a19.856,19.856,0,0,0,2.467.284,15.907,15.907,0,0,1,3.6.786,3.078,3.078,0,0,0,1.814.269,1.744,1.744,0,0,0,1.077-2,2.843,2.843,0,0,0-1.537-1.86,8.367,8.367,0,0,0-2.38-.7c-1.75-.329-4.151-1.295-5.922-1.155a1.891,1.891,0,0,0-1.232,3.161" transform="translate(-99.591 -3.399)" fill="#b66e36"/>
    <path id="패스_53233" data-name="패스 53233" d="M104.763,88.531a.648.648,0,0,0,.255-.078.242.242,0,0,0,.12-.226c-.017-.115-.136-.184-.246-.22a1.406,1.406,0,0,0-.766-.035,2.828,2.828,0,0,1-.674.16c-.409-.006-.765-.254-1.184-.136-.236.066-.571.248-.289.449s1.034.124,1.367.14a7.219,7.219,0,0,0,1.417-.053" transform="translate(-69.701 -60.045)" fill="#c1773a"/>
    <path id="패스_53234" data-name="패스 53234" d="M77.369,72.172a.8.8,0,0,1-.251.082l-1.273.262a15,15,0,0,1-2.33.353.607.607,0,0,1-.5-.14.424.424,0,0,1,.026-.516,1.127,1.127,0,0,1,.459-.31,9.444,9.444,0,0,1,1.617-.553,8.931,8.931,0,0,1,1.254-.168,1.834,1.834,0,0,1,.68.024.809.809,0,0,1,.294.151.526.526,0,0,1,.027.815" transform="translate(-49.903 -48.592)" fill="#c1773a"/>
    <path id="패스_53235" data-name="패스 53235" d="M247.694,61.247a11.079,11.079,0,0,0,1.714-2.3,2.2,2.2,0,0,0,.035-1.821,1.79,1.79,0,0,0-1.646-.974c-1.578.062-1.733,1.662-2.19,2.813-.432,1.086-1.456,1.667-2.17,2.534-.469.569-1.255,1.612-.172,2.011s3.73-1.6,4.428-2.262" transform="translate(-166.071 -38.342)" fill="#c1773a"/>
    <path id="패스_53236" data-name="패스 53236" d="M10.656,46.729a.929.929,0,0,0,.627.783,2.713,2.713,0,0,0,1.048.117l5.727-.116c.283-.006.626-.049.74-.309a.519.519,0,0,0-.217-.6,1.5,1.5,0,0,0-.646-.206l-4.414-.695c-.636-.1-2.887-.006-2.864,1.022" transform="translate(-7.291 -31.189)" fill="#c1773a"/>
    <path id="패스_53237" data-name="패스 53237" d="M47.549,48.3c.21.029.452.087.542.28.122.263-.133.549-.39.681-1.115.573-2.5.018-3.706.349a5.41,5.41,0,0,1-.766.212c-.443.054-.967-.249-.788-.769.147-.425.748-.486,1.123-.573a11.043,11.043,0,0,1,3.986-.181" transform="translate(-29.013 -32.91)" fill="#c1773a"/>
    <path id="패스_53238" data-name="패스 53238" d="M50.7,67.955A.779.779,0,0,0,51,68.24a3.707,3.707,0,0,0,2.7.292c.908-.185,1.787-.521,2.708-.622a12.387,12.387,0,0,0,3.274-.314c.226-.09.478-.285.416-.522a.5.5,0,0,0-.357-.3,4.339,4.339,0,0,0-1.074-.188,25.641,25.641,0,0,0-3.795-.029q-.961.064-1.915.2c-.433.062-.891.07-1.317.161s-1.232.447-.933,1.031" transform="translate(-34.648 -45.412)" fill="#c1773a"/>
    <path id="패스_53239" data-name="패스 53239" d="M106.076,53.023a40.039,40.039,0,0,1,5.475,4.287,17.077,17.077,0,0,0,5.9,3.595c2.815.85,5.888.418,8.7,1.334a.97.97,0,0,1,.68.9c0,.716-.791.9-1.419.956a32.509,32.509,0,0,1-7.956.021,10.967,10.967,0,0,1-6.892-3.663c-.944-1.183-1.552-2.618-2.568-3.739a13.331,13.331,0,0,0-3.738-2.587c-.434-.232-3.839-1.65-2.919-2.566.712-.709,4.079,1.049,4.735,1.461" transform="translate(-69.231 -35.095)" fill="#c1773a"/>
    <path id="패스_53240" data-name="패스 53240" d="M195.206,86.833c0,.488-.924.884-2.064.884s-2.064-.4-2.064-.884.924-.884,2.064-.884,2.064.4,2.064.884" transform="translate(-130.737 -58.689)" fill="#c1773a"/>
    <path id="패스_53241" data-name="패스 53241" d="M37.435,41.967c.017.378-.651.715-1.494.754s-1.539-.237-1.556-.614.651-.715,1.494-.754,1.539.237,1.556.614" transform="translate(-23.526 -28.234)" fill="#c1773a"/>
    <path id="패스_53242" data-name="패스 53242" d="M90.4,25.321a7.144,7.144,0,0,0-2.467-1.539c-7.557-3.246-15.981-3.541-24.132-4.6-3.018-.393-6.19-.974-8.494-2.971-1.53-1.326-2.585-3.209-4.336-4.221-2.96-1.71-6.535-.414-9.569.357-3.551.9-7.341.163-10.875,1.134a24.484,24.484,0,0,0-6.193,3.03c-.633.389-1.269.773-1.905,1.156a1.089,1.089,0,0,0-.52.507.713.713,0,0,0,.155.671,2.768,2.768,0,0,0,1.957.748,67.528,67.528,0,0,0,16.812-1.8c2.66-.63,5.464-1.42,8.068-.588a11.6,11.6,0,0,1,6.167,4.659,22.933,22.933,0,0,0,13.123,10,32.627,32.627,0,0,0,9.763,1.064c1.552-.043,3.084-.2,4.613-.392a19.909,19.909,0,0,0,4.724-.826c2.314-.875,5.426-3.916,3.108-6.388" transform="translate(-14.97 -7.609)" fill="#c1773a"/>
    <path id="패스_53243" data-name="패스 53243" d="M149.955,9.669a2.944,2.944,0,0,0,1.515,0c1.11-.083,2.16.545,3.273.59.334.014.742-.082.838-.4a.592.592,0,0,0-.181-.566,1.725,1.725,0,0,0-.53-.32,9.9,9.9,0,0,0-4.281-1.186c-.952.034-1.768,1.326-.633,1.882" transform="translate(-102.222 -5.315)" fill="#c1773a"/>
    <path id="패스_53244" data-name="패스 53244" d="M174.6,13.955c-.007-1.1-3.281-2.192-1.786-.254.448.58.229,1.186.677,1.292.57.135,1.112-.518,1.109-1.038" transform="translate(-117.975 -8.629)" fill="#c1773a"/>
    <path id="패스_53245" data-name="패스 53245" d="M173.275,13.694c.335.356.579.086,1.23.912a.231.231,0,0,0,.307.008.2.2,0,0,0,.059-.188.716.716,0,0,0-.07-.245,1.625,1.625,0,0,0-.629-.533,3.365,3.365,0,0,0-.718-.2c-.234-.055-.316.1-.178.247" transform="translate(-118.51 -9.174)" fill="#cc844e"/>
    <path id="패스_53246" data-name="패스 53246" d="M150.628,8.981a.331.331,0,0,0-.14.187c-.026.139.117.262.257.274a.914.914,0,0,0,.405-.1,3.034,3.034,0,0,1,2.229,0,3.328,3.328,0,0,0,.973.336.079.079,0,0,0,.08-.11.669.669,0,0,0-.262-.274,1.762,1.762,0,0,0-.469-.171,12,12,0,0,0-1.288-.28,5.521,5.521,0,0,0-1.266-.044.892.892,0,0,0-.519.186" transform="translate(-102.963 -5.993)" fill="#cc844e"/>
    <path id="패스_53247" data-name="패스 53247" d="M165.778,12.7a.127.127,0,0,0,.075,0,.089.089,0,0,0,.036-.1.233.233,0,0,0-.07-.1c-.108-.1-.859-.6-.931-.3-.036.145.247.277.346.33a1.656,1.656,0,0,0,.544.181" transform="translate(-112.815 -8.262)" fill="#cc844e"/>
    <path id="패스_53248" data-name="패스 53248" d="M62.058,41.042A33.988,33.988,0,0,0,66.7,42.929a.958.958,0,0,0,.5.022c.313-.1.316-.394.183-.645-.183-.343-.561-.433-.888-.583-.269-.123-.541-.363-.51-.658a.758.758,0,0,1,.482-.535,4.661,4.661,0,0,1,2.643-.261c.7.086,1.778.449,2.395-.052A1.157,1.157,0,0,0,71.819,39a2.162,2.162,0,0,0-.791-1.043,6.707,6.707,0,0,0-3.981-1.093,49.873,49.873,0,0,0-7.891.591c-1,.134-2.007.282-3.009.435-.943.143-2.594.14-3.268.944-.786.938,1.277.822,1.679.805a16.934,16.934,0,0,1,4.651.494,20.275,20.275,0,0,1,2.851.909" transform="translate(-36.058 -25.165)" fill="#c1773a"/>
    <path id="패스_53249" data-name="패스 53249" d="M78.674,43.252a.192.192,0,0,1-.24.144,7.71,7.71,0,0,1-.977-.483c-.418-.2-.839-.383-1.267-.556a21.338,21.338,0,0,0-3-.957,1.656,1.656,0,0,0-.178-.03.27.27,0,0,1,0-.535l.021,0a53.081,53.081,0,0,1,7-.592q.363,0,.726.01a5.828,5.828,0,0,1,3.357.87,1.086,1.086,0,0,1,.419.5.1.1,0,0,1,0,.06c-.015.042-.069.051-.114.053a4.27,4.27,0,0,1-.81-.033,7.016,7.016,0,0,1-1.194-.342,3.576,3.576,0,0,0-.668-.2,9.5,9.5,0,0,0-3.6.313c-.6.293.667,1.171.527,1.782" transform="translate(-49.792 -27.479)" fill="#cc844e"/>
    <path id="패스_53250" data-name="패스 53250" d="M43.3,18.513c8.921-1.111,9.444-2.451,8.869-2.9C51.376,15,45.882,16.4,42.79,17.1c-4.009.911-5.033-.151-8.963,1.069-.506.157-5.141,2.385-5.391,2.963-.349.8,1.286.45,1.757.23a23.388,23.388,0,0,1,5.48-1.876C38,19,40.942,18.807,43.3,18.513" transform="translate(-19.422 -10.56)" fill="#cc844e"/>
    <path id="패스_53251" data-name="패스 53251" d="M165.688,44.345c1.08.485,2.362,1.014,2.783,2.124A1.655,1.655,0,0,1,168.417,48a1.8,1.8,0,0,1-1.433,1.007c-1.963.311-3.274-.595-4.672-2.014a12.319,12.319,0,0,0-2.553-1.739,7.1,7.1,0,0,0-2.582-.687l-10.2-1.369a11.8,11.8,0,0,1-3.483-.835,4.238,4.238,0,0,1-1.933-1.669c-.639-1.193.49-.722,1.172-.48a27.6,27.6,0,0,0,5.511,1.267c3.757.515,7.565.543,11.312,1.135a24.148,24.148,0,0,1,6.136,1.724" transform="translate(-96.725 -27.259)" fill="#cc844e"/>
    <path id="패스_53252" data-name="패스 53252" d="M119.3,26.784c.875.406,1.828.642,2.66,1.13.185.108.384.268.374.483a.423.423,0,0,1-.329.359,1.17,1.17,0,0,1-.583-.045,6.489,6.489,0,0,1-1.747-.738,10.232,10.232,0,0,1-3.465-2.657c-.387-.576-.644-1.209-1.058-1.744a.239.239,0,0,1,.284-.368c.481.239.7.8,1.069,1.312a7.28,7.28,0,0,0,2.794,2.266" transform="translate(-78.756 -15.828)" fill="#cc844e"/>
    <path id="패스_53253" data-name="패스 53253" d="M173.625,57.276a4.957,4.957,0,0,1,2.929,1.213.65.65,0,0,1,.212.663.611.611,0,0,1-.462.292,5.835,5.835,0,0,1-2.629-.546,14.617,14.617,0,0,0-3.514-.278,5.561,5.561,0,0,1-3.342-.955c-.416-.331-1.05-1.016-.2-1.215a7.685,7.685,0,0,1,2.3.173q2.366.257,4.713.653" transform="translate(-113.713 -38.511)" fill="#cc844e"/>
    <path id="패스_53254" data-name="패스 53254" d="M248.714,63.28a.746.746,0,0,0-.271.317.29.29,0,0,0,.105.368c.129.062.269-.037.395-.106.876-.485,4.04-4.141,2.854-4.436-1.129-.281-1.107,2.461-3.083,3.857" transform="translate(-169.969 -40.562)" fill="#cc844e"/>
    <path id="패스_53255" data-name="패스 53255" d="M244,75.075a.13.13,0,0,0,.028.154.181.181,0,0,0,.151.01,1.664,1.664,0,0,0,.94-.632.142.142,0,0,0,.036-.133.13.13,0,0,0-.111-.06.793.793,0,0,0-.517.145,1.572,1.572,0,0,0-.528.516" transform="translate(-166.937 -50.81)" fill="#cc844e"/>
    <path id="패스_53256" data-name="패스 53256" d="M168.7,86.532c.241.008,1.3.124,1.34-.115.057-.364-.289-.444-.505-.542-.928-.422-3.966-.581-4.066.085-.108.717,1.067.774,1.476.766.755-.013,1-.22,1.755-.194" transform="translate(-113.211 -58.388)" fill="#cc844e"/>
    <path id="패스_53257" data-name="패스 53257" d="M120.976,62.946a26.944,26.944,0,0,1,1.6,2.326,12.46,12.46,0,0,0,3.375,3.467,7.888,7.888,0,0,0,4.581,1.377c.308-.012.2-.383.453-.555s1.473-.184,1.354-.47c-.183-.441-1.414-.419-1.889-.391a6.941,6.941,0,0,1-4.418-1.53,31.835,31.835,0,0,1-3.477-3.27,10.3,10.3,0,0,0-3.472-2.639c.063.342.514.484.778.662a5.458,5.458,0,0,1,1.112,1.023" transform="translate(-81.479 -41.831)" fill="#cc844e"/>
    <path id="패스_53258" data-name="패스 53258" d="M77.961,72.308c.087-.015.2-.05.2-.139a.138.138,0,0,0-.1-.131.393.393,0,0,0-.172-.011,11.97,11.97,0,0,0-2.439.468c-.12.036-.512.1-.578.2-.119.189.242.084.313.072l1.3-.215,1.472-.245" transform="translate(-51.217 -49.18)" fill="#cc844e"/>
    <path id="패스_53259" data-name="패스 53259" d="M104.042,88.843c.051.011.12.014.14-.035s-.039-.1-.091-.122c-.082-.035-.687-.21-.693-.064s.55.2.644.221" transform="translate(-70.745 -60.475)" fill="#cc844e"/>
    <path id="패스_53260" data-name="패스 53260" d="M109.832,88.82c.03,0,.064-.013.077-.04.021-.044-.03-.087-.074-.106-.13-.056-.554-.175-.593.059s.464.107.59.087" transform="translate(-74.742 -60.495)" fill="#cc844e"/>
    <path id="패스_53261" data-name="패스 53261" d="M53.047,68.985a1.049,1.049,0,0,0,.487.145c1.083.093,2.083-.613,3.166-.694a2.926,2.926,0,0,0,.81-.1c.114-.042.236-.139.213-.259s-.153-.162-.266-.182a4.671,4.671,0,0,0-1.031-.038q-1.014.043-2.023.15c-.331.035-.661.088-.993.119-.178.017-.339,0-.474.133a.458.458,0,0,0,.11.725" transform="translate(-36.128 -46.329)" fill="#cc844e"/>
    <path id="패스_53262" data-name="패스 53262" d="M72.782,68.427a.687.687,0,0,0,.295-.052.218.218,0,0,0-.01-.415.711.711,0,0,0-.237-.039,8.421,8.421,0,0,0-1.761.035.363.363,0,0,0-.264.128c-.182.288.634.287.76.3a10.754,10.754,0,0,0,1.217.043" transform="translate(-48.427 -46.359)" fill="#cc844e"/>
    <path id="패스_53263" data-name="패스 53263" d="M55.467,42.76a2.8,2.8,0,0,0,.9,0,21.552,21.552,0,0,1,3.018-.107c.108,0,.244-.01.282-.112a.177.177,0,0,0-.061-.184.387.387,0,0,0-.184-.087,9.249,9.249,0,0,0-3.619.082c-.2.037-.784.311-.335.411" transform="translate(-37.837 -28.764)" fill="#cc844e"/>
    <path id="패스_53264" data-name="패스 53264" d="M47.979,49.2a.964.964,0,0,0,.363-.006.311.311,0,0,0,.237-.25c.018-.219-.252-.331-.468-.364a7.366,7.366,0,0,0-3.3.246,1.44,1.44,0,0,0-.667.293c-.143.171-.1.3.118.325a3.671,3.671,0,0,0,.85-.161q.432-.07.868-.106a10.781,10.781,0,0,1,2,.023" transform="translate(-30.145 -33.116)" fill="#cc844e"/>
    <path id="패스_53265" data-name="패스 53265" d="M36.265,42.421l.022.009a.743.743,0,0,0,.267.032c.139,0,.337-.089.476-.08.277.018.551.026.825.068.112.017.318.041.309-.119-.007-.114-.153-.183-.247-.219a1.845,1.845,0,0,0-.433-.091,2.62,2.62,0,0,0-.741.021c-.075.013-.152.023-.226.039a.812.812,0,0,0-.26.091.224.224,0,0,0-.083.086.1.1,0,0,0,.037.129.223.223,0,0,0,.057.034" transform="translate(-24.742 -28.681)" fill="#cc844e"/>
    <path id="패스_53266" data-name="패스 53266" d="M12.721,47.147a.377.377,0,0,0,.053.007,1.557,1.557,0,0,0,.368-.054,6.55,6.55,0,0,1,1.634-.048c.554.046,1.1.136,1.65.223s1.1.172,1.656.205c.159.01.317.019.476.021a1.621,1.621,0,0,0,.459-.034c.1-.029.213-.142.139-.248a.157.157,0,0,0-.081-.056.5.5,0,0,0-.134-.018,20.687,20.687,0,0,1-3.076-.532,6.692,6.692,0,0,0-2.022-.115c-.216.026-.434.047-.649.085a1.421,1.421,0,0,0-.62.174.212.212,0,0,0-.092.17.2.2,0,0,0,.063.132.336.336,0,0,0,.176.088" transform="translate(-8.54 -31.727)" fill="#cc844e"/>
    <path id="패스_53267" data-name="패스 53267" d="M52.546,29.523a.263.263,0,0,1,.057.515l-.008,0c-2.506.669-5.225.192-7.695.983a2.3,2.3,0,0,1-1.049.195c-.229-.039-.549-.21-.352-.473.146-.2.868-.283,1.1-.349q.585-.163,1.18-.3a24.858,24.858,0,0,1,4.787-.6q.989-.028,1.978.024" transform="translate(-29.719 -20.136)" fill="#cc844e"/>
    <path id="패스_53268" data-name="패스 53268" d="M104.673,25.114a.353.353,0,0,1,.146.179.251.251,0,0,1-.189.274.724.724,0,0,1-.362-.018c-.51-.114-2.925-.306-2.206-1.1.625-.689,2.077.255,2.611.663" transform="translate(-69.741 -16.529)" fill="#cc844e"/>
  </g>
</svg>
