<svg xmlns="http://www.w3.org/2000/svg" width="318" height="211" viewBox="0 0 318 211"><g transform="translate(-32 -252.498)"><path d="M318,.5h-2v-1h2Zm-4,0h-2v-1h2Zm-4,0h-2v-1h2Zm-4,0h-2v-1h2Zm-4,0h-2v-1h2Zm-4,0h-2v-1h2Zm-4,0h-2v-1h2Zm-4,0h-2v-1h2Zm-4,0h-2v-1h2Zm-4,0h-2v-1h2Zm-4,0h-2v-1h2Zm-4,0h-2v-1h2Zm-4,0h-2v-1h2Zm-4,0h-2v-1h2Zm-4,0h-2v-1h2Zm-4,0h-2v-1h2Zm-4,0h-2v-1h2Zm-4,0h-2v-1h2Zm-4,0h-2v-1h2Zm-4,0h-2v-1h2Zm-4,0h-2v-1h2Zm-4,0h-2v-1h2Zm-4,0h-2v-1h2Zm-4,0h-2v-1h2Zm-4,0h-2v-1h2Zm-4,0h-2v-1h2Zm-4,0h-2v-1h2Zm-4,0h-2v-1h2Zm-4,0h-2v-1h2Zm-4,0h-2v-1h2Zm-4,0h-2v-1h2Zm-4,0h-2v-1h2Zm-4,0h-2v-1h2Zm-4,0h-2v-1h2Zm-4,0h-2v-1h2Zm-4,0h-2v-1h2Zm-4,0h-2v-1h2Zm-4,0h-2v-1h2Zm-4,0h-2v-1h2Zm-4,0h-2v-1h2Zm-4,0h-2v-1h2Zm-4,0h-2v-1h2Zm-4,0h-2v-1h2Zm-4,0h-2v-1h2Zm-4,0h-2v-1h2Zm-4,0h-2v-1h2Zm-4,0h-2v-1h2Zm-4,0h-2v-1h2Zm-4,0h-2v-1h2Zm-4,0h-2v-1h2Zm-4,0h-2v-1h2Zm-4,0h-2v-1h2Zm-4,0h-2v-1h2Zm-4,0h-2v-1h2Zm-4,0h-2v-1h2Zm-4,0H96v-1h2Zm-4,0H92v-1h2Zm-4,0H88v-1h2Zm-4,0H84v-1h2Zm-4,0H80v-1h2Zm-4,0H76v-1h2Zm-4,0H72v-1h2Zm-4,0H68v-1h2Zm-4,0H64v-1h2Zm-4,0H60v-1h2Zm-4,0H56v-1h2Zm-4,0H52v-1h2Zm-4,0H48v-1h2Zm-4,0H44v-1h2Zm-4,0H40v-1h2Zm-4,0H36v-1h2Zm-4,0H32v-1h2Zm-4,0H28v-1h2Zm-4,0H24v-1h2Zm-4,0H20v-1h2Zm-4,0H16v-1h2Zm-4,0H12v-1h2Zm-4,0H8v-1h2ZM6,.5H4v-1H6ZM2,.5H0v-1H2Z" transform="translate(32 462.998)" fill="#d8d8d8"/><path d="M318,.5h-2v-1h2Zm-4,0h-2v-1h2Zm-4,0h-2v-1h2Zm-4,0h-2v-1h2Zm-4,0h-2v-1h2Zm-4,0h-2v-1h2Zm-4,0h-2v-1h2Zm-4,0h-2v-1h2Zm-4,0h-2v-1h2Zm-4,0h-2v-1h2Zm-4,0h-2v-1h2Zm-4,0h-2v-1h2Zm-4,0h-2v-1h2Zm-4,0h-2v-1h2Zm-4,0h-2v-1h2Zm-4,0h-2v-1h2Zm-4,0h-2v-1h2Zm-4,0h-2v-1h2Zm-4,0h-2v-1h2Zm-4,0h-2v-1h2Zm-4,0h-2v-1h2Zm-4,0h-2v-1h2Zm-4,0h-2v-1h2Zm-4,0h-2v-1h2Zm-4,0h-2v-1h2Zm-4,0h-2v-1h2Zm-4,0h-2v-1h2Zm-4,0h-2v-1h2Zm-4,0h-2v-1h2Zm-4,0h-2v-1h2Zm-4,0h-2v-1h2Zm-4,0h-2v-1h2Zm-4,0h-2v-1h2Zm-4,0h-2v-1h2Zm-4,0h-2v-1h2Zm-4,0h-2v-1h2Zm-4,0h-2v-1h2Zm-4,0h-2v-1h2Zm-4,0h-2v-1h2Zm-4,0h-2v-1h2Zm-4,0h-2v-1h2Zm-4,0h-2v-1h2Zm-4,0h-2v-1h2Zm-4,0h-2v-1h2Zm-4,0h-2v-1h2Zm-4,0h-2v-1h2Zm-4,0h-2v-1h2Zm-4,0h-2v-1h2Zm-4,0h-2v-1h2Zm-4,0h-2v-1h2Zm-4,0h-2v-1h2Zm-4,0h-2v-1h2Zm-4,0h-2v-1h2Zm-4,0h-2v-1h2Zm-4,0h-2v-1h2Zm-4,0H96v-1h2Zm-4,0H92v-1h2Zm-4,0H88v-1h2Zm-4,0H84v-1h2Zm-4,0H80v-1h2Zm-4,0H76v-1h2Zm-4,0H72v-1h2Zm-4,0H68v-1h2Zm-4,0H64v-1h2Zm-4,0H60v-1h2Zm-4,0H56v-1h2Zm-4,0H52v-1h2Zm-4,0H48v-1h2Zm-4,0H44v-1h2Zm-4,0H40v-1h2Zm-4,0H36v-1h2Zm-4,0H32v-1h2Zm-4,0H28v-1h2Zm-4,0H24v-1h2Zm-4,0H20v-1h2Zm-4,0H16v-1h2Zm-4,0H12v-1h2Zm-4,0H8v-1h2ZM6,.5H4v-1H6ZM2,.5H0v-1H2Z" transform="translate(32 432.998)" fill="#d8d8d8"/><path d="M318,.5h-2v-1h2Zm-4,0h-2v-1h2Zm-4,0h-2v-1h2Zm-4,0h-2v-1h2Zm-4,0h-2v-1h2Zm-4,0h-2v-1h2Zm-4,0h-2v-1h2Zm-4,0h-2v-1h2Zm-4,0h-2v-1h2Zm-4,0h-2v-1h2Zm-4,0h-2v-1h2Zm-4,0h-2v-1h2Zm-4,0h-2v-1h2Zm-4,0h-2v-1h2Zm-4,0h-2v-1h2Zm-4,0h-2v-1h2Zm-4,0h-2v-1h2Zm-4,0h-2v-1h2Zm-4,0h-2v-1h2Zm-4,0h-2v-1h2Zm-4,0h-2v-1h2Zm-4,0h-2v-1h2Zm-4,0h-2v-1h2Zm-4,0h-2v-1h2Zm-4,0h-2v-1h2Zm-4,0h-2v-1h2Zm-4,0h-2v-1h2Zm-4,0h-2v-1h2Zm-4,0h-2v-1h2Zm-4,0h-2v-1h2Zm-4,0h-2v-1h2Zm-4,0h-2v-1h2Zm-4,0h-2v-1h2Zm-4,0h-2v-1h2Zm-4,0h-2v-1h2Zm-4,0h-2v-1h2Zm-4,0h-2v-1h2Zm-4,0h-2v-1h2Zm-4,0h-2v-1h2Zm-4,0h-2v-1h2Zm-4,0h-2v-1h2Zm-4,0h-2v-1h2Zm-4,0h-2v-1h2Zm-4,0h-2v-1h2Zm-4,0h-2v-1h2Zm-4,0h-2v-1h2Zm-4,0h-2v-1h2Zm-4,0h-2v-1h2Zm-4,0h-2v-1h2Zm-4,0h-2v-1h2Zm-4,0h-2v-1h2Zm-4,0h-2v-1h2Zm-4,0h-2v-1h2Zm-4,0h-2v-1h2Zm-4,0h-2v-1h2Zm-4,0H96v-1h2Zm-4,0H92v-1h2Zm-4,0H88v-1h2Zm-4,0H84v-1h2Zm-4,0H80v-1h2Zm-4,0H76v-1h2Zm-4,0H72v-1h2Zm-4,0H68v-1h2Zm-4,0H64v-1h2Zm-4,0H60v-1h2Zm-4,0H56v-1h2Zm-4,0H52v-1h2Zm-4,0H48v-1h2Zm-4,0H44v-1h2Zm-4,0H40v-1h2Zm-4,0H36v-1h2Zm-4,0H32v-1h2Zm-4,0H28v-1h2Zm-4,0H24v-1h2Zm-4,0H20v-1h2Zm-4,0H16v-1h2Zm-4,0H12v-1h2Zm-4,0H8v-1h2ZM6,.5H4v-1H6ZM2,.5H0v-1H2Z" transform="translate(32 402.998)" fill="#d8d8d8"/><path d="M318,.5h-2v-1h2Zm-4,0h-2v-1h2Zm-4,0h-2v-1h2Zm-4,0h-2v-1h2Zm-4,0h-2v-1h2Zm-4,0h-2v-1h2Zm-4,0h-2v-1h2Zm-4,0h-2v-1h2Zm-4,0h-2v-1h2Zm-4,0h-2v-1h2Zm-4,0h-2v-1h2Zm-4,0h-2v-1h2Zm-4,0h-2v-1h2Zm-4,0h-2v-1h2Zm-4,0h-2v-1h2Zm-4,0h-2v-1h2Zm-4,0h-2v-1h2Zm-4,0h-2v-1h2Zm-4,0h-2v-1h2Zm-4,0h-2v-1h2Zm-4,0h-2v-1h2Zm-4,0h-2v-1h2Zm-4,0h-2v-1h2Zm-4,0h-2v-1h2Zm-4,0h-2v-1h2Zm-4,0h-2v-1h2Zm-4,0h-2v-1h2Zm-4,0h-2v-1h2Zm-4,0h-2v-1h2Zm-4,0h-2v-1h2Zm-4,0h-2v-1h2Zm-4,0h-2v-1h2Zm-4,0h-2v-1h2Zm-4,0h-2v-1h2Zm-4,0h-2v-1h2Zm-4,0h-2v-1h2Zm-4,0h-2v-1h2Zm-4,0h-2v-1h2Zm-4,0h-2v-1h2Zm-4,0h-2v-1h2Zm-4,0h-2v-1h2Zm-4,0h-2v-1h2Zm-4,0h-2v-1h2Zm-4,0h-2v-1h2Zm-4,0h-2v-1h2Zm-4,0h-2v-1h2Zm-4,0h-2v-1h2Zm-4,0h-2v-1h2Zm-4,0h-2v-1h2Zm-4,0h-2v-1h2Zm-4,0h-2v-1h2Zm-4,0h-2v-1h2Zm-4,0h-2v-1h2Zm-4,0h-2v-1h2Zm-4,0h-2v-1h2Zm-4,0H96v-1h2Zm-4,0H92v-1h2Zm-4,0H88v-1h2Zm-4,0H84v-1h2Zm-4,0H80v-1h2Zm-4,0H76v-1h2Zm-4,0H72v-1h2Zm-4,0H68v-1h2Zm-4,0H64v-1h2Zm-4,0H60v-1h2Zm-4,0H56v-1h2Zm-4,0H52v-1h2Zm-4,0H48v-1h2Zm-4,0H44v-1h2Zm-4,0H40v-1h2Zm-4,0H36v-1h2Zm-4,0H32v-1h2Zm-4,0H28v-1h2Zm-4,0H24v-1h2Zm-4,0H20v-1h2Zm-4,0H16v-1h2Zm-4,0H12v-1h2Zm-4,0H8v-1h2ZM6,.5H4v-1H6ZM2,.5H0v-1H2Z" transform="translate(32 372.998)" fill="#d8d8d8"/><path d="M318,.5h-2v-1h2Zm-4,0h-2v-1h2Zm-4,0h-2v-1h2Zm-4,0h-2v-1h2Zm-4,0h-2v-1h2Zm-4,0h-2v-1h2Zm-4,0h-2v-1h2Zm-4,0h-2v-1h2Zm-4,0h-2v-1h2Zm-4,0h-2v-1h2Zm-4,0h-2v-1h2Zm-4,0h-2v-1h2Zm-4,0h-2v-1h2Zm-4,0h-2v-1h2Zm-4,0h-2v-1h2Zm-4,0h-2v-1h2Zm-4,0h-2v-1h2Zm-4,0h-2v-1h2Zm-4,0h-2v-1h2Zm-4,0h-2v-1h2Zm-4,0h-2v-1h2Zm-4,0h-2v-1h2Zm-4,0h-2v-1h2Zm-4,0h-2v-1h2Zm-4,0h-2v-1h2Zm-4,0h-2v-1h2Zm-4,0h-2v-1h2Zm-4,0h-2v-1h2Zm-4,0h-2v-1h2Zm-4,0h-2v-1h2Zm-4,0h-2v-1h2Zm-4,0h-2v-1h2Zm-4,0h-2v-1h2Zm-4,0h-2v-1h2Zm-4,0h-2v-1h2Zm-4,0h-2v-1h2Zm-4,0h-2v-1h2Zm-4,0h-2v-1h2Zm-4,0h-2v-1h2Zm-4,0h-2v-1h2Zm-4,0h-2v-1h2Zm-4,0h-2v-1h2Zm-4,0h-2v-1h2Zm-4,0h-2v-1h2Zm-4,0h-2v-1h2Zm-4,0h-2v-1h2Zm-4,0h-2v-1h2Zm-4,0h-2v-1h2Zm-4,0h-2v-1h2Zm-4,0h-2v-1h2Zm-4,0h-2v-1h2Zm-4,0h-2v-1h2Zm-4,0h-2v-1h2Zm-4,0h-2v-1h2Zm-4,0h-2v-1h2Zm-4,0H96v-1h2Zm-4,0H92v-1h2Zm-4,0H88v-1h2Zm-4,0H84v-1h2Zm-4,0H80v-1h2Zm-4,0H76v-1h2Zm-4,0H72v-1h2Zm-4,0H68v-1h2Zm-4,0H64v-1h2Zm-4,0H60v-1h2Zm-4,0H56v-1h2Zm-4,0H52v-1h2Zm-4,0H48v-1h2Zm-4,0H44v-1h2Zm-4,0H40v-1h2Zm-4,0H36v-1h2Zm-4,0H32v-1h2Zm-4,0H28v-1h2Zm-4,0H24v-1h2Zm-4,0H20v-1h2Zm-4,0H16v-1h2Zm-4,0H12v-1h2Zm-4,0H8v-1h2ZM6,.5H4v-1H6ZM2,.5H0v-1H2Z" transform="translate(32 342.998)" fill="#d8d8d8"/><path d="M318,.5h-2v-1h2Zm-4,0h-2v-1h2Zm-4,0h-2v-1h2Zm-4,0h-2v-1h2Zm-4,0h-2v-1h2Zm-4,0h-2v-1h2Zm-4,0h-2v-1h2Zm-4,0h-2v-1h2Zm-4,0h-2v-1h2Zm-4,0h-2v-1h2Zm-4,0h-2v-1h2Zm-4,0h-2v-1h2Zm-4,0h-2v-1h2Zm-4,0h-2v-1h2Zm-4,0h-2v-1h2Zm-4,0h-2v-1h2Zm-4,0h-2v-1h2Zm-4,0h-2v-1h2Zm-4,0h-2v-1h2Zm-4,0h-2v-1h2Zm-4,0h-2v-1h2Zm-4,0h-2v-1h2Zm-4,0h-2v-1h2Zm-4,0h-2v-1h2Zm-4,0h-2v-1h2Zm-4,0h-2v-1h2Zm-4,0h-2v-1h2Zm-4,0h-2v-1h2Zm-4,0h-2v-1h2Zm-4,0h-2v-1h2Zm-4,0h-2v-1h2Zm-4,0h-2v-1h2Zm-4,0h-2v-1h2Zm-4,0h-2v-1h2Zm-4,0h-2v-1h2Zm-4,0h-2v-1h2Zm-4,0h-2v-1h2Zm-4,0h-2v-1h2Zm-4,0h-2v-1h2Zm-4,0h-2v-1h2Zm-4,0h-2v-1h2Zm-4,0h-2v-1h2Zm-4,0h-2v-1h2Zm-4,0h-2v-1h2Zm-4,0h-2v-1h2Zm-4,0h-2v-1h2Zm-4,0h-2v-1h2Zm-4,0h-2v-1h2Zm-4,0h-2v-1h2Zm-4,0h-2v-1h2Zm-4,0h-2v-1h2Zm-4,0h-2v-1h2Zm-4,0h-2v-1h2Zm-4,0h-2v-1h2Zm-4,0h-2v-1h2Zm-4,0H96v-1h2Zm-4,0H92v-1h2Zm-4,0H88v-1h2Zm-4,0H84v-1h2Zm-4,0H80v-1h2Zm-4,0H76v-1h2Zm-4,0H72v-1h2Zm-4,0H68v-1h2Zm-4,0H64v-1h2Zm-4,0H60v-1h2Zm-4,0H56v-1h2Zm-4,0H52v-1h2Zm-4,0H48v-1h2Zm-4,0H44v-1h2Zm-4,0H40v-1h2Zm-4,0H36v-1h2Zm-4,0H32v-1h2Zm-4,0H28v-1h2Zm-4,0H24v-1h2Zm-4,0H20v-1h2Zm-4,0H16v-1h2Zm-4,0H12v-1h2Zm-4,0H8v-1h2ZM6,.5H4v-1H6ZM2,.5H0v-1H2Z" transform="translate(32 312.998)" fill="#d8d8d8"/><path d="M318,.5h-2v-1h2Zm-4,0h-2v-1h2Zm-4,0h-2v-1h2Zm-4,0h-2v-1h2Zm-4,0h-2v-1h2Zm-4,0h-2v-1h2Zm-4,0h-2v-1h2Zm-4,0h-2v-1h2Zm-4,0h-2v-1h2Zm-4,0h-2v-1h2Zm-4,0h-2v-1h2Zm-4,0h-2v-1h2Zm-4,0h-2v-1h2Zm-4,0h-2v-1h2Zm-4,0h-2v-1h2Zm-4,0h-2v-1h2Zm-4,0h-2v-1h2Zm-4,0h-2v-1h2Zm-4,0h-2v-1h2Zm-4,0h-2v-1h2Zm-4,0h-2v-1h2Zm-4,0h-2v-1h2Zm-4,0h-2v-1h2Zm-4,0h-2v-1h2Zm-4,0h-2v-1h2Zm-4,0h-2v-1h2Zm-4,0h-2v-1h2Zm-4,0h-2v-1h2Zm-4,0h-2v-1h2Zm-4,0h-2v-1h2Zm-4,0h-2v-1h2Zm-4,0h-2v-1h2Zm-4,0h-2v-1h2Zm-4,0h-2v-1h2Zm-4,0h-2v-1h2Zm-4,0h-2v-1h2Zm-4,0h-2v-1h2Zm-4,0h-2v-1h2Zm-4,0h-2v-1h2Zm-4,0h-2v-1h2Zm-4,0h-2v-1h2Zm-4,0h-2v-1h2Zm-4,0h-2v-1h2Zm-4,0h-2v-1h2Zm-4,0h-2v-1h2Zm-4,0h-2v-1h2Zm-4,0h-2v-1h2Zm-4,0h-2v-1h2Zm-4,0h-2v-1h2Zm-4,0h-2v-1h2Zm-4,0h-2v-1h2Zm-4,0h-2v-1h2Zm-4,0h-2v-1h2Zm-4,0h-2v-1h2Zm-4,0h-2v-1h2Zm-4,0H96v-1h2Zm-4,0H92v-1h2Zm-4,0H88v-1h2Zm-4,0H84v-1h2Zm-4,0H80v-1h2Zm-4,0H76v-1h2Zm-4,0H72v-1h2Zm-4,0H68v-1h2Zm-4,0H64v-1h2Zm-4,0H60v-1h2Zm-4,0H56v-1h2Zm-4,0H52v-1h2Zm-4,0H48v-1h2Zm-4,0H44v-1h2Zm-4,0H40v-1h2Zm-4,0H36v-1h2Zm-4,0H32v-1h2Zm-4,0H28v-1h2Zm-4,0H24v-1h2Zm-4,0H20v-1h2Zm-4,0H16v-1h2Zm-4,0H12v-1h2Zm-4,0H8v-1h2ZM6,.5H4v-1H6ZM2,.5H0v-1H2Z" transform="translate(32 282.998)" fill="#d8d8d8"/><path d="M318,.5h-2v-1h2Zm-4,0h-2v-1h2Zm-4,0h-2v-1h2Zm-4,0h-2v-1h2Zm-4,0h-2v-1h2Zm-4,0h-2v-1h2Zm-4,0h-2v-1h2Zm-4,0h-2v-1h2Zm-4,0h-2v-1h2Zm-4,0h-2v-1h2Zm-4,0h-2v-1h2Zm-4,0h-2v-1h2Zm-4,0h-2v-1h2Zm-4,0h-2v-1h2Zm-4,0h-2v-1h2Zm-4,0h-2v-1h2Zm-4,0h-2v-1h2Zm-4,0h-2v-1h2Zm-4,0h-2v-1h2Zm-4,0h-2v-1h2Zm-4,0h-2v-1h2Zm-4,0h-2v-1h2Zm-4,0h-2v-1h2Zm-4,0h-2v-1h2Zm-4,0h-2v-1h2Zm-4,0h-2v-1h2Zm-4,0h-2v-1h2Zm-4,0h-2v-1h2Zm-4,0h-2v-1h2Zm-4,0h-2v-1h2Zm-4,0h-2v-1h2Zm-4,0h-2v-1h2Zm-4,0h-2v-1h2Zm-4,0h-2v-1h2Zm-4,0h-2v-1h2Zm-4,0h-2v-1h2Zm-4,0h-2v-1h2Zm-4,0h-2v-1h2Zm-4,0h-2v-1h2Zm-4,0h-2v-1h2Zm-4,0h-2v-1h2Zm-4,0h-2v-1h2Zm-4,0h-2v-1h2Zm-4,0h-2v-1h2Zm-4,0h-2v-1h2Zm-4,0h-2v-1h2Zm-4,0h-2v-1h2Zm-4,0h-2v-1h2Zm-4,0h-2v-1h2Zm-4,0h-2v-1h2Zm-4,0h-2v-1h2Zm-4,0h-2v-1h2Zm-4,0h-2v-1h2Zm-4,0h-2v-1h2Zm-4,0h-2v-1h2Zm-4,0H96v-1h2Zm-4,0H92v-1h2Zm-4,0H88v-1h2Zm-4,0H84v-1h2Zm-4,0H80v-1h2Zm-4,0H76v-1h2Zm-4,0H72v-1h2Zm-4,0H68v-1h2Zm-4,0H64v-1h2Zm-4,0H60v-1h2Zm-4,0H56v-1h2Zm-4,0H52v-1h2Zm-4,0H48v-1h2Zm-4,0H44v-1h2Zm-4,0H40v-1h2Zm-4,0H36v-1h2Zm-4,0H32v-1h2Zm-4,0H28v-1h2Zm-4,0H24v-1h2Zm-4,0H20v-1h2Zm-4,0H16v-1h2Zm-4,0H12v-1h2Zm-4,0H8v-1h2ZM6,.5H4v-1H6ZM2,.5H0v-1H2Z" transform="translate(32 252.998)" fill="#d8d8d8"/></g></svg>