<svg xmlns="http://www.w3.org/2000/svg" xmlns:xlink="http://www.w3.org/1999/xlink" width="80" height="23" viewBox="0 0 80 23">
  <defs>
    <clipPath id="clip-path">
      <rect id="사각형_16472" data-name="사각형 16472" width="80" height="23" transform="translate(-0.192 0.5)" fill="none"/>
    </clipPath>
  </defs>
  <g id="그룹_100904" data-name="그룹 100904" transform="translate(0.192 -0.5)" clip-path="url(#clip-path)">
    <path id="패스_53189" data-name="패스 53189" d="M4.5,16.153c3.877,2.438,8.631,3.031,13.209,3.034s9.17-.522,13.726-.068c7.028.7,13.733,3.711,20.794,3.874,8.633.2,16.728-3.846,24.411-7.791,1.349-.693,2.878-1.647,2.967-3.161.1-1.694-1.676-2.859-3.291-3.378-6.4-2.059-13.332.046-20.057-.106C43.72,8.274,32.326.154,19.78,0A30.264,30.264,0,0,0,2.9,5.122C1.1,6.29-.069,7.153,0,9.465c.092,2.9,2.152,5.211,4.5,6.688" transform="translate(0 0)" fill="#8b4c24"/>
    <path id="패스_53190" data-name="패스 53190" d="M80.674,29.107a2.939,2.939,0,0,1,.563,1.612c0,3.2-6.322,3.475-8.664,4.373-8.063,3.093-10.432,6.525-19.066,6.325-7.061-.163-14.154-5.156-21.182-5.857-4.556-.455-9.184,2.189-13.763,2.187a26.1,26.1,0,0,1-13.37-4.01q-.209-.132-.416-.273a11.317,11.317,0,0,0,3.011,2.7C11.665,38.6,16.419,39.192,21,39.2s9.17-.522,13.726-.068c7.028.7,13.733,3.711,20.794,3.874,8.633.2,16.728-3.846,24.411-7.791,1.349-.693,2.878-1.647,2.967-3.161.078-1.321-.984-2.32-2.222-2.942" transform="translate(-3.285 -20.009)" fill="#763a1c"/>
    <path id="패스_53191" data-name="패스 53191" d="M173.154,34.026a39.224,39.224,0,0,0,8.151-1.375l6.975-1.689c.246-.059.53-.152.612-.391.12-.35-.284-.646-.632-.77-3.034-1.075-6.282.479-9.414,1.222a18.716,18.716,0,0,1-8.052.123,13.435,13.435,0,0,0-2.884-.454c-.6.01-1.811.177-2.174.757-.582.93.633,1.221,1.476,1.574a14.411,14.411,0,0,0,5.942,1" transform="translate(-113.854 -20.233)" fill="#9b5934"/>
    <path id="패스_53192" data-name="패스 53192" d="M58.566,17.106a6.357,6.357,0,0,1-2.865-.45c-8.352-2.574-16.058-4.106-24.422-1.573-2.4.726-6.273,3.177-8.747,2.784s-4.655-.9-4.15-5.188c.261-2.213,3.2-2.732,5.32-3.42,9-2.923,15.347-.285,22.772,1.523a87.49,87.49,0,0,1,12.093,4.2c2.94,1.276,1.2,1.927,0,2.127" transform="translate(-12.588 -5.466)" fill="#9b5934"/>
  </g>
</svg>
