<svg xmlns="http://www.w3.org/2000/svg" xmlns:xlink="http://www.w3.org/1999/xlink" width="83" height="31" viewBox="0 0 83 31">
  <defs>
    <clipPath id="clip-path">
      <rect id="사각형_16473" data-name="사각형 16473" width="83" height="31" transform="translate(0 0.462)" fill="none"/>
    </clipPath>
  </defs>
  <g id="그룹_100908" data-name="그룹 100908" transform="translate(0 -0.462)" clip-path="url(#clip-path)">
    <path id="패스_53193" data-name="패스 53193" d="M75.3,61.506A9.807,9.807,0,0,0,81.049,64.8a29.02,29.02,0,0,0,6.727.373l10-.223a4.122,4.122,0,0,0,2.185-.457c1.052-.683,1.259-2.117,1.363-3.372.194-2.333.264-5.015-1.431-6.62-1.2-1.134-2.955-1.387-4.6-1.517a59.067,59.067,0,0,0-15.415.813c-1.688.313-4.827.388-5.7,2.023-.9,1.7.036,4.315,1.108,5.685" transform="translate(-46.69 -33.281)" fill="#a15d2d"/>
    <path id="패스_53194" data-name="패스 53194" d="M101.084,59.764a13.342,13.342,0,0,1,.172,4.393c-.1,1.255-.311,2.689-1.363,3.372a4.126,4.126,0,0,1-2.186.458l-10,.223a29.046,29.046,0,0,1-6.728-.372,9.809,9.809,0,0,1-5.75-3.295,6.631,6.631,0,0,1-.624-.978,7.473,7.473,0,0,0,1.187,2.329,9.806,9.806,0,0,0,5.75,3.295,29.025,29.025,0,0,0,6.728.373l10-.223a4.122,4.122,0,0,0,2.185-.457c1.052-.683,1.259-2.117,1.363-3.372.162-1.95.234-4.14-.734-5.745" transform="translate(-47.179 -37.668)" fill="#804320"/>
    <path id="패스_53195" data-name="패스 53195" d="M80.629,59.194a2.1,2.1,0,0,0,1.586.335,127.556,127.556,0,0,1,13.857-.587q.421.017.842.042c1.559.091,3.586,1.026,4.987-.06a1.475,1.475,0,0,0,.529-.7.959.959,0,0,0-.287-.987A5.77,5.77,0,0,0,98.723,56a31.013,31.013,0,0,0-5.708-.23c-2.546.142-4.909.428-7.478.746-1.484.184-2.4.5-3.653.7-.613.1-2.323,1-1.254,1.974" transform="translate(-50.774 -35.125)" fill="#b66e36"/>
    <path id="패스_53196" data-name="패스 53196" d="M183.284,45.477a7.307,7.307,0,0,0,1.819-7.4c-1.078-2.764-4.216-4.262-7.169-4.292s-5.777,1.115-8.5,2.263a15.567,15.567,0,0,0-5.4,3.22c-3.3,3.451-2.686,12.994,3.553,12.68,2.2-.111,4.877-1.8,7.076-2.325,3.117-.741,6.352-1.737,8.622-4.146" transform="translate(-102.49 -21.293)" fill="#a15d2d"/>
    <path id="패스_53197" data-name="패스 53197" d="M185.812,44.059a5.553,5.553,0,0,0-.379-.783,7.486,7.486,0,0,1-2,6.832c-2.27,2.408-5.505,3.4-8.622,4.145-2.2.523-4.873,2.214-7.076,2.325a4.669,4.669,0,0,1-4.551-2.6c.713,2.32,2.368,4.09,5.113,3.952,2.2-.111,4.877-1.8,7.076-2.325,3.117-.741,6.352-1.737,8.622-4.145a7.307,7.307,0,0,0,1.819-7.4" transform="translate(-103.2 -27.276)" fill="#804320"/>
    <path id="패스_53198" data-name="패스 53198" d="M173.234,39.718a20.875,20.875,0,0,1,7.889-3.095,5.42,5.42,0,0,1,2.944.117,2.267,2.267,0,0,1,1.5,2.329,2.209,2.209,0,0,1-1.249,1.508,5.087,5.087,0,0,1-1.967.422c-1.222.069-2.451,0-3.67.119a6.2,6.2,0,0,0-3.4,1.251,14.127,14.127,0,0,0-1.763,2.091A3.882,3.882,0,0,1,171.326,46c-2,.36-2.163-1.348-1.532-2.692a9.241,9.241,0,0,1,3.441-3.592" transform="translate(-107.174 -22.992)" fill="#b66e36"/>
    <path id="패스_53199" data-name="패스 53199" d="M105.9,12.3a5.993,5.993,0,0,0,3,4.556,8.787,8.787,0,0,0,4.153.527l10.3-.362a18.911,18.911,0,0,0,4.853-.593,6.4,6.4,0,0,0,3.841-2.862,5.974,5.974,0,0,0-1.3-6.823,10.051,10.051,0,0,0-6.763-2.6c-2.469-.1-4.725,1.11-7.165,1.5-5.562.888-12.128-1.017-10.921,6.659" transform="translate(-66.882 -2.61)" fill="#a15d2d"/>
    <path id="패스_53200" data-name="패스 53200" d="M132.476,15.1a5.306,5.306,0,0,1-.337,4.026A6.4,6.4,0,0,1,128.3,21.99a18.894,18.894,0,0,1-4.852.593l-10.3.362a8.785,8.785,0,0,1-4.153-.527,5.094,5.094,0,0,1-2.211-2.193,5.63,5.63,0,0,0,2.773,3.545,8.785,8.785,0,0,0,4.153.527l10.3-.362a18.91,18.91,0,0,0,4.852-.593A6.4,6.4,0,0,0,132.7,20.48a5.656,5.656,0,0,0-.225-5.378" transform="translate(-67.53 -9.518)" fill="#804320"/>
    <path id="패스_53201" data-name="패스 53201" d="M131.187,8.539c.53.164,1.658.551,1.855,1.048a2.06,2.06,0,0,1-.148,1.792,2.324,2.324,0,0,1-1.079.749c-2.479.9-5.362-.245-7.993.14-1.074.157-8.807,2.675-9.773-.126s7.436-2.437,10.162-2.994c2.236-.457,4.759-1.295,6.976-.609" transform="translate(-72.079 -5.218)" fill="#b66e36"/>
    <path id="패스_53202" data-name="패스 53202" d="M132.129,23.443c.024.323-.844.653-1.939.736s-2-.11-2.027-.433.844-.653,1.939-.736,2,.111,2.027.433" transform="translate(-81.053 -14.491)" fill="#b66e36"/>
    <path id="패스_53203" data-name="패스 53203" d="M28.581,11.636a25.464,25.464,0,0,0,7.058,1.147c3.95.218,8.454-.032,11.026-3.055,1.593-1.872,1.867-5.155-.155-6.546a5.035,5.035,0,0,0-3.8-.505c-1.289.248-2.537.722-3.844.849C34.035,4,28.526-1.639,23.919.478,21.783,1.459,21.7,4.023,22.369,6c.945,2.806,3.522,4.693,6.212,5.637" transform="translate(-13.914 0)" fill="#a15d2d"/>
    <path id="패스_53204" data-name="패스 53204" d="M47.8,10.706a5.462,5.462,0,0,1-1.189,4.418c-2.572,3.023-7.076,3.273-11.026,3.055a25.482,25.482,0,0,1-7.058-1.147A10.243,10.243,0,0,1,22.8,12.512q.035.119.074.236c.945,2.806,3.522,4.693,6.211,5.637a25.483,25.483,0,0,0,7.058,1.147c3.95.218,8.453-.032,11.026-3.055,1.345-1.58,1.749-4.165.627-5.77" transform="translate(-14.42 -6.748)" fill="#804320"/>
    <path id="패스_53205" data-name="패스 53205" d="M28.268,4.26a1.815,1.815,0,0,0,.849,1.467,13.258,13.258,0,0,0,8.4,3.028,1.487,1.487,0,0,0,1.065-.3,1.252,1.252,0,0,0-.19-1.654,5.093,5.093,0,0,0-1.963-1.146c-1.172-.465-7.847-4.151-8.161-1.4" transform="translate(-17.872 -2.047)" fill="#b66e36"/>
    <path id="패스_53206" data-name="패스 53206" d="M72.184,12.487a6.15,6.15,0,0,1-2.071.249.94.94,0,0,1-.489-.123.729.729,0,0,1,.072-1.106,2.288,2.288,0,0,1,1.205-.375,15,15,0,0,0,3.165-.761,2.142,2.142,0,0,1,.758-.179.67.67,0,0,1,.627.389.652.652,0,0,1-.137.612,1.661,1.661,0,0,1-.519.389,8.571,8.571,0,0,1-3.785,1.033" transform="translate(-43.891 -6.425)" fill="#b66e36"/>
    <path id="패스_53207" data-name="패스 53207" d="M.066,53.39a5.065,5.065,0,0,0,.8,3.768c1.065,1.4,2.929,1.86,4.644,2.227l9.656,2.068c2.253.482,5,.81,6.491-.953,1.008-1.19,1.028-2.919.86-4.472-.259-2.387-1.04-5.011-3.139-6.156-2.162-1.179-4.8-.332-7.26-.27-2.756.07-5.449-.906-8.2-.767-2.86.145-3.463,1.834-3.85,4.556" transform="translate(0 -30.771)" fill="#a15d2d"/>
    <path id="패스_53208" data-name="패스 53208" d="M22.761,61.5a11.252,11.252,0,0,0-1.1-3.994,13.421,13.421,0,0,1,.537,2.642c.168,1.554.147,3.283-.86,4.472-1.493,1.764-4.239,1.436-6.491.953L5.191,63.51c-1.715-.367-3.579-.826-4.644-2.227C.49,61.208.436,61.13.385,61.05a4.169,4.169,0,0,0,.725,1.585c1.065,1.4,2.929,1.86,4.644,2.227l9.656,2.067c2.253.482,5,.81,6.492-.953,1.007-1.19,1.028-2.919.86-4.472" transform="translate(-0.243 -36.248)" fill="#804320"/>
    <path id="패스_53209" data-name="패스 53209" d="M15.684,54.66c.954.167,1.861,1.176,2.822,1.281s3.81.009,3.8-1.769c-.007-1.259-2.328-1.938-2.922-1.938-.541,0-2.49.168-3.031.191a15.555,15.555,0,0,1-5.052-.284c-.875-.186-3.214-.987-4.009-.21a1.571,1.571,0,0,0,.691,2.752c2.2.629,2.879-.866,7.7-.024" transform="translate(-4.24 -32.522)" fill="#b66e36"/>
    <path id="패스_53210" data-name="패스 53210" d="M25.056,61.357c.2-.038.371-.114.415-.247.107-.325-.5-.515-.887-.624a10.316,10.316,0,0,0-1.976-.324,7.228,7.228,0,0,0-1.11-.01,1.414,1.414,0,0,0-.681.175.191.191,0,0,0-.085.173c.053.477.854.7,1.491.8a11.35,11.35,0,0,0,2.628.089,1.849,1.849,0,0,0,.207-.028" transform="translate(-13.11 -37.902)" fill="#bb6e36"/>
    <path id="패스_53211" data-name="패스 53211" d="M48.656,52.657a.307.307,0,0,1-.042.351.267.267,0,0,1-.223.068c-.362-.028-2.246-.541-1.746-1.184.429-.552,1.824.369,2.011.765" transform="translate(-29.447 -32.598)" fill="#b66e36"/>
  </g>
</svg>
