<svg xmlns="http://www.w3.org/2000/svg" xmlns:xlink="http://www.w3.org/1999/xlink" width="75" height="32" viewBox="0 0 75 32">
  <defs>
    <clipPath id="clip-path">
      <rect id="사각형_16469" data-name="사각형 16469" width="75" height="32" transform="translate(0.277 0)" fill="none"/>
    </clipPath>
  </defs>
  <g id="그룹_100898" data-name="그룹 100898" transform="translate(-0.277 0)" clip-path="url(#clip-path)">
    <path id="패스_53080" data-name="패스 53080" d="M59.652,8.573a6.045,6.045,0,0,1-1.3,3.785A5.085,5.085,0,0,1,55.7,13.812c-3.326.856-5.967,1.152-8.853-1.087-2.269-1.76-2.874-3.316-2.38-6.149a9.178,9.178,0,0,1,1.149-3.32c1.3-1.9,4.347-2.94,6.8-2.963a7.575,7.575,0,0,1,5.138,2.348,8.4,8.4,0,0,1,2.1,5.931" transform="translate(-29.218 0.032)" fill="#6b3217"/>
    <path id="패스_53081" data-name="패스 53081" d="M57.984,7.349a9.25,9.25,0,0,1,.66,3.672,6.042,6.042,0,0,1-1.3,3.785A5.084,5.084,0,0,1,54.69,16.26c-3.326.856-5.967,1.152-8.854-1.087a10.489,10.489,0,0,1-.976-.852,5.993,5.993,0,0,0,2.351,3.044c2.886,2.239,5.528,1.943,8.853,1.087A5.081,5.081,0,0,0,58.717,17a6.045,6.045,0,0,0,1.3-3.785,8.445,8.445,0,0,0-2.035-5.864" transform="translate(-29.586 -4.608)" fill="#602913"/>
    <path id="패스_53082" data-name="패스 53082" d="M56.013,4.48c-.041,1.425.859,2.648,0,3.643a9.482,9.482,0,0,1-3.723,1.825c-1.561.4-2.982-.067-4.337-.116-1.932-.07-3.608-1.3-3.279-3.22,0-.012,0-.024.006-.036a9.176,9.176,0,0,1,1.148-3.32c1.3-1.9,4.347-2.94,6.8-2.963.108,0,.216,0,.324.008a3.206,3.206,0,0,1,2.99,2.822,8.893,8.893,0,0,1,.065,1.357" transform="translate(-29.438 0.032)" fill="#763a1c"/>
    <path id="패스_53083" data-name="패스 53083" d="M63.59,59.471c0,.006,0,.011,0,.017A6.085,6.085,0,0,1,59.112,64.4a30.636,30.636,0,0,1-6.8.779A5.359,5.359,0,0,1,49,63.276a3.293,3.293,0,0,1-.711-1.709c-.265-2.656-.109-3.948.382-4.943a17.086,17.086,0,0,1,1.982-2.609A8.69,8.69,0,0,1,57.5,51.169a2.9,2.9,0,0,1,2.03.978,4.009,4.009,0,0,1,.325.414c.032.047.064.093.1.138.722,1.014,1.393,1.592,2.217,2.568a6.377,6.377,0,0,1,1.28,2.486,5,5,0,0,1,.145,1.719" transform="translate(-31.762 -33.409)" fill="#6b3217"/>
    <path id="패스_53084" data-name="패스 53084" d="M63.59,59.471c0,.006,0,.011,0,.017A6.085,6.085,0,0,1,59.112,64.4a30.636,30.636,0,0,1-6.8.779A5.359,5.359,0,0,1,49,63.276a3.293,3.293,0,0,1-.711-1.709c-.265-2.656-.109-3.948.382-4.943a17.086,17.086,0,0,1,1.982-2.609A8.69,8.69,0,0,1,57.5,51.169a2.9,2.9,0,0,1,2.03.978,4.009,4.009,0,0,1,.325.414c.032.047.064.093.1.138.722,1.014,1.393,1.592,2.217,2.568a6.377,6.377,0,0,1,1.28,2.486,5,5,0,0,1,.145,1.719" transform="translate(-31.762 -33.409)" fill="#6b3217"/>
    <path id="패스_53085" data-name="패스 53085" d="M63.755,65a6.379,6.379,0,0,0-1.28-2.486c-.1-.12-.2-.233-.3-.342a6.058,6.058,0,0,1,.2.637,5,5,0,0,1,.145,1.719c0,.006,0,.011,0,.017a6.084,6.084,0,0,1-4.476,4.914,30.622,30.622,0,0,1-6.8.779,5.2,5.2,0,0,1-2.613-1.2,3.336,3.336,0,0,0,.679,1.483,5.361,5.361,0,0,0,3.309,1.906,30.641,30.641,0,0,0,6.8-.779A6.086,6.086,0,0,0,63.9,66.739c0-.006,0-.011,0-.017A5,5,0,0,0,63.755,65" transform="translate(-32.071 -40.66)" fill="#602913"/>
    <path id="패스_53086" data-name="패스 53086" d="M59.751,55.378c0,.006,0,.011,0,.017.005,2.98-2.377,3.7-4.567,4.168s-4.277,1.77-4.856,1.713a2.369,2.369,0,0,1-2.135-2.466,5.327,5.327,0,0,1,.5-2.185,17.008,17.008,0,0,1,1.981-2.609,8.688,8.688,0,0,1,6.844-2.846c.6.05,1.264,2.149,1.4,2.7.145.571.889.942.833,1.506" transform="translate(-31.781 -33.409)" fill="#763a1c"/>
    <path id="패스_53087" data-name="패스 53087" d="M104.685,31.921a6.741,6.741,0,0,1-.848,1.524,7.844,7.844,0,0,1-5.942,2.867c-2.333.2-4.807.043-6.33-2.165-.039-.057-.079-.115-.116-.176a7.52,7.52,0,0,1-1.213-3.984,7.1,7.1,0,0,1,5.923-7.06,7.209,7.209,0,0,1,5.355,1.223c1.76,1.25,3.578,2.7,3.656,5.023a6.831,6.831,0,0,1-.484,2.746" transform="translate(-59.511 -14.785)" fill="#6b3217"/>
    <path id="패스_53088" data-name="패스 53088" d="M104.685,31.921a6.741,6.741,0,0,1-.848,1.524,7.844,7.844,0,0,1-5.942,2.867c-2.333.2-4.807.043-6.33-2.165-.039-.057-.079-.115-.116-.176a7.52,7.52,0,0,1-1.213-3.984,7.1,7.1,0,0,1,5.923-7.06,7.209,7.209,0,0,1,5.355,1.223c1.76,1.25,3.578,2.7,3.656,5.023a6.831,6.831,0,0,1-.484,2.746" transform="translate(-59.511 -14.785)" fill="#6b3217"/>
    <path id="패스_53089" data-name="패스 53089" d="M106.223,35.006a4.889,4.889,0,0,0-1.563-3.313,4.321,4.321,0,0,1,.188,1.121,6.833,6.833,0,0,1-.484,2.746,6.744,6.744,0,0,1-.848,1.524,7.844,7.844,0,0,1-5.942,2.868c-2.052.178-4.214.076-5.741-1.455A8.057,8.057,0,0,0,92.5,39.8c.037.06.077.119.116.176,1.523,2.208,4,2.367,6.33,2.165a7.844,7.844,0,0,0,5.942-2.867,6.741,6.741,0,0,0,.848-1.524,6.831,6.831,0,0,0,.484-2.746" transform="translate(-60.564 -20.616)" fill="#602913"/>
    <path id="패스_53090" data-name="패스 53090" d="M100.828,27.828c-.216.543-1.6.969-1.947,1.438-1.436,1.932-2.064,3.06-4.371,3.258-1.173.1-4.269-1.859-4.275-2.536a7.124,7.124,0,0,1,9.906-6.6,1.908,1.908,0,0,1,1.17,1.677v.013a6.817,6.817,0,0,1-.483,2.746" transform="translate(-59.511 -14.786)" fill="#763a1c"/>
    <path id="패스_53091" data-name="패스 53091" d="M149,8.8c-1.536,3.357-6.513,5.291-10.216,4.544a4.844,4.844,0,0,1-3.662-4.18,11.87,11.87,0,0,1,.529-4.71,8.619,8.619,0,0,1,1.014-2.554C137.913,0,140.579-.182,142.619.112c2.29.329,4.674,1.286,5.862,3.282A5.607,5.607,0,0,1,149,8.8" transform="translate(-89.065 0.225)" fill="#6b3217"/>
    <path id="패스_53092" data-name="패스 53092" d="M149,8.8c-1.536,3.357-6.513,5.291-10.216,4.544a4.844,4.844,0,0,1-3.662-4.18,11.87,11.87,0,0,1,.529-4.71,8.619,8.619,0,0,1,1.014-2.554C137.913,0,140.579-.182,142.619.112c2.29.329,4.674,1.286,5.862,3.282A5.607,5.607,0,0,1,149,8.8" transform="translate(-89.065 0.225)" fill="#6b3217"/>
    <path id="패스_53093" data-name="패스 53093" d="M149.032,7.927a5.376,5.376,0,0,0-.805-1.034,5.28,5.28,0,0,1-.052,4.243,10.086,10.086,0,0,1-5.364,4.808c-1.688.57-3.26.057-4.852-.264a4.283,4.283,0,0,1-2.074-1.079,4.7,4.7,0,0,0,3.449,3.271c3.7.747,8.68-1.188,10.216-4.544a5.606,5.606,0,0,0-.517-5.4" transform="translate(-89.617 -4.308)" fill="#602913"/>
    <path id="패스_53094" data-name="패스 53094" d="M146.761,4.88c-.943,2.065-3.55,3.522-6.27,4.165a3.047,3.047,0,0,1-3-.97c-.281-.324-.546-.633-.874-1a1.948,1.948,0,0,1-.465-1.608c.056-.34.118-.677.209-1.015A8.593,8.593,0,0,1,137.372,1.9C138.621,0,141.288-.181,143.327.112q.209.03.418.067A3.829,3.829,0,0,1,146.75,2.9a2.853,2.853,0,0,1,.011,1.977" transform="translate(-89.774 0.224)" fill="#763a1c"/>
    <path id="패스_53095" data-name="패스 53095" d="M154.538,54.08a6.271,6.271,0,0,1-1.91,2.078c-2.31,1.537-6.217,1.748-8.9,1.4-1.872-.246-4.42-.588-5.719-1.908-3.933-4-.244-13.978,5.55-13.978.075,0,.148,0,.224.005a8.962,8.962,0,0,1,4.062,1.478c1.41.766,2.844.331,4.294.775a5.6,5.6,0,0,1,3.076,2.993,8.729,8.729,0,0,1-.678,7.16" transform="translate(-89.941 -27.175)" fill="#6b3217"/>
    <path id="패스_53096" data-name="패스 53096" d="M154.538,54.08a6.271,6.271,0,0,1-1.91,2.078c-2.31,1.537-6.217,1.748-8.9,1.4-1.872-.246-4.42-.588-5.719-1.908-3.933-4-.244-13.978,5.55-13.978.075,0,.148,0,.224.005a8.962,8.962,0,0,1,4.062,1.478c1.41.766,2.844.331,4.294.775a5.6,5.6,0,0,1,3.076,2.993,8.729,8.729,0,0,1-.678,7.16" transform="translate(-89.941 -27.175)" fill="#6b3217"/>
    <path id="패스_53097" data-name="패스 53097" d="M155.961,53.634a6.673,6.673,0,0,0-1.2-1.756,8.118,8.118,0,0,1-.314,5.6,7.953,7.953,0,0,1-.541,1.127A6.268,6.268,0,0,1,152,60.68c-2.31,1.537-6.218,1.748-8.9,1.4-1.816-.238-4.261-.57-5.593-1.793a5.4,5.4,0,0,0,1.249,2.076c1.3,1.32,3.847,1.662,5.719,1.908,2.683.352,6.59.142,8.9-1.4a6.266,6.266,0,0,0,1.91-2.078,7.743,7.743,0,0,0,.541-1.127,7.832,7.832,0,0,0,.138-6.033" transform="translate(-90.685 -33.889)" fill="#602913"/>
    <path id="패스_53098" data-name="패스 53098" d="M152.691,48.366c-.363.938-1.733,1.042-2.232,1.951-.4.731-.261,1.68-.7,2.385-.874,1.391-2.868,1.292-4.283,1.277-3.126-.033-9.66-.161-8.628-5.039.786-3.716,3.494-7.272,6.952-7.272.075,0,.148,0,.224.006a8.96,8.96,0,0,1,4.063,1.479,4.846,4.846,0,0,0,2.127.508,2.557,2.557,0,0,1,2.245,1.7,4.066,4.066,0,0,1,.236,3" transform="translate(-90.178 -27.175)" fill="#763a1c"/>
    <path id="패스_53099" data-name="패스 53099" d="M15.244,39.6c-.036.106-.073.206-.115.3-1.248,2.982-5.46,3.04-8.173,2.889a8.7,8.7,0,0,1-4.884-1.65A5.219,5.219,0,0,1,.22,35.477a5.564,5.564,0,0,1,.252-.7c1.2-2.742,3.935-3.9,6.759-4.143a24.941,24.941,0,0,1,3.685-.119,5.975,5.975,0,0,1,2.583.658c1.675.993.968,2.587,1.055,4.012.1,1.622,1.267,2.668.69,4.417" transform="translate(0 -19.823)" fill="#6b3217"/>
    <path id="패스_53100" data-name="패스 53100" d="M15.244,39.606c-.036.106-.073.206-.115.3-1.248,2.982-5.46,3.04-8.173,2.889a8.7,8.7,0,0,1-4.884-1.65A5.214,5.214,0,0,1,.088,36.031a5.754,5.754,0,0,1,.383-1.25c1.2-2.742,3.935-3.9,6.759-4.143a16.911,16.911,0,0,1,5.178.108,4.108,4.108,0,0,1,1.091.431c1.675.993.968,2.587,1.055,4.012.1,1.622,1.267,2.668.69,4.417" transform="translate(0 -19.825)" fill="#6b3217"/>
    <path id="패스_53101" data-name="패스 53101" d="M15.032,36.265c-.086-1.426.62-3.019-1.055-4.012-.078-.046-.161-.087-.244-.127.006.637-.114,1.309-.076,1.948.1,1.622,1.267,2.668.69,4.417-.034.1-.073.206-.113.3-1.529,3.7-5.32,2.721-8.033,2.569-1.741-.1-3.647-.255-5.025-1.33a5.681,5.681,0,0,1-.451-.4A5.331,5.331,0,0,0,2.55,42.225a8.7,8.7,0,0,0,4.885,1.649c2.713.152,6.924.092,8.173-2.888q.062-.147.114-.3c.577-1.748-.593-2.794-.69-4.417" transform="translate(-0.477 -20.9)" fill="#602913"/>
    <path id="패스_53102" data-name="패스 53102" d="M11.773,32.554c-.353.9.141,1.9.148,2.864a2.868,2.868,0,0,1-.94,2.122,2.824,2.824,0,0,1-2.205.686c-.863-.11-1.627-.615-2.474-.805-1.057-.24-2.168.019-3.237-.153a4.055,4.055,0,0,1-1.159-.375,1.636,1.636,0,0,1-.785-2.1l.005-.012c1.2-2.741,3.935-3.9,6.759-4.143.722-.06,1.631-.139,2.563-.147a1.462,1.462,0,0,1,1.334,2.04l-.008.02" transform="translate(-0.654 -19.827)" fill="#763a1c"/>
    <path id="패스_53103" data-name="패스 53103" d="M198.516,26.371a6.618,6.618,0,0,1-.578,1.213c-1.576,2.611-4.961,3.307-7.737,2.359-2.614-.893-3.293-3.22-3.251-5.751.057-3.424,1.81-5.929,5.5-5.788,4.2.161,7.474,3.987,6.066,7.966" transform="translate(-123.293 -11.874)" fill="#6b3217"/>
    <path id="패스_53104" data-name="패스 53104" d="M198.517,26.371a6.721,6.721,0,0,1-.577,1.214c-1.578,2.611-4.962,3.307-7.738,2.36-2.288-.783-3.095-2.666-3.23-4.823-.019-.291-.024-.588-.02-.887v-.042c.056-3.424,1.81-5.929,5.5-5.788.073,0,.148.008.222.011s.173.015.259.025c.04,0,.079.01.118.015a7.018,7.018,0,0,1,2.374.738,5.855,5.855,0,0,1,3.091,7.177" transform="translate(-123.294 -11.874)" fill="#6b3217"/>
    <path id="패스_53105" data-name="패스 53105" d="M197.78,24.451a5.153,5.153,0,0,1-.353,3.535c-.143.4-.074,1.457-.317,1.861-1.576,2.611-4.886,2.832-7.661,1.883a4.688,4.688,0,0,1-1.557-.869,4.4,4.4,0,0,0,2.932,3.062c2.775.949,6.161.252,7.737-2.359a6.639,6.639,0,0,0,.578-1.213,5.623,5.623,0,0,0-1.359-5.9" transform="translate(-123.915 -15.854)" fill="#602913"/>
    <path id="패스_53106" data-name="패스 53106" d="M195.505,21.867a14.4,14.4,0,0,0-.639,1.53,10.435,10.435,0,0,1-.592,2.167,1.253,1.253,0,0,1-.716.643,26.49,26.49,0,0,1-2.76.161,11.824,11.824,0,0,1-3.071-1.033,1.136,1.136,0,0,1-.774-1.091v-.05c.057-3.424,1.81-5.929,5.5-5.788.074,0,.149.008.222.011s.173.015.259.025c.039,0,.079.009.118.015a7.037,7.037,0,0,1,1.868.5A1.494,1.494,0,0,1,195.834,20a1.293,1.293,0,0,1,.027.26,3.514,3.514,0,0,1-.355,1.6" transform="translate(-123.296 -11.874)" fill="#763a1c"/>
  </g>
</svg>
