<svg xmlns="http://www.w3.org/2000/svg" xmlns:xlink="http://www.w3.org/1999/xlink" width="72" height="72" viewBox="0 0 72 72">
  <defs>
    <clipPath id="clip-path">
      <rect id="사각형_18497" data-name="사각형 18497" width="40.871" height="40.849" fill="none"/>
    </clipPath>
  </defs>
  <g id="그룹_107290" data-name="그룹 107290" transform="translate(0 -0.54)">
    <g id="타원_1453" data-name="타원 1453" transform="translate(0 0.54)" fill="none" stroke="#a4a4a4" stroke-width="1">
      <circle cx="36" cy="36" r="36" stroke="none"/>
      <circle cx="36" cy="36" r="35.5" fill="none"/>
    </g>
    <g id="그룹_107289" data-name="그룹 107289" transform="translate(16.336 15.344)">
      <g id="그룹_107288" data-name="그룹 107288" transform="translate(0 0)" clip-path="url(#clip-path)">
        <path id="패스_55194" data-name="패스 55194" d="M11.519,15.884a5.524,5.524,0,1,1,5.54-5.524,5.537,5.537,0,0,1-5.54,5.524m0-9.768a4.245,4.245,0,1,0,4.264,4.244,4.26,4.26,0,0,0-4.264-4.244" transform="translate(10.331 8.357)" fill="#1a1818"/>
        <path id="패스_55195" data-name="패스 55195" d="M21.817,40.849a5.014,5.014,0,1,1,5.025-5.014,5.025,5.025,0,0,1-5.025,5.014m0-8.751a3.736,3.736,0,1,0,3.745,3.737A3.745,3.745,0,0,0,21.817,32.1M5.025,39.327a5.014,5.014,0,1,1,5.025-5.014,5.027,5.027,0,0,1-5.025,5.014m0-8.751A3.736,3.736,0,1,0,8.77,34.313a3.746,3.746,0,0,0-3.745-3.737M35.846,10.03a5.015,5.015,0,1,1,5.025-5.016,5.026,5.026,0,0,1-5.025,5.016m0-8.751a3.736,3.736,0,1,0,3.748,3.734,3.745,3.745,0,0,0-3.748-3.734" transform="translate(0 0.001)" fill="#1a1818"/>
        <path id="패스_55196" data-name="패스 55196" d="M28.4,30.6a3.43,3.43,0,1,1,3.44-3.429A3.437,3.437,0,0,1,28.4,30.6m0-5.581a2.152,2.152,0,1,0,2.16,2.152,2.158,2.158,0,0,0-2.16-2.152M5.993,8.334A3.43,3.43,0,1,1,9.43,4.906,3.439,3.439,0,0,1,5.993,8.334m0-5.581A2.152,2.152,0,1,0,8.15,4.906,2.158,2.158,0,0,0,5.993,2.753" transform="translate(4.411 2.548)" fill="#1a1818"/>
        <path id="패스_55197" data-name="패스 55197" d="M3.9,27.2l-.895-.914,9.31-9.084.895.914Zm13.3-.608H15.922V19.25H17.2Zm8.042-2.924L19.8,18.107l.908-.9,5.442,5.557Zm-12.586-12.7L6.443,5.207,7.3,4.261l6.214,5.756Zm7.973-.191-.9-.9,7.013-7.152.906.9Z" transform="translate(5.199 4.696)" fill="#1a1818"/>
      </g>
    </g>
  </g>
</svg>
