<svg xmlns="http://www.w3.org/2000/svg" width="157.814" height="14.029" viewBox="0 0 157.814 14.029">
    <g data-name="그룹 129140">
        <g data-name="그룹 129138">
            <path data-name="패스 72190" d="M17.523 10.692c0 1.884-1.772 1.548-1.772 2.288 0 .314.37.224.583.224.493 0 1-.078 1.592-.078.639 0 1.278.078 2.176.078.235 0 .706.022.706-.247 0-.863-2.366.392-2.366-3.151V3.538c0-.168.034-.292.146-.292.09 0 .2.09.336.235l8.893 9.588a.539.539 0 0 0 .482.258c.224 0 .224-.146.224-.549V2.428c0-1.94 1.57-1.491 1.57-2.052 0-.056 0-.235-.348-.235-.168 0-.819.078-1.985.078C26.483.218 25.945.14 25.654.14a.279.279 0 0 0-.292.314c0 .606 2.254.28 2.254 1.962v6.146c0 .46-.034.684-.146.684s-.336-.224-.572-.482L19.441.622c-.325-.348-.112-.482-.7-.482-.987 0-1.458.078-1.94.078-.359 0-.684-.078-1.032-.078a.288.288 0 0 0-.314.314c0 .886 2.075-.314 2.075 3.23v7.009z" transform="translate(1.877 .017)" style="fill:#00631b"/>
            <path data-name="패스 72191" d="M17.536 10.706h-.1a1.46 1.46 0 0 1-.841 1.48c-.213.112-.437.2-.617.314a.576.576 0 0 0-.325.493.308.308 0 0 0 .146.28l.269.056c.1 0 .2-.011.269-.011.5 0 1.009-.078 1.592-.078.639 0 1.267.078 2.176.078h.1a1.919 1.919 0 0 0 .426-.034.334.334 0 0 0 .292-.3.456.456 0 0 0-.135-.325 1.333 1.333 0 0 0-.594-.2 1.861 1.861 0 0 1-1.065-.516 3.044 3.044 0 0 1-.572-2.108V3.551l.022-.168.022-.022a.763.763 0 0 1 .258.2l8.893 9.6.078-.078-.078.067a.661.661 0 0 0 .561.292.286.286 0 0 0 .3-.191 1.739 1.739 0 0 0 .034-.46V2.441c0-.942.359-1.256.729-1.447.179-.09.37-.146.538-.224a.436.436 0 0 0 .3-.381l-.067-.2a.447.447 0 0 0-.377-.137c-.191 0-.819.078-1.985.078-1.267 0-1.794-.078-2.108-.078a.425.425 0 0 0-.325.148l-.078.269a.351.351 0 0 0 .135.269 8.34 8.34 0 0 0 1.267.493 1.22 1.22 0 0 1 .852 1.2v6.144a1.886 1.886 0 0 1-.034.493l-.034.09v.022l.011-.034h-.011l.011.034v-.033a2.128 2.128 0 0 1-.482-.449L19.532.557a1.889 1.889 0 0 1-.247-.37l-.191-.123a1.352 1.352 0 0 0-.336-.034c-.987 0-1.469.078-1.94.078-.348 0-.673-.078-1.032-.078a.415.415 0 0 0-.325.135.4.4 0 0 0-.1.292.5.5 0 0 0 .392.482 2.326 2.326 0 0 1 1.054.482 3.034 3.034 0 0 1 .617 2.265v7.009h.213v-7c0-1.783-.538-2.433-1.1-2.7a6.151 6.151 0 0 0-.717-.247c-.179-.078-.247-.112-.247-.28l.045-.146a.283.283 0 0 1 .168-.056c.336 0 .662.067 1.032.067.493 0 .964-.067 1.94-.067a.931.931 0 0 1 .292.022l.112.1a1.115 1.115 0 0 0 .224.325l7.435 8.13c.123.135.235.247.336.348a.592.592 0 0 0 .3.168l.157-.09a1.369 1.369 0 0 0 .09-.7V2.43a1.532 1.532 0 0 0-1.2-1.48c-.292-.1-.572-.168-.774-.247a.59.59 0 0 1-.224-.123l-.053-.113.047-.145a.27.27 0 0 1 .146-.067c.28 0 .83.067 2.108.067 1.166 0 1.828-.067 1.985-.067a.35.35 0 0 1 .224.056l.022.067c0 .078-.045.112-.179.191a3.144 3.144 0 0 0-.852.426 1.754 1.754 0 0 0-.538 1.435v10.35a1.557 1.557 0 0 1-.022.392c-.022.045 0 .045-.09.056-.224 0-.258-.067-.392-.224l-8.893-9.6-.078.067.078-.067a.647.647 0 0 0-.415-.28.246.246 0 0 0-.213.157.6.6 0 0 0-.045.247V9.8c0 1.794.617 2.433 1.245 2.68.314.123.617.157.83.224a.465.465 0 0 1 .224.1l.056.157a.186.186 0 0 1-.123.1 1.89 1.89 0 0 1-.37.034h-.1c-.9 0-1.525-.078-2.176-.078-.606 0-1.1.078-1.592.078h-.269l-.157-.022-.045-.1c0-.135.067-.213.224-.314a6.852 6.852 0 0 0 .953-.538 1.718 1.718 0 0 0 .606-1.435h-.112z" transform="translate(1.865 .003)" style="fill:#00631b"/>
            <path data-name="패스 72192" d="M52.9 10.792c0 2.2-2.086 1.3-2.086 2.03 0 .4.314.392.65.392.74 0 1.346-.078 2.59-.078s1.85.078 2.59.078c.538 0 .908.056.908-.392 0-.516-2.366.022-2.366-2.254V2.236c0-.886.179-.976.942-.976H57.7c2.119-.078 1.536 1.974 2.265 1.974.482 0 .28-.718.247-.942L60.014.6c-.022-.191-.022-.449-.3-.449-1.716 0-2.96.067-5.652.067S50.123.15 48.408.15c-.28 0-.28.258-.292.449l-.292 2.433c-.034.235-.146.639.235.639.83 0 .28-2.411 2.366-2.411h1.559c.751 0 .942.09.942.976V10.8z" transform="translate(5.801 .018)" style="fill:#00631b"/>
            <path data-name="패스 72193" d="M52.917 10.8H52.8c0 1.065-.471 1.312-.964 1.469-.247.067-.5.09-.718.146a.652.652 0 0 0-.28.135.331.331 0 0 0-.123.28.423.423 0 0 0 .235.426.994.994 0 0 0 .449.067h.067c.751 0 1.346-.078 2.59-.078s1.839.078 2.59.078h.292a1 1 0 0 0 .493-.078.437.437 0 0 0 .224-.426.289.289 0 0 0-.157-.247 2.151 2.151 0 0 0-.572-.179 2.571 2.571 0 0 1-1.077-.449 1.645 1.645 0 0 1-.561-1.379V2.248c0-.437.056-.65.157-.74s.3-.135.684-.123h1.682a1.362 1.362 0 0 1 1.458.92c.1.235.157.482.247.684a.5.5 0 0 0 .46.37.371.371 0 0 0 .336-.168.613.613 0 0 0 .079-.348 2.648 2.648 0 0 0-.079-.549L60.116.6a.942.942 0 0 0-.056-.326.37.37 0 0 0-.347-.224c-1.727 0-2.96.078-5.652.078S50.125.05 48.409.05a.339.339 0 0 0-.336.224 1.238 1.238 0 0 0-.057.326l-.292 2.433a2.6 2.6 0 0 0-.045.359.447.447 0 0 0 .078.28.362.362 0 0 0 .314.135.6.6 0 0 0 .527-.437 9.044 9.044 0 0 1 .493-1.256A1.438 1.438 0 0 1 50.45 1.4h1.559a1.128 1.128 0 0 1 .684.123c.1.09.157.3.157.74v8.567h.213V2.248a1.2 1.2 0 0 0-.224-.9 1.193 1.193 0 0 0-.83-.179H50.45A1.726 1.726 0 0 0 48.7 2.45c-.112.3-.191.617-.28.819-.1.224-.179.314-.325.314a.182.182 0 0 1-.146-.045l-.034-.146a1.621 1.621 0 0 1 .045-.325l.292-2.434A.9.9 0 0 1 48.3.364c.034-.056.045-.078.146-.09 1.716 0 2.96.078 5.652.078s3.933-.078 5.648-.078c.1 0 .112.034.146.09a1.352 1.352 0 0 1 .045.258l.2 1.693a3.046 3.046 0 0 1 .067.516.464.464 0 0 1-.045.235.163.163 0 0 1-.159.068c-.123 0-.191-.067-.269-.247a5.3 5.3 0 0 0-.431-1.054 1.617 1.617 0 0 0-1.46-.673h-.112v.011h-1.57a1.193 1.193 0 0 0-.83.179c-.179.179-.213.449-.224.9v8.343a1.8 1.8 0 0 0 1.256 1.884 7.849 7.849 0 0 0 .819.224 1.175 1.175 0 0 1 .247.09l.045.067c0 .157-.034.191-.112.235a.744.744 0 0 1-.392.045h-.292c-.729 0-1.346-.078-2.59-.078s-1.862.078-2.59.078h-.067a.8.8 0 0 1-.359-.045c-.067-.034-.112-.078-.112-.235l.056-.123a1.043 1.043 0 0 1 .426-.135 2.328 2.328 0 0 0 1.032-.359 1.615 1.615 0 0 0 .572-1.413h-.1z" transform="translate(5.789 .006)" style="fill:#00631b"/>
            <path data-name="패스 72194" d="M82.852 2.1c0-1.749 1.391-1.088 1.391-1.716 0-.224-.09-.258-.65-.258-1.054 0-1.716.078-2.389.078S79.836.13 79.118.13c-.168 0-.628-.056-.628.258 0 .65 2.086.135 2.086 1.805v8.859c0 1.749-1.334 1.278-1.334 1.918a.2.2 0 0 0 .2.224c.482 0 1.278-.078 2.075-.078 1.447 0 2.131.078 2.815.078.426 0 .583-.078.583-.28 0-.583-2.063.258-2.063-2.007z" transform="translate(9.529 .015)" style="fill:#00631b"/>
            <path data-name="패스 72195" d="M82.864 2.115h.1c0-.852.314-1.054.628-1.177.168-.067.336-.09.482-.157A.39.39 0 0 0 84.356.4l-.034-.181a.344.344 0 0 0-.247-.157A2.661 2.661 0 0 0 83.6.04c-1.065 0-1.727.078-2.389.078-.634 0-1.352-.078-2.081-.078h-.168a.958.958 0 0 0-.348.045.346.346 0 0 0-.224.315.407.407 0 0 0 .123.28 5.3 5.3 0 0 0 1.177.4 1.1 1.1 0 0 1 .786 1.12v8.859c0 .852-.3 1.11-.606 1.278-.157.09-.325.135-.46.224a.456.456 0 0 0-.258.415l.056.2a.313.313 0 0 0 .247.123c.493 0 1.278-.067 2.075-.067 1.435 0 2.119.067 2.815.067a1.155 1.155 0 0 0 .493-.067.345.345 0 0 0 .2-.314.293.293 0 0 0-.135-.247 1.337 1.337 0 0 0-.516-.135 1.922 1.922 0 0 1-.931-.314 1.524 1.524 0 0 1-.482-1.3V2.115h-.213v8.8c0 1.166.561 1.592 1.11 1.738.269.078.538.09.718.135a.6.6 0 0 1 .2.067l.045.067-.078.123a1.019 1.019 0 0 1-.4.056c-.673 0-1.368-.078-2.815-.078-.8 0-1.6.078-2.075.078l-.078-.034-.022-.09c0-.123.045-.168.157-.235a3.38 3.38 0 0 0 .718-.392 1.6 1.6 0 0 0 .46-1.29V2.2A1.36 1.36 0 0 0 79.579.814c-.269-.078-.527-.135-.718-.2a.835.835 0 0 1-.2-.1L78.6.4l.09-.123a.656.656 0 0 1 .269-.034h.168c.706 0 1.435.078 2.086.078S82.55.242 83.6.242a1.45 1.45 0 0 1 .5.045l.034.034V.41c0 .112-.022.135-.146.191a2.728 2.728 0 0 0-.751.292 1.375 1.375 0 0 0-.482 1.234h.112z" transform="translate(9.517 .005)" style="fill:#00631b"/>
            <path data-name="패스 72196" d="M106.131 2.114c0-1.749 1.391-1.088 1.391-1.716 0-.224-.09-.258-.65-.258-1.054 0-1.716.078-2.377.078S103.126.14 102.408.14c-.168 0-.628-.056-.628.258 0 .639 2.086.123 2.086 1.805v8.859c0 1.749-1.334 1.278-1.334 1.918a.2.2 0 0 0 .2.224c.482 0 1.278-.078 2.075-.078 1.435 0 2.119.078 2.8.078.426 0 .594-.078.594-.28 0-.583-2.075.258-2.075-2.007v-8.8z" transform="translate(12.356 .016)" style="fill:#00631b"/>
            <path data-name="패스 72197" d="M106.142 2.123h.1c0-.852.314-1.054.628-1.177.157-.056.325-.09.482-.146a.381.381 0 0 0 .28-.381l-.032-.18a.344.344 0 0 0-.247-.157 2.661 2.661 0 0 0-.471-.022c-1.054 0-1.727.078-2.377.078S103.148.06 102.419.06h-.179a.9.9 0 0 0-.34.04.321.321 0 0 0-.213.314.381.381 0 0 0 .123.269 5.218 5.218 0 0 0 1.189.4 1.1 1.1 0 0 1 .785 1.121v8.859c0 .852-.3 1.11-.606 1.29-.157.09-.325.135-.46.224a.476.476 0 0 0-.258.415l.056.2a.29.29 0 0 0 .258.123c.482 0 1.278-.078 2.075-.078 1.435 0 2.119.078 2.8.078a1.218 1.218 0 0 0 .5-.078.345.345 0 0 0 .2-.314.279.279 0 0 0-.135-.247 1.337 1.337 0 0 0-.516-.135 1.922 1.922 0 0 1-.931-.314 1.524 1.524 0 0 1-.482-1.3V2.123h-.213v8.8c0 1.166.572 1.592 1.11 1.738a6.393 6.393 0 0 0 .718.135.579.579 0 0 1 .191.067l.045.078-.078.112a1.088 1.088 0 0 1-.415.056c-.673 0-1.357-.078-2.8-.078-.8 0-1.6.078-2.075.078l-.079-.034-.022-.09c0-.123.045-.168.157-.235a3.513 3.513 0 0 0 .718-.4 1.6 1.6 0 0 0 .46-1.29V2.213a1.36 1.36 0 0 0-1.112-1.39c-.269-.078-.527-.135-.718-.2a.835.835 0 0 1-.2-.1l-.056-.112.078-.123a.9.9 0 0 1 .258-.034h.179c.706 0 1.435.078 2.086.078s1.334-.078 2.377-.078a1.993 1.993 0 0 1 .493.034l.034.034v.09c0 .112-.022.135-.135.179a2.728 2.728 0 0 0-.751.292 1.375 1.375 0 0 0-.482 1.234h.1z" transform="translate(12.345 .007)" style="fill:#00631b"/>
            <path data-name="패스 72198" d="M115.987 10.772c0 2.2-2.086 1.312-2.086 2.03 0 .4.314.392.65.392.74 0 1.357-.078 2.59-.078s1.85.078 2.59.078c.538 0 .908.056.908-.392 0-.516-2.366.022-2.366-2.254V2.216c0-.886.179-.976.942-.976h1.57c2.131-.078 1.536 1.974 2.276 1.974.482 0 .28-.718.235-.942L123.1.579c-.022-.191-.022-.449-.3-.449-1.716 0-2.949.078-5.652.078S113.205.13 111.49.13c-.28 0-.28.258-.3.449l-.29 2.433c-.045.235-.157.639.235.639.83 0 .28-2.411 2.366-2.411h1.548c.763 0 .942.09.942.976v8.556z" transform="translate(13.457 .016)" style="fill:#00631b"/>
            <path data-name="패스 72199" d="M116 10.784h-.1c0 1.065-.471 1.312-.964 1.469-.247.067-.5.09-.718.146a1.062 1.062 0 0 0-.28.123.331.331 0 0 0-.123.28.445.445 0 0 0 .224.426.97.97 0 0 0 .437.067h.09c.751 0 1.357-.067 2.59-.067s1.839.067 2.59.067h.292a1.122 1.122 0 0 0 .493-.067.42.42 0 0 0 .224-.426.276.276 0 0 0-.157-.247c-.28-.157-.819-.179-1.312-.415a1.578 1.578 0 0 1-.908-1.592v-8.32c0-.437.056-.662.157-.751s.3-.135.684-.123h1.681a1.353 1.353 0 0 1 1.458.92c.1.235.157.482.247.684a.516.516 0 0 0 .46.37.385.385 0 0 0 .336-.168.613.613 0 0 0 .079-.348 2.531 2.531 0 0 0-.079-.549l-.1.022h.1l-.2-1.7a.989.989 0 0 0-.067-.325.37.37 0 0 0-.348-.224c-1.727 0-2.96.078-5.652.078S113.2.03 111.48.03a.354.354 0 0 0-.348.224 1.239 1.239 0 0 0-.056.325l-.292 2.433a2.593 2.593 0 0 0-.045.359.447.447 0 0 0 .078.28.376.376 0 0 0 .314.135.6.6 0 0 0 .527-.437 8.416 8.416 0 0 1 .482-1.256 1.438 1.438 0 0 1 1.357-.718h1.548c.381 0 .583.034.684.123s.157.3.157.751v8.556h.213V2.228c0-.449-.034-.718-.224-.9a1.251 1.251 0 0 0-.83-.191H113.5a1.74 1.74 0 0 0-1.761 1.278c-.112.314-.191.606-.28.83s-.179.314-.325.314a.182.182 0 0 1-.146-.045l-.034-.146a1.62 1.62 0 0 1 .046-.321L111.29.6a.645.645 0 0 1 .045-.269c.034-.056.045-.078.146-.09 1.716 0 2.949.078 5.652.078s3.936-.078 5.652-.078c.1 0 .123.022.146.09a.9.9 0 0 1 .045.269l.2 1.7a2.792 2.792 0 0 1 .078.516.4.4 0 0 1-.045.224.156.156 0 0 1-.157.078c-.123 0-.191-.067-.269-.247a5.3 5.3 0 0 0-.437-1.054 1.617 1.617 0 0 0-1.458-.673h-.112v.011h-1.57a1.135 1.135 0 0 0-.83.191c-.179.179-.213.449-.224.9v8.332a1.8 1.8 0 0 0 1.256 1.884 7.848 7.848 0 0 0 .819.224.858.858 0 0 1 .235.09l.045.056c0 .157-.045.191-.112.235a.94.94 0 0 1-.4.045h-.295c-.729 0-1.346-.078-2.59-.078s-1.862.078-2.59.078h-.09a.768.768 0 0 1-.348-.045c-.067-.034-.1-.078-.112-.235l.056-.123a.983.983 0 0 1 .426-.135 2.5 2.5 0 0 0 1.032-.348 1.644 1.644 0 0 0 .572-1.413h-.112z" transform="translate(13.444 .003)" style="fill:#00631b"/>
            <path data-name="패스 72200" d="M45.457 5.457V2.294c0-2.086 1.3-1.424 1.3-1.918 0-.2-.112-.235-.336-.235-.92.034-1.5.078-2.1.078-.516 0-1.02-.034-1.559-.078-.236 0-.561-.09-.561.2 0 .662 2.276.09 2.276 2.209v4.522c.168 4.5-2.254 5.259-4.16 5.181-3.588 0-4.048-2.366-4.048-5.181v-4C36.273.04 37.832 1.016 37.832.4c0-.112-.034-.258-.2-.258-.348 0-1.66.078-2.6.078S32.718.141 32.471.141c-.146 0-.381.056-.381.292 0 .7 1.929.112 1.929 1.693v6.011c0 3.577 2.635 5.181 6.1 5.181 3.409-.022 5.259-1.7 5.383-5.181V5.468l-.022-.022z" transform="translate(3.896 .015)" style="fill:#00631b"/>
            <path data-name="패스 72201" d="M45.469 5.468h.112V2.305c0-1.02.3-1.312.583-1.458A4 4 0 0 1 46.6.7l.179-.1.09-.213a.326.326 0 0 0-.135-.28.544.544 0 0 0-.3-.056c-.92.034-1.5.078-2.1.078a16.394 16.394 0 0 1-1.545-.078C42.711.051 42.6.04 42.5.04l-.249.06a.286.286 0 0 0-.123.269.374.374 0 0 0 .135.28 11.294 11.294 0 0 0 1.278.46 1.426 1.426 0 0 1 .859 1.465v4.979a4.842 4.842 0 0 1-1.256 3.757 3.729 3.729 0 0 1-2.557.863h-.235c-1.772 0-2.736-.572-3.286-1.48a7.024 7.024 0 0 1-.662-3.6v-4c0-1.5.381-1.951.718-2.142a2.12 2.12 0 0 1 .52-.171l.213-.1a.313.313 0 0 0 .1-.247L37.9.208a.275.275 0 0 0-.258-.135c-.359 0-1.671.078-2.6.078S32.73.074 32.483.074a.621.621 0 0 0-.3.067.386.386 0 0 0-.191.336.478.478 0 0 0 .37.437 7.2 7.2 0 0 1 1 .3.929.929 0 0 1 .549.953v6.014A4.807 4.807 0 0 0 35.7 12.2a7.173 7.173 0 0 0 4.407 1.267A5.552 5.552 0 0 0 44.1 12.14a5.531 5.531 0 0 0 1.491-3.959V5.468l-.045-.056-.078.067-.078.067.022.022.078-.067h-.11V8.17a5.207 5.207 0 0 1-1.424 3.8 5.467 5.467 0 0 1-3.856 1.269 6.894 6.894 0 0 1-4.273-1.222 4.605 4.605 0 0 1-1.718-3.847V2.148a1.254 1.254 0 0 0-.336-.92 2.184 2.184 0 0 0-1.065-.46 1.3 1.3 0 0 1-.4-.135c-.09-.056-.123-.1-.123-.191L32.259.3l.2-.045c.235 0 1.626.078 2.557.078s2.254-.078 2.6-.078l.084.032.02.123-.033.09a3.04 3.04 0 0 1-.314.112 1.232 1.232 0 0 0-.8.527 3.412 3.412 0 0 0-.415 1.94v4a7.322 7.322 0 0 0 .7 3.7c.583.987 1.648 1.592 3.465 1.581h.235a3.867 3.867 0 0 0 2.7-.931 5.02 5.02 0 0 0 1.323-3.9V5.445l.011-2.9A1.674 1.674 0 0 0 43.383.791C43.092.69 42.8.623 42.6.556a.593.593 0 0 1-.224-.112L42.318.32l.034-.09.135-.022c.078 0 .191.011.292.011C43.3.253 43.81.3 44.337.3c.606 0 1.189-.034 2.108-.078.1 0 .179.011.191.034l.034.1-.022.067c-.056.078-.392.078-.7.28s-.572.639-.572 1.57v3.2l.024.027.078-.067z" transform="translate(3.884 .005)" style="fill:#00631b"/>
            <path data-name="패스 72202" d="M71.911 11.67a4.524 4.524 0 0 0 3.723 2.23c.359 0 1.716-.067 1.671-.392-.045-.37-.336-.247-.83-.359-1.4-.348-4.43-4.867-5.3-5.416a3.792 3.792 0 0 0 3.544-4.172C74.681 2.867 74.344.12 70.3.12c-1.234 0-4.1.067-5.338.067-1.17 0-1.316-.067-2.168-.067-.224 0-.4.09-.4.28 0 .662 2.007-.022 2.007 2.041v8.108c0 2.321-1.491 1.716-1.491 2.31 0 .37.381.314.594.314.92 0 1.85-.067 2.848-.067.774 0 1.278.067 1.592.067.426 0 .572-.112.572-.269 0-.673-1.9-.078-1.85-2V2.195c0-1.1.583-1.1 1.267-1.1 1.862 0 4.665-.135 4.788 3.005a2.964 2.964 0 0 1-3.342 2.86c-.359 0-1.02.09-1.1.28-.09.235-.034.381.437.561s1.391 1.3 3.2 3.858" transform="translate(7.574 .014)" style="fill:#00631b"/>
            <path data-name="패스 72203" d="m71.923 11.684-.09.056a4.689 4.689 0 0 0 3.813 2.288h.054a7.139 7.139 0 0 0 .976-.078 2.512 2.512 0 0 0 .482-.123c.123-.056.247-.123.258-.28v-.034a.419.419 0 0 0-.112-.258.572.572 0 0 0-.348-.123 2.421 2.421 0 0 1-.449-.067c-.628-.146-1.761-1.357-2.792-2.6-.515-.62-1.015-1.248-1.456-1.765a6.094 6.094 0 0 0-1.032-1.054l-.056.09v.1A3.877 3.877 0 0 0 74.827 3.8v-.246a3.832 3.832 0 0 0-.727-2.041A4.455 4.455 0 0 0 70.3.01c-1.234 0-4.1.067-5.338.067C63.8.077 63.658.01 62.795.01a.562.562 0 0 0-.336.09.34.34 0 0 0-.168.3.326.326 0 0 0 .123.269c.258.213.718.2 1.133.392a1.3 1.3 0 0 1 .753 1.382v8.108c0 1.144-.359 1.514-.7 1.716-.179.1-.359.146-.5.213a.424.424 0 0 0-.3.381.389.389 0 0 0 .191.359.752.752 0 0 0 .336.067h.168c.931 0 1.85-.078 2.848-.078.763 0 1.256.067 1.592.067a1.1 1.1 0 0 0 .493-.09.327.327 0 0 0 .191-.292.454.454 0 0 0-.359-.415 5.28 5.28 0 0 1-.953-.359 1.194 1.194 0 0 1-.538-1.144V2.2c0-.538.135-.763.325-.875a1.642 1.642 0 0 1 .83-.123h.449a6.93 6.93 0 0 1 2.77.4 2.586 2.586 0 0 1 1.469 2.5v.056a2.8 2.8 0 0 1-.639 1.66 3.061 3.061 0 0 1-2.512 1.043h-.135a2.865 2.865 0 0 0-.662.078.988.988 0 0 0-.292.1.4.4 0 0 0-.2.179l-.045.2a.336.336 0 0 0 .146.28 1.254 1.254 0 0 0 .392.213 3.947 3.947 0 0 1 1.054 1.009c.516.617 1.2 1.536 2.1 2.815l.179-.123c-.9-1.278-1.592-2.2-2.108-2.826a4.083 4.083 0 0 0-1.133-1.077 1.408 1.408 0 0 1-.336-.179l-.067-.123.034-.123.09-.067a2.574 2.574 0 0 1 .863-.157h.135a3.286 3.286 0 0 0 2.669-1.121 2.919 2.919 0 0 0 .684-1.794v-.064A2.775 2.775 0 0 0 71.228 1.4a6.94 6.94 0 0 0-2.86-.426h-.449a1.861 1.861 0 0 0-.942.157c-.269.157-.426.493-.426 1.054v8.781a1.421 1.421 0 0 0 .987 1.5c.235.09.471.135.628.2s.224.123.224.224l-.067.1a.953.953 0 0 1-.392.056c-.3 0-.807-.067-1.592-.067-1 0-1.929.067-2.848.067h-.168a.5.5 0 0 1-.235-.034.164.164 0 0 1-.079-.168c0-.09.034-.123.168-.179a2.321 2.321 0 0 0 .819-.449 2.246 2.246 0 0 0 .5-1.671v-8.1A1.528 1.528 0 0 0 63.423.806c-.258-.09-.516-.135-.7-.191l-.191-.09-.04-.111.067-.124a.764.764 0 0 1 .235-.056c.841 0 .987.067 2.164.067 1.234 0 4.1-.067 5.338-.067a4.215 4.215 0 0 1 3.622 1.424 3.568 3.568 0 0 1 .682 1.929v.235a3.656 3.656 0 0 1-3.454 3.824l-.292.034.247.157a6.51 6.51 0 0 1 .976 1.009c.65.763 1.458 1.794 2.243 2.669a5.814 5.814 0 0 0 2.119 1.749c.258.067.46.056.583.09l.112.056.045.135-.022.022a1.617 1.617 0 0 1-.673.191 6.22 6.22 0 0 1-.819.056h-.056a4.423 4.423 0 0 1-3.633-2.187l-.09.056z" transform="translate(7.562 .001)" style="fill:#00631b"/>
            <path data-name="패스 72204" d="M93.222 1.8c0-1.4 1.312-.718 1.312-1.424 0-.224-.1-.235-.482-.235-.292 0-.516.078-2.1.078-.7 0-1.772-.078-2.512-.078-.381 0-.583.146-.583.314 0 .65 2.086.146 2.086 1.716v8.724c0 2.243-1.4 1.256-1.4 2.108 0 .112.112.2.348.2 1.02 0 1.794-.078 2.366-.078.931 0 3.005-.022 6.336.078a2.834 2.834 0 0 0 2.6-2.949c0-.359-.135-.4-.2-.4-.706 0-.46 2.052-5.024 2.355-3.039.2-2.68-.179-2.759-1.749V1.8z" transform="translate(10.788 .017)" style="fill:#00631b"/>
            <path data-name="패스 72205" d="M93.233 1.812h.112a.978.978 0 0 1 .179-.65 1.116 1.116 0 0 1 .639-.28A1.113 1.113 0 0 0 94.5.746a.405.405 0 0 0 .157-.359.333.333 0 0 0-.157-.3 1.15 1.15 0 0 0-.426-.047c-.314 0-.516.078-2.1.078-.7 0-1.772-.078-2.512-.078a.919.919 0 0 0-.493.112.358.358 0 0 0-.2.314.364.364 0 0 0 .123.28 5.218 5.218 0 0 0 1.189.4 1.024 1.024 0 0 1 .785 1.043v8.724c0 1.11-.325 1.346-.639 1.48-.157.067-.336.09-.482.157a.481.481 0 0 0-.28.471.269.269 0 0 0 .135.224.56.56 0 0 0 .325.078c1.02 0 1.805-.078 2.366-.078h1.054c1.144 0 2.893 0 5.282.078h.067a2.948 2.948 0 0 0 2.646-3.05.741.741 0 0 0-.09-.4l-.213-.112c-.235 0-.381.168-.527.37-.449.594-1.1 1.761-4.508 2-.482.034-.875.045-1.2.045a3.836 3.836 0 0 1-.942-.09.555.555 0 0 1-.449-.471 9.256 9.256 0 0 1-.056-1.133v-8.67h-.213v8.646A3.857 3.857 0 0 0 93.3 11.9a.794.794 0 0 0 .5.359 3.78 3.78 0 0 0 1 .1c.325 0 .729-.022 1.211-.045 2.3-.157 3.409-.751 4.026-1.323a4.564 4.564 0 0 0 .639-.751c.146-.2.247-.292.359-.28l.045.022a.68.68 0 0 1 .056.28 3.183 3.183 0 0 1-.7 1.94 2.261 2.261 0 0 1-1.738.908h-.048c-2.4-.067-4.149-.078-5.293-.078H92.3c-.583 0-1.357.078-2.366.078a.429.429 0 0 1-.213-.045l-.034-.056a.252.252 0 0 1 .157-.28 2.428 2.428 0 0 0 .763-.314c.28-.224.482-.65.482-1.514V2.182A1.307 1.307 0 0 0 89.97.881C89.7.8 89.443.758 89.252.69a.835.835 0 0 1-.2-.1l-.058-.113.1-.123a.775.775 0 0 1 .381-.078c.74 0 1.805.078 2.512.078 1.581 0 1.817-.078 2.1-.078.191 0 .314 0 .348.034.022.011.022 0 .034.1a.2.2 0 0 1-.146.224 6.819 6.819 0 0 0-.7.224.962.962 0 0 0-.471.976h.1z" transform="translate(10.777 .005)" style="fill:#00631b"/>
            <path data-name="패스 72206" d="M129.271 2.264c0-1.267 0-1.29 4.015-1.29 3.566 0 2.131 2.153 2.994 2.153.426 0 .325-.606.314-.852l-.068-1.827a.354.354 0 0 0-.37-.348c-1.626 0-4.6.067-5.921.067-2.826 0-4.16-.067-4.912-.067-.258 0-.4.146-.4.314 0 .74 2.086.146 2.086 1.805v8.635c0 2.243-1.4 1.256-1.4 2.1 0 .112.112.2.348.2 1.02 0 1.794-.067 2.366-.067.931 0 3.925.112 6.74.112a2.923 2.923 0 0 0 2.635-2.983c0-.348-.123-.415-.2-.415-.706 0-.449 2.422-5.024 2.422-3.106 0-3.185-.662-3.185-1.805V8.051c0-1.065-.078-1.29.774-1.29h2.994c1.918 0 1.4 1.951 2 1.951.437 0 .336-.662.314-.908l-.135-3.286c-.022-.493-.224-.46-.348-.46-.37 0-.426 1.7-2.019 1.7h-2.781c-.8 0-.8-.135-.8-.931V2.253z" transform="translate(15.165 .012)" style="fill:#00631b"/>
            <path data-name="패스 72207" d="M129.284 2.274h.1v-.022a2.2 2.2 0 0 1 .056-.684.455.455 0 0 1 .224-.258c.381-.2 1.379-.224 3.622-.224 1.772 0 2.232.516 2.411 1.009a3.808 3.808 0 0 1 .146.729.677.677 0 0 0 .123.292.376.376 0 0 0 .314.135.4.4 0 0 0 .37-.224 1.222 1.222 0 0 0 .079-.392c0-.135-.022-.269-.022-.336l-.077-1.83a.455.455 0 0 0-.471-.449c-1.626 0-4.609.078-5.921.078-2.826 0-4.149-.078-4.912-.078a.566.566 0 0 0-.37.123.412.412 0 0 0-.146.3.5.5 0 0 0 .392.46c.314.123.751.168 1.1.336a1.007 1.007 0 0 1 .594 1.009v8.635c0 1.11-.325 1.346-.639 1.48-.157.067-.336.09-.482.157a.459.459 0 0 0-.28.46.277.277 0 0 0 .135.235.559.559 0 0 0 .325.078c1.02 0 1.805-.067 2.366-.067.92 0 3.925.112 6.74.112a3.032 3.032 0 0 0 2.747-3.084.672.672 0 0 0-.09-.392l-.213-.123a.424.424 0 0 0-.3.135 7.787 7.787 0 0 1-1.077 1.323 5.526 5.526 0 0 1-3.656.964 4.722 4.722 0 0 1-2.691-.46c-.359-.269-.381-.673-.381-1.245V7.668a1.187 1.187 0 0 1 .09-.628c.067-.078.224-.135.583-.135h2.994a1.277 1.277 0 0 1 1.391.908c.09.235.135.471.213.673a.938.938 0 0 0 .135.258.355.355 0 0 0 .258.123.4.4 0 0 0 .37-.224 1 1 0 0 0 .078-.4c0-.157-.022-.3-.022-.381l-.135-3.274a.68.68 0 0 0-.135-.46.37.37 0 0 0-.269-.1h-.051a.264.264 0 0 0-.2.112c-.325.4-.5 1.592-1.805 1.592h-2.781c-.393 0-.561-.045-.606-.123a1.452 1.452 0 0 1-.079-.7V2.33h-.213v2.579a1.536 1.536 0 0 0 .123.83c.146.179.381.2.774.2h2.787a1.743 1.743 0 0 0 1.559-.9c.135-.224.224-.437.3-.594l.112-.168.045-.034h.045l.112.034a.648.648 0 0 1 .078.325l.135 3.286c0 .09.022.235.022.37a.63.63 0 0 1-.056.314.173.173 0 0 1-.179.112l-.1-.045a10.828 10.828 0 0 1-.381-1.054 1.5 1.5 0 0 0-1.514-.852h-2.994c-.359 0-.594.034-.74.2a1.226 1.226 0 0 0-.135.763v2.792a1.593 1.593 0 0 0 .471 1.424 4.954 4.954 0 0 0 2.826.493c2.31 0 3.431-.606 4.048-1.245a5.214 5.214 0 0 0 .639-.852 1.4 1.4 0 0 1 .191-.258l.157-.078.045.034a.68.68 0 0 1 .056.28 3.213 3.213 0 0 1-.729 1.962 2.369 2.369 0 0 1-1.805.92c-2.815 0-5.809-.112-6.74-.112-.583 0-1.357.078-2.366.078a.35.35 0 0 1-.2-.045l-.034-.056c0-.179.045-.213.157-.269a2.428 2.428 0 0 0 .763-.314 1.826 1.826 0 0 0 .482-1.514V2.24a1.265 1.265 0 0 0-.359-.953 2.389 2.389 0 0 0-1.155-.493 1.978 1.978 0 0 1-.437-.146c-.1-.067-.135-.112-.135-.213s.078-.2.3-.2c.751 0 2.086.067 4.912.067 1.312 0 4.295-.067 5.921-.067a.262.262 0 0 1 .269.247l.079 1.828c0 .09.022.213.022.325a.784.784 0 0 1-.045.3.18.18 0 0 1-.179.1l-.146-.056a1.034 1.034 0 0 1-.123-.449 1.638 1.638 0 0 0-.5-1.088 3.281 3.281 0 0 0-2.22-.572 15.838 15.838 0 0 0-3.532.168.752.752 0 0 0-.516.449 2.528 2.528 0 0 0-.067.763v.022h.1z" transform="translate(15.152 .002)" style="fill:#00631b"/>
        </g>
        <path data-name="패스 72208" d="M0 13.27h13.143V.15z" transform="translate(0 .018)" style="fill:#00631b"/>
        <path data-name="패스 72209" d="M0 .16v13.109L13.143.16z" transform="translate(0 .019)" style="fill:#98c93c"/>
        <path data-name="패스 72210" d="M0 .16v13.087L13.12.16z" transform="translate(0 .019)" style="fill:#8bc53f"/>
        <g data-name="그룹 129139">
            <path data-name="패스 72211" d="M7.522 5.655a3.523 3.523 0 0 0 2.333-.336 3.662 3.662 0 0 0 1.424-2.063c.056-.011.1-.022 0 0v-.035a3.693 3.693 0 0 0-2.523.292 3.356 3.356 0 0 0-1.245 1.559c-.078.2-.135.37-.168.46-.572.468-1.122.975-1.627 1.446.045-.112.078-.247.123-.381a3.6 3.6 0 0 0 1.268-2.064A3.719 3.719 0 0 0 6.389 2.1a3.7 3.7 0 0 0-1.368 2.142A3.475 3.475 0 0 0 5.627 6.5a1 1 0 0 0 .1.135 1.374 1.374 0 0 1-.336.65l-.045.045a22.02 22.02 0 0 1-1.962 1.678 1.559 1.559 0 0 0 .135-.314 3.691 3.691 0 0 0 1.233-2.243 3.827 3.827 0 0 0-.9-2.467 3.839 3.839 0 0 0-1.278 2.3 3.749 3.749 0 0 0 .841 2.4 1.036 1.036 0 0 1-.5.639l-.045.022a3.055 3.055 0 0 1-1.312.449H1.5V9.9h.056a3.536 3.536 0 0 0 1.738-.684 1.95 1.95 0 0 1 .561-.146 1.063 1.063 0 0 0 .123.146 3.563 3.563 0 0 0 1.929 1.256 3.742 3.742 0 0 0 2.467-.628A3.692 3.692 0 0 0 6.288 8.4a3.418 3.418 0 0 0-2.075.392c-.112.056-.2.112-.269.146a1.788 1.788 0 0 0-.336.067 21.4 21.4 0 0 0 1.727-1.489l.045-.022a1.746 1.746 0 0 1 .807-.314l.056.078A3.589 3.589 0 0 0 8.161 8.6a3.666 3.666 0 0 0 2.478-.549A3.74 3.74 0 0 0 8.6 6.541a3.576 3.576 0 0 0-2.4.5 1.984 1.984 0 0 0-.493.123c.493-.46 1.077-1 1.682-1.5l.123.022z" transform="translate(.182 .255)" style="fill:#fff"/>
            <path data-name="패스 72212" d="M5.483 5.232a11.184 11.184 0 0 1 .393-2.972l-.023.04a9.79 9.79 0 0 0-.482 2.92 11.989 11.989 0 0 1-.1 1.211.566.566 0 0 0 .123-.2 9.311 9.311 0 0 0 .067-1" transform="translate(.64 .274)" style="fill:#8bc53f"/>
            <path data-name="패스 72213" d="m6.053 6.42-.213.1v.022a10.818 10.818 0 0 1 4.037.83 13.873 13.873 0 0 0-2.377-.8 6.672 6.672 0 0 0-1.458-.152" transform="translate(.709 .779)" style="fill:#00631b"/>
            <path data-name="패스 72214" d="M7.829 9.08a12.12 12.12 0 0 0-3.858-.92.652.652 0 0 0-.179.056l-.022.034a12.98 12.98 0 0 1 4.1.852z" transform="translate(.458 .991)" style="fill:#00631b"/>
            <path data-name="패스 72215" d="M10.432 3.16h-.022a11.312 11.312 0 0 0-3.42 1.951L6.9 5.3l.336-.269a13.738 13.738 0 0 1 3.2-1.873" transform="translate(.838 .384)" style="fill:#00631b"/>
            <path data-name="패스 72216" d="M3.6 3.991v.056a8.817 8.817 0 0 0-.348 2.837c0 .4 0 .785-.034 1.11a1.529 1.529 0 0 1 .045.191H3.3a7.935 7.935 0 0 0 .078-1.312 9.65 9.65 0 0 1 .234-2.893" transform="translate(.391 .483)" style="fill:#8bc53f"/>
        </g>
    </g>
    <path data-name="패스 72217" d="M136.69 0v.359h.706v1.794h.426V.359h.706V0h-1.838zm3.925 0-.549 1.548-.55-1.548h-.616v2.153h.392V.415l.606 1.738h.336l.594-1.738v1.738h.393V0h-.621z" transform="translate(16.594)" style="fill:#00631b"/>
</svg>
