<svg xmlns="http://www.w3.org/2000/svg" xmlns:xlink="http://www.w3.org/1999/xlink" width="232" height="39.209" viewBox="0 0 232 39.209">
  <defs>
    <clipPath id="clip-path">
      <rect id="사각형_12291" data-name="사각형 12291" width="232" height="39.209" fill="none"/>
    </clipPath>
  </defs>
  <g id="그룹_91220" data-name="그룹 91220" clip-path="url(#clip-path)">
    <path id="패스_49683" data-name="패스 49683" d="M24.435,31.612c-.455.548-.829.722-1.07.589-.308-.171-.265-.594-.019-1.608.576-2.679,1.109-5.145,1.724-7.73,1.07-4.8.1-5.617-1.247-5.617-2.074,0-5.612,2.489-8.721,7.318l.29-1.276c1.174-5.386.108-6.041-1.209-6.041-2.18,0-5.514,2.521-8.5,6.989l.511-2.121c.761-3.56.361-4.868-.912-4.868-1.438,0-3.323,1.531-5.123,3.762l.314.467a4.831,4.831,0,0,1,2.273-1.567c.415,0,.483.454.2,1.761C1.974,26.053.955,30.22,0,34.413l.209.222a21.516,21.516,0,0,1,3.4-.728c.3-1.526.706-3.5,1.1-5.147A12.218,12.218,0,0,1,6.148,24.9C7.831,22.1,10.32,19.6,11.7,19.6c.965,0,.953.994.315,3.969-.706,3.205-1.659,7.182-2.548,10.877l.221.194a17.511,17.511,0,0,1,3.454-.728c.3-1.526.758-3.5,1.146-5.147a11.681,11.681,0,0,1,1.419-3.787c1.655-2.761,4.236-5.377,5.54-5.377.879,0,1.008.731.55,2.853-.665,2.83-1.275,5.456-1.943,8.409-.692,2.9-.316,3.758.846,3.9.785.095,1.8-.2,3.844-2.648Z" transform="translate(0 -9.254)" fill="#1a1818"/>
    <path id="패스_49684" data-name="패스 49684" d="M67.458,17.237a2.887,2.887,0,0,0-1.753.963,1.078,1.078,0,0,0-.3,1.076,8.018,8.018,0,0,1,.779,2.522c.012,2.644-3.522,8.041-5.017,10.257-.119-2.908-.342-7.106-.616-9.626-.327-3.3-.785-5.091-2.127-5.192-1.764-.132-3.153,1.19-4.3,2.906l.352.431c.847-1.111,1.361-.861,1.623-.622.336.305.8,1.039,1.129,3.48.469,3.687.93,10.337.89,12.42A52,52,0,0,1,51.1,42l.182.493,4.156-1.159A135.458,135.458,0,0,0,67.46,23.818a9.373,9.373,0,0,0,1.4-4.472c-.051-1.329-.546-2.109-1.4-2.109" transform="translate(-27.418 -9.244)" fill="#1a1818"/>
    <path id="패스_49685" data-name="패스 49685" d="M379.85,72.508a2.17,2.17,0,0,0-1.427.949c.18-.8.358-1.628.574-2.491.032-.138.025-.207-.038-.207a.73.73,0,0,0-.208.053,4.88,4.88,0,0,1-.841.17l-.042.186c.062,0,.175.008.246.014.208.02.252.035.2.307-.205,1-.418,1.938-.6,2.842-.132.656-.036.916.113,1.07a.615.615,0,0,0,.469.184,1.888,1.888,0,0,0,1.006-.367,2.466,2.466,0,0,0,1.039-1.962c0-.31-.095-.747-.491-.747m-1.237,2.768c-.282,0-.483-.218-.374-.856a1.7,1.7,0,0,1,.322-.805c.39-.511.713-.689.916-.689.188,0,.257.186.257.433,0,.742-.47,1.918-1.121,1.918" transform="translate(-202.645 -37.968)" fill="#1a1818"/>
    <path id="패스_49686" data-name="패스 49686" d="M385.508,74.534a.478.478,0,0,0-.328.184.186.186,0,0,0-.027.215.858.858,0,0,1,.1.342,4.824,4.824,0,0,1-.918,1.819c-.025-.416-.049-1-.1-1.563s-.123-1-.371-1-.634.349-.854.669l.11.177c.164-.2.332-.343.4-.343s.133.138.175.552c.063.616.145,1.582.149,2.094a6.044,6.044,0,0,1-1.5,1.363l.062.158.721-.183a21.149,21.149,0,0,0,2.393-3.339,1.689,1.689,0,0,0,.237-.772c0-.233-.1-.375-.257-.375" transform="translate(-205.167 -39.994)" fill="#1a1818"/>
    <path id="패스_49687" data-name="패스 49687" d="M410.69,72.634c-.057,0-.254.024-.616.024-.4,0-.559-.024-.656-.024a.12.12,0,0,0-.1.047l-.025.082a.113.113,0,0,0,.042.085,2.4,2.4,0,0,0,.4.152.38.38,0,0,1,.266.373v1.912a.908.908,0,0,1-.009.153l-.008.024a.67.67,0,0,1-.149-.136l-2.314-2.533a.68.68,0,0,1-.076-.114l-.06-.037a.418.418,0,0,0-.105-.009c-.308,0-.459.024-.6.024-.107,0-.209-.023-.323-.024a.13.13,0,0,0-.1.04.133.133,0,0,0-.031.089.151.151,0,0,0,.122.15.732.732,0,0,1,.328.15.948.948,0,0,1,.194.705v2.184a.465.465,0,0,1-.26.461c-.066.036-.135.063-.192.1a.183.183,0,0,0-.1.154.1.1,0,0,0,.046.088l.083.018c.032,0,.065,0,.084,0,.158,0,.314-.024.494-.024.2,0,.395.024.679.024h.031a.551.551,0,0,0,.132-.012.1.1,0,0,0,.089-.1.125.125,0,0,0-.043-.1.431.431,0,0,0-.184-.064.565.565,0,0,1-.332-.161.938.938,0,0,1-.178-.657V73.723l.007-.052.006-.007c.008,0,.042.017.079.063h0l2.767,2.988h0a.2.2,0,0,0,.173.089.086.086,0,0,0,.092-.061.536.536,0,0,0,.011-.143V73.379c0-.292.112-.39.226-.451.057-.029.117-.046.166-.069a.132.132,0,0,0,.095-.118l-.021-.064a.146.146,0,0,0-.12-.043" transform="translate(-217.973 -38.975)" fill="#1a1818"/>
    <path id="패스_49688" data-name="패스 49688" d="M434.419,72.8a.365.365,0,0,0-.018-.1.111.111,0,0,0-.108-.068c-.536,0-.92.024-1.76.024s-1.224-.024-1.76-.024a.111.111,0,0,0-.107.068.41.41,0,0,0-.019.1l-.091.758a.706.706,0,0,0-.014.111.134.134,0,0,0,.025.086.116.116,0,0,0,.1.04.181.181,0,0,0,.162-.137,2.986,2.986,0,0,1,.152-.392.443.443,0,0,1,.422-.222h.484c.117,0,.182.009.212.039s.048.095.048.231v2.666c0,.33-.146.41-.3.456-.077.022-.158.029-.223.047a.2.2,0,0,0-.086.04.113.113,0,0,0-.039.089.135.135,0,0,0,.073.134.336.336,0,0,0,.14.019h.022c.233,0,.421-.024.805-.024s.573.024.806.024h.091a.334.334,0,0,0,.153-.023.133.133,0,0,0,.07-.131.087.087,0,0,0-.048-.076.709.709,0,0,0-.179-.056.813.813,0,0,1-.336-.139.509.509,0,0,1-.174-.431v-2.6c0-.137.016-.2.047-.231s.1-.04.214-.039h.524a.423.423,0,0,1,.453.286c.031.075.049.151.076.213a.156.156,0,0,0,.142.115.118.118,0,0,0,.106-.054.2.2,0,0,0,.025-.107.932.932,0,0,0-.023-.17Z" transform="translate(-231.026 -38.976)" fill="#1a1818"/>
    <path id="패스_49689" data-name="패스 49689" d="M455.549,76.511a.59.59,0,0,1-.29-.1.477.477,0,0,1-.15-.406V73.267c0-.265.1-.327.2-.367.051-.019.1-.029.149-.048a.123.123,0,0,0,.088-.12l-.011-.056a.1.1,0,0,0-.078-.05.931.931,0,0,0-.145-.008c-.33,0-.538.025-.742.024s-.424-.024-.65-.024h-.052a.3.3,0,0,0-.108.016.1.1,0,0,0-.069.1.114.114,0,0,0,.039.085,1.687,1.687,0,0,0,.368.127.339.339,0,0,1,.244.35v2.757c0,.264-.095.344-.19.4-.049.026-.1.044-.144.069a.142.142,0,0,0-.081.129l.018.064a.092.092,0,0,0,.078.038c.152,0,.4-.023.644-.023.447,0,.659.023.874.023a.364.364,0,0,0,.155-.023.1.1,0,0,0,.062-.1.091.091,0,0,0-.043-.077.446.446,0,0,0-.162-.043" transform="translate(-243.445 -38.966)" fill="#1a1818"/>
    <path id="패스_49690" data-name="패스 49690" d="M473.087,76.525a.606.606,0,0,1-.29-.1.478.478,0,0,1-.15-.406V73.28c0-.265.1-.328.2-.367.05-.019.1-.028.148-.047a.122.122,0,0,0,.089-.118l-.011-.057a.1.1,0,0,0-.078-.049.916.916,0,0,0-.146-.007c-.329,0-.538.023-.741.023s-.424-.023-.65-.023H471.4a.288.288,0,0,0-.106.016.1.1,0,0,0-.067.1.111.111,0,0,0,.039.084,1.646,1.646,0,0,0,.369.127.338.338,0,0,1,.243.35v2.756c0,.265-.094.346-.19.4-.049.026-.1.043-.144.069a.145.145,0,0,0-.081.129l.019.063a.093.093,0,0,0,.078.038c.152,0,.4-.025.645-.025.447,0,.658.025.873.025a.38.38,0,0,0,.156-.023.1.1,0,0,0,.063-.1.091.091,0,0,0-.044-.078.42.42,0,0,0-.162-.043" transform="translate(-252.855 -38.974)" fill="#1a1818"/>
    <path id="패스_49691" data-name="패스 49691" d="M482,73.314l-.062-.526a.35.35,0,0,0-.019-.1.108.108,0,0,0-.107-.068c-.536,0-.92.024-1.76.024s-1.224-.024-1.76-.024a.108.108,0,0,0-.107.068.384.384,0,0,0-.018.1l-.09.756a.7.7,0,0,0-.015.112.133.133,0,0,0,.025.085.113.113,0,0,0,.1.04c.084,0,.133-.064.164-.137a2.687,2.687,0,0,1,.151-.393.442.442,0,0,1,.422-.222h.482c.118,0,.183.01.212.04s.049.1.048.232v2.664c0,.33-.147.41-.3.456-.078.021-.158.029-.223.046a.24.24,0,0,0-.087.04.114.114,0,0,0-.039.089.135.135,0,0,0,.07.133.31.31,0,0,0,.136.02h.027c.233,0,.422-.022.806-.022s.573.022.806.022h.091a.361.361,0,0,0,.153-.023.134.134,0,0,0,.07-.132.088.088,0,0,0-.048-.076c-.087-.049-.256-.054-.408-.128a.486.486,0,0,1-.281-.5V73.3c0-.137.017-.2.048-.232s.095-.04.213-.04h.524a.424.424,0,0,1,.454.287c.031.074.049.151.075.212a.16.16,0,0,0,.144.116.122.122,0,0,0,.106-.054.2.2,0,0,0,.025-.107A.956.956,0,0,0,482,73.314Z" transform="translate(-256.523 -38.967)" fill="#1a1818"/>
    <path id="패스_49692" data-name="패스 49692" d="M423.232,72.63h0c-.287.011-.467.023-.653.023-.161,0-.314-.012-.482-.023h0c-.026,0-.058,0-.089,0l-.077.018a.092.092,0,0,0-.04.082.11.11,0,0,0,.042.088,3.087,3.087,0,0,0,.4.144.446.446,0,0,1,.269.458v.9l0,.5c0,.051,0,.1,0,.145a1.509,1.509,0,0,1-.389,1.169,1.155,1.155,0,0,1-.8.269h-.075a1.069,1.069,0,0,1-1.021-.461,2.226,2.226,0,0,1-.208-1.12V73.575c0-.467.118-.609.225-.668a.75.75,0,0,1,.16-.054l.067-.033a.1.1,0,0,0,.031-.077l-.017-.07a.088.088,0,0,0-.079-.044c-.112,0-.519.023-.81.023s-.718-.023-.8-.023a.193.193,0,0,0-.093.021.115.115,0,0,0-.061.1.15.15,0,0,0,.115.136,2.8,2.8,0,0,1,.313.095.294.294,0,0,1,.171.3v1.872a1.5,1.5,0,0,0,.557,1.25,2.221,2.221,0,0,0,1.373.395,1.752,1.752,0,0,0,1.244-.412,1.711,1.711,0,0,0,.462-1.232v-.845l-.006-.007v-.97c0-.319.095-.41.183-.455a1.113,1.113,0,0,1,.135-.044l.057-.032.028-.067a.1.1,0,0,0-.041-.089.179.179,0,0,0-.1-.019" transform="translate(-224.691 -38.97)" fill="#1a1818"/>
    <path id="패스_49693" data-name="패스 49693" d="M446.134,76.695a1.129,1.129,0,0,1-.14-.019h0a2.787,2.787,0,0,1-.869-.81c-.162-.193-.32-.388-.454-.546a2.922,2.922,0,0,0-.262-.283,1.2,1.2,0,0,0,1.063-1.24l0-.078a1.162,1.162,0,0,0-.225-.635,1.388,1.388,0,0,0-1.182-.468c-.385,0-1.278.022-1.661.022-.361,0-.406-.022-.673-.022a.193.193,0,0,0-.106.027.1.1,0,0,0-.053.092.112.112,0,0,0,.038.085c.08.065.224.063.353.122a.408.408,0,0,1,.236.429V75.9c0,.355-.111.471-.216.533-.054.031-.111.046-.157.068a.126.126,0,0,0-.093.117.117.117,0,0,0,.06.111.214.214,0,0,0,.1.02h.053c.289,0,.576-.022.885-.022.238,0,.392.022.494.022a.338.338,0,0,0,.154-.027.1.1,0,0,0,.057-.091.144.144,0,0,0-.111-.131,1.524,1.524,0,0,1-.3-.111.373.373,0,0,1-.167-.357v-.022l0-2.712c0-.167.042-.238.1-.272a.516.516,0,0,1,.259-.038h.139a2.1,2.1,0,0,1,.862.127.8.8,0,0,1,.456.779v.018a.858.858,0,0,1-.2.515.958.958,0,0,1-.781.325h-.043a.974.974,0,0,0-.206.024.5.5,0,0,0-.091.03.116.116,0,0,0-.062.055l-.014.063a.111.111,0,0,0,.044.087.436.436,0,0,0,.122.068,1.181,1.181,0,0,1,.328.315c.16.192.373.477.653.875a1.448,1.448,0,0,0,1.185.711h.019a2.157,2.157,0,0,0,.3-.025.714.714,0,0,0,.15-.039c.039-.017.077-.04.079-.088v-.009a.136.136,0,0,0-.034-.08.172.172,0,0,0-.108-.039" transform="translate(-236.944 -38.965)" fill="#1a1818"/>
    <path id="패스_49694" data-name="패스 49694" d="M465.31,75.654c-.074,0-.118.054-.163.115-.139.184-.342.547-1.4.62-.149.011-.272.016-.372.016a1.081,1.081,0,0,1-.292-.029.173.173,0,0,1-.14-.148,3.054,3.054,0,0,1-.017-.354V73.184a.3.3,0,0,1,.056-.2.35.35,0,0,1,.2-.089.3.3,0,0,0,.1-.042.13.13,0,0,0,.05-.111.09.09,0,0,0-.05-.093.365.365,0,0,0-.133-.014c-.1,0-.16.023-.651.023-.217,0-.551-.023-.782-.023a.308.308,0,0,0-.153.033.114.114,0,0,0-.064.1.116.116,0,0,0,.039.086,1.516,1.516,0,0,0,.369.125.315.315,0,0,1,.242.324v2.716c0,.345-.1.419-.2.46-.05.02-.1.028-.152.05a.146.146,0,0,0-.087.145.083.083,0,0,0,.042.071.18.18,0,0,0,.1.025c.318,0,.562-.025.736-.025h.327c.355,0,.9,0,1.645.025h.021a.921.921,0,0,0,.824-.951.217.217,0,0,0-.029-.124Z" transform="translate(-247.637 -38.975)" fill="#1a1818"/>
    <path id="패스_49695" data-name="패스 49695" d="M492.6,75.629a.132.132,0,0,0-.094.042,2.491,2.491,0,0,1-.333.412,1.727,1.727,0,0,1-1.138.3,1.508,1.508,0,0,1-.839-.142c-.113-.085-.12-.209-.12-.389v-.735c0-.05,0-.095,0-.133,0-.109.006-.171.029-.2s.069-.041.18-.04h.93a.4.4,0,0,1,.434.284c.028.072.044.148.065.209a.266.266,0,0,0,.041.079.1.1,0,0,0,.08.038.121.121,0,0,0,.115-.071.284.284,0,0,0,.023-.127c0-.049-.005-.095-.006-.12l-.042-1.02a.222.222,0,0,0-.043-.144.107.107,0,0,0-.083-.031h-.016a.083.083,0,0,0-.064.034c-.1.124-.156.495-.563.5h-.867c-.124,0-.174-.013-.19-.038a.435.435,0,0,1-.025-.217v-.811a.7.7,0,0,1,.019-.214.131.131,0,0,1,.069-.079,3.644,3.644,0,0,1,1.128-.069c.551,0,.693.162.75.314a1.356,1.356,0,0,1,.046.227.21.21,0,0,0,.039.09.12.12,0,0,0,.1.04.122.122,0,0,0,.115-.069.306.306,0,0,0,.023-.123c0-.043-.005-.082-.007-.107l-.023-.568a.144.144,0,0,0-.148-.141c-.507,0-1.434.023-1.841.023-.881,0-1.293-.023-1.531-.023a.176.176,0,0,0-.115.038.123.123,0,0,0-.045.093.156.156,0,0,0,.123.143c.1.038.233.053.341.105a.314.314,0,0,1,.186.315v2.688c0,.346-.1.42-.2.459-.05.02-.1.027-.151.05a.144.144,0,0,0-.088.145.084.084,0,0,0,.041.072.182.182,0,0,0,.1.024c.318,0,.562-.022.736-.022.287,0,1.222.033,2.1.033a.945.945,0,0,0,.855-.962.205.205,0,0,0-.03-.124Z" transform="translate(-262.205 -38.961)" fill="#1a1818"/>
    <path id="패스_49696" data-name="패스 49696" d="M398.729,72.715h-4.084V76.8h4.09V72.715h-.006Zm-.515,1.04h0a1.141,1.141,0,0,1-.443.643,1.113,1.113,0,0,1-.728.1l-.037-.007c-.177.146-.341.3-.488.433l-.038.035h0a.619.619,0,0,1,.148-.038,1.132,1.132,0,0,1,.747-.156,1.157,1.157,0,0,1,.635.47,1.155,1.155,0,0,1-.773.171,1.1,1.1,0,0,1-.6-.418l-.018-.025a.529.529,0,0,0-.237.089l-.014.008-.013.011,0,0a6.473,6.473,0,0,1-.538.465.909.909,0,0,1,.1-.018h.01c.02-.011.049-.028.082-.045a1.064,1.064,0,0,1,.646-.122,1.156,1.156,0,0,1,.65.45,1.157,1.157,0,0,1-.768.194,1.092,1.092,0,0,1-.6-.39c-.016-.019-.03-.035-.037-.045s-.013,0-.021.006l-.008,0a.619.619,0,0,0-.145.038,1.107,1.107,0,0,1-.543.213h-.016l0-.034h.018a.96.96,0,0,0,.406-.134v0l.015-.008a.306.306,0,0,0,.157-.2,1.177,1.177,0,0,1-.262-.747.45.45,0,1,1,.679.055,1.16,1.16,0,0,1-.383.7.569.569,0,0,1-.042.1,6.561,6.561,0,0,0,.61-.522l.013-.013a.428.428,0,0,0,.106-.2.355.355,0,0,1-.032-.043,1.1,1.1,0,0,1-.187-.7.434.434,0,1,1,.649.092,1.121,1.121,0,0,1-.393.641c-.012.043-.023.083-.037.12.122-.115.256-.232.39-.347l.055-.049c.022-.018.04-.037.063-.056l0-.01,0-.009c.01-.03.024-.071.045-.123a1.042,1.042,0,0,1,.388-.485.839.839,0,0,1,.279-.1h.007a1.308,1.308,0,0,1,.5.013Z" transform="translate(-211.764 -39.018)" fill="#1a1818"/>
    <path id="패스_49697" data-name="패스 49697" d="M398.687,75.229a3.61,3.61,0,0,1,.123-.924l-.006.016a2.918,2.918,0,0,0-.148.906,3.346,3.346,0,0,1-.03.377.259.259,0,0,0,.04-.064,2.737,2.737,0,0,0,.022-.311" transform="translate(-213.899 -39.872)" fill="#1a1818"/>
    <path id="패스_49698" data-name="패스 49698" d="M400.294,77.729a4.269,4.269,0,0,0-.739-.247,1.983,1.983,0,0,0-.452-.049l-.065.031,0,.007a3.353,3.353,0,0,1,1.26.258" transform="translate(-214.119 -41.549)" fill="#1a1818"/>
    <path id="패스_49699" data-name="패스 49699" d="M398.746,79.033a3.772,3.772,0,0,0-1.2-.285.268.268,0,0,0-.055.017l-.008.01a4.1,4.1,0,0,1,1.278.265Z" transform="translate(-213.287 -42.256)" fill="#1a1818"/>
    <path id="패스_49700" data-name="패스 49700" d="M399.845,75.641l.105-.082a4.169,4.169,0,0,1,.995-.583l-.008,0a3.538,3.538,0,0,0-1.064.605Z" transform="translate(-214.554 -40.232)" fill="#1a1818"/>
    <path id="패스_49701" data-name="패스 49701" d="M397.317,75.623s0,.009,0,.014l.008-.03Z" transform="translate(-213.196 -40.57)" fill="#1a1818"/>
    <path id="패스_49702" data-name="패스 49702" d="M397.1,77.073a2.449,2.449,0,0,0,.023-.4,3.708,3.708,0,0,1,.044-.76,3.33,3.33,0,0,0-.079.76c0,.127,0,.244-.012.347a.381.381,0,0,1,.014.061Z" transform="translate(-213.066 -40.733)" fill="#1a1818"/>
    <path id="패스_49703" data-name="패스 49703" d="M397.268,75.782c.009-.037.01-.074.021-.111-.005.019-.012.057-.021.111" transform="translate(-213.171 -40.604)" fill="#1a1818"/>
    <path id="패스_49704" data-name="패스 49704" d="M497.595,72.711h.219v.558h.133v-.558h.219V72.6h-.572Z" transform="translate(-267.006 -38.956)" fill="#1a1818"/>
    <path id="패스_49705" data-name="패스 49705" d="M499.609,72.6l-.172.48-.171-.48h-.192v.671h.123v-.541l.188.541h.106l.186-.541v.541h.123V72.6Z" transform="translate(-267.799 -38.956)" fill="#1a1818"/>
    <path id="패스_49706" data-name="패스 49706" d="M381.509,25.55h12.274V23.49H381.509V0h-3.766V25.55h3.766Z" transform="translate(-202.694 0)" fill="#1a1818"/>
    <path id="패스_49707" data-name="패스 49707" d="M426.086,0h-4l-4.77,14.36-.531,1.6L413.6,25.55h2.677l2.34-6.981,1.7-5.16,3.251-10.065,4.077,12.616H421.33l-.6,1.786h7.489l2.522,7.8h3.884L426.32.084Z" transform="translate(-221.933 0)" fill="#1a1818"/>
    <path id="패스_49708" data-name="패스 49708" d="M464.232,25.55h7.08c6.122,0,9.359-2.515,9.359-7.273a6.13,6.13,0,0,0-4.732-6.144,6.311,6.311,0,0,0,3.54-5.718c0-3.957-3.144-6.414-8.2-6.414h-1.425V1.9h1.1c3.054,0,4.877,1.76,4.877,4.706,0,3.97-2.671,4.863-3.607,4.863H468V0h-3.766V25.55ZM468,13.259h4.376c2.861,0,4.569,1.832,4.569,4.9,0,3.641-2,5.487-5.953,5.487H468Z" transform="translate(-249.104 0)" fill="#1a1818"/>
    <path id="패스_49709" data-name="패스 49709" d="M117.506.26c.78.424,3.7,2.865,2.739,7.661a11.576,11.576,0,0,1-.456,1.59l-3.444,9.751L109.771.187H105.3l2.037,5.783-4.572,13.219-6.538-19H91.541L100.392,24.6a1.648,1.648,0,0,0,1.549,1.086h.009L108.174,8.3l5.768,16.284a1.647,1.647,0,0,0,1.552,1.1l6.618-18.307c1.338-3.7,1.875-5.822,1.947-7.188h-6.522c-.039,0-.066.054-.032.073" transform="translate(-49.12 -0.1)" fill="#1a1818"/>
    <rect id="사각형_12289" data-name="사각형 12289" width="3.745" height="25.425" transform="translate(90.71 0.087)" fill="#1a1818"/>
    <rect id="사각형_12290" data-name="사각형 12290" width="3.745" height="25.425" transform="translate(97.516 0.087)" fill="#1a1818"/>
    <path id="패스_49710" data-name="패스 49710" d="M234.85,17.062a7.229,7.229,0,0,0-6.053,3.421V17.55h-3.675V34.667h3.745V24.389a5.04,5.04,0,0,1,2.8-4.586,3.738,3.738,0,0,1,1.58-.393c1.805,0,2.841,1.341,2.841,3.679V34.667h3.745v-12.1c0-3.394-1.908-5.5-4.98-5.5" transform="translate(-120.799 -9.155)" fill="#1a1818"/>
    <path id="패스_49711" data-name="패스 49711" d="M276.132,28.785a5.051,5.051,0,0,1-4.886,3.611c-4.387,0-6.088-3.274-6.088-7.735,0-.091,0-.268.011-.431h11.58v-.041a8.023,8.023,0,0,0-.144-1.618,6.577,6.577,0,0,0-6.721-5.507c-4.69,0-8.226,3.912-8.226,9.1,0,5.131,3.4,8.855,8.087,8.855a7.16,7.16,0,0,0,7.173-6.048l.04-.184ZM269.311,18.4c1.842,0,3.686,1.919,3.686,4.581h-7.7c.123-2.919,2.117-4.581,4.015-4.581" transform="translate(-140.403 -9.156)" fill="#1a1818"/>
    <path id="패스_49712" data-name="패스 49712" d="M172.292,28.785a5.051,5.051,0,0,1-4.886,3.611c-4.387,0-6.088-3.274-6.088-7.735,0-.091,0-.268.011-.431h11.58v-.041a8.026,8.026,0,0,0-.144-1.618,6.577,6.577,0,0,0-6.721-5.507c-4.69,0-8.226,3.912-8.226,9.1,0,5.131,3.4,8.855,8.087,8.855a7.16,7.16,0,0,0,7.173-6.048l.04-.184ZM165.471,18.4c1.842,0,3.686,1.919,3.686,4.581h-7.7c.123-2.919,2.117-4.581,4.014-4.581" transform="translate(-84.684 -9.156)" fill="#1a1818"/>
    <path id="패스_49713" data-name="패스 49713" d="M339.651,24.484c-3.278-1.453-4.331-2.394-4.331-3.872,0-1.451,1.048-2.352,2.736-2.352a3.517,3.517,0,0,1,3.6,3.212h3.1l-.056-.219c-.675-2.662-3.1-4.189-6.648-4.189-3.718,0-6.028,1.774-6.028,4.63,0,2.436,1.66,4.19,5.547,5.867,2.89,1.31,4.123,2.48,4.123,3.909,0,1.448-1.267,2.421-3.155,2.421-2.269,0-3.564-1.329-3.864-3.944h-3.217c.308,3.085,3.171,5.071,7.012,5.071,3.96,0,6.62-1.931,6.62-4.8,0-2.307-1.628-4.02-5.444-5.729" transform="translate(-177.861 -9.156)" fill="#1a1818"/>
    <path id="패스_49714" data-name="패스 49714" d="M306.127,24.484c-3.278-1.453-4.331-2.394-4.331-3.872,0-1.451,1.048-2.352,2.736-2.352a3.516,3.516,0,0,1,3.6,3.212h3.1l-.056-.219c-.675-2.662-3.1-4.189-6.648-4.189-3.718,0-6.027,1.774-6.027,4.63,0,2.436,1.66,4.19,5.547,5.867,2.89,1.31,4.123,2.48,4.123,3.909,0,1.448-1.267,2.421-3.155,2.421-2.269,0-3.565-1.329-3.864-3.944h-3.217c.308,3.085,3.171,5.071,7.012,5.071,3.96,0,6.62-1.931,6.62-4.8,0-2.307-1.628-4.02-5.444-5.729" transform="translate(-159.872 -9.156)" fill="#1a1818"/>
  </g>
</svg>
