<svg xmlns="http://www.w3.org/2000/svg" width="67.665" height="23" viewBox="0 0 67.665 23">
  <g id="그룹_107282" data-name="그룹 107282" transform="translate(0.001 0)">
    <path id="패스_3022" data-name="패스 3022" d="M3.927,58.852S42.744,49.317,71.5,56.034l.089-.31S46.5,48.314,4.409,57.34Z" transform="translate(-3.928 -35.852)" fill="#da0030"/>
    <path id="패스_3023" data-name="패스 3023" d="M54.6,13.475v1.581a2.86,2.86,0,0,1,.813-1.151,3.227,3.227,0,0,1,2.052-.7,3.486,3.486,0,0,1,1.158.2,2.755,2.755,0,0,1,1.686,1.806,3.526,3.526,0,0,1,3.21-1.986,3.39,3.39,0,0,1,2.4.926c1.016.993,1.056,2.076,1.056,4.784v6.23H63.984v-5.53c0-1.874-.04-2.257-.345-2.753a1.316,1.316,0,0,0-1.239-.655,1.551,1.551,0,0,0-1.28.677,5.631,5.631,0,0,0-.325,2.483v5.778H57.808V19.276a4.549,4.549,0,0,0-.3-2.347,1.422,1.422,0,0,0-1.219-.7,1.584,1.584,0,0,0-.772.2c-.873.5-.893,1.354-.893,3.566v5.169H51.633V13.475Z" transform="translate(-35.992 -9.196)" fill="#00254c"/>
    <path id="패스_3024" data-name="패스 3024" d="M109.686,14.03h3.047l-3.047,11.692H106.9l-1.767-7.9-1.747,7.9h-2.823L97.518,14.03h3.047l1.6,7.313,1.645-7.313h2.641l1.626,7.313Z" transform="translate(-66.834 -9.751)" fill="#00254c"/>
    <path id="패스_3025" data-name="패스 3025" d="M148.752,19.14a4.355,4.355,0,0,1-.772,2.844,1.741,1.741,0,0,1-1.3.654,1.856,1.856,0,0,1-1.666-1.377,5.313,5.313,0,0,1-.325-2.008,4.505,4.505,0,0,1,.629-2.573,1.906,1.906,0,0,1,1.483-.857,1.61,1.61,0,0,1,1.2.587A3.948,3.948,0,0,1,148.752,19.14Zm.154,5.981h2.925V13.407h-2.864v1.512a2.813,2.813,0,0,0-2.6-1.783c-1.991,0-4.591,1.715-4.591,6.32,0,3.656,1.869,5.914,4.368,5.914a3.052,3.052,0,0,0,2.762-1.535Z" transform="translate(-96.582 -9.15)" fill="#00254c"/>
    <path id="패스_3026" data-name="패스 3026" d="M179.32,14.03h3.035l-3.34,11.6a8.251,8.251,0,0,1-1.219,2.8c-.549.587-1.2.857-3.616.857-.346,0-.488-.022-.792-.045v-2.6h.792a2.03,2.03,0,0,0,1.259-.293,1.669,1.669,0,0,0,.447-1.174,3.892,3.892,0,0,0-.224-.993l-3.25-10.157h3.25l1.909,7.877Z" transform="translate(-117.174 -9.751)" fill="#00254c"/>
    <path id="패스_3027" data-name="패스 3027" d="M17.127,4.485l1.6,6.153H15.607ZM15.233.979,10.217,16.95H13.9l.936-3.393h4.7L20.5,16.95h3.7L18.979.979Z" transform="translate(-8.154 -0.979)" fill="#00254c"/>
  </g>
</svg>
